<svg width="133" height="29" viewBox="0 0 133 29" fill="none" xmlns="http://www.w3.org/2000/svg">
<rect x="0.200195" y="0.850098" width="27.6587" height="27.6587" rx="7.20279" fill="#017EFF"/>
<path d="M13.8092 17.4855C13.2183 17.4644 12.6274 17.4644 12.0365 17.4432C12.8596 14.7209 13.6615 11.9774 14.4845 9.25499C13.767 9.25499 10.9813 9.23389 10.306 9.23389C10.1794 9.23389 10.0528 9.23389 9.96834 9.2972C9.84172 9.38161 9.79951 9.52934 9.7573 9.65596C8.68101 13.2647 7.60472 16.8734 6.52843 20.4822C7.11933 20.5033 7.71024 20.5033 8.30114 20.5244C7.71024 22.4659 7.09823 24.4286 6.50732 26.3701C8.93426 23.3945 11.3823 20.44 13.8092 17.4855Z" fill="white"/>
<path d="M14.1893 12.906C14.0838 12.906 13.9782 12.9271 13.8938 12.9904C13.8094 13.0537 13.7883 13.1592 13.7672 13.2647C13.5562 14.0878 13.3451 14.9108 13.113 15.7128C14.2737 15.6495 15.4133 15.755 16.574 15.7128C17.7347 15.6706 18.9165 15.4384 19.8662 14.7842C21.2168 13.8556 21.871 12.1251 21.8077 10.5001C21.7444 9.1284 21.1957 7.71445 20.0983 6.8914C18.8321 5.94173 17.1227 5.89952 15.5399 5.89952C12.6698 5.89952 9.82079 5.87842 6.95068 5.87842C7.77373 6.68036 8.57567 7.4612 9.39872 8.26314C9.63086 8.49528 9.90521 8.74853 10.2429 8.74853C12.1422 8.72742 14.0626 8.72742 15.962 8.74853C16.4896 8.74853 17.0594 8.76963 17.5237 9.04398C18.1357 9.40274 18.4522 10.1414 18.4311 10.8589C18.41 11.4498 18.1779 12.0618 17.7136 12.4417C16.785 13.2014 15.3922 12.8004 14.1893 12.906Z" fill="white"/>
<path d="M12.2467 9.21289L9.18663 18.2875L11.698 18.2664L6.48535 26.3491L13.8084 17.4856L12.0356 17.4223L14.4837 9.23399L12.2467 9.21289Z" fill="#06306A"/>
<path d="M40.3819 17.682H37.2252V23.1794H34.2295V8.14733H40.3605C43.9467 8.14733 45.8579 10.0156 45.8579 12.9254C45.8579 15.8137 43.9467 17.682 40.3819 17.682ZM40.3068 10.9068H37.2252V14.944H40.3068C41.9388 14.944 42.7871 14.2783 42.7871 12.9254C42.7871 11.5832 41.9388 10.9068 40.3068 10.9068ZM52.9586 12.4959C53.5599 12.4959 54.0323 12.5818 54.4188 12.7214L54.0001 15.5023C53.5384 15.2983 52.8727 15.1695 52.3036 15.1695C51.0044 15.1695 50.1132 15.964 50.1132 17.5102V23.1794H47.3108V12.7751H50.0273V13.9132C50.6823 12.9361 51.6809 12.4959 52.9586 12.4959ZM60.0842 12.4959C63.3269 12.4959 65.7213 14.8366 65.7213 17.9719C65.7213 21.1072 63.3269 23.4479 60.0842 23.4479C56.8523 23.4479 54.4687 21.1072 54.4687 17.9719C54.4687 14.8366 56.8523 12.4959 60.0842 12.4959ZM60.0842 15.1051C58.5059 15.1051 57.3248 16.2861 57.3248 17.9719C57.3248 19.6576 58.5059 20.8387 60.0842 20.8387C61.6626 20.8387 62.8544 19.6576 62.8544 17.9719C62.8544 16.2861 61.6626 15.1051 60.0842 15.1051ZM76.4862 12.7751L72.7604 17.886L76.5506 23.1794H73.2221L70.8814 19.8724L68.5836 23.1794H65.3409L69.1634 17.8967L65.4376 12.7751H68.7661L71.0102 16.007L73.2435 12.7751H76.4862ZM80.2513 12.7751V23.1794H77.4488V12.7751H80.2513ZM78.8339 7.56752C79.8432 7.56752 80.6271 8.36208 80.6271 9.37138C80.6271 10.3807 79.8432 11.1538 78.8339 11.1538C77.8247 11.1538 77.0516 10.3807 77.0516 9.37138C77.0516 8.36208 77.8247 7.56752 78.8339 7.56752ZM86.953 12.4959C89.9486 12.4959 91.9995 14.7185 92.0102 17.9612C92.0102 18.2833 91.9887 18.6698 91.9565 18.906H84.58C84.8807 20.4092 85.9329 21.0642 87.2536 21.0642C88.1555 21.0642 89.1326 20.6991 89.8842 20.0656L91.527 21.8695C90.3459 22.954 88.8427 23.4479 87.0925 23.4479C83.9036 23.4479 81.6917 21.279 81.6917 18.0041C81.6917 14.7292 83.8392 12.4959 86.953 12.4959ZM86.9315 14.9118C85.6108 14.9118 84.8377 15.7063 84.5908 16.9948H89.197C88.9394 15.6634 88.1341 14.9118 86.9315 14.9118ZM101.754 13.4945L100.809 15.6741C99.9822 15.2661 98.6616 14.8366 97.4912 14.8259C96.4282 14.8259 95.8914 15.2017 95.8914 15.7708C95.8914 16.372 96.643 16.5224 97.5878 16.6619L98.5112 16.8015C100.766 17.1451 102.022 18.1544 102.022 19.9153C102.022 22.0628 100.261 23.4479 97.2443 23.4479C95.8269 23.4479 93.9694 23.1794 92.6165 22.2238L93.7224 20.0979C94.6136 20.6884 95.6981 21.1179 97.2657 21.1179C98.5649 21.1179 99.1877 20.7528 99.1877 20.1408C99.1877 19.6362 98.6616 19.357 97.459 19.1852L96.6108 19.0671C94.2056 18.7342 93.0138 17.682 93.0138 15.9103C93.0138 13.7736 94.6673 12.5066 97.4053 12.5066C99.0696 12.5066 100.369 12.818 101.754 13.4945ZM104.886 19.2818C105.992 19.2818 106.958 20.2374 106.958 21.3541C106.958 22.4815 105.992 23.4479 104.886 23.4479C103.769 23.4479 102.792 22.4815 102.792 21.3541C102.792 20.2374 103.769 19.2818 104.886 19.2818ZM112.487 12.4959C113.937 12.4959 115 13.0542 115.708 13.9347V12.7751H118.457V22.3205C118.457 25.6597 116.277 27.6783 112.842 27.6783C111.199 27.6783 109.459 27.2489 108.289 26.4221L109.288 24.1351C110.329 24.8222 111.478 25.198 112.723 25.198C114.463 25.198 115.687 24.2317 115.687 22.4386V21.7084C114.978 22.5782 113.926 23.115 112.487 23.115C109.953 23.115 107.698 20.9998 107.698 17.8108C107.698 14.6111 109.953 12.4959 112.487 12.4959ZM113.196 15.0728C111.596 15.0728 110.576 16.2969 110.576 17.8108C110.576 19.314 111.596 20.5381 113.196 20.5381C114.753 20.5381 115.805 19.357 115.805 17.8108C115.805 16.2539 114.753 15.0728 113.196 15.0728ZM124.693 12.4959C126.143 12.4959 127.206 13.0542 127.914 13.9347V12.7751H130.663V22.3205C130.663 25.6597 128.484 27.6783 125.048 27.6783C123.405 27.6783 121.665 27.2489 120.495 26.4221L121.494 24.1351C122.535 24.8222 123.684 25.198 124.93 25.198C126.669 25.198 127.893 24.2317 127.893 22.4386V21.7084C127.184 22.5782 126.132 23.115 124.693 23.115C122.159 23.115 119.904 20.9998 119.904 17.8108C119.904 14.6111 122.159 12.4959 124.693 12.4959ZM125.402 15.0728C123.802 15.0728 122.782 16.2969 122.782 17.8108C122.782 19.314 123.802 20.5381 125.402 20.5381C126.959 20.5381 128.011 19.357 128.011 17.8108C128.011 16.2539 126.959 15.0728 125.402 15.0728Z" fill="white"/>
</svg>
