<svg width="40" height="40" viewBox="0 0 40 40" fill="none" xmlns="http://www.w3.org/2000/svg">
<g id="vuesax/bulk/house">
<g id="house">
<g id="Group">
<path id="Vector" d="M36.6667 37.9165H3.33333C2.65 37.9165 2.08333 37.3498 2.08333 36.6665C2.08333 35.9832 2.65 35.4165 3.33333 35.4165H36.6667C37.35 35.4165 37.9167 35.9832 37.9167 36.6665C37.9167 37.3498 37.35 37.9165 36.6667 37.9165Z" fill="#FFA232"/>
</g>
<path id="Vector_2" opacity="0.4" d="M35 16.6331V36.6665H4.91667L5 16.6165C5 15.5998 5.46667 14.6332 6.28333 13.9999L17.95 4.9332C19.15 3.9832 20.85 3.9832 22.05 4.9332L24.2833 6.6665L31.6667 12.3998L33.7167 13.9999C34.5333 14.6332 35 15.5998 35 16.6331Z" fill="#FFA232"/>
<path id="Vector_3" d="M21.6667 28.3335H18.3333C16.95 28.3335 15.8333 29.4502 15.8333 30.8335V36.6668H24.1667V30.8335C24.1667 29.4502 23.05 28.3335 21.6667 28.3335Z" fill="#FFA232"/>
<path id="Vector_4" d="M15.8333 22.9168H12.5C11.5833 22.9168 10.8333 22.1668 10.8333 21.2502V18.7502C10.8333 17.8335 11.5833 17.0835 12.5 17.0835H15.8333C16.75 17.0835 17.5 17.8335 17.5 18.7502V21.2502C17.5 22.1668 16.75 22.9168 15.8333 22.9168Z" fill="#FFA232"/>
<path id="Vector_5" d="M27.5 22.9168H24.1667C23.25 22.9168 22.5 22.1668 22.5 21.2502V18.7502C22.5 17.8335 23.25 17.0835 24.1667 17.0835H27.5C28.4167 17.0835 29.1667 17.8335 29.1667 18.7502V21.2502C29.1667 22.1668 28.4167 22.9168 27.5 22.9168Z" fill="#FFA232"/>
<path id="Vector_6" d="M31.6667 12.3998L24.2833 6.6665H29.9667C30.8833 6.6665 31.6333 7.39982 31.6333 8.31649L31.6667 12.3998Z" fill="#FFA232"/>
</g>
</g>
</svg>
