<svg xmlns="http://www.w3.org/2000/svg" width="17" height="17" viewBox="0 0 17 17" fill="none">
  <path d="M14.0038 9.73991H11.1421C9.71833 9.73991 9.03125 9.08116 9.03125 7.72116V2.90449C9.03125 1.54449 9.72542 0.885742 11.1421 0.885742H14.0038C15.4275 0.885742 16.1146 1.54449 16.1146 2.90449V7.72116C16.1146 9.08116 15.4204 9.73991 14.0038 9.73991ZM11.1421 1.94824C10.2425 1.94824 10.0938 2.18908 10.0938 2.90449V7.72116C10.0938 8.43657 10.2425 8.67741 11.1421 8.67741H14.0038C14.9033 8.67741 15.0521 8.43657 15.0521 7.72116V2.90449C15.0521 2.18908 14.9033 1.94824 14.0038 1.94824H11.1421Z" fill="#17171780"/>
  <path d="M14.0038 16.1143H11.1421C9.71833 16.1143 9.03125 15.4555 9.03125 14.0955V12.8205C9.03125 11.4605 9.72542 10.8018 11.1421 10.8018H14.0038C15.4275 10.8018 16.1146 11.4605 16.1146 12.8205V14.0955C16.1146 15.4555 15.4204 16.1143 14.0038 16.1143ZM11.1421 11.8643C10.2425 11.8643 10.0938 12.1051 10.0938 12.8205V14.0955C10.0938 14.8109 10.2425 15.0518 11.1421 15.0518H14.0038C14.9033 15.0518 15.0521 14.8109 15.0521 14.0955V12.8205C15.0521 12.1051 14.9033 11.8643 14.0038 11.8643H11.1421Z" fill="#17171780"/>
  <path d="M5.85792 16.1149H2.99625C1.5725 16.1149 0.885417 15.4562 0.885417 14.0962V9.27949C0.885417 7.91949 1.57958 7.26074 2.99625 7.26074H5.85792C7.28167 7.26074 7.96875 7.91949 7.96875 9.27949V14.0962C7.96875 15.4562 7.27458 16.1149 5.85792 16.1149ZM2.99625 8.32324C2.09667 8.32324 1.94792 8.56408 1.94792 9.27949V14.0962C1.94792 14.8116 2.09667 15.0524 2.99625 15.0524H5.85792C6.7575 15.0524 6.90625 14.8116 6.90625 14.0962V9.27949C6.90625 8.56408 6.7575 8.32324 5.85792 8.32324H2.99625Z" fill="#17171780"/>
  <path d="M5.85792 6.19824H2.99625C1.5725 6.19824 0.885417 5.53949 0.885417 4.17949V2.90449C0.885417 1.54449 1.57958 0.885742 2.99625 0.885742H5.85792C7.28167 0.885742 7.96875 1.54449 7.96875 2.90449V4.17949C7.96875 5.53949 7.27458 6.19824 5.85792 6.19824ZM2.99625 1.94824C2.09667 1.94824 1.94792 2.18908 1.94792 2.90449V4.17949C1.94792 4.89491 2.09667 5.13574 2.99625 5.13574H5.85792C6.7575 5.13574 6.90625 4.89491 6.90625 4.17949V2.90449C6.90625 2.18908 6.7575 1.94824 5.85792 1.94824H2.99625Z" fill="#17171780"/>
</svg>
