<svg width="40" height="40" viewBox="0 0 40 40" fill="none" xmlns="http://www.w3.org/2000/svg">
<g id="vuesax/bulk/security-user">
<g id="security-user">
<g id="Group">
<path id="Vector" opacity="0.4" d="M17.4832 3.7166L9.16652 6.83329C7.24986 7.54995 5.6832 9.8166 5.6832 11.8666V24.2499C5.6832 26.2166 6.98322 28.8 8.56655 29.9833L15.7332 35.3333C18.0832 37.0999 21.9498 37.0999 24.2998 35.3333L31.4665 29.9833C33.0499 28.8 34.3498 26.2166 34.3498 24.2499V11.8666C34.3498 9.8166 32.7832 7.54995 30.8665 6.83329L22.5499 3.7166C21.1332 3.19993 18.8665 3.19993 17.4832 3.7166Z" fill="#00E462"/>
</g>
<g id="v6">
<path d="M19.6559 17.5096L16.5697 25.4H14.1187L11 17.5096H13.3126L15.3564 23.1607L17.4166 17.5096H19.6559Z" fill="#00E462"/>
<path d="M27.2092 14L24.4 17.9656C24.5547 17.9493 24.7338 17.933 24.9292 17.933C27.2418 17.933 28.8785 19.586 28.8785 21.7194C28.8785 23.9506 27.0382 25.6036 24.5872 25.6036C22.1525 25.6036 20.3122 23.9669 20.3122 21.7601C20.3122 20.7179 20.7031 19.7733 21.3952 18.731L24.5547 14H27.2092ZM24.5872 19.8629C23.4554 19.8629 22.6004 20.6364 22.6004 21.7357C22.6004 22.8431 23.4554 23.6086 24.5872 23.6086C25.7354 23.6086 26.5904 22.8431 26.5904 21.7357C26.5904 20.6364 25.7354 19.8629 24.5872 19.8629Z" fill="#00E462"/>
</g>
</g>
</g>
</svg>
