<svg width="34" height="24" viewBox="0 0 34 24" fill="none" xmlns="http://www.w3.org/2000/svg">
<rect x="1.50441" y="1.14772" width="31.5506" height="21.9898" rx="3.34627" fill="white" stroke="#D9D9D9" stroke-width="0.956078"/>
<path fill-rule="evenodd" clip-rule="evenodd" d="M9.96421 8.6743C9.69136 9.01074 9.2548 9.2761 8.81825 9.23819C8.76368 8.78329 8.97741 8.29995 9.22752 8.00142C9.50037 7.6555 9.97785 7.40909 10.3644 7.39014C10.4099 7.864 10.2325 8.32838 9.96421 8.6743ZM10.3598 9.32861C9.97523 9.30554 9.6243 9.44914 9.34085 9.56512L9.34085 9.56512C9.15844 9.63976 9.00397 9.70296 8.88645 9.70296C8.75458 9.70296 8.59373 9.63638 8.41314 9.56162C8.1765 9.46366 7.90596 9.35167 7.62226 9.35704C6.97197 9.36652 6.36716 9.75035 6.0352 10.3616C5.35308 11.5842 5.85785 13.3943 6.51723 14.3894C6.8401 14.8823 7.22663 15.4225 7.73595 15.4035C7.96001 15.3947 8.1212 15.3234 8.288 15.2497C8.48004 15.1648 8.67954 15.0765 8.99104 15.0765C9.29175 15.0765 9.48252 15.1625 9.66565 15.2449C9.83978 15.3233 10.007 15.3986 10.2552 15.394C10.7827 15.3845 11.1147 14.9012 11.4376 14.4084C11.786 13.8795 11.9391 13.3633 11.9624 13.2849L11.9651 13.2759C11.9645 13.2753 11.9602 13.2732 11.9526 13.2696C11.8361 13.214 10.9459 12.7894 10.9374 11.6505C10.9288 10.6946 11.6435 10.2103 11.756 10.1341C11.7628 10.1295 11.7675 10.1263 11.7695 10.1247C11.3148 9.42338 10.6054 9.34756 10.3598 9.32861ZM14.0117 15.3413V7.95378H16.672C18.0453 7.95378 19.0049 8.93941 19.0049 10.3799C19.0049 11.8205 18.0271 12.8156 16.6356 12.8156H15.1122V15.3413H14.0117ZM15.1119 8.92058H16.3806C17.3356 8.92058 17.8813 9.45131 17.8813 10.3848C17.8813 11.3183 17.3356 11.8538 16.3761 11.8538H15.1119V8.92058ZM22.6383 14.4557C22.3472 15.0338 21.706 15.3986 21.0148 15.3986C19.9916 15.3986 19.2777 14.7637 19.2777 13.8065C19.2777 12.8588 19.9689 12.3138 21.2467 12.2333L22.6201 12.148V11.7404C22.6201 11.1386 22.2426 10.8117 21.5696 10.8117C21.0148 10.8117 20.6101 11.1102 20.5282 11.5651H19.5369C19.5687 10.6079 20.4327 9.91134 21.6014 9.91134C22.8611 9.91134 23.6796 10.5984 23.6796 11.6646V15.3418H22.661V14.4557H22.6383ZM21.3102 14.522C20.7236 14.522 20.3507 14.2282 20.3507 13.778C20.3507 13.3136 20.7099 13.0435 21.3966 13.0009L22.6199 12.9203V13.3373C22.6199 14.0292 22.056 14.522 21.3102 14.522ZM27.0582 15.6306C26.6171 16.9243 26.1124 17.3507 25.0392 17.3507C24.9573 17.3507 24.6845 17.3412 24.6208 17.3223V16.4362C24.689 16.4457 24.8573 16.4551 24.9437 16.4551C25.4303 16.4551 25.7031 16.2419 25.8714 15.6875L25.9714 15.3605L24.1069 9.9822H25.2575L26.5535 14.3465H26.5762L27.8722 9.9822H28.9909L27.0582 15.6306Z" fill="#181818"/>
</svg>
