<svg width="34" height="24" viewBox="0 0 34 24" fill="none" xmlns="http://www.w3.org/2000/svg">
<rect x="1.01808" y="1.14772" width="31.5506" height="21.9898" rx="3.34627" fill="white" stroke="#D9D9D9" stroke-width="0.956078"/>
<path d="M14.1284 22.7968L32.2939 17.2993V19.9285C32.2939 21.5126 31.0097 22.7968 29.4257 22.7968H14.1284Z" fill="#FD6020"/>
<path fill-rule="evenodd" clip-rule="evenodd" d="M28.5469 9.40798C29.5463 9.40798 30.0959 9.87029 30.0959 10.7435C30.1459 11.4113 29.6962 11.9763 29.0965 12.0791L30.4457 13.9797H29.3963L28.2471 12.1304H28.1471V13.9797H27.2976V9.40798H28.5469ZM28.147 11.514H28.3969C28.9466 11.514 29.1964 11.2571 29.1964 10.7948C29.1964 10.3839 28.9466 10.1271 28.3969 10.1271H28.147V11.514ZM24.3493 13.9797H26.7478V13.2092H25.1988V11.9763H26.6979V11.2058H25.1988V10.1785H26.7478V9.40798H24.3493V13.9797ZM21.8514 12.49L20.7021 9.40798H19.8027L21.6515 14.0824H22.1013L23.9501 9.40798H23.0507L21.8514 12.49ZM11.7074 11.7193C11.7074 13.0035 12.7067 14.0822 13.956 14.0822C14.3557 14.0822 14.7055 13.9794 15.0553 13.8253V12.798C14.8055 13.1062 14.4557 13.3117 14.0559 13.3117C13.2564 13.3117 12.6068 12.6953 12.6068 11.8734V11.7707C12.5568 10.9488 13.2064 10.2296 14.0059 10.1783C14.4057 10.1783 14.8055 10.3838 15.0553 10.692V9.66461C14.7555 9.45914 14.3557 9.40778 14.0059 9.40778C12.7067 9.30504 11.7074 10.3838 11.7074 11.7193ZM10.1586 11.1545C9.65892 10.949 9.50901 10.8463 9.50901 10.5894C9.55898 10.2812 9.80882 10.0244 10.1086 10.0758C10.3585 10.0758 10.6083 10.2299 10.8082 10.4353L11.2579 9.81892C10.9081 9.51072 10.4584 9.30525 10.0087 9.30525C9.30913 9.25388 8.7095 9.81892 8.65953 10.5381V10.5894C8.65953 11.2058 8.90938 11.5654 9.70889 11.8222C9.90876 11.8736 10.1086 11.9763 10.3085 12.0791C10.4584 12.1818 10.5584 12.3359 10.5584 12.5414C10.5584 12.9009 10.2585 13.2091 9.95873 13.2091H9.90876C9.50901 13.2091 9.15922 12.9523 9.00932 12.5927L8.45966 13.1578C8.75947 13.7228 9.3591 14.031 9.95873 14.031C10.7582 14.0824 11.4078 13.466 11.4578 12.6441V12.49C11.4078 11.8736 11.158 11.5654 10.1586 11.1545ZM7.26053 13.9797H8.11V9.40798H7.26053V13.9797ZM3.31299 9.40794H4.56222H4.81206C6.01132 9.45931 6.96073 10.4867 6.91077 11.7195C6.91077 12.3872 6.61095 13.0036 6.11126 13.4659C5.66154 13.8255 5.11188 14.031 4.56222 13.9796H3.31299V9.40794ZM4.41228 13.2093C4.81204 13.2606 5.26176 13.1065 5.56157 12.8497C5.86139 12.5415 6.0113 12.1306 6.0113 11.6683C6.0113 11.2573 5.86139 10.8464 5.56157 10.5382C5.26176 10.2814 4.81204 10.1272 4.41228 10.1786H4.16244V13.2093H4.41228Z" fill="#181818"/>
<path fill-rule="evenodd" clip-rule="evenodd" d="M17.6038 9.302C16.3545 9.302 15.3052 10.3293 15.3052 11.6649C15.3052 12.9491 16.3046 14.0278 17.6038 14.0791C18.903 14.1305 19.9023 13.0518 19.9523 11.7163C19.9023 10.3807 18.903 9.302 17.6038 9.302V9.302Z" fill="#FD6020"/>
</svg>
