<svg width="33" height="24" viewBox="0 0 33 24" fill="none" xmlns="http://www.w3.org/2000/svg">
<rect x="0.747082" y="1.14772" width="31.5506" height="21.9898" rx="3.34627" fill="white" stroke="#D9D9D9" stroke-width="0.956078"/>
<path fill-rule="evenodd" clip-rule="evenodd" d="M15.5259 15.5431V12.7374H16.974C17.5674 12.7374 18.0682 12.5385 18.4765 12.1464L18.5745 12.047C19.3204 11.2351 19.2714 9.97027 18.4765 9.21913C18.0791 8.82146 17.5347 8.60606 16.974 8.6171H14.6494V15.5431H15.5259ZM15.526 11.8868V9.46764H16.9961C17.3119 9.46764 17.6114 9.58915 17.8346 9.81007C18.3083 10.274 18.3192 11.0473 17.8619 11.5278C17.6386 11.7653 17.3228 11.8978 16.9961 11.8868H15.526ZM22.6628 11.1741C22.2872 10.8261 21.7755 10.6494 21.1276 10.6494C20.2947 10.6494 19.6686 10.9587 19.2549 11.5718L20.028 12.0633C20.311 11.6436 20.6976 11.4337 21.1875 11.4337C21.4978 11.4337 21.7972 11.5497 22.0313 11.7595C22.26 11.9584 22.3906 12.2456 22.3906 12.5494V12.7537C22.0531 12.5659 21.6285 12.4665 21.1059 12.4665C20.4961 12.4665 20.0062 12.6101 19.6414 12.9028C19.2767 13.1956 19.0916 13.5822 19.0916 14.0737C19.0807 14.5211 19.2712 14.9464 19.6088 15.2336C19.9517 15.5429 20.3873 15.6975 20.899 15.6975C21.5033 15.6975 21.9823 15.4269 22.3471 14.8856H22.3852V15.5429H23.2236V12.6212C23.2236 12.0081 23.0385 11.5221 22.6628 11.1741ZM20.2843 14.6701C20.1046 14.5375 19.9957 14.3221 19.9957 14.0902C19.9957 13.8306 20.1155 13.6152 20.3496 13.444C20.5892 13.2727 20.8886 13.1844 21.2426 13.1844C21.7326 13.1788 22.1137 13.2893 22.386 13.5102C22.386 13.8858 22.239 14.2117 21.9504 14.4878C21.689 14.7529 21.3351 14.9021 20.9649 14.9021C20.7198 14.9076 20.4803 14.8247 20.2843 14.6701ZM25.1073 17.6252L28.0362 10.8041H27.0835L25.7279 14.2063H25.7116L24.3234 10.8041H23.3707L25.2924 15.2392L24.2036 17.6252H25.1073Z" fill="#3C4043"/>
<path d="M12.5001 12.1301C12.5001 11.8595 12.4783 11.5888 12.4347 11.3237H8.73828V12.8536H10.856C10.7689 13.3452 10.4858 13.787 10.0721 14.0632V15.0574H11.3351C12.0754 14.367 12.5001 13.3452 12.5001 12.1301Z" fill="#4285F4"/>
<path d="M8.73876 16.0184C9.7949 16.0184 10.6877 15.6649 11.3355 15.0574L10.0725 14.0632C9.71868 14.3062 9.26683 14.4443 8.73876 14.4443C7.7153 14.4443 6.8497 13.7429 6.53939 12.804H5.23828V13.8313C5.90245 15.1734 7.258 16.0184 8.73876 16.0184Z" fill="#34A853"/>
<path d="M6.53932 12.804C6.37597 12.3124 6.37597 11.7767 6.53932 11.2796V10.2578H5.238C4.67718 11.379 4.67718 12.7046 5.238 13.8258L6.53932 12.804Z" fill="#FBBC04"/>
<path d="M8.73876 9.63928C9.2995 9.62823 9.83845 9.84363 10.2413 10.2358L11.3628 9.09801C10.6496 8.42419 9.71324 8.05414 8.73876 8.06518C7.258 8.06518 5.90245 8.91574 5.23828 10.2579L6.53939 11.2852C6.8497 10.3407 7.7153 9.63928 8.73876 9.63928Z" fill="#EA4335"/>
</svg>
