<svg width="32" height="32" viewBox="0 0 32 32" fill="none" xmlns="http://www.w3.org/2000/svg">
<g id="HTML5_logo_and_wordmark 1">
<path id="Vector" d="M6.77499 0H8.21249V1.425H9.53749V0H10.975V4.3125H9.53749V2.875H8.22499V4.3125H6.77499M12.875 1.4375H11.6062V0H15.5875V1.4375H14.3125V4.3125H12.875M16.2187 0H17.725L18.65 1.51875L19.575 0H21.0812V4.3125H19.6437V2.175L18.6375 3.725L17.6312 2.175V4.3125H16.2187M21.7937 0H23.2312V2.8875H25.2687V4.3125H21.7937" fill="#B8B7C2"/>
<path id="Vector_2" d="M6.72501 29.4376L4.66251 6.2876H27.3375L25.275 29.4251L15.9813 32.0001" fill="#B8B7C2"/>
<path id="Vector_3" d="M16 30.0312V8.1875H25.2687L23.5 27.9375" fill="#B8B7C2"/>
<path id="Vector_4" d="M8.875 11.0186H16V13.8561H11.9875L12.25 16.7623H16V19.5936H9.65M9.775 21.0186H12.625L12.825 23.2873L16 24.1373V27.0998L10.175 25.4748" fill="#EBEBEB"/>
<path id="Vector_5" d="M23.1 11.0186H15.9875V13.8561H22.8375M22.5812 16.7623H15.9875V19.5998H19.4875L19.1562 23.2873L15.9875 24.1373V27.0873L21.8 25.4748" fill="white"/>
</g>
</svg>
