<svg width="51" height="12" viewBox="0 0 51 12" fill="none" xmlns="http://www.w3.org/2000/svg">
<path d="M3.81124 11.724C3.16057 11.724 2.58457 11.596 2.08324 11.34C1.58191 11.084 1.18724 10.732 0.89924 10.284C0.611241 9.836 0.467241 9.324 0.467241 8.748C0.467241 8.32133 0.547241 7.932 0.707241 7.58C0.877907 7.21733 1.10191 6.88667 1.37924 6.588C1.65657 6.28933 1.97124 6.02267 2.32324 5.788L4.16324 4.524C4.37657 4.37467 4.59524 4.21467 4.81924 4.044C5.04324 3.87333 5.23524 3.676 5.39524 3.452C5.56591 3.228 5.65124 2.972 5.65124 2.684C5.65124 2.332 5.52324 2.05467 5.26724 1.852C5.02191 1.64933 4.70724 1.548 4.32324 1.548C3.98191 1.548 3.68857 1.65467 3.44324 1.868C3.20857 2.08133 3.09124 2.348 3.09124 2.668C3.09124 2.956 3.18191 3.212 3.36324 3.436C3.54457 3.66 3.75791 3.92667 4.00324 4.236L6.06724 6.716L10.0192 11.5H7.89124L4.72324 7.708L2.61124 5.148C2.33391 4.796 2.09924 4.48667 1.90724 4.22C1.71524 3.94267 1.57124 3.68133 1.47524 3.436C1.38991 3.18 1.34724 2.91867 1.34724 2.652C1.34724 2.16133 1.47524 1.724 1.73124 1.34C1.99791 0.945333 2.34991 0.635999 2.78724 0.412C3.22457 0.187999 3.71524 0.0759993 4.25924 0.0759993C4.85657 0.0759993 5.38457 0.187999 5.84324 0.412C6.31257 0.635999 6.68057 0.945333 6.94724 1.34C7.21391 1.73467 7.34724 2.19333 7.34724 2.716C7.34724 3.14267 7.23524 3.54267 7.01124 3.916C6.78724 4.28933 6.46724 4.652 6.05124 5.004C5.64591 5.356 5.16591 5.72933 4.61124 6.124L3.45924 6.908C3.25657 7.04667 3.06991 7.20133 2.89924 7.372C2.72857 7.54267 2.58991 7.73467 2.48324 7.948C2.37657 8.16133 2.32324 8.41733 2.32324 8.716C2.32324 9.14267 2.46724 9.49467 2.75524 9.772C3.05391 10.0387 3.43791 10.172 3.90724 10.172C4.39791 10.172 4.86724 10.092 5.31524 9.932C5.77391 9.772 6.17924 9.54267 6.53124 9.244C6.89391 8.93467 7.17657 8.56133 7.37924 8.124C7.58191 7.68667 7.68324 7.19067 7.68324 6.636H9.39524C9.39524 7.61733 9.15524 8.492 8.67524 9.26C8.19524 10.028 7.53391 10.6307 6.69124 11.068C5.85924 11.5053 4.89924 11.724 3.81124 11.724ZM14.2704 11.5V3.5H15.9504L16.0624 4.972V11.5H14.2704ZM19.6944 11.5V7.404L21.4864 6.924V11.5H19.6944ZM25.1344 11.5V7.404L26.9104 6.924V11.5H25.1344ZM19.6944 7.404C19.6944 6.764 19.6197 6.27333 19.4704 5.932C19.3317 5.58 19.129 5.33467 18.8624 5.196C18.6064 5.05733 18.3024 4.988 17.9504 4.988C17.353 4.97733 16.889 5.17467 16.5584 5.58C16.2277 5.98533 16.0624 6.56667 16.0624 7.324H15.3904C15.3904 6.48133 15.513 5.76133 15.7584 5.164C16.0037 4.556 16.3557 4.09733 16.8144 3.788C17.273 3.468 17.817 3.308 18.4464 3.308C19.417 3.308 20.1637 3.60667 20.6864 4.204C21.2197 4.79067 21.4864 5.69733 21.4864 6.924L19.6944 7.404ZM25.1344 7.404C25.1344 6.764 25.0597 6.27333 24.9104 5.932C24.761 5.58 24.553 5.33467 24.2864 5.196C24.0304 5.05733 23.7317 4.988 23.3904 4.988C22.7824 4.97733 22.313 5.17467 21.9824 5.58C21.6517 5.98533 21.4864 6.56667 21.4864 7.324H20.8144C20.8144 6.48133 20.937 5.76133 21.1824 5.164C21.4277 4.556 21.7797 4.09733 22.2384 3.788C22.697 3.468 23.241 3.308 23.8704 3.308C24.841 3.308 25.593 3.60667 26.1264 4.204C26.6597 4.79067 26.921 5.69733 26.9104 6.924L25.1344 7.404ZM32.0991 11.692C31.2991 11.692 30.5844 11.516 29.9551 11.164C29.3364 10.8013 28.8511 10.3053 28.4991 9.676C28.1471 9.04667 27.9711 8.32133 27.9711 7.5C27.9711 6.67867 28.1418 5.95333 28.4831 5.324C28.8351 4.69467 29.3204 4.204 29.9391 3.852C30.5578 3.48933 31.2671 3.308 32.0671 3.308C32.8671 3.308 33.5764 3.48933 34.1951 3.852C34.8138 4.204 35.2938 4.69467 35.6351 5.324C35.9871 5.95333 36.1631 6.67867 36.1631 7.5C36.1631 8.32133 35.9924 9.04667 35.6511 9.676C35.3098 10.3053 34.8298 10.8013 34.2111 11.164C33.5925 11.516 32.8885 11.692 32.0991 11.692ZM32.0991 10.044C32.5364 10.044 32.9258 9.93733 33.2671 9.724C33.6084 9.5 33.8751 9.20133 34.0671 8.828C34.2591 8.444 34.3551 8.00133 34.3551 7.5C34.3551 6.99867 34.2538 6.56133 34.0511 6.188C33.8591 5.804 33.5925 5.50533 33.2511 5.292C32.9098 5.068 32.5151 4.956 32.0671 4.956C31.6191 4.956 31.2244 5.06267 30.8831 5.276C30.5418 5.48933 30.2751 5.788 30.0831 6.172C29.8911 6.556 29.7951 6.99867 29.7951 7.5C29.7951 8.00133 29.8911 8.444 30.0831 8.828C30.2858 9.20133 30.5578 9.5 30.8991 9.724C31.2511 9.93733 31.6511 10.044 32.0991 10.044ZM38.58 7.244C38.58 6.38 38.7453 5.67067 39.076 5.116C39.4067 4.56133 39.8333 4.15067 40.356 3.884C40.8893 3.60667 41.444 3.468 42.02 3.468V5.18C41.5293 5.18 41.0653 5.24933 40.628 5.388C40.2013 5.516 39.8547 5.72933 39.588 6.028C39.3213 6.32667 39.188 6.72133 39.188 7.212L38.58 7.244ZM37.396 11.5V3.5H39.188V11.5H37.396ZM46.4565 11.692C45.6778 11.692 44.9845 11.516 44.3765 11.164C43.7792 10.8013 43.3045 10.3053 42.9525 9.676C42.6112 9.04667 42.4405 8.32133 42.4405 7.5C42.4405 6.67867 42.6165 5.95333 42.9685 5.324C43.3205 4.69467 43.8005 4.204 44.4085 3.852C45.0272 3.48933 45.7312 3.308 46.5205 3.308C47.2352 3.308 47.8752 3.49467 48.4405 3.868C49.0165 4.23067 49.4752 4.75867 49.8165 5.452C50.1578 6.14533 50.3285 6.972 50.3285 7.932H48.5205C48.5205 7.23867 48.4352 6.668 48.2645 6.22C48.1045 5.772 47.8698 5.44133 47.5605 5.228C47.2618 5.004 46.8938 4.892 46.4565 4.892C45.9978 4.892 45.6032 4.99333 45.2725 5.196C44.9418 5.39867 44.6912 5.69733 44.5205 6.092C44.3498 6.476 44.2645 6.96133 44.2645 7.548C44.2645 8.07067 44.3658 8.51867 44.5685 8.892C44.7818 9.26533 45.0645 9.55333 45.4165 9.756C45.7792 9.948 46.1792 10.044 46.6165 10.044C47.0965 10.044 47.4912 9.93733 47.8005 9.724C48.1098 9.5 48.3498 9.21733 48.5205 8.876L50.1685 9.58C49.9445 10.0067 49.6565 10.38 49.3045 10.7C48.9632 11.02 48.5525 11.2653 48.0725 11.436C47.6032 11.6067 47.0645 11.692 46.4565 11.692ZM43.6245 7.932V6.508H49.3845V7.932H43.6245Z" fill="#BAB9C2"/>
</svg>
