<svg width="42" height="22" viewBox="0 0 42 22" fill="none" xmlns="http://www.w3.org/2000/svg">
<g id="g3478">
<g id="g3484">
<path id="path3486" d="M7.37197 13.8674C8.63006 13.8674 9.56928 13.6354 10.1635 13.1781C10.7515 12.7254 11.1575 11.9411 11.3703 10.8472C11.5688 9.82465 11.4932 9.11068 11.1457 8.72538C10.7905 8.33184 10.0224 8.13225 8.86281 8.13225H6.85226L5.73766 13.8674H7.37197ZM0.796019 20.9321C0.702692 20.9321 0.614057 20.8904 0.554724 20.8183C0.495287 20.7462 0.471199 20.6513 0.48903 20.5597L3.44296 5.36133C3.47153 5.2144 3.60031 5.10825 3.75005 5.10825H10.1165C12.1174 5.10825 13.6066 5.65153 14.5427 6.72317C15.4838 7.80045 15.7744 9.3063 15.4064 11.1988C15.2567 11.9698 14.9991 12.6859 14.6409 13.327C14.2823 13.9688 13.8084 14.5626 13.2321 15.0924C12.5422 15.738 11.7614 16.2062 10.9134 16.4817C10.0789 16.7536 9.00713 16.8914 7.72797 16.8914H5.15006L4.41387 20.6789C4.3853 20.826 4.25663 20.9321 4.10688 20.9321H0.796019Z" fill="#BAB9C2"/>
</g>
<g id="g3488">
<path id="path3490" d="M7.11016 8.44524H8.86283C10.2623 8.44524 10.7485 8.75233 10.9136 8.93534C11.1877 9.2392 11.2394 9.87987 11.0633 10.788C10.8653 11.8047 10.4985 12.5256 9.97275 12.9304C9.43447 13.3448 8.55939 13.5548 7.372 13.5548H6.11714L7.11016 8.44524ZM10.1165 4.79558H3.74998C3.45049 4.79558 3.19304 5.00789 3.13589 5.30184L0.181964 20.5002C0.146302 20.6836 0.194477 20.8733 0.313248 21.0175C0.432122 21.1617 0.609183 21.2451 0.796046 21.2451H4.10681C4.40639 21.2451 4.66385 21.0328 4.72099 20.7389L5.40796 17.2044H7.728C9.04 17.2044 10.1445 17.0614 11.0105 16.7793C11.9011 16.4899 12.7205 15.9993 13.4458 15.3211C14.0456 14.7693 14.5396 14.1499 14.914 13.4799C15.2884 12.8097 15.5575 12.0624 15.7136 11.2586C16.1009 9.26652 15.7862 7.67131 14.7783 6.5176C13.7802 5.37494 12.2117 4.79558 10.1165 4.79558ZM5.35812 14.1804H7.372C8.70684 14.1804 9.70111 13.929 10.3544 13.4261C11.0078 12.9231 11.4485 12.0835 11.6775 10.9071C11.8965 9.77758 11.7967 8.98049 11.3781 8.51615C10.9589 8.05181 10.1206 7.81959 8.86283 7.81959H6.59441L5.35812 14.1804ZM10.1165 5.42124C12.0318 5.42124 13.429 5.92385 14.3072 6.92917C15.1853 7.9345 15.4497 9.33774 15.0994 11.1393C14.9552 11.8814 14.7113 12.56 14.3679 13.1747C14.0241 13.7898 13.5752 14.3523 13.0204 14.8623C12.3593 15.481 11.6249 15.9218 10.8168 16.1844C10.0086 16.4477 8.97931 16.5788 7.728 16.5788H4.89211L4.10681 20.6195H0.796046L3.74998 5.42124H10.1165Z" fill="white"/>
</g>
<g id="g3492">
<path id="path3494" d="M22.9976 16.8916C22.9042 16.8916 22.8156 16.8499 22.7563 16.7777C22.6968 16.7057 22.6727 16.6109 22.6905 16.5191L23.9972 9.79448C24.1215 9.15495 24.0908 8.69593 23.9109 8.50197C23.8008 8.38341 23.4701 8.18456 22.4921 8.18456H20.1248L18.4819 16.6384C18.4533 16.7854 18.3246 16.8916 18.1748 16.8916H14.8901C14.7967 16.8916 14.7082 16.8499 14.6487 16.7777C14.5893 16.7057 14.5652 16.6108 14.583 16.5191L17.537 1.3208C17.5655 1.17388 17.6943 1.06772 17.8441 1.06772H21.1288C21.2222 1.06772 21.3107 1.10944 21.3702 1.18149C21.4296 1.25365 21.4537 1.34844 21.4358 1.4402L20.723 5.10842H23.2696C25.2097 5.10842 26.5252 5.45044 27.2915 6.1541C28.0725 6.87193 28.3162 8.0197 28.0159 9.5659L26.6415 16.6384C26.6129 16.7854 26.4843 16.8916 26.3344 16.8916H22.9976Z" fill="#BAB9C2"/>
</g>
<g id="g3496">
<path id="path3498" d="M21.1288 0.755056H17.8441C17.5445 0.755056 17.287 0.967361 17.2299 1.26132L14.276 16.4596C14.2403 16.6431 14.2885 16.8327 14.4073 16.977C14.5262 17.1212 14.7033 17.2046 14.8901 17.2046H18.1748C18.4743 17.2046 18.7319 16.9923 18.789 16.6983L20.3827 8.49755H22.4921C23.4684 8.49755 23.6733 8.7061 23.6815 8.71507C23.7408 8.77878 23.8187 9.07388 23.6901 9.73499L22.3834 16.4596C22.3478 16.6431 22.3959 16.8327 22.5148 16.977C22.6337 17.1212 22.8107 17.2046 22.9976 17.2046H26.3344C26.6339 17.2046 26.8915 16.9923 26.9486 16.6983L28.3229 9.62581C28.6454 7.96564 28.3695 6.72027 27.5032 5.92402C26.6765 5.16478 25.2917 4.79575 23.2697 4.79575H21.1024L21.7429 1.50011C21.7785 1.31669 21.7304 1.12691 21.6116 0.982796C21.4927 0.838583 21.3156 0.755056 21.1288 0.755056ZM21.1288 1.38071L20.3435 5.42141H23.2697C25.1109 5.42141 26.3808 5.74278 27.0798 6.38471C27.7788 7.02705 27.9881 8.06783 27.7088 9.50652L26.3344 16.5789H22.9976L24.3043 9.85439C24.453 9.08942 24.3983 8.56762 24.1402 8.28941C23.8819 8.0112 23.3324 7.87189 22.4921 7.87189H19.8668L18.1748 16.5789H14.8901L17.8441 1.38071H21.1288Z" fill="white"/>
</g>
<g id="g3500">
<path id="path3502" d="M33.2132 13.8674C34.4713 13.8674 35.4105 13.6354 36.0047 13.1781C36.5926 12.7255 36.9987 11.9412 37.2116 10.8472C37.4101 9.82465 37.3345 9.11068 36.9869 8.72538C36.6316 8.33184 35.8635 8.13225 34.704 8.13225H32.6935L31.5788 13.8674H33.2132ZM26.6373 20.9321C26.544 20.9321 26.4554 20.8904 26.396 20.8183C26.3366 20.7462 26.3124 20.6513 26.3302 20.5597L29.2841 5.36133C29.3128 5.2144 29.4415 5.10825 29.5913 5.10825H35.9577C37.9587 5.10825 39.4478 5.65153 40.384 6.72317C41.3251 7.80034 41.6156 9.30619 41.2477 11.1988C41.0978 11.9698 40.8403 12.6859 40.4821 13.327C40.1235 13.9688 39.6496 14.5626 39.0733 15.0924C38.3834 15.738 37.6026 16.2062 36.7546 16.4817C35.9201 16.7536 34.8483 16.8914 33.5692 16.8914H30.9911L30.2553 20.6789C30.2266 20.826 30.0979 20.9321 29.9481 20.9321H26.6373Z" fill="#BAB9C2"/>
</g>
<g id="g3504">
<path id="path3506" d="M32.9514 8.44524H34.704C36.1035 8.44524 36.5897 8.75233 36.7548 8.93534C37.029 9.2392 37.0807 9.87987 36.9045 10.7879C36.7066 11.8047 36.3396 12.5256 35.814 12.9304C35.2757 13.3448 34.4006 13.5548 33.2132 13.5548H31.9585L32.9514 8.44524ZM35.9577 4.79558H29.5913C29.2918 4.79558 29.0343 5.00789 28.9772 5.30184L26.0233 20.5002C25.9876 20.6836 26.0358 20.8733 26.1546 21.0175C26.2734 21.1617 26.4505 21.2451 26.6374 21.2451H29.9481C30.2476 21.2451 30.5052 21.0328 30.5623 20.7389L31.2492 17.2044H33.5692C34.8812 17.2044 35.9857 17.0614 36.8517 16.7793C37.7423 16.4899 38.5619 15.9992 39.2872 15.3209C39.887 14.7692 40.3808 14.1499 40.7552 13.4799C41.1296 12.8097 41.3987 12.0624 41.5548 11.2586C41.9421 9.26642 41.6274 7.6712 40.6195 6.51749C39.6214 5.37494 38.053 4.79558 35.9577 4.79558ZM31.1994 14.1804H33.2132C34.548 14.1804 35.5423 13.929 36.1956 13.4261C36.8491 12.9231 37.2897 12.0835 37.5187 10.9071C37.7378 9.77758 37.6381 8.98049 37.2193 8.51615C36.8001 8.05181 35.9618 7.81959 34.704 7.81959H32.4356L31.1994 14.1804ZM35.9577 5.42124C37.873 5.42124 39.2702 5.92385 40.1484 6.92917C41.0266 7.9345 41.2909 9.33774 40.9406 11.1393C40.7964 11.8814 40.5525 12.56 40.2091 13.1747C39.8653 13.7898 39.4164 14.3523 38.8616 14.8623C38.2005 15.481 37.4661 15.9218 36.658 16.1844C35.8498 16.4477 34.8205 16.5788 33.5692 16.5788H30.7333L29.9481 20.6195H26.6374L29.5913 5.42124H35.9577Z" fill="white"/>
</g>
</g>
</svg>
