<svg width="150" height="32" viewBox="0 0 150 32" fill="none" xmlns="http://www.w3.org/2000/svg">
<rect width="31.1593" height="31.1593" rx="8.1144" fill="#017EFF"/>
<path d="M15.3316 18.7412C14.6659 18.7175 14.0002 18.7175 13.3345 18.6937C14.2617 15.6267 15.1651 12.536 16.0923 9.46909C15.284 9.46909 12.1457 9.44531 11.385 9.44531C11.2423 9.44531 11.0997 9.44531 11.0046 9.51664C10.8619 9.61173 10.8144 9.77816 10.7668 9.92081C9.5543 13.9863 8.34178 18.0518 7.12927 22.1172C7.79496 22.141 8.46066 22.141 9.12635 22.1648C8.46066 24.3521 7.77119 26.5631 7.1055 28.7504C9.83959 25.3982 12.5975 22.0697 15.3316 18.7412Z" fill="white"/>
<path d="M15.7597 13.582C15.6408 13.582 15.5219 13.6058 15.4268 13.6771C15.3317 13.7484 15.3079 13.8673 15.2842 13.9862C15.0464 14.9134 14.8087 15.8406 14.5471 16.7441C15.8548 16.6727 17.1386 16.7916 18.4462 16.7441C19.7538 16.6965 21.0852 16.435 22.1551 15.698C23.6766 14.6519 24.4137 12.7024 24.3423 10.8717C24.271 9.32635 23.6529 7.73344 22.4166 6.80623C20.9901 5.73636 19.0643 5.68881 17.2812 5.68881C14.0479 5.68881 10.8383 5.66504 7.60492 5.66504C8.53213 6.56848 9.43558 7.44814 10.3628 8.35158C10.6243 8.61311 10.9334 8.8984 11.3138 8.8984C13.4535 8.87463 15.617 8.87463 17.7567 8.8984C18.3511 8.8984 18.993 8.92218 19.5161 9.23125C20.2055 9.63542 20.5622 10.4675 20.5384 11.2759C20.5146 11.9416 20.2531 12.631 19.73 13.059C18.6839 13.9149 17.1148 13.4632 15.7597 13.582Z" fill="white"/>
<path d="M13.5721 9.4209L10.1248 19.644L12.954 19.6203L7.0816 28.726L15.3314 18.7406L13.3344 18.6693L16.0922 9.44467L13.5721 9.4209Z" fill="#06306A"/>
<path d="M45.4394 18.8868H41.8831V25.0801H38.5082V8.14544H45.4152C49.4553 8.14544 51.6084 10.2502 51.6084 13.5282C51.6084 16.7821 49.4553 18.8868 45.4394 18.8868ZM45.3547 11.2542H41.8831V15.8023H45.3547C47.1933 15.8023 48.1489 15.0524 48.1489 13.5282C48.1489 12.0162 47.1933 11.2542 45.3547 11.2542ZM59.6077 13.0444C60.2851 13.0444 60.8174 13.1412 61.2528 13.2984L60.7811 16.4313C60.2609 16.2015 59.511 16.0563 58.8699 16.0563C57.4062 16.0563 56.4023 16.9515 56.4023 18.6933V25.0801H53.2452V13.3589H56.3055V14.6411C57.0434 13.5403 58.1683 13.0444 59.6077 13.0444ZM67.6353 13.0444C71.2883 13.0444 73.9857 15.6814 73.9857 19.2134C73.9857 22.7455 71.2883 25.3825 67.6353 25.3825C63.9943 25.3825 61.309 22.7455 61.309 19.2134C61.309 15.6814 63.9943 13.0444 67.6353 13.0444ZM67.6353 15.9838C65.8571 15.9838 64.5265 17.3143 64.5265 19.2134C64.5265 21.1125 65.8571 22.4431 67.6353 22.4431C69.4134 22.4431 70.7561 21.1125 70.7561 19.2134C70.7561 17.3143 69.4134 15.9838 67.6353 15.9838ZM86.1131 13.3589L81.9157 19.1167L86.1857 25.0801H82.4359L79.7989 21.3545L77.2103 25.0801H73.5573L77.8635 19.1288L73.6661 13.3589H77.416L79.9441 16.9998L82.4601 13.3589H86.1131ZM90.3547 13.3589V25.0801H87.1976V13.3589H90.3547ZM88.758 7.49224C89.895 7.49224 90.7781 8.38736 90.7781 9.5244C90.7781 10.6614 89.895 11.5324 88.758 11.5324C87.621 11.5324 86.75 10.6614 86.75 9.5244C86.75 8.38736 87.621 7.49224 88.758 7.49224ZM97.9046 13.0444C101.279 13.0444 103.59 15.5483 103.602 19.2013C103.602 19.5642 103.578 19.9997 103.541 20.2658H95.2313C95.57 21.9593 96.7555 22.6971 98.2433 22.6971C99.2594 22.6971 100.36 22.2859 101.207 21.5722L103.058 23.6043C101.727 24.8261 100.034 25.3825 98.0618 25.3825C94.4693 25.3825 91.9775 22.9391 91.9775 19.2497C91.9775 15.5604 94.3967 13.0444 97.9046 13.0444ZM97.8804 15.766C96.3926 15.766 95.5217 16.6611 95.2434 18.1127H100.433C100.142 16.6128 99.2352 15.766 97.8804 15.766ZM114.579 14.1693L113.514 16.6249C112.583 16.1652 111.095 15.6814 109.777 15.6693C108.579 15.6693 107.974 16.0926 107.974 16.7337C107.974 17.4111 108.821 17.5805 109.885 17.7377L110.926 17.895C113.466 18.282 114.881 19.4191 114.881 21.4028C114.881 23.8221 112.897 25.3825 109.498 25.3825C107.902 25.3825 105.809 25.0801 104.285 24.0035L105.531 21.6085C106.535 22.2738 107.757 22.7576 109.523 22.7576C110.986 22.7576 111.688 22.3463 111.688 21.6569C111.688 21.0883 111.095 20.7738 109.74 20.5803L108.785 20.4472C106.075 20.0723 104.733 18.8868 104.733 16.891C104.733 14.4838 106.595 13.0565 109.68 13.0565C111.555 13.0565 113.018 13.4073 114.579 14.1693ZM118.107 20.6892C119.353 20.6892 120.441 21.7657 120.441 23.0237C120.441 24.2938 119.353 25.3825 118.107 25.3825C116.849 25.3825 115.748 24.2938 115.748 23.0237C115.748 21.7657 116.849 20.6892 118.107 20.6892ZM126.671 13.0444C128.304 13.0444 129.501 13.6734 130.299 14.6653V13.3589H133.396V24.1124C133.396 27.8743 130.941 30.1484 127.07 30.1484C125.219 30.1484 123.259 29.6645 121.941 28.7331L123.066 26.1566C124.239 26.9308 125.534 27.3542 126.937 27.3542C128.896 27.3542 130.275 26.2655 130.275 24.2454V23.4229C129.477 24.4027 128.292 25.0075 126.671 25.0075C123.816 25.0075 121.276 22.6246 121.276 19.032C121.276 15.4273 123.816 13.0444 126.671 13.0444ZM127.469 15.9475C125.667 15.9475 124.518 17.3264 124.518 19.032C124.518 20.7255 125.667 22.1044 127.469 22.1044C129.223 22.1044 130.408 20.7738 130.408 19.032C130.408 17.278 129.223 15.9475 127.469 15.9475ZM140.422 13.0444C142.054 13.0444 143.252 13.6734 144.05 14.6653V13.3589H147.147V24.1124C147.147 27.8743 144.691 30.1484 140.821 30.1484C138.97 30.1484 137.01 29.6645 135.692 28.7331L136.817 26.1566C137.99 26.9308 139.284 27.3542 140.688 27.3542C142.647 27.3542 144.026 26.2655 144.026 24.2454V23.4229C143.228 24.4027 142.042 25.0075 140.422 25.0075C137.567 25.0075 135.027 22.6246 135.027 19.032C135.027 15.4273 137.567 13.0444 140.422 13.0444ZM141.22 15.9475C139.418 15.9475 138.268 17.3264 138.268 19.032C138.268 20.7255 139.418 22.1044 141.22 22.1044C142.974 22.1044 144.159 20.7738 144.159 19.032C144.159 17.278 142.974 15.9475 141.22 15.9475Z" fill="#181818"/>
</svg>
