<svg width="464" height="338" viewBox="0 0 464 338" fill="none" xmlns="http://www.w3.org/2000/svg">
<path d="M133.54 224.661L254.471 287.648L255.084 286.81L134.153 223.823L133.54 224.661Z" fill="#42FFFF"/>
<path opacity="0.5" d="M278.868 98.9173L230.043 75.1304C228.98 74.6182 229.12 73.7121 230.335 73.1211L244.683 66.1377L297.35 91.7862L283.001 98.7696C281.775 99.3606 279.931 99.4295 278.868 98.9173Z" fill="#242993"/>
<path d="M348.278 66.5513V58.3465H332.434L297.28 41.2278C296.416 40.8043 294.91 40.8634 293.918 41.346L258.916 58.3957H243.143V66.6301C243.154 66.8861 243.341 67.1324 243.715 67.3097L294.151 91.8747C295.015 92.2982 296.521 92.2391 297.514 91.7565L347.46 67.4279C347.974 67.1718 348.254 66.8566 348.278 66.5513Z" fill="url(#paint0_linear_726_1194)"/>
<path d="M294.141 83.6706L243.704 59.1056C242.84 58.682 242.945 57.9532 243.949 57.4705L293.907 33.1419C294.9 32.6593 296.406 32.6002 297.27 33.0237L347.707 57.5887C348.571 58.0123 348.466 58.7411 347.461 59.2238L297.515 83.5524C296.523 84.035 295.017 84.0941 294.153 83.6706H294.141Z" fill="url(#paint1_linear_726_1194)"/>
<path d="M294.327 80.7932L249.623 59.0157C248.864 58.6414 248.957 57.9913 249.833 57.5579L294.105 35.997C294.992 35.5636 296.323 35.5243 297.094 35.8887L341.798 57.6663C342.557 58.0405 342.463 58.6906 341.588 59.124L297.316 80.6849C296.428 81.1183 295.097 81.1577 294.327 80.7932Z" fill="#242993"/>
<path d="M294.433 78.972L253.36 58.9673C252.659 58.6226 252.741 58.0316 253.558 57.6278L294.234 37.8201C295.04 37.4262 296.277 37.3868 296.978 37.7216L338.051 57.7263C338.752 58.071 338.67 58.662 337.853 59.0658L297.176 78.8735C296.371 79.2675 295.133 79.3069 294.433 78.972Z" fill="#4553C7"/>
<path d="M294.758 57.0465L289.96 54.7023L292.575 53.4219L297.385 55.7661L294.758 57.0465Z" fill="#42FFFF"/>
<path d="M303.69 56.7111L298.88 59.0553L296.265 57.7749L301.063 55.4307L303.69 56.7111Z" fill="#42FFFF"/>
<path d="M293.673 57.5778L291.046 58.8484L288.431 57.5778L291.046 56.2974L293.673 57.5778Z" fill="#42FFFF"/>
<path d="M302.734 61.9904L300.107 63.261L292.553 59.5772L295.168 58.3066L302.734 61.9904Z" fill="#42FFFF"/>
<path opacity="0.5" d="M49.5411 326.266L0.715478 302.479C-0.346963 301.967 -0.206861 301.061 1.00736 300.47L15.3562 293.486L68.0229 319.135L53.6741 326.118C52.4482 326.709 50.6035 326.778 49.5411 326.266Z" fill="#242993"/>
<path d="M118.949 293.89V285.685H103.106L67.9522 268.567C67.0883 268.143 65.5822 268.202 64.5898 268.685L29.5876 285.735H13.8145V293.969C13.8261 294.225 14.0129 294.471 14.3865 294.649L64.8233 319.214C65.6873 319.637 67.1934 319.578 68.1857 319.095L118.132 294.767C118.646 294.511 118.926 294.195 118.949 293.89Z" fill="url(#paint2_linear_726_1194)"/>
<path d="M64.8246 311.008L14.3878 286.443C13.5238 286.02 13.6289 285.291 14.633 284.808L64.5794 260.48C65.5718 259.997 67.0779 259.938 67.9418 260.362L118.379 284.927C119.243 285.35 119.137 286.079 118.133 286.562L68.187 310.89C67.1946 311.373 65.6885 311.432 64.8246 311.008Z" fill="url(#paint3_linear_726_1194)"/>
<path d="M64.9996 308.132L20.2954 286.355C19.5365 285.98 19.6299 285.33 20.5055 284.897L64.7778 263.336C65.6651 262.903 66.9961 262.863 67.7666 263.228L112.471 285.005C113.23 285.379 113.136 286.029 112.261 286.463L67.9885 308.024C67.1012 308.457 65.7702 308.497 64.9996 308.132Z" fill="#242993"/>
<path d="M65.1154 306.311L24.0422 286.306C23.3416 285.961 23.4234 285.37 24.2406 284.967L64.917 265.159C65.7225 264.765 66.9601 264.726 67.6606 265.061L108.734 285.065C109.434 285.41 109.353 286.001 108.535 286.405L67.8591 306.212C67.0535 306.606 65.8159 306.646 65.1154 306.311Z" fill="#4553C7"/>
<path d="M65.442 284.385L60.6318 282.041L63.2588 280.77L68.0572 283.104L65.442 284.385Z" fill="#42FFFF"/>
<path d="M74.3619 284.05L69.5634 286.394L66.9365 285.114L71.7467 282.779L74.3619 284.05Z" fill="#42FFFF"/>
<path d="M64.3447 284.918L61.7294 286.198L59.1025 284.918L61.7294 283.637L64.3447 284.918Z" fill="#42FFFF"/>
<path d="M73.4171 289.329L70.7901 290.61L63.2246 286.926L65.8515 285.646L73.4171 289.329Z" fill="#42FFFF"/>
<path d="M444.271 152.531L373.753 118.185L336.276 100.131C332.259 98.2003 327.298 98.2299 323.328 100.219L242.501 140.702L241.905 139.854L322.733 99.3724C327.064 97.2055 332.481 97.1661 336.859 99.2739L374.337 117.328L444.855 151.674L444.271 152.531Z" fill="#42FFFF"/>
<g opacity="0.5">
<path d="M210.101 146.344L46.6835 225.939C45.2708 226.629 45.2708 228.352 46.6835 229.042L137.423 273.237C141.544 275.247 146.623 275.247 150.744 273.237L307.495 196.883C308.908 196.193 308.908 194.47 307.495 193.78L210.089 146.334L210.101 146.344Z" fill="#242993"/>
</g>
<path d="M205.012 111.389L183.18 2.08754L184.931 1.46702L182.292 0.186562C181.779 -0.0892277 181.055 -0.0695273 180.261 0.314609L5.72854 85.3269C4.29249 86.0262 3.2067 87.8189 3.46355 89.0698L25.4713 199.248C25.588 199.819 25.9266 200.203 26.3936 200.371L28.9738 201.632L29.4175 199.603L29.2657 199.642L202.747 115.142C204.183 114.442 205.269 112.65 205.012 111.399V111.389Z" fill="url(#paint4_linear_726_1194)"/>
<path d="M6.69664 88.3114L3.82453 87.2378C3.49762 87.8583 3.34587 88.5084 3.45095 89.06L25.4587 199.238C25.5754 199.809 25.914 200.194 26.381 200.361L28.9612 201.622L29.4048 199.593L29.2531 199.632L38.0328 195.357L6.68496 88.3213L6.69664 88.3114Z" fill="url(#paint5_linear_726_1194)"/>
<path d="M205.48 116.451L30.9473 201.464C29.6047 202.124 28.4488 201.739 28.2037 200.567L6.19598 90.3891C5.93912 89.1382 7.02488 87.3456 8.46093 86.6462L182.993 1.63394C184.336 0.974009 185.492 1.35815 185.737 2.53026L207.745 112.708C208.001 113.959 206.916 115.752 205.48 116.451Z" fill="#242993"/>
<g opacity="0.51">
<path d="M180.715 8.66797L12.4756 90.617L33.3392 194.373L201.462 112.483L180.715 8.66797Z" fill="#4553C7"/>
</g>
<path d="M315.192 168.615L305.665 172.811L210.162 126.291C208.563 125.513 205.772 125.611 203.928 126.507L39.2026 206.743C37.6265 205.994 30.4346 203.079 30.4346 203.079L33.9255 210.742H33.9371C34.0772 211.086 34.3925 211.402 34.9062 211.658L135.499 260.65C137.099 261.428 139.889 261.329 141.734 260.433L310.3 178.326C311.059 177.962 311.526 177.509 311.713 177.056H311.725L315.192 168.615Z" fill="url(#paint6_linear_726_1194)"/>
<path d="M313.719 169.935L140.962 254.081C139.071 255.007 136.21 255.105 134.576 254.307L31.4838 204.094C29.8493 203.296 30.0478 201.907 31.9392 200.981L204.697 116.836C206.588 115.91 209.449 115.811 211.083 116.609L314.175 166.823C315.809 167.62 315.611 169.009 313.719 169.935Z" fill="url(#paint7_linear_726_1194)"/>
<path d="M88.8555 235.877V234.281C88.8555 234.133 88.9605 234.065 89.1006 234.124L95.7788 237.374C95.9189 237.443 96.024 237.62 96.024 237.768V239.364C96.024 239.511 95.9189 239.58 95.7788 239.521L89.1006 236.271C88.9605 236.202 88.8555 236.025 88.8555 235.877Z" fill="#2859CB"/>
<path d="M98.8496 240.745V239.149C98.8496 239.001 98.9547 238.932 99.0948 238.991L105.773 242.242C105.913 242.311 106.018 242.488 106.018 242.636V244.231C106.018 244.379 105.913 244.448 105.773 244.389L99.0948 241.139C98.9547 241.07 98.8496 240.892 98.8496 240.745Z" fill="#2859CB"/>
<path d="M58.3612 199.385L201.919 129.462C202.877 128.999 204.056 128.999 205.013 129.462L256.139 154.411C256.874 154.766 256.874 155.662 256.139 156.017L112.639 225.91C111.682 226.373 110.503 226.373 109.545 225.91L58.3495 200.99C57.614 200.636 57.614 199.739 58.3495 199.375L58.3612 199.385Z" fill="#ADC8FF"/>
<path d="M58.3602 201L58.874 201.246L201.918 131.57C202.876 131.107 204.055 131.107 205.012 131.57L255.624 156.273L256.138 156.026C256.873 155.672 256.873 154.775 256.138 154.421L205.012 129.472C204.055 129.009 202.876 129.009 201.918 129.472L58.3602 199.394C57.6247 199.749 57.6247 200.645 58.3602 201.01V201Z" fill="#91AFFF"/>
<path d="M208.877 135.776L84.1746 196.519L78.6289 193.82L203.331 133.078L208.877 135.776Z" fill="#242993"/>
<path d="M222.467 142.404L105.505 199.375L99.959 196.676L216.921 139.696L222.467 142.404Z" fill="#242993"/>
<path d="M231.316 146.718L93.6072 213.795L88.0615 211.096L225.782 144.01L231.316 146.718Z" fill="#242993"/>
<path d="M240.178 151.024L102.458 218.11L96.9121 215.401L234.632 148.325L240.178 151.024Z" fill="#242993"/>
<path d="M249.026 155.337L111.306 222.413L105.771 219.714L243.48 152.638L249.026 155.337Z" fill="#242993"/>
<path d="M76.6324 200.193L71.0867 202.892L65.541 200.193L71.0867 197.494L76.6324 200.193Z" fill="#242993"/>
<path d="M96.1883 203.907L84.6883 209.511L79.1426 206.812L90.6426 201.208L96.1883 203.907Z" fill="#242993"/>
<path d="M207.453 216.307L246.168 197.454C247.685 196.716 247.685 195.524 246.168 194.785L219.7 181.892C218.182 181.153 215.73 181.153 214.224 181.892L175.509 200.744C173.992 201.483 173.992 202.675 175.509 203.413L201.977 216.307C203.495 217.045 205.947 217.045 207.453 216.307Z" fill="url(#paint8_linear_726_1194)"/>
<path d="M175.498 201.837L214.213 182.985C215.73 182.247 218.182 182.247 219.688 182.985L246.156 195.878C246.623 196.105 246.926 196.381 247.102 196.666C247.498 196.026 247.195 195.297 246.156 194.785L219.688 181.892C218.17 181.153 215.719 181.153 214.213 181.892L175.498 200.744C174.447 201.256 174.143 201.975 174.552 202.625C174.727 202.34 175.031 202.064 175.498 201.837Z" fill="#91AFFF"/>
<g opacity="0.11">
<mask id="mask0_726_1194" style="mask-type:luminance" maskUnits="userSpaceOnUse" x="12" y="8" width="190" height="187">
<path d="M180.712 8.66895L12.4727 90.618L33.3362 194.374L201.459 112.484L180.712 8.66895Z" fill="white"/>
</mask>
<g mask="url(#mask0_726_1194)">
<path d="M204.868 116.661L32.1108 200.806C30.2195 201.732 27.359 201.831 25.7245 201.033L-77.3672 150.819C-79.0018 150.021 -78.8033 148.633 -76.9119 147.707L95.8456 63.5613C97.737 62.6354 100.597 62.5369 102.232 63.3347L205.324 113.548C206.958 114.346 206.76 115.735 204.868 116.661Z" fill="url(#paint9_linear_726_1194)"/>
<path d="M31.5967 131.75L70.3116 112.898C71.8294 112.16 71.8294 110.968 70.3116 110.229L43.844 97.3358C42.3262 96.5971 39.8745 96.5971 38.3684 97.3358L-0.346534 116.188C-1.86431 116.927 -1.86431 118.119 -0.346534 118.857L26.1211 131.75C27.6388 132.489 30.0906 132.489 31.5967 131.75Z" fill="url(#paint10_linear_726_1194)"/>
<path d="M-0.357802 117.272L38.3571 98.4193C39.8749 97.6806 42.3267 97.6806 43.8327 98.4193L70.3004 111.313C70.7674 111.539 71.0709 111.815 71.246 112.1C71.643 111.46 71.3394 110.731 70.3004 110.219L43.8327 97.326C42.315 96.5873 39.8632 96.5873 38.3571 97.326L-0.357802 116.178C-1.40857 116.69 -1.71212 117.409 -1.30349 118.06C-1.12836 117.774 -0.824809 117.498 -0.357802 117.272Z" fill="#91AFFF"/>
<path d="M-17.3688 161.211L126.189 91.2881C127.147 90.8252 128.326 90.8252 129.283 91.2881L180.409 116.237C181.144 116.592 181.144 117.488 180.409 117.843L36.9091 187.736C35.9517 188.199 34.7725 188.199 33.8152 187.736L-17.3805 162.816C-18.116 162.462 -18.116 161.565 -17.3805 161.201L-17.3688 161.211Z" fill="#ADC8FF"/>
<path d="M-17.3683 162.826L-16.8546 163.072L126.19 93.3954C127.147 92.9324 128.326 92.9324 129.284 93.3954L179.896 118.098L180.409 117.852C181.145 117.497 181.145 116.601 180.409 116.247L129.284 91.2974C128.326 90.8345 127.147 90.8345 126.19 91.2974L-17.3683 161.22C-18.1038 161.575 -18.1038 162.471 -17.3683 162.835V162.826Z" fill="#91AFFF"/>
<path d="M167.029 114.532L41.9648 175.452L46.9151 177.865L171.98 116.945L167.029 114.532Z" fill="#242993"/>
<path d="M153.847 108.121L34.9707 166.017L39.9327 168.43L158.809 110.534L153.847 108.121Z" fill="#242993"/>
<path d="M26.0992 170.341L14.9961 175.748L19.9464 178.161L31.0495 172.754L26.0992 170.341Z" fill="#242993"/>
<path d="M35.9057 178.408L28.1768 182.171L33.127 184.584L40.856 180.821L35.9057 178.408Z" fill="#242993"/>
<path d="M145.594 104.092L6.74072 171.729L11.691 174.142L150.544 106.505L145.594 104.092Z" fill="#242993"/>
<path d="M137.34 100.074L-1.51318 167.712L3.43708 170.125L142.29 102.487L137.34 100.074Z" fill="#242993"/>
<path d="M129.073 96.0552L-9.77979 163.683L-4.81783 166.096L134.035 98.4683L129.073 96.0552Z" fill="#242993"/>
</g>
</g>
<path opacity="0.42" d="M124.885 193.16L87.665 173.835L171.341 133.078L210.826 155.476L124.885 193.16Z" fill="url(#paint11_radial_726_1194)"/>
<path opacity="0.42" d="M87.6655 173.835L79.1426 128.409L157.67 90.4087V139.647L87.6655 173.835Z" fill="url(#paint12_radial_726_1194)"/>
<path opacity="0.5" d="M81.5477 72.226L90.4442 67.9611L90.1407 66.3359L81.2559 70.6008L81.5477 72.226Z" fill="#42FFFF"/>
<path opacity="0.5" d="M76.994 74.4132L80.193 72.8767L79.8895 71.2515L76.6904 72.788L76.994 74.4132Z" fill="#42FFFF"/>
<path opacity="0.5" d="M73.4569 76.1072L75.6285 75.0631L75.3366 73.4478L73.1533 74.4918L73.4569 76.1072Z" fill="#42FFFF"/>
<path opacity="0.5" d="M86.2869 73.9893L91.1322 71.6647L90.8286 70.0396L85.9834 72.3739L86.2869 73.9893Z" fill="#42FFFF"/>
<path opacity="0.5" d="M78.9901 77.4962L84.9327 74.6496L84.6292 73.0244L78.6865 75.871L78.9901 77.4962Z" fill="#42FFFF"/>
<path opacity="0.5" d="M75.452 79.1903L77.6353 78.1462L77.3318 76.521L75.1602 77.5651L75.452 79.1903Z" fill="#42FFFF"/>
<path opacity="0.5" d="M72.0906 80.805L74.2739 79.7609L73.9704 78.1357L71.7871 79.1798L72.0906 80.805Z" fill="#42FFFF"/>
<path d="M88.3182 77.0619L91.8324 75.3776L91.5289 73.7524L88.0146 75.4367L88.3182 77.0619Z" fill="#42FFFF"/>
<path d="M85.7616 78.2839L86.9641 77.7126L86.6605 76.0874L85.458 76.6587L85.7616 78.2839Z" fill="#42FFFF"/>
<path opacity="0.5" d="M82.2235 79.9783L84.4068 78.9343L84.1032 77.3091L81.9316 78.3531L82.2235 79.9783Z" fill="#42FFFF"/>
<path opacity="0.5" d="M79.574 85.2969L92.5218 79.0817L92.2183 77.4565L79.2705 83.6717L79.574 85.2969Z" fill="#42FFFF"/>
<path opacity="0.5" d="M75.0097 87.4835L78.2203 85.947L77.9168 84.3218L74.7178 85.8583L75.0097 87.4835Z" fill="#42FFFF"/>
<path opacity="0.5" d="M89.6962 84.4696L93.2104 82.7951L92.9068 81.1699L89.4043 82.8542L89.6962 84.4696Z" fill="#42FFFF"/>
<path opacity="0.5" d="M81.4774 88.4189L88.3424 85.1291L88.0388 83.5039L81.1738 86.7937L81.4774 88.4189Z" fill="#42FFFF"/>
<path opacity="0.5" d="M77.9403 90.113L80.1119 89.069L79.8083 87.4536L77.6367 88.4977L77.9403 90.113Z" fill="#42FFFF"/>
<path opacity="0.5" d="M86.7186 89.9358L93.8989 86.4982L93.5953 84.873L86.4268 88.3204L86.7186 89.9358Z" fill="#42FFFF"/>
<path d="M80.1815 93.0775L85.3653 90.5954L85.0617 88.9702L79.8779 91.4622L80.1815 93.0775Z" fill="#42FFFF"/>
<path opacity="0.5" d="M75.3133 95.4129L78.8159 93.7385L78.5123 92.1133L75.0098 93.7976L75.3133 95.4129Z" fill="#42FFFF"/>
<path opacity="0.5" d="M92.1698 91.3645L94.5865 90.2023L94.283 88.5869L91.8662 89.7492L92.1698 91.3645Z" fill="#42FFFF"/>
<path opacity="0.5" d="M87.6063 93.5612L90.8053 92.0246L90.5018 90.3994L87.3027 91.936L87.6063 93.5612Z" fill="#42FFFF"/>
<path opacity="0.5" d="M81.0917 96.6839L86.2404 94.2116L85.9485 92.5864L80.7881 95.0587L81.0917 96.6839Z" fill="#42FFFF"/>
<path opacity="0.5" d="M87.8505 97.4705L95.2759 93.9147L94.9723 92.2896L87.5586 95.8551L87.8505 97.4705Z" fill="#42FFFF"/>
<path opacity="0.5" d="M79.5389 101.461L86.4974 98.1315L86.1938 96.5063L79.2471 99.8454L79.5389 101.461Z" fill="#42FFFF"/>
<path d="M76.0126 103.164L78.1841 102.12L77.8806 100.495L75.709 101.539L76.0126 103.164Z" fill="#42FFFF"/>
<path opacity="0.5" d="M72.6151 104.788L74.7867 103.744L74.4948 102.119L72.3115 103.163L72.6151 104.788Z" fill="#42FFFF"/>
<path opacity="0.5" d="M91.5175 99.7561L95.9657 97.6188L95.6621 96.0034L91.2256 98.1309L91.5175 99.7561Z" fill="#42FFFF"/>
<path d="M67.3958 79.0118L61.2313 81.9766L60.9277 80.3514L67.0922 77.3965L67.3958 79.0118Z" fill="#42FFFF"/>
<path opacity="0.5" d="M66.7669 83.3571L61.9217 85.6816L61.6182 84.0565L66.4634 81.7319L66.7669 83.3571Z" fill="#42FFFF"/>
<path opacity="0.5" d="M66.1245 87.7097L62.6102 89.394L62.3184 87.7688L65.8209 86.0845L66.1245 87.7097Z" fill="#42FFFF"/>
<path opacity="0.5" d="M68.4008 90.6555L63.3104 93.0982L63.0068 91.473L68.1089 89.0303L68.4008 90.6555Z" fill="#42FFFF"/>
<path opacity="0.5" d="M67.5004 95.1267L63.9979 96.8109L63.6943 95.1857L67.1969 93.5015L67.5004 95.1267Z" fill="#42FFFF"/>
<path opacity="0.5" d="M69.1365 98.3775L64.6883 100.515L64.3848 98.8897L68.833 96.7622L69.1365 98.3775Z" fill="#42FFFF"/>
<path opacity="0.5" d="M67.7935 103.056L65.3768 104.218L65.0732 102.603L67.5017 101.44L67.7935 103.056Z" fill="#42FFFF"/>
<path opacity="0.5" d="M70.7597 105.675L66.0663 107.931L65.7627 106.306L70.4561 104.05L70.7597 105.675Z" fill="#42FFFF"/>
<path opacity="0.5" d="M71.203 109.508L66.7547 111.635L66.4512 110.01L70.8994 107.882L71.203 109.508Z" fill="#42FFFF"/>
<path opacity="0.5" d="M88.2704 101.312L90.1617 100.406L89.8582 98.7808L87.9668 99.6869L88.2704 101.312Z" fill="#42FFFF"/>
<path opacity="0.5" d="M82.6571 104.011L86.9185 101.963L86.6149 100.347L82.3535 102.386L82.6571 104.011Z" fill="#42FFFF"/>
<path opacity="0.5" d="M47.0477 88.7143L55.9442 84.4396L55.6406 82.8242L46.7441 87.0891L47.0477 88.7143Z" fill="#42FFFF"/>
<path opacity="0.5" d="M42.493 90.901L45.692 89.3645L45.3884 87.7393L42.1895 89.2758L42.493 90.901Z" fill="#42FFFF"/>
<path d="M38.9549 92.596L41.1265 91.552L40.8229 89.9268L38.6514 90.9708L38.9549 92.596Z" fill="#42FFFF"/>
<path opacity="0.5" d="M51.787 90.479L56.6322 88.1545L56.3286 86.5293L51.4834 88.8538L51.787 90.479Z" fill="#42FFFF"/>
<path opacity="0.5" d="M44.4901 93.9752L50.4328 91.1286L50.1292 89.5034L44.1865 92.3598L44.4901 93.9752Z" fill="#42FFFF"/>
<path d="M40.952 95.678L43.1353 94.634L42.8317 93.0088L40.6484 94.0528L40.952 95.678Z" fill="#42FFFF"/>
<path opacity="0.5" d="M37.5897 97.2839L39.773 96.2399L39.4694 94.6245L37.2861 95.6686L37.5897 97.2839Z" fill="#42FFFF"/>
<path opacity="0.5" d="M53.8182 93.5404L57.3207 91.8562L57.0289 90.231L53.5146 91.9153L53.8182 93.5404Z" fill="#42FFFF"/>
<path opacity="0.5" d="M51.2615 94.7727L52.4641 94.1916L52.1605 92.5664L50.958 93.1475L51.2615 94.7727Z" fill="#42FFFF"/>
<path opacity="0.5" d="M47.7235 96.4666L49.9067 95.4225L49.6032 93.7974L47.4199 94.8414L47.7235 96.4666Z" fill="#42FFFF"/>
<path opacity="0.5" d="M45.0731 101.774L58.0209 95.569L57.7173 93.9438L44.7695 100.149L45.0731 101.774Z" fill="#42FFFF"/>
<path opacity="0.5" d="M40.5086 103.962L43.7193 102.425L43.4158 100.8L40.2051 102.337L40.5086 103.962Z" fill="#42FFFF"/>
<path opacity="0.5" d="M55.1961 100.958L58.7103 99.2741L58.4068 97.6489L54.8926 99.3332L55.1961 100.958Z" fill="#42FFFF"/>
<path opacity="0.5" d="M46.9774 104.907L53.8424 101.607L53.5388 99.9819L46.6738 103.282L46.9774 104.907Z" fill="#42FFFF"/>
<path opacity="0.5" d="M43.4393 106.602L45.6109 105.558L45.3073 103.933L43.1357 104.977L43.4393 106.602Z" fill="#42FFFF"/>
<path d="M52.2196 106.424L59.3998 102.987L59.0963 101.361L51.916 104.799L52.2196 106.424Z" fill="#42FFFF"/>
<path opacity="0.5" d="M45.6815 109.566L50.8652 107.074L50.5617 105.449L45.3779 107.941L45.6815 109.566Z" fill="#42FFFF"/>
<path opacity="0.5" d="M40.8133 111.901L44.3159 110.217L44.0123 108.591L40.5098 110.276L40.8133 111.901Z" fill="#42FFFF"/>
<path opacity="0.5" d="M57.66 107.852L60.0885 106.69L59.7849 105.064L57.3682 106.227L57.66 107.852Z" fill="#42FFFF"/>
<path opacity="0.5" d="M53.1063 110.039L56.3053 108.502L56.0017 106.877L52.8027 108.413L53.1063 110.039Z" fill="#42FFFF"/>
<path d="M46.58 113.172L51.7404 110.69L51.4368 109.074L46.2881 111.546L46.58 113.172Z" fill="#42FFFF"/>
<path opacity="0.5" d="M53.3504 113.959L60.7759 110.394L60.4723 108.778L53.0469 112.334L53.3504 113.959Z" fill="#42FFFF"/>
<path opacity="0.5" d="M45.0399 117.948L51.9983 114.609L51.6947 112.983L44.7363 116.322L45.0399 117.948Z" fill="#42FFFF"/>
<path opacity="0.5" d="M41.5126 119.643L43.6841 118.599L43.3806 116.974L41.209 118.018L41.5126 119.643Z" fill="#42FFFF"/>
<path opacity="0.5" d="M38.1151 121.267L40.2867 120.223L39.9831 118.608L37.8115 119.652L38.1151 121.267Z" fill="#42FFFF"/>
<path opacity="0.5" d="M57.0184 116.235L61.4666 114.107L61.1631 112.482L56.7148 114.619L57.0184 116.235Z" fill="#42FFFF"/>
<path d="M32.8958 95.5026L26.7313 98.4575L26.4277 96.8422L32.5922 93.8774L32.8958 95.5026Z" fill="#42FFFF"/>
<path opacity="0.5" d="M32.2669 99.844L27.4217 102.168L27.1182 100.543L31.9634 98.2188L32.2669 99.844Z" fill="#42FFFF"/>
<path opacity="0.5" d="M31.6244 104.188L28.1102 105.872L27.8066 104.247L31.3209 102.572L31.6244 104.188Z" fill="#42FFFF"/>
<path opacity="0.5" d="M33.9008 107.134L28.7987 109.587L28.5068 107.961L33.5972 105.509L33.9008 107.134Z" fill="#42FFFF"/>
<path opacity="0.5" d="M33.0024 111.605L29.4999 113.289L29.1963 111.664L32.6988 109.979L33.0024 111.605Z" fill="#42FFFF"/>
<path opacity="0.5" d="M34.6366 114.865L30.1883 117.002L29.8848 115.377L34.333 113.24L34.6366 114.865Z" fill="#42FFFF"/>
<path opacity="0.5" d="M33.2926 119.545L30.8758 120.707L30.5723 119.082L32.989 117.919L33.2926 119.545Z" fill="#42FFFF"/>
<path opacity="0.5" d="M36.2587 122.164L31.5653 124.409L31.2617 122.794L35.9552 120.539L36.2587 122.164Z" fill="#42FFFF"/>
<path opacity="0.5" d="M36.702 125.986L32.2537 128.123L31.9502 126.498L36.3984 124.36L36.702 125.986Z" fill="#42FFFF"/>
<path d="M53.7713 117.801L55.6627 116.895L55.3591 115.27L53.4678 116.176L53.7713 117.801Z" fill="#42FFFF"/>
<path opacity="0.5" d="M48.1561 120.489L52.4175 118.45L52.114 116.825L47.8525 118.874L48.1561 120.489Z" fill="#42FFFF"/>
<path opacity="0.5" d="M87.7694 105.616L96.6659 101.351L96.3623 99.7261L87.4658 103.991L87.7694 105.616Z" fill="#42FFFF"/>
<path opacity="0.5" d="M83.204 107.803L86.4146 106.266L86.1111 104.651L82.9004 106.187L83.204 107.803Z" fill="#42FFFF"/>
<path opacity="0.5" d="M79.6795 109.507L81.8511 108.463L81.5475 106.837L79.376 107.881L79.6795 109.507Z" fill="#42FFFF"/>
<path opacity="0.5" d="M92.5106 107.38L97.3558 105.055L97.0522 103.44L92.207 105.764L92.5106 107.38Z" fill="#42FFFF"/>
<path opacity="0.5" d="M85.2147 110.886L91.1457 108.039L90.8538 106.414L84.9111 109.261L85.2147 110.886Z" fill="#42FFFF"/>
<path opacity="0.5" d="M81.6756 112.581L83.8472 111.537L83.5553 109.912L81.3721 110.956L81.6756 112.581Z" fill="#42FFFF"/>
<path opacity="0.5" d="M78.3143 114.196L80.4859 113.152L80.1823 111.527L78.0107 112.571L78.3143 114.196Z" fill="#42FFFF"/>
<path opacity="0.5" d="M94.5409 110.454L98.0434 108.769L97.7399 107.144L94.2373 108.828L94.5409 110.454Z" fill="#42FFFF"/>
<path opacity="0.5" d="M91.9862 111.674L93.1771 111.103L92.8735 109.478L91.6826 110.049L91.9862 111.674Z" fill="#42FFFF"/>
<path opacity="0.5" d="M88.4471 113.368L90.6187 112.324L90.3152 110.709L88.1436 111.753L88.4471 113.368Z" fill="#42FFFF"/>
<path opacity="0.5" d="M85.7977 118.687L98.7338 112.471L98.4303 110.846L85.4941 117.061L85.7977 118.687Z" fill="#42FFFF"/>
<path opacity="0.5" d="M81.2323 120.874L84.4313 119.338L84.1277 117.712L80.9287 119.249L81.2323 120.874Z" fill="#42FFFF"/>
<path opacity="0.5" d="M95.9197 117.86L99.4223 116.186L99.1188 114.561L95.6162 116.245L95.9197 117.86Z" fill="#42FFFF"/>
<path opacity="0.5" d="M87.6883 121.809L94.565 118.52L94.2615 116.895L87.3848 120.194L87.6883 121.809Z" fill="#42FFFF"/>
<path opacity="0.5" d="M84.1503 123.513L86.3335 122.469L86.03 120.844L83.8584 121.888L84.1503 123.513Z" fill="#42FFFF"/>
<path opacity="0.5" d="M92.9413 123.336L100.11 119.889L99.8179 118.264L92.6377 121.711L92.9413 123.336Z" fill="#42FFFF"/>
<path opacity="0.5" d="M86.3934 126.479L91.5888 123.987L91.2853 122.362L86.0898 124.854L86.3934 126.479Z" fill="#42FFFF"/>
<path opacity="0.5" d="M81.536 128.802L85.0385 127.127L84.735 125.502L81.2324 127.186L81.536 128.802Z" fill="#42FFFF"/>
<path opacity="0.5" d="M98.3827 124.764L100.811 123.602L100.508 121.977L98.0791 123.139L98.3827 124.764Z" fill="#42FFFF"/>
<path opacity="0.5" d="M93.8163 126.951L97.027 125.415L96.7234 123.79L93.5244 125.326L93.8163 126.951Z" fill="#42FFFF"/>
<path opacity="0.5" d="M87.3016 130.074L92.462 127.601L92.1585 125.976L86.998 128.458L87.3016 130.074Z" fill="#42FFFF"/>
<path opacity="0.5" d="M94.0741 130.872L101.499 127.306L101.196 125.681L93.7705 129.247L94.0741 130.872Z" fill="#42FFFF"/>
<path opacity="0.5" d="M85.7616 134.86L92.72 131.521L92.4164 129.896L85.458 133.235L85.7616 134.86Z" fill="#42FFFF"/>
<path opacity="0.5" d="M82.2245 136.555L84.4077 135.511L84.1042 133.886L81.9209 134.93L82.2245 136.555Z" fill="#42FFFF"/>
<path opacity="0.5" d="M78.8377 138.18L81.0093 137.136L80.7057 135.511L78.5342 136.555L78.8377 138.18Z" fill="#42FFFF"/>
<path opacity="0.5" d="M97.741 133.147L102.189 131.009L101.886 129.394L97.4375 131.522L97.741 133.147Z" fill="#42FFFF"/>
<path opacity="0.5" d="M73.6184 112.413L67.4539 115.368L67.1504 113.743L73.3149 110.788L73.6184 112.413Z" fill="#42FFFF"/>
<path opacity="0.5" d="M72.9896 116.746L68.1444 119.07L67.8408 117.455L72.686 115.121L72.9896 116.746Z" fill="#42FFFF"/>
<path opacity="0.5" d="M72.3354 121.101L68.8329 122.785L68.5293 121.16L72.0318 119.476L72.3354 121.101Z" fill="#42FFFF"/>
<path opacity="0.5" d="M74.6244 124.045L69.5223 126.488L69.2188 124.863L74.3208 122.42L74.6244 124.045Z" fill="#42FFFF"/>
<path opacity="0.5" d="M73.725 128.517L70.2108 130.202L69.9072 128.576L73.4215 126.892L73.725 128.517Z" fill="#42FFFF"/>
<path opacity="0.5" d="M75.3475 131.768L70.8993 133.906L70.5957 132.28L75.0439 130.153L75.3475 131.768Z" fill="#42FFFF"/>
<path opacity="0.5" d="M74.0162 136.446L71.5995 137.619L71.2959 135.993L73.7127 134.831L74.0162 136.446Z" fill="#42FFFF"/>
<path opacity="0.5" d="M76.9823 139.066L72.2889 141.322L71.9854 139.696L76.6788 137.441L76.9823 139.066Z" fill="#42FFFF"/>
<path opacity="0.5" d="M77.4256 142.897L72.9774 145.025L72.6738 143.409L77.1221 141.272L77.4256 142.897Z" fill="#42FFFF"/>
<path opacity="0.5" d="M94.4949 134.703L96.3863 133.797L96.0828 132.171L94.1914 133.087L94.4949 134.703Z" fill="#42FFFF"/>
<path opacity="0.5" d="M88.8787 137.402L93.1285 135.363L92.8249 133.738L88.5752 135.777L88.8787 137.402Z" fill="#42FFFF"/>
<path opacity="0.5" d="M87.3622 149.87L94.5424 146.423L94.2388 144.798L87.0586 148.245L87.3622 149.87Z" fill="#42FFFF"/>
<path opacity="0.5" d="M82.4461 152.234L85.2715 150.875L84.968 149.25L82.1426 150.609L82.4461 152.234Z" fill="#42FFFF"/>
<path opacity="0.5" d="M53.2703 122.105L62.1668 117.83L61.8633 116.215L52.9668 120.48L53.2703 122.105Z" fill="#42FFFF"/>
<path opacity="0.5" d="M48.7039 124.291L51.9146 122.754L51.6111 121.129L48.4004 122.665L48.7039 124.291Z" fill="#42FFFF"/>
<path opacity="0.5" d="M45.1669 125.986L47.3502 124.942L47.0466 123.316L44.875 124.36L45.1669 125.986Z" fill="#42FFFF"/>
<path opacity="0.5" d="M58.0096 123.868L62.8548 121.543L62.5512 119.918L57.7061 122.242L58.0096 123.868Z" fill="#42FFFF"/>
<path opacity="0.5" d="M50.7127 127.365L56.6437 124.518L56.3402 122.893L50.4092 125.749L50.7127 127.365Z" fill="#42FFFF"/>
<path opacity="0.5" d="M47.1766 129.068L49.3482 128.024L49.0446 126.398L46.873 127.442L47.1766 129.068Z" fill="#42FFFF"/>
<path opacity="0.5" d="M43.8123 130.674L45.9839 129.63L45.6804 128.014L43.5088 129.058L43.8123 130.674Z" fill="#42FFFF"/>
<path opacity="0.5" d="M60.0409 126.931L63.5434 125.247L63.2399 123.632L59.7373 125.306L60.0409 126.931Z" fill="#42FFFF"/>
<path opacity="0.5" d="M57.4852 128.162L58.6761 127.581L58.3725 125.966L57.1816 126.537L57.4852 128.162Z" fill="#42FFFF"/>
<path opacity="0.5" d="M53.9471 129.856L56.1187 128.812L55.8152 127.187L53.6436 128.231L53.9471 129.856Z" fill="#42FFFF"/>
<path opacity="0.5" d="M51.2957 135.166L64.2318 128.961L63.9283 127.335L50.9922 133.541L51.2957 135.166Z" fill="#42FFFF"/>
<path opacity="0.5" d="M46.7303 137.352L49.9293 135.815L49.6257 134.2L46.4268 135.736L46.7303 137.352Z" fill="#42FFFF"/>
<path opacity="0.5" d="M61.4178 134.348L64.9204 132.664L64.6168 131.039L61.1143 132.723L61.4178 134.348Z" fill="#42FFFF"/>
<path opacity="0.5" d="M53.1883 138.297L60.065 134.998L59.7614 133.373L52.8848 136.672L53.1883 138.297Z" fill="#42FFFF"/>
<path opacity="0.5" d="M49.6502 139.992L51.8335 138.947L51.5299 137.322L49.3467 138.366L49.6502 139.992Z" fill="#42FFFF"/>
<path opacity="0.5" d="M58.4413 139.815L65.6098 136.378L65.3062 134.752L58.1377 138.19L58.4413 139.815Z" fill="#42FFFF"/>
<path opacity="0.5" d="M51.8915 142.957L57.0752 140.465L56.7834 138.85L51.5879 141.332L51.8915 142.957Z" fill="#42FFFF"/>
<path opacity="0.5" d="M47.0233 145.291L50.5376 143.607L50.234 141.982L46.7314 143.666L47.0233 145.291Z" fill="#42FFFF"/>
<path opacity="0.5" d="M63.8836 141.243L66.3121 140.08L66.0085 138.455L63.5801 139.617L63.8836 141.243Z" fill="#42FFFF"/>
<path opacity="0.5" d="M59.3172 143.428L62.5279 141.892L62.2243 140.276L59.0137 141.813L59.3172 143.428Z" fill="#42FFFF"/>
<path opacity="0.5" d="M52.8026 146.562L57.963 144.09L57.6595 142.465L52.499 144.937L52.8026 146.562Z" fill="#42FFFF"/>
<path opacity="0.5" d="M59.574 147.349L66.9995 143.793L66.6959 142.168L59.2705 145.724L59.574 147.349Z" fill="#42FFFF"/>
<path opacity="0.5" d="M51.2615 151.339L58.22 148L57.9164 146.375L50.958 149.714L51.2615 151.339Z" fill="#42FFFF"/>
<path opacity="0.5" d="M47.7235 153.033L49.8951 151.988L49.6032 150.363L47.4199 151.407L47.7235 153.033Z" fill="#42FFFF"/>
<path opacity="0.5" d="M44.3387 154.658L46.5103 153.614L46.2068 151.999L44.0352 153.043L44.3387 154.658Z" fill="#42FFFF"/>
<path opacity="0.5" d="M63.2401 149.636L67.6883 147.498L67.3848 145.873L62.9365 148.01L63.2401 149.636Z" fill="#42FFFF"/>
<path opacity="0.5" d="M39.1184 128.891L32.954 131.846L32.6504 130.231L38.8149 127.266L39.1184 128.891Z" fill="#42FFFF"/>
<path opacity="0.5" d="M38.4876 133.235L33.6424 135.559L33.3389 133.934L38.1841 131.609L38.4876 133.235Z" fill="#42FFFF"/>
<path opacity="0.5" d="M37.8354 137.588L34.3328 139.263L34.0293 137.647L37.5318 135.963L37.8354 137.588Z" fill="#42FFFF"/>
<path opacity="0.5" d="M40.1244 140.525L35.0223 142.977L34.7188 141.352L39.8208 138.909L40.1244 140.525Z" fill="#42FFFF"/>
<path opacity="0.5" d="M39.2143 144.995L35.7118 146.68L35.4082 145.054L38.9224 143.38L39.2143 144.995Z" fill="#42FFFF"/>
<path opacity="0.5" d="M40.8475 148.255L36.3993 150.392L36.0957 148.767L40.5439 146.629L40.8475 148.255Z" fill="#42FFFF"/>
<path opacity="0.5" d="M39.5162 152.934L37.0878 154.097L36.7959 152.471L39.2127 151.309L39.5162 152.934Z" fill="#42FFFF"/>
<path opacity="0.5" d="M42.4823 155.554L37.7889 157.8L37.4854 156.184L42.1788 153.929L42.4823 155.554Z" fill="#42FFFF"/>
<path opacity="0.5" d="M42.9256 159.376L38.4774 161.513L38.1738 159.888L42.6221 157.761L42.9256 159.376Z" fill="#42FFFF"/>
<path opacity="0.5" d="M59.995 151.191L61.8747 150.285L61.5828 148.66L59.6914 149.566L59.995 151.191Z" fill="#42FFFF"/>
<path opacity="0.5" d="M54.3797 153.88L58.6295 151.841L58.326 150.216L54.0762 152.265L54.3797 153.88Z" fill="#42FFFF"/>
<path opacity="0.5" d="M52.8602 166.359L60.0404 162.911L59.7369 161.286L52.5566 164.734L52.8602 166.359Z" fill="#42FFFF"/>
<path opacity="0.5" d="M47.9335 168.714L50.7705 167.364L50.467 165.739L47.6416 167.099L47.9335 168.714Z" fill="#42FFFF"/>
<path opacity="0.5" d="M164.464 32.0898L173.36 27.8249L173.057 26.1997L164.172 30.4745L164.464 32.0898Z" fill="#42FFFF"/>
<path opacity="0.5" d="M159.911 34.2858L163.11 32.7492L162.806 31.124L159.607 32.6606L159.911 34.2858Z" fill="#42FFFF"/>
<path opacity="0.5" d="M156.374 35.9798L158.545 34.9357L158.254 33.3105L156.07 34.3546L156.374 35.9798Z" fill="#42FFFF"/>
<path opacity="0.5" d="M169.204 33.8618L174.049 31.5373L173.757 29.9121L168.9 32.2366L169.204 33.8618Z" fill="#42FFFF"/>
<path opacity="0.5" d="M161.908 37.358L167.851 34.5114L167.547 32.8862L161.604 35.7328L161.908 37.358Z" fill="#42FFFF"/>
<path opacity="0.5" d="M158.382 39.053L160.553 38.0089L160.25 36.3936L158.078 37.4376L158.382 39.053Z" fill="#42FFFF"/>
<path opacity="0.5" d="M155.008 40.6683L157.191 39.6242L156.887 37.999L154.716 39.0431L155.008 40.6683Z" fill="#42FFFF"/>
<path d="M171.235 36.9257L174.749 35.2414L174.446 33.6162L170.932 35.3005L171.235 36.9257Z" fill="#42FFFF"/>
<path d="M168.679 38.1457L169.881 37.5744L169.578 35.9492L168.375 36.5303L168.679 38.1457Z" fill="#42FFFF"/>
<path opacity="0.5" d="M165.142 39.8504L167.326 38.8063L167.022 37.1812L164.851 38.2252L165.142 39.8504Z" fill="#42FFFF"/>
<path opacity="0.5" d="M162.491 45.1601L175.439 38.9548L175.135 37.3296L162.188 43.5349L162.491 45.1601Z" fill="#42FFFF"/>
<path opacity="0.5" d="M157.936 47.3468L161.135 45.8102L160.832 44.1851L157.633 45.7216L157.936 47.3468Z" fill="#42FFFF"/>
<path opacity="0.5" d="M172.624 44.3412L176.126 42.6569L175.823 41.0317L172.32 42.716L172.624 44.3412Z" fill="#42FFFF"/>
<path opacity="0.5" d="M164.395 48.2925L171.26 44.9929L170.957 43.3677L164.092 46.6673L164.395 48.2925Z" fill="#42FFFF"/>
<path opacity="0.5" d="M160.855 49.9866L163.027 48.9426L162.723 47.3174L160.552 48.3614L160.855 49.9866Z" fill="#42FFFF"/>
<path opacity="0.5" d="M169.637 49.8088L176.817 46.3614L176.513 44.7461L169.345 48.1836L169.637 49.8088Z" fill="#42FFFF"/>
<path d="M163.098 52.9502L168.282 50.4582L167.979 48.833L162.795 51.325L163.098 52.9502Z" fill="#42FFFF"/>
<path opacity="0.5" d="M158.229 55.2846L161.732 53.6003L161.428 51.9751L157.926 53.6594L158.229 55.2846Z" fill="#42FFFF"/>
<path opacity="0.5" d="M175.089 51.2367L177.505 50.0744L177.202 48.4492L174.785 49.6115L175.089 51.2367Z" fill="#42FFFF"/>
<path opacity="0.5" d="M170.523 53.4235L173.722 51.8869L173.419 50.2617L170.22 51.7983L170.523 53.4235Z" fill="#42FFFF"/>
<path opacity="0.5" d="M164.01 56.5555L169.17 54.0734L168.866 52.4482L163.706 54.9304L164.01 56.5555Z" fill="#42FFFF"/>
<path opacity="0.5" d="M170.768 57.3425L178.194 53.777L177.89 52.1616L170.477 55.7173L170.768 57.3425Z" fill="#42FFFF"/>
<path opacity="0.5" d="M162.457 61.3334L169.415 57.9943L169.112 56.3691L162.165 59.7082L162.457 61.3334Z" fill="#42FFFF"/>
<path d="M158.93 63.0277L161.102 61.9836L160.799 60.3584L158.627 61.4025L158.93 63.0277Z" fill="#42FFFF"/>
<path opacity="0.5" d="M155.533 64.6522L157.716 63.6081L157.413 61.9829L155.229 63.027L155.533 64.6522Z" fill="#42FFFF"/>
<path opacity="0.5" d="M174.435 59.6189L178.884 57.4914L178.58 55.8662L174.144 58.0036L174.435 59.6189Z" fill="#42FFFF"/>
<path d="M150.314 38.8854L144.149 41.8403L143.846 40.2151L150.022 37.2603L150.314 38.8854Z" fill="#42FFFF"/>
<path opacity="0.5" d="M149.684 43.2297L144.839 45.5542L144.535 43.929L149.392 41.6045L149.684 43.2297Z" fill="#42FFFF"/>
<path opacity="0.5" d="M149.041 47.5729L145.527 49.2572L145.235 47.632L148.738 45.9478L149.041 47.5729Z" fill="#42FFFF"/>
<path opacity="0.5" d="M151.318 50.5178L146.227 52.9605L145.924 51.3451L151.026 48.8926L151.318 50.5178Z" fill="#42FFFF"/>
<path opacity="0.5" d="M150.419 54.9894L146.917 56.6737L146.613 55.0485L150.116 53.3643L150.419 54.9894Z" fill="#42FFFF"/>
<path opacity="0.5" d="M152.054 58.2502L147.605 60.3777L147.302 58.7624L151.75 56.625L152.054 58.2502Z" fill="#42FFFF"/>
<path opacity="0.5" d="M150.722 62.9284L148.294 64.0907L147.99 62.4655L150.419 61.3032L150.722 62.9284Z" fill="#42FFFF"/>
<path opacity="0.5" d="M153.675 65.548L148.981 67.7938L148.678 66.1686L153.371 63.9229L153.675 65.548Z" fill="#42FFFF"/>
<path opacity="0.5" d="M154.118 69.3703L149.67 71.5077L149.366 69.8825L153.814 67.7451L154.118 69.3703Z" fill="#42FFFF"/>
<path opacity="0.5" d="M171.19 61.1857L173.082 60.2795L172.778 58.6543L170.887 59.5605L171.19 61.1857Z" fill="#42FFFF"/>
<path opacity="0.5" d="M165.573 63.874L169.834 61.8352L169.531 60.21L165.27 62.2488L165.573 63.874Z" fill="#42FFFF"/>
<path opacity="0.5" d="M129.964 48.5771L138.86 44.3122L138.557 42.687L129.66 46.9519L129.964 48.5771Z" fill="#42FFFF"/>
<path opacity="0.5" d="M125.411 50.7633L128.61 49.2268L128.306 47.6016L125.107 49.1381L125.411 50.7633Z" fill="#42FFFF"/>
<path d="M121.873 52.4587L124.044 51.4147L123.741 49.7993L121.569 50.8434L121.873 52.4587Z" fill="#42FFFF"/>
<path opacity="0.5" d="M134.704 50.3408L139.549 48.0163L139.246 46.3911L134.4 48.7156L134.704 50.3408Z" fill="#42FFFF"/>
<path opacity="0.5" d="M127.407 53.8467L133.35 50.9903L133.046 49.375L127.104 52.2215L127.407 53.8467Z" fill="#42FFFF"/>
<path d="M123.868 55.5408L126.051 54.4968L125.748 52.8716L123.576 53.9156L123.868 55.5408Z" fill="#42FFFF"/>
<path opacity="0.5" d="M120.507 57.1575L122.69 56.1135L122.386 54.4883L120.203 55.5323L120.507 57.1575Z" fill="#42FFFF"/>
<path opacity="0.5" d="M136.735 53.4041L140.238 51.7297L139.946 50.1045L136.432 51.7888L136.735 53.4041Z" fill="#42FFFF"/>
<path opacity="0.5" d="M134.179 54.635L135.381 54.0637L135.078 52.4385L133.875 53.0098L134.179 54.635Z" fill="#42FFFF"/>
<path opacity="0.5" d="M130.641 56.3284L132.825 55.2844L132.521 53.6592L130.338 54.7032L130.641 56.3284Z" fill="#42FFFF"/>
<path opacity="0.5" d="M127.991 61.6381L140.939 55.4328L140.635 53.8076L127.688 60.0227L127.991 61.6381Z" fill="#42FFFF"/>
<path opacity="0.5" d="M123.427 63.8346L126.637 62.298L126.334 60.6729L123.135 62.2094L123.427 63.8346Z" fill="#42FFFF"/>
<path opacity="0.5" d="M138.112 60.8211L141.626 59.1467L141.323 57.5215L137.809 59.2058L138.112 60.8211Z" fill="#42FFFF"/>
<path opacity="0.5" d="M129.893 64.7704L136.758 61.4807L136.455 59.8555L129.59 63.1453L129.893 64.7704Z" fill="#42FFFF"/>
<path opacity="0.5" d="M126.356 66.4646L128.528 65.4205L128.224 63.8052L126.053 64.8492L126.356 66.4646Z" fill="#42FFFF"/>
<path d="M135.137 66.2878L142.317 62.8503L142.013 61.2251L134.833 64.6725L135.137 66.2878Z" fill="#42FFFF"/>
<path opacity="0.5" d="M128.598 69.4291L133.781 66.947L133.478 65.3218L128.294 67.8137L128.598 69.4291Z" fill="#42FFFF"/>
<path opacity="0.5" d="M123.728 71.764L127.231 70.0895L126.927 68.4644L123.425 70.1487L123.728 71.764Z" fill="#42FFFF"/>
<path opacity="0.5" d="M140.577 67.7146L143.005 66.5524L142.702 64.937L140.285 66.0993L140.577 67.7146Z" fill="#42FFFF"/>
<path opacity="0.5" d="M136.024 69.9122L139.223 68.3757L138.92 66.7505L135.721 68.287L136.024 69.9122Z" fill="#42FFFF"/>
<path d="M129.497 73.0345L134.657 70.5622L134.366 68.937L129.205 71.4093L129.497 73.0345Z" fill="#42FFFF"/>
<path opacity="0.5" d="M136.269 73.822L143.695 70.2663L143.391 68.6411L135.966 72.2067L136.269 73.822Z" fill="#42FFFF"/>
<path opacity="0.5" d="M127.956 77.8113L134.914 74.4821L134.611 72.8569L127.652 76.196L127.956 77.8113Z" fill="#42FFFF"/>
<path opacity="0.5" d="M124.431 79.5154L126.603 78.4714L126.3 76.8462L124.128 77.8903L124.431 79.5154Z" fill="#42FFFF"/>
<path opacity="0.5" d="M121.033 81.14L123.205 80.0959L122.901 78.4707L120.729 79.5148L121.033 81.14Z" fill="#42FFFF"/>
<path opacity="0.5" d="M139.934 76.1078L144.383 73.9704L144.079 72.3452L139.631 74.4826L139.934 76.1078Z" fill="#42FFFF"/>
<path d="M115.815 55.3634L109.65 58.3281L109.347 56.7029L115.511 53.748L115.815 55.3634Z" fill="#42FFFF"/>
<path opacity="0.5" d="M115.184 59.7077L110.339 62.0322L110.035 60.407L114.88 58.0825L115.184 59.7077Z" fill="#42FFFF"/>
<path opacity="0.5" d="M114.54 64.0612L111.026 65.7455L110.723 64.1203L114.237 62.436L114.54 64.0612Z" fill="#42FFFF"/>
<path opacity="0.5" d="M116.818 67.0056L111.716 69.4483L111.424 67.8231L116.514 65.3804L116.818 67.0056Z" fill="#42FFFF"/>
<path opacity="0.5" d="M115.918 71.4777L112.416 73.1522L112.112 71.5368L115.615 69.8525L115.918 71.4777Z" fill="#42FFFF"/>
<path opacity="0.5" d="M117.553 74.7286L113.104 76.866L112.801 75.2408L117.249 73.1133L117.553 74.7286Z" fill="#42FFFF"/>
<path opacity="0.5" d="M116.211 79.4064L113.794 80.5686L113.49 78.9533L115.919 77.791L116.211 79.4064Z" fill="#42FFFF"/>
<path opacity="0.5" d="M119.176 82.0256L114.482 84.2812L114.179 82.656L118.872 80.4004L119.176 82.0256Z" fill="#42FFFF"/>
<path opacity="0.5" d="M119.619 85.8591L115.171 87.9866L114.867 86.3614L119.315 84.2339L119.619 85.8591Z" fill="#42FFFF"/>
<path d="M136.689 77.6642L138.581 76.758L138.277 75.1328L136.386 76.039L136.689 77.6642Z" fill="#42FFFF"/>
<path opacity="0.5" d="M131.073 80.3628L135.335 78.3141L135.031 76.6987L130.77 78.7376L131.073 80.3628Z" fill="#42FFFF"/>
<path opacity="0.5" d="M170.686 65.4897L179.583 61.215L179.279 59.5996L170.383 63.8645L170.686 65.4897Z" fill="#42FFFF"/>
<path opacity="0.5" d="M166.122 67.6754L169.333 66.1389L169.029 64.5137L165.83 66.0502L166.122 67.6754Z" fill="#42FFFF"/>
<path opacity="0.5" d="M162.597 69.3704L164.768 68.3264L164.465 66.7012L162.293 67.7452L162.597 69.3704Z" fill="#42FFFF"/>
<path opacity="0.5" d="M175.428 67.2524L180.273 64.9279L179.969 63.3027L175.124 65.6273L175.428 67.2524Z" fill="#42FFFF"/>
<path opacity="0.5" d="M168.13 70.7486L174.072 67.902L173.769 66.2769L167.826 69.1332L168.13 70.7486Z" fill="#42FFFF"/>
<path opacity="0.5" d="M164.593 72.4539L166.764 71.4099L166.472 69.7847L164.289 70.8287L164.593 72.4539Z" fill="#42FFFF"/>
<path opacity="0.5" d="M161.229 74.0583L163.401 73.0143L163.097 71.3989L160.926 72.443L161.229 74.0583Z" fill="#42FFFF"/>
<path opacity="0.5" d="M177.458 70.3153L180.96 68.6311L180.657 67.0059L177.154 68.6901L177.458 70.3153Z" fill="#42FFFF"/>
<path opacity="0.5" d="M174.902 71.5462L176.093 70.965L175.801 69.3398L174.599 69.921L174.902 71.5462Z" fill="#42FFFF"/>
<path opacity="0.5" d="M171.364 73.2415L173.536 72.1975L173.232 70.5723L171.061 71.6163L171.364 73.2415Z" fill="#42FFFF"/>
<path opacity="0.5" d="M168.715 78.5497L181.651 72.3444L181.347 70.7192L168.411 76.9245L168.715 78.5497Z" fill="#42FFFF"/>
<path opacity="0.5" d="M164.149 80.7365L167.348 79.1999L167.045 77.5747L163.846 79.1113L164.149 80.7365Z" fill="#42FFFF"/>
<path opacity="0.5" d="M178.836 77.7328L182.338 76.0485L182.046 74.4233L178.532 76.1076L178.836 77.7328Z" fill="#42FFFF"/>
<path opacity="0.5" d="M170.605 81.6821L177.482 78.3825L177.178 76.7573L170.302 80.057L170.605 81.6821Z" fill="#42FFFF"/>
<path opacity="0.5" d="M167.067 83.3763L169.251 82.3322L168.947 80.707L166.775 81.7511L167.067 83.3763Z" fill="#42FFFF"/>
<path opacity="0.5" d="M175.858 83.1985L183.038 79.7609L182.735 78.1357L175.555 81.5733L175.858 83.1985Z" fill="#42FFFF"/>
<path opacity="0.5" d="M169.309 86.3418L174.505 83.8498L174.201 82.2246L169.006 84.7166L169.309 86.3418Z" fill="#42FFFF"/>
<path opacity="0.5" d="M164.451 88.6752L167.954 86.9909L167.65 85.3657L164.147 87.05L164.451 88.6752Z" fill="#42FFFF"/>
<path opacity="0.5" d="M181.3 84.6278L183.728 83.4655L183.425 81.8403L180.996 83.0026L181.3 84.6278Z" fill="#42FFFF"/>
<path opacity="0.5" d="M176.735 86.8141L179.946 85.2775L179.642 83.6523L176.443 85.1889L176.735 86.8141Z" fill="#42FFFF"/>
<path opacity="0.5" d="M170.221 89.9451L175.381 87.463L175.077 85.8477L169.917 88.3199L170.221 89.9451Z" fill="#42FFFF"/>
<path opacity="0.5" d="M176.99 90.7346L184.415 87.1691L184.112 85.5537L176.687 89.1094L176.99 90.7346Z" fill="#42FFFF"/>
<path opacity="0.5" d="M168.679 94.723L175.637 91.384L175.333 89.7588L168.375 93.0978L168.679 94.723Z" fill="#42FFFF"/>
<path opacity="0.5" d="M165.14 96.4178L167.324 95.3737L167.02 93.7485L164.837 94.7926L165.14 96.4178Z" fill="#42FFFF"/>
<path opacity="0.5" d="M161.756 98.0427L163.927 96.9986L163.624 95.3833L161.452 96.4274L161.756 98.0427Z" fill="#42FFFF"/>
<path opacity="0.5" d="M180.659 93.0091L185.107 90.8815L184.804 89.2563L180.355 91.3937L180.659 93.0091Z" fill="#42FFFF"/>
<path opacity="0.5" d="M156.537 72.2766L150.373 75.2315L150.069 73.6161L156.234 70.6514L156.537 72.2766Z" fill="#42FFFF"/>
<path opacity="0.5" d="M155.907 76.6193L151.061 78.9439L150.758 77.3187L155.603 74.9941L155.907 76.6193Z" fill="#42FFFF"/>
<path opacity="0.5" d="M155.251 80.9635L151.749 82.6478L151.445 81.0226L154.948 79.3481L155.251 80.9635Z" fill="#42FFFF"/>
<path opacity="0.5" d="M157.54 83.9079L152.438 86.3605L152.135 84.7353L157.237 82.2827L157.54 83.9079Z" fill="#42FFFF"/>
<path opacity="0.5" d="M156.642 88.3791L153.128 90.0634L152.824 88.4382L156.338 86.7539L156.642 88.3791Z" fill="#42FFFF"/>
<path opacity="0.5" d="M158.265 91.6403L153.816 93.7679L153.524 92.1525L157.961 90.0151L158.265 91.6403Z" fill="#42FFFF"/>
<path opacity="0.5" d="M156.933 96.3181L154.516 97.4803L154.213 95.8551L156.63 94.6929L156.933 96.3181Z" fill="#42FFFF"/>
<path opacity="0.5" d="M159.898 98.9387L155.205 101.184L154.901 99.5691L159.595 97.3135L159.898 98.9387Z" fill="#42FFFF"/>
<path opacity="0.5" d="M160.344 102.76L155.895 104.898L155.592 103.273L160.04 101.135L160.344 102.76Z" fill="#42FFFF"/>
<path opacity="0.5" d="M177.412 94.5753L179.303 93.6691L179 92.0439L177.108 92.9501L177.412 94.5753Z" fill="#42FFFF"/>
<path opacity="0.5" d="M171.796 97.2647L176.045 95.2258L175.742 93.6006L171.492 95.6493L171.796 97.2647Z" fill="#42FFFF"/>
<path opacity="0.5" d="M170.278 109.744L177.458 106.297L177.155 104.671L169.975 108.119L170.278 109.744Z" fill="#42FFFF"/>
<path opacity="0.5" d="M165.364 112.098L168.19 110.739L167.886 109.124L165.061 110.473L165.364 112.098Z" fill="#42FFFF"/>
<path opacity="0.5" d="M136.186 81.9668L145.083 77.7019L144.779 76.0767L135.883 80.3416L136.186 81.9668Z" fill="#42FFFF"/>
<path opacity="0.5" d="M131.623 84.1543L134.834 82.6178L134.53 81.0024L131.319 82.539L131.623 84.1543Z" fill="#42FFFF"/>
<path opacity="0.5" d="M128.096 85.8484L130.268 84.8043L129.965 83.189L127.793 84.233L128.096 85.8484Z" fill="#42FFFF"/>
<path opacity="0.5" d="M140.927 83.7304L145.772 81.4059L145.468 79.7905L140.623 82.115L140.927 83.7304Z" fill="#42FFFF"/>
<path opacity="0.5" d="M133.631 87.2374L139.562 84.3908L139.27 82.7656L133.327 85.6122L133.631 87.2374Z" fill="#42FFFF"/>
<path opacity="0.5" d="M130.092 88.9315L132.263 87.8874L131.96 86.2622L129.788 87.3063L130.092 88.9315Z" fill="#42FFFF"/>
<path opacity="0.5" d="M126.73 90.5472L128.902 89.5031L128.598 87.8779L126.427 88.922L126.73 90.5472Z" fill="#42FFFF"/>
<path opacity="0.5" d="M142.959 86.8041L146.461 85.1198L146.158 83.4946L142.655 85.1789L142.959 86.8041Z" fill="#42FFFF"/>
<path opacity="0.5" d="M140.402 88.0246L141.593 87.4533L141.29 85.8281L140.099 86.3994L140.402 88.0246Z" fill="#42FFFF"/>
<path opacity="0.5" d="M136.863 89.72L139.035 88.6759L138.731 87.0605L136.56 88.1046L136.863 89.72Z" fill="#42FFFF"/>
<path opacity="0.5" d="M134.215 95.0376L147.151 88.8225L146.847 87.1973L133.911 93.4124L134.215 95.0376Z" fill="#42FFFF"/>
<path opacity="0.5" d="M129.65 97.2252L132.849 95.6887L132.546 94.0635L129.347 95.6L129.65 97.2252Z" fill="#42FFFF"/>
<path opacity="0.5" d="M144.338 94.2108L147.84 92.5363L147.537 90.9111L144.034 92.5954L144.338 94.2108Z" fill="#42FFFF"/>
<path opacity="0.5" d="M136.105 98.1611L142.982 94.8713L142.678 93.2461L135.802 96.5359L136.105 98.1611Z" fill="#42FFFF"/>
<path opacity="0.5" d="M132.567 99.8542L134.75 98.8102L134.447 97.1948L132.264 98.2389L132.567 99.8542Z" fill="#42FFFF"/>
<path opacity="0.5" d="M141.359 99.6878L148.528 96.2404L148.236 94.6152L141.056 98.0626L141.359 99.6878Z" fill="#42FFFF"/>
<path opacity="0.5" d="M134.809 102.82L140.005 100.338L139.701 98.7124L134.506 101.204L134.809 102.82Z" fill="#42FFFF"/>
<path opacity="0.5" d="M129.94 105.154L133.455 103.479L133.151 101.854L129.648 103.538L129.94 105.154Z" fill="#42FFFF"/>
<path opacity="0.5" d="M146.8 101.115L149.228 99.9523L148.925 98.3271L146.496 99.4894L146.8 101.115Z" fill="#42FFFF"/>
<path opacity="0.5" d="M142.235 103.302L145.446 101.765L145.142 100.14L141.932 101.677L142.235 103.302Z" fill="#42FFFF"/>
<path opacity="0.5" d="M135.721 106.425L140.881 103.953L140.577 102.328L135.417 104.8L135.721 106.425Z" fill="#42FFFF"/>
<path opacity="0.5" d="M142.491 107.213L149.916 103.657L149.613 102.032L142.188 105.597L142.491 107.213Z" fill="#42FFFF"/>
<path opacity="0.5" d="M134.179 111.202L141.137 107.873L140.833 106.248L133.875 109.587L134.179 111.202Z" fill="#42FFFF"/>
<path opacity="0.5" d="M130.641 112.904L132.825 111.86L132.521 110.235L130.338 111.279L130.641 112.904Z" fill="#42FFFF"/>
<path opacity="0.5" d="M127.255 114.531L129.426 113.487L129.123 111.861L126.951 112.905L127.255 114.531Z" fill="#42FFFF"/>
<path opacity="0.5" d="M146.158 109.498L150.606 107.36L150.303 105.745L145.854 107.873L146.158 109.498Z" fill="#42FFFF"/>
<path opacity="0.5" d="M122.037 88.754L115.873 91.7188L115.569 90.0936L121.734 87.1387L122.037 88.754Z" fill="#42FFFF"/>
<path opacity="0.5" d="M121.407 93.0974L116.561 95.4219L116.258 93.7967L121.103 91.4722L121.407 93.0974Z" fill="#42FFFF"/>
<path opacity="0.5" d="M120.753 97.4509L117.251 99.1352L116.947 97.51L120.45 95.8257L120.753 97.4509Z" fill="#42FFFF"/>
<path opacity="0.5" d="M123.04 100.396L117.938 102.839L117.635 101.214L122.737 98.771L123.04 100.396Z" fill="#42FFFF"/>
<path opacity="0.5" d="M122.129 104.869L118.627 106.553L118.323 104.928L121.837 103.244L122.129 104.869Z" fill="#42FFFF"/>
<path opacity="0.5" d="M123.764 108.118L119.315 110.256L119.012 108.63L123.46 106.503L123.764 108.118Z" fill="#42FFFF"/>
<path opacity="0.5" d="M122.433 112.797L120.005 113.959L119.713 112.344L122.13 111.182L122.433 112.797Z" fill="#42FFFF"/>
<path opacity="0.5" d="M125.398 115.417L120.705 117.672L120.401 116.047L125.095 113.792L125.398 115.417Z" fill="#42FFFF"/>
<path opacity="0.5" d="M125.842 119.249L121.393 121.376L121.09 119.761L125.538 117.624L125.842 119.249Z" fill="#42FFFF"/>
<path opacity="0.5" d="M142.912 111.054L144.803 110.148L144.5 108.522L142.608 109.438L142.912 111.054Z" fill="#42FFFF"/>
<path opacity="0.5" d="M137.295 113.752L141.545 111.704L141.241 110.088L136.991 112.127L137.295 113.752Z" fill="#42FFFF"/>
<path opacity="0.5" d="M135.778 126.222L142.958 122.774L142.655 121.149L135.475 124.596L135.778 126.222Z" fill="#42FFFF"/>
<path opacity="0.5" d="M130.864 128.586L133.689 127.227L133.386 125.602L130.561 126.961L130.864 128.586Z" fill="#42FFFF"/>
<path d="M165.876 68.3354L157.564 64.297C157.459 64.2379 157.307 64.2379 157.143 64.3167L53.0475 115.023C52.7089 115.19 52.4287 115.633 52.4287 116.018V132.594C52.4287 132.782 52.4988 132.91 52.6039 132.988C52.6039 132.988 52.6155 132.988 52.6272 132.998L61.0217 137.076L61.0917 129.068L157.143 82.2825C157.482 82.115 157.762 81.6718 157.762 81.2877V75.5946L165.865 68.3255L165.876 68.3354Z" fill="url(#paint13_linear_726_1194)"/>
<path d="M165.515 86.3307L61.4196 137.037C61.081 137.204 60.8008 137.027 60.8008 136.643V120.066C60.8008 119.682 61.081 119.238 61.4196 119.071L165.515 68.3649C165.854 68.1974 166.134 68.3747 166.134 68.7589V85.3358C166.134 85.72 165.854 86.1632 165.515 86.3307Z" fill="url(#paint14_linear_726_1194)"/>
<path opacity="0.6" d="M151.155 82.9825L70.1055 123.189C72.6156 125.011 74.9857 127.089 77.1573 129.374L158.802 89.6015C156.455 87.1292 153.875 84.8933 151.155 82.9727V82.9825Z" fill="#242993"/>
<path d="M162.538 81.3572L64.3852 129.167C64.1517 129.276 63.9648 129.167 63.9648 128.901V124.735C63.9648 124.469 64.1517 124.174 64.3852 124.055L162.538 76.2452C162.772 76.1369 162.959 76.2452 162.959 76.5112V80.6776C162.959 80.9435 162.772 81.239 162.538 81.3572Z" fill="#242993"/>
<path d="M162.538 76.2455L160.542 77.2206V79.4664C160.542 79.7323 160.355 80.0278 160.122 80.146L63.9648 126.981V128.902C63.9648 129.168 64.1517 129.286 64.3852 129.168L162.538 81.3575C162.772 81.2491 162.959 80.9438 162.959 80.6779V76.5115C162.959 76.2455 162.772 76.1273 162.538 76.2455Z" fill="#4553C7"/>
<path opacity="0.96" d="M217.679 260.738L299.335 220.965C288.804 215.833 279.92 204.605 277.211 193.869C276.114 189.515 272.95 185.733 268.385 183.507L206.681 153.456C189.495 145.083 178.357 130.013 177.19 113.299C176.209 99.184 163.553 85.3059 153.746 80.5288L72.0898 120.302C81.7569 125.01 92.4047 138.169 93.6189 152.047C95.0783 168.762 105.854 183.881 123.052 192.263L186.74 223.28C191.305 225.506 194.469 229.288 195.567 233.642C198.275 244.378 207.16 255.606 217.691 260.738H217.679Z" fill="url(#paint15_linear_726_1194)"/>
<path opacity="0.8" d="M153.746 80.5288L72.0898 120.302C72.7437 120.617 73.3858 120.962 74.0396 121.326L155.684 81.5532C155.042 81.1986 154.4 80.8538 153.746 80.5288Z" fill="#4553C7"/>
<g opacity="0.32">
<path d="M123.028 127.572L108.714 134.575L108.598 133.186L122.888 126.213L123.028 127.572Z" fill="#4553C7"/>
<path d="M130.255 124.044L125.188 126.516L125.048 125.157L130.104 122.695L130.255 124.044Z" fill="#4553C7"/>
<path d="M135.79 121.337L132.392 123.002L132.229 121.652L135.626 119.998L135.79 121.337Z" fill="#4553C7"/>
<path d="M116.853 133.905L108.984 137.776L108.867 136.377L116.725 132.516L116.853 133.905Z" fill="#4553C7"/>
<path d="M128.528 128.172L119.047 132.831L118.907 131.442L128.376 126.803L128.528 128.172Z" fill="#4553C7"/>
<path d="M134.109 125.425L130.676 127.109L130.524 125.75L133.945 124.075L134.109 125.425Z" fill="#4553C7"/>
<path d="M139.372 122.844L135.975 124.508L135.812 123.159L139.197 121.494L139.372 122.844Z" fill="#4553C7"/>
<path d="M114.984 138.179L109.252 141.006L109.135 139.588L114.856 136.771L114.984 138.179Z" fill="#4553C7"/>
<path d="M119.128 136.121L117.19 137.086L117.05 135.688L118.988 134.732L119.128 136.121Z" fill="#4553C7"/>
<path d="M124.815 133.313L121.312 135.037L121.184 133.648L124.663 131.924L124.815 133.313Z" fill="#4553C7"/>
<path d="M130.501 133.836L109.521 144.267L109.404 142.839L130.35 132.458L130.501 133.836Z" fill="#4553C7"/>
<path d="M137.727 130.25L132.66 132.762L132.496 131.383L137.563 128.871L137.727 130.25Z" fill="#4553C7"/>
<path d="M115.566 144.661L109.787 147.547L109.67 146.109L115.438 143.232L115.566 144.661Z" fill="#4553C7"/>
<path d="M128.924 137.992L117.798 143.548L117.658 142.129L128.773 136.594L128.924 137.992Z" fill="#4553C7"/>
<path d="M134.574 135.166L131.095 136.909L130.943 135.51L134.411 133.777L134.574 135.166Z" fill="#4553C7"/>
<path d="M121.883 144.926L110.068 150.856L109.951 149.408L121.731 143.498L121.883 144.926Z" fill="#4553C7"/>
<path d="M132.461 139.607L124.09 143.813L123.95 142.395L132.31 138.199L132.461 139.607Z" fill="#4553C7"/>
<path d="M140.226 135.717L134.645 138.515L134.481 137.116L140.051 134.329L140.226 135.717Z" fill="#4553C7"/>
<path d="M114.377 152.166L110.349 154.205L110.221 152.738L114.249 150.708L114.377 152.166Z" fill="#4553C7"/>
<path d="M121.895 148.374L116.63 151.033L116.49 149.575L121.755 146.926L121.895 148.374Z" fill="#4553C7"/>
<path d="M132.485 143.026L124.114 147.251L123.974 145.813L132.321 141.607L132.485 143.026Z" fill="#4553C7"/>
<path d="M122.947 151.318L110.629 157.573L110.501 156.095L122.795 149.87L122.947 151.318Z" fill="#4553C7"/>
<path d="M136.456 144.453L125.166 150.186L125.026 148.738L136.281 143.035L136.456 144.453Z" fill="#4553C7"/>
<path d="M142.118 141.587L138.639 143.35L138.464 141.932L141.931 140.169L142.118 141.587Z" fill="#4553C7"/>
<path d="M147.488 138.849L144.044 140.602L143.869 139.194L147.302 137.45L147.488 138.849Z" fill="#4553C7"/>
<path d="M118.346 157.169L110.909 160.971L110.781 159.483L118.206 155.701L118.346 157.169Z" fill="#4553C7"/>
<path d="M151.118 113.841L160.423 109.29L160.225 108L150.92 112.531L151.118 113.841Z" fill="#4553C7"/>
<path d="M153.558 115.86L160.89 112.255L160.691 110.955L153.359 114.55L153.558 115.86Z" fill="#4553C7"/>
<path d="M156.045 117.879L161.357 115.249L161.159 113.939L155.847 116.559L156.045 117.879Z" fill="#4553C7"/>
<path d="M154.06 122.134L161.836 118.273L161.626 116.943L153.862 120.795L154.06 122.134Z" fill="#4553C7"/>
<path d="M156.956 123.986L162.315 121.307L162.105 119.977L156.757 122.646L156.956 123.986Z" fill="#4553C7"/>
<path d="M155.964 127.807L162.794 124.38L162.583 123.03L155.765 126.448L155.964 127.807Z" fill="#4553C7"/>
<path d="M159.548 129.355L163.272 127.473L163.062 126.114L159.349 127.986L159.548 129.355Z" fill="#4553C7"/>
<path d="M156.502 134.279L163.764 130.595L163.554 129.226L156.303 132.9L156.502 134.279Z" fill="#4553C7"/>
<path d="M157.353 137.263L164.253 133.737L164.043 132.358L157.143 135.864L157.353 137.263Z" fill="#4553C7"/>
<path d="M123.729 154.431L120.6 156.027L120.46 154.549L123.577 152.963L123.729 154.431Z" fill="#4553C7"/>
<path d="M132.918 149.733L125.96 153.289L125.808 151.831L132.755 148.295L132.918 149.733Z" fill="#4553C7"/>
</g>
<g opacity="0.32">
<path d="M175.767 173.186L197.051 162.814L195.533 162.075L174.25 172.447L175.767 173.186Z" fill="#4553C7"/>
<path d="M163.378 179.214L171.072 175.471L169.542 174.732L161.86 178.475L163.378 179.214Z" fill="#4553C7"/>
<path d="M157.213 182.217L159.466 181.124L157.949 180.385L155.695 181.479L157.213 182.217Z" fill="#4553C7"/>
<path d="M145.62 187.872L153.303 184.129L151.785 183.39L144.103 187.133L145.62 187.872Z" fill="#4553C7"/>
<path d="M193.979 167.384L200.202 164.35L198.684 163.611L192.461 166.635L193.979 167.384Z" fill="#4553C7"/>
<path d="M166.53 180.75L189.285 169.669L187.768 168.93L165.013 180.011L166.53 180.75Z" fill="#4553C7"/>
<path d="M160.365 183.754L162.619 182.66L161.101 181.912L158.848 183.015L160.365 183.754Z" fill="#4553C7"/>
<path d="M148.773 189.398L156.455 185.655L154.925 184.917L147.243 188.659L148.773 189.398Z" fill="#4553C7"/>
<path d="M200.238 167.393L203.344 165.886L201.826 165.138L198.72 166.655L200.238 167.393Z" fill="#4553C7"/>
<path d="M191.853 171.482L195.543 169.689L194.013 168.94L190.335 170.743L191.853 171.482Z" fill="#4553C7"/>
<path d="M185.69 174.486L187.943 173.383L186.413 172.644L184.16 173.747L185.69 174.486Z" fill="#4553C7"/>
<path d="M174.084 180.13L181.778 176.387L180.248 175.648L172.566 179.391L174.084 180.13Z" fill="#4553C7"/>
<path d="M200.271 170.447L206.494 167.414L204.976 166.675L198.753 169.708L200.271 170.447Z" fill="#4553C7"/>
<path d="M187.896 176.475L195.578 172.732L194.06 171.994L186.366 175.737L187.896 176.475Z" fill="#4553C7"/>
<path d="M181.731 179.479L183.973 178.375L182.455 177.637L180.202 178.74L181.731 179.479Z" fill="#4553C7"/>
<path d="M170.127 185.123L177.809 181.38L176.291 180.642L168.609 184.384L170.127 185.123Z" fill="#4553C7"/>
<path d="M188.584 179.43L209.88 169.059L208.35 168.32L187.066 178.692L188.584 179.43Z" fill="#4553C7"/>
<path d="M176.21 185.459L183.892 181.716L182.362 180.977L174.68 184.72L176.21 185.459Z" fill="#4553C7"/>
<path d="M170.033 188.462L172.287 187.369L170.769 186.63L168.516 187.724L170.033 188.462Z" fill="#4553C7"/>
<path d="M158.44 194.116L166.122 190.373L164.604 189.634L156.922 193.377L158.44 194.116Z" fill="#4553C7"/>
<path d="M206.799 173.629L213.022 170.595L211.504 169.856L205.281 172.88L206.799 173.629Z" fill="#4553C7"/>
<path d="M179.349 186.995L202.104 175.914L200.586 175.175L177.831 186.256L179.349 186.995Z" fill="#4553C7"/>
<path d="M173.186 189.999L175.439 188.906L173.921 188.157L171.668 189.26L173.186 189.999Z" fill="#4553C7"/>
<path d="M161.592 195.643L169.274 191.9L167.756 191.161L160.062 194.904L161.592 195.643Z" fill="#4553C7"/>
<path d="M213.056 173.639L216.162 172.132L214.644 171.383L211.539 172.9L213.056 173.639Z" fill="#4553C7"/>
<path d="M204.674 177.726L208.363 175.933L206.845 175.185L203.156 176.987L204.674 177.726Z" fill="#4553C7"/>
<path d="M198.508 180.73L200.761 179.627L199.232 178.888L196.99 179.991L198.508 180.73Z" fill="#4553C7"/>
<path d="M186.916 186.375L194.598 182.632L193.069 181.893L185.386 185.636L186.916 186.375Z" fill="#4553C7"/>
<path d="M213.091 176.692L219.313 173.659L217.796 172.92L211.573 175.954L213.091 176.692Z" fill="#4553C7"/>
<path d="M200.716 182.72L208.398 178.977L206.88 178.239L199.198 181.982L200.716 182.72Z" fill="#4553C7"/>
<path d="M194.551 185.724L196.805 184.621L195.275 183.882L193.022 184.985L194.551 185.724Z" fill="#4553C7"/>
<path d="M182.945 191.368L190.639 187.625L189.11 186.887L181.428 190.63L182.945 191.368Z" fill="#4553C7"/>
<path d="M201.404 185.675L222.7 175.304L221.171 174.565L199.887 184.937L201.404 185.675Z" fill="#4553C7"/>
<path d="M189.029 191.703L196.711 187.96L195.193 187.221L187.5 190.964L189.029 191.703Z" fill="#4553C7"/>
<path d="M182.863 194.707L185.105 193.614L183.587 192.875L181.334 193.968L182.863 194.707Z" fill="#4553C7"/>
<path d="M171.259 200.36L178.941 196.618L177.423 195.879L169.741 199.622L171.259 200.36Z" fill="#4553C7"/>
<path d="M219.618 179.874L225.841 176.84L224.323 176.102L218.101 179.125L219.618 179.874Z" fill="#4553C7"/>
<path d="M192.168 193.24L214.923 182.159L213.405 181.42L190.65 192.501L192.168 193.24Z" fill="#4553C7"/>
<path d="M186.004 196.243L188.257 195.15L186.739 194.401L184.486 195.505L186.004 196.243Z" fill="#4553C7"/>
<path d="M174.411 201.888L182.093 198.145L180.575 197.406L172.893 201.149L174.411 201.888Z" fill="#4553C7"/>
<path d="M225.876 179.883L228.993 178.376L227.464 177.627L224.358 179.144L225.876 179.883Z" fill="#4553C7"/>
<path d="M217.492 183.971L221.181 182.179L219.663 181.43L215.974 183.233L217.492 183.971Z" fill="#4553C7"/>
<path d="M211.329 186.976L213.583 185.873L212.065 185.134L209.812 186.237L211.329 186.976Z" fill="#4553C7"/>
<path d="M199.734 192.618L207.416 188.875L205.899 188.137L198.205 191.88L199.734 192.618Z" fill="#4553C7"/>
<path d="M225.91 182.936L232.133 179.903L230.615 179.164L224.392 182.198L225.91 182.936Z" fill="#4553C7"/>
<path d="M213.534 188.965L221.217 185.222L219.699 184.483L212.017 188.226L213.534 188.965Z" fill="#4553C7"/>
<path d="M207.37 191.969L209.624 190.866L208.094 190.127L205.853 191.231L207.37 191.969Z" fill="#4553C7"/>
<path d="M195.776 197.613L203.458 193.87L201.928 193.131L194.246 196.874L195.776 197.613Z" fill="#4553C7"/>
</g>
<path opacity="0.5" d="M283.68 165.236C284.544 167.324 278.695 170.959 270.616 173.342C262.537 175.726 255.275 175.972 254.411 173.874C253.547 171.786 259.396 168.151 267.475 165.768C275.555 163.384 282.817 163.138 283.68 165.236Z" fill="#242993"/>
<path d="M263.226 157.633L263.319 155.476L263.914 154.215L264.288 155.259L263.226 157.633Z" fill="#DD821F"/>
<path d="M289.985 158.037L290.09 155.929C290.09 155.929 287.977 157.712 287.977 157.751C287.977 157.791 289.996 158.037 289.996 158.037H289.985Z" fill="#FFD85A"/>
<path d="M276.417 164.301C269.026 164.154 263.166 160.982 263.317 155.476C263.469 149.97 269.587 145.636 276.977 145.784C284.368 145.932 290.229 150.512 290.077 156.018C289.925 161.524 283.807 164.449 276.417 164.301Z" fill="#FFD85A"/>
<path d="M276.323 167.867C268.933 167.719 263.072 163.139 263.224 157.633C263.375 152.127 269.493 147.793 276.884 147.941C284.274 148.088 290.135 152.669 289.983 158.174C289.831 163.68 283.714 168.014 276.323 167.867Z" fill="#FFD85A"/>
<path d="M267.263 150.719C264.835 152.472 263.294 154.905 263.224 157.634C263.072 163.14 268.933 167.72 276.323 167.867C279.977 167.936 283.317 166.912 285.792 165.198L267.275 150.729L267.263 150.719Z" fill="#DD821F"/>
<path d="M276.335 167.424C269.272 167.286 263.668 162.903 263.819 157.643C263.971 152.383 269.809 148.236 276.872 148.384C283.936 148.522 289.54 152.905 289.388 158.165C289.236 163.425 283.399 167.571 276.335 167.424Z" fill="#F9BF30"/>
<path d="M276.384 165.542C270.722 165.423 266.215 161.917 266.343 157.691C266.46 153.466 271.154 150.137 276.828 150.255C282.49 150.373 286.997 153.88 286.868 158.105C286.752 162.331 282.058 165.66 276.384 165.542Z" fill="#F2B42A"/>
<path d="M286.866 158.106C286.866 157.928 286.866 157.761 286.866 157.584C286.399 161.553 281.857 164.606 276.428 164.498C271 164.39 266.645 161.149 266.4 157.17C266.376 157.337 266.364 157.515 266.353 157.692C266.236 161.917 270.731 165.424 276.393 165.542C282.056 165.66 286.749 162.331 286.878 158.106H286.866Z" fill="#FFD85A"/>
<path d="M278.576 158.549L276.475 156.904C274.443 157.288 270.672 158.017 267.648 158.618C268.396 160.519 270.229 162.095 272.622 162.932L278.576 158.559V158.549Z" fill="#FFD85A"/>
<path d="M275.262 163.504C275.6 163.534 275.939 163.563 276.277 163.563C278.753 163.612 281.018 162.933 282.71 161.77L279.278 159.082L275.262 163.494V163.504Z" fill="#FFD85A"/>
<path d="M274.211 155.132L270.241 152.029C268.91 153.014 267.719 154.098 267.393 155.546L274.211 155.132Z" fill="#FFD85A"/>
<path d="M276.278 151.172C281.94 151.29 286.447 154.796 286.318 159.022C286.295 159.879 286.085 160.696 285.711 161.455C286.412 160.45 286.82 159.317 286.855 158.106C286.972 153.88 282.477 150.374 276.815 150.256C272.296 150.167 268.397 152.265 266.949 155.259C268.689 152.757 272.238 151.093 276.278 151.172Z" fill="#DD821F"/>
<path d="M263.317 155.477C263.294 156.294 263.201 156.885 263.434 157.653C263.726 156.846 264.368 154.432 264.368 154.432L265.384 152.512L266.236 151.921L267.672 151.034L267.789 148.267C265.115 150.03 263.399 152.591 263.317 155.477Z" fill="#DD821F"/>
<path d="M289.227 155.201L289.285 154.629C289.285 154.55 289.367 154.481 289.448 154.481H289.495C289.588 154.481 289.659 154.55 289.659 154.629L289.6 155.201C289.6 155.28 289.518 155.349 289.437 155.349H289.39C289.297 155.349 289.227 155.28 289.227 155.201Z" fill="#DD821F"/>
<path d="M288.045 153.024L288.115 151.999C288.115 151.91 288.208 151.832 288.302 151.832H288.419C288.524 151.832 288.605 151.91 288.605 152.009L288.535 153.034C288.535 153.123 288.442 153.202 288.348 153.202H288.232C288.127 153.202 288.045 153.123 288.045 153.024Z" fill="#DD821F"/>
<path d="M286.412 151.132L286.482 150.147C286.482 150.038 286.587 149.959 286.704 149.959H286.914C287.031 149.959 287.124 150.048 287.124 150.157L287.054 151.142C287.054 151.251 286.949 151.33 286.832 151.33H286.622C286.506 151.33 286.412 151.241 286.412 151.132Z" fill="#DD821F"/>
<path d="M283.973 149.594L284.043 148.393C284.043 148.284 284.148 148.206 284.265 148.206H284.475C284.591 148.206 284.685 148.294 284.685 148.403L284.615 149.604C284.615 149.713 284.51 149.791 284.393 149.791H284.183C284.066 149.791 283.973 149.703 283.973 149.594Z" fill="#DD821F"/>
<path d="M281.52 148.591L281.601 147.212C281.601 147.104 281.706 147.025 281.823 147.025H282.033C282.15 147.025 282.243 147.114 282.243 147.222L282.162 148.601C282.162 148.709 282.057 148.788 281.94 148.788H281.73C281.613 148.788 281.52 148.699 281.52 148.591Z" fill="#DD821F"/>
<path d="M279.055 147.98L279.136 146.65C279.136 146.542 279.241 146.463 279.358 146.463H279.568C279.685 146.463 279.779 146.552 279.779 146.66L279.697 147.99C279.697 148.098 279.592 148.177 279.475 148.177H279.265C279.148 148.177 279.055 148.088 279.055 147.98Z" fill="#DD821F"/>
<path d="M276.581 147.774L276.663 146.424C276.663 146.316 276.768 146.237 276.885 146.237H277.095C277.212 146.237 277.305 146.326 277.305 146.434L277.223 147.784C277.223 147.892 277.118 147.971 277.001 147.971H276.791C276.674 147.971 276.581 147.882 276.581 147.774Z" fill="#DD821F"/>
<path d="M274.094 147.813L274.175 146.552C274.175 146.444 274.281 146.365 274.397 146.365H274.607C274.724 146.365 274.818 146.453 274.818 146.562L274.748 147.822C274.748 147.931 274.642 148.01 274.526 148.01H274.316C274.199 148.01 274.105 147.921 274.105 147.813H274.094Z" fill="#DD821F"/>
<path d="M271.596 148.275L271.666 147.054C271.666 146.945 271.771 146.867 271.888 146.867H272.098C272.215 146.867 272.308 146.955 272.308 147.064L272.238 148.285C272.238 148.393 272.133 148.472 272.016 148.472H271.806C271.689 148.472 271.596 148.384 271.596 148.275Z" fill="#DD821F"/>
<path d="M269.086 149.3L269.168 147.981C269.168 147.872 269.273 147.793 269.39 147.793H269.6C269.716 147.793 269.81 147.882 269.81 147.99L269.728 149.31C269.728 149.419 269.623 149.497 269.506 149.497H269.296C269.179 149.497 269.086 149.409 269.086 149.3Z" fill="#DD821F"/>
<path opacity="0.5" d="M143.938 222.808C144.802 224.896 138.953 228.531 130.874 230.914C122.795 233.298 115.533 233.534 114.669 231.446C113.805 229.358 119.654 225.724 127.733 223.34C135.812 220.956 143.074 220.72 143.938 222.808Z" fill="#242993"/>
<path d="M123.483 215.195L123.577 213.038L124.172 211.787L124.546 212.821L123.483 215.195Z" fill="#DD821F"/>
<path d="M150.244 215.608L150.35 213.5C150.35 213.5 148.236 215.283 148.236 215.323C148.236 215.362 150.256 215.608 150.256 215.608H150.244Z" fill="#FFD85A"/>
<path d="M136.677 221.863C129.286 221.715 123.425 218.543 123.577 213.038C123.729 207.532 129.847 203.198 137.237 203.345C144.627 203.493 150.488 208.073 150.337 213.579C150.185 219.085 144.067 222.011 136.677 221.863Z" fill="#FFD85A"/>
<path d="M136.573 225.429C129.183 225.281 123.322 220.701 123.474 215.195C123.625 209.689 129.743 205.355 137.134 205.503C144.524 205.65 150.385 210.231 150.233 215.736C150.081 221.242 143.964 225.576 136.573 225.429Z" fill="#FFD85A"/>
<path d="M127.524 208.279C125.095 210.033 123.554 212.465 123.484 215.194C123.333 220.7 129.193 225.28 136.584 225.428C140.238 225.496 143.577 224.472 146.052 222.758L127.536 208.289L127.524 208.279Z" fill="#DD821F"/>
<path d="M136.595 224.985C129.531 224.847 123.927 220.464 124.079 215.204C124.231 209.944 130.069 205.797 137.132 205.945C144.196 206.083 149.8 210.466 149.648 215.726C149.496 220.986 143.658 225.132 136.595 224.985Z" fill="#F9BF30"/>
<path d="M136.643 223.103C130.98 222.984 126.474 219.478 126.602 215.253C126.719 211.027 131.412 207.698 137.087 207.816C142.761 207.934 147.256 211.441 147.127 215.666C147.011 219.892 142.317 223.221 136.643 223.103Z" fill="#F2B42A"/>
<path d="M147.127 215.667C147.127 215.489 147.127 215.322 147.127 215.145C146.66 219.114 142.118 222.167 136.689 222.059C131.26 221.951 126.905 218.71 126.66 214.731C126.637 214.898 126.625 215.076 126.614 215.253C126.497 219.478 130.992 222.985 136.654 223.103C142.317 223.221 147.01 219.892 147.138 215.667H147.127Z" fill="#FFD85A"/>
<path d="M138.825 216.11L136.724 214.465C134.692 214.849 130.921 215.578 127.897 216.179C128.645 218.08 130.478 219.656 132.871 220.493L138.825 216.12V216.11Z" fill="#FFD85A"/>
<path d="M135.521 221.064C135.859 221.094 136.198 221.123 136.536 221.123C139.011 221.172 141.276 220.493 142.969 219.331L139.537 216.642L135.521 221.054V221.064Z" fill="#FFD85A"/>
<path d="M134.471 212.703L130.501 209.6C129.17 210.585 127.979 211.669 127.652 213.116L134.471 212.703Z" fill="#FFD85A"/>
<path d="M136.537 208.732C142.2 208.85 146.707 212.356 146.578 216.582C146.555 217.439 146.345 218.256 145.971 219.015C146.671 218.01 147.08 216.877 147.115 215.666C147.232 211.44 142.737 207.934 137.074 207.816C132.556 207.727 128.657 209.825 127.209 212.819C128.949 210.318 132.498 208.653 136.537 208.732Z" fill="#DD821F"/>
<path d="M123.577 213.037C123.554 213.854 123.46 214.445 123.694 215.213C123.986 214.406 124.628 211.993 124.628 211.993L125.644 210.072L126.496 209.481L127.932 208.594L128.049 205.827C125.375 207.59 123.659 210.151 123.577 213.037Z" fill="#DD821F"/>
<path d="M149.474 212.763L149.532 212.191C149.532 212.112 149.614 212.043 149.695 212.043H149.742C149.836 212.043 149.906 212.112 149.906 212.191L149.847 212.763C149.847 212.842 149.766 212.911 149.684 212.911H149.637C149.544 212.911 149.474 212.842 149.474 212.763Z" fill="#DD821F"/>
<path d="M148.306 210.586L148.376 209.561C148.376 209.472 148.469 209.394 148.563 209.394H148.679C148.784 209.394 148.866 209.472 148.866 209.571L148.796 210.596C148.796 210.685 148.703 210.764 148.609 210.764H148.492C148.387 210.764 148.306 210.685 148.306 210.586Z" fill="#DD821F"/>
<path d="M146.671 208.694L146.741 207.709C146.741 207.6 146.846 207.521 146.963 207.521H147.173C147.29 207.521 147.383 207.61 147.383 207.719L147.313 208.704C147.313 208.813 147.208 208.892 147.091 208.892H146.881C146.764 208.892 146.671 208.803 146.671 208.694Z" fill="#DD821F"/>
<path d="M144.231 207.157L144.301 205.955C144.301 205.847 144.407 205.768 144.523 205.768H144.733C144.85 205.768 144.944 205.857 144.944 205.965L144.874 207.167C144.874 207.275 144.769 207.354 144.652 207.354H144.442C144.325 207.354 144.231 207.265 144.231 207.157Z" fill="#DD821F"/>
<path d="M141.779 206.152L141.861 204.773C141.861 204.665 141.966 204.586 142.083 204.586H142.293C142.41 204.586 142.503 204.675 142.503 204.783L142.421 206.162C142.421 206.27 142.316 206.349 142.2 206.349H141.989C141.873 206.349 141.779 206.26 141.779 206.152Z" fill="#DD821F"/>
<path d="M139.316 205.542L139.398 204.212C139.398 204.104 139.503 204.025 139.62 204.025H139.83C139.947 204.025 140.04 204.114 140.04 204.222L139.959 205.552C139.959 205.66 139.853 205.739 139.737 205.739H139.527C139.41 205.739 139.316 205.65 139.316 205.542Z" fill="#DD821F"/>
<path d="M136.83 205.335L136.912 203.985C136.912 203.877 137.017 203.798 137.134 203.798H137.344C137.461 203.798 137.554 203.887 137.554 203.995L137.472 205.345C137.472 205.453 137.367 205.532 137.25 205.532H137.04C136.923 205.532 136.83 205.443 136.83 205.335Z" fill="#DD821F"/>
<path d="M134.354 205.374L134.436 204.113C134.436 204.005 134.541 203.926 134.658 203.926H134.868C134.985 203.926 135.078 204.015 135.078 204.123L134.997 205.384C134.997 205.492 134.892 205.571 134.775 205.571H134.565C134.448 205.571 134.354 205.483 134.354 205.374Z" fill="#DD821F"/>
<path d="M131.855 205.838L131.926 204.617C131.926 204.508 132.031 204.43 132.147 204.43H132.358C132.474 204.43 132.568 204.518 132.568 204.627L132.498 205.848C132.498 205.956 132.393 206.035 132.276 206.035H132.066C131.949 206.035 131.855 205.947 131.855 205.838Z" fill="#DD821F"/>
<path d="M129.347 206.861L129.428 205.541C129.428 205.433 129.533 205.354 129.65 205.354H129.86C129.977 205.354 130.071 205.443 130.071 205.551L129.989 206.871C129.989 206.979 129.884 207.058 129.767 207.058H129.557C129.44 207.058 129.347 206.969 129.347 206.861Z" fill="#DD821F"/>
<path opacity="0.5" d="M172.182 174.908C173.046 176.996 167.197 180.631 159.118 183.015C151.039 185.398 143.777 185.644 142.913 183.546C142.049 181.458 147.898 177.824 155.977 175.44C164.056 173.057 171.318 172.81 172.182 174.908Z" fill="#242993"/>
<path d="M151.716 167.295L151.821 165.148L152.416 163.887L152.79 164.931L151.716 167.295Z" fill="#DD821F"/>
<path d="M178.487 167.708L178.592 165.601C178.592 165.601 176.479 167.383 176.479 167.423C176.479 167.462 178.498 167.708 178.498 167.708H178.487Z" fill="#FFD85A"/>
<path d="M164.92 173.972C157.529 173.824 151.668 170.653 151.82 165.147C151.972 159.641 158.09 155.307 165.48 155.455C172.871 155.603 178.732 160.183 178.58 165.689C178.428 171.195 172.31 174.12 164.92 173.972Z" fill="#FFD85A"/>
<path d="M164.813 177.539C157.423 177.392 151.562 172.812 151.714 167.306C151.866 161.8 157.983 157.466 165.374 157.614C172.764 157.761 178.625 162.341 178.473 167.847C178.322 173.353 172.204 177.687 164.813 177.539Z" fill="#FFD85A"/>
<path d="M155.753 160.391C153.325 162.144 151.784 164.577 151.714 167.305C151.562 172.811 157.423 177.391 164.813 177.539C168.468 177.618 171.807 176.583 174.282 174.87L155.765 160.4L155.753 160.391Z" fill="#DD821F"/>
<path d="M164.825 177.095C157.762 176.958 152.158 172.574 152.31 167.315C152.461 162.055 158.299 157.908 165.362 158.056C172.426 158.204 178.03 162.577 177.878 167.837C177.727 173.096 171.889 177.243 164.825 177.095Z" fill="#F9BF30"/>
<path d="M164.884 175.215C159.222 175.096 154.715 171.59 154.843 167.364C154.96 163.139 159.654 159.81 165.328 159.928C170.99 160.046 175.497 163.553 175.368 167.778C175.252 172.004 170.558 175.333 164.884 175.215Z" fill="#F2B42A"/>
<path d="M175.356 167.778C175.356 167.601 175.356 167.433 175.356 167.256C174.889 171.225 170.348 174.279 164.919 174.17C159.49 174.062 155.135 170.822 154.89 166.842C154.866 167.01 154.855 167.187 154.843 167.364C154.726 171.59 159.221 175.096 164.884 175.214C170.546 175.333 175.24 172.004 175.368 167.778H175.356Z" fill="#FFD85A"/>
<path d="M167.068 168.212L164.966 166.567C162.935 166.951 159.164 167.68 156.14 168.281C156.887 170.182 158.72 171.758 161.113 172.595L167.068 168.222V168.212Z" fill="#FFD85A"/>
<path d="M163.752 173.176C164.091 173.205 164.429 173.235 164.768 173.235C167.243 173.284 169.508 172.595 171.201 171.442L167.768 168.753L163.752 173.166V173.176Z" fill="#FFD85A"/>
<path d="M162.7 164.803L158.731 161.7C157.4 162.685 156.209 163.769 155.882 165.217L162.7 164.803Z" fill="#FFD85A"/>
<path d="M164.78 160.844C170.442 160.962 174.949 164.468 174.82 168.694C174.797 169.551 174.587 170.368 174.213 171.127C174.914 170.122 175.322 168.989 175.357 167.778C175.474 163.552 170.979 160.046 165.317 159.928C160.798 159.839 156.899 161.937 155.451 164.931C157.191 162.429 160.74 160.765 164.78 160.844Z" fill="#DD821F"/>
<path d="M151.819 165.148C151.796 165.965 151.703 166.556 151.936 167.325C152.228 166.517 152.87 164.104 152.87 164.104L153.886 162.183L154.738 161.592L156.174 160.706L156.291 157.938C153.617 159.701 151.901 162.262 151.819 165.148Z" fill="#DD821F"/>
<path d="M177.716 164.864L177.774 164.292C177.774 164.213 177.856 164.144 177.938 164.144H177.984C178.078 164.144 178.148 164.213 178.148 164.292L178.089 164.864C178.089 164.943 178.008 165.012 177.926 165.012H177.879C177.786 165.012 177.716 164.943 177.716 164.864Z" fill="#DD821F"/>
<path d="M176.537 162.696L176.607 161.671C176.607 161.582 176.701 161.503 176.794 161.503H176.911C177.016 161.503 177.097 161.582 177.097 161.681L177.027 162.706C177.027 162.795 176.934 162.873 176.841 162.873H176.724C176.619 162.873 176.537 162.795 176.537 162.696Z" fill="#DD821F"/>
<path d="M174.914 160.795L174.984 159.81C174.984 159.701 175.089 159.623 175.206 159.623H175.416C175.533 159.623 175.626 159.711 175.626 159.82L175.556 160.805C175.556 160.914 175.451 160.993 175.334 160.993H175.124C175.007 160.993 174.914 160.904 174.914 160.795Z" fill="#DD821F"/>
<path d="M172.474 159.267L172.544 158.066C172.544 157.957 172.649 157.878 172.766 157.878H172.976C173.092 157.878 173.186 157.967 173.186 158.075L173.116 159.277C173.116 159.385 173.011 159.464 172.894 159.464H172.684C172.567 159.464 172.474 159.376 172.474 159.267Z" fill="#DD821F"/>
<path d="M170.011 158.263L170.092 156.884C170.092 156.776 170.198 156.697 170.314 156.697H170.524C170.641 156.697 170.735 156.786 170.735 156.894L170.653 158.273C170.653 158.382 170.548 158.46 170.431 158.46H170.221C170.104 158.46 170.011 158.372 170.011 158.263Z" fill="#DD821F"/>
<path d="M167.546 157.653L167.628 156.323C167.628 156.215 167.733 156.136 167.849 156.136H168.06C168.176 156.136 168.27 156.225 168.27 156.333L168.188 157.663C168.188 157.771 168.083 157.85 167.966 157.85H167.756C167.639 157.85 167.546 157.761 167.546 157.653Z" fill="#DD821F"/>
<path d="M165.07 157.436L165.152 156.087C165.152 155.978 165.257 155.899 165.374 155.899H165.584C165.701 155.899 165.794 155.988 165.794 156.096L165.712 157.446C165.712 157.554 165.607 157.633 165.491 157.633H165.28C165.164 157.633 165.07 157.544 165.07 157.436Z" fill="#DD821F"/>
<path d="M162.585 157.484L162.655 156.223C162.655 156.115 162.76 156.036 162.877 156.036H163.087C163.204 156.036 163.297 156.125 163.297 156.233L163.215 157.494C163.215 157.602 163.11 157.681 162.994 157.681H162.783C162.667 157.681 162.573 157.592 162.573 157.484H162.585Z" fill="#DD821F"/>
<path d="M160.086 157.937L160.156 156.716C160.156 156.608 160.261 156.529 160.378 156.529H160.588C160.705 156.529 160.798 156.617 160.798 156.726L160.728 157.947C160.728 158.056 160.623 158.134 160.506 158.134H160.296C160.179 158.134 160.086 158.046 160.086 157.937Z" fill="#DD821F"/>
<path d="M157.576 158.972L157.658 157.652C157.658 157.544 157.763 157.465 157.88 157.465H158.09C158.207 157.465 158.3 157.553 158.3 157.662L158.218 158.982C158.218 159.09 158.113 159.169 157.996 159.169H157.786C157.67 159.169 157.576 159.08 157.576 158.972Z" fill="#DD821F"/>
<path opacity="0.5" d="M393.952 182.553L345.127 158.766C344.064 158.254 344.204 157.348 345.418 156.757L359.767 149.773L412.434 175.422L398.085 182.405C396.859 182.996 395.015 183.065 393.952 182.553Z" fill="#242993"/>
<path d="M463.361 150.186V141.981H447.517L412.363 124.863C411.499 124.439 409.993 124.498 409.001 124.981L373.999 142.031H358.226V150.265C358.237 150.521 358.424 150.767 358.798 150.944L409.234 175.509C410.098 175.933 411.605 175.874 412.597 175.391L462.543 151.063C463.057 150.807 463.337 150.491 463.361 150.186Z" fill="url(#paint16_linear_726_1194)"/>
<path d="M409.223 167.296L358.786 142.731C357.922 142.307 358.027 141.578 359.031 141.096L408.978 116.767C409.97 116.284 411.476 116.225 412.34 116.649L462.777 141.214C463.641 141.637 463.536 142.366 462.532 142.849L412.585 167.177C411.593 167.66 410.087 167.719 409.223 167.296Z" fill="url(#paint17_linear_726_1194)"/>
<path d="M409.223 167.296L358.786 142.731C357.922 142.307 358.027 141.578 359.031 141.096L408.978 116.767C409.97 116.284 411.476 116.225 412.34 116.649L462.777 141.214C463.641 141.637 463.536 142.366 462.532 142.849L412.585 167.177C411.593 167.66 410.087 167.719 409.223 167.296Z" fill="url(#paint18_linear_726_1194)"/>
<path d="M409.411 164.419L364.707 142.642C363.948 142.267 364.041 141.617 364.917 141.184L409.189 119.623C410.076 119.19 411.407 119.15 412.178 119.515L456.882 141.292C457.641 141.667 457.547 142.317 456.672 142.75L412.4 164.311C411.512 164.744 410.181 164.784 409.411 164.419Z" fill="#242993"/>
<path d="M409.515 162.597L368.442 142.592C367.741 142.248 367.823 141.657 368.64 141.253L409.316 121.445C410.122 121.051 411.36 121.012 412.06 121.347L453.133 141.351C453.834 141.696 453.752 142.287 452.935 142.691L412.259 162.498C411.453 162.892 410.215 162.932 409.515 162.597Z" fill="#4553C7"/>
<path d="M409.841 140.671L405.043 138.337L407.658 137.056L412.468 139.391L409.841 140.671Z" fill="#42FFFF"/>
<path d="M418.773 140.337L413.963 142.681L411.348 141.401L416.146 139.066L418.773 140.337Z" fill="#42FFFF"/>
<path d="M408.756 141.204L406.129 142.484L403.514 141.204L406.129 139.923L408.756 141.204Z" fill="#42FFFF"/>
<path d="M417.817 145.616L415.19 146.897L407.636 143.213L410.251 141.933L417.817 145.616Z" fill="#42FFFF"/>
<path opacity="0.4" d="M463.36 130.941L441.901 131.049L412.34 116.649C411.476 116.225 409.97 116.284 408.977 116.767L379.007 131.364L358.202 131.472V142.13H358.214C358.261 142.356 358.447 142.573 358.786 142.731L409.223 167.296C410.087 167.719 411.593 167.66 412.585 167.177L462.532 142.849C462.987 142.632 463.244 142.356 463.325 142.08L463.36 142.061V130.931V130.941Z" fill="#42FFFF"/>
<path d="M463.361 131.993V123.788H447.517L412.363 106.67C411.499 106.246 409.993 106.305 409.001 106.788L373.999 123.838H358.226V132.072C358.237 132.328 358.424 132.574 358.798 132.752L409.234 157.317C410.098 157.74 411.605 157.681 412.597 157.198L462.543 132.87C463.057 132.614 463.337 132.298 463.361 131.993Z" fill="url(#paint19_linear_726_1194)"/>
<path d="M409.223 149.113L358.786 124.548C357.922 124.124 358.027 123.396 359.031 122.913L408.978 98.5843C409.97 98.1017 411.476 98.0425 412.34 98.4661L462.777 123.031C463.641 123.455 463.536 124.184 462.532 124.666L412.585 148.995C411.593 149.477 410.087 149.537 409.223 149.113Z" fill="url(#paint20_linear_726_1194)"/>
<path d="M409.411 146.238L364.707 124.46C363.948 124.086 364.041 123.436 364.917 123.002L409.189 101.441C410.076 101.008 411.407 100.969 412.178 101.333L456.882 123.111C457.641 123.485 457.547 124.135 456.672 124.568L412.4 146.129C411.512 146.563 410.181 146.602 409.411 146.238Z" fill="#242993"/>
<path d="M409.515 144.415L368.442 124.41C367.741 124.065 367.823 123.474 368.64 123.071L409.316 103.263C410.122 102.869 411.36 102.83 412.06 103.165L453.133 123.169C453.834 123.514 453.752 124.105 452.935 124.509L412.259 144.316C411.453 144.71 410.215 144.75 409.515 144.415Z" fill="#4553C7"/>
<path d="M409.841 122.49L405.043 120.146L407.658 118.875L412.468 121.209L409.841 122.49Z" fill="#42FFFF"/>
<path d="M418.773 122.154L413.963 124.498L411.348 123.218L416.146 120.874L418.773 122.154Z" fill="#42FFFF"/>
<path d="M408.756 123.021L406.129 124.291L403.514 123.021L406.129 121.74L408.756 123.021Z" fill="#42FFFF"/>
<path d="M417.817 127.434L415.19 128.704L407.636 125.03L410.251 123.75L417.817 127.434Z" fill="#42FFFF"/>
<path opacity="0.5" d="M243.83 337.331L195.005 313.545C193.942 313.032 194.082 312.126 195.296 311.535L221.834 298.475L274.501 324.123L247.963 337.184C246.737 337.775 244.893 337.844 243.83 337.331Z" fill="#242993"/>
<path d="M325.428 298.888V290.683H309.585L274.431 273.564C273.567 273.141 272.061 273.2 271.068 273.682L236.066 290.732H220.293V298.966C220.305 299.223 220.491 299.469 220.865 299.646L271.302 324.211C272.166 324.635 273.672 324.576 274.664 324.093L324.611 299.764C325.124 299.508 325.405 299.193 325.428 298.888Z" fill="url(#paint21_linear_726_1194)"/>
<path d="M271.303 316.006L220.866 291.441C220.002 291.017 220.107 290.289 221.111 289.806L271.058 265.477C272.05 264.995 273.556 264.936 274.42 265.359L324.857 289.924C325.721 290.348 325.616 291.077 324.612 291.559L274.666 315.888C273.673 316.37 272.167 316.43 271.303 316.006Z" fill="url(#paint22_linear_726_1194)"/>
<path d="M271.303 316.006L220.866 291.441C220.002 291.017 220.107 290.289 221.111 289.806L271.058 265.477C272.05 264.995 273.556 264.936 274.42 265.359L324.857 289.924C325.721 290.348 325.616 291.077 324.612 291.559L274.666 315.888C273.673 316.37 272.167 316.43 271.303 316.006Z" fill="url(#paint23_linear_726_1194)"/>
<path d="M271.478 313.131L226.774 291.353C226.015 290.979 226.108 290.329 226.984 289.895L271.256 268.334C272.144 267.901 273.475 267.862 274.245 268.226L318.949 290.004C319.708 290.378 319.615 291.028 318.739 291.461L274.467 313.022C273.58 313.456 272.249 313.495 271.478 313.131Z" fill="#242993"/>
<path d="M271.595 311.308L230.522 291.304C229.821 290.959 229.903 290.368 230.72 289.964L271.396 270.157C272.202 269.763 273.44 269.723 274.14 270.058L315.213 290.063C315.914 290.407 315.832 290.998 315.015 291.402L274.339 311.21C273.533 311.604 272.295 311.643 271.595 311.308Z" fill="#4553C7"/>
<path d="M271.923 289.383L267.124 287.039L269.739 285.758L274.549 288.102L271.923 289.383Z" fill="#42FFFF"/>
<path d="M280.841 289.048L276.043 291.392L273.416 290.112L278.226 287.768L280.841 289.048Z" fill="#42FFFF"/>
<path d="M270.837 289.915L268.21 291.186L265.583 289.915L268.21 288.635L270.837 289.915Z" fill="#42FFFF"/>
<path d="M279.896 294.328L277.269 295.598L269.703 291.915L272.33 290.644L279.896 294.328Z" fill="#42FFFF"/>
<path opacity="0.4" d="M325.441 279.651L303.982 279.759L274.42 265.359C273.556 264.936 272.05 264.995 271.058 265.477L241.087 280.075L220.282 280.183V290.84H220.294C220.341 291.067 220.527 291.283 220.866 291.441L271.303 316.006C272.167 316.43 273.673 316.37 274.665 315.888L324.612 291.559C325.067 291.343 325.324 291.067 325.406 290.791L325.441 290.771V279.641V279.651Z" fill="#42FFFF"/>
<path d="M325.428 280.706V272.501H309.585L274.431 255.382C273.567 254.959 272.061 255.018 271.068 255.5L236.066 272.55H220.293V280.784C220.305 281.04 220.491 281.287 220.865 281.464L271.302 306.029C272.166 306.453 273.672 306.393 274.664 305.911L324.611 281.582C325.124 281.326 325.405 281.011 325.428 280.706Z" fill="url(#paint24_linear_726_1194)"/>
<path d="M271.303 297.824L220.866 273.259C220.002 272.835 220.107 272.106 221.111 271.624L271.058 247.295C272.05 246.813 273.556 246.753 274.42 247.177L324.857 271.742C325.721 272.166 325.616 272.894 324.612 273.377L274.666 297.706C273.673 298.188 272.167 298.247 271.303 297.824Z" fill="url(#paint25_linear_726_1194)"/>
<path d="M271.478 294.949L226.774 273.171C226.015 272.797 226.108 272.147 226.984 271.713L271.256 250.152C272.144 249.719 273.475 249.68 274.245 250.044L318.949 271.822C319.708 272.196 319.615 272.846 318.739 273.279L274.467 294.84C273.58 295.274 272.249 295.313 271.478 294.949Z" fill="#242993"/>
<path d="M271.595 293.116L230.522 273.111C229.821 272.766 229.903 272.175 230.72 271.771L271.396 251.964C272.202 251.57 273.44 251.53 274.14 251.865L315.213 271.87C315.914 272.215 315.832 272.806 315.015 273.209L274.339 293.017C273.533 293.411 272.295 293.45 271.595 293.116Z" fill="#4553C7"/>
<path d="M271.923 271.191L267.124 268.857L269.739 267.577L274.549 269.921L271.923 271.191Z" fill="#42FFFF"/>
<path d="M280.841 270.866L276.043 273.201L273.416 271.93L278.226 269.586L280.841 270.866Z" fill="#42FFFF"/>
<path d="M270.837 271.723L268.21 273.004L265.583 271.723L268.21 270.453L270.837 271.723Z" fill="#42FFFF"/>
<path d="M279.896 276.135L277.269 277.415L269.703 273.732L272.33 272.451L279.896 276.135Z" fill="#42FFFF"/>
<defs>
<linearGradient id="paint0_linear_726_1194" x1="325.814" y1="42.2916" x2="255.088" y2="109.51" gradientUnits="userSpaceOnUse">
<stop stop-color="#BCD5FF"/>
<stop offset="0.15" stop-color="#A2BDFF"/>
<stop offset="0.39" stop-color="#819FFF"/>
<stop offset="0.61" stop-color="#6A89FF"/>
<stop offset="0.82" stop-color="#5B7CFF"/>
<stop offset="1" stop-color="#5778FF"/>
</linearGradient>
<linearGradient id="paint1_linear_726_1194" x1="504.561" y1="138.702" x2="411.07" y2="155.719" gradientUnits="userSpaceOnUse">
<stop stop-color="#C0D6FF"/>
<stop offset="0.3" stop-color="#C4DAFF"/>
<stop offset="0.65" stop-color="#D3E9FF"/>
<stop offset="1" stop-color="#E9FFFF"/>
</linearGradient>
<linearGradient id="paint2_linear_726_1194" x1="96.4864" y1="269.63" x2="25.7617" y2="336.859" gradientUnits="userSpaceOnUse">
<stop stop-color="#BCD5FF"/>
<stop offset="0.15" stop-color="#A2BDFF"/>
<stop offset="0.39" stop-color="#819FFF"/>
<stop offset="0.61" stop-color="#6A89FF"/>
<stop offset="0.82" stop-color="#5B7CFF"/>
<stop offset="1" stop-color="#5778FF"/>
</linearGradient>
<linearGradient id="paint3_linear_726_1194" x1="537.943" y1="493.984" x2="444.457" y2="510.989" gradientUnits="userSpaceOnUse">
<stop stop-color="#C0D6FF"/>
<stop offset="0.3" stop-color="#C4DAFF"/>
<stop offset="0.65" stop-color="#D3E9FF"/>
<stop offset="1" stop-color="#E9FFFF"/>
</linearGradient>
<linearGradient id="paint4_linear_726_1194" x1="3.42853" y1="100.811" x2="205.047" y2="100.811" gradientUnits="userSpaceOnUse">
<stop stop-color="#C0D6FF"/>
<stop offset="0.3" stop-color="#C4DAFF"/>
<stop offset="0.65" stop-color="#D3E9FF"/>
<stop offset="1" stop-color="#E9FFFF"/>
</linearGradient>
<linearGradient id="paint5_linear_726_1194" x1="3.42759" y1="144.425" x2="38.0562" y2="144.425" gradientUnits="userSpaceOnUse">
<stop stop-color="#5778FF"/>
<stop offset="0.18" stop-color="#5B7CFF"/>
<stop offset="0.39" stop-color="#6A89FF"/>
<stop offset="0.61" stop-color="#819FFF"/>
<stop offset="0.85" stop-color="#A2BDFF"/>
<stop offset="1" stop-color="#BCD5FF"/>
</linearGradient>
<linearGradient id="paint6_linear_726_1194" x1="30.4462" y1="193.465" x2="315.204" y2="193.465" gradientUnits="userSpaceOnUse">
<stop stop-color="#5778FF"/>
<stop offset="0.18" stop-color="#5B7CFF"/>
<stop offset="0.39" stop-color="#6A89FF"/>
<stop offset="0.61" stop-color="#819FFF"/>
<stop offset="0.85" stop-color="#A2BDFF"/>
<stop offset="1" stop-color="#BCD5FF"/>
</linearGradient>
<linearGradient id="paint7_linear_726_1194" x1="126.123" y1="185.458" x2="411.032" y2="185.458" gradientUnits="userSpaceOnUse">
<stop stop-color="#C0D6FF"/>
<stop offset="0.3" stop-color="#C4DAFF"/>
<stop offset="0.65" stop-color="#D3E9FF"/>
<stop offset="1" stop-color="#E9FFFF"/>
</linearGradient>
<linearGradient id="paint8_linear_726_1194" x1="174.365" y1="199.099" x2="247.3" y2="199.099" gradientUnits="userSpaceOnUse">
<stop stop-color="#C0D6FF"/>
<stop offset="0.3" stop-color="#C4DAFF"/>
<stop offset="0.65" stop-color="#D3E9FF"/>
<stop offset="1" stop-color="#E9FFFF"/>
</linearGradient>
<linearGradient id="paint9_linear_726_1194" x1="17.2717" y1="132.184" x2="302.169" y2="132.184" gradientUnits="userSpaceOnUse">
<stop stop-color="#C0D6FF"/>
<stop offset="0.3" stop-color="#C4DAFF"/>
<stop offset="0.65" stop-color="#D3E9FF"/>
<stop offset="1" stop-color="#E9FFFF"/>
</linearGradient>
<linearGradient id="paint10_linear_726_1194" x1="-1.4907" y1="114.533" x2="71.4441" y2="114.533" gradientUnits="userSpaceOnUse">
<stop stop-color="#C0D6FF"/>
<stop offset="0.3" stop-color="#C4DAFF"/>
<stop offset="0.65" stop-color="#D3E9FF"/>
<stop offset="1" stop-color="#E9FFFF"/>
</linearGradient>
<radialGradient id="paint11_radial_726_1194" cx="0" cy="0" r="1" gradientUnits="userSpaceOnUse" gradientTransform="translate(113.432 163.119) scale(81.6795 68.9081)">
<stop stop-color="#2B3AA5"/>
<stop offset="1" stop-color="#182484"/>
</radialGradient>
<radialGradient id="paint12_radial_726_1194" cx="0" cy="0" r="1" gradientUnits="userSpaceOnUse" gradientTransform="translate(95.5696 132.122) scale(62.5206 52.7449)">
<stop stop-color="#2B3AA5"/>
<stop offset="1" stop-color="#182484"/>
</radialGradient>
<linearGradient id="paint13_linear_726_1194" x1="73.0588" y1="147.349" x2="115.112" y2="57.5873" gradientUnits="userSpaceOnUse">
<stop stop-color="#5778FF"/>
<stop offset="0.04" stop-color="#5B7CFF"/>
<stop offset="0.09" stop-color="#6A89FF"/>
<stop offset="0.14" stop-color="#819FFF"/>
<stop offset="0.19" stop-color="#A2BDFF"/>
<stop offset="0.22" stop-color="#BCD5FF"/>
</linearGradient>
<linearGradient id="paint14_linear_726_1194" x1="140.717" y1="147.645" x2="112.966" y2="83.3428" gradientUnits="userSpaceOnUse">
<stop stop-color="#C0D6FF"/>
<stop offset="0.3" stop-color="#C4DAFF"/>
<stop offset="0.65" stop-color="#D3E9FF"/>
<stop offset="1" stop-color="#E9FFFF"/>
</linearGradient>
<linearGradient id="paint15_linear_726_1194" x1="239.792" y1="256.315" x2="150.664" y2="69.1278" gradientUnits="userSpaceOnUse">
<stop stop-color="#C0D6FF"/>
<stop offset="0.08" stop-color="#C2D8FF"/>
<stop offset="0.13" stop-color="#CCE2FF"/>
<stop offset="0.18" stop-color="#DBF1FF"/>
<stop offset="0.21" stop-color="#E9FFFF"/>
<stop offset="0.26" stop-color="#D8EEFF"/>
<stop offset="0.31" stop-color="#CAE0FF"/>
<stop offset="0.39" stop-color="#C2D8FF"/>
<stop offset="0.51" stop-color="#C0D6FF"/>
<stop offset="0.62" stop-color="#D0E6FF"/>
<stop offset="0.75" stop-color="#E9FFFF"/>
<stop offset="1" stop-color="#C0D6FF"/>
</linearGradient>
<linearGradient id="paint16_linear_726_1194" x1="440.898" y1="125.916" x2="370.173" y2="193.145" gradientUnits="userSpaceOnUse">
<stop stop-color="#BCD5FF"/>
<stop offset="0.15" stop-color="#A2BDFF"/>
<stop offset="0.39" stop-color="#819FFF"/>
<stop offset="0.61" stop-color="#6A89FF"/>
<stop offset="0.82" stop-color="#5B7CFF"/>
<stop offset="1" stop-color="#5778FF"/>
</linearGradient>
<linearGradient id="paint17_linear_726_1194" x1="695.669" y1="259.359" x2="602.183" y2="276.364" gradientUnits="userSpaceOnUse">
<stop stop-color="#C0D6FF"/>
<stop offset="0.3" stop-color="#C4DAFF"/>
<stop offset="0.65" stop-color="#D3E9FF"/>
<stop offset="1" stop-color="#E9FFFF"/>
</linearGradient>
<linearGradient id="paint18_linear_726_1194" x1="695.669" y1="259.359" x2="602.183" y2="276.364" gradientUnits="userSpaceOnUse">
<stop stop-color="#C0D6FF"/>
<stop offset="0.3" stop-color="#C4DAFF"/>
<stop offset="0.65" stop-color="#D3E9FF"/>
<stop offset="1" stop-color="#E9FFFF"/>
</linearGradient>
<linearGradient id="paint19_linear_726_1194" x1="440.898" y1="107.733" x2="370.171" y2="174.952" gradientUnits="userSpaceOnUse">
<stop stop-color="#BCD5FF"/>
<stop offset="0.15" stop-color="#A2BDFF"/>
<stop offset="0.39" stop-color="#819FFF"/>
<stop offset="0.61" stop-color="#6A89FF"/>
<stop offset="0.82" stop-color="#5B7CFF"/>
<stop offset="1" stop-color="#5778FF"/>
</linearGradient>
<linearGradient id="paint20_linear_726_1194" x1="686.338" y1="236.628" x2="592.841" y2="253.626" gradientUnits="userSpaceOnUse">
<stop stop-color="#C0D6FF"/>
<stop offset="0.3" stop-color="#C4DAFF"/>
<stop offset="0.65" stop-color="#D3E9FF"/>
<stop offset="1" stop-color="#E9FFFF"/>
</linearGradient>
<linearGradient id="paint21_linear_726_1194" x1="302.965" y1="274.628" x2="232.25" y2="341.845" gradientUnits="userSpaceOnUse">
<stop stop-color="#BCD5FF"/>
<stop offset="0.15" stop-color="#A2BDFF"/>
<stop offset="0.39" stop-color="#819FFF"/>
<stop offset="0.61" stop-color="#6A89FF"/>
<stop offset="0.82" stop-color="#5B7CFF"/>
<stop offset="1" stop-color="#5778FF"/>
</linearGradient>
<linearGradient id="paint22_linear_726_1194" x1="744.139" y1="498.84" x2="650.653" y2="515.845" gradientUnits="userSpaceOnUse">
<stop stop-color="#C0D6FF"/>
<stop offset="0.3" stop-color="#C4DAFF"/>
<stop offset="0.65" stop-color="#D3E9FF"/>
<stop offset="1" stop-color="#E9FFFF"/>
</linearGradient>
<linearGradient id="paint23_linear_726_1194" x1="744.139" y1="498.84" x2="650.653" y2="515.845" gradientUnits="userSpaceOnUse">
<stop stop-color="#C0D6FF"/>
<stop offset="0.3" stop-color="#C4DAFF"/>
<stop offset="0.65" stop-color="#D3E9FF"/>
<stop offset="1" stop-color="#E9FFFF"/>
</linearGradient>
<linearGradient id="paint24_linear_726_1194" x1="302.965" y1="256.436" x2="232.252" y2="323.663" gradientUnits="userSpaceOnUse">
<stop stop-color="#BCD5FF"/>
<stop offset="0.15" stop-color="#A2BDFF"/>
<stop offset="0.39" stop-color="#819FFF"/>
<stop offset="0.61" stop-color="#6A89FF"/>
<stop offset="0.82" stop-color="#5B7CFF"/>
<stop offset="1" stop-color="#5778FF"/>
</linearGradient>
<linearGradient id="paint25_linear_726_1194" x1="734.808" y1="476.109" x2="641.322" y2="493.114" gradientUnits="userSpaceOnUse">
<stop stop-color="#C0D6FF"/>
<stop offset="0.3" stop-color="#C4DAFF"/>
<stop offset="0.65" stop-color="#D3E9FF"/>
<stop offset="1" stop-color="#E9FFFF"/>
</linearGradient>
</defs>
</svg>
