<svg width="30" height="32" viewBox="0 0 30 32" fill="none" xmlns="http://www.w3.org/2000/svg">
<g id="Python-logo-notext 1">
<path id="path1948" d="M13.0499 0.000218439C11.9607 0.0052793 10.9206 0.0981701 10.0053 0.260117C7.30925 0.736429 6.81974 1.73339 6.81974 3.57196V6.00015H13.191V6.80955H6.81974H4.42867C2.57702 6.80955 0.955659 7.9225 0.448518 10.0397C-0.136462 12.4665 -0.162409 13.9809 0.448518 16.5149C0.901407 18.4011 1.98297 19.7451 3.83462 19.7451H6.02519V16.8342C6.02519 14.7313 7.84469 12.8763 10.0053 12.8763H16.3691C18.1406 12.8763 19.5548 11.4178 19.5548 9.63873V3.57196C19.5548 1.84533 18.0981 0.548285 16.3691 0.260117C15.2747 0.0779265 14.139 -0.00484249 13.0499 0.000218439ZM9.60436 1.95317C10.2625 1.95317 10.7999 2.49937 10.7999 3.17098C10.7999 3.8402 10.2625 4.38136 9.60436 4.38136C8.9439 4.38136 8.40883 3.8402 8.40883 3.17098C8.40883 2.49938 8.9439 1.95317 9.60436 1.95317Z" fill="#B9B8C3"/>
<path id="path1950" d="M20.3493 6.80957V9.63875C20.3493 11.8322 18.4897 13.6783 16.3691 13.6783H10.0053C8.26219 13.6783 6.81973 15.1702 6.81973 16.9159V22.9827C6.81973 24.7093 8.32116 25.7249 10.0053 26.2203C12.0221 26.8133 13.9561 26.9204 16.3691 26.2203C17.9731 25.7558 19.5547 24.8212 19.5547 22.9827V20.5545H13.191V19.7451H19.5547H22.7404C24.592 19.7451 25.282 18.4535 25.926 16.5149C26.5911 14.5192 26.5628 12.5999 25.926 10.0397C25.4684 8.1964 24.5944 6.80957 22.7404 6.80957H20.3493ZM16.7701 22.1733C17.4306 22.1733 17.9657 22.7144 17.9657 23.3837C17.9657 24.0553 17.4306 24.6015 16.7701 24.6015C16.112 24.6015 15.5746 24.0553 15.5746 23.3837C15.5746 22.7144 16.112 22.1733 16.7701 22.1733Z" fill="#BAB9C2"/>
<path id="path1894" opacity="0.44382" d="M13.2632 32.0001C17.9786 32.0001 21.8012 31.2589 21.8012 30.3445C21.8012 29.4302 17.9786 28.689 13.2632 28.689C8.54786 28.689 4.72528 29.4302 4.72528 30.3445C4.72528 31.2589 8.54786 32.0001 13.2632 32.0001Z" fill="url(#paint0_radial_1_1496)"/>
</g>
<defs>
<radialGradient id="paint0_radial_1_1496" cx="0" cy="0" r="1" gradientUnits="userSpaceOnUse" gradientTransform="translate(13.2632 30.3445) rotate(-90) scale(1.65558 7.27698)">
<stop stop-color="#B8B8B8" stop-opacity="0.498039"/>
<stop offset="1" stop-color="#7F7F7F" stop-opacity="0"/>
</radialGradient>
</defs>
</svg>
