<svg width="29" height="23" viewBox="0 0 29 23" fill="none" xmlns="http://www.w3.org/2000/svg">
<rect x="0.829102" y="0.0700684" width="27.7955" height="22.0729" rx="4.2096" fill="white"/>
<path d="M19.7002 7.58871C19.7002 7.58871 18.2415 6.44682 16.5194 6.31641L16.3642 6.62717C17.9209 7.00854 18.6353 7.55373 19.3821 8.22487C18.0949 7.56772 16.8248 6.95256 14.611 6.95256C12.3972 6.95256 11.1271 7.56772 9.83982 8.22487C10.5867 7.55373 11.4366 6.94747 12.8577 6.62717L12.7025 6.31641C10.8958 6.48658 9.52174 7.58871 9.52174 7.58871C9.52174 7.58871 7.89287 9.95075 7.61328 14.5864C9.25456 16.4799 11.7483 16.4949 11.7483 16.4949L12.2699 15.8002C11.3844 15.4923 10.3856 14.943 9.52174 13.9502C10.5517 14.7295 12.1061 15.5406 14.611 15.5406C17.1158 15.5406 18.6703 14.7295 19.7002 13.9502C18.8366 14.943 17.8379 15.4923 16.952 15.8002L17.4737 16.4949C17.4737 16.4949 19.9674 16.4799 21.6087 14.5864C21.3291 9.95075 19.7002 7.58871 19.7002 7.58871ZM12.5435 13.3141C11.9283 13.3141 11.4302 12.7447 11.4302 12.0418C11.4302 11.3388 11.9283 10.7695 12.5435 10.7695C13.1586 10.7695 13.6567 11.3388 13.6567 12.0418C13.6567 12.7447 13.1586 13.3141 12.5435 13.3141ZM16.6785 13.3141C16.0633 13.3141 15.5652 12.7447 15.5652 12.0418C15.5652 11.3388 16.0633 10.7695 16.6785 10.7695C17.2936 10.7695 17.7917 11.3388 17.7917 12.0418C17.7917 12.7447 17.2936 13.3141 16.6785 13.3141Z" fill="#001831"/>
</svg>
