<svg width="29" height="23" viewBox="0 0 29 23" fill="none" xmlns="http://www.w3.org/2000/svg">
<rect x="0.200195" y="0.0700684" width="28.613" height="22.0729" rx="4.2096" fill="white"/>
<path fill-rule="evenodd" clip-rule="evenodd" d="M18.2606 15.6176L18.261 15.6166L18.2711 15.5914L20.0076 6.83632V6.80788C20.0076 6.58974 19.927 6.39931 19.7516 6.28508C19.5981 6.1851 19.4216 6.17798 19.2979 6.18737C19.167 6.19731 19.0436 6.22997 18.9582 6.25717C18.9142 6.27116 18.8774 6.28464 18.8511 6.29483C18.8379 6.29995 18.8272 6.30429 18.8194 6.30753L18.8118 6.31075L9.12977 10.1089L9.12711 10.1098C9.12188 10.1117 9.11496 10.1143 9.10661 10.1175C9.08996 10.124 9.06729 10.1333 9.04067 10.1454C8.98839 10.1691 8.91616 10.2056 8.8429 10.2558C8.71849 10.341 8.48158 10.5427 8.52158 10.8625C8.55472 11.1273 8.7373 11.2956 8.86039 11.3827C8.92638 11.4293 8.98951 11.463 9.03573 11.485C9.05915 11.4962 9.07905 11.5047 9.09387 11.5107C9.1013 11.5138 9.10751 11.5162 9.11231 11.518L9.11847 11.5203L9.1224 11.5218L10.8163 12.092C10.8106 12.1983 10.8212 12.3067 10.8493 12.4136L11.6978 15.6323C11.7985 16.014 12.1437 16.2798 12.5384 16.2795C12.8922 16.2793 13.2059 16.0653 13.3392 15.7459L14.6639 14.3295L16.9391 16.0738L16.9715 16.0879C17.1782 16.1781 17.3713 16.2067 17.5479 16.1826C17.7242 16.1585 17.8643 16.0845 17.9696 16.0003C18.0731 15.9175 18.1441 15.8239 18.1888 15.7535C18.2114 15.7178 18.2284 15.6863 18.2401 15.6627C18.246 15.6508 18.2506 15.6407 18.2541 15.6329L18.2585 15.6228L18.26 15.6191L18.2606 15.6176ZM11.6892 12.1922C11.6699 12.119 11.7002 12.0418 11.7641 12.0013L17.5097 8.35256C17.5097 8.35256 17.8476 8.1474 17.8355 8.35256C17.8355 8.35256 17.8958 8.38879 17.7147 8.55772C17.543 8.71817 13.6197 12.5059 13.2227 12.8892C13.1998 12.9113 13.1862 12.9367 13.1781 12.9675L12.5377 15.4109L11.6892 12.1922Z" fill="#001831"/>
</svg>
