<svg width="50" height="50" viewBox="0 0 50 50" fill="none" xmlns="http://www.w3.org/2000/svg">
<rect width="50" height="50" rx="25" fill="url(#paint0_linear_28_137)"/>
<path d="M18.1629 14.3371C18.529 14.7032 18.529 15.2968 18.1629 15.6629L15.0379 18.7879C14.6718 19.154 14.0782 19.154 13.7121 18.7879C13.346 18.4218 13.346 17.8282 13.7121 17.4621L16.8371 14.3371C17.2032 13.971 17.7968 13.971 18.1629 14.3371Z" fill="white"/>
<path fill-rule="evenodd" clip-rule="evenodd" d="M25 15.625C19.132 15.625 14.375 20.382 14.375 26.25C14.375 32.118 19.132 36.875 25 36.875C30.868 36.875 35.625 32.118 35.625 26.25C35.625 20.382 30.868 15.625 25 15.625ZM25.9375 20C25.9375 19.4822 25.5178 19.0625 25 19.0625C24.4822 19.0625 24.0625 19.4822 24.0625 20V26.25C24.0625 26.5732 24.229 26.8737 24.5031 27.045L28.2531 29.3887C28.6922 29.6632 29.2706 29.5297 29.545 29.0906C29.8194 28.6516 29.6859 28.0732 29.2469 27.7988L25.9375 25.7304V20Z" fill="white"/>
<path d="M31.8371 15.6629C31.471 15.2968 31.471 14.7032 31.8371 14.3371C32.2032 13.971 32.7968 13.971 33.1629 14.3371L36.2879 17.4621C36.654 17.8282 36.654 18.4218 36.2879 18.7879C35.9218 19.154 35.3282 19.154 34.9621 18.7879L31.8371 15.6629Z" fill="white"/>
<defs>
<linearGradient id="paint0_linear_28_137" x1="50" y1="0" x2="0" y2="50" gradientUnits="userSpaceOnUse">
<stop stop-color="#2290FC"/>
<stop offset="1" stop-color="#0673E8"/>
</linearGradient>
</defs>
</svg>
