<svg width="431" height="494" viewBox="0 0 431 494" fill="none" xmlns="http://www.w3.org/2000/svg">
<path d="M181.326 196.136C181.326 196.136 210.815 165.416 211.34 167.509C212.352 171.569 214.388 178.553 214.388 178.553L246.944 166.503C246.944 166.503 235.626 111.523 229.767 105.083" stroke="#0E185F" stroke-width="1.8739" stroke-miterlimit="10" stroke-linecap="round" stroke-linejoin="round"/>
<path d="M338.379 218.404C338.953 212.039 317.884 215.674 317.884 215.674C317.884 215.674 337.529 227.842 338.379 218.404Z" fill="white" stroke="#0E185F" stroke-width="1.8739" stroke-miterlimit="10" stroke-linecap="round" stroke-linejoin="round"/>
<path d="M246.95 166.497L252.659 192.838C252.659 192.838 322.606 214.625 329.165 220.478C335.723 226.337 347.754 234.364 344.506 238.624C342.413 241.366 319.564 224.226 319.564 224.226C319.564 224.226 343.294 240.385 339.94 245.076C336.791 249.486 317.453 231.259 317.453 231.259C317.453 231.259 336.479 247.693 333.381 251.522C330.414 255.195 314.642 237.587 314.642 237.587C314.642 237.587 321.9 246.488 320.501 248.83C319.102 251.173 302.699 234.539 298.482 232.434C294.266 230.329 223.002 210.653 223.002 210.653L214.394 178.565L246.95 166.497Z" fill="white" stroke="#0E185F" stroke-width="1.8739" stroke-miterlimit="10" stroke-linecap="round" stroke-linejoin="round"/>
<path d="M207.13 149.738L211.34 167.509" stroke="#0E185F" stroke-width="1.8739" stroke-miterlimit="10" stroke-linecap="round" stroke-linejoin="round"/>
<path d="M200.103 284.003L212.27 365.912L150.057 409.755L105.695 375.381L140.363 346.542C140.363 346.542 102.479 276.245 104.352 238.143C138.689 263.665 200.103 284.003 200.103 284.003Z" fill="#0E185F" stroke="#0E185F" stroke-width="1.8739" stroke-miterlimit="10" stroke-linecap="round" stroke-linejoin="round"/>
<path d="M162.937 276.539L178.678 356.374L127.789 391.89" stroke="white" stroke-width="0.624635" stroke-miterlimit="10"/>
<path d="M102.235 372.733L160.288 417.706L131.261 431.136L76.2686 397.093L102.235 372.733Z" stroke="#0E185F" stroke-width="1.8739" stroke-miterlimit="10" stroke-linecap="round" stroke-linejoin="round"/>
<path d="M80.7725 399.879L58.7354 418.406L118.275 464.592L117.338 435.977L126.989 428.494L80.7725 399.879Z" fill="white" stroke="#0E185F" stroke-width="1.8739" stroke-miterlimit="10" stroke-linecap="round" stroke-linejoin="round"/>
<path d="M104.353 238.149C147.758 271.879 253.509 301.056 253.509 301.056L275.64 416.432L332.681 402.216L326.123 281.848C312.537 264.515 197.635 195.143 154.854 187.647L104.353 238.149Z" fill="#0E185F" stroke="#0E185F" stroke-width="1.8739" stroke-miterlimit="10" stroke-linecap="round" stroke-linejoin="round"/>
<path d="M1 455.653C1 455.653 9.17026 465.528 13.0617 465.491C110.124 464.592 322.856 463.342 420.049 461.899C423.266 461.849 429.181 452.842 429.181 452.842" stroke="#0E185F" stroke-width="1.8739" stroke-miterlimit="10" stroke-linecap="round" stroke-linejoin="round"/>
<path d="M129.207 493C137.051 493 143.411 486.641 143.411 478.796C143.411 470.951 137.051 464.592 129.207 464.592C121.362 464.592 115.002 470.951 115.002 478.796C115.002 486.641 121.362 493 129.207 493Z" fill="#027EF8" stroke="#0E185F" stroke-width="1.8739" stroke-miterlimit="10" stroke-linecap="round" stroke-linejoin="round"/>
<path d="M351.183 491.751C359.028 491.751 365.387 485.391 365.387 477.546C365.387 469.702 359.028 463.342 351.183 463.342C343.339 463.342 336.979 469.702 336.979 477.546C336.979 485.391 343.339 491.751 351.183 491.751Z" fill="#027EF8" stroke="#0E185F" stroke-width="1.8739" stroke-miterlimit="10" stroke-linecap="round" stroke-linejoin="round"/>
<path d="M269.268 418.019L342.038 399.879L340.476 426.451L274.89 437.07L269.268 418.019Z" stroke="#0E185F" stroke-width="1.8739" stroke-miterlimit="10" stroke-linecap="round" stroke-linejoin="round"/>
<path d="M333.406 427.594V438.163L366.868 462.562L283.635 463.105L278.813 436.433L333.406 427.594Z" fill="white" stroke="#0E185F" stroke-width="1.8739" stroke-miterlimit="10" stroke-linecap="round" stroke-linejoin="round"/>
<path d="M241.266 97.7371C246.927 97.7371 251.517 92.4403 251.517 85.9065C251.517 79.3726 246.927 74.0759 241.266 74.0759C235.605 74.0759 231.016 79.3726 231.016 85.9065C231.016 92.4403 235.605 97.7371 241.266 97.7371Z" fill="white" stroke="#0E185F" stroke-width="1.8739" stroke-miterlimit="10" stroke-linecap="round" stroke-linejoin="round"/>
<path d="M145.709 145.216C145.709 145.216 192.582 116.476 239.455 121.398" stroke="#0E185F" stroke-width="1.8739" stroke-miterlimit="10" stroke-linecap="round" stroke-linejoin="round"/>
<path d="M150.638 150.138C150.638 150.138 188.491 120.643 240.391 127.564" stroke="#0E185F" stroke-width="1.8739" stroke-miterlimit="10" stroke-linecap="round" stroke-linejoin="round"/>
<path d="M168.559 173.943C168.559 173.943 192.582 176.285 207.911 172.381" stroke="#0E185F" stroke-width="1.8739" stroke-miterlimit="10" stroke-linecap="round" stroke-linejoin="round"/>
<path d="M162.937 179.564C162.937 179.564 187.26 182.338 204.631 177.378" stroke="#0E185F" stroke-width="1.8739" stroke-miterlimit="10" stroke-linecap="round" stroke-linejoin="round"/>
<path d="M139.854 110.549L114.053 92.9497L90.9984 126.748L116.799 144.348L139.854 110.549Z" fill="#61C453" stroke="#0E185F" stroke-width="1.8739" stroke-miterlimit="10" stroke-linecap="round" stroke-linejoin="round"/>
<path d="M149.719 117.272L139.853 110.542L116.798 144.341L126.664 151.071L149.719 117.272Z" fill="#0E185F" stroke="#0E185F" stroke-width="1.8739" stroke-miterlimit="10" stroke-linecap="round" stroke-linejoin="round"/>
<path d="M125.871 109.489L110.102 98.7322L90.996 126.741L106.765 137.498L125.871 109.489Z" fill="white" stroke="#0E185F" stroke-width="1.8739" stroke-miterlimit="10" stroke-linecap="round" stroke-linejoin="round"/>
<path d="M229.773 105.077C232.758 104.234 231.022 101.872 235.157 95.0077C239.373 88.0055 256.332 82.3963 256.32 77.2806C256.288 66.0933 230.803 48.5473 205.568 64.1632C201.976 66.3869 191.033 65.8185 189.971 70.6219C188.272 78.2924 194.525 75.5753 196.53 80.9846C199.553 89.1423 208.298 93.0463 213.064 95.2326C218.56 97.7623 220.159 107.788 229.773 105.077Z" fill="#0E185F" stroke="#0E185F" stroke-width="1.8739" stroke-miterlimit="10" stroke-linecap="round" stroke-linejoin="round"/>
<path d="M121.63 38.2407H79.7041V72.2021H121.63V38.2407Z" stroke="#0E185F" stroke-width="1.8739" stroke-miterlimit="10" stroke-linecap="round" stroke-linejoin="round"/>
<path d="M79.7041 38.2407L100.786 53.3881L121.63 38.2407H79.7041Z" stroke="#0E185F" stroke-width="1.8739" stroke-miterlimit="10" stroke-linecap="round" stroke-linejoin="round"/>
<path d="M49.2531 18.0962H1V59.7906H49.2531V18.0962Z" fill="#61C453" stroke="#0E185F" stroke-width="1.8739" stroke-miterlimit="10" stroke-linecap="round" stroke-linejoin="round"/>
<path d="M25.1235 25.8293H1V40.2334H25.1235V25.8293Z" fill="white" stroke="#0E185F" stroke-width="1.8739" stroke-miterlimit="10" stroke-linecap="round" stroke-linejoin="round"/>
<path d="M1.54395 47.3792H17.1598" stroke="#0E185F" stroke-width="1.8739" stroke-miterlimit="10" stroke-linecap="round" stroke-linejoin="round"/>
<path d="M1.54395 52.2949H10.0576" stroke="#0E185F" stroke-width="1.8739" stroke-miterlimit="10" stroke-linecap="round" stroke-linejoin="round"/>
<path d="M49.2531 18.0962H35.355V59.1659H49.2531V18.0962Z" fill="#0E185F" stroke="#0E185F" stroke-width="1.8739" stroke-miterlimit="10" stroke-linecap="round" stroke-linejoin="round"/>
<path d="M386.04 150.481L336.225 117.923L308.093 160.967L357.908 193.524L386.04 150.481Z" fill="#61C453" stroke="#0E185F" stroke-width="1.8739" stroke-miterlimit="10" stroke-linecap="round" stroke-linejoin="round"/>
<path d="M355.918 142.187L331.008 125.907L321.289 140.778L346.199 157.058L355.918 142.187Z" fill="white" stroke="#0E185F" stroke-width="1.8739" stroke-miterlimit="10" stroke-linecap="round" stroke-linejoin="round"/>
<path d="M316.491 148.027L333.175 158.933" stroke="#0E185F" stroke-width="1.8739" stroke-miterlimit="10" stroke-linecap="round" stroke-linejoin="round"/>
<path d="M313.174 153.105L322.525 159.22" stroke="#0E185F" stroke-width="1.8739" stroke-miterlimit="10" stroke-linecap="round" stroke-linejoin="round"/>
<path d="M371.84 141.009L343.708 184.052L358.056 193.43L386.188 150.386L371.84 141.009Z" fill="#0E185F" stroke="#0E185F" stroke-width="1.8739" stroke-miterlimit="10" stroke-linecap="round" stroke-linejoin="round"/>
<path d="M171.487 170.979L92.7969 92.2891L18.4181 166.668L97.1077 245.358L171.487 170.979Z" fill="#61C453" stroke="#0E185F" stroke-width="1.8739" stroke-miterlimit="10" stroke-linecap="round" stroke-linejoin="round"/>
<path d="M171.488 170.977L147.504 146.994L73.1256 221.373L97.1088 245.356L171.488 170.977Z" fill="#118C00" stroke="#0E185F" stroke-width="1.8739" stroke-miterlimit="10" stroke-linecap="round" stroke-linejoin="round"/>
<path d="M111.523 152.436L56.9546 97.9996L92.8086 92.3091L147.514 147.021L111.523 152.436Z" fill="#118C00" stroke="#0E185F" stroke-width="1.8739" stroke-miterlimit="10" stroke-linecap="round" stroke-linejoin="round"/>
<path d="M56.7549 64.4753C56.7549 64.4753 69.866 73.139 72.908 78.5296" stroke="#0E185F" stroke-width="1.8739" stroke-miterlimit="10" stroke-linecap="round" stroke-linejoin="round"/>
<path d="M106.407 81.5842C106.407 81.5842 104.252 89.3421 103.834 92.3092" stroke="#0E185F" stroke-width="1.8739" stroke-miterlimit="10" stroke-linecap="round" stroke-linejoin="round"/>
<path d="M162.387 35.8984C162.387 35.8984 142.162 54.2565 138.495 61.1962" stroke="#0E185F" stroke-width="1.8739" stroke-miterlimit="10" stroke-linecap="round" stroke-linejoin="round"/>
<path d="M195.842 98.2941L169.095 56.5964L134.595 78.7262L161.342 120.424L195.842 98.2941Z" fill="#61C453" stroke="#0E185F" stroke-width="1.8739" stroke-miterlimit="10" stroke-linecap="round" stroke-linejoin="round"/>
<path d="M184.633 94.3749L168.77 69.6433L155.463 78.1788L171.327 102.91L184.633 94.3749Z" fill="white" stroke="#0E185F" stroke-width="1.8739" stroke-miterlimit="10" stroke-linecap="round" stroke-linejoin="round"/>
<path d="M149.651 81.9402L156.459 92.559" stroke="#0E185F" stroke-width="1.8739" stroke-miterlimit="10" stroke-linecap="round" stroke-linejoin="round"/>
<path d="M145.709 84.47L151.125 92.9213" stroke="#0E185F" stroke-width="1.8739" stroke-miterlimit="10" stroke-linecap="round" stroke-linejoin="round"/>
<path d="M202.795 11.069C202.795 11.069 186.28 1.58082 180.071 7.78969C173.862 13.9986 199.803 27.0534 194.593 32.2691C189.384 37.4786 167.509 21.6129 165.123 15.2853" stroke="#0E185F" stroke-width="1.8739" stroke-miterlimit="10" stroke-linecap="round" stroke-linejoin="round"/>
<path d="M199.166 1L172.225 27.9343" stroke="#0E185F" stroke-width="1.8739" stroke-miterlimit="10" stroke-linecap="round" stroke-linejoin="round"/>
<path d="M204.2 3.45483L174.686 32.9688" stroke="#0E185F" stroke-width="1.8739" stroke-miterlimit="10" stroke-linecap="round" stroke-linejoin="round"/>
<path d="M214.138 244.895L292.73 292.623L305.666 386.444" stroke="white" stroke-width="0.624635" stroke-miterlimit="10"/>
</svg>
