<svg width="653" height="557" viewBox="0 0 653 557" fill="none" xmlns="http://www.w3.org/2000/svg">
<path d="M564.861 103.648L547.004 324.108H384.919L349.205 532.895" stroke="#0E185F" stroke-width="1.94119" stroke-miterlimit="10" stroke-linecap="round" stroke-linejoin="round"/>
<path d="M170.411 338.528H1L89.8263 285.415H261.527L170.411 338.528Z" fill="white" stroke="#0E185F" stroke-width="1.94119" stroke-miterlimit="10" stroke-linecap="round" stroke-linejoin="round"/>
<path d="M1 338.528V479.703" stroke="#0E185F" stroke-width="1.94119" stroke-miterlimit="10" stroke-linecap="round" stroke-linejoin="round"/>
<path d="M170.411 338.528V479.703" stroke="#0E185F" stroke-width="1.94119" stroke-miterlimit="10" stroke-linecap="round" stroke-linejoin="round"/>
<path d="M91.5049 338.528V423.844" stroke="#0E185F" stroke-width="1.94119" stroke-miterlimit="10" stroke-linecap="round" stroke-linejoin="round"/>
<path d="M261.526 285.415V423.844" stroke="#0E185F" stroke-width="1.94119" stroke-miterlimit="10" stroke-linecap="round" stroke-linejoin="round"/>
<path d="M547.004 324.108L579.97 532.895" stroke="#0E185F" stroke-width="1.94119" stroke-miterlimit="10" stroke-linecap="round" stroke-linejoin="round"/>
<path d="M635.14 494.203H563.487V555.099H635.14V494.203Z" fill="#F4BF4F" stroke="#0E185F" stroke-width="1.94119" stroke-miterlimit="10" stroke-linecap="round" stroke-linejoin="round"/>
<path d="M70.1375 248.474C81.0111 248.474 89.8258 246.066 89.8258 243.096C89.8258 240.125 81.0111 237.717 70.1375 237.717C59.264 237.717 50.4492 240.125 50.4492 243.096C50.4492 246.066 59.264 248.474 70.1375 248.474Z" stroke="#0E185F" stroke-width="1.94119" stroke-miterlimit="10" stroke-linecap="round" stroke-linejoin="round"/>
<path d="M91.9629 258.095C87.024 250.477 89.8261 243.364 89.8261 243.364C89.8261 243.364 87.7383 248.474 70.1379 248.474C52.5374 248.474 50.4495 243.364 50.4495 243.364C50.4495 243.364 53.2517 250.477 48.3128 258.095C39.2165 272.125 35.0347 288.315 40.3765 323.571C47.855 329.675 70.1379 329.828 70.1379 329.828C70.1379 329.828 92.4207 329.675 99.8992 323.571C105.241 288.315 101.059 272.125 91.9629 258.095Z" stroke="#0E185F" stroke-width="1.94119" stroke-miterlimit="10" stroke-linecap="round" stroke-linejoin="round"/>
<path d="M96.6514 275.909C95.3572 272.698 83.9411 270.183 70.0525 270.183C56.1639 270.183 45.2054 272.692 43.96 275.909H43.8381C43.8381 275.909 41.7744 287.735 41.7744 297.118C41.7744 302.368 43.3373 317.984 43.3373 317.984C43.3373 325.872 62.983 326.299 70.2173 326.427C78.8008 326.58 97.4207 324.449 97.3353 317.374C97.3353 317.374 98.6659 302.386 98.6659 295.744C98.6659 289.798 96.6514 275.909 96.6514 275.909Z" fill="#DADADA" stroke="#0E185F" stroke-width="1.94119" stroke-miterlimit="10" stroke-linecap="round" stroke-linejoin="round"/>
<path d="M96.6945 276.044C96.6945 279.542 84.729 282.381 69.9673 282.381C55.2057 282.381 43.7529 279.542 43.7529 276.044" stroke="#0E185F" stroke-width="1.94119" stroke-miterlimit="10" stroke-linecap="round" stroke-linejoin="round"/>
<path d="M62.8128 315.408C62.8128 315.408 78.991 211.32 28.2471 200.825" stroke="#0E185F" stroke-width="1.94119" stroke-miterlimit="10" stroke-linecap="round" stroke-linejoin="round"/>
<path d="M75.3267 311.971C75.3267 311.971 68.9165 214.14 118.671 199.183" stroke="#0E185F" stroke-width="1.94119" stroke-miterlimit="10" stroke-linecap="round" stroke-linejoin="round"/>
<path d="M85.095 309.071C85.095 309.071 82.6531 201.625 29.8457 163.164" stroke="#0E185F" stroke-width="1.94119" stroke-miterlimit="10" stroke-linecap="round" stroke-linejoin="round"/>
<path d="M55.791 292.283C55.791 292.283 63.0499 222.076 97.4266 199.183" stroke="#0E185F" stroke-width="1.94119" stroke-miterlimit="10" stroke-linecap="round" stroke-linejoin="round"/>
<path d="M29.8459 164.031C30.3213 164.031 30.7068 163.646 30.7068 163.17C30.7068 162.695 30.3213 162.31 29.8459 162.31C29.3705 162.31 28.9854 162.695 28.9854 163.17C28.9854 163.646 29.3705 164.031 29.8459 164.031Z" fill="#F4BF4F" stroke="#0E185F" stroke-width="1.94119" stroke-miterlimit="10" stroke-linecap="round" stroke-linejoin="round"/>
<path d="M29.8459 172.987C30.3213 172.987 30.7068 172.602 30.7068 172.126C30.7068 171.651 30.3213 171.266 29.8459 171.266C29.3705 171.266 28.9854 171.651 28.9854 172.126C28.9854 172.602 29.3705 172.987 29.8459 172.987Z" fill="#F4BF4F" stroke="#0E185F" stroke-width="1.94119" stroke-miterlimit="10" stroke-linecap="round" stroke-linejoin="round"/>
<path d="M39.0276 157.163C39.503 157.163 39.8885 156.778 39.8885 156.303C39.8885 155.827 39.503 155.442 39.0276 155.442C38.5522 155.442 38.167 155.827 38.167 156.303C38.167 156.778 38.5522 157.163 39.0276 157.163Z" fill="#F4BF4F" stroke="#0E185F" stroke-width="1.94119" stroke-miterlimit="10" stroke-linecap="round" stroke-linejoin="round"/>
<path d="M28.2398 201.686C28.7152 201.686 29.1007 201.301 29.1007 200.825C29.1007 200.35 28.7152 199.965 28.2398 199.965C27.7644 199.965 27.3789 200.35 27.3789 200.825C27.3789 201.301 27.7644 201.686 28.2398 201.686Z" fill="#F4BF4F" stroke="#0E185F" stroke-width="1.94119" stroke-miterlimit="10" stroke-linecap="round" stroke-linejoin="round"/>
<path d="M25.8772 210.575C26.3526 210.575 26.7381 210.19 26.7381 209.714C26.7381 209.239 26.3526 208.853 25.8772 208.853C25.4018 208.853 25.0166 209.239 25.0166 209.714C25.0166 210.19 25.4018 210.575 25.8772 210.575Z" fill="#F4BF4F" stroke="#0E185F" stroke-width="1.94119" stroke-miterlimit="10" stroke-linecap="round" stroke-linejoin="round"/>
<path d="M33.1363 190.966C33.6117 190.966 33.9972 190.581 33.9972 190.105C33.9972 189.63 33.6117 189.244 33.1363 189.244C32.6609 189.244 32.2754 189.63 32.2754 190.105C32.2754 190.581 32.6609 190.966 33.1363 190.966Z" fill="#F4BF4F" stroke="#0E185F" stroke-width="1.94119" stroke-miterlimit="10" stroke-linecap="round" stroke-linejoin="round"/>
<path d="M118.672 200.044C119.148 200.044 119.533 199.659 119.533 199.183C119.533 198.708 119.148 198.322 118.672 198.322C118.197 198.322 117.812 198.708 117.812 199.183C117.812 199.659 118.197 200.044 118.672 200.044Z" stroke="#0E185F" stroke-width="1.94119" stroke-miterlimit="10" stroke-linecap="round" stroke-linejoin="round"/>
<path d="M111.585 190.923C112.06 190.923 112.445 190.538 112.445 190.062C112.445 189.587 112.06 189.202 111.585 189.202C111.109 189.202 110.724 189.587 110.724 190.062C110.724 190.538 111.109 190.923 111.585 190.923Z" stroke="#0E185F" stroke-width="1.94119" stroke-miterlimit="10" stroke-linecap="round" stroke-linejoin="round"/>
<path d="M39.0276 171.003C39.0276 171.003 36.2255 159.428 39.0276 156.296" stroke="#0E185F" stroke-width="1.94119" stroke-miterlimit="10" stroke-linecap="round" stroke-linejoin="round"/>
<path d="M42.4952 174.635C42.4952 174.635 35.8712 171.485 29.8457 172.248" stroke="#0E185F" stroke-width="1.94119" stroke-miterlimit="10" stroke-linecap="round" stroke-linejoin="round"/>
<path d="M51.9821 186.888C51.9821 186.888 49.0211 168.085 54.4544 168.604C59.8878 169.123 51.9821 186.888 51.9821 186.888Z" fill="#F4BF4F" stroke="#0E185F" stroke-width="1.94119" stroke-miterlimit="10" stroke-linecap="round" stroke-linejoin="round"/>
<path d="M56.9825 196.21C56.9825 196.21 40.255 197.047 41.2135 192.334C42.172 187.621 56.9825 196.21 56.9825 196.21Z" fill="#F4BF4F" stroke="#0E185F" stroke-width="1.94119" stroke-miterlimit="10" stroke-linecap="round" stroke-linejoin="round"/>
<path d="M56.3651 226.515C56.3651 226.515 37.3424 227.126 38.5267 221.79C39.7111 216.46 56.3651 226.515 56.3651 226.515Z" fill="#F4BF4F" stroke="#0E185F" stroke-width="1.94119" stroke-miterlimit="10" stroke-linecap="round" stroke-linejoin="round"/>
<path d="M47.873 212.303C47.873 212.303 46.127 200.514 49.5274 200.868C52.9278 201.222 47.873 212.303 47.873 212.303Z" fill="#F4BF4F" stroke="#0E185F" stroke-width="1.94119" stroke-miterlimit="10" stroke-linecap="round" stroke-linejoin="round"/>
<path d="M59.2773 233.029C59.2773 233.029 62.8121 221.649 65.7242 223.444C68.6362 225.233 59.2773 233.029 59.2773 233.029Z" fill="#F4BF4F" stroke="#0E185F" stroke-width="1.94119" stroke-miterlimit="10" stroke-linecap="round" stroke-linejoin="round"/>
<path d="M66.2859 215.691C66.2859 215.691 54.4183 216.741 54.9677 213.365C55.5172 209.989 66.2859 215.691 66.2859 215.691Z" fill="#F4BF4F" stroke="#0E185F" stroke-width="1.94119" stroke-miterlimit="10" stroke-linecap="round" stroke-linejoin="round"/>
<path d="M64.2775 209.702C64.2775 209.702 64.1736 192.81 68.8744 193.982C73.5813 195.16 64.2775 209.702 64.2775 209.702Z" fill="#F4BF4F" stroke="#0E185F" stroke-width="1.94119" stroke-miterlimit="10" stroke-linecap="round" stroke-linejoin="round"/>
<path d="M81.0601 215.367C81.0601 215.367 73.5329 200.245 78.2703 199.232C83.0077 198.219 81.0601 215.367 81.0601 215.367Z" fill="#F4BF4F" stroke="#0E185F" stroke-width="1.94119" stroke-miterlimit="10" stroke-linecap="round" stroke-linejoin="round"/>
<path d="M97.4269 213.823C97.4269 213.823 83.3919 204.421 87.006 201.192C90.614 197.962 97.4269 213.823 97.4269 213.823Z" fill="#F4BF4F" stroke="#0E185F" stroke-width="1.94119" stroke-miterlimit="10" stroke-linecap="round" stroke-linejoin="round"/>
<path d="M88.8496 227.15C88.8496 227.15 103.532 218.798 104.808 223.475C106.084 228.151 88.8496 227.15 88.8496 227.15Z" fill="#F4BF4F" stroke="#0E185F" stroke-width="1.94119" stroke-miterlimit="10" stroke-linecap="round" stroke-linejoin="round"/>
<path d="M579.268 387.77C579.268 387.77 591.356 410.278 582.308 411.963C570.52 414.161 579.268 387.77 579.268 387.77Z" fill="#F4BF4F" stroke="#0E185F" stroke-width="1.94119" stroke-miterlimit="10" stroke-linecap="round" stroke-linejoin="round"/>
<path d="M651.99 418.954C651.99 418.954 625.794 431.218 624.451 420.883C622.698 407.421 651.99 418.954 651.99 418.954Z" fill="#F4BF4F" stroke="#0E185F" stroke-width="1.94119" stroke-miterlimit="10" stroke-linecap="round" stroke-linejoin="round"/>
<path d="M644.89 449.679C644.89 449.679 629.427 477.121 621.692 468.806C611.631 457.982 644.89 449.679 644.89 449.679Z" fill="#F4BF4F" stroke="#0E185F" stroke-width="1.94119" stroke-miterlimit="10" stroke-linecap="round" stroke-linejoin="round"/>
<path d="M597.699 457.665C597.699 457.665 621.667 469.191 615.086 476.156C606.52 485.234 597.699 457.665 597.699 457.665Z" fill="#F4BF4F" stroke="#0E185F" stroke-width="1.94119" stroke-miterlimit="10" stroke-linecap="round" stroke-linejoin="round"/>
<path d="M522.273 418.142C522.273 418.142 551.589 406.622 552.34 417.946C553.311 432.689 522.273 418.142 522.273 418.142Z" fill="#F4BF4F" stroke="#0E185F" stroke-width="1.94119" stroke-miterlimit="10" stroke-linecap="round" stroke-linejoin="round"/>
<path d="M517.517 436.755C517.517 436.755 548.303 443.422 542.644 453.263C535.276 466.077 517.517 436.755 517.517 436.755Z" fill="#F4BF4F" stroke="#0E185F" stroke-width="1.94119" stroke-miterlimit="10" stroke-linecap="round" stroke-linejoin="round"/>
<path d="M534.458 478.165C534.458 478.165 554.336 460.931 558.078 469.642C562.95 480.979 534.458 478.165 534.458 478.165Z" fill="#F4BF4F" stroke="#0E185F" stroke-width="1.94119" stroke-miterlimit="10" stroke-linecap="round" stroke-linejoin="round"/>
<path d="M101.42 210.392C101.42 210.392 115.315 206.332 115.455 210.483C115.595 214.641 101.42 210.392 101.42 210.392Z" fill="#F4BF4F" stroke="#0E185F" stroke-width="1.94119" stroke-miterlimit="10" stroke-linecap="round" stroke-linejoin="round"/>
<path d="M109.924 202.956C109.924 202.956 114.466 193.628 111.37 190.02" stroke="#0E185F" stroke-width="1.94119" stroke-miterlimit="10" stroke-linecap="round" stroke-linejoin="round"/>
<path d="M35.0651 202.95C35.0651 202.95 32.5131 193.463 33.2762 190.105" stroke="#0E185F" stroke-width="1.94119" stroke-miterlimit="10" stroke-linecap="round" stroke-linejoin="round"/>
<path d="M36.17 203.444C36.17 203.444 28.85 205.899 25.877 209.714" stroke="#0E185F" stroke-width="1.94119" stroke-miterlimit="10" stroke-linecap="round" stroke-linejoin="round"/>
<path d="M592.718 494.202L582.645 411.939" stroke="#0E185F" stroke-width="1.94119" stroke-miterlimit="10" stroke-linecap="round" stroke-linejoin="round"/>
<path d="M586.76 445.54C586.76 445.54 602.944 423.697 624.464 420.797" stroke="#0E185F" stroke-width="1.94119" stroke-miterlimit="10" stroke-linecap="round" stroke-linejoin="round"/>
<path d="M584.806 429.607C584.806 429.607 567.382 414.082 552.425 418.813" stroke="#0E185F" stroke-width="1.94119" stroke-miterlimit="10" stroke-linecap="round" stroke-linejoin="round"/>
<path d="M541.131 453.758C541.131 453.758 569.207 473.904 573.865 494.203" stroke="#0E185F" stroke-width="1.94119" stroke-miterlimit="10" stroke-linecap="round" stroke-linejoin="round"/>
<path d="M613.933 494.202C613.933 494.202 614.39 472.225 620.648 467.036" stroke="#0E185F" stroke-width="1.94119" stroke-miterlimit="10" stroke-linecap="round" stroke-linejoin="round"/>
<path d="M212.675 304.047H136.975V318.082H212.675V304.047Z" fill="white" stroke="#0E185F" stroke-width="1.94119" stroke-miterlimit="10" stroke-linecap="round" stroke-linejoin="round"/>
<path d="M212.675 304.224H136.975L185.93 276.337H264.152L212.675 304.224Z" fill="white" stroke="#0E185F" stroke-width="1.94119" stroke-miterlimit="10" stroke-linecap="round" stroke-linejoin="round"/>
<path d="M264.646 290.189L212.675 318.076V304.047L264.261 276.337L264.646 290.189Z" fill="white" stroke="#0E185F" stroke-width="1.94119" stroke-miterlimit="10" stroke-linecap="round" stroke-linejoin="round"/>
<path d="M200.563 290.189H136.975V304.224H200.563V290.189Z" fill="#DADADA" stroke="#0E185F" stroke-width="1.94119" stroke-miterlimit="10" stroke-linecap="round" stroke-linejoin="round"/>
<path d="M200.563 290.28L136.975 290.366L185.93 262.479H252.15L200.563 290.28Z" fill="#DADADA" stroke="#0E185F" stroke-width="1.94119" stroke-miterlimit="10" stroke-linecap="round" stroke-linejoin="round"/>
<path d="M252.534 276.337L200.563 304.224V290.189L252.15 262.479L252.534 276.337Z" fill="#DADADA" stroke="#0E185F" stroke-width="1.94119" stroke-miterlimit="10" stroke-linecap="round" stroke-linejoin="round"/>
<path d="M200.563 276.184H136.975V290.219H200.563V276.184Z" fill="#A7A5A5" stroke="#0E185F" stroke-width="1.94119" stroke-miterlimit="10" stroke-linecap="round" stroke-linejoin="round"/>
<path d="M200.563 276.276L136.975 276.361L185.93 248.474H251.68L200.563 276.276Z" fill="#A7A5A5" stroke="#0E185F" stroke-width="1.94119" stroke-miterlimit="10" stroke-linecap="round" stroke-linejoin="round"/>
<path d="M252.339 262.326L200.563 290.219V276.184L251.961 248.474L252.339 262.326Z" fill="#A7A5A5" stroke="#0E185F" stroke-width="1.94119" stroke-miterlimit="10" stroke-linecap="round" stroke-linejoin="round"/>
<path d="M375.835 195.447C346.458 200.258 308.913 209.922 280.8 264.133C307.814 323.198 371 459.118 371 459.118L433.728 423.013L379.699 322.166C379.699 322.166 485.772 288.644 482.262 247.265C476.95 184.654 405.248 190.636 375.835 195.447Z" fill="#0E185F" stroke="#0E185F" stroke-width="1.94119" stroke-miterlimit="10" stroke-linecap="round" stroke-linejoin="round"/>
<path d="M497.549 209.714C538.079 259.774 518.391 323.723 384.926 324.108C353.107 379.583 312.65 456.505 312.65 456.505L249.171 423.843C249.171 423.843 324.109 239.494 328.84 236.118C384.694 196.265 473.819 180.404 497.549 209.714Z" fill="#0E185F" stroke="#0E185F" stroke-width="1.94119" stroke-miterlimit="10" stroke-linecap="round" stroke-linejoin="round"/>
<path d="M389.773 69.2588C389.773 69.2588 269.616 138.44 237.565 179.19C247.639 187.889 261.527 202.95 261.527 202.95L374.779 134.129C374.779 134.129 416.287 114.637 389.773 69.2588Z" fill="white" stroke="#0E185F" stroke-width="1.94119" stroke-miterlimit="10" stroke-linecap="round" stroke-linejoin="round"/>
<path d="M383.93 240.697C356.763 128.366 392.422 63.6361 392.422 63.6361C402.263 62.3785 401.866 56.4812 401.866 56.4812C401.866 56.4812 485.198 74.1121 518.39 202.95C518.39 202.956 408.044 239.476 383.93 240.697Z" fill="white" stroke="#0E185F" stroke-width="1.94119" stroke-miterlimit="10" stroke-linecap="round" stroke-linejoin="round"/>
<path d="M423.379 98.8369C423.379 98.8369 401.329 201.015 403.465 228.487C384.54 221.466 320.439 195.826 320.439 195.826L304.871 243.139L436.126 289.23L490.765 180.869" fill="white"/>
<path d="M423.379 98.8369C423.379 98.8369 401.329 201.015 403.465 228.487C384.54 221.466 320.439 195.826 320.439 195.826L304.871 243.138L436.126 289.23L490.765 180.869" stroke="#0E185F" stroke-width="1.94119" stroke-miterlimit="10" stroke-linecap="round" stroke-linejoin="round"/>
<path d="M233.377 415.657L229.781 451.926L301.514 490.997L317.997 459.557L233.377 415.657Z" fill="white" stroke="#0E185F" stroke-width="1.94119" stroke-miterlimit="10" stroke-linecap="round" stroke-linejoin="round"/>
<path d="M235.818 455.217L228.785 471.083H190.099L282.13 518.469L296.904 488.488L235.818 455.217Z" fill="white" stroke="#0E185F" stroke-width="1.94119" stroke-miterlimit="10" stroke-linecap="round" stroke-linejoin="round"/>
<path d="M437.806 415.657L345.316 468.104L382.74 492.371L457.036 446.584L437.806 415.657Z" fill="white" stroke="#0E185F" stroke-width="1.94119" stroke-miterlimit="10" stroke-linecap="round" stroke-linejoin="round"/>
<path d="M384.967 490.998L379.198 539.532L465.735 483.672L448.788 451.67L384.967 490.998Z" fill="white" stroke="#0E185F" stroke-width="1.94119" stroke-miterlimit="10" stroke-linecap="round" stroke-linejoin="round"/>
<path d="M246.454 138.476L258.426 115.845L291.167 172.725L277.29 192.046L246.454 138.476Z" fill="white" stroke="#0E185F" stroke-width="1.94119" stroke-miterlimit="10" stroke-linecap="round" stroke-linejoin="round"/>
<path d="M291.727 112.446L246.62 138.41L277.458 191.983L322.565 166.018L291.727 112.446Z" fill="#F4BF4F" stroke="#0E185F" stroke-width="1.94119" stroke-miterlimit="10" stroke-linecap="round" stroke-linejoin="round"/>
<path d="M317.826 203.762C317.826 203.762 315.928 173.579 309.634 173.714C303.34 173.848 305.476 188.738 305.476 188.738C305.476 188.738 301.05 156.608 296.929 156.913C292.809 157.218 293.572 194.635 293.572 194.635C293.572 194.635 290.367 153.555 284.262 154.013C278.157 154.471 285.33 198.121 285.33 198.121C285.33 198.121 280.294 155.234 273.425 155.997C266.557 156.76 277.394 199.495 277.394 199.495C277.394 199.495 270.526 178.127 267.473 179.654C264.421 181.18 264.928 218.878 305.22 242.076C308.962 231.771 317.826 203.762 317.826 203.762Z" fill="white" stroke="#0E185F" stroke-width="1.94119" stroke-miterlimit="10" stroke-linecap="round" stroke-linejoin="round"/>
<path d="M237.564 179.196C219.305 196.998 211.966 206.918 204.775 218.267C189.8 241.899 196.051 261.612 202.919 267.106C210.434 273.12 194.415 235.666 215.056 232.083C225.629 230.245 216.136 256.868 223.065 254.304C233.938 250.281 226.38 229.537 236.728 221.478C253.083 208.737 261.526 202.962 261.526 202.962C261.526 202.962 238.193 178.579 237.564 179.196Z" fill="white" stroke="#0E185F" stroke-width="1.94119" stroke-miterlimit="10" stroke-linecap="round" stroke-linejoin="round"/>
<path d="M204.159 254.664C204.159 254.664 216.393 267.747 219.213 263.126C220.66 260.751 204.775 242.961 204.775 242.961C204.775 242.961 203.182 249.091 204.159 254.664Z" fill="white" stroke="#0E185F" stroke-width="1.94119" stroke-miterlimit="10" stroke-linecap="round" stroke-linejoin="round"/>
<path d="M204.775 242.961C204.775 242.961 217.297 257.656 219.983 256.74C222.669 255.824 209.397 238.657 209.397 234.457C205.893 236.881 204.775 242.961 204.775 242.961Z" fill="white" stroke="#0E185F" stroke-width="1.94119" stroke-miterlimit="10" stroke-linecap="round" stroke-linejoin="round"/>
<path d="M209.397 234.464C209.397 234.464 216.845 229.366 219.306 233.993C221.387 237.913 220.63 254.836 220.63 254.836C220.63 254.836 209.977 239.25 209.397 234.464Z" fill="white" stroke="#0E185F" stroke-width="1.94119" stroke-miterlimit="10" stroke-linecap="round" stroke-linejoin="round"/>
<path d="M223.865 192.663C211.833 187.071 246.454 232.052 242.315 217.15" stroke="#0E185F" stroke-width="1.94119" stroke-miterlimit="10" stroke-linecap="round" stroke-linejoin="round"/>
<path d="M226.277 190.649C226.277 190.649 231.155 207.431 245.978 214.354" stroke="#0E185F" stroke-width="1.94119" stroke-miterlimit="10" stroke-linecap="round" stroke-linejoin="round"/>
<path d="M231.448 185.27C230.239 182.785 224.513 184.183 234.854 195.447" stroke="#0E185F" stroke-width="1.94119" stroke-miterlimit="10" stroke-linecap="round" stroke-linejoin="round"/>
<path d="M253.523 208.707C256.264 212.309 252.296 213.859 243.444 203.536" stroke="#0E185F" stroke-width="1.94119" stroke-miterlimit="10" stroke-linecap="round" stroke-linejoin="round"/>
<path d="M243.438 205.081C244.291 205.081 244.983 204.389 244.983 203.536C244.983 202.683 244.291 201.991 243.438 201.991C242.585 201.991 241.894 202.683 241.894 203.536C241.894 204.389 242.585 205.081 243.438 205.081Z" stroke="#0E185F" stroke-width="1.94119" stroke-miterlimit="10" stroke-linecap="round" stroke-linejoin="round"/>
<path d="M234.855 196.991C235.708 196.991 236.4 196.3 236.4 195.447C236.4 194.594 235.708 193.902 234.855 193.902C234.002 193.902 233.311 194.594 233.311 195.447C233.311 196.3 234.002 196.991 234.855 196.991Z" stroke="#0E185F" stroke-width="1.94119" stroke-miterlimit="10" stroke-linecap="round" stroke-linejoin="round"/>
<path d="M422.77 40.9014C429.277 38.8502 431.182 32.2019 428.643 28.02C427.141 25.5414 421.549 24.6563 420.401 22.1411C413.069 6.01804 402.202 6.23171 395.56 5.19999C388.918 4.16826 381.94 -2.92564 367.136 6.11572C341.294 21.903 349.865 71.8105 362.71 73.0803C376.238 74.4173 407.355 45.7548 422.77 40.9014Z" fill="#0E185F" stroke="#0E185F" stroke-width="1.94119" stroke-miterlimit="10" stroke-linecap="round" stroke-linejoin="round"/>
<path d="M392.416 63.6362L385.834 52.8183C385.834 52.8183 367.367 49.1187 367.141 40.1506C367.007 34.9065 375.981 36.0359 381.372 34.9615C387.898 33.6672 390.627 30.4499 393.618 28.7832C394.986 28.0201 398.881 27.1837 399.796 29.8149C400.712 32.4461 397.049 35.1934 397.049 35.1934C397.049 35.1934 400.138 42.4033 394.876 47.3239C399.912 54.8818 401.86 56.4812 401.86 56.4812C401.86 56.4812 400.944 63.5812 392.416 63.6362Z" fill="white" stroke="#0E185F" stroke-width="1.94119" stroke-miterlimit="10" stroke-linecap="round" stroke-linejoin="round"/>
<path d="M375.7 48.6791C374.577 51.4996 371.824 53.4897 368.6 53.4897C364.382 53.4897 360.957 50.071 360.957 45.8464C360.957 41.9576 363.863 38.7464 367.618 38.2703" stroke="white" stroke-width="1.94119" stroke-miterlimit="10" stroke-linecap="round" stroke-linejoin="round"/>
<path d="M377.172 35.4803C377.886 32.086 380.896 29.5342 384.504 29.5342C386.61 29.5342 388.515 30.4011 389.876 31.8052" stroke="white" stroke-width="1.94119" stroke-miterlimit="10" stroke-linecap="round" stroke-linejoin="round"/>
<path d="M368.6 38.1912C372.818 38.1912 376.237 41.6098 376.237 45.8344C376.237 46.8356 376.048 47.788 375.7 48.661" stroke="#0E185F" stroke-width="1.94119" stroke-miterlimit="10" stroke-linecap="round" stroke-linejoin="round"/>
<path d="M389.869 31.793C391.181 33.1422 391.987 34.9859 391.987 37.0127C391.987 41.1518 388.636 44.5034 384.497 44.5034C380.357 44.5034 377.006 41.1518 377.006 37.0127C377.006 36.4816 377.061 35.9626 377.165 35.4681" stroke="#0E185F" stroke-width="1.94119" stroke-miterlimit="10" stroke-linecap="round" stroke-linejoin="round"/>
<path d="M375.021 41.7014L377.677 40.1079" stroke="#0E185F" stroke-width="1.94119" stroke-miterlimit="10" stroke-linecap="round" stroke-linejoin="round"/>
</svg>
