<svg width="284" height="54" viewBox="0 0 284 54" fill="none" xmlns="http://www.w3.org/2000/svg">
<path d="M25.1445 50.4453C24.9297 50.4453 24.3438 50.4062 23.3867 50.3281C22.4492 50.2695 21.3945 49.625 20.2227 48.3945C18.8359 46.8711 18.1426 44.957 18.1426 42.6523C18.1426 39 19.9199 35.9531 23.4746 33.5117C26.6191 31.4023 30.0859 30.1035 33.875 29.6152C35.6523 29.3809 37.4199 29.2637 39.1777 29.2637C43.8457 29.2637 46.4238 29.7617 46.9121 30.7578C47.0879 31.1289 47.1758 31.5 47.1758 31.8711L47.1465 32.3105C46.8535 33.2871 46.1309 33.7754 44.9785 33.7754C44.8027 33.7754 44.3926 33.7266 43.748 33.6289H43.8652L43.8945 33.6582L43.8359 33.6289H43.6016L42.0781 33.4531C41.1211 33.375 39.9688 33.3359 38.6211 33.3359C37.3906 33.3359 36.1699 33.4141 34.959 33.5703L35.0762 33.541V33.5703L34.6953 33.6289C34.5781 33.6289 34.5098 33.6387 34.4902 33.6582C33.7676 33.7363 32.6543 33.9805 31.1504 34.3906C30.4473 34.6055 29.7539 34.8496 29.0703 35.123L29.1875 35.0645C29.1875 35.084 29.168 35.0938 29.1289 35.0938L28.8359 35.2402C28.0156 35.5918 27.2148 36.002 26.4336 36.4707L25.4961 37.1152C24.8125 37.6621 24.2754 38.1602 23.8848 38.6094L23.6504 38.873L23.7383 38.7559C23.543 38.9902 23.2891 39.3711 22.9766 39.8984C22.918 39.9766 22.8691 40.084 22.8301 40.2207C22.791 40.2598 22.7715 40.2891 22.7715 40.3086L22.8594 40.0449L22.8887 40.0156V40.0449C22.752 40.1816 22.5957 40.709 22.4199 41.627C22.3809 41.7441 22.3613 41.8613 22.3613 41.9785L22.4199 41.6855C22.4004 41.7246 22.3809 41.7734 22.3613 41.832C22.3418 41.8906 22.332 42.1641 22.332 42.6523L22.3613 43.4727L22.3906 43.5312L22.3613 43.5898L22.332 43.2969C22.332 43.3945 22.3516 43.4629 22.3906 43.502C22.3906 43.5996 22.459 43.9023 22.5957 44.4102C22.6152 44.5273 22.6445 44.625 22.6836 44.7031C22.7227 44.7812 22.7422 44.8301 22.7422 44.8496C22.7227 44.8301 22.7031 44.8008 22.6836 44.7617C22.6836 44.7422 22.6738 44.7129 22.6543 44.6738C22.6348 44.6348 22.625 44.6055 22.625 44.5859C22.6641 44.5859 22.7324 44.7031 22.8301 44.9375C23.0059 45.25 23.1328 45.4453 23.2109 45.5234C23.0938 45.4062 23.0254 45.3281 23.0059 45.2891C23.0059 45.3086 23.0156 45.3281 23.0352 45.3477C23.0547 45.3672 23.123 45.4355 23.2402 45.5527L23.6211 45.9336L23.709 45.9922C23.5918 45.9336 23.5332 45.9043 23.5332 45.9043L23.4746 45.8164C23.4746 45.8359 23.5039 45.8555 23.5625 45.875C23.6211 45.8945 23.6699 45.9238 23.709 45.9629C23.7676 46.002 23.8066 46.0215 23.8262 46.0215C23.8457 46.041 23.9922 46.1191 24.2656 46.2559C24.168 46.1777 24.0996 46.1289 24.0605 46.1094C24.041 46.0898 24.0215 46.0801 24.002 46.0801V46.1094L24.0898 46.1387C24.1289 46.1777 24.1777 46.207 24.2363 46.2266C24.3145 46.2461 24.4219 46.2559 24.5586 46.2559C24.6953 46.2754 24.8223 46.3145 24.9395 46.373L24.7051 46.2852C24.7051 46.3047 24.7148 46.3145 24.7344 46.3145C24.7539 46.334 24.8223 46.3535 24.9395 46.373C25.3887 46.373 25.7012 46.3633 25.877 46.3438H25.6719L25.7891 46.3145C25.8867 46.3145 25.9551 46.3047 25.9941 46.2852H26.0234L26.7266 46.0801L26.5508 46.1094L26.6094 46.0801C26.6289 46.0801 26.6582 46.0703 26.6973 46.0508C26.7559 46.0508 26.8047 46.041 26.8438 46.0215C26.8828 46.002 26.9023 45.9824 26.9023 45.9629C27.2344 45.8066 27.5469 45.6211 27.8398 45.4062L27.7227 45.4941L27.8984 45.3477C27.957 45.2891 27.9961 45.2598 28.0156 45.2598C28.5625 44.8105 29.0996 44.2441 29.627 43.5605L29.6855 43.5312C29.7832 43.4336 29.832 43.3652 29.832 43.3262L29.7148 43.5312L29.7734 43.3848C30.2031 42.9551 30.8281 41.9883 31.6484 40.4844L32.4688 38.873L32.5566 38.6973L32.4688 38.9023C32.5078 38.8438 32.5273 38.7754 32.5273 38.6973C32.9766 37.6816 33.3281 36.5586 33.582 35.3281L33.7578 34.6543C33.7578 34.5957 33.748 34.5566 33.7285 34.5371C33.748 34.5762 33.7578 34.6445 33.7578 34.7422C33.7383 34.7812 33.7285 34.8008 33.7285 34.8008H33.6992V34.7715C33.6992 34.6348 33.709 34.5371 33.7285 34.4785L33.7578 33.4531C33.7578 33.082 33.748 32.8477 33.7285 32.75C33.709 32.6328 33.6992 32.4863 33.6992 32.3105L33.6699 32.5742L33.7285 32.6035C33.748 32.6035 33.7578 32.584 33.7578 32.5449C33.7578 32.5254 33.7383 32.4863 33.6992 32.4277C33.6797 32.3496 33.6699 32.252 33.6699 32.1348L33.4062 31.2559L33.3184 31.0215L33.3477 31.0508C33.3477 31.0898 33.377 31.1387 33.4355 31.1973V31.2852L33.2891 31.0215C33.0938 30.6504 32.9375 30.4062 32.8203 30.2891C32.8203 30.2695 32.8105 30.2598 32.791 30.2598V30.2891L32.8203 30.3477C32.8203 30.4062 32.8789 30.4551 32.9961 30.4941C32.5664 30.0645 32.3516 29.8496 32.3516 29.8496L32.1172 29.6445L32.2637 29.7617L32.1172 29.6738C31.8242 29.459 31.5312 29.293 31.2383 29.1758L31.0918 29.1172H31.0039C31.0039 29.1367 31.0234 29.1562 31.0625 29.1758C31.1016 29.1758 31.1797 29.1855 31.2969 29.2051L30.5645 28.9414C29.666 28.6875 28.9922 28.5605 28.543 28.5605C28.5039 28.541 28.4648 28.5312 28.4258 28.5312C28.3867 28.5312 28.3574 28.5215 28.3379 28.502L28.4551 28.5312L26.668 28.3555C25.9648 28.2969 25.0859 28.2676 24.0312 28.2676C23.25 28.2676 22.6641 28.3066 22.2734 28.3848L22.4785 28.3555C22.4004 28.3555 22.3418 28.3652 22.3027 28.3848C22.1855 28.3848 22.127 28.3945 22.127 28.4141L21.6289 28.4434C20.6328 28.4434 19.9297 27.9551 19.5195 26.9785C19.4609 26.7832 19.4316 26.5879 19.4316 26.3926C19.4316 26.0605 19.5488 25.6992 19.7832 25.3086C20.0371 24.8984 20.4375 24.6152 20.9844 24.459C22.3516 24.0879 23.6895 23.6484 24.998 23.1406L25.3496 22.9941L25.4082 22.9648C25.4277 22.9648 25.457 22.9551 25.4961 22.9355C25.5352 22.8965 25.5742 22.877 25.6133 22.877C27.7031 21.959 29.4902 20.9727 30.9746 19.918L31.2383 19.7129L31.1504 19.8008L31.5605 19.4785C32.5957 18.6582 33.543 17.7402 34.4023 16.7246L34.6074 16.4902L34.8125 16.168C34.9883 15.9336 35.1543 15.6895 35.3105 15.4355C35.8379 14.6348 36.248 13.9121 36.541 13.2676L36.4824 13.3848L36.5117 13.3262C36.5117 13.2871 36.5215 13.248 36.541 13.209C36.5605 13.1699 36.5801 13.1406 36.5996 13.1211C36.873 12.3398 37.0488 11.7441 37.127 11.334L37.1855 11.0996V10.9531L37.1562 11.1289L37.1855 10.9824L37.2148 10.2207C37.2148 10.0254 37.2051 9.83984 37.1855 9.66406V9.54688C37.166 9.48828 37.1562 9.44922 37.1562 9.42969C37.1562 9.39063 37.1465 9.37109 37.127 9.37109L37.1855 9.57617C37.1465 9.45898 37.127 9.35156 37.127 9.25391L36.8633 8.46289C36.9023 8.56055 36.9219 8.61914 36.9219 8.63867C36.9219 8.6582 36.9316 8.66797 36.9512 8.66797H36.9219C36.9219 8.57031 36.834 8.38477 36.6582 8.11133C36.502 7.83789 36.4043 7.68164 36.3652 7.64258C36.3262 7.60352 36.3066 7.56445 36.3066 7.52539L36.2773 7.49609H36.3066C36.3066 7.51563 36.3359 7.55469 36.3945 7.61328V7.67188L36.1895 7.4668C35.916 7.1543 35.6719 6.91992 35.457 6.76367C35.4766 6.76367 35.4961 6.7832 35.5156 6.82227C35.5547 6.8418 35.5938 6.85156 35.6328 6.85156V6.88086L34.959 6.5L34.6953 6.38281C34.5586 6.34375 34.4414 6.31445 34.3438 6.29492C34.2461 6.27539 34.1875 6.25586 34.168 6.23633H34.1387C34.1582 6.25586 34.2168 6.26562 34.3145 6.26562H33.6699L33.6992 6.23633H33.9043C33.8262 6.23633 33.7578 6.24609 33.6992 6.26562C33.6602 6.28516 33.6309 6.29492 33.6113 6.29492C33.1035 6.39258 32.6934 6.51953 32.3809 6.67578C32.3809 6.65625 32.4004 6.64648 32.4395 6.64648C32.4785 6.62695 32.5176 6.60742 32.5566 6.58789H32.5273C32.4688 6.64648 32.4004 6.67578 32.3223 6.67578C31.3652 7.14453 30.623 7.59375 30.0957 8.02344L30.2129 7.90625L30.125 7.99414C30.0664 8.05273 30.0176 8.0918 29.9785 8.11133C29.959 8.11133 29.9492 8.12109 29.9492 8.14062L29.5977 8.4043C29.0508 8.95117 28.6895 9.33203 28.5137 9.54688L28.6895 9.3418L28.6602 9.40039C28.582 9.47852 28.543 9.52734 28.543 9.54688C28.0352 10.2109 27.2148 11.5098 26.082 13.4434C24.168 16.6465 22.332 20.2598 20.5742 24.2832L20.6328 24.166L20.5156 24.4004V24.4883L20.3105 24.8984L19.9297 25.8359C17.7812 31.1094 15.75 36.8613 13.8359 43.0918C13.6602 43.6582 13.3281 44.0684 12.8398 44.3223C12.5273 44.498 12.1758 44.5859 11.7852 44.5859C10.9648 44.5859 10.3691 44.2441 9.99805 43.5605C9.80273 43.248 9.70508 42.916 9.70508 42.5645C9.70508 42.1152 10.6523 39.0879 12.5469 33.4824C15.9258 23.502 19.4512 13.5801 23.123 3.7168L27.1953 4.80078C26.1406 7.75 25.0078 10.6602 23.7969 13.5312C22.7227 16.0312 21.502 18.4434 20.1348 20.7676C15.7598 28.1895 9.99805 33.043 2.84961 35.3281C2.6543 35.3672 2.46875 35.3867 2.29297 35.3867C1.92188 35.3867 1.54102 35.2695 1.15039 35.0352C0.740234 34.8008 0.4375 34.4199 0.242188 33.8926C0.183594 33.6973 0.154297 33.502 0.154297 33.3066C0.154297 32.9746 0.28125 32.6133 0.535156 32.2227C0.789062 31.832 1.18945 31.5488 1.73633 31.373C2.77148 31.041 3.43555 30.8066 3.72852 30.6699H3.78711L3.64062 30.6992L3.72852 30.6699C3.76758 30.6699 3.92383 30.6016 4.19727 30.4648C5.70117 29.7617 7.06836 28.9609 8.29883 28.0625C8.31836 28.0625 8.32812 28.0527 8.32812 28.0332C8.34766 28.0137 8.37695 27.9941 8.41602 27.9746C8.45508 27.9355 8.50391 27.8965 8.5625 27.8574H8.5918V27.8281L8.47461 27.9453L8.73828 27.7402C9.36328 27.2715 10.0078 26.7148 10.6719 26.0703C11.9609 24.8594 12.9473 23.8047 13.6309 22.9062L13.8652 22.6426V22.6133C13.8652 22.6328 13.8457 22.6621 13.8066 22.7012C13.7871 22.7207 13.7773 22.7402 13.7773 22.7598V22.7305L13.9824 22.4961V22.4668C14.3145 22.0371 14.6367 21.5977 14.9492 21.1484C16.9414 18.2383 18.7188 14.8984 20.2812 11.1289C21.1992 8.88281 22.0977 6.53906 22.9766 4.09766C23.0352 3.98047 23.084 3.85352 23.123 3.7168C23.5332 2.74023 24.2168 2.25195 25.1738 2.25195C25.9746 2.25195 26.5801 2.58398 26.9902 3.24805C27.1855 3.58008 27.2832 3.91211 27.2832 4.24414C27.2832 4.47852 26.2188 7.4668 24.0898 13.209C20.4375 23.0918 17.0195 33.0527 13.8359 43.0918L9.79297 42.0078C11.6875 35.7188 13.8945 29.5273 16.4141 23.4336C18.6992 17.9453 21.4727 12.7012 24.7344 7.70117C26.4141 5.33789 28.6406 3.64844 31.4141 2.63281C32.293 2.35938 33.1426 2.22266 33.9629 2.22266C35.877 2.22266 37.6055 2.99414 39.1484 4.53711C40.6328 6.2168 41.375 8.0332 41.375 9.98633C41.375 11.9785 40.9062 13.8926 39.9688 15.7285C39.0312 17.5645 37.8691 19.1953 36.4824 20.6211C32.9277 24.1758 28.1426 26.7734 22.127 28.4141L20.9844 24.459C22.0781 24.2637 23.1719 24.166 24.2656 24.166C28.3477 24.166 31.4824 24.7031 33.6699 25.7773C36.541 27.3789 37.9766 30.0156 37.9766 33.6875C37.9766 35.0742 37.6934 36.6855 37.127 38.5215C36.5605 40.3379 35.6426 42.1934 34.373 44.0879C33.7285 45.123 32.9766 46.1191 32.1172 47.0762C30.1055 49.3223 27.7812 50.4453 25.1445 50.4453ZM51.732 44.0586C50.4234 44.0586 49.1051 43.7656 47.777 43.1797C46.4488 42.5938 45.4039 41.6172 44.6422 40.25C44.0758 39.0781 43.7926 37.877 43.7926 36.6465C43.7926 34.8691 44.2809 32.9453 45.2574 30.875C46.5074 28.2578 48.1285 25.8945 50.1207 23.7852C52.3863 21.2852 54.857 19.9961 57.5328 19.918C58.8414 19.918 60.0914 20.2402 61.2828 20.8848C62.4938 21.5293 63.402 22.4473 64.0074 23.6387C64.3785 24.498 64.5641 25.3379 64.5641 26.1582C64.5641 28.1309 63.6168 30.0059 61.7223 31.7832C59.2418 34.0293 56.3512 35.1523 53.0504 35.1523C51.0777 35.1523 49.1832 34.6934 47.3668 33.7754C46.6832 33.4043 46.3414 32.7988 46.3414 31.959C46.3414 31.5879 46.4293 31.2266 46.6051 30.875C46.9957 30.2109 47.6012 29.8789 48.4215 29.8789C48.773 29.8789 49.2125 30.0059 49.7398 30.2598L50.0621 30.4062C50.0426 30.4062 50.023 30.4062 50.0035 30.4062C49.984 30.4062 49.9547 30.3965 49.9156 30.377C49.8766 30.3574 49.857 30.3379 49.857 30.3184L50.0914 30.4062C50.5016 30.6016 50.9801 30.7383 51.527 30.8164C51.6441 30.875 51.8004 30.9043 51.9957 30.9043L51.7906 30.875C51.8883 30.9141 52.2789 30.9336 52.9625 30.9336C53.6266 30.9336 54.0758 30.9141 54.3102 30.875C54.2125 30.9141 54.1441 30.9336 54.1051 30.9336H54.0758L54.2809 30.875C54.3199 30.875 54.3492 30.8652 54.3688 30.8457C55.3063 30.6895 56.0289 30.4844 56.5367 30.2305L56.3023 30.3184C56.6344 30.2012 57.025 30.0059 57.4742 29.7324C57.9234 29.459 58.1773 29.293 58.2359 29.2344L58.3824 29.1172L58.2066 29.2637L58.3238 29.1758C59.1637 28.3359 59.5836 27.916 59.5836 27.916L59.6715 27.7988L59.5543 27.9746V27.916C59.6324 27.7988 59.691 27.7207 59.7301 27.6816C59.7691 27.623 59.8082 27.5547 59.8473 27.4766C59.9449 27.3398 60.023 27.2129 60.0816 27.0957C60.1598 26.959 60.1988 26.8906 60.1988 26.8906C60.1988 26.8711 60.2086 26.8516 60.2281 26.832L60.1695 26.9492L60.3453 26.4219L60.3746 26.2461V25.8652L60.4039 25.8359L60.4332 25.8652C60.4332 25.8848 60.4332 25.9043 60.4332 25.9238C60.4332 25.9434 60.443 25.9629 60.4625 25.9824C60.4625 26.0215 60.4527 26.041 60.4332 26.041C60.4137 26.0215 60.3941 25.9922 60.3746 25.9531C60.3746 25.9141 60.3648 25.875 60.3453 25.8359C60.3453 25.7969 60.3355 25.7578 60.316 25.7188C60.2965 25.6797 60.2867 25.6406 60.2867 25.6016C60.2867 25.5625 60.2965 25.543 60.316 25.543L60.4039 25.748L60.316 25.6602C60.2379 25.5039 60.1891 25.4258 60.1695 25.4258C60.1695 25.4062 60.1598 25.377 60.1402 25.3379C60.1207 25.2988 60.0816 25.2402 60.023 25.1621L60.1695 25.3086L59.5543 24.7227L59.7594 24.8984L58.8512 24.3418V24.3125L59.0563 24.459L58.8219 24.3418C58.3922 24.2246 58.1285 24.166 58.0309 24.166C57.9527 24.1465 57.9137 24.127 57.9137 24.1074L57.943 24.0781L58.148 24.166C58.0699 24.127 57.9723 24.1074 57.8551 24.1074C57.7379 24.1074 57.6305 24.1172 57.5328 24.1367H57.2691C57.152 24.1367 57.0934 24.1465 57.0934 24.166C57.0934 24.127 57.1617 24.1074 57.2984 24.1074C57.2594 24.1465 57.1324 24.1855 56.9176 24.2246C56.7027 24.2637 56.5172 24.3125 56.3609 24.3711C56.2242 24.4297 56.0973 24.4785 55.9801 24.5176L56.1559 24.4297L55.9801 24.5176C55.4137 24.8301 55.0523 25.0352 54.8961 25.1328L54.691 25.2793L54.6031 25.3672C54.6031 25.3477 54.6227 25.3281 54.6617 25.3086C54.7008 25.2891 54.7301 25.2695 54.7496 25.25L53.6363 26.2461C53.1285 26.7344 52.5523 27.3789 51.9078 28.1797L51.7613 28.3555H51.7906C51.7906 28.3164 51.8199 28.2676 51.8785 28.209L51.5855 28.6191C50.7457 29.7129 49.9059 31.0508 49.066 32.6328L48.9781 32.8965C48.9 33.0137 48.8609 33.1016 48.8609 33.1602L48.8902 33.043C48.5191 33.9414 48.2555 34.8398 48.0992 35.7383L48.0699 35.9141L48.0992 35.7676C48.0602 36.0996 48.0406 36.4316 48.0406 36.7637V37.1445C48.0406 37.3594 48.109 37.6719 48.2457 38.082C48.2457 38.0234 48.2359 37.9746 48.2164 37.9355L48.3336 38.1992C48.3922 38.3555 48.4996 38.5117 48.6559 38.668L48.5094 38.5215C48.6656 38.6973 48.8316 38.8535 49.0074 38.9902L49.1246 39.1367C49.1246 39.1172 49.1148 39.1074 49.0953 39.1074C49.0953 39.0879 49.0563 39.0488 48.9781 38.9902L49.5055 39.3418C49.5836 39.3613 49.652 39.3906 49.7105 39.4297C49.7691 39.4688 49.8082 39.498 49.8277 39.5176C49.8473 39.5176 49.857 39.5273 49.857 39.5469L49.7984 39.4883C49.7203 39.4688 49.6813 39.4492 49.6813 39.4297C50.2281 39.6055 50.5113 39.6934 50.5309 39.6934C50.5699 39.6934 50.6285 39.7031 50.7066 39.7227C50.7848 39.7422 50.8434 39.7617 50.8824 39.7812C50.9215 39.7812 50.9508 39.7812 50.9703 39.7812H50.8531C51.2047 39.8203 51.566 39.8398 51.9371 39.8398L52.9918 39.752H52.9332L53.5191 39.6641C54.7887 39.3711 55.9508 39.0391 57.0055 38.668L57.9137 38.3164L58.2652 38.1699C58.2457 38.1895 58.2164 38.1992 58.1773 38.1992C58.1578 38.1992 58.1383 38.2188 58.1188 38.2578C58.1188 38.2383 58.1773 38.209 58.2945 38.1699C59.9742 37.4277 61.7418 36.1973 63.5973 34.4785C65.4527 32.7402 66.8102 31.4414 67.6695 30.582C68.0992 30.1719 68.5973 29.9668 69.1637 29.9668C69.7105 29.9863 70.1891 30.1914 70.5992 30.582C71.0289 30.9727 71.2438 31.4414 71.2438 31.9883C71.2438 32.0273 71.234 32.1934 71.2145 32.4863C71.2145 32.7793 71.0191 33.1406 70.6285 33.5703C66.6051 38.2578 62.1715 41.4121 57.3277 43.0332C55.2965 43.7168 53.4313 44.0586 51.732 44.0586ZM69.2668 53.7852C68.173 53.7852 67.0891 53.5605 66.0148 53.1113C64.218 52.2715 63.0949 50.8945 62.6457 48.9805C62.5871 48.5508 62.5578 48.1309 62.5578 47.7207C62.5578 46.3535 62.8508 45.0254 63.4367 43.7363C64.7844 40.6895 66.8156 38.209 69.5305 36.2949C74.2766 32.9941 80.4973 30.9336 88.1926 30.1133C88.8371 30.1133 89.3352 30.3281 89.6867 30.7578C90.0578 31.1875 90.2629 31.6758 90.302 32.2227C90.302 32.8281 90.0871 33.3164 89.6574 33.6875C89.2473 34.0391 88.759 34.2539 88.1926 34.332L87.2844 34.4199H87.4016L86.8449 34.5078C83.5832 34.918 80.2043 35.7969 76.7082 37.1445L76.298 37.3203L75.9758 37.4668C75.0578 37.8574 74.0715 38.375 73.0168 39.0195C72.3137 39.4688 71.8645 39.7715 71.6691 39.9277C71.6301 39.9473 71.6008 39.9668 71.5813 39.9863C71.5617 39.9863 71.5031 40.0254 71.4055 40.1035L71.552 40.0156C70.7316 40.5625 69.9406 41.3145 69.1789 42.2715L68.798 42.7402C68.798 42.7207 68.798 42.7012 68.798 42.6816C68.8176 42.6621 68.8273 42.6523 68.8273 42.6523C68.8469 42.6328 68.8859 42.5938 68.9445 42.5352C68.8664 42.5938 68.8273 42.6523 68.8273 42.7109C68.2414 43.5117 67.802 44.2539 67.509 44.9375C67.4895 44.9961 67.4699 45.0352 67.4504 45.0547C67.4309 45.0742 67.4113 45.123 67.3918 45.2012V45.1719L67.4211 45.0547H67.4504L67.3625 45.2305C67.1281 45.8555 66.9719 46.3633 66.8938 46.7539L66.7473 47.3398L66.718 47.3984L66.7473 47.1934L66.718 47.5449V47.7793C66.718 47.8379 66.7277 47.8867 66.7473 47.9258V48.0137C66.7863 48.1113 66.8059 48.209 66.8059 48.3066C66.8254 48.3066 66.8352 48.3164 66.8352 48.3359C66.8352 48.3555 66.8449 48.3848 66.8645 48.4238C66.8645 48.4824 66.8742 48.5117 66.8938 48.5117V48.4824C66.8352 48.4238 66.8059 48.375 66.8059 48.3359C66.7863 48.3164 66.7766 48.2969 66.7766 48.2773L66.8059 48.3066C66.8059 48.3262 66.8254 48.3555 66.8645 48.3945C66.884 48.4336 66.9035 48.4727 66.923 48.5117C66.9426 48.5703 66.9719 48.6289 67.0109 48.6875C67.0305 48.7656 67.0598 48.8047 67.0988 48.8047C67.0207 48.8047 66.9816 48.7754 66.9816 48.7168L66.9523 48.6582H66.9816C66.9816 48.6777 67.1086 48.8145 67.3625 49.0684L67.4797 49.1562L67.4504 49.127C67.4309 49.127 67.4113 49.1172 67.3918 49.0977C67.3723 49.0977 67.3527 49.0879 67.3332 49.0684C67.3137 49.0684 67.3039 49.0586 67.3039 49.0391L67.6555 49.2148C67.7727 49.332 67.8898 49.3906 68.007 49.3906L67.7727 49.332C67.8313 49.332 67.8801 49.3418 67.9191 49.3613C67.9582 49.3809 68.134 49.4297 68.4465 49.5078C68.5246 49.5469 68.6223 49.5664 68.7395 49.5664L68.5344 49.5371C68.593 49.5566 68.7102 49.5664 68.8859 49.5664C69.0813 49.5859 69.2766 49.5957 69.4719 49.5957C69.5109 49.5762 69.6379 49.5664 69.8527 49.5664C69.8527 49.5859 69.8234 49.5957 69.7648 49.5957H69.6477L70.1164 49.5078L70.966 49.2441L71.0832 49.2148C71.0832 49.1758 71.1125 49.1562 71.1711 49.1562L71.2297 49.127H71.259L71.4934 49.0098C71.8645 48.7949 72.2258 48.5605 72.5773 48.3066L72.6652 48.2773C72.6457 48.2969 72.6164 48.3164 72.5773 48.3359C72.5578 48.3555 72.5383 48.3652 72.5188 48.3652C72.5188 48.3848 72.509 48.3945 72.4895 48.3945C73.1535 47.8477 73.6906 47.3203 74.1008 46.8125L74.218 46.6953L74.1594 46.7832V46.7539C74.1594 46.7344 74.1789 46.7051 74.218 46.666C74.6281 46.0801 74.9992 45.4551 75.3313 44.791L75.4191 44.6152V44.5859L75.4484 44.498C75.468 44.4199 75.4973 44.3516 75.5363 44.293C75.6535 43.8633 75.7512 43.4629 75.8293 43.0918L75.8586 43.0625C75.8586 42.9648 75.8684 42.9062 75.8879 42.8867L75.8586 43.0039C75.8977 42.6133 75.9172 42.2324 75.9172 41.8613C75.9172 41.627 75.9074 41.4023 75.8879 41.1875V40.9531L75.8586 40.748L75.8879 40.8652V41.0117L75.9172 40.8945C75.9172 40.7578 75.8488 40.4844 75.7121 40.0742C75.673 39.918 75.5168 39.4297 75.2434 38.6094C75.2824 38.7266 75.302 38.7949 75.302 38.8145C75.302 38.8145 75.3117 38.8145 75.3313 38.8145L75.2141 38.6094C75.0188 38.1797 74.7844 37.7598 74.5109 37.3496C74.3547 37.1543 74.2766 37.0273 74.2766 36.9688H74.2473L74.3645 37.1152L74.1594 36.8809C73.7688 36.4121 73.3391 35.9922 72.8703 35.6211L72.9875 35.7383V35.709L72.7531 35.5625C72.4406 35.3281 71.8938 34.9961 71.1125 34.5664C69.9406 33.9805 68.8859 33.2383 67.9484 32.3398C66.6789 30.9727 66.0441 29.4102 66.0441 27.6523C66.0441 27.3398 66.0637 27.0273 66.1027 26.7148C66.4543 24.6836 67.2941 22.877 68.6223 21.2949C69.2277 20.5137 69.9504 19.8008 70.7902 19.1562C72.1184 18.1406 73.5344 17.6328 75.0383 17.6328C76.8938 17.6328 78.3781 18.375 79.4914 19.8594C80.1164 20.7773 80.4387 21.7734 80.4582 22.8477C80.4582 23.9219 80.2434 24.957 79.8137 25.9531C78.9152 27.7109 77.6652 29.1758 76.0637 30.3477C74.4035 31.6562 72.5773 32.6621 70.5852 33.3652C70.3703 33.4238 70.1652 33.4531 69.9699 33.4531C69.6184 33.4531 69.2473 33.3262 68.8566 33.0723C68.466 32.8184 68.173 32.4277 67.9777 31.9004C67.9191 31.7051 67.8898 31.5098 67.8898 31.3145C67.8898 30.9629 68.0168 30.5918 68.2707 30.2012C68.5246 29.791 68.9152 29.4883 69.4426 29.293L70.2043 29.0293L70.0871 29.0586C70.1066 29.0391 70.1359 29.0293 70.175 29.0293C70.2141 29.0098 70.2531 28.9902 70.2922 28.9707L70.4973 28.8828C71.259 28.5508 72.05 28.0918 72.8703 27.5059C72.9484 27.4668 73.0363 27.4082 73.134 27.3301L73.2512 27.2422C73.2316 27.2422 73.2023 27.2617 73.1633 27.3008C74.0813 26.5781 74.7648 25.9336 75.2141 25.3672C75.3117 25.2695 75.3703 25.2012 75.3898 25.1621L75.302 25.25V25.2793L75.4191 25.1328C75.5754 24.918 75.7121 24.7031 75.8293 24.4883L75.9758 24.2539C75.9758 24.1953 75.9855 24.1465 76.0051 24.1074C76.0441 24.0488 76.0734 24.0098 76.093 23.9902L76.0344 24.1074L76.093 23.9609C76.093 23.9219 76.1418 23.7559 76.2395 23.4629V22.9062C76.2395 22.8672 76.2297 22.8086 76.2102 22.7305C76.2102 22.6328 76.1711 22.5059 76.093 22.3496V22.2617C76.093 22.3203 76.1125 22.3691 76.1516 22.4082V22.4668L75.9758 22.1445C75.9563 22.125 75.9367 22.1152 75.9172 22.1152C75.8977 22.0957 75.8879 22.0762 75.8879 22.0566V22.0859C75.9074 22.0859 75.927 22.1055 75.9465 22.1445C75.9855 22.1836 76.0148 22.2031 76.0344 22.2031V22.1738C75.9953 22.1738 75.9465 22.1445 75.8879 22.0859L75.8 21.998L75.8879 22.0566C75.7512 21.998 75.634 21.9297 75.5363 21.8516H75.507H75.5363C75.5363 21.8711 75.5461 21.8906 75.5656 21.9102C75.5852 21.9102 75.6047 21.9199 75.6242 21.9395C75.6633 21.9395 75.6828 21.9492 75.6828 21.9688C75.6828 21.9492 75.6535 21.9395 75.5949 21.9395C75.5363 21.9395 75.4484 21.9102 75.3313 21.8516H74.7746L74.9504 21.8223L74.8918 21.8516C74.5598 21.9102 74.3352 21.9688 74.218 22.0273L74.1008 22.0566L74.2473 22.0273L74.1887 22.0566C74.0715 22.1152 73.9836 22.1543 73.925 22.1738C73.8664 22.1934 73.6613 22.3203 73.3098 22.5547L73.134 22.6719C73.134 22.6523 73.134 22.6426 73.134 22.6426C73.1535 22.623 73.1633 22.6133 73.1633 22.6133C73.1828 22.5938 73.2023 22.5742 73.2219 22.5547H73.2512C73.2512 22.5742 73.2316 22.5938 73.1926 22.6133L72.5188 23.2578L71.6105 24.2539H71.5813H71.6105L71.6984 24.1367V24.1074C71.6984 24.166 71.6398 24.2539 71.5227 24.3711C71.5031 24.4297 71.4738 24.4785 71.4348 24.5176C71.2004 24.8887 70.9855 25.25 70.7902 25.6016L70.7609 25.6895C70.7023 25.8066 70.6633 25.8848 70.6438 25.9238V25.9824L70.673 25.8652C70.5168 26.2363 70.3996 26.627 70.3215 27.0371C70.2824 27.252 70.2531 27.3691 70.2336 27.3887L70.2629 27.3301V27.8867C70.2629 27.9844 70.2727 28.043 70.2922 28.0625V28.1504C70.2727 28.1309 70.2629 28.0723 70.2629 27.9746L70.2336 27.9453H70.2629C70.2629 28.043 70.2727 28.0918 70.2922 28.0918L70.3508 28.3848L70.468 28.707C70.4484 28.707 70.4289 28.6973 70.4094 28.6777C70.4094 28.6582 70.4094 28.6387 70.4094 28.6191C70.4094 28.5996 70.3996 28.5801 70.3801 28.5605L70.7023 29.0879C70.7023 29.1074 70.7316 29.1465 70.7902 29.2051L70.8488 29.293V29.2637C70.8293 29.2637 70.7805 29.2246 70.7023 29.1465H70.7316C70.7512 29.166 70.7609 29.1855 70.7609 29.2051C70.7805 29.2051 70.8 29.2246 70.8195 29.2637C70.8586 29.2832 70.8781 29.3027 70.8781 29.3223C71.0734 29.5176 71.298 29.7227 71.552 29.9375L71.4348 29.8203H71.4641C71.4836 29.8398 71.5031 29.8691 71.5227 29.9082C71.5617 29.9277 71.6008 29.9473 71.6398 29.9668C71.7766 30.084 72.3234 30.416 73.2805 30.9629C77.1672 33.1113 79.4133 36.2363 80.0188 40.3379C80.0773 40.8652 80.1066 41.3828 80.1066 41.8906C80.1066 45.0547 78.9348 47.877 76.591 50.3574C75.2043 51.8223 73.5637 52.8379 71.6691 53.4043C70.8684 53.6582 70.0676 53.7852 69.2668 53.7852ZM94.5359 44.1172C93.6375 44.1172 92.7293 43.9805 91.8113 43.707C89.9559 43.1016 88.5789 41.9297 87.6805 40.1914C87.075 38.7852 86.7723 37.3301 86.7723 35.8262C86.7723 33.9902 87.1434 31.7148 87.8855 29C89.3699 22.75 91.4305 16.8906 94.0672 11.4219C95.8641 7.55469 97.9441 4.57617 100.307 2.48633C102.085 0.923828 103.911 0.142578 105.786 0.142578L106.401 0.171875C108.979 0.464844 110.679 1.75391 111.499 4.03906C111.714 4.70313 111.821 5.36719 111.821 6.03125C111.821 8.0625 110.845 10.9824 108.891 14.791C105.337 21.7637 99.868 27.75 92.4852 32.75C92.1531 32.9453 91.8113 33.043 91.4598 33.043C90.6785 33.043 90.0535 32.6914 89.5848 31.9883C89.3895 31.6562 89.2918 31.3145 89.2918 30.9629C89.2918 30.2012 89.6531 29.5762 90.3758 29.0879C91.0984 28.5801 91.8211 28.0527 92.5437 27.5059C92.5633 27.5059 92.5926 27.4961 92.6316 27.4766C92.6707 27.4375 92.7 27.418 92.7195 27.418C92.7391 27.3984 92.8074 27.3398 92.9246 27.2422L92.8367 27.3008C92.8953 27.2422 93.0613 27.1152 93.3348 26.9199C94.6434 25.8457 95.659 24.9668 96.3816 24.2832C97.9051 22.8379 99.4383 21.1973 100.981 19.3613L101.421 18.7754V18.8047L101.333 18.8926C101.333 18.873 101.352 18.8535 101.391 18.834L101.567 18.5703C103.442 16.0898 105.044 13.3066 106.372 10.2207C106.391 10.1426 106.421 10.0742 106.46 10.0156C106.499 9.9375 106.538 9.85938 106.577 9.78125L106.606 9.66406V9.72266L106.548 9.78125L106.606 9.66406C107.036 8.64844 107.339 7.70117 107.514 6.82227C107.554 6.70508 107.573 6.58789 107.573 6.4707V6.67578H107.544L107.573 5.91406C107.573 5.66016 107.563 5.5332 107.544 5.5332L107.573 5.62109V5.76758H107.602C107.602 5.65039 107.573 5.57227 107.514 5.5332C107.514 5.47461 107.505 5.43555 107.485 5.41602C107.485 5.37695 107.475 5.33789 107.456 5.29883C107.436 5.25977 107.427 5.2207 107.427 5.18164L107.514 5.35742L107.427 5.21094C107.348 5.13281 107.309 5.06445 107.309 5.00586C107.329 5.00586 107.358 5.03516 107.397 5.09375L106.958 4.6543C106.958 4.69336 106.997 4.73242 107.075 4.77148C106.919 4.6543 106.821 4.58594 106.782 4.56641C106.743 4.54687 106.723 4.52734 106.723 4.50781H106.782L106.811 4.53711L105.991 4.33203H106.02C106.059 4.35156 106.128 4.36133 106.225 4.36133C105.874 4.36133 105.571 4.37109 105.317 4.39062L105.464 4.36133C105.425 4.40039 105.346 4.41992 105.229 4.41992C105.132 4.45898 105.063 4.47852 105.024 4.47852C105.005 4.47852 104.975 4.48828 104.936 4.50781C104.897 4.52734 104.858 4.53711 104.819 4.53711L104.614 4.625L104.731 4.56641L104.497 4.68359C104.302 4.78125 104.116 4.88867 103.94 5.00586C103.843 5.08398 103.735 5.15234 103.618 5.21094L103.53 5.24023L103.647 5.15234C103.589 5.21094 103.54 5.25977 103.501 5.29883C103.462 5.31836 103.442 5.33789 103.442 5.35742C102.602 6.04102 101.87 6.79297 101.245 7.61328L101.186 7.70117H101.157L101.069 7.81836L101.011 7.90625C100.19 8.96094 99.3895 10.2402 98.6082 11.7441C97.6902 13.5215 96.8406 15.3477 96.0594 17.2227L95.9715 17.457L96.0301 17.2812V17.3398L95.6785 18.1309C93.8621 22.7402 92.3777 27.8086 91.2254 33.3359C91.2059 33.5117 91.1766 33.6777 91.1375 33.834V34.0098L91.1082 34.0977L91.1375 33.8633C91.1375 33.9805 91.1277 34.0391 91.1082 34.0391C91.0496 34.6445 91.0203 35.25 91.0203 35.8555C91.0203 36.2461 91.0398 36.627 91.0789 36.998V37.0566L91.0496 36.998V36.9688C91.0691 36.9688 91.0789 37.0176 91.0789 37.1152C91.2156 37.7598 91.323 38.1211 91.4012 38.1992C91.4012 38.2383 91.4207 38.2773 91.4598 38.3164C91.4012 38.3164 91.3719 38.2578 91.3719 38.1406H91.3426L91.3719 38.1699C91.3719 38.1895 91.3719 38.2188 91.3719 38.2578C91.3914 38.2773 91.4402 38.3359 91.5184 38.4336C91.5965 38.5312 91.6551 38.6387 91.6941 38.7559L91.7234 38.8145V38.7852C91.7039 38.7852 91.6844 38.7754 91.6648 38.7559C91.6648 38.7363 91.6551 38.7168 91.6355 38.6973C91.6355 38.6582 91.616 38.6387 91.577 38.6387L92.1922 39.2539C92.1727 39.2539 92.1141 39.2051 92.0164 39.1074L92.2508 39.2832L92.8953 39.6348C92.8367 39.6348 92.7684 39.6055 92.6902 39.5469H92.6609C92.6805 39.5664 92.7293 39.5859 92.8074 39.6055L93.0711 39.6934L93.657 39.8398C93.7547 39.8398 93.823 39.8496 93.8621 39.8691H93.95V39.8984C93.9305 39.8984 93.9012 39.8984 93.8621 39.8984C93.823 39.8789 93.7937 39.8594 93.7742 39.8398H93.6863C93.7645 39.8984 93.8816 39.9277 94.0379 39.9277C94.3895 39.9277 94.6043 39.9082 94.6824 39.8691C94.9949 39.8691 95.1805 39.8594 95.2391 39.8398H95.327L95.2977 39.8691H95.2098L95.2684 39.8398H95.3562C96.0203 39.7422 96.6453 39.5664 97.2312 39.3125C97.3289 39.2734 97.3973 39.2539 97.4363 39.2539L97.2312 39.3418L97.2898 39.3125C97.3289 39.2734 97.368 39.2539 97.407 39.2539C97.4461 39.2344 97.4852 39.2148 97.5242 39.1953C98.4422 38.8047 100.063 37.7207 102.387 35.9434C102.446 35.8652 102.524 35.8066 102.622 35.7676C102.563 35.8262 102.514 35.8555 102.475 35.8555V35.8848C102.573 35.8066 102.632 35.7676 102.651 35.7676C102.671 35.748 102.69 35.7188 102.71 35.6797L103.061 35.416C105.561 33.3652 107.212 31.7734 108.012 30.6406C108.052 30.6211 108.081 30.5918 108.1 30.5527C108.12 30.5137 108.139 30.4941 108.159 30.4941C108.179 30.4746 108.188 30.4551 108.188 30.4355L108.13 30.5234L108.218 30.4062C108.725 29.7227 109.321 29.3809 110.005 29.3809C110.337 29.3809 110.698 29.4688 111.089 29.6445C111.811 30.0742 112.173 30.709 112.173 31.5488C112.173 31.9004 112.065 32.2324 111.85 32.5449C111.245 33.3457 110.6 34.1172 109.917 34.8594C107.358 37.4961 104.526 39.8008 101.421 41.7734C100.014 42.7109 98.4812 43.3945 96.8211 43.8242C96.0594 44.0195 95.2977 44.1172 94.5359 44.1172ZM114.897 15.3477L89.0574 14.9961C88.452 14.9766 87.9539 14.7715 87.5633 14.3809C87.1922 13.9707 86.9871 13.4727 86.948 12.8867C86.948 12.3008 87.1531 11.8027 87.5633 11.3926C87.993 10.9824 88.491 10.7773 89.0574 10.7773L114.897 11.1289C115.503 11.1484 115.991 11.3535 116.362 11.7441C116.753 12.1348 116.968 12.6328 117.007 13.2383C117.007 13.8242 116.802 14.3223 116.391 14.7324C115.981 15.123 115.483 15.3281 114.897 15.3477ZM133.707 46.8125C132.926 46.8125 132.33 46.4805 131.92 45.8164C131.725 45.5039 131.627 45.1816 131.627 44.8496C131.627 44.5176 133.58 39.2246 137.486 28.9707C139.459 23.7949 140.611 20.7578 140.943 19.8594C141.295 18.9414 143.258 13.7559 146.832 4.30273C148.316 4.88867 149.596 5.41602 150.67 5.88477C148.014 11.7832 145.23 17.0566 142.32 21.7051C139.02 26.959 135.104 30.5918 130.572 32.6035C128.424 33.5605 125.807 34.6055 122.721 35.7383L121.637 35.7969C121.051 35.4844 120.758 35.0059 120.758 34.3613C120.523 33.5801 120.826 32.9453 121.666 32.457C122.096 32.125 123.092 31.5684 124.654 30.7871C126.217 29.9863 127.428 29.4199 128.287 29.0879L128.639 28.9707L129.84 28.3848C130.094 28.248 130.992 27.6914 132.535 26.7148L132.418 26.8027C132.438 26.7832 132.447 26.7734 132.447 26.7734C132.467 26.7734 132.486 26.7637 132.506 26.7441C132.525 26.7051 132.555 26.6855 132.594 26.6855C134.078 25.4355 135.416 24.0781 136.607 22.6133C136.588 22.6523 136.568 22.6719 136.549 22.6719L136.607 22.584C137.76 21.0605 138.746 19.6152 139.566 18.248C142.34 13.5801 144.85 8.77539 147.096 3.83398C147.408 3.15039 147.994 2.80859 148.854 2.80859C149.693 2.80859 150.328 3.18945 150.758 3.95117C150.914 4.24414 150.992 4.53711 150.992 4.83008C150.992 5.00586 150.953 5.19141 150.875 5.38672L135.758 45.3477L131.715 44.2637L134.322 37.291C136.471 31.5879 138.863 25.9922 141.5 20.5039C144.469 14.3516 148.102 9.74219 152.398 6.67578C155.211 4.64453 158.082 3.62891 161.012 3.62891C163.355 3.62891 165.143 4.52734 166.373 6.32422C167.623 8.12109 168.248 10.3086 168.248 12.8867C168.248 15.2109 167.633 17.7305 166.402 20.4453C165.133 23.2773 163.326 25.7285 160.982 27.7988C158.307 30.1816 155.172 31.5781 151.578 31.9883C151.129 32.0469 150.689 32.0762 150.26 32.0762C147.271 32.0762 144.479 31.2559 141.881 29.6152L144.459 26.3926L145.133 26.9492C145.133 26.9297 145.123 26.9199 145.104 26.9199C145.084 26.9199 145.064 26.9199 145.045 26.9199C145.045 26.9004 145.035 26.8906 145.016 26.8906C144.996 26.8711 144.986 26.8516 144.986 26.832C144.986 26.8711 145.045 26.9102 145.162 26.9492C145.162 26.9883 145.631 27.3105 146.568 27.916C147.799 28.7168 149.049 29.3809 150.318 29.9082L150.641 30.0254V30.0547L150.494 29.9961V29.9668C150.494 29.9863 150.514 30.0059 150.553 30.0254C152.35 30.709 154.205 31.2168 156.119 31.5488C156.646 31.6465 156.93 31.7051 156.969 31.7246L156.91 31.6953H156.939C156.959 31.7148 157.008 31.7246 157.086 31.7246C158.082 31.8613 159.215 31.9297 160.484 31.9297C161.5 31.9297 162.535 31.8711 163.59 31.7539C163.707 31.7539 163.766 31.7441 163.766 31.7246C163.766 31.7441 163.717 31.7539 163.619 31.7539C165.338 31.4609 166.861 31.1191 168.189 30.7285C168.385 30.6699 168.58 30.6406 168.775 30.6406C169.127 30.6406 169.498 30.7676 169.889 31.0215C170.299 31.2559 170.592 31.6367 170.768 32.1641C170.826 32.3594 170.855 32.5547 170.855 32.75C170.855 33.082 170.729 33.4434 170.475 33.834C170.24 34.2051 169.85 34.4785 169.303 34.6543C166.393 35.5723 163.434 36.0312 160.426 36.0312C153.297 36.0312 146.988 33.7754 141.5 29.2637C141.09 28.9316 140.885 28.4727 140.885 27.8867C140.885 27.418 141.031 26.998 141.324 26.627C141.773 26.0605 142.33 25.7773 142.994 25.7773C143.346 25.7773 143.688 25.875 144.02 26.0703C144.703 26.5 145.318 26.832 145.865 27.0664C145.963 27.1445 146.061 27.1836 146.158 27.1836L145.982 27.1543C147.232 27.623 148.102 27.8574 148.59 27.8574C148.629 27.877 148.707 27.8867 148.824 27.8867L148.854 27.916L148.678 27.8867C149.146 27.9453 149.713 27.9746 150.377 27.9746C150.787 27.9746 151.344 27.9062 152.047 27.7695C153.004 27.5938 153.834 27.3691 154.537 27.0957L154.391 27.1543C155.621 26.5879 156.646 26.0117 157.467 25.4258L157.35 25.4844H157.379C157.398 25.4648 157.428 25.4355 157.467 25.3965C157.525 25.3574 157.584 25.3184 157.643 25.2793C157.721 25.2207 157.76 25.1816 157.76 25.1621C158.854 24.2246 159.664 23.4043 160.191 22.7012C160.23 22.6621 160.25 22.6328 160.25 22.6133C160.23 22.6328 160.211 22.6621 160.191 22.7012C160.191 22.7207 160.182 22.7305 160.162 22.7305C160.162 22.7305 160.152 22.7402 160.133 22.7598L160.807 21.793C161.627 20.6406 162.291 19.4785 162.799 18.3066L163.062 17.6035C163.492 16.3926 163.775 15.3574 163.912 14.498C163.99 14.1855 164.029 13.6484 164.029 12.8867C164.029 12.457 164.02 12.0859 164 11.7734L163.971 11.334L164 11.3633V11.4512C163.98 11.4316 163.971 11.3926 163.971 11.334C163.834 10.6113 163.648 9.91797 163.414 9.25391V9.2832C163.395 9.2832 163.297 9.08789 163.121 8.69727L162.828 8.31641L162.945 8.43359C162.926 8.43359 162.838 8.375 162.682 8.25781C162.545 8.12109 162.477 8.0332 162.477 7.99414H162.447H162.477L162.594 8.08203C162.438 7.98438 162.271 7.89648 162.096 7.81836L162.271 7.87695C162.135 7.83789 162.047 7.81836 162.008 7.81836C161.988 7.81836 161.939 7.80859 161.861 7.78906C161.803 7.75 161.764 7.73047 161.744 7.73047C161.725 7.73047 161.705 7.7207 161.686 7.70117H160.25L160.455 7.67188C160.455 7.69141 160.436 7.70117 160.396 7.70117C160.084 7.70117 159.312 7.90625 158.082 8.31641C157.711 8.45313 157.506 8.52148 157.467 8.52148L157.701 8.43359L157.643 8.49219C157.545 8.49219 157.457 8.51172 157.379 8.55078C155.992 9.25391 154.996 9.83984 154.391 10.3086C154.371 10.3086 154.352 10.3184 154.332 10.3379C154.312 10.3574 154.293 10.377 154.273 10.3965C154.254 10.3965 154.205 10.4258 154.127 10.4844C154.146 10.4844 154.156 10.4746 154.156 10.4551C154.176 10.4355 154.225 10.4062 154.303 10.3672C152.936 11.4023 151.549 12.75 150.143 14.4102C150.143 14.4297 150.113 14.4785 150.055 14.5566C150.016 14.6348 149.977 14.6738 149.938 14.6738L150.084 14.5273C149.967 14.6445 149.859 14.7715 149.762 14.9082C148.941 15.9824 148.18 17.1055 147.477 18.2773C144.898 22.5547 141.793 29.5176 138.16 39.166C137.379 41.2559 136.578 43.3164 135.758 45.3477C135.348 46.3242 134.664 46.8125 133.707 46.8125ZM168.322 44.5273C168.048 44.5273 167.785 44.4688 167.531 44.3516C166.671 43.9805 166.242 43.3359 166.242 42.418C166.242 42.2422 166.261 42.0566 166.3 41.8613L171.603 19.2441C171.759 18.6777 172.091 18.2578 172.599 17.9844C172.951 17.8086 173.312 17.7207 173.683 17.7207C174.504 17.7207 175.099 18.0723 175.47 18.7754C175.646 19.127 175.734 19.4883 175.734 19.8594C175.734 20.1133 173.947 27.8184 170.373 42.9746L166.505 41.3633C168.009 37.9453 169.679 34.625 171.515 31.4023C173.195 28.4336 175.197 25.7188 177.521 23.2578C179.709 20.9141 181.72 19.4785 183.556 18.9512C183.947 18.834 184.347 18.7754 184.757 18.7754C185.539 18.7754 186.33 19 187.13 19.4492C188.107 20.0742 188.742 20.9434 189.035 22.0566C189.132 22.5254 189.201 22.9941 189.24 23.4629L189.298 23.9609L189.269 23.8438L189.298 24.1074C189.455 24.6934 189.552 25.0352 189.591 25.1328C189.63 25.2109 189.65 25.2793 189.65 25.3379L189.621 25.2207L190.031 26.041L190.47 26.6855L190.353 26.5391C190.88 27.0664 191.193 27.3691 191.291 27.4473L191.349 27.5352L191.32 27.5059C191.32 27.4863 191.3 27.4766 191.261 27.4766C191.242 27.457 191.222 27.4473 191.203 27.4473C191.203 27.4277 191.193 27.418 191.173 27.418V27.3887C191.193 27.3887 191.203 27.3984 191.203 27.418C191.203 27.418 191.222 27.4277 191.261 27.4473C191.3 27.4668 191.339 27.5059 191.379 27.5645C191.437 27.6035 191.837 27.8379 192.58 28.2676C193.048 28.5215 193.293 28.6484 193.312 28.6484H193.371L193.312 28.5898C193.254 28.5703 193.185 28.5605 193.107 28.5605C193.166 28.5605 193.214 28.5801 193.254 28.6191C193.312 28.6387 193.361 28.6484 193.4 28.6484C193.654 28.7461 193.908 28.8145 194.162 28.8535L194.513 28.9414H194.601C194.504 28.9414 194.445 28.9316 194.425 28.9121H194.396H194.484C195.265 28.9902 196.037 29.0293 196.798 29.0293C197.404 29.0488 197.902 29.2637 198.293 29.6738C198.703 30.084 198.908 30.6016 198.908 31.2266C198.908 31.7734 198.703 32.2422 198.293 32.6328C197.882 33.0234 197.384 33.2285 196.798 33.248H196.212C194.884 33.248 193.576 33.0723 192.287 32.7207C188.927 31.5488 186.701 29.4688 185.607 26.4805C185.216 25.3672 185.021 24.3125 185.021 23.3164V23.5215L184.962 23.1699V22.9941L184.992 23.1699L184.904 23.0234L184.933 23.0527L185.138 23.1992L184.875 23.0234L185.08 23.1113L184.787 23.0234H185.021H184.992C184.972 23.043 184.923 23.0527 184.845 23.0527C184.826 23.0527 184.796 23.0527 184.757 23.0527C184.738 23.0332 184.689 23.0234 184.611 23.0234C184.552 23.0234 184.523 23.0137 184.523 22.9941H184.787L184.084 23.1699C184.084 23.1309 184.132 23.1113 184.23 23.1113L184.171 23.1406C184.152 23.1797 184.035 23.2578 183.82 23.375C183.605 23.4922 183.371 23.6484 183.117 23.8438L183.234 23.7559L183.205 23.7852C183.166 23.8242 183.107 23.8633 183.029 23.9023L182.941 23.9902C181.359 25.2598 179.943 26.6953 178.693 28.2969L178.429 28.5898C178.39 28.707 178.341 28.7852 178.283 28.8242L178.195 28.8828C178.214 28.8828 178.224 28.873 178.224 28.8535C178.244 28.834 178.254 28.8242 178.254 28.8242C178.273 28.8047 178.293 28.7754 178.312 28.7363L176.877 30.7578C174.767 33.9414 172.531 38.1797 170.168 43.4727C169.816 44.1758 169.201 44.5273 168.322 44.5273ZM200.739 43.9707C199.216 43.9512 197.898 43.502 196.784 42.623C195.3 41.4707 194.558 39.7617 194.558 37.4961C194.558 35.9141 194.978 33.8535 195.818 31.3145L195.964 30.7871C196.804 27.9941 197.761 25.2402 198.835 22.5254C199.245 21.5293 199.939 21.0312 200.915 21.0312C201.696 21.0312 202.292 21.373 202.702 22.0566C202.898 22.3887 202.995 22.7207 202.995 23.0527C202.995 23.248 202.966 23.4434 202.907 23.6387C201.794 26.4316 200.818 29.2637 199.978 32.1348L199.948 32.1934C199.597 33.3457 199.284 34.5176 199.011 35.709C198.933 36.041 198.874 36.334 198.835 36.5879C198.835 36.627 198.825 36.6465 198.806 36.6465L198.835 36.4707C198.835 36.5684 198.825 36.6465 198.806 36.7051L198.777 37.9648L198.806 38.1406L198.747 37.9648L198.952 38.7852L199.011 38.9609L198.923 38.7266C198.982 38.8438 199.021 38.9219 199.04 38.9609C199.079 39 199.099 39.0293 199.099 39.0488C199.118 39.0684 199.138 39.0879 199.157 39.1074C199.236 39.1855 199.275 39.2441 199.275 39.2832L199.157 39.1367V39.166C199.177 39.1855 199.196 39.2051 199.216 39.2246C199.255 39.2441 199.275 39.2734 199.275 39.3125C199.294 39.332 199.323 39.3516 199.363 39.3711C199.421 39.3906 199.46 39.4102 199.48 39.4297C199.499 39.4297 199.519 39.4395 199.538 39.459L199.363 39.3711L199.773 39.6348C199.714 39.5957 199.675 39.5762 199.655 39.5762C199.655 39.5762 199.665 39.5762 199.685 39.5762L200.476 39.7812L200.271 39.752H201.15L201.238 39.7227C201.648 39.6641 202.058 39.5469 202.468 39.3711L202.351 39.4297L202.439 39.3711C202.497 39.332 202.556 39.3125 202.614 39.3125C203.571 38.8242 204.695 38.1211 205.984 37.2031L206.833 36.5879L207.126 36.3535C209.04 34.8105 210.788 33.1113 212.37 31.2559C212.761 30.8457 213.23 30.6406 213.777 30.6406C213.816 30.6406 213.982 30.6504 214.275 30.6699C214.568 30.6895 214.929 30.8848 215.359 31.2559C215.769 31.666 215.974 32.1348 215.974 32.6621C215.974 32.7012 215.964 32.8672 215.945 33.1602C215.925 33.4336 215.73 33.7949 215.359 34.2441C213.308 36.627 211.003 38.7461 208.445 40.6016C207.331 41.4609 206.13 42.2324 204.841 42.916C203.552 43.5996 202.185 43.9512 200.739 43.9707ZM203.435 15.5527C203.142 15.5527 202.868 15.4941 202.614 15.377C202.361 15.2793 202.136 15.1328 201.941 14.9375L201.56 14.5566C201.306 14.3027 201.13 13.9902 201.032 13.6191L200.945 13.0625C200.964 12.5938 201.111 12.1836 201.384 11.832C201.657 11.4609 201.95 11.2266 202.263 11.1289C202.497 11.0117 202.761 10.9531 203.054 10.9531C203.347 10.9531 203.62 11.0117 203.874 11.1289C204.109 11.207 204.372 11.3926 204.665 11.6855C205.095 12.1152 205.359 12.5156 205.456 12.8867L205.544 13.4434C205.544 13.9121 205.427 14.293 205.193 14.5859L204.958 14.9082C204.782 15.1035 204.548 15.2598 204.255 15.377C204.001 15.4941 203.728 15.5527 203.435 15.5527ZM220.208 44.3809C218.684 44.3809 217.249 44.0879 215.901 43.502C214.573 42.916 213.499 42.0273 212.679 40.8359C211.858 39.5664 211.448 38.0723 211.448 36.3535C211.448 35.2988 211.565 34.2734 211.8 33.2773C212.307 31.0703 213.225 29.0391 214.554 27.1836C215.999 25.1719 217.718 23.4336 219.71 21.9688C222.171 20.0742 224.514 19.0781 226.741 18.9805C228.108 18.9805 229.348 19.3223 230.462 20.0059C231.575 20.6895 232.337 21.6758 232.747 22.9648C232.845 23.3945 232.893 23.8145 232.893 24.2246C232.893 25.0449 232.639 25.9531 232.132 26.9492C231.624 27.9258 230.716 28.5605 229.407 28.8535L228.88 28.8828C227.903 28.8828 227.21 28.3848 226.8 27.3887C226.741 27.1934 226.712 27.0078 226.712 26.832C226.712 26.4805 226.829 26.0898 227.063 25.6602C227.317 25.2109 227.718 24.918 228.264 24.7812C228.284 24.7812 228.323 24.7812 228.382 24.7812C228.46 24.7617 228.538 24.7324 228.616 24.6934H228.645C228.626 24.7129 228.596 24.7324 228.557 24.752C228.538 24.752 228.509 24.7617 228.47 24.7812C228.45 24.7812 228.43 24.7812 228.411 24.7812V24.752L228.616 24.6934C228.636 24.6934 228.645 24.7031 228.645 24.7227L228.47 24.7812C228.47 24.7617 228.47 24.752 228.47 24.752C228.489 24.752 228.499 24.752 228.499 24.752C228.518 24.7324 228.557 24.6934 228.616 24.6348V24.6055L228.47 24.8398L228.616 24.5762L228.704 24.4883V24.5176L228.557 24.6641L228.675 24.4297C228.675 24.4102 228.675 24.3711 228.675 24.3125C228.694 24.2539 228.714 24.2148 228.733 24.1953C228.714 24.2148 228.704 24.2637 228.704 24.3418V24.1074L228.645 24.0781L228.733 24.2539H228.704C228.665 24.0977 228.645 23.9805 228.645 23.9023H228.616C228.616 24 228.636 24.0684 228.675 24.1074H228.704L228.675 24.0488C228.616 23.9316 228.557 23.8535 228.499 23.8145C228.46 23.7754 228.43 23.7559 228.411 23.7559L228.587 23.9023C228.372 23.6875 228.264 23.5703 228.264 23.5508C228.304 23.5703 228.323 23.5801 228.323 23.5801L228.382 23.6094C228.421 23.6484 228.44 23.6777 228.44 23.6973L228.352 23.668C228.177 23.5312 227.971 23.4141 227.737 23.3164L227.884 23.375L227.825 23.3457H227.708C227.552 23.2676 227.376 23.2188 227.18 23.1992L226.331 23.2285C226.389 23.2285 226.429 23.2188 226.448 23.1992H226.477C226.458 23.2188 226.419 23.2383 226.36 23.2578C226.302 23.2578 226.223 23.2676 226.126 23.2871C226.048 23.3066 225.95 23.3359 225.833 23.375C225.716 23.3945 225.598 23.4336 225.481 23.4922C225.384 23.5312 225.315 23.5508 225.276 23.5508C225.237 23.5508 225.188 23.5605 225.13 23.5801H225.159C225.179 23.5801 225.208 23.5605 225.247 23.5215C224.505 23.8535 223.557 24.4102 222.405 25.1914C221.956 25.5039 221.721 25.6699 221.702 25.6895C221.702 25.6895 221.702 25.6992 221.702 25.7188C221.702 25.6992 221.721 25.6797 221.761 25.6602C221.8 25.6406 221.819 25.6211 221.819 25.6016V25.6309L221.702 25.7188C220.452 26.7148 219.348 27.8184 218.391 29.0293L218.509 28.8828L218.04 29.5273C217.512 30.2891 217.054 31.0801 216.663 31.9004L216.546 32.1934L216.575 32.1348C216.575 32.0957 216.585 32.0664 216.604 32.0469C216.604 32.0859 216.585 32.125 216.546 32.1641V32.252L216.516 32.2812C216.106 33.3164 215.833 34.3125 215.696 35.2695C215.716 35.25 215.725 35.2207 215.725 35.1816L215.667 36.3242C215.667 36.7148 215.677 36.9883 215.696 37.1445V36.998L215.667 36.9395L215.696 36.9688V37.1445L215.989 38.1992L215.93 38.082H215.96L216.311 38.6973C216.272 38.6582 216.253 38.6289 216.253 38.6094C216.253 38.5703 216.243 38.5508 216.223 38.5508V38.5801C216.497 38.8926 216.634 39.0488 216.634 39.0488C216.653 39.0488 216.663 39.0586 216.663 39.0781C216.682 39.0977 216.702 39.1172 216.721 39.1367C216.741 39.1367 216.761 39.1465 216.78 39.166C216.819 39.1855 216.839 39.2051 216.839 39.2246L216.721 39.1074C216.721 39.127 216.731 39.1465 216.751 39.166C216.77 39.166 216.78 39.1758 216.78 39.1953C216.8 39.1953 216.819 39.1953 216.839 39.1953L216.868 39.2246C217.239 39.4785 217.561 39.6543 217.835 39.752L217.688 39.6934C217.708 39.7129 217.766 39.7324 217.864 39.752C218.352 39.9277 218.86 40.0645 219.387 40.1621L219.27 40.1328L219.622 40.1621H220.091C220.637 40.1621 221.057 40.1426 221.35 40.1035H221.262L221.321 40.0742C221.458 40.0742 221.546 40.0645 221.585 40.0449C221.858 40.0449 222.376 39.9277 223.137 39.6934C223.899 39.4395 224.466 39.2246 224.837 39.0488C224.876 39.0488 224.905 39.0391 224.925 39.0195C224.905 39.0391 224.886 39.0488 224.866 39.0488C224.866 39.0488 224.837 39.0586 224.778 39.0781L225.159 38.9316C226.214 38.4434 227.386 37.8281 228.675 37.0859L229.026 36.8809C231.389 35.5527 233.46 34.2734 235.237 33.043L235.764 32.6328H235.794C235.794 32.6133 235.823 32.584 235.882 32.5449C235.94 32.4863 236.009 32.4375 236.087 32.3984C236.927 31.7148 237.708 30.9824 238.43 30.2012C238.841 29.791 239.309 29.5859 239.837 29.5859H240.335C240.628 29.6055 240.979 29.8105 241.389 30.2012C241.819 30.5918 242.034 31.0508 242.034 31.5781V32.0762C242.014 32.3887 241.809 32.7598 241.419 33.1895C239.427 35.2207 237.2 36.959 234.739 38.4043C232.454 39.8691 230.1 41.1973 227.679 42.3887C224.925 43.7168 222.434 44.3809 220.208 44.3809ZM244.627 44.0586C243.319 44.0586 242 43.7656 240.672 43.1797C239.344 42.5938 238.299 41.6172 237.538 40.25C236.971 39.0781 236.688 37.877 236.688 36.6465C236.688 34.8691 237.176 32.9453 238.153 30.875C239.403 28.2578 241.024 25.8945 243.016 23.7852C245.282 21.2852 247.752 19.9961 250.428 19.918C251.737 19.918 252.987 20.2402 254.178 20.8848C255.389 21.5293 256.297 22.4473 256.903 23.6387C257.274 24.498 257.459 25.3379 257.459 26.1582C257.459 28.1309 256.512 30.0059 254.618 31.7832C252.137 34.0293 249.246 35.1523 245.946 35.1523C243.973 35.1523 242.079 34.6934 240.262 33.7754C239.579 33.4043 239.237 32.7988 239.237 31.959C239.237 31.5879 239.325 31.2266 239.5 30.875C239.891 30.2109 240.496 29.8789 241.317 29.8789C241.668 29.8789 242.108 30.0059 242.635 30.2598L242.957 30.4062C242.938 30.4062 242.918 30.4062 242.899 30.4062C242.879 30.4062 242.85 30.3965 242.811 30.377C242.772 30.3574 242.752 30.3379 242.752 30.3184L242.987 30.4062C243.397 30.6016 243.875 30.7383 244.422 30.8164C244.539 30.875 244.696 30.9043 244.891 30.9043L244.686 30.875C244.784 30.9141 245.174 30.9336 245.858 30.9336C246.522 30.9336 246.971 30.9141 247.205 30.875C247.108 30.9141 247.039 30.9336 247 30.9336H246.971L247.176 30.875C247.215 30.875 247.245 30.8652 247.264 30.8457C248.202 30.6895 248.924 30.4844 249.432 30.2305L249.198 30.3184C249.53 30.2012 249.92 30.0059 250.37 29.7324C250.819 29.459 251.073 29.293 251.131 29.2344L251.278 29.1172L251.102 29.2637L251.219 29.1758C252.059 28.3359 252.479 27.916 252.479 27.916L252.567 27.7988L252.45 27.9746V27.916C252.528 27.7988 252.586 27.7207 252.625 27.6816C252.664 27.623 252.704 27.5547 252.743 27.4766C252.84 27.3398 252.918 27.2129 252.977 27.0957C253.055 26.959 253.094 26.8906 253.094 26.8906C253.094 26.8711 253.104 26.8516 253.123 26.832L253.065 26.9492L253.241 26.4219L253.27 26.2461V25.8652L253.299 25.8359L253.329 25.8652C253.329 25.8848 253.329 25.9043 253.329 25.9238C253.329 25.9434 253.338 25.9629 253.358 25.9824C253.358 26.0215 253.348 26.041 253.329 26.041C253.309 26.0215 253.289 25.9922 253.27 25.9531C253.27 25.9141 253.26 25.875 253.241 25.8359C253.241 25.7969 253.231 25.7578 253.211 25.7188C253.192 25.6797 253.182 25.6406 253.182 25.6016C253.182 25.5625 253.192 25.543 253.211 25.543L253.299 25.748L253.211 25.6602C253.133 25.5039 253.084 25.4258 253.065 25.4258C253.065 25.4062 253.055 25.377 253.036 25.3379C253.016 25.2988 252.977 25.2402 252.918 25.1621L253.065 25.3086L252.45 24.7227L252.655 24.8984L251.746 24.3418V24.3125L251.952 24.459L251.717 24.3418C251.288 24.2246 251.024 24.166 250.926 24.166C250.848 24.1465 250.809 24.127 250.809 24.1074L250.838 24.0781L251.043 24.166C250.965 24.127 250.868 24.1074 250.75 24.1074C250.633 24.1074 250.526 24.1172 250.428 24.1367H250.164C250.047 24.1367 249.989 24.1465 249.989 24.166C249.989 24.127 250.057 24.1074 250.194 24.1074C250.155 24.1465 250.028 24.1855 249.813 24.2246C249.598 24.2637 249.413 24.3125 249.256 24.3711C249.12 24.4297 248.993 24.4785 248.875 24.5176L249.051 24.4297L248.875 24.5176C248.309 24.8301 247.948 25.0352 247.791 25.1328L247.586 25.2793L247.498 25.3672C247.498 25.3477 247.518 25.3281 247.557 25.3086C247.596 25.2891 247.625 25.2695 247.645 25.25L246.532 26.2461C246.024 26.7344 245.448 27.3789 244.803 28.1797L244.657 28.3555H244.686C244.686 28.3164 244.715 28.2676 244.774 28.209L244.481 28.6191C243.641 29.7129 242.801 31.0508 241.961 32.6328L241.873 32.8965C241.795 33.0137 241.756 33.1016 241.756 33.1602L241.786 33.043C241.414 33.9414 241.151 34.8398 240.995 35.7383L240.965 35.9141L240.995 35.7676C240.955 36.0996 240.936 36.4316 240.936 36.7637V37.1445C240.936 37.3594 241.004 37.6719 241.141 38.082C241.141 38.0234 241.131 37.9746 241.112 37.9355L241.229 38.1992C241.288 38.3555 241.395 38.5117 241.551 38.668L241.405 38.5215C241.561 38.6973 241.727 38.8535 241.903 38.9902L242.02 39.1367C242.02 39.1172 242.01 39.1074 241.991 39.1074C241.991 39.0879 241.952 39.0488 241.873 38.9902L242.401 39.3418C242.479 39.3613 242.547 39.3906 242.606 39.4297C242.664 39.4688 242.704 39.498 242.723 39.5176C242.743 39.5176 242.752 39.5273 242.752 39.5469L242.694 39.4883C242.616 39.4688 242.577 39.4492 242.577 39.4297C243.123 39.6055 243.407 39.6934 243.426 39.6934C243.465 39.6934 243.524 39.7031 243.602 39.7227C243.68 39.7422 243.739 39.7617 243.778 39.7812C243.817 39.7812 243.846 39.7812 243.866 39.7812H243.748C244.1 39.8203 244.461 39.8398 244.832 39.8398L245.887 39.752H245.829L246.414 39.6641C247.684 39.3711 248.846 39.0391 249.901 38.668L250.809 38.3164L251.161 38.1699C251.141 38.1895 251.112 38.1992 251.073 38.1992C251.053 38.1992 251.034 38.2188 251.014 38.2578C251.014 38.2383 251.073 38.209 251.19 38.1699C252.87 37.4277 254.637 36.1973 256.493 34.4785C258.348 32.7402 259.705 31.4414 260.565 30.582C260.995 30.1719 261.493 29.9668 262.059 29.9668C262.606 29.9863 263.084 30.1914 263.495 30.582C263.924 30.9727 264.139 31.4414 264.139 31.9883C264.139 32.0273 264.129 32.1934 264.11 32.4863C264.11 32.7793 263.914 33.1406 263.524 33.5703C259.5 38.2578 255.067 41.4121 250.223 43.0332C248.192 43.7168 246.327 44.0586 244.627 44.0586ZM262.162 53.7852C261.068 53.7852 259.984 53.5605 258.91 53.1113C257.113 52.2715 255.99 50.8945 255.541 48.9805C255.482 48.5508 255.453 48.1309 255.453 47.7207C255.453 46.3535 255.746 45.0254 256.332 43.7363C257.68 40.6895 259.711 38.209 262.426 36.2949C267.172 32.9941 273.393 30.9336 281.088 30.1133C281.732 30.1133 282.23 30.3281 282.582 30.7578C282.953 31.1875 283.158 31.6758 283.197 32.2227C283.197 32.8281 282.982 33.3164 282.553 33.6875C282.143 34.0391 281.654 34.2539 281.088 34.332L280.18 34.4199H280.297L279.74 34.5078C276.479 34.918 273.1 35.7969 269.604 37.1445L269.193 37.3203L268.871 37.4668C267.953 37.8574 266.967 38.375 265.912 39.0195C265.209 39.4688 264.76 39.7715 264.564 39.9277C264.525 39.9473 264.496 39.9668 264.477 39.9863C264.457 39.9863 264.398 40.0254 264.301 40.1035L264.447 40.0156C263.627 40.5625 262.836 41.3145 262.074 42.2715L261.693 42.7402C261.693 42.7207 261.693 42.7012 261.693 42.6816C261.713 42.6621 261.723 42.6523 261.723 42.6523C261.742 42.6328 261.781 42.5938 261.84 42.5352C261.762 42.5938 261.723 42.6523 261.723 42.7109C261.137 43.5117 260.697 44.2539 260.404 44.9375C260.385 44.9961 260.365 45.0352 260.346 45.0547C260.326 45.0742 260.307 45.123 260.287 45.2012V45.1719L260.316 45.0547H260.346L260.258 45.2305C260.023 45.8555 259.867 46.3633 259.789 46.7539L259.643 47.3398L259.613 47.3984L259.643 47.1934L259.613 47.5449V47.7793C259.613 47.8379 259.623 47.8867 259.643 47.9258V48.0137C259.682 48.1113 259.701 48.209 259.701 48.3066C259.721 48.3066 259.73 48.3164 259.73 48.3359C259.73 48.3555 259.74 48.3848 259.76 48.4238C259.76 48.4824 259.77 48.5117 259.789 48.5117V48.4824C259.73 48.4238 259.701 48.375 259.701 48.3359C259.682 48.3164 259.672 48.2969 259.672 48.2773L259.701 48.3066C259.701 48.3262 259.721 48.3555 259.76 48.3945C259.779 48.4336 259.799 48.4727 259.818 48.5117C259.838 48.5703 259.867 48.6289 259.906 48.6875C259.926 48.7656 259.955 48.8047 259.994 48.8047C259.916 48.8047 259.877 48.7754 259.877 48.7168L259.848 48.6582H259.877C259.877 48.6777 260.004 48.8145 260.258 49.0684L260.375 49.1562L260.346 49.127C260.326 49.127 260.307 49.1172 260.287 49.0977C260.268 49.0977 260.248 49.0879 260.229 49.0684C260.209 49.0684 260.199 49.0586 260.199 49.0391L260.551 49.2148C260.668 49.332 260.785 49.3906 260.902 49.3906L260.668 49.332C260.727 49.332 260.775 49.3418 260.814 49.3613C260.854 49.3809 261.029 49.4297 261.342 49.5078C261.42 49.5469 261.518 49.5664 261.635 49.5664L261.43 49.5371C261.488 49.5566 261.605 49.5664 261.781 49.5664C261.977 49.5859 262.172 49.5957 262.367 49.5957C262.406 49.5762 262.533 49.5664 262.748 49.5664C262.748 49.5859 262.719 49.5957 262.66 49.5957H262.543L263.012 49.5078L263.861 49.2441L263.979 49.2148C263.979 49.1758 264.008 49.1562 264.066 49.1562L264.125 49.127H264.154L264.389 49.0098C264.76 48.7949 265.121 48.5605 265.473 48.3066L265.561 48.2773C265.541 48.2969 265.512 48.3164 265.473 48.3359C265.453 48.3555 265.434 48.3652 265.414 48.3652C265.414 48.3848 265.404 48.3945 265.385 48.3945C266.049 47.8477 266.586 47.3203 266.996 46.8125L267.113 46.6953L267.055 46.7832V46.7539C267.055 46.7344 267.074 46.7051 267.113 46.666C267.523 46.0801 267.895 45.4551 268.227 44.791L268.314 44.6152V44.5859L268.344 44.498C268.363 44.4199 268.393 44.3516 268.432 44.293C268.549 43.8633 268.646 43.4629 268.725 43.0918L268.754 43.0625C268.754 42.9648 268.764 42.9062 268.783 42.8867L268.754 43.0039C268.793 42.6133 268.812 42.2324 268.812 41.8613C268.812 41.627 268.803 41.4023 268.783 41.1875V40.9531L268.754 40.748L268.783 40.8652V41.0117L268.812 40.8945C268.812 40.7578 268.744 40.4844 268.607 40.0742C268.568 39.918 268.412 39.4297 268.139 38.6094C268.178 38.7266 268.197 38.7949 268.197 38.8145C268.197 38.8145 268.207 38.8145 268.227 38.8145L268.109 38.6094C267.914 38.1797 267.68 37.7598 267.406 37.3496C267.25 37.1543 267.172 37.0273 267.172 36.9688H267.143L267.26 37.1152L267.055 36.8809C266.664 36.4121 266.234 35.9922 265.766 35.6211L265.883 35.7383V35.709L265.648 35.5625C265.336 35.3281 264.789 34.9961 264.008 34.5664C262.836 33.9805 261.781 33.2383 260.844 32.3398C259.574 30.9727 258.939 29.4102 258.939 27.6523C258.939 27.3398 258.959 27.0273 258.998 26.7148C259.35 24.6836 260.189 22.877 261.518 21.2949C262.123 20.5137 262.846 19.8008 263.686 19.1562C265.014 18.1406 266.43 17.6328 267.934 17.6328C269.789 17.6328 271.273 18.375 272.387 19.8594C273.012 20.7773 273.334 21.7734 273.354 22.8477C273.354 23.9219 273.139 24.957 272.709 25.9531C271.811 27.7109 270.561 29.1758 268.959 30.3477C267.299 31.6562 265.473 32.6621 263.48 33.3652C263.266 33.4238 263.061 33.4531 262.865 33.4531C262.514 33.4531 262.143 33.3262 261.752 33.0723C261.361 32.8184 261.068 32.4277 260.873 31.9004C260.814 31.7051 260.785 31.5098 260.785 31.3145C260.785 30.9629 260.912 30.5918 261.166 30.2012C261.42 29.791 261.811 29.4883 262.338 29.293L263.1 29.0293L262.982 29.0586C263.002 29.0391 263.031 29.0293 263.07 29.0293C263.109 29.0098 263.148 28.9902 263.188 28.9707L263.393 28.8828C264.154 28.5508 264.945 28.0918 265.766 27.5059C265.844 27.4668 265.932 27.4082 266.029 27.3301L266.146 27.2422C266.127 27.2422 266.098 27.2617 266.059 27.3008C266.977 26.5781 267.66 25.9336 268.109 25.3672C268.207 25.2695 268.266 25.2012 268.285 25.1621L268.197 25.25V25.2793L268.314 25.1328C268.471 24.918 268.607 24.7031 268.725 24.4883L268.871 24.2539C268.871 24.1953 268.881 24.1465 268.9 24.1074C268.939 24.0488 268.969 24.0098 268.988 23.9902L268.93 24.1074L268.988 23.9609C268.988 23.9219 269.037 23.7559 269.135 23.4629V22.9062C269.135 22.8672 269.125 22.8086 269.105 22.7305C269.105 22.6328 269.066 22.5059 268.988 22.3496V22.2617C268.988 22.3203 269.008 22.3691 269.047 22.4082V22.4668L268.871 22.1445C268.852 22.125 268.832 22.1152 268.812 22.1152C268.793 22.0957 268.783 22.0762 268.783 22.0566V22.0859C268.803 22.0859 268.822 22.1055 268.842 22.1445C268.881 22.1836 268.91 22.2031 268.93 22.2031V22.1738C268.891 22.1738 268.842 22.1445 268.783 22.0859L268.695 21.998L268.783 22.0566C268.646 21.998 268.529 21.9297 268.432 21.8516H268.402H268.432C268.432 21.8711 268.441 21.8906 268.461 21.9102C268.48 21.9102 268.5 21.9199 268.52 21.9395C268.559 21.9395 268.578 21.9492 268.578 21.9688C268.578 21.9492 268.549 21.9395 268.49 21.9395C268.432 21.9395 268.344 21.9102 268.227 21.8516H267.67L267.846 21.8223L267.787 21.8516C267.455 21.9102 267.23 21.9688 267.113 22.0273L266.996 22.0566L267.143 22.0273L267.084 22.0566C266.967 22.1152 266.879 22.1543 266.82 22.1738C266.762 22.1934 266.557 22.3203 266.205 22.5547L266.029 22.6719C266.029 22.6523 266.029 22.6426 266.029 22.6426C266.049 22.623 266.059 22.6133 266.059 22.6133C266.078 22.5938 266.098 22.5742 266.117 22.5547H266.146C266.146 22.5742 266.127 22.5938 266.088 22.6133L265.414 23.2578L264.506 24.2539H264.477H264.506L264.594 24.1367V24.1074C264.594 24.166 264.535 24.2539 264.418 24.3711C264.398 24.4297 264.369 24.4785 264.33 24.5176C264.096 24.8887 263.881 25.25 263.686 25.6016L263.656 25.6895C263.598 25.8066 263.559 25.8848 263.539 25.9238V25.9824L263.568 25.8652C263.412 26.2363 263.295 26.627 263.217 27.0371C263.178 27.252 263.148 27.3691 263.129 27.3887L263.158 27.3301V27.8867C263.158 27.9844 263.168 28.043 263.188 28.0625V28.1504C263.168 28.1309 263.158 28.0723 263.158 27.9746L263.129 27.9453H263.158C263.158 28.043 263.168 28.0918 263.188 28.0918L263.246 28.3848L263.363 28.707C263.344 28.707 263.324 28.6973 263.305 28.6777C263.305 28.6582 263.305 28.6387 263.305 28.6191C263.305 28.5996 263.295 28.5801 263.275 28.5605L263.598 29.0879C263.598 29.1074 263.627 29.1465 263.686 29.2051L263.744 29.293V29.2637C263.725 29.2637 263.676 29.2246 263.598 29.1465H263.627C263.646 29.166 263.656 29.1855 263.656 29.2051C263.676 29.2051 263.695 29.2246 263.715 29.2637C263.754 29.2832 263.773 29.3027 263.773 29.3223C263.969 29.5176 264.193 29.7227 264.447 29.9375L264.33 29.8203H264.359C264.379 29.8398 264.398 29.8691 264.418 29.9082C264.457 29.9277 264.496 29.9473 264.535 29.9668C264.672 30.084 265.219 30.416 266.176 30.9629C270.062 33.1113 272.309 36.2363 272.914 40.3379C272.973 40.8652 273.002 41.3828 273.002 41.8906C273.002 45.0547 271.83 47.877 269.486 50.3574C268.1 51.8223 266.459 52.8379 264.564 53.4043C263.764 53.6582 262.963 53.7852 262.162 53.7852Z" fill="#61C453"/>
</svg>
