<svg width="146" height="71" viewBox="0 0 146 71" fill="none" xmlns="http://www.w3.org/2000/svg">
<path d="M25.1445 50.4453C24.9297 50.4453 24.3438 50.4062 23.3867 50.3281C22.4492 50.2695 21.3945 49.625 20.2227 48.3945C18.8359 46.8711 18.1426 44.957 18.1426 42.6523C18.1426 39 19.9199 35.9531 23.4746 33.5117C26.6191 31.4023 30.0859 30.1035 33.875 29.6152C35.6523 29.3809 37.4199 29.2637 39.1777 29.2637C43.8457 29.2637 46.4238 29.7617 46.9121 30.7578C47.0879 31.1289 47.1758 31.5 47.1758 31.8711L47.1465 32.3105C46.8535 33.2871 46.1309 33.7754 44.9785 33.7754C44.8027 33.7754 44.3926 33.7266 43.748 33.6289H43.8652L43.8945 33.6582L43.8359 33.6289H43.6016L42.0781 33.4531C41.1211 33.375 39.9688 33.3359 38.6211 33.3359C37.3906 33.3359 36.1699 33.4141 34.959 33.5703L35.0762 33.541V33.5703L34.6953 33.6289C34.5781 33.6289 34.5098 33.6387 34.4902 33.6582C33.7676 33.7363 32.6543 33.9805 31.1504 34.3906C30.4473 34.6055 29.7539 34.8496 29.0703 35.123L29.1875 35.0645C29.1875 35.084 29.168 35.0938 29.1289 35.0938L28.8359 35.2402C28.0156 35.5918 27.2148 36.002 26.4336 36.4707L25.4961 37.1152C24.8125 37.6621 24.2754 38.1602 23.8848 38.6094L23.6504 38.873L23.7383 38.7559C23.543 38.9902 23.2891 39.3711 22.9766 39.8984C22.918 39.9766 22.8691 40.084 22.8301 40.2207C22.791 40.2598 22.7715 40.2891 22.7715 40.3086L22.8594 40.0449L22.8887 40.0156V40.0449C22.752 40.1816 22.5957 40.709 22.4199 41.627C22.3809 41.7441 22.3613 41.8613 22.3613 41.9785L22.4199 41.6855C22.4004 41.7246 22.3809 41.7734 22.3613 41.832C22.3418 41.8906 22.332 42.1641 22.332 42.6523L22.3613 43.4727L22.3906 43.5312L22.3613 43.5898L22.332 43.2969C22.332 43.3945 22.3516 43.4629 22.3906 43.502C22.3906 43.5996 22.459 43.9023 22.5957 44.4102C22.6152 44.5273 22.6445 44.625 22.6836 44.7031C22.7227 44.7812 22.7422 44.8301 22.7422 44.8496C22.7227 44.8301 22.7031 44.8008 22.6836 44.7617C22.6836 44.7422 22.6738 44.7129 22.6543 44.6738C22.6348 44.6348 22.625 44.6055 22.625 44.5859C22.6641 44.5859 22.7324 44.7031 22.8301 44.9375C23.0059 45.25 23.1328 45.4453 23.2109 45.5234C23.0938 45.4062 23.0254 45.3281 23.0059 45.2891C23.0059 45.3086 23.0156 45.3281 23.0352 45.3477C23.0547 45.3672 23.123 45.4355 23.2402 45.5527L23.6211 45.9336L23.709 45.9922C23.5918 45.9336 23.5332 45.9043 23.5332 45.9043L23.4746 45.8164C23.4746 45.8359 23.5039 45.8555 23.5625 45.875C23.6211 45.8945 23.6699 45.9238 23.709 45.9629C23.7676 46.002 23.8066 46.0215 23.8262 46.0215C23.8457 46.041 23.9922 46.1191 24.2656 46.2559C24.168 46.1777 24.0996 46.1289 24.0605 46.1094C24.041 46.0898 24.0215 46.0801 24.002 46.0801V46.1094L24.0898 46.1387C24.1289 46.1777 24.1777 46.207 24.2363 46.2266C24.3145 46.2461 24.4219 46.2559 24.5586 46.2559C24.6953 46.2754 24.8223 46.3145 24.9395 46.373L24.7051 46.2852C24.7051 46.3047 24.7148 46.3145 24.7344 46.3145C24.7539 46.334 24.8223 46.3535 24.9395 46.373C25.3887 46.373 25.7012 46.3633 25.877 46.3438H25.6719L25.7891 46.3145C25.8867 46.3145 25.9551 46.3047 25.9941 46.2852H26.0234L26.7266 46.0801L26.5508 46.1094L26.6094 46.0801C26.6289 46.0801 26.6582 46.0703 26.6973 46.0508C26.7559 46.0508 26.8047 46.041 26.8438 46.0215C26.8828 46.002 26.9023 45.9824 26.9023 45.9629C27.2344 45.8066 27.5469 45.6211 27.8398 45.4062L27.7227 45.4941L27.8984 45.3477C27.957 45.2891 27.9961 45.2598 28.0156 45.2598C28.5625 44.8105 29.0996 44.2441 29.627 43.5605L29.6855 43.5312C29.7832 43.4336 29.832 43.3652 29.832 43.3262L29.7148 43.5312L29.7734 43.3848C30.2031 42.9551 30.8281 41.9883 31.6484 40.4844L32.4688 38.873L32.5566 38.6973L32.4688 38.9023C32.5078 38.8438 32.5273 38.7754 32.5273 38.6973C32.9766 37.6816 33.3281 36.5586 33.582 35.3281L33.7578 34.6543C33.7578 34.5957 33.748 34.5566 33.7285 34.5371C33.748 34.5762 33.7578 34.6445 33.7578 34.7422C33.7383 34.7812 33.7285 34.8008 33.7285 34.8008H33.6992V34.7715C33.6992 34.6348 33.709 34.5371 33.7285 34.4785L33.7578 33.4531C33.7578 33.082 33.748 32.8477 33.7285 32.75C33.709 32.6328 33.6992 32.4863 33.6992 32.3105L33.6699 32.5742L33.7285 32.6035C33.748 32.6035 33.7578 32.584 33.7578 32.5449C33.7578 32.5254 33.7383 32.4863 33.6992 32.4277C33.6797 32.3496 33.6699 32.252 33.6699 32.1348L33.4062 31.2559L33.3184 31.0215L33.3477 31.0508C33.3477 31.0898 33.377 31.1387 33.4355 31.1973V31.2852L33.2891 31.0215C33.0938 30.6504 32.9375 30.4062 32.8203 30.2891C32.8203 30.2695 32.8105 30.2598 32.791 30.2598V30.2891L32.8203 30.3477C32.8203 30.4062 32.8789 30.4551 32.9961 30.4941C32.5664 30.0645 32.3516 29.8496 32.3516 29.8496L32.1172 29.6445L32.2637 29.7617L32.1172 29.6738C31.8242 29.459 31.5312 29.293 31.2383 29.1758L31.0918 29.1172H31.0039C31.0039 29.1367 31.0234 29.1562 31.0625 29.1758C31.1016 29.1758 31.1797 29.1855 31.2969 29.2051L30.5645 28.9414C29.666 28.6875 28.9922 28.5605 28.543 28.5605C28.5039 28.541 28.4648 28.5312 28.4258 28.5312C28.3867 28.5312 28.3574 28.5215 28.3379 28.502L28.4551 28.5312L26.668 28.3555C25.9648 28.2969 25.0859 28.2676 24.0312 28.2676C23.25 28.2676 22.6641 28.3066 22.2734 28.3848L22.4785 28.3555C22.4004 28.3555 22.3418 28.3652 22.3027 28.3848C22.1855 28.3848 22.127 28.3945 22.127 28.4141L21.6289 28.4434C20.6328 28.4434 19.9297 27.9551 19.5195 26.9785C19.4609 26.7832 19.4316 26.5879 19.4316 26.3926C19.4316 26.0605 19.5488 25.6992 19.7832 25.3086C20.0371 24.8984 20.4375 24.6152 20.9844 24.459C22.3516 24.0879 23.6895 23.6484 24.998 23.1406L25.3496 22.9941L25.4082 22.9648C25.4277 22.9648 25.457 22.9551 25.4961 22.9355C25.5352 22.8965 25.5742 22.877 25.6133 22.877C27.7031 21.959 29.4902 20.9727 30.9746 19.918L31.2383 19.7129L31.1504 19.8008L31.5605 19.4785C32.5957 18.6582 33.543 17.7402 34.4023 16.7246L34.6074 16.4902L34.8125 16.168C34.9883 15.9336 35.1543 15.6895 35.3105 15.4355C35.8379 14.6348 36.248 13.9121 36.541 13.2676L36.4824 13.3848L36.5117 13.3262C36.5117 13.2871 36.5215 13.248 36.541 13.209C36.5605 13.1699 36.5801 13.1406 36.5996 13.1211C36.873 12.3398 37.0488 11.7441 37.127 11.334L37.1855 11.0996V10.9531L37.1562 11.1289L37.1855 10.9824L37.2148 10.2207C37.2148 10.0254 37.2051 9.83984 37.1855 9.66406V9.54688C37.166 9.48828 37.1562 9.44922 37.1562 9.42969C37.1562 9.39063 37.1465 9.37109 37.127 9.37109L37.1855 9.57617C37.1465 9.45898 37.127 9.35156 37.127 9.25391L36.8633 8.46289C36.9023 8.56055 36.9219 8.61914 36.9219 8.63867C36.9219 8.6582 36.9316 8.66797 36.9512 8.66797H36.9219C36.9219 8.57031 36.834 8.38477 36.6582 8.11133C36.502 7.83789 36.4043 7.68164 36.3652 7.64258C36.3262 7.60352 36.3066 7.56445 36.3066 7.52539L36.2773 7.49609H36.3066C36.3066 7.51563 36.3359 7.55469 36.3945 7.61328V7.67188L36.1895 7.4668C35.916 7.1543 35.6719 6.91992 35.457 6.76367C35.4766 6.76367 35.4961 6.7832 35.5156 6.82227C35.5547 6.8418 35.5938 6.85156 35.6328 6.85156V6.88086L34.959 6.5L34.6953 6.38281C34.5586 6.34375 34.4414 6.31445 34.3438 6.29492C34.2461 6.27539 34.1875 6.25586 34.168 6.23633H34.1387C34.1582 6.25586 34.2168 6.26562 34.3145 6.26562H33.6699L33.6992 6.23633H33.9043C33.8262 6.23633 33.7578 6.24609 33.6992 6.26562C33.6602 6.28516 33.6309 6.29492 33.6113 6.29492C33.1035 6.39258 32.6934 6.51953 32.3809 6.67578C32.3809 6.65625 32.4004 6.64648 32.4395 6.64648C32.4785 6.62695 32.5176 6.60742 32.5566 6.58789H32.5273C32.4688 6.64648 32.4004 6.67578 32.3223 6.67578C31.3652 7.14453 30.623 7.59375 30.0957 8.02344L30.2129 7.90625L30.125 7.99414C30.0664 8.05273 30.0176 8.0918 29.9785 8.11133C29.959 8.11133 29.9492 8.12109 29.9492 8.14062L29.5977 8.4043C29.0508 8.95117 28.6895 9.33203 28.5137 9.54688L28.6895 9.3418L28.6602 9.40039C28.582 9.47852 28.543 9.52734 28.543 9.54688C28.0352 10.2109 27.2148 11.5098 26.082 13.4434C24.168 16.6465 22.332 20.2598 20.5742 24.2832L20.6328 24.166L20.5156 24.4004V24.4883L20.3105 24.8984L19.9297 25.8359C17.7812 31.1094 15.75 36.8613 13.8359 43.0918C13.6602 43.6582 13.3281 44.0684 12.8398 44.3223C12.5273 44.498 12.1758 44.5859 11.7852 44.5859C10.9648 44.5859 10.3691 44.2441 9.99805 43.5605C9.80273 43.248 9.70508 42.916 9.70508 42.5645C9.70508 42.1152 10.6523 39.0879 12.5469 33.4824C15.9258 23.502 19.4512 13.5801 23.123 3.7168L27.1953 4.80078C26.1406 7.75 25.0078 10.6602 23.7969 13.5312C22.7227 16.0312 21.502 18.4434 20.1348 20.7676C15.7598 28.1895 9.99805 33.043 2.84961 35.3281C2.6543 35.3672 2.46875 35.3867 2.29297 35.3867C1.92188 35.3867 1.54102 35.2695 1.15039 35.0352C0.740234 34.8008 0.4375 34.4199 0.242188 33.8926C0.183594 33.6973 0.154297 33.502 0.154297 33.3066C0.154297 32.9746 0.28125 32.6133 0.535156 32.2227C0.789062 31.832 1.18945 31.5488 1.73633 31.373C2.77148 31.041 3.43555 30.8066 3.72852 30.6699H3.78711L3.64062 30.6992L3.72852 30.6699C3.76758 30.6699 3.92383 30.6016 4.19727 30.4648C5.70117 29.7617 7.06836 28.9609 8.29883 28.0625C8.31836 28.0625 8.32812 28.0527 8.32812 28.0332C8.34766 28.0137 8.37695 27.9941 8.41602 27.9746C8.45508 27.9355 8.50391 27.8965 8.5625 27.8574H8.5918V27.8281L8.47461 27.9453L8.73828 27.7402C9.36328 27.2715 10.0078 26.7148 10.6719 26.0703C11.9609 24.8594 12.9473 23.8047 13.6309 22.9062L13.8652 22.6426V22.6133C13.8652 22.6328 13.8457 22.6621 13.8066 22.7012C13.7871 22.7207 13.7773 22.7402 13.7773 22.7598V22.7305L13.9824 22.4961V22.4668C14.3145 22.0371 14.6367 21.5977 14.9492 21.1484C16.9414 18.2383 18.7188 14.8984 20.2812 11.1289C21.1992 8.88281 22.0977 6.53906 22.9766 4.09766C23.0352 3.98047 23.084 3.85352 23.123 3.7168C23.5332 2.74023 24.2168 2.25195 25.1738 2.25195C25.9746 2.25195 26.5801 2.58398 26.9902 3.24805C27.1855 3.58008 27.2832 3.91211 27.2832 4.24414C27.2832 4.47852 26.2188 7.4668 24.0898 13.209C20.4375 23.0918 17.0195 33.0527 13.8359 43.0918L9.79297 42.0078C11.6875 35.7188 13.8945 29.5273 16.4141 23.4336C18.6992 17.9453 21.4727 12.7012 24.7344 7.70117C26.4141 5.33789 28.6406 3.64844 31.4141 2.63281C32.293 2.35938 33.1426 2.22266 33.9629 2.22266C35.877 2.22266 37.6055 2.99414 39.1484 4.53711C40.6328 6.2168 41.375 8.0332 41.375 9.98633C41.375 11.9785 40.9062 13.8926 39.9688 15.7285C39.0312 17.5645 37.8691 19.1953 36.4824 20.6211C32.9277 24.1758 28.1426 26.7734 22.127 28.4141L20.9844 24.459C22.0781 24.2637 23.1719 24.166 24.2656 24.166C28.3477 24.166 31.4824 24.7031 33.6699 25.7773C36.541 27.3789 37.9766 30.0156 37.9766 33.6875C37.9766 35.0742 37.6934 36.6855 37.127 38.5215C36.5605 40.3379 35.6426 42.1934 34.373 44.0879C33.7285 45.123 32.9766 46.1191 32.1172 47.0762C30.1055 49.3223 27.7812 50.4453 25.1445 50.4453ZM52.2594 44.1172C51.3609 44.1172 50.4527 43.9805 49.5348 43.707C47.6793 43.1016 46.3023 41.9297 45.4039 40.1914C44.7984 38.7852 44.4957 37.3301 44.4957 35.8262C44.4957 33.9902 44.8668 31.7148 45.609 29C47.0934 22.75 49.1539 16.8906 51.7906 11.4219C53.5875 7.55469 55.6676 4.57617 58.0309 2.48633C59.8082 0.923828 61.6344 0.142578 63.5094 0.142578L64.1246 0.171875C66.7027 0.464844 68.402 1.75391 69.2223 4.03906C69.4371 4.70313 69.5445 5.36719 69.5445 6.03125C69.5445 8.0625 68.568 10.9824 66.6148 14.791C63.0602 21.7637 57.5914 27.75 50.2086 32.75C49.8766 32.9453 49.5348 33.043 49.1832 33.043C48.402 33.043 47.777 32.6914 47.3082 31.9883C47.1129 31.6562 47.0152 31.3145 47.0152 30.9629C47.0152 30.2012 47.3766 29.5762 48.0992 29.0879C48.8219 28.5801 49.5445 28.0527 50.2672 27.5059C50.2867 27.5059 50.316 27.4961 50.3551 27.4766C50.3941 27.4375 50.4234 27.418 50.443 27.418C50.4625 27.3984 50.5309 27.3398 50.648 27.2422L50.5602 27.3008C50.6188 27.2422 50.7848 27.1152 51.0582 26.9199C52.3668 25.8457 53.3824 24.9668 54.1051 24.2832C55.6285 22.8379 57.1617 21.1973 58.7047 19.3613L59.1441 18.7754V18.8047L59.0563 18.8926C59.0563 18.873 59.0758 18.8535 59.1148 18.834L59.2906 18.5703C61.1656 16.0898 62.7672 13.3066 64.0953 10.2207C64.1148 10.1426 64.1441 10.0742 64.1832 10.0156C64.2223 9.9375 64.2613 9.85938 64.3004 9.78125L64.3297 9.66406V9.72266L64.2711 9.78125L64.3297 9.66406C64.7594 8.64844 65.0621 7.70117 65.2379 6.82227C65.277 6.70508 65.2965 6.58789 65.2965 6.4707V6.67578H65.2672L65.2965 5.91406C65.2965 5.66016 65.2867 5.5332 65.2672 5.5332L65.2965 5.62109V5.76758H65.3258C65.3258 5.65039 65.2965 5.57227 65.2379 5.5332C65.2379 5.47461 65.2281 5.43555 65.2086 5.41602C65.2086 5.37695 65.1988 5.33789 65.1793 5.29883C65.1598 5.25977 65.15 5.2207 65.15 5.18164L65.2379 5.35742L65.15 5.21094C65.0719 5.13281 65.0328 5.06445 65.0328 5.00586C65.0523 5.00586 65.0816 5.03516 65.1207 5.09375L64.6813 4.6543C64.6813 4.69336 64.7203 4.73242 64.7984 4.77148C64.6422 4.6543 64.5445 4.58594 64.5055 4.56641C64.4664 4.54687 64.4469 4.52734 64.4469 4.50781H64.5055L64.5348 4.53711L63.7145 4.33203H63.7438C63.7828 4.35156 63.8512 4.36133 63.9488 4.36133C63.5973 4.36133 63.2945 4.37109 63.0406 4.39062L63.1871 4.36133C63.148 4.40039 63.0699 4.41992 62.9527 4.41992C62.8551 4.45898 62.7867 4.47852 62.7477 4.47852C62.7281 4.47852 62.6988 4.48828 62.6598 4.50781C62.6207 4.52734 62.5816 4.53711 62.5426 4.53711L62.3375 4.625L62.4547 4.56641L62.2203 4.68359C62.025 4.78125 61.8395 4.88867 61.6637 5.00586C61.566 5.08398 61.4586 5.15234 61.3414 5.21094L61.2535 5.24023L61.3707 5.15234C61.3121 5.21094 61.2633 5.25977 61.2242 5.29883C61.1852 5.31836 61.1656 5.33789 61.1656 5.35742C60.3258 6.04102 59.5934 6.79297 58.9684 7.61328L58.9098 7.70117H58.8805L58.7926 7.81836L58.734 7.90625C57.9137 8.96094 57.1129 10.2402 56.3316 11.7441C55.4137 13.5215 54.5641 15.3477 53.7828 17.2227L53.6949 17.457L53.7535 17.2812V17.3398L53.402 18.1309C51.5855 22.7402 50.1012 27.8086 48.9488 33.3359C48.9293 33.5117 48.9 33.6777 48.8609 33.834V34.0098L48.8316 34.0977L48.8609 33.8633C48.8609 33.9805 48.8512 34.0391 48.8316 34.0391C48.773 34.6445 48.7438 35.25 48.7438 35.8555C48.7438 36.2461 48.7633 36.627 48.8023 36.998V37.0566L48.773 36.998V36.9688C48.7926 36.9688 48.8023 37.0176 48.8023 37.1152C48.9391 37.7598 49.0465 38.1211 49.1246 38.1992C49.1246 38.2383 49.1441 38.2773 49.1832 38.3164C49.1246 38.3164 49.0953 38.2578 49.0953 38.1406H49.066L49.0953 38.1699C49.0953 38.1895 49.0953 38.2188 49.0953 38.2578C49.1148 38.2773 49.1637 38.3359 49.2418 38.4336C49.3199 38.5312 49.3785 38.6387 49.4176 38.7559L49.4469 38.8145V38.7852C49.4273 38.7852 49.4078 38.7754 49.3883 38.7559C49.3883 38.7363 49.3785 38.7168 49.359 38.6973C49.359 38.6582 49.3395 38.6387 49.3004 38.6387L49.9156 39.2539C49.8961 39.2539 49.8375 39.2051 49.7398 39.1074L49.9742 39.2832L50.6188 39.6348C50.5602 39.6348 50.4918 39.6055 50.4137 39.5469H50.3844C50.4039 39.5664 50.4527 39.5859 50.5309 39.6055L50.7945 39.6934L51.3805 39.8398C51.4781 39.8398 51.5465 39.8496 51.5855 39.8691H51.6734V39.8984C51.6539 39.8984 51.6246 39.8984 51.5855 39.8984C51.5465 39.8789 51.5172 39.8594 51.4977 39.8398H51.4098C51.4879 39.8984 51.6051 39.9277 51.7613 39.9277C52.1129 39.9277 52.3277 39.9082 52.4059 39.8691C52.7184 39.8691 52.9039 39.8594 52.9625 39.8398H53.0504L53.0211 39.8691H52.9332L52.9918 39.8398H53.0797C53.7438 39.7422 54.3688 39.5664 54.9547 39.3125C55.0523 39.2734 55.1207 39.2539 55.1598 39.2539L54.9547 39.3418L55.0133 39.3125C55.0523 39.2734 55.0914 39.2539 55.1305 39.2539C55.1695 39.2344 55.2086 39.2148 55.2477 39.1953C56.1656 38.8047 57.7867 37.7207 60.1109 35.9434C60.1695 35.8652 60.2477 35.8066 60.3453 35.7676C60.2867 35.8262 60.2379 35.8555 60.1988 35.8555V35.8848C60.2965 35.8066 60.3551 35.7676 60.3746 35.7676C60.3941 35.748 60.4137 35.7188 60.4332 35.6797L60.7848 35.416C63.2848 33.3652 64.9352 31.7734 65.7359 30.6406C65.775 30.6211 65.8043 30.5918 65.8238 30.5527C65.8434 30.5137 65.8629 30.4941 65.8824 30.4941C65.902 30.4746 65.9117 30.4551 65.9117 30.4355L65.8531 30.5234L65.941 30.4062C66.4488 29.7227 67.0445 29.3809 67.7281 29.3809C68.0602 29.3809 68.4215 29.4688 68.8121 29.6445C69.5348 30.0742 69.8961 30.709 69.8961 31.5488C69.8961 31.9004 69.7887 32.2324 69.5738 32.5449C68.9684 33.3457 68.3238 34.1172 67.6402 34.8594C65.0816 37.4961 62.2496 39.8008 59.1441 41.7734C57.7379 42.7109 56.2047 43.3945 54.5445 43.8242C53.7828 44.0195 53.0211 44.1172 52.2594 44.1172ZM75.1262 43.8828C73.9348 43.8828 72.7434 43.6582 71.552 43.209C69.3449 42.3496 67.7629 40.8457 66.8059 38.6973C66.1418 37.2324 65.8098 35.709 65.8098 34.127C65.8098 33.4434 65.8684 32.7402 65.9855 32.0176C66.7277 27.8574 68.7199 24.4199 71.9621 21.7051C73.6027 20.3379 75.4094 19.3516 77.382 18.7461C78.4758 18.4141 79.5988 18.248 80.7512 18.248C84.091 18.248 86.0734 19.2441 86.6984 21.2363C86.7961 21.5488 86.8449 21.8711 86.8449 22.2031C86.8449 23.1211 86.5227 24.0684 85.8781 25.0449C82.968 29.4395 78.1438 32.0859 71.4055 32.9844C70.8391 33.0625 70.3215 33.1016 69.8527 33.1016C67.7824 33.1016 66.7473 32.3203 66.7473 30.7578C66.7473 30.3477 66.8254 29.8691 66.9816 29.3223C67.4699 29.3223 68.1438 29.2734 69.0031 29.1758L69.8527 29.0586C71.9035 28.7852 73.8957 28.2871 75.8293 27.5645L76.5324 27.3008C77.8801 26.7734 79.0129 26.1484 79.9309 25.4258V25.3965L79.7844 25.543C80.7219 24.8008 81.4348 24.0977 81.923 23.4336L81.8059 23.5508L82.0109 23.2578C82.3234 22.8477 82.509 22.5449 82.5676 22.3496V22.4082H82.5383L82.5676 22.3789V22.291C82.5871 22.2715 82.5969 22.2422 82.5969 22.2031C82.6164 22.1641 82.6262 22.1152 82.6262 22.0566L82.5969 22.291V22.1152C82.5969 22.291 82.6848 22.4961 82.8605 22.7305L82.8898 22.7598L82.802 22.7305C82.8605 22.7305 82.9094 22.75 82.9484 22.7891L81.6594 22.4961C81.7375 22.4961 81.7961 22.5059 81.8352 22.5254C81.5031 22.4863 81.1613 22.4668 80.8098 22.4668C80.3215 22.4668 79.9504 22.4766 79.6965 22.4961L79.8137 22.4668C79.8137 22.4863 79.7844 22.4961 79.7258 22.4961C79.6867 22.4961 79.6281 22.5059 79.55 22.5254C78.3977 22.8184 77.7531 23.0039 77.6164 23.082C77.5969 23.1016 77.5578 23.1113 77.4992 23.1113L77.6164 23.082L77.5578 23.1113C76.8156 23.4434 75.9758 23.9414 75.0383 24.6055L75.2141 24.459C74.1789 25.2988 73.3586 26.1094 72.7531 26.8906L72.6652 26.9785L72.7238 26.8906C72.0012 27.9062 71.425 28.873 70.9953 29.791C70.9758 29.8301 70.9563 29.8691 70.9367 29.9082C70.9367 29.9277 70.9367 29.9473 70.9367 29.9668C70.6242 30.6895 70.3605 31.627 70.1457 32.7793L70.1164 32.9258C70.0773 33.0625 70.0578 33.668 70.0578 34.7422C70.0578 35.1719 70.0773 35.416 70.1164 35.4746V35.5332L70.0578 35.2988C70.0773 35.3379 70.0871 35.3867 70.0871 35.4453C70.0871 35.6797 70.2141 36.1289 70.468 36.793C70.4875 36.8711 70.507 36.9199 70.5266 36.9395C70.507 36.9395 70.4973 36.9297 70.4973 36.9102C70.4973 36.8906 70.4973 36.8613 70.4973 36.8223L70.468 36.793C70.6633 37.2227 70.8781 37.6035 71.1125 37.9355C71.132 37.9355 71.1418 37.9453 71.1418 37.9648C71.1418 37.9453 71.132 37.9355 71.1125 37.9355C71.1125 37.916 71.0832 37.877 71.0246 37.8184L71.8742 38.6387H71.8449L71.7277 38.5215H71.757C71.757 38.541 71.8352 38.5996 71.9914 38.6973C72.382 38.9707 72.7238 39.166 73.0168 39.2832L72.8117 39.1953H72.8703C72.968 39.293 73.3977 39.4297 74.1594 39.6055C74.257 39.625 74.3645 39.6348 74.4816 39.6348L74.2473 39.6055H74.3938L74.423 39.6348H75.9172C75.9563 39.5957 76.0441 39.5762 76.1809 39.5762L76.1516 39.6055L76.0344 39.6348H75.9758C75.9758 39.6152 75.9953 39.6055 76.0344 39.6055C76.1516 39.6055 76.2297 39.5859 76.2688 39.5469C77.1867 39.4102 78.173 38.9805 79.2277 38.2578L79.6672 37.9355L79.5793 38.0234V37.9941C79.9504 37.7793 80.5949 37.1348 81.5129 36.0605L81.5422 36.0312L81.5129 36.0898C81.884 35.6602 82.2551 35.0254 82.6262 34.1855L82.7141 34.0098V34.0684C82.7141 34.0488 82.7141 34.0195 82.7141 33.9805C82.7336 33.9414 82.7434 33.9121 82.7434 33.8926C82.7629 33.8535 82.7727 33.834 82.7727 33.834C82.7922 33.834 82.8801 33.541 83.0363 32.9551L83.2414 32.1055C83.2414 32.2422 83.2316 32.3105 83.2121 32.3105L83.2414 30.9922C83.2414 30.8555 83.2316 30.7773 83.2121 30.7578C83.2316 30.7773 83.2414 30.8066 83.2414 30.8457C83.2414 30.8652 83.2512 30.8848 83.2707 30.9043V30.9922L83.007 29.9961C83.0266 30.0156 83.0363 30.0352 83.0363 30.0547C83.0363 30.0742 83.0363 30.1035 83.0363 30.1426C83.0559 30.1816 83.0754 30.2012 83.0949 30.2012L82.6555 29.4395H82.6848L82.802 29.5566V29.5859C82.7238 29.5859 82.6164 29.498 82.4797 29.3223C82.4406 29.2637 82.3918 29.2148 82.3332 29.1758L85.3215 26.1875L85.966 26.7148L86.3762 27.0664C86.4543 27.3789 86.9328 27.8867 87.8117 28.5898L87.9875 28.707L88.1047 28.7363C89.5695 29.4004 91.4055 29.7812 93.6125 29.8789C95.6438 29.957 96.7082 30.4355 96.8059 31.3145C96.9816 32.7207 95.9758 33.4141 93.7883 33.3945C91.718 33.3945 89.8625 33.209 88.2219 32.8379C86.4836 32.4277 84.5305 31.1973 82.3625 29.1465C81.9523 28.7559 81.757 28.2969 81.7766 27.7695V27.2715C81.7766 26.9785 81.9719 26.627 82.3625 26.2168C82.7531 25.7871 83.2121 25.582 83.7395 25.6016H84.2375C84.5305 25.6016 84.882 25.8066 85.2922 26.2168C86.7766 27.623 87.5188 29.4492 87.5188 31.6953C87.5188 32.7891 87.2063 34.1172 86.5813 35.6797C85.9758 37.2422 84.9406 38.7461 83.4758 40.1914C81.8938 41.7539 80.048 42.8477 77.9387 43.4727C77.0012 43.7461 76.0637 43.8828 75.1262 43.8828ZM91.2547 70.3672C90.2 70.3672 89.3113 70.2109 88.5887 69.8984C87.2801 69.2539 86.5574 67.9551 86.4207 66.002C86.4207 64.2441 86.6746 62.6328 87.1824 61.168C87.7488 59.4102 88.5398 57.75 89.5555 56.1875C93.7352 49.8398 98.9207 44.459 105.112 40.0449C109.155 37.1543 114.848 33.7461 122.192 29.8203C122.954 29.4102 123.511 29.2051 123.862 29.2051C124.624 29.2051 125.239 29.5469 125.708 30.2305C125.903 30.5625 126.001 30.9043 126.001 31.2559C126.001 32.0762 125.649 32.7012 124.946 33.1309L122.807 34.3027C116.05 37.8574 110.503 41.2559 106.167 44.498L105.815 44.7617C105.796 44.7812 105.776 44.791 105.757 44.791C105.757 44.8105 105.747 44.8203 105.727 44.8203C105.708 44.8398 105.688 44.8496 105.669 44.8496C105.669 44.8691 105.649 44.8789 105.61 44.8789C105.591 44.8984 105.21 45.2109 104.468 45.8164C101.753 48.0625 99.3016 50.4551 97.1141 52.9941C96.157 54.1465 95.6785 54.7422 95.6785 54.7812C95.6785 54.7617 95.7078 54.7227 95.7664 54.6641V54.6348L95.6492 54.8105C94.5359 56.2168 93.5203 57.7012 92.6023 59.2637C92.2117 59.9668 91.9383 60.5137 91.782 60.9043H91.7527L91.7234 61.0215L91.6941 61.0508L91.7527 60.9336L91.6648 61.1387C91.3719 61.8613 91.1375 62.6035 90.9617 63.3652C90.7664 64.1465 90.6687 64.6152 90.6687 64.7715L90.698 64.5664C90.698 64.7422 90.6785 64.9082 90.6395 65.0645V66.002C90.659 66.0215 90.6687 66.0996 90.6687 66.2363V66.0898L90.7273 66.3242L90.7566 66.4414C90.698 66.3633 90.6687 66.2949 90.6687 66.2363L90.7566 66.4121V66.3535L90.5809 66.1484C90.5809 66.168 90.5906 66.1777 90.6102 66.1777C90.6297 66.1973 90.659 66.2168 90.698 66.2363C90.7176 66.2754 90.7371 66.2949 90.7566 66.2949V66.3535L90.4344 66.0898L90.6102 66.207L90.6395 66.1777C90.6395 66.1582 90.6297 66.1387 90.6102 66.1191C90.5906 66.1191 90.5613 66.1094 90.5223 66.0898C90.4832 66.0703 90.4539 66.0605 90.4344 66.0605L90.3172 66.0898L90.3465 66.0605L90.4051 66.0898H90.6102L90.6687 66.1191H90.6395C90.6199 66.1387 90.5809 66.1484 90.5223 66.1484H91.4012L91.6355 66.1191L91.4598 66.1484L91.4891 66.1191C91.6258 66.1191 91.7039 66.1094 91.7234 66.0898C91.9773 66.0898 92.3875 65.9824 92.9539 65.7676L93.5105 65.5918C93.5105 65.6113 93.5008 65.6211 93.4812 65.6211C93.4617 65.6406 93.4324 65.6504 93.3934 65.6504C93.3543 65.6699 93.325 65.6797 93.3055 65.6797L93.2762 65.709L93.452 65.5918C93.5691 65.5918 93.9305 65.3672 94.5359 64.918L94.9168 64.625V64.6543L94.7996 64.7422C94.7996 64.7031 94.8582 64.6543 94.9754 64.5957C95.0145 64.5762 95.0437 64.5469 95.0633 64.5078C96.2937 63.5508 97.5828 62.2422 98.9305 60.582V60.5527L98.8426 60.6699L99.1062 60.3477C100.825 58.043 102.495 54.9766 104.116 51.1484C104.155 51.1094 104.194 51.0312 104.233 50.9141C104.292 50.7969 104.321 50.7188 104.321 50.6797L104.292 50.7969L104.526 50.1816C106.245 46.0605 107.622 41.8418 108.657 37.5254C109.595 33.6191 110.425 29.6738 111.147 25.6895L115.22 26.8027C113.598 30.7676 110.669 34.4492 106.43 37.8477C104.907 39.0977 104.018 39.8105 103.764 39.9863C101.792 41.7246 99.7996 42.5938 97.7879 42.5938C97.7488 42.5938 97.4168 42.584 96.7918 42.5645C96.1863 42.5449 95.3758 42.125 94.3602 41.3047C93.4227 40.4258 92.9148 39.3711 92.8367 38.1406L92.8074 37.1738C92.8074 36.2754 92.9051 35.3965 93.1004 34.5371C93.4715 32.6035 94.1551 30.7773 95.1512 29.0586C97.1629 25.4844 100.014 22.8379 103.706 21.1191C105.268 20.416 106.85 20.0645 108.452 20.0645C111.186 20.0645 113.13 21.1191 114.282 23.2285C114.458 23.6191 114.546 23.9902 114.546 24.3418C114.546 25.0059 114.204 25.5918 113.52 26.0996C113.208 26.2949 112.876 26.3926 112.524 26.3926C111.645 26.3926 111.02 26.041 110.649 25.3379L110.415 24.957L110.327 24.8691H110.356C110.376 24.8887 110.395 24.918 110.415 24.957C110.454 24.9766 110.473 24.9961 110.473 25.0156H110.503L110.415 24.9277C110.259 24.8301 110.171 24.7715 110.151 24.752C110.151 24.7129 110.151 24.6836 110.151 24.6641L110.298 24.752L110.327 24.8105H110.268C110.229 24.7715 110.151 24.7227 110.034 24.6641C110.034 24.6445 110.024 24.6348 110.005 24.6348C109.985 24.6152 109.956 24.5957 109.917 24.5762C109.897 24.5566 109.8 24.5078 109.624 24.4297H109.653C109.673 24.4492 109.692 24.4688 109.712 24.4883C109.731 24.4883 109.751 24.4883 109.77 24.4883C109.809 24.4883 109.829 24.498 109.829 24.5176L109.8 24.4883C109.702 24.4883 109.585 24.459 109.448 24.4004L108.95 24.2539L108.891 24.2832H109.155C109.155 24.3027 109.136 24.3125 109.096 24.3125L108.95 24.2832L108.423 24.2539C108.13 24.2539 107.846 24.2734 107.573 24.3125H107.397L107.544 24.2832L107.602 24.3125C107.602 24.293 107.593 24.2832 107.573 24.2832C107.554 24.2832 107.524 24.293 107.485 24.3125C107.446 24.332 107.407 24.3418 107.368 24.3418C107.329 24.3418 107.309 24.3516 107.309 24.3711C106.802 24.4492 106.323 24.5762 105.874 24.752L105.552 24.8691L105.727 24.7812H105.757L105.376 24.9863C104.575 25.3574 103.823 25.7871 103.12 26.2754L102.651 26.627L102.739 26.5391H102.768L102.475 26.7734C101.675 27.457 100.932 28.1895 100.249 28.9707C100.249 29.0293 100.22 29.0781 100.161 29.1172C100.122 29.1562 100.083 29.1953 100.044 29.2344C100.024 29.2539 100.014 29.2734 100.014 29.293V29.2637L99.4578 30.0547C99.0086 30.7383 98.6082 31.4414 98.2566 32.1641C98.2176 32.2812 98.1687 32.3887 98.1102 32.4863L98.0809 32.6035L98.0223 32.7207L98.0809 32.5449V32.6035L98.0223 32.6914C97.6902 33.4531 97.4266 34.332 97.2312 35.3281L97.1141 35.8262L97.0848 36.1777L97.0555 36.2363V36.3242L97.0848 36.1777L97.0555 36.2363V36.4414L97.0262 36.4707L96.9969 37.4375C96.9969 37.5547 97.0066 37.6328 97.0262 37.6719V37.7598L96.9969 37.6426C96.9969 37.6816 97.0066 37.7402 97.0262 37.8184C97.0457 37.877 97.0555 37.9258 97.0555 37.9648C97.075 38.0039 97.0945 38.0332 97.1141 38.0527V38.1113L97.1434 38.1699L97.0848 37.9941L97.1727 38.1699L97.0262 37.9941L97.1727 38.1406H97.1434H97.1727C97.1727 38.1602 97.1922 38.1895 97.2312 38.2285C97.2703 38.248 97.2996 38.2676 97.3191 38.2871C97.3582 38.2871 97.3875 38.2871 97.407 38.2871L97.4363 38.3164L97.2312 38.2285H97.2898L97.4363 38.3164H97.5242L97.5828 38.3457C97.6805 38.3848 97.7488 38.4043 97.7879 38.4043L97.6121 38.375V38.3457H97.6414C97.6609 38.3652 97.7293 38.375 97.8465 38.375C97.866 38.3945 97.9832 38.4043 98.198 38.4043C98.2176 38.3848 98.2762 38.375 98.3738 38.375H98.198L98.1687 38.4043L98.2859 38.375C98.4812 38.3359 98.6863 38.2773 98.9012 38.1992C98.9402 38.1992 98.9695 38.1895 98.9891 38.1699H99.0184C98.9988 38.1895 98.9695 38.209 98.9305 38.2285C98.8914 38.2285 98.8621 38.2285 98.8426 38.2285C99.3504 38.0332 99.9363 37.6816 100.6 37.1738C100.6 37.1543 100.61 37.1445 100.63 37.1445C100.649 37.125 100.679 37.0957 100.718 37.0566C100.776 37.0176 100.815 36.998 100.835 36.998L100.718 37.0859L100.747 37.0566C100.766 37.0371 100.786 37.0273 100.805 37.0273C100.845 37.0078 100.864 36.9785 100.864 36.9395L101.157 36.7051C104.497 34.166 107.075 31.7734 108.891 29.5273C108.95 29.4688 108.979 29.4297 108.979 29.4102L108.891 29.5273C108.97 29.4688 109.048 29.3711 109.126 29.2344C109.223 29.0781 109.331 28.9219 109.448 28.7656C110.073 27.8477 110.6 26.9102 111.03 25.9531L111.089 25.8945V25.8652L111.03 25.9824L111.001 26.041C111.04 25.9238 111.089 25.8164 111.147 25.7188V25.6895C111.557 24.6934 112.251 24.1953 113.227 24.1953C114.067 24.1953 114.653 24.5371 114.985 25.2207C115.161 25.5723 115.249 25.9434 115.249 26.334L115.22 26.8027C114.067 33.0723 112.905 38.2969 111.733 42.4766C110.581 46.3828 109.165 50.2012 107.485 53.9316C106.098 57.2324 104.341 60.3184 102.212 63.1895C101.118 64.6152 99.8973 65.9141 98.5496 67.0859C96.3426 69.1562 93.9109 70.25 91.2547 70.3672ZM124.668 53.7852C123.575 53.7852 122.491 53.5605 121.416 53.1113C119.62 52.2715 118.496 50.8945 118.047 48.9805C117.989 48.5508 117.959 48.1309 117.959 47.7207C117.959 46.3535 118.252 45.0254 118.838 43.7363C120.186 40.6895 122.217 38.209 124.932 36.2949C129.678 32.9941 135.899 30.9336 143.594 30.1133C144.239 30.1133 144.737 30.3281 145.088 30.7578C145.459 31.1875 145.664 31.6758 145.704 32.2227C145.704 32.8281 145.489 33.3164 145.059 33.6875C144.649 34.0391 144.161 34.2539 143.594 34.332L142.686 34.4199H142.803L142.246 34.5078C138.985 34.918 135.606 35.7969 132.11 37.1445L131.7 37.3203L131.377 37.4668C130.459 37.8574 129.473 38.375 128.418 39.0195C127.715 39.4688 127.266 39.7715 127.071 39.9277C127.032 39.9473 127.002 39.9668 126.983 39.9863C126.963 39.9863 126.905 40.0254 126.807 40.1035L126.954 40.0156C126.133 40.5625 125.342 41.3145 124.58 42.2715L124.2 42.7402C124.2 42.7207 124.2 42.7012 124.2 42.6816C124.219 42.6621 124.229 42.6523 124.229 42.6523C124.248 42.6328 124.287 42.5938 124.346 42.5352C124.268 42.5938 124.229 42.6523 124.229 42.7109C123.643 43.5117 123.204 44.2539 122.911 44.9375C122.891 44.9961 122.871 45.0352 122.852 45.0547C122.832 45.0742 122.813 45.123 122.793 45.2012V45.1719L122.823 45.0547H122.852L122.764 45.2305C122.53 45.8555 122.373 46.3633 122.295 46.7539L122.149 47.3398L122.12 47.3984L122.149 47.1934L122.12 47.5449V47.7793C122.12 47.8379 122.129 47.8867 122.149 47.9258V48.0137C122.188 48.1113 122.207 48.209 122.207 48.3066C122.227 48.3066 122.237 48.3164 122.237 48.3359C122.237 48.3555 122.246 48.3848 122.266 48.4238C122.266 48.4824 122.276 48.5117 122.295 48.5117V48.4824C122.237 48.4238 122.207 48.375 122.207 48.3359C122.188 48.3164 122.178 48.2969 122.178 48.2773L122.207 48.3066C122.207 48.3262 122.227 48.3555 122.266 48.3945C122.286 48.4336 122.305 48.4727 122.325 48.5117C122.344 48.5703 122.373 48.6289 122.412 48.6875C122.432 48.7656 122.461 48.8047 122.5 48.8047C122.422 48.8047 122.383 48.7754 122.383 48.7168L122.354 48.6582H122.383C122.383 48.6777 122.51 48.8145 122.764 49.0684L122.881 49.1562L122.852 49.127C122.832 49.127 122.813 49.1172 122.793 49.0977C122.774 49.0977 122.754 49.0879 122.735 49.0684C122.715 49.0684 122.705 49.0586 122.705 49.0391L123.057 49.2148C123.174 49.332 123.291 49.3906 123.409 49.3906L123.174 49.332C123.233 49.332 123.282 49.3418 123.321 49.3613C123.36 49.3809 123.536 49.4297 123.848 49.5078C123.926 49.5469 124.024 49.5664 124.141 49.5664L123.936 49.5371C123.995 49.5566 124.112 49.5664 124.287 49.5664C124.483 49.5859 124.678 49.5957 124.873 49.5957C124.912 49.5762 125.039 49.5664 125.254 49.5664C125.254 49.5859 125.225 49.5957 125.166 49.5957H125.049L125.518 49.5078L126.368 49.2441L126.485 49.2148C126.485 49.1758 126.514 49.1562 126.573 49.1562L126.631 49.127H126.661L126.895 49.0098C127.266 48.7949 127.627 48.5605 127.979 48.3066L128.067 48.2773C128.047 48.2969 128.018 48.3164 127.979 48.3359C127.959 48.3555 127.94 48.3652 127.92 48.3652C127.92 48.3848 127.911 48.3945 127.891 48.3945C128.555 47.8477 129.092 47.3203 129.502 46.8125L129.62 46.6953L129.561 46.7832V46.7539C129.561 46.7344 129.58 46.7051 129.62 46.666C130.03 46.0801 130.401 45.4551 130.733 44.791L130.821 44.6152V44.5859L130.85 44.498C130.87 44.4199 130.899 44.3516 130.938 44.293C131.055 43.8633 131.153 43.4629 131.231 43.0918L131.26 43.0625C131.26 42.9648 131.27 42.9062 131.289 42.8867L131.26 43.0039C131.299 42.6133 131.319 42.2324 131.319 41.8613C131.319 41.627 131.309 41.4023 131.289 41.1875V40.9531L131.26 40.748L131.289 40.8652V41.0117L131.319 40.8945C131.319 40.7578 131.25 40.4844 131.114 40.0742C131.075 39.918 130.918 39.4297 130.645 38.6094C130.684 38.7266 130.704 38.7949 130.704 38.8145C130.704 38.8145 130.713 38.8145 130.733 38.8145L130.616 38.6094C130.42 38.1797 130.186 37.7598 129.912 37.3496C129.756 37.1543 129.678 37.0273 129.678 36.9688H129.649L129.766 37.1152L129.561 36.8809C129.17 36.4121 128.741 35.9922 128.272 35.6211L128.389 35.7383V35.709L128.155 35.5625C127.842 35.3281 127.295 34.9961 126.514 34.5664C125.342 33.9805 124.287 33.2383 123.35 32.3398C122.08 30.9727 121.446 29.4102 121.446 27.6523C121.446 27.3398 121.465 27.0273 121.504 26.7148C121.856 24.6836 122.696 22.877 124.024 21.2949C124.629 20.5137 125.352 19.8008 126.192 19.1562C127.52 18.1406 128.936 17.6328 130.44 17.6328C132.295 17.6328 133.78 18.375 134.893 19.8594C135.518 20.7773 135.84 21.7734 135.86 22.8477C135.86 23.9219 135.645 24.957 135.215 25.9531C134.317 27.7109 133.067 29.1758 131.465 30.3477C129.805 31.6562 127.979 32.6621 125.987 33.3652C125.772 33.4238 125.567 33.4531 125.371 33.4531C125.02 33.4531 124.649 33.3262 124.258 33.0723C123.868 32.8184 123.575 32.4277 123.379 31.9004C123.321 31.7051 123.291 31.5098 123.291 31.3145C123.291 30.9629 123.418 30.5918 123.672 30.2012C123.926 29.791 124.317 29.4883 124.844 29.293L125.606 29.0293L125.489 29.0586C125.508 29.0391 125.537 29.0293 125.577 29.0293C125.616 29.0098 125.655 28.9902 125.694 28.9707L125.899 28.8828C126.661 28.5508 127.452 28.0918 128.272 27.5059C128.35 27.4668 128.438 27.4082 128.536 27.3301L128.653 27.2422C128.633 27.2422 128.604 27.2617 128.565 27.3008C129.483 26.5781 130.166 25.9336 130.616 25.3672C130.713 25.2695 130.772 25.2012 130.791 25.1621L130.704 25.25V25.2793L130.821 25.1328C130.977 24.918 131.114 24.7031 131.231 24.4883L131.377 24.2539C131.377 24.1953 131.387 24.1465 131.407 24.1074C131.446 24.0488 131.475 24.0098 131.495 23.9902L131.436 24.1074L131.495 23.9609C131.495 23.9219 131.543 23.7559 131.641 23.4629V22.9062C131.641 22.8672 131.631 22.8086 131.612 22.7305C131.612 22.6328 131.573 22.5059 131.495 22.3496V22.2617C131.495 22.3203 131.514 22.3691 131.553 22.4082V22.4668L131.377 22.1445C131.358 22.125 131.338 22.1152 131.319 22.1152C131.299 22.0957 131.289 22.0762 131.289 22.0566V22.0859C131.309 22.0859 131.329 22.1055 131.348 22.1445C131.387 22.1836 131.416 22.2031 131.436 22.2031V22.1738C131.397 22.1738 131.348 22.1445 131.289 22.0859L131.202 21.998L131.289 22.0566C131.153 21.998 131.036 21.9297 130.938 21.8516H130.909H130.938C130.938 21.8711 130.948 21.8906 130.967 21.9102C130.987 21.9102 131.006 21.9199 131.026 21.9395C131.065 21.9395 131.084 21.9492 131.084 21.9688C131.084 21.9492 131.055 21.9395 130.996 21.9395C130.938 21.9395 130.85 21.9102 130.733 21.8516H130.176L130.352 21.8223L130.293 21.8516C129.961 21.9102 129.737 21.9688 129.62 22.0273L129.502 22.0566L129.649 22.0273L129.59 22.0566C129.473 22.1152 129.385 22.1543 129.327 22.1738C129.268 22.1934 129.063 22.3203 128.711 22.5547L128.536 22.6719C128.536 22.6523 128.536 22.6426 128.536 22.6426C128.555 22.623 128.565 22.6133 128.565 22.6133C128.584 22.5938 128.604 22.5742 128.623 22.5547H128.653C128.653 22.5742 128.633 22.5938 128.594 22.6133L127.92 23.2578L127.012 24.2539H126.983H127.012L127.1 24.1367V24.1074C127.1 24.166 127.041 24.2539 126.924 24.3711C126.905 24.4297 126.875 24.4785 126.836 24.5176C126.602 24.8887 126.387 25.25 126.192 25.6016L126.162 25.6895C126.104 25.8066 126.065 25.8848 126.045 25.9238V25.9824L126.075 25.8652C125.918 26.2363 125.801 26.627 125.723 27.0371C125.684 27.252 125.655 27.3691 125.635 27.3887L125.664 27.3301V27.8867C125.664 27.9844 125.674 28.043 125.694 28.0625V28.1504C125.674 28.1309 125.664 28.0723 125.664 27.9746L125.635 27.9453H125.664C125.664 28.043 125.674 28.0918 125.694 28.0918L125.752 28.3848L125.87 28.707C125.85 28.707 125.83 28.6973 125.811 28.6777C125.811 28.6582 125.811 28.6387 125.811 28.6191C125.811 28.5996 125.801 28.5801 125.782 28.5605L126.104 29.0879C126.104 29.1074 126.133 29.1465 126.192 29.2051L126.25 29.293V29.2637C126.231 29.2637 126.182 29.2246 126.104 29.1465H126.133C126.153 29.166 126.162 29.1855 126.162 29.2051C126.182 29.2051 126.202 29.2246 126.221 29.2637C126.26 29.2832 126.28 29.3027 126.28 29.3223C126.475 29.5176 126.7 29.7227 126.954 29.9375L126.836 29.8203H126.866C126.885 29.8398 126.905 29.8691 126.924 29.9082C126.963 29.9277 127.002 29.9473 127.041 29.9668C127.178 30.084 127.725 30.416 128.682 30.9629C132.569 33.1113 134.815 36.2363 135.42 40.3379C135.479 40.8652 135.508 41.3828 135.508 41.8906C135.508 45.0547 134.336 47.877 131.993 50.3574C130.606 51.8223 128.965 52.8379 127.071 53.4043C126.27 53.6582 125.469 53.7852 124.668 53.7852Z" fill="#077DF9"/>
</svg>
