<svg width="14" height="14" viewBox="0 0 14 14" fill="none" xmlns="http://www.w3.org/2000/svg">
<path d="M13.4376 2.24179C13.9014 1.77804 13.9014 1.02616 13.4376 0.56241C12.9739 0.0986627 12.222 0.0986627 11.7583 0.56241L7.00004 5.32064L2.2418 0.562411C1.77806 0.0986637 1.02617 0.0986632 0.562425 0.562411C0.0986774 1.02616 0.0986778 1.77804 0.562425 2.24179L5.32066 7.00002L0.56241 11.7583C0.098663 12.222 0.0986625 12.9739 0.56241 13.4376C1.02616 13.9014 1.77804 13.9014 2.24179 13.4376L7.00004 8.6794L11.7583 13.4376C12.222 13.9014 12.9739 13.9014 13.4377 13.4376C13.9014 12.9739 13.9014 12.222 13.4377 11.7583L8.67941 7.00002L13.4376 2.24179Z" fill="white"/>
</svg>
