<svg width="1920" height="856" viewBox="0 0 1920 856" fill="none" xmlns="http://www.w3.org/2000/svg">
<mask id="mask0_20_4340" style="mask-type:alpha" maskUnits="userSpaceOnUse" x="0" y="0" width="1920" height="856">
<rect width="1920" height="856" fill="#0E185F"/>
</mask>
<g mask="url(#mask0_20_4340)">
<g opacity="0.5">
<mask id="path-2-inside-1_20_4340" fill="white">
<path fill-rule="evenodd" clip-rule="evenodd" d="M18.271 910.132C-26.7935 863.456 -63.9906 824.413 -64.3925 823.369C-64.7921 822.325 -30.1376 793.905 12.6192 760.211C55.3761 726.519 92.5682 697.932 95.2682 696.683C98.3944 695.24 102.552 695.307 106.71 696.874C110.301 698.227 147.808 726.788 190.056 760.339C232.307 793.893 266.874 822.294 266.874 823.454C266.874 824.614 236.557 856.889 199.5 895.177C162.444 933.465 125.823 971.587 118.118 979.896C110.415 988.202 103.233 995 102.157 995C101.085 995 63.3356 956.811 18.271 910.132ZM-165.135 852.012C-168.53 847.174 -169 833.718 -169 741.31V636.117H-157.396C-146.446 636.117 -143.274 634.358 -101.096 604.922C-76.5123 587.764 -51.7522 570.005 -46.0689 565.457C-40.388 560.909 -34.1235 554.067 -32.1451 550.251C-29.1667 544.499 -28.5467 528.522 -28.5176 456.797L-28.4814 370.278L18.7869 331.611C44.7868 310.343 68.1617 291.979 70.7334 290.799C73.9734 289.311 77.2908 289.883 81.5455 292.668L87.6816 296.679V663.168L-29.8084 759.602C-114.886 829.435 -149.226 856.242 -154.284 856.778C-159.343 857.315 -162.336 856 -165.135 852.012ZM239.918 765.281C178.164 714.699 124.639 670.094 120.978 666.157L114.318 658.999V301.182L120.413 295.099C124.767 290.754 127.959 289.478 131.596 290.63C134.398 291.517 157.756 309.589 183.506 330.791L230.326 369.34L231.046 456.811C231.678 533.996 232.252 545.171 235.913 551.849C238.673 556.883 257.317 571.516 291.608 595.565C319.957 615.447 345.753 633.096 348.933 634.783C352.163 636.497 358.306 637.268 362.857 636.53L371 635.213V742.431C371 836.683 370.54 850.11 367.196 853.45C365.101 855.538 360.873 857.247 357.795 857.247C354.015 857.247 315.779 827.415 239.918 765.281Z"/>
<path fill-rule="evenodd" clip-rule="evenodd" d="M591.271 910.132C546.206 863.456 509.009 824.413 508.607 823.369C508.208 822.325 542.862 793.905 585.619 760.211C628.376 726.519 665.568 697.932 668.268 696.683C671.395 695.24 675.552 695.307 679.71 696.874C683.301 698.227 720.808 726.788 763.056 760.339C805.307 793.893 839.875 822.294 839.875 823.454C839.875 824.614 809.557 856.889 772.5 895.177C735.444 933.465 698.823 971.587 691.118 979.896C683.415 988.202 676.233 995 675.157 995C674.085 995 636.336 956.811 591.271 910.132ZM407.865 852.012C404.47 847.174 404 833.718 404 741.31V636.117H415.604C426.554 636.117 429.726 634.358 471.904 604.922C496.488 587.764 521.248 570.005 526.931 565.457C532.612 560.909 538.876 554.067 540.855 550.251C543.833 544.499 544.453 528.522 544.482 456.797L544.519 370.278L591.787 331.611C617.787 310.343 641.162 291.979 643.733 290.799C646.973 289.311 650.291 289.883 654.546 292.668L660.682 296.679V663.168L543.192 759.602C458.114 829.435 423.774 856.242 418.716 856.778C413.657 857.315 410.664 856 407.865 852.012ZM812.918 765.281C751.164 714.699 697.639 670.094 693.978 666.157L687.318 658.999V301.182L693.413 295.099C697.767 290.754 700.959 289.478 704.596 290.63C707.398 291.517 730.756 309.589 756.506 330.791L803.326 369.34L804.046 456.811C804.677 533.996 805.251 545.171 808.913 551.849C811.673 556.883 830.317 571.516 864.608 595.565C892.957 615.447 918.753 633.096 921.933 634.783C925.163 636.497 931.306 637.268 935.856 636.53L944 635.213V742.431C944 836.683 943.54 850.11 940.196 853.45C938.101 855.538 933.873 857.247 930.795 857.247C927.015 857.247 888.78 827.415 812.918 765.281Z"/>
<path fill-rule="evenodd" clip-rule="evenodd" d="M1164.27 910.132C1119.21 863.456 1082.01 824.413 1081.61 823.369C1081.21 822.325 1115.86 793.905 1158.62 760.211C1201.38 726.519 1238.57 697.932 1241.27 696.683C1244.39 695.24 1248.55 695.307 1252.71 696.874C1256.3 698.227 1293.81 726.788 1336.06 760.339C1378.31 793.893 1412.87 822.294 1412.87 823.454C1412.87 824.614 1382.56 856.889 1345.5 895.177C1308.44 933.465 1271.82 971.587 1264.12 979.896C1256.41 988.202 1249.23 995 1248.16 995C1247.08 995 1209.34 956.811 1164.27 910.132ZM980.865 852.012C977.47 847.174 977 833.718 977 741.31V636.117H988.604C999.554 636.117 1002.73 634.358 1044.9 604.922C1069.49 587.764 1094.25 570.005 1099.93 565.457C1105.61 560.909 1111.88 554.067 1113.85 550.251C1116.83 544.499 1117.45 528.522 1117.48 456.797L1117.52 370.278L1164.79 331.611C1190.79 310.343 1214.16 291.979 1216.73 290.799C1219.97 289.311 1223.29 289.883 1227.55 292.668L1233.68 296.679V663.168L1116.19 759.602C1031.11 829.435 996.774 856.242 991.716 856.778C986.657 857.315 983.664 856 980.865 852.012ZM1385.92 765.281C1324.16 714.699 1270.64 670.094 1266.98 666.157L1260.32 658.999V301.182L1266.41 295.099C1270.77 290.754 1273.96 289.478 1277.6 290.63C1280.4 291.517 1303.76 309.589 1329.51 330.791L1376.33 369.34L1377.05 456.811C1377.68 533.996 1378.25 545.171 1381.91 551.849C1384.67 556.883 1403.32 571.516 1437.61 595.565C1465.96 615.447 1491.75 633.096 1494.93 634.783C1498.16 636.497 1504.31 637.268 1508.86 636.53L1517 635.213V742.431C1517 836.683 1516.54 850.11 1513.2 853.45C1511.1 855.538 1506.87 857.247 1503.8 857.247C1500.02 857.247 1461.78 827.415 1385.92 765.281Z"/>
<path fill-rule="evenodd" clip-rule="evenodd" d="M1737.27 910.132C1692.21 863.456 1655.01 824.413 1654.61 823.369C1654.21 822.325 1688.86 793.905 1731.62 760.211C1774.38 726.519 1811.57 697.932 1814.27 696.683C1817.39 695.24 1821.55 695.307 1825.71 696.874C1829.3 698.227 1866.81 726.788 1909.06 760.339C1951.31 793.893 1985.87 822.294 1985.87 823.454C1985.87 824.614 1955.56 856.889 1918.5 895.177C1881.44 933.465 1844.82 971.587 1837.12 979.896C1829.41 988.202 1822.23 995 1821.16 995C1820.08 995 1782.34 956.811 1737.27 910.132ZM1553.86 852.012C1550.47 847.174 1550 833.718 1550 741.31V636.117H1561.6C1572.55 636.117 1575.73 634.358 1617.9 604.922C1642.49 587.764 1667.25 570.005 1672.93 565.457C1678.61 560.909 1684.88 554.067 1686.85 550.251C1689.83 544.499 1690.45 528.522 1690.48 456.797L1690.52 370.278L1737.79 331.611C1763.79 310.343 1787.16 291.979 1789.73 290.799C1792.97 289.311 1796.29 289.883 1800.55 292.668L1806.68 296.679V663.168L1689.19 759.602C1604.11 829.435 1569.77 856.242 1564.72 856.778C1559.66 857.315 1556.66 856 1553.86 852.012ZM1958.92 765.281C1897.16 714.699 1843.64 670.094 1839.98 666.157L1833.32 658.999V301.182L1839.41 295.099C1843.77 290.754 1846.96 289.478 1850.6 290.63C1853.4 291.517 1876.76 309.589 1902.51 330.791L1949.33 369.34L1950.05 456.811C1950.68 533.996 1951.25 545.171 1954.91 551.849C1957.67 556.883 1976.32 571.516 2010.61 595.565C2038.96 615.447 2064.75 633.096 2067.93 634.783C2071.16 636.497 2077.31 637.268 2081.86 636.53L2090 635.213V742.431C2090 836.683 2089.54 850.11 2086.2 853.45C2084.1 855.538 2079.87 857.247 2076.8 857.247C2073.02 857.247 2034.78 827.415 1958.92 765.281Z"/>
<path fill-rule="evenodd" clip-rule="evenodd" d="M-263.729 -22.1321C-308.794 24.5444 -345.991 63.5865 -346.393 64.6306C-346.792 65.6746 -312.138 94.0952 -269.381 127.789C-226.624 161.481 -189.432 190.068 -186.732 191.317C-183.606 192.76 -179.448 192.692 -175.29 191.126C-171.699 189.773 -134.192 161.212 -91.9436 127.661C-49.6929 94.1073 -15.1255 65.706 -15.1255 64.546C-15.1255 63.386 -45.4431 31.1107 -82.4996 -7.17743C-119.556 -45.4655 -156.177 -83.5868 -163.882 -91.8955C-171.585 -100.202 -178.767 -107 -179.842 -107C-180.915 -107 -218.664 -68.811 -263.729 -22.1321ZM-447.135 35.9876C-450.53 40.8259 -451 54.2822 -451 146.69V251.883H-439.396C-428.446 251.883 -425.274 253.642 -383.096 283.078C-358.512 300.237 -333.752 317.995 -328.069 322.543C-322.388 327.091 -316.124 333.933 -314.145 337.749C-311.167 343.501 -310.547 359.478 -310.518 431.203L-310.481 517.722L-263.213 556.389C-237.213 577.657 -213.838 596.021 -211.267 597.201C-208.027 598.689 -204.709 598.117 -200.455 595.332L-194.318 591.321V224.832L-311.808 128.398C-396.886 58.5646 -431.226 31.7583 -436.284 31.2218C-441.343 30.6853 -444.336 32 -447.135 35.9876ZM-42.082 122.719C-103.836 173.301 -157.361 217.906 -161.022 221.843L-167.682 229.001V586.818L-161.587 592.901C-157.233 597.246 -154.041 598.522 -150.404 597.37C-147.602 596.483 -124.244 578.411 -98.4937 557.209L-51.6736 518.66L-50.9545 431.189C-50.3224 354.004 -49.7485 342.829 -46.0872 336.151C-43.3267 331.117 -24.6833 316.484 9.60788 292.435C37.9567 272.553 63.7533 254.904 66.9327 253.217C70.163 251.503 76.3065 250.732 80.8565 251.47L89 252.787V145.569C89 51.3169 88.54 37.8896 85.1959 34.5497C83.1013 32.4617 78.8732 30.753 75.7954 30.753C72.0154 30.753 33.7795 60.5849 -42.082 122.719Z"/>
<path fill-rule="evenodd" clip-rule="evenodd" d="M309.271 -22.1321C264.206 24.5444 227.009 63.5865 226.607 64.6306C226.208 65.6746 260.862 94.0952 303.619 127.789C346.376 161.481 383.568 190.068 386.268 191.317C389.394 192.76 393.552 192.692 397.71 191.126C401.301 189.773 438.808 161.212 481.056 127.661C523.307 94.1073 557.874 65.706 557.874 64.546C557.874 63.386 527.557 31.1107 490.5 -7.17743C453.444 -45.4655 416.823 -83.5868 409.118 -91.8955C401.415 -100.202 394.233 -107 393.157 -107C392.085 -107 354.336 -68.811 309.271 -22.1321ZM125.865 35.9876C122.47 40.8259 122 54.2822 122 146.69V251.883H133.604C144.554 251.883 147.726 253.642 189.904 283.078C214.488 300.237 239.248 317.995 244.931 322.543C250.612 327.091 256.876 333.933 258.855 337.749C261.833 343.501 262.453 359.478 262.482 431.203L262.519 517.722L309.787 556.389C335.787 577.657 359.162 596.021 361.733 597.201C364.973 598.689 368.291 598.117 372.545 595.332L378.682 591.321V224.832L261.192 128.398C176.114 58.5646 141.774 31.7583 136.716 31.2218C131.657 30.6853 128.664 32 125.865 35.9876ZM530.918 122.719C469.164 173.301 415.639 217.906 411.978 221.843L405.318 229.001V586.818L411.413 592.901C415.767 597.246 418.959 598.522 422.596 597.37C425.398 596.483 448.756 578.411 474.506 557.209L521.326 518.66L522.046 431.189C522.678 354.004 523.252 342.829 526.913 336.151C529.673 331.117 548.317 316.484 582.608 292.435C610.957 272.553 636.753 254.904 639.933 253.217C643.163 251.503 649.306 250.732 653.856 251.47L662 252.787V145.569C662 51.3169 661.54 37.8896 658.196 34.5497C656.101 32.4617 651.873 30.753 648.795 30.753C645.015 30.753 606.78 60.5849 530.918 122.719Z"/>
<path fill-rule="evenodd" clip-rule="evenodd" d="M882.271 -22.1321C837.206 24.5444 800.009 63.5865 799.607 64.6306C799.208 65.6746 833.862 94.0952 876.619 127.789C919.376 161.481 956.568 190.068 959.268 191.317C962.395 192.76 966.552 192.692 970.71 191.126C974.301 189.773 1011.81 161.212 1054.06 127.661C1096.31 94.1073 1130.87 65.706 1130.87 64.546C1130.87 63.386 1100.56 31.1107 1063.5 -7.17743C1026.44 -45.4655 989.823 -83.5868 982.118 -91.8955C974.415 -100.202 967.233 -107 966.157 -107C965.085 -107 927.336 -68.811 882.271 -22.1321ZM698.865 35.9876C695.47 40.8259 695 54.2822 695 146.69V251.883H706.604C717.554 251.883 720.726 253.642 762.904 283.078C787.488 300.237 812.248 317.995 817.931 322.543C823.612 327.091 829.876 333.933 831.855 337.749C834.833 343.501 835.453 359.478 835.482 431.203L835.519 517.722L882.787 556.389C908.787 577.657 932.162 596.021 934.733 597.201C937.973 598.689 941.291 598.117 945.546 595.332L951.682 591.321V224.832L834.192 128.398C749.114 58.5646 714.774 31.7583 709.716 31.2218C704.657 30.6853 701.664 32 698.865 35.9876ZM1103.92 122.719C1042.16 173.301 988.639 217.906 984.978 221.843L978.318 229.001V586.818L984.413 592.901C988.767 597.246 991.959 598.522 995.596 597.37C998.398 596.483 1021.76 578.411 1047.51 557.209L1094.33 518.66L1095.05 431.189C1095.68 354.004 1096.25 342.829 1099.91 336.151C1102.67 331.117 1121.32 316.484 1155.61 292.435C1183.96 272.553 1209.75 254.904 1212.93 253.217C1216.16 251.503 1222.31 250.732 1226.86 251.47L1235 252.787V145.569C1235 51.3169 1234.54 37.8896 1231.2 34.5497C1229.1 32.4617 1224.87 30.753 1221.8 30.753C1218.02 30.753 1179.78 60.5849 1103.92 122.719Z"/>
<path fill-rule="evenodd" clip-rule="evenodd" d="M1455.27 -22.1321C1410.21 24.5444 1373.01 63.5865 1372.61 64.6306C1372.21 65.6746 1406.86 94.0952 1449.62 127.789C1492.38 161.481 1529.57 190.068 1532.27 191.317C1535.39 192.76 1539.55 192.692 1543.71 191.126C1547.3 189.773 1584.81 161.212 1627.06 127.661C1669.31 94.1073 1703.87 65.706 1703.87 64.546C1703.87 63.386 1673.56 31.1107 1636.5 -7.17743C1599.44 -45.4655 1562.82 -83.5868 1555.12 -91.8955C1547.41 -100.202 1540.23 -107 1539.16 -107C1538.08 -107 1500.34 -68.811 1455.27 -22.1321ZM1271.86 35.9876C1268.47 40.8259 1268 54.2822 1268 146.69V251.883H1279.6C1290.55 251.883 1293.73 253.642 1335.9 283.078C1360.49 300.237 1385.25 317.995 1390.93 322.543C1396.61 327.091 1402.88 333.933 1404.85 337.749C1407.83 343.501 1408.45 359.478 1408.48 431.203L1408.52 517.722L1455.79 556.389C1481.79 577.657 1505.16 596.021 1507.73 597.201C1510.97 598.689 1514.29 598.117 1518.55 595.332L1524.68 591.321V224.832L1407.19 128.398C1322.11 58.5646 1287.77 31.7583 1282.72 31.2218C1277.66 30.6853 1274.66 32 1271.86 35.9876ZM1676.92 122.719C1615.16 173.301 1561.64 217.906 1557.98 221.843L1551.32 229.001V586.818L1557.41 592.901C1561.77 597.246 1564.96 598.522 1568.6 597.37C1571.4 596.483 1594.76 578.411 1620.51 557.209L1667.33 518.66L1668.05 431.189C1668.68 354.004 1669.25 342.829 1672.91 336.151C1675.67 331.117 1694.32 316.484 1728.61 292.435C1756.96 272.553 1782.75 254.904 1785.93 253.217C1789.16 251.503 1795.31 250.732 1799.86 251.47L1808 252.787V145.569C1808 51.3169 1807.54 37.8896 1804.2 34.5497C1802.1 32.4617 1797.87 30.753 1794.8 30.753C1791.02 30.753 1752.78 60.5849 1676.92 122.719Z"/>
<path fill-rule="evenodd" clip-rule="evenodd" d="M2028.27 -22.1321C1983.21 24.5444 1946.01 63.5865 1945.61 64.6306C1945.21 65.6746 1979.86 94.0952 2022.62 127.789C2065.38 161.481 2102.57 190.068 2105.27 191.317C2108.39 192.76 2112.55 192.692 2116.71 191.126C2120.3 189.773 2157.81 161.212 2200.06 127.661C2242.31 94.1073 2276.87 65.706 2276.87 64.546C2276.87 63.386 2246.56 31.1107 2209.5 -7.17743C2172.44 -45.4655 2135.82 -83.5868 2128.12 -91.8955C2120.41 -100.202 2113.23 -107 2112.16 -107C2111.08 -107 2073.34 -68.811 2028.27 -22.1321ZM1844.86 35.9876C1841.47 40.8259 1841 54.2822 1841 146.69V251.883H1852.6C1863.55 251.883 1866.73 253.642 1908.9 283.078C1933.49 300.237 1958.25 317.995 1963.93 322.543C1969.61 327.091 1975.88 333.933 1977.85 337.749C1980.83 343.501 1981.45 359.478 1981.48 431.203L1981.52 517.722L2028.79 556.389C2054.79 577.657 2078.16 596.021 2080.73 597.201C2083.97 598.689 2087.29 598.117 2091.55 595.332L2097.68 591.321V224.832L1980.19 128.398C1895.11 58.5646 1860.77 31.7583 1855.72 31.2218C1850.66 30.6853 1847.66 32 1844.86 35.9876ZM2249.92 122.719C2188.16 173.301 2134.64 217.906 2130.98 221.843L2124.32 229.001V586.818L2130.41 592.901C2134.77 597.246 2137.96 598.522 2141.6 597.37C2144.4 596.483 2167.76 578.411 2193.51 557.209L2240.33 518.66L2241.05 431.189C2241.68 354.004 2242.25 342.829 2245.91 336.151C2248.67 331.117 2267.32 316.484 2301.61 292.435C2329.96 272.553 2355.75 254.904 2358.93 253.217C2362.16 251.503 2368.31 250.732 2372.86 251.47L2381 252.787V145.569C2381 51.3169 2380.54 37.8896 2377.2 34.5497C2375.1 32.4617 2370.87 30.753 2367.8 30.753C2364.02 30.753 2325.78 60.5849 2249.92 122.719Z"/>
</mask>
<path fill-rule="evenodd" clip-rule="evenodd" d="M18.271 910.132C-26.7935 863.456 -63.9906 824.413 -64.3925 823.369C-64.7921 822.325 -30.1376 793.905 12.6192 760.211C55.3761 726.519 92.5682 697.932 95.2682 696.683C98.3944 695.24 102.552 695.307 106.71 696.874C110.301 698.227 147.808 726.788 190.056 760.339C232.307 793.893 266.874 822.294 266.874 823.454C266.874 824.614 236.557 856.889 199.5 895.177C162.444 933.465 125.823 971.587 118.118 979.896C110.415 988.202 103.233 995 102.157 995C101.085 995 63.3356 956.811 18.271 910.132ZM-165.135 852.012C-168.53 847.174 -169 833.718 -169 741.31V636.117H-157.396C-146.446 636.117 -143.274 634.358 -101.096 604.922C-76.5123 587.764 -51.7522 570.005 -46.0689 565.457C-40.388 560.909 -34.1235 554.067 -32.1451 550.251C-29.1667 544.499 -28.5467 528.522 -28.5176 456.797L-28.4814 370.278L18.7869 331.611C44.7868 310.343 68.1617 291.979 70.7334 290.799C73.9734 289.311 77.2908 289.883 81.5455 292.668L87.6816 296.679V663.168L-29.8084 759.602C-114.886 829.435 -149.226 856.242 -154.284 856.778C-159.343 857.315 -162.336 856 -165.135 852.012ZM239.918 765.281C178.164 714.699 124.639 670.094 120.978 666.157L114.318 658.999V301.182L120.413 295.099C124.767 290.754 127.959 289.478 131.596 290.63C134.398 291.517 157.756 309.589 183.506 330.791L230.326 369.34L231.046 456.811C231.678 533.996 232.252 545.171 235.913 551.849C238.673 556.883 257.317 571.516 291.608 595.565C319.957 615.447 345.753 633.096 348.933 634.783C352.163 636.497 358.306 637.268 362.857 636.53L371 635.213V742.431C371 836.683 370.54 850.11 367.196 853.45C365.101 855.538 360.873 857.247 357.795 857.247C354.015 857.247 315.779 827.415 239.918 765.281Z" stroke="url(#paint0_linear_20_4340)" stroke-width="10" mask="url(#path-2-inside-1_20_4340)"/>
<path fill-rule="evenodd" clip-rule="evenodd" d="M591.271 910.132C546.206 863.456 509.009 824.413 508.607 823.369C508.208 822.325 542.862 793.905 585.619 760.211C628.376 726.519 665.568 697.932 668.268 696.683C671.395 695.24 675.552 695.307 679.71 696.874C683.301 698.227 720.808 726.788 763.056 760.339C805.307 793.893 839.875 822.294 839.875 823.454C839.875 824.614 809.557 856.889 772.5 895.177C735.444 933.465 698.823 971.587 691.118 979.896C683.415 988.202 676.233 995 675.157 995C674.085 995 636.336 956.811 591.271 910.132ZM407.865 852.012C404.47 847.174 404 833.718 404 741.31V636.117H415.604C426.554 636.117 429.726 634.358 471.904 604.922C496.488 587.764 521.248 570.005 526.931 565.457C532.612 560.909 538.876 554.067 540.855 550.251C543.833 544.499 544.453 528.522 544.482 456.797L544.519 370.278L591.787 331.611C617.787 310.343 641.162 291.979 643.733 290.799C646.973 289.311 650.291 289.883 654.546 292.668L660.682 296.679V663.168L543.192 759.602C458.114 829.435 423.774 856.242 418.716 856.778C413.657 857.315 410.664 856 407.865 852.012ZM812.918 765.281C751.164 714.699 697.639 670.094 693.978 666.157L687.318 658.999V301.182L693.413 295.099C697.767 290.754 700.959 289.478 704.596 290.63C707.398 291.517 730.756 309.589 756.506 330.791L803.326 369.34L804.046 456.811C804.677 533.996 805.251 545.171 808.913 551.849C811.673 556.883 830.317 571.516 864.608 595.565C892.957 615.447 918.753 633.096 921.933 634.783C925.163 636.497 931.306 637.268 935.856 636.53L944 635.213V742.431C944 836.683 943.54 850.11 940.196 853.45C938.101 855.538 933.873 857.247 930.795 857.247C927.015 857.247 888.78 827.415 812.918 765.281Z" stroke="url(#paint1_linear_20_4340)" stroke-width="10" mask="url(#path-2-inside-1_20_4340)"/>
<path fill-rule="evenodd" clip-rule="evenodd" d="M1164.27 910.132C1119.21 863.456 1082.01 824.413 1081.61 823.369C1081.21 822.325 1115.86 793.905 1158.62 760.211C1201.38 726.519 1238.57 697.932 1241.27 696.683C1244.39 695.24 1248.55 695.307 1252.71 696.874C1256.3 698.227 1293.81 726.788 1336.06 760.339C1378.31 793.893 1412.87 822.294 1412.87 823.454C1412.87 824.614 1382.56 856.889 1345.5 895.177C1308.44 933.465 1271.82 971.587 1264.12 979.896C1256.41 988.202 1249.23 995 1248.16 995C1247.08 995 1209.34 956.811 1164.27 910.132ZM980.865 852.012C977.47 847.174 977 833.718 977 741.31V636.117H988.604C999.554 636.117 1002.73 634.358 1044.9 604.922C1069.49 587.764 1094.25 570.005 1099.93 565.457C1105.61 560.909 1111.88 554.067 1113.85 550.251C1116.83 544.499 1117.45 528.522 1117.48 456.797L1117.52 370.278L1164.79 331.611C1190.79 310.343 1214.16 291.979 1216.73 290.799C1219.97 289.311 1223.29 289.883 1227.55 292.668L1233.68 296.679V663.168L1116.19 759.602C1031.11 829.435 996.774 856.242 991.716 856.778C986.657 857.315 983.664 856 980.865 852.012ZM1385.92 765.281C1324.16 714.699 1270.64 670.094 1266.98 666.157L1260.32 658.999V301.182L1266.41 295.099C1270.77 290.754 1273.96 289.478 1277.6 290.63C1280.4 291.517 1303.76 309.589 1329.51 330.791L1376.33 369.34L1377.05 456.811C1377.68 533.996 1378.25 545.171 1381.91 551.849C1384.67 556.883 1403.32 571.516 1437.61 595.565C1465.96 615.447 1491.75 633.096 1494.93 634.783C1498.16 636.497 1504.31 637.268 1508.86 636.53L1517 635.213V742.431C1517 836.683 1516.54 850.11 1513.2 853.45C1511.1 855.538 1506.87 857.247 1503.8 857.247C1500.02 857.247 1461.78 827.415 1385.92 765.281Z" stroke="url(#paint2_linear_20_4340)" stroke-width="10" mask="url(#path-2-inside-1_20_4340)"/>
<path fill-rule="evenodd" clip-rule="evenodd" d="M1737.27 910.132C1692.21 863.456 1655.01 824.413 1654.61 823.369C1654.21 822.325 1688.86 793.905 1731.62 760.211C1774.38 726.519 1811.57 697.932 1814.27 696.683C1817.39 695.24 1821.55 695.307 1825.71 696.874C1829.3 698.227 1866.81 726.788 1909.06 760.339C1951.31 793.893 1985.87 822.294 1985.87 823.454C1985.87 824.614 1955.56 856.889 1918.5 895.177C1881.44 933.465 1844.82 971.587 1837.12 979.896C1829.41 988.202 1822.23 995 1821.16 995C1820.08 995 1782.34 956.811 1737.27 910.132ZM1553.86 852.012C1550.47 847.174 1550 833.718 1550 741.31V636.117H1561.6C1572.55 636.117 1575.73 634.358 1617.9 604.922C1642.49 587.764 1667.25 570.005 1672.93 565.457C1678.61 560.909 1684.88 554.067 1686.85 550.251C1689.83 544.499 1690.45 528.522 1690.48 456.797L1690.52 370.278L1737.79 331.611C1763.79 310.343 1787.16 291.979 1789.73 290.799C1792.97 289.311 1796.29 289.883 1800.55 292.668L1806.68 296.679V663.168L1689.19 759.602C1604.11 829.435 1569.77 856.242 1564.72 856.778C1559.66 857.315 1556.66 856 1553.86 852.012ZM1958.92 765.281C1897.16 714.699 1843.64 670.094 1839.98 666.157L1833.32 658.999V301.182L1839.41 295.099C1843.77 290.754 1846.96 289.478 1850.6 290.63C1853.4 291.517 1876.76 309.589 1902.51 330.791L1949.33 369.34L1950.05 456.811C1950.68 533.996 1951.25 545.171 1954.91 551.849C1957.67 556.883 1976.32 571.516 2010.61 595.565C2038.96 615.447 2064.75 633.096 2067.93 634.783C2071.16 636.497 2077.31 637.268 2081.86 636.53L2090 635.213V742.431C2090 836.683 2089.54 850.11 2086.2 853.45C2084.1 855.538 2079.87 857.247 2076.8 857.247C2073.02 857.247 2034.78 827.415 1958.92 765.281Z" stroke="url(#paint3_linear_20_4340)" stroke-width="10" mask="url(#path-2-inside-1_20_4340)"/>
<path fill-rule="evenodd" clip-rule="evenodd" d="M-263.729 -22.1321C-308.794 24.5444 -345.991 63.5865 -346.393 64.6306C-346.792 65.6746 -312.138 94.0952 -269.381 127.789C-226.624 161.481 -189.432 190.068 -186.732 191.317C-183.606 192.76 -179.448 192.692 -175.29 191.126C-171.699 189.773 -134.192 161.212 -91.9436 127.661C-49.6929 94.1073 -15.1255 65.706 -15.1255 64.546C-15.1255 63.386 -45.4431 31.1107 -82.4996 -7.17743C-119.556 -45.4655 -156.177 -83.5868 -163.882 -91.8955C-171.585 -100.202 -178.767 -107 -179.842 -107C-180.915 -107 -218.664 -68.811 -263.729 -22.1321ZM-447.135 35.9876C-450.53 40.8259 -451 54.2822 -451 146.69V251.883H-439.396C-428.446 251.883 -425.274 253.642 -383.096 283.078C-358.512 300.237 -333.752 317.995 -328.069 322.543C-322.388 327.091 -316.124 333.933 -314.145 337.749C-311.167 343.501 -310.547 359.478 -310.518 431.203L-310.481 517.722L-263.213 556.389C-237.213 577.657 -213.838 596.021 -211.267 597.201C-208.027 598.689 -204.709 598.117 -200.455 595.332L-194.318 591.321V224.832L-311.808 128.398C-396.886 58.5646 -431.226 31.7583 -436.284 31.2218C-441.343 30.6853 -444.336 32 -447.135 35.9876ZM-42.082 122.719C-103.836 173.301 -157.361 217.906 -161.022 221.843L-167.682 229.001V586.818L-161.587 592.901C-157.233 597.246 -154.041 598.522 -150.404 597.37C-147.602 596.483 -124.244 578.411 -98.4937 557.209L-51.6736 518.66L-50.9545 431.189C-50.3224 354.004 -49.7485 342.829 -46.0872 336.151C-43.3267 331.117 -24.6833 316.484 9.60788 292.435C37.9567 272.553 63.7533 254.904 66.9327 253.217C70.163 251.503 76.3065 250.732 80.8565 251.47L89 252.787V145.569C89 51.3169 88.54 37.8896 85.1959 34.5497C83.1013 32.4617 78.8732 30.753 75.7954 30.753C72.0154 30.753 33.7795 60.5849 -42.082 122.719Z" stroke="url(#paint4_linear_20_4340)" stroke-width="10" mask="url(#path-2-inside-1_20_4340)"/>
<path fill-rule="evenodd" clip-rule="evenodd" d="M309.271 -22.1321C264.206 24.5444 227.009 63.5865 226.607 64.6306C226.208 65.6746 260.862 94.0952 303.619 127.789C346.376 161.481 383.568 190.068 386.268 191.317C389.394 192.76 393.552 192.692 397.71 191.126C401.301 189.773 438.808 161.212 481.056 127.661C523.307 94.1073 557.874 65.706 557.874 64.546C557.874 63.386 527.557 31.1107 490.5 -7.17743C453.444 -45.4655 416.823 -83.5868 409.118 -91.8955C401.415 -100.202 394.233 -107 393.157 -107C392.085 -107 354.336 -68.811 309.271 -22.1321ZM125.865 35.9876C122.47 40.8259 122 54.2822 122 146.69V251.883H133.604C144.554 251.883 147.726 253.642 189.904 283.078C214.488 300.237 239.248 317.995 244.931 322.543C250.612 327.091 256.876 333.933 258.855 337.749C261.833 343.501 262.453 359.478 262.482 431.203L262.519 517.722L309.787 556.389C335.787 577.657 359.162 596.021 361.733 597.201C364.973 598.689 368.291 598.117 372.545 595.332L378.682 591.321V224.832L261.192 128.398C176.114 58.5646 141.774 31.7583 136.716 31.2218C131.657 30.6853 128.664 32 125.865 35.9876ZM530.918 122.719C469.164 173.301 415.639 217.906 411.978 221.843L405.318 229.001V586.818L411.413 592.901C415.767 597.246 418.959 598.522 422.596 597.37C425.398 596.483 448.756 578.411 474.506 557.209L521.326 518.66L522.046 431.189C522.678 354.004 523.252 342.829 526.913 336.151C529.673 331.117 548.317 316.484 582.608 292.435C610.957 272.553 636.753 254.904 639.933 253.217C643.163 251.503 649.306 250.732 653.856 251.47L662 252.787V145.569C662 51.3169 661.54 37.8896 658.196 34.5497C656.101 32.4617 651.873 30.753 648.795 30.753C645.015 30.753 606.78 60.5849 530.918 122.719Z" stroke="url(#paint5_linear_20_4340)" stroke-width="10" mask="url(#path-2-inside-1_20_4340)"/>
<path fill-rule="evenodd" clip-rule="evenodd" d="M882.271 -22.1321C837.206 24.5444 800.009 63.5865 799.607 64.6306C799.208 65.6746 833.862 94.0952 876.619 127.789C919.376 161.481 956.568 190.068 959.268 191.317C962.395 192.76 966.552 192.692 970.71 191.126C974.301 189.773 1011.81 161.212 1054.06 127.661C1096.31 94.1073 1130.87 65.706 1130.87 64.546C1130.87 63.386 1100.56 31.1107 1063.5 -7.17743C1026.44 -45.4655 989.823 -83.5868 982.118 -91.8955C974.415 -100.202 967.233 -107 966.157 -107C965.085 -107 927.336 -68.811 882.271 -22.1321ZM698.865 35.9876C695.47 40.8259 695 54.2822 695 146.69V251.883H706.604C717.554 251.883 720.726 253.642 762.904 283.078C787.488 300.237 812.248 317.995 817.931 322.543C823.612 327.091 829.876 333.933 831.855 337.749C834.833 343.501 835.453 359.478 835.482 431.203L835.519 517.722L882.787 556.389C908.787 577.657 932.162 596.021 934.733 597.201C937.973 598.689 941.291 598.117 945.546 595.332L951.682 591.321V224.832L834.192 128.398C749.114 58.5646 714.774 31.7583 709.716 31.2218C704.657 30.6853 701.664 32 698.865 35.9876ZM1103.92 122.719C1042.16 173.301 988.639 217.906 984.978 221.843L978.318 229.001V586.818L984.413 592.901C988.767 597.246 991.959 598.522 995.596 597.37C998.398 596.483 1021.76 578.411 1047.51 557.209L1094.33 518.66L1095.05 431.189C1095.68 354.004 1096.25 342.829 1099.91 336.151C1102.67 331.117 1121.32 316.484 1155.61 292.435C1183.96 272.553 1209.75 254.904 1212.93 253.217C1216.16 251.503 1222.31 250.732 1226.86 251.47L1235 252.787V145.569C1235 51.3169 1234.54 37.8896 1231.2 34.5497C1229.1 32.4617 1224.87 30.753 1221.8 30.753C1218.02 30.753 1179.78 60.5849 1103.92 122.719Z" stroke="url(#paint6_linear_20_4340)" stroke-width="10" mask="url(#path-2-inside-1_20_4340)"/>
<path fill-rule="evenodd" clip-rule="evenodd" d="M1455.27 -22.1321C1410.21 24.5444 1373.01 63.5865 1372.61 64.6306C1372.21 65.6746 1406.86 94.0952 1449.62 127.789C1492.38 161.481 1529.57 190.068 1532.27 191.317C1535.39 192.76 1539.55 192.692 1543.71 191.126C1547.3 189.773 1584.81 161.212 1627.06 127.661C1669.31 94.1073 1703.87 65.706 1703.87 64.546C1703.87 63.386 1673.56 31.1107 1636.5 -7.17743C1599.44 -45.4655 1562.82 -83.5868 1555.12 -91.8955C1547.41 -100.202 1540.23 -107 1539.16 -107C1538.08 -107 1500.34 -68.811 1455.27 -22.1321ZM1271.86 35.9876C1268.47 40.8259 1268 54.2822 1268 146.69V251.883H1279.6C1290.55 251.883 1293.73 253.642 1335.9 283.078C1360.49 300.237 1385.25 317.995 1390.93 322.543C1396.61 327.091 1402.88 333.933 1404.85 337.749C1407.83 343.501 1408.45 359.478 1408.48 431.203L1408.52 517.722L1455.79 556.389C1481.79 577.657 1505.16 596.021 1507.73 597.201C1510.97 598.689 1514.29 598.117 1518.55 595.332L1524.68 591.321V224.832L1407.19 128.398C1322.11 58.5646 1287.77 31.7583 1282.72 31.2218C1277.66 30.6853 1274.66 32 1271.86 35.9876ZM1676.92 122.719C1615.16 173.301 1561.64 217.906 1557.98 221.843L1551.32 229.001V586.818L1557.41 592.901C1561.77 597.246 1564.96 598.522 1568.6 597.37C1571.4 596.483 1594.76 578.411 1620.51 557.209L1667.33 518.66L1668.05 431.189C1668.68 354.004 1669.25 342.829 1672.91 336.151C1675.67 331.117 1694.32 316.484 1728.61 292.435C1756.96 272.553 1782.75 254.904 1785.93 253.217C1789.16 251.503 1795.31 250.732 1799.86 251.47L1808 252.787V145.569C1808 51.3169 1807.54 37.8896 1804.2 34.5497C1802.1 32.4617 1797.87 30.753 1794.8 30.753C1791.02 30.753 1752.78 60.5849 1676.92 122.719Z" stroke="url(#paint7_linear_20_4340)" stroke-width="10" mask="url(#path-2-inside-1_20_4340)"/>
<path fill-rule="evenodd" clip-rule="evenodd" d="M2028.27 -22.1321C1983.21 24.5444 1946.01 63.5865 1945.61 64.6306C1945.21 65.6746 1979.86 94.0952 2022.62 127.789C2065.38 161.481 2102.57 190.068 2105.27 191.317C2108.39 192.76 2112.55 192.692 2116.71 191.126C2120.3 189.773 2157.81 161.212 2200.06 127.661C2242.31 94.1073 2276.87 65.706 2276.87 64.546C2276.87 63.386 2246.56 31.1107 2209.5 -7.17743C2172.44 -45.4655 2135.82 -83.5868 2128.12 -91.8955C2120.41 -100.202 2113.23 -107 2112.16 -107C2111.08 -107 2073.34 -68.811 2028.27 -22.1321ZM1844.86 35.9876C1841.47 40.8259 1841 54.2822 1841 146.69V251.883H1852.6C1863.55 251.883 1866.73 253.642 1908.9 283.078C1933.49 300.237 1958.25 317.995 1963.93 322.543C1969.61 327.091 1975.88 333.933 1977.85 337.749C1980.83 343.501 1981.45 359.478 1981.48 431.203L1981.52 517.722L2028.79 556.389C2054.79 577.657 2078.16 596.021 2080.73 597.201C2083.97 598.689 2087.29 598.117 2091.55 595.332L2097.68 591.321V224.832L1980.19 128.398C1895.11 58.5646 1860.77 31.7583 1855.72 31.2218C1850.66 30.6853 1847.66 32 1844.86 35.9876ZM2249.92 122.719C2188.16 173.301 2134.64 217.906 2130.98 221.843L2124.32 229.001V586.818L2130.41 592.901C2134.77 597.246 2137.96 598.522 2141.6 597.37C2144.4 596.483 2167.76 578.411 2193.51 557.209L2240.33 518.66L2241.05 431.189C2241.68 354.004 2242.25 342.829 2245.91 336.151C2248.67 331.117 2267.32 316.484 2301.61 292.435C2329.96 272.553 2355.75 254.904 2358.93 253.217C2362.16 251.503 2368.31 250.732 2372.86 251.47L2381 252.787V145.569C2381 51.3169 2380.54 37.8896 2377.2 34.5497C2375.1 32.4617 2370.87 30.753 2367.8 30.753C2364.02 30.753 2325.78 60.5849 2249.92 122.719Z" stroke="url(#paint8_linear_20_4340)" stroke-width="10" mask="url(#path-2-inside-1_20_4340)"/>
</g>
</g>
<defs>
<linearGradient id="paint0_linear_20_4340" x1="2381" y1="444" x2="-451" y2="444" gradientUnits="userSpaceOnUse">
<stop offset="0.160311" stop-color="#F4BF4F"/>
<stop offset="0.343044" stop-color="#F4BF4F" stop-opacity="0.25"/>
<stop offset="0.520833" stop-color="#F4BF4F" stop-opacity="0"/>
<stop offset="0.656427" stop-color="#F4BF4F" stop-opacity="0.25"/>
<stop offset="0.841808" stop-color="#F4BF4F"/>
</linearGradient>
<linearGradient id="paint1_linear_20_4340" x1="2381" y1="444" x2="-451" y2="444" gradientUnits="userSpaceOnUse">
<stop offset="0.160311" stop-color="#F4BF4F"/>
<stop offset="0.343044" stop-color="#F4BF4F" stop-opacity="0.25"/>
<stop offset="0.520833" stop-color="#F4BF4F" stop-opacity="0"/>
<stop offset="0.656427" stop-color="#F4BF4F" stop-opacity="0.25"/>
<stop offset="0.841808" stop-color="#F4BF4F"/>
</linearGradient>
<linearGradient id="paint2_linear_20_4340" x1="2381" y1="444" x2="-451" y2="444" gradientUnits="userSpaceOnUse">
<stop offset="0.160311" stop-color="#F4BF4F"/>
<stop offset="0.343044" stop-color="#F4BF4F" stop-opacity="0.25"/>
<stop offset="0.520833" stop-color="#F4BF4F" stop-opacity="0"/>
<stop offset="0.656427" stop-color="#F4BF4F" stop-opacity="0.25"/>
<stop offset="0.841808" stop-color="#F4BF4F"/>
</linearGradient>
<linearGradient id="paint3_linear_20_4340" x1="2381" y1="444" x2="-451" y2="444" gradientUnits="userSpaceOnUse">
<stop offset="0.160311" stop-color="#F4BF4F"/>
<stop offset="0.343044" stop-color="#F4BF4F" stop-opacity="0.25"/>
<stop offset="0.520833" stop-color="#F4BF4F" stop-opacity="0"/>
<stop offset="0.656427" stop-color="#F4BF4F" stop-opacity="0.25"/>
<stop offset="0.841808" stop-color="#F4BF4F"/>
</linearGradient>
<linearGradient id="paint4_linear_20_4340" x1="2381" y1="444" x2="-451" y2="444" gradientUnits="userSpaceOnUse">
<stop offset="0.160311" stop-color="#F4BF4F"/>
<stop offset="0.343044" stop-color="#F4BF4F" stop-opacity="0.25"/>
<stop offset="0.520833" stop-color="#F4BF4F" stop-opacity="0"/>
<stop offset="0.656427" stop-color="#F4BF4F" stop-opacity="0.25"/>
<stop offset="0.841808" stop-color="#F4BF4F"/>
</linearGradient>
<linearGradient id="paint5_linear_20_4340" x1="2381" y1="444" x2="-451" y2="444" gradientUnits="userSpaceOnUse">
<stop offset="0.160311" stop-color="#F4BF4F"/>
<stop offset="0.343044" stop-color="#F4BF4F" stop-opacity="0.25"/>
<stop offset="0.520833" stop-color="#F4BF4F" stop-opacity="0"/>
<stop offset="0.656427" stop-color="#F4BF4F" stop-opacity="0.25"/>
<stop offset="0.841808" stop-color="#F4BF4F"/>
</linearGradient>
<linearGradient id="paint6_linear_20_4340" x1="2381" y1="444" x2="-451" y2="444" gradientUnits="userSpaceOnUse">
<stop offset="0.160311" stop-color="#F4BF4F"/>
<stop offset="0.343044" stop-color="#F4BF4F" stop-opacity="0.25"/>
<stop offset="0.520833" stop-color="#F4BF4F" stop-opacity="0"/>
<stop offset="0.656427" stop-color="#F4BF4F" stop-opacity="0.25"/>
<stop offset="0.841808" stop-color="#F4BF4F"/>
</linearGradient>
<linearGradient id="paint7_linear_20_4340" x1="2381" y1="444" x2="-451" y2="444" gradientUnits="userSpaceOnUse">
<stop offset="0.160311" stop-color="#F4BF4F"/>
<stop offset="0.343044" stop-color="#F4BF4F" stop-opacity="0.25"/>
<stop offset="0.520833" stop-color="#F4BF4F" stop-opacity="0"/>
<stop offset="0.656427" stop-color="#F4BF4F" stop-opacity="0.25"/>
<stop offset="0.841808" stop-color="#F4BF4F"/>
</linearGradient>
<linearGradient id="paint8_linear_20_4340" x1="2381" y1="444" x2="-451" y2="444" gradientUnits="userSpaceOnUse">
<stop offset="0.160311" stop-color="#F4BF4F"/>
<stop offset="0.343044" stop-color="#F4BF4F" stop-opacity="0.25"/>
<stop offset="0.520833" stop-color="#F4BF4F" stop-opacity="0"/>
<stop offset="0.656427" stop-color="#F4BF4F" stop-opacity="0.25"/>
<stop offset="0.841808" stop-color="#F4BF4F"/>
</linearGradient>
</defs>
</svg>
