<svg width="40" height="40" viewBox="0 0 40 40" fill="none" xmlns="http://www.w3.org/2000/svg">
    <path opacity="0.4"
        d="M32.2001 16.6668H7.81678C5.35011 16.6668 3.3501 14.6501 3.3501 12.2001V7.81676C3.3501 5.3501 5.36678 3.3501 7.81678 3.3501H32.2001C34.6668 3.3501 36.6668 5.36676 36.6668 7.81676V12.2001C36.6668 14.6501 34.6501 16.6668 32.2001 16.6668Z"
        fill="#017EFF" />
    <path opacity="0.4"
        d="M32.2001 36.6668H7.81678C5.35011 36.6668 3.3501 34.6501 3.3501 32.2001V27.8168C3.3501 25.3501 5.36678 23.3501 7.81678 23.3501H32.2001C34.6668 23.3501 36.6668 25.3668 36.6668 27.8168V32.2001C36.6668 34.6501 34.6501 36.6668 32.2001 36.6668Z"
        fill="#017EFF" />
    <path
        d="M10 12.9166C9.31667 12.9166 8.75 12.3499 8.75 11.6666V8.33325C8.75 7.64992 9.31667 7.08325 10 7.08325C10.6833 7.08325 11.25 7.64992 11.25 8.33325V11.6666C11.25 12.3499 10.6833 12.9166 10 12.9166Z"
        fill="#017EFF" />
    <path
        d="M16.6665 12.9166C15.9832 12.9166 15.4165 12.3499 15.4165 11.6666V8.33325C15.4165 7.64992 15.9832 7.08325 16.6665 7.08325C17.3498 7.08325 17.9165 7.64992 17.9165 8.33325V11.6666C17.9165 12.3499 17.3498 12.9166 16.6665 12.9166Z"
        fill="#017EFF" />
    <path
        d="M10 32.9166C9.31667 32.9166 8.75 32.3499 8.75 31.6666V28.3333C8.75 27.6499 9.31667 27.0833 10 27.0833C10.6833 27.0833 11.25 27.6499 11.25 28.3333V31.6666C11.25 32.3499 10.6833 32.9166 10 32.9166Z"
        fill="#017EFF" />
    <path
        d="M16.6665 32.9166C15.9832 32.9166 15.4165 32.3499 15.4165 31.6666V28.3333C15.4165 27.6499 15.9832 27.0833 16.6665 27.0833C17.3498 27.0833 17.9165 27.6499 17.9165 28.3333V31.6666C17.9165 32.3499 17.3498 32.9166 16.6665 32.9166Z"
        fill="#017EFF" />
    <path
        d="M30.0002 11.25H23.3335C22.6502 11.25 22.0835 10.6833 22.0835 10C22.0835 9.31667 22.6502 8.75 23.3335 8.75H30.0002C30.6835 8.75 31.2502 9.31667 31.2502 10C31.2502 10.6833 30.6835 11.25 30.0002 11.25Z"
        fill="#017EFF" />
    <path
        d="M30.0002 31.25H23.3335C22.6502 31.25 22.0835 30.6833 22.0835 30C22.0835 29.3167 22.6502 28.75 23.3335 28.75H30.0002C30.6835 28.75 31.2502 29.3167 31.2502 30C31.2502 30.6833 30.6835 31.25 30.0002 31.25Z"
        fill="#017EFF" />
</svg>