<svg width="540" height="575" viewBox="0 0 540 575" fill="none" xmlns="http://www.w3.org/2000/svg">
<path d="M352.353 342.784C352.353 342.784 311.977 338.338 281.617 339.25L289.437 256.206L275.233 258.491L269.058 221.008L326.168 218.478C326.168 218.478 329.77 221.575 340.901 220.602C361.33 226.574 386.185 262.591 386.185 262.591L352.427 275.767L348.413 267.634L352.353 342.784Z" stroke="#0E185F" stroke-width="3.12239" stroke-miterlimit="10" stroke-linecap="round" stroke-linejoin="round"/>
<path d="M365.19 378.271L250.464 447.221L290.674 507.952C290.674 507.952 475.113 427.261 456.175 378.271C437.237 329.281 134.297 321.721 118.179 382.803C110.36 412.441 241.321 452.676 241.321 452.676L365.19 378.271Z" fill="#0E185F" stroke="#0E185F" stroke-width="3.12239" stroke-miterlimit="10" stroke-linecap="round" stroke-linejoin="round"/>
<path d="M306.731 203.252C303.179 191.985 324.715 163.731 342.237 166.2C358.657 168.515 358.325 177.362 361.533 182.873C363.318 185.933 368.478 188.894 369.253 194.762C369.961 200.118 366.113 202.993 366.631 207.42C367.142 211.81 371.347 219.112 365.547 222.393C361.274 224.813 361.176 216.236 352.211 214.937C345.685 213.989 336.838 213.46 326.95 210.504C317.364 207.642 309.545 212.179 306.731 203.252Z" fill="#0E185F" stroke="#0E185F" stroke-width="3.12239" stroke-miterlimit="10" stroke-linecap="round" stroke-linejoin="round"/>
<path d="M193.594 156.306C193.594 156.306 187.548 122.407 179.31 124.876C171.078 127.345 182.191 157.402 182.191 157.402C182.191 157.402 158.894 170.331 160.193 176.18C161.467 181.937 209.158 258.06 222.432 260.836C235.706 263.613 275.233 258.49 275.233 258.49L269.058 221.008C269.058 221.008 239.893 222.498 231.335 218.477C200.711 204.083 209.577 139.073 202.564 138.057C194.714 136.912 193.594 156.306 193.594 156.306Z" fill="white" stroke="#0E185F" stroke-width="3.12239" stroke-miterlimit="10" stroke-linecap="round" stroke-linejoin="round"/>
<path d="M184.986 180.281L192.116 176.574C192.116 176.574 184.728 153.437 177.204 156.934C171.54 159.569 184.986 180.281 184.986 180.281Z" fill="white" stroke="#0E185F" stroke-width="3.12239" stroke-miterlimit="10" stroke-linecap="round" stroke-linejoin="round"/>
<path d="M176.09 185.108L183.484 181.174C183.484 181.174 175.419 157.55 169.17 160.794C162.36 164.335 176.09 185.108 176.09 185.108Z" fill="white" stroke="#0E185F" stroke-width="3.12239" stroke-miterlimit="10" stroke-linecap="round" stroke-linejoin="round"/>
<path d="M167.575 190.316L174.366 185.785C174.366 185.785 166.301 162.161 160.058 165.406C153.242 168.946 167.575 190.316 167.575 190.316Z" fill="white" stroke="#0E185F" stroke-width="3.12239" stroke-miterlimit="10" stroke-linecap="round" stroke-linejoin="round"/>
<path d="M188.527 178.655C188.527 178.655 193.107 186.222 198.661 187.25" stroke="#0E185F" stroke-width="3.12239" stroke-miterlimit="10" stroke-linecap="round" stroke-linejoin="round"/>
<path d="M386.185 262.585C386.185 262.585 413.502 301.453 411.655 312.227C409.9 322.472 339.879 358.274 339.879 358.274L337.909 322.589L366.624 306.84L352.421 275.76L386.185 262.585Z" fill="white" stroke="#0E185F" stroke-width="3.12239" stroke-miterlimit="10" stroke-linecap="round" stroke-linejoin="round"/>
<path d="M326.168 218.471L331.032 206.336C331.032 206.336 321.058 199.078 326.168 188.58C330.964 185.496 334.824 188.734 335.908 189.972C336.992 191.209 340.384 196.917 343.321 196.917C346.252 196.917 355.21 196.455 355.056 200.315C354.902 204.175 352.279 205.253 349.496 203.714C346.566 206.336 343.013 208.19 340.852 206.958C340.39 211.126 340.901 220.596 340.901 220.596C340.901 220.596 330.078 221.722 326.168 218.471Z" fill="white" stroke="#0E185F" stroke-width="3.12239" stroke-miterlimit="10" stroke-linecap="round" stroke-linejoin="round"/>
<path d="M431.474 101.511L445.37 95.3353C445.37 95.3353 441.356 111.7 447.531 116.33C453.312 120.664 470.225 114.631 475.631 121.268C480.267 126.963 477.176 153.382 477.176 153.382L467.294 158.633C467.294 158.633 470.527 136.869 464.825 132.079C457.105 125.596 444.459 133.446 439.201 129.918C431.474 124.746 431.474 101.511 431.474 101.511Z" fill="#FFCB42" stroke="#0E185F" stroke-width="3.12239" stroke-miterlimit="10" stroke-linecap="round" stroke-linejoin="round"/>
<path d="M333.79 370.68L194.554 380.673C190.503 380.962 186.944 377.883 186.655 373.832L180.732 291.251C180.443 287.2 183.521 283.641 187.572 283.352L326.808 273.359C330.859 273.07 334.418 276.148 334.708 280.2L340.63 362.781C340.92 366.832 337.841 370.391 333.79 370.68Z" fill="#027EF8" stroke="#0E185F" stroke-width="3.12239" stroke-miterlimit="10" stroke-linecap="round" stroke-linejoin="round"/>
<path d="M259.902 348.423C267.689 348.423 274.001 342.111 274.001 334.324C274.001 326.537 267.689 320.225 259.902 320.225C252.116 320.225 245.803 326.537 245.803 334.324C245.803 342.111 252.116 348.423 259.902 348.423Z" fill="#0E185F" stroke="#0E185F" stroke-width="3.12239" stroke-miterlimit="10" stroke-linecap="round" stroke-linejoin="round"/>
<path d="M49.8384 563.494V110.717C49.8384 66.9726 85.6278 31.177 129.378 31.177H458.195C501.939 31.177 537.734 66.9665 537.734 110.717V563.494" stroke="#0E185F" stroke-width="3.12239" stroke-miterlimit="10" stroke-linecap="round" stroke-linejoin="round"/>
<path d="M86.7361 18.3647C91.2551 18.3647 94.9185 14.7014 94.9185 10.1824C94.9185 5.66341 91.2551 2 86.7361 2C82.2171 2 78.5537 5.66341 78.5537 10.1824C78.5537 14.7014 82.2171 18.3647 86.7361 18.3647Z" fill="#FFCB42" stroke="#0E185F" stroke-width="3.12239" stroke-miterlimit="10" stroke-linecap="round" stroke-linejoin="round"/>
<path d="M123.123 18.3647C127.642 18.3647 131.305 14.7014 131.305 10.1824C131.305 5.66341 127.642 2 123.123 2C118.604 2 114.94 5.66341 114.94 10.1824C114.94 14.7014 118.604 18.3647 123.123 18.3647Z" fill="#7DCE13" stroke="#0E185F" stroke-width="3.12239" stroke-miterlimit="10" stroke-linecap="round" stroke-linejoin="round"/>
<path d="M159.743 18.3647C164.262 18.3647 167.926 14.7014 167.926 10.1824C167.926 5.66341 164.262 2 159.743 2C155.224 2 151.561 5.66341 151.561 10.1824C151.561 14.7014 155.224 18.3647 159.743 18.3647Z" fill="#027EF8" stroke="#0E185F" stroke-width="3.12239" stroke-miterlimit="10" stroke-linecap="round" stroke-linejoin="round"/>
<path d="M241.567 377.299L283.674 399.266" stroke="white" stroke-width="1.0408" stroke-miterlimit="10"/>
<path d="M377.165 463.488L396.066 477.895L342.274 514.46L313.897 497.153C313.897 497.153 365.682 471.184 377.165 463.488Z" fill="#0E185F" stroke="#0E185F" stroke-width="3.12239" stroke-miterlimit="10" stroke-linecap="round" stroke-linejoin="round"/>
<path d="M396.066 477.901L413.564 490.67L354.982 531.416L332.306 521.232L396.066 477.901Z" stroke="#0E185F" stroke-width="3.12239" stroke-miterlimit="10" stroke-linecap="round" stroke-linejoin="round"/>
<path d="M408.398 494.265L424.474 507.952L363.134 572.586L374.277 535.534L365.806 523.886L408.398 494.265Z" fill="white" stroke="#0E185F" stroke-width="3.12239" stroke-miterlimit="10" stroke-linecap="round" stroke-linejoin="round"/>
<path d="M250.464 447.221L219.255 465.809L260.678 521.743L295.089 514.497L250.464 447.221Z" stroke="#0E185F" stroke-width="3.12239" stroke-miterlimit="10" stroke-linecap="round" stroke-linejoin="round"/>
<path d="M223.977 472.181L198.661 488.81L236.95 564.354L241.272 518.265L251.849 509.818L223.977 472.181Z" fill="white" stroke="#0E185F" stroke-width="3.12239" stroke-miterlimit="10" stroke-linecap="round" stroke-linejoin="round"/>
<path d="M293.783 487.444C293.783 487.444 419.302 423.665 419.302 408.581" stroke="white" stroke-width="1.0408" stroke-miterlimit="10"/>
<path d="M35.1359 362.506C53.4364 362.506 68.2719 347.67 68.2719 329.37C68.2719 311.069 53.4364 296.234 35.1359 296.234C16.8354 296.234 2 311.069 2 329.37C2 347.67 16.8354 362.506 35.1359 362.506Z" fill="white" stroke="#0E185F" stroke-width="3.12239" stroke-miterlimit="10" stroke-linecap="round" stroke-linejoin="round"/>
</svg>
