<svg width="29" height="37" viewBox="0 0 29 37" fill="none" xmlns="http://www.w3.org/2000/svg">
<path fill-rule="evenodd" clip-rule="evenodd" d="M9.74549 4.42527C7.40035 6.85912 5.46464 8.89489 5.44372 8.94933C5.42293 9.00376 7.22633 10.4857 9.45137 12.2426C11.6764 13.9994 13.6119 15.49 13.7524 15.5552C13.9151 15.6304 14.1314 15.6269 14.3478 15.5452C14.5347 15.4746 16.4865 13.9854 18.6851 12.2359C20.8838 10.4863 22.6827 9.0054 22.6827 8.94492C22.6827 8.88443 21.105 7.2015 19.1766 5.20504C17.2482 3.20859 15.3424 1.22083 14.9415 0.787593C14.5406 0.35448 14.1668 0 14.1109 0C14.0551 0 12.0906 1.99129 9.74549 4.42527ZM0.201121 7.4558C0.0244479 7.70808 0 8.40973 0 13.2282V18.7132H0.603862C1.1737 18.7132 1.33878 18.8049 3.53371 20.3398C4.81301 21.2345 6.10151 22.1605 6.39727 22.3976C6.6929 22.6348 7.0189 22.9915 7.12186 23.1905C7.27686 23.4904 7.30912 24.3235 7.31063 28.0635L7.31252 32.5748L9.77233 34.5911C11.1254 35.7 12.3418 36.6576 12.4756 36.7191C12.6442 36.7967 12.8169 36.7669 13.0383 36.6217L13.3576 36.4125V26.8576V17.3027L7.24346 12.2744C2.81605 8.63303 1.02904 7.23527 0.765792 7.2073C0.502547 7.17932 0.346794 7.24787 0.201121 7.4558ZM21.2799 11.9782C18.0663 14.6157 15.2808 16.9416 15.0903 17.1468L14.7437 17.5201V26.8489V36.1777L15.0609 36.4949C15.2875 36.7215 15.4536 36.788 15.6429 36.7279C15.7887 36.6817 17.0042 35.7393 18.3442 34.6338L20.7807 32.6237L20.8182 28.0628C20.8511 24.0381 20.8809 23.4554 21.0715 23.1072C21.2151 22.8447 22.1853 22.0817 23.9698 20.8277C25.4451 19.791 26.7875 18.8707 26.953 18.7828C27.1211 18.6934 27.4408 18.6532 27.6775 18.6917L28.1013 18.7603V13.1697C28.1013 8.25511 28.0774 7.55497 27.9034 7.38082C27.7944 7.27194 27.5743 7.18285 27.4142 7.18285C27.2175 7.18285 25.2277 8.73837 21.2799 11.9782Z" fill="#077DF9"/>
</svg>
