<svg width="362" height="67" viewBox="0 0 362 67" fill="none" xmlns="http://www.w3.org/2000/svg">
<path d="M9.62109 44.9121C8.27344 44.9121 6.94531 44.6191 5.63672 44.0332C3.82031 43.1543 2.50195 41.8359 1.68164 40.0781C1.11523 38.8281 0.832031 37.5488 0.832031 36.2402C0.832031 35.6934 0.890625 35.1367 1.00781 34.5703C1.10547 34.0039 1.41797 33.5938 1.94531 33.3398C2.29688 33.1641 2.6582 33.0762 3.0293 33.0762C3.20508 33.0762 3.38086 33.0957 3.55664 33.1348C4.55273 33.4082 5.05078 34.0918 5.05078 35.1855L5.02148 35.6543L4.99219 35.8301L5.02148 35.625V35.8301C5.00195 35.8496 4.99219 35.8789 4.99219 35.918C4.99219 36.4062 5.00195 36.6797 5.02148 36.7383V36.9141L4.99219 36.709C4.99219 36.7871 5.04102 37.002 5.13867 37.3535C5.25586 37.8027 5.33398 38.0469 5.37305 38.0859L5.28516 37.9395C5.63672 38.6426 5.89062 39.0723 6.04688 39.2285L5.98828 39.1113C5.98828 39.1309 5.99805 39.1602 6.01758 39.1992C6.05664 39.2188 6.08594 39.248 6.10547 39.2871C6.14453 39.3262 6.17383 39.3652 6.19336 39.4043C6.33008 39.541 6.47656 39.668 6.63281 39.7852L6.86719 40.0195L6.7207 39.9023L6.7793 39.9316C7.24805 40.2441 7.62891 40.459 7.92188 40.5762L7.80469 40.5176L8.15625 40.6348C8.625 40.752 8.87891 40.8105 8.91797 40.8105C8.97656 40.8105 9.02539 40.8105 9.06445 40.8105L9.09375 40.8398L8.91797 40.8105C8.97656 40.8105 9.02539 40.8203 9.06445 40.8398L10.1484 40.8105C10.2656 40.8105 10.5391 40.7617 10.9688 40.6641L11.4668 40.5176C11.5059 40.498 11.5352 40.4883 11.5547 40.4883C11.5938 40.4688 11.6328 40.4395 11.6719 40.4004C11.7305 40.4004 11.916 40.3027 12.2285 40.1074C12.2676 40.0684 12.3262 40.0293 12.4043 39.9902L12.4922 39.9316L12.375 40.0195C12.6875 39.7656 12.9805 39.4922 13.2539 39.1992L13.459 38.9648L13.3711 39.1113C13.7617 38.5645 14.1426 37.9199 14.5137 37.1777C14.5723 37.1191 14.6016 37.0508 14.6016 36.9727L14.6602 36.9141L14.6016 37.0312C15.1289 35.6641 15.5879 34.2773 15.9785 32.8711L24.4746 3.83789C24.6504 3.27148 24.9824 2.86133 25.4707 2.60742C25.8027 2.43164 26.1543 2.34375 26.5254 2.34375C27.3262 2.34375 27.9219 2.68555 28.3125 3.36914C28.5078 3.68164 28.6055 4.01367 28.6055 4.36523C28.6055 4.79492 25.998 13.7793 20.7832 31.3184L20.3145 33.0469C19.9043 34.6094 19.416 36.1523 18.8496 37.6758C18.2832 39.1992 17.4922 40.5957 16.4766 41.8652C14.6797 43.8965 12.3945 44.9121 9.62109 44.9121ZM13.6348 12.9199C12.8535 12.9199 12.2383 12.5781 11.7891 11.8945C11.0859 10.7617 10.7344 9.58008 10.7344 8.34961C10.7344 7.99805 10.8027 7.34375 10.9395 6.38672C11.0957 5.41016 11.7695 4.30664 12.9609 3.07617C14.3672 1.74805 15.9395 0.898438 17.6777 0.527344C18.8301 0.273438 20.0117 0.146484 21.2227 0.146484C23.0391 0.146484 25.4805 0.429688 28.5469 0.996094C30.4219 1.34766 32.2969 1.66016 34.1719 1.93359C34.2891 1.93359 34.3965 1.94336 34.4941 1.96289H34.377L34.7578 1.99219C35.0898 2.05078 35.5488 2.09961 36.1348 2.13867C37.4434 2.27539 38.6836 2.34375 39.8555 2.34375C40.7148 2.34375 41.8379 2.28516 43.2246 2.16797H43.0781L43.2832 2.13867C44.1816 2.04102 45.2363 1.80664 46.4473 1.43555C46.6426 1.37695 46.8379 1.34766 47.0332 1.34766C47.3848 1.34766 47.7559 1.47461 48.1465 1.72852C48.5371 1.96289 48.8301 2.34375 49.0254 2.87109C49.084 3.06641 49.1133 3.26172 49.1133 3.45703C49.1133 3.78906 48.9863 4.15039 48.7324 4.54102C48.498 4.93164 48.1074 5.21484 47.5605 5.39062C45.041 6.11328 42.4824 6.47461 39.8848 6.47461C37.0527 6.47461 33.6543 6.10352 29.6895 5.36133L24.3281 4.45312C24.2305 4.45312 24.1426 4.44336 24.0645 4.42383H23.9473C23.9277 4.4043 23.8984 4.39453 23.8594 4.39453L23.9766 4.42383C23.0781 4.28711 22.1309 4.21875 21.1348 4.21875C20.6855 4.21875 20.2461 4.23828 19.8164 4.27734H19.6992L19.6113 4.30664L19.7285 4.27734C19.0059 4.375 18.4297 4.51172 18 4.6875L17.6484 4.83398L17.707 4.80469C17.7266 4.78516 17.7754 4.76562 17.8535 4.74609L17.6484 4.83398C17.1602 5.06836 16.7891 5.2832 16.5352 5.47852L16.3887 5.56641L16.4473 5.50781C16.4863 5.46875 16.5254 5.44922 16.5645 5.44922C16.2129 5.74219 15.9004 6.04492 15.627 6.35742L15.5098 6.50391C15.5293 6.50391 15.5391 6.49414 15.5391 6.47461C15.5586 6.43555 15.5977 6.37695 15.6562 6.29883C15.5781 6.41602 15.5098 6.50391 15.4512 6.5625C15.3535 6.71875 15.2656 6.88477 15.1875 7.06055L15.0703 7.26562L15.1289 7.06055H15.1582L14.9238 7.91016L14.9531 8.73047L14.9238 8.58398L15.1875 9.49219C15.1484 9.49219 15.1289 9.45312 15.1289 9.375C15.1484 9.375 15.168 9.4043 15.1875 9.46289C15.2266 9.52148 15.2656 9.58984 15.3047 9.66797C15.3438 9.72656 15.3828 9.78516 15.4219 9.84375C15.6172 10.1758 15.7148 10.5078 15.7148 10.8398C15.7148 11.582 15.3633 12.1777 14.6602 12.627C14.3281 12.8223 13.9863 12.9199 13.6348 12.9199ZM18.5859 24.1406C17.6289 24.1406 16.9453 23.6523 16.5352 22.6758C16.4766 22.5 16.4473 22.3145 16.4473 22.1191C16.4473 21.7871 16.5645 21.4062 16.7988 20.9766C17.0527 20.5469 17.4531 20.2734 18 20.1562C21.8281 19.4531 25.6758 19.1016 29.543 19.1016C30.6367 19.1016 31.7305 19.1309 32.8242 19.1895C34.0938 19.3262 34.7969 20.0098 34.9336 21.2402C34.9336 21.7871 34.7285 22.2656 34.3184 22.6758C33.9082 23.0859 33.4102 23.291 32.8242 23.291C31.7305 23.2324 30.6367 23.2031 29.543 23.2031C26.9648 23.2031 24.4258 23.3594 21.9258 23.6719L21.6914 23.7012L21.8086 23.6719C20.9102 23.7891 20.0117 23.9355 19.1133 24.1113L18.5859 24.1406Z" fill="#077DF9"/>
<path d="M41.4234 45.0586C40.1148 45.0586 38.7965 44.7656 37.4684 44.1797C36.1402 43.5938 35.0953 42.6172 34.3336 41.25C33.7672 40.0781 33.484 38.877 33.484 37.6465C33.484 35.8691 33.9723 33.9453 34.9488 31.875C36.1988 29.2578 37.8199 26.8945 39.8121 24.7852C42.0777 22.2852 44.5484 20.9961 47.2242 20.918C48.5328 20.918 49.7828 21.2402 50.9742 21.8848C52.1852 22.5293 53.0934 23.4473 53.6988 24.6387C54.0699 25.498 54.2555 26.3379 54.2555 27.1582C54.2555 29.1309 53.3082 31.0059 51.4137 32.7832C48.9332 35.0293 46.0426 36.1523 42.7418 36.1523C40.7691 36.1523 38.8746 35.6934 37.0582 34.7754C36.3746 34.4043 36.0328 33.7988 36.0328 32.959C36.0328 32.5879 36.1207 32.2266 36.2965 31.875C36.6871 31.2109 37.2926 30.8789 38.1129 30.8789C38.4645 30.8789 38.9039 31.0059 39.4313 31.2598L39.7535 31.4062C39.734 31.4062 39.7145 31.4062 39.6949 31.4062C39.6754 31.4062 39.6461 31.3965 39.607 31.377C39.568 31.3574 39.5484 31.3379 39.5484 31.3184L39.7828 31.4062C40.193 31.6016 40.6715 31.7383 41.2184 31.8164C41.3355 31.875 41.4918 31.9043 41.6871 31.9043L41.482 31.875C41.5797 31.9141 41.9703 31.9336 42.6539 31.9336C43.318 31.9336 43.7672 31.9141 44.0016 31.875C43.9039 31.9141 43.8355 31.9336 43.7965 31.9336H43.7672L43.9723 31.875C44.0113 31.875 44.0406 31.8652 44.0602 31.8457C44.9977 31.6895 45.7203 31.4844 46.2281 31.2305L45.9938 31.3184C46.3258 31.2012 46.7164 31.0059 47.1656 30.7324C47.6148 30.459 47.8688 30.293 47.9273 30.2344L48.0738 30.1172L47.898 30.2637L48.0152 30.1758C48.8551 29.3359 49.275 28.916 49.275 28.916L49.3629 28.7988L49.2457 28.9746V28.916C49.3238 28.7988 49.3824 28.7207 49.4215 28.6816C49.4605 28.623 49.4996 28.5547 49.5387 28.4766C49.6363 28.3398 49.7145 28.2129 49.773 28.0957C49.8512 27.959 49.8902 27.8906 49.8902 27.8906C49.8902 27.8711 49.9 27.8516 49.9195 27.832L49.8609 27.9492L50.0367 27.4219L50.066 27.2461V26.8652L50.0953 26.8359L50.1246 26.8652C50.1246 26.8848 50.1246 26.9043 50.1246 26.9238C50.1246 26.9434 50.1344 26.9629 50.1539 26.9824C50.1539 27.0215 50.1441 27.041 50.1246 27.041C50.1051 27.0215 50.0855 26.9922 50.066 26.9531C50.066 26.9141 50.0563 26.875 50.0367 26.8359C50.0367 26.7969 50.027 26.7578 50.0074 26.7188C49.9879 26.6797 49.9781 26.6406 49.9781 26.6016C49.9781 26.5625 49.9879 26.543 50.0074 26.543L50.0953 26.748L50.0074 26.6602C49.9293 26.5039 49.8805 26.4258 49.8609 26.4258C49.8609 26.4062 49.8512 26.377 49.8316 26.3379C49.8121 26.2988 49.773 26.2402 49.7145 26.1621L49.8609 26.3086L49.2457 25.7227L49.4508 25.8984L48.5426 25.3418V25.3125L48.7477 25.459L48.5133 25.3418C48.0836 25.2246 47.8199 25.166 47.7223 25.166C47.6441 25.1465 47.6051 25.127 47.6051 25.1074L47.6344 25.0781L47.8395 25.166C47.7613 25.127 47.6637 25.1074 47.5465 25.1074C47.4293 25.1074 47.3219 25.1172 47.2242 25.1367H46.9605C46.8434 25.1367 46.7848 25.1465 46.7848 25.166C46.7848 25.127 46.8531 25.1074 46.9898 25.1074C46.9508 25.1465 46.8238 25.1855 46.609 25.2246C46.3941 25.2637 46.2086 25.3125 46.0523 25.3711C45.9156 25.4297 45.7887 25.4785 45.6715 25.5176C45.1051 25.8301 44.7438 26.0352 44.5875 26.1328L44.3824 26.2793L44.2945 26.3672C44.2945 26.3477 44.3141 26.3281 44.3531 26.3086C44.3922 26.2891 44.4215 26.2695 44.441 26.25L43.3277 27.2461C42.8199 27.7344 42.2438 28.3789 41.5992 29.1797L41.4527 29.3555H41.482C41.482 29.3164 41.5113 29.2676 41.5699 29.209L41.277 29.6191C40.4371 30.7129 39.5973 32.0508 38.7574 33.6328L38.6695 33.8965C38.5914 34.0137 38.5523 34.1016 38.5523 34.1602L38.5816 34.043C38.2105 34.9414 37.9469 35.8398 37.7906 36.7383L37.7613 36.9141L37.7906 36.7676C37.7516 37.0996 37.732 37.4316 37.732 37.7637V38.1445C37.732 38.3594 37.8004 38.6719 37.9371 39.082C37.9371 39.0234 37.9273 38.9746 37.9078 38.9355L38.025 39.1992C38.0836 39.3555 38.191 39.5117 38.3473 39.668L38.2008 39.5215C38.357 39.6973 38.523 39.8535 38.6988 39.9902L38.816 40.1367C38.816 40.1172 38.8063 40.1074 38.7867 40.1074C38.7867 40.0879 38.7477 40.0488 38.6695 39.9902L39.1969 40.3418C39.275 40.3613 39.3434 40.3906 39.402 40.4297C39.4605 40.4688 39.4996 40.498 39.5191 40.5176C39.5387 40.5176 39.5484 40.5273 39.5484 40.5469L39.4898 40.4883C39.4117 40.4688 39.3727 40.4492 39.3727 40.4297C39.9195 40.6055 40.2027 40.6934 40.2223 40.6934C40.2613 40.6934 40.3199 40.7031 40.398 40.7227C40.4762 40.7422 40.5348 40.7617 40.5738 40.7812C40.6129 40.7812 40.6422 40.7812 40.6617 40.7812H40.5445C40.8961 40.8203 41.2574 40.8398 41.6285 40.8398L42.6832 40.752H42.6246L43.2105 40.6641C44.4801 40.3711 45.6422 40.0391 46.6969 39.668L47.6051 39.3164L47.9566 39.1699C47.9371 39.1895 47.9078 39.1992 47.8688 39.1992C47.8492 39.1992 47.8297 39.2188 47.8102 39.2578C47.8102 39.2383 47.8688 39.209 47.9859 39.1699C49.6656 38.4277 51.4332 37.1973 53.2887 35.4785C55.1441 33.7402 56.5016 32.4414 57.3609 31.582C57.7906 31.1719 58.2887 30.9668 58.8551 30.9668C59.402 30.9863 59.8805 31.1914 60.2906 31.582C60.7203 31.9727 60.9352 32.4414 60.9352 32.9883C60.9352 33.0273 60.9254 33.1934 60.9059 33.4863C60.9059 33.7793 60.7105 34.1406 60.3199 34.5703C56.2965 39.2578 51.8629 42.4121 47.0191 44.0332C44.9879 44.7168 43.1227 45.0586 41.4234 45.0586Z" fill="#077DF9"/>
<path d="M62.5324 44.8828L61.8 44.8535C59.3977 44.5801 57.6984 43.3203 56.7023 41.0742C56.175 39.8828 55.9113 38.6719 55.9113 37.4414C55.9113 36.2695 56.1359 35.0879 56.5852 33.8965C58.6555 28.3301 61.3801 24.4531 64.759 22.2656C66.302 21.25 67.9816 20.7422 69.798 20.7422C70.4035 20.7422 71.0285 20.8105 71.673 20.9473C73.9777 21.4746 75.6672 22.7832 76.7414 24.873C77.2492 25.8887 77.5031 26.9922 77.5031 28.1836V31.2891C77.5031 31.2109 77.5129 31.1719 77.5324 31.1719C77.5324 31.3672 77.552 31.5332 77.591 31.6699C77.6496 31.9043 77.6789 32.1094 77.6789 32.2852C77.6789 33.3008 77.1711 33.9844 76.1555 34.3359C75.9602 34.3945 75.7648 34.4238 75.5695 34.4238C74.0656 34.4238 73.3137 33.0859 73.3137 30.4102L73.2258 27.6855C73.2063 27.2168 73.1672 26.9043 73.1086 26.748C73.1477 26.8066 73.1672 26.875 73.1672 26.9531L72.7863 26.2793H72.8449L72.9035 26.4258L72.757 26.2793C72.5031 25.9668 72.2883 25.752 72.1125 25.6348C72.1125 25.6543 72.1223 25.6738 72.1418 25.6934C72.1613 25.6934 72.1711 25.7031 72.1711 25.7227C72.1906 25.7227 72.2102 25.7227 72.2297 25.7227C72.2492 25.7227 72.259 25.7324 72.259 25.752V25.7227C72.2199 25.7227 72.1027 25.6641 71.9074 25.5469C71.5559 25.332 71.3313 25.2051 71.2336 25.166C71.2727 25.2051 71.3117 25.2246 71.3508 25.2246C70.8625 25.0488 70.5109 24.9609 70.2961 24.9609L70.5305 24.9902C70.2375 24.9902 69.9543 24.9805 69.6809 24.9609C69.5246 24.9414 69.3391 24.9512 69.1242 24.9902C68.4992 25.1074 68.0207 25.2539 67.6887 25.4297C67.6887 25.4102 67.6984 25.4004 67.718 25.4004C67.7375 25.4004 67.7473 25.4004 67.7473 25.4004C67.7668 25.3809 67.7961 25.3613 67.8352 25.3418C67.757 25.4199 67.6008 25.5176 67.3664 25.6348C67.0148 25.8105 66.673 26.0059 66.341 26.2207C66.302 26.2598 66.2629 26.2891 66.2238 26.3086C66.2043 26.3086 66.1848 26.3184 66.1652 26.3379C66.1652 26.3379 66.1359 26.3672 66.0773 26.4258V26.3965L66.1945 26.3379C66.0773 26.3965 65.9309 26.5137 65.7551 26.6895C65.2863 27.0996 64.8566 27.5586 64.466 28.0664C64.4465 28.0664 64.427 28.0762 64.4074 28.0957C64.4074 28.1152 64.3977 28.1348 64.3781 28.1543C64.3781 28.1543 64.3488 28.1934 64.2902 28.2715C64.3098 28.2324 64.3293 28.2129 64.3488 28.2129C64.3293 28.2129 64.3195 28.2227 64.3195 28.2422L63.9973 28.7109C62.9426 30.2539 61.9758 32.002 61.0969 33.9551L60.9504 34.2773C60.5207 35.3516 60.2668 36.2695 60.1887 37.0312L60.1008 38.1152C60.1008 38.252 60.1984 38.6133 60.3937 39.1992L60.3352 39.1113C60.6086 39.6777 60.7648 39.9805 60.8039 40.0195C60.8625 40.0391 60.9016 40.0684 60.9211 40.1074C60.843 40.0098 60.8039 39.9414 60.8039 39.9023C60.8039 39.9219 60.8039 39.9414 60.8039 39.9609C60.8234 39.9609 60.8332 39.9707 60.8332 39.9902C60.8527 40.0098 60.9211 40.0781 61.0383 40.1953C61.2727 40.4297 61.4094 40.5469 61.4484 40.5469L61.3605 40.4883C61.4191 40.5273 61.4582 40.5664 61.4777 40.6055C61.5168 40.625 61.6047 40.6641 61.7414 40.7227C61.7805 40.7422 61.8 40.7617 61.8 40.7812C61.7805 40.7617 61.7512 40.752 61.7121 40.752C61.673 40.7324 61.6437 40.7227 61.6242 40.7227C61.6242 40.7031 61.6145 40.6836 61.5949 40.6641C61.6535 40.7227 61.8488 40.791 62.1809 40.8691L62.0051 40.8398C62.3176 40.8398 62.5422 40.8301 62.6789 40.8105L62.5031 40.8398C62.9133 40.7031 63.1477 40.6348 63.2062 40.6348L63.0891 40.6934C63.4797 40.498 63.8605 40.2734 64.2316 40.0195C64.2512 40.0195 64.2707 40.0098 64.2902 39.9902C64.3293 39.9512 64.3781 39.9219 64.4367 39.9023C64.593 39.8047 64.6711 39.7363 64.6711 39.6973C64.6711 39.7168 64.6516 39.7461 64.6125 39.7852C68.9289 36.1914 72.8352 32.168 76.3313 27.7148C76.6633 27.2852 77.1027 27.0703 77.6496 27.0703C78.1965 27.0703 78.6652 27.2266 79.0559 27.5391C79.6027 28.0078 79.8762 28.5352 79.8762 29.1211C79.8762 29.4727 79.7883 29.8438 79.6125 30.2344C79.3977 30.7422 79.1926 31.2598 78.9973 31.7871C78.1965 34.0332 77.6691 35.9473 77.4152 37.5293H77.3859L77.4152 37.3535C77.5324 38.3691 77.8645 39.1406 78.4113 39.668L78.3234 39.6387H78.382C78.5969 39.8535 78.8605 39.9609 79.173 39.9609L78.968 39.9902L79.173 39.9316C80.9699 39.541 82.5715 38.8184 83.9777 37.7637H83.9484L83.8605 37.8516C85.6574 36.4062 87.6496 34.2773 89.8371 31.4648C90.1496 31.0547 90.5598 30.8496 91.0676 30.8496C91.1262 30.8496 91.3215 30.8594 91.6535 30.8789C91.9855 30.8984 92.3469 31.1035 92.7375 31.4941C93.1477 31.8652 93.3527 32.2949 93.3527 32.7832C93.3527 32.8418 93.343 33.0176 93.3234 33.3105C93.3039 33.6035 93.1184 33.9746 92.7668 34.4238C91.009 36.7676 89.134 38.8086 87.1418 40.5469C85.2277 42.2266 83.0305 43.3008 80.55 43.7695C80.3352 43.8086 80.1008 43.8379 79.8469 43.8574C78.5578 44.0137 77.259 43.7012 75.9504 42.9199C74.1145 41.8066 73.1965 40.166 73.1965 37.998C73.1965 37.1973 73.2941 36.3965 73.4895 35.5957C74.0754 33.0371 74.9055 30.5371 75.9797 28.0957L79.2902 30.6738C76.0285 34.8535 72.3957 38.6816 68.3918 42.1582C66.2629 44.0137 64.3098 44.9219 62.5324 44.8828Z" fill="#077DF9"/>
<path d="M96.7664 45.1172C95.868 45.1172 94.9598 44.9805 94.0418 44.707C92.1863 44.1016 90.8094 42.9297 89.9109 41.1914C89.3055 39.7852 89.0027 38.3301 89.0027 36.8262C89.0027 34.9902 89.3738 32.7148 90.116 30C91.6004 23.75 93.6609 17.8906 96.2977 12.4219C98.0945 8.55469 100.175 5.57617 102.538 3.48633C104.315 1.92383 106.141 1.14258 108.016 1.14258L108.632 1.17188C111.21 1.46484 112.909 2.75391 113.729 5.03906C113.944 5.70312 114.052 6.36719 114.052 7.03125C114.052 9.0625 113.075 11.9824 111.122 15.791C107.567 22.7637 102.098 28.75 94.7156 33.75C94.3836 33.9453 94.0418 34.043 93.6902 34.043C92.909 34.043 92.284 33.6914 91.8152 32.9883C91.6199 32.6562 91.5223 32.3145 91.5223 31.9629C91.5223 31.2012 91.8836 30.5762 92.6062 30.0879C93.3289 29.5801 94.0516 29.0527 94.7742 28.5059C94.7937 28.5059 94.823 28.4961 94.8621 28.4766C94.9012 28.4375 94.9305 28.418 94.95 28.418C94.9695 28.3984 95.0379 28.3398 95.1551 28.2422L95.0672 28.3008C95.1258 28.2422 95.2918 28.1152 95.5652 27.9199C96.8738 26.8457 97.8895 25.9668 98.6121 25.2832C100.136 23.8379 101.669 22.1973 103.212 20.3613L103.651 19.7754V19.8047L103.563 19.8926C103.563 19.873 103.583 19.8535 103.622 19.834L103.798 19.5703C105.673 17.0898 107.274 14.3066 108.602 11.2207C108.622 11.1426 108.651 11.0742 108.69 11.0156C108.729 10.9375 108.768 10.8594 108.807 10.7812L108.837 10.6641V10.7227L108.778 10.7812L108.837 10.6641C109.266 9.64844 109.569 8.70117 109.745 7.82227C109.784 7.70508 109.804 7.58789 109.804 7.4707V7.67578H109.774L109.804 6.91406C109.804 6.66016 109.794 6.5332 109.774 6.5332L109.804 6.62109V6.76758H109.833C109.833 6.65039 109.804 6.57227 109.745 6.5332C109.745 6.47461 109.735 6.43555 109.716 6.41602C109.716 6.37695 109.706 6.33789 109.686 6.29883C109.667 6.25977 109.657 6.2207 109.657 6.18164L109.745 6.35742L109.657 6.21094C109.579 6.13281 109.54 6.06445 109.54 6.00586C109.559 6.00586 109.589 6.03516 109.628 6.09375L109.188 5.6543C109.188 5.69336 109.227 5.73242 109.305 5.77148C109.149 5.6543 109.052 5.58594 109.012 5.56641C108.973 5.54688 108.954 5.52734 108.954 5.50781H109.012L109.042 5.53711L108.221 5.33203H108.251C108.29 5.35156 108.358 5.36133 108.456 5.36133C108.104 5.36133 107.802 5.37109 107.548 5.39062L107.694 5.36133C107.655 5.40039 107.577 5.41992 107.46 5.41992C107.362 5.45898 107.294 5.47852 107.255 5.47852C107.235 5.47852 107.206 5.48828 107.167 5.50781C107.128 5.52734 107.089 5.53711 107.05 5.53711L106.845 5.625L106.962 5.56641L106.727 5.68359C106.532 5.78125 106.346 5.88867 106.171 6.00586C106.073 6.08398 105.966 6.15234 105.848 6.21094L105.761 6.24023L105.878 6.15234C105.819 6.21094 105.77 6.25977 105.731 6.29883C105.692 6.31836 105.673 6.33789 105.673 6.35742C104.833 7.04102 104.1 7.79297 103.475 8.61328L103.417 8.70117H103.387L103.3 8.81836L103.241 8.90625C102.421 9.96094 101.62 11.2402 100.839 12.7441C99.9207 14.5215 99.0711 16.3477 98.2898 18.2227L98.202 18.457L98.2605 18.2812V18.3398L97.909 19.1309C96.0926 23.7402 94.6082 28.8086 93.4559 34.3359C93.4363 34.5117 93.407 34.6777 93.368 34.834V35.0098L93.3387 35.0977L93.368 34.8633C93.368 34.9805 93.3582 35.0391 93.3387 35.0391C93.2801 35.6445 93.2508 36.25 93.2508 36.8555C93.2508 37.2461 93.2703 37.627 93.3094 37.998V38.0566L93.2801 37.998V37.9688C93.2996 37.9688 93.3094 38.0176 93.3094 38.1152C93.4461 38.7598 93.5535 39.1211 93.6316 39.1992C93.6316 39.2383 93.6512 39.2773 93.6902 39.3164C93.6316 39.3164 93.6023 39.2578 93.6023 39.1406H93.573L93.6023 39.1699C93.6023 39.1895 93.6023 39.2188 93.6023 39.2578C93.6219 39.2773 93.6707 39.3359 93.7488 39.4336C93.827 39.5312 93.8855 39.6387 93.9246 39.7559L93.9539 39.8145V39.7852C93.9344 39.7852 93.9148 39.7754 93.8953 39.7559C93.8953 39.7363 93.8855 39.7168 93.866 39.6973C93.866 39.6582 93.8465 39.6387 93.8074 39.6387L94.4227 40.2539C94.4031 40.2539 94.3445 40.2051 94.2469 40.1074L94.4812 40.2832L95.1258 40.6348C95.0672 40.6348 94.9988 40.6055 94.9207 40.5469H94.8914C94.9109 40.5664 94.9598 40.5859 95.0379 40.6055L95.3016 40.6934L95.8875 40.8398C95.9852 40.8398 96.0535 40.8496 96.0926 40.8691H96.1805V40.8984C96.1609 40.8984 96.1316 40.8984 96.0926 40.8984C96.0535 40.8789 96.0242 40.8594 96.0047 40.8398H95.9168C95.9949 40.8984 96.1121 40.9277 96.2684 40.9277C96.6199 40.9277 96.8348 40.9082 96.9129 40.8691C97.2254 40.8691 97.4109 40.8594 97.4695 40.8398H97.5574L97.5281 40.8691H97.4402L97.4988 40.8398H97.5867C98.2508 40.7422 98.8758 40.5664 99.4617 40.3125C99.5594 40.2734 99.6277 40.2539 99.6668 40.2539L99.4617 40.3418L99.5203 40.3125C99.5594 40.2734 99.5984 40.2539 99.6375 40.2539C99.6766 40.2344 99.7156 40.2148 99.7547 40.1953C100.673 39.8047 102.294 38.7207 104.618 36.9434C104.677 36.8652 104.755 36.8066 104.852 36.7676C104.794 36.8262 104.745 36.8555 104.706 36.8555V36.8848C104.804 36.8066 104.862 36.7676 104.882 36.7676C104.901 36.748 104.921 36.7188 104.94 36.6797L105.292 36.416C107.792 34.3652 109.442 32.7734 110.243 31.6406C110.282 31.6211 110.311 31.5918 110.331 31.5527C110.35 31.5137 110.37 31.4941 110.389 31.4941C110.409 31.4746 110.419 31.4551 110.419 31.4355L110.36 31.5234L110.448 31.4062C110.956 30.7227 111.552 30.3809 112.235 30.3809C112.567 30.3809 112.929 30.4688 113.319 30.6445C114.042 31.0742 114.403 31.709 114.403 32.5488C114.403 32.9004 114.296 33.2324 114.081 33.5449C113.475 34.3457 112.831 35.1172 112.147 35.8594C109.589 38.4961 106.757 40.8008 103.651 42.7734C102.245 43.7109 100.712 44.3945 99.0516 44.8242C98.2898 45.0195 97.5281 45.1172 96.7664 45.1172ZM117.128 16.3477L91.2879 15.9961C90.6824 15.9766 90.1844 15.7715 89.7937 15.3809C89.4227 14.9707 89.2176 14.4727 89.1785 13.8867C89.1785 13.3008 89.3836 12.8027 89.7937 12.3926C90.2234 11.9824 90.7215 11.7773 91.2879 11.7773L117.128 12.1289C117.733 12.1484 118.221 12.3535 118.593 12.7441C118.983 13.1348 119.198 13.6328 119.237 14.2383C119.237 14.8242 119.032 15.3223 118.622 15.7324C118.212 16.123 117.714 16.3281 117.128 16.3477Z" fill="#077DF9"/>
<path d="M113.657 45.2637C111.625 45.2637 110.219 44.3164 109.438 42.4219C109.164 41.6406 109.028 40.8301 109.028 39.9902C109.028 37.7051 109.682 34.9707 110.991 31.7871C112.26 28.291 113.852 24.9512 115.766 21.7676C116.215 21.084 116.811 20.7422 117.553 20.7422C117.924 20.7422 118.286 20.8301 118.637 21.0059C119.34 21.416 119.692 22.041 119.692 22.8809C119.692 23.2324 119.594 23.5742 119.399 23.9062C118.422 25.4883 117.534 27.1289 116.733 28.8281C116.303 29.7461 115.727 31.1523 115.004 33.0469C114.243 35.0781 113.725 36.7285 113.452 37.998L113.422 38.2031C113.383 38.3594 113.364 38.4863 113.364 38.584L113.305 39.1113L113.276 40.1953L113.305 40.6934L113.276 40.459C113.295 40.5176 113.305 40.5566 113.305 40.5762C113.305 40.5957 113.315 40.6738 113.334 40.8105C113.373 40.9277 113.412 41.0352 113.452 41.1328C113.412 41.0547 113.393 41.0059 113.393 40.9863C113.393 40.9668 113.393 40.9473 113.393 40.9277L113.539 41.2207L113.393 41.0449L113.51 41.1621L113.364 41.0449L113.305 41.0156L113.481 41.0742L113.657 41.1035L113.422 41.0742L113.92 41.0449L113.745 41.1035C113.745 41.084 113.793 41.0645 113.891 41.0449C113.989 41.0254 114.047 41.0156 114.067 41.0156V40.9863L114.536 40.8398C114.536 40.8203 114.545 40.8105 114.565 40.8105L115.034 40.5762C115.873 40.127 116.664 39.6191 117.407 39.0527L117.26 39.1699L117.436 39.0234C117.729 38.7891 118.022 38.5352 118.315 38.2617C120.659 36.1719 122.768 33.9453 124.643 31.582C126.518 29.1992 128.334 26.748 130.092 24.2285C130.6 23.5449 131.196 23.2031 131.879 23.2031C132.231 23.2031 132.602 23.291 132.993 23.4668C133.657 23.8574 133.989 24.4531 133.989 25.2539C133.989 25.625 133.911 25.9961 133.754 26.3672C133.481 26.9531 133.217 27.5488 132.963 28.1543L132.7 28.7402L132.67 28.8574L132.553 29.1211C132.553 29.1992 132.534 29.2383 132.495 29.2383C132.045 30.293 131.547 31.6113 131 33.1934C130.375 34.9707 129.936 36.6406 129.682 38.2031C129.663 38.2227 129.653 38.2715 129.653 38.3496C129.653 38.4082 129.643 38.4766 129.623 38.5547C129.604 38.6133 129.594 38.6523 129.594 38.6719V38.584C129.575 38.8574 129.565 39.1406 129.565 39.4336V39.7852C129.565 39.707 129.555 39.668 129.536 39.668C129.536 39.6484 129.545 39.6387 129.565 39.6387V39.6973C129.565 39.7559 129.565 39.7949 129.565 39.8145C129.584 39.8145 129.594 39.8242 129.594 39.8438L129.682 40.1953L129.623 39.9902C129.682 40.0879 129.711 40.1465 129.711 40.166C129.711 40.1855 129.741 40.2246 129.799 40.2832L129.887 40.3711L129.741 40.2539C129.76 40.2734 129.78 40.293 129.799 40.3125C129.838 40.3125 129.858 40.3223 129.858 40.3418C129.838 40.3418 129.819 40.3418 129.799 40.3418C129.78 40.3223 129.75 40.3125 129.711 40.3125C129.692 40.3125 129.682 40.3027 129.682 40.2832L129.799 40.3125H129.623C129.702 40.293 129.741 40.2832 129.741 40.2832C129.76 40.2832 129.789 40.2832 129.829 40.2832C129.868 40.2832 129.907 40.2637 129.946 40.2246H130.004L129.858 40.2832C130.58 39.9316 131.557 39.2969 132.788 38.3789C132.905 38.3008 132.963 38.252 132.963 38.2324C132.983 38.2129 133.012 38.1934 133.051 38.1738C133.09 38.1543 133.12 38.1348 133.139 38.1152L133.051 38.1738C134.692 36.9824 136.538 35.1562 138.588 32.6953C138.588 32.6367 138.618 32.5781 138.676 32.5195L138.764 32.4609L138.676 32.5781L138.735 32.4609C138.774 32.3828 138.813 32.3438 138.852 32.3438L139.702 31.1133C140.209 30.4492 140.795 30.1172 141.459 30.1172C141.811 30.1172 142.192 30.2051 142.602 30.3809C143.305 30.7715 143.657 31.3867 143.657 32.2266C143.657 32.5781 143.549 32.9199 143.334 33.252C141.088 36.6113 138.256 39.5508 134.838 42.0703L134.721 42.1582C132.748 43.7012 131.098 44.4727 129.77 44.4727C128.813 44.4727 127.905 44.1406 127.045 43.4766C125.932 42.4219 125.366 41.123 125.346 39.5801C125.346 38.2324 125.541 36.8945 125.932 35.5664V35.5078C126.635 32.6758 127.993 28.9844 130.004 24.4336C130.043 24.375 130.073 24.3066 130.092 24.2285C131.323 24.9316 132.543 25.6445 133.754 26.3672C128.286 34.2383 123.334 39.834 118.901 43.1543C117.631 44.1309 116.225 44.8047 114.682 45.1758C114.33 45.2344 113.989 45.2637 113.657 45.2637Z" fill="#077DF9"/>
<path d="M139.512 45.5273C139.238 45.5273 138.975 45.4688 138.721 45.3516C137.861 44.9805 137.432 44.3359 137.432 43.418C137.432 43.2422 137.451 43.0566 137.49 42.8613L142.793 20.2441C142.949 19.6777 143.281 19.2578 143.789 18.9844C144.141 18.8086 144.502 18.7207 144.873 18.7207C145.693 18.7207 146.289 19.0723 146.66 19.7754C146.836 20.127 146.924 20.4883 146.924 20.8594C146.924 21.1133 145.137 28.8184 141.562 43.9746L137.695 42.3633C139.199 38.9453 140.869 35.625 142.705 32.4023C144.385 29.4336 146.387 26.7188 148.711 24.2578C150.898 21.9141 152.91 20.4785 154.746 19.9512C155.137 19.834 155.537 19.7754 155.947 19.7754C156.729 19.7754 157.52 20 158.32 20.4492C159.297 21.0742 159.932 21.9434 160.225 23.0566C160.322 23.5254 160.391 23.9941 160.43 24.4629L160.488 24.9609L160.459 24.8438L160.488 25.1074C160.645 25.6934 160.742 26.0352 160.781 26.1328C160.82 26.2109 160.84 26.2793 160.84 26.3379L160.811 26.2207L161.221 27.041L161.66 27.6855L161.543 27.5391C162.07 28.0664 162.383 28.3691 162.48 28.4473L162.539 28.5352L162.51 28.5059C162.51 28.4863 162.49 28.4766 162.451 28.4766C162.432 28.457 162.412 28.4473 162.393 28.4473C162.393 28.4277 162.383 28.418 162.363 28.418V28.3887C162.383 28.3887 162.393 28.3984 162.393 28.418C162.393 28.418 162.412 28.4277 162.451 28.4473C162.49 28.4668 162.529 28.5059 162.568 28.5645C162.627 28.6035 163.027 28.8379 163.77 29.2676C164.238 29.5215 164.482 29.6484 164.502 29.6484H164.561L164.502 29.5898C164.443 29.5703 164.375 29.5605 164.297 29.5605C164.355 29.5605 164.404 29.5801 164.443 29.6191C164.502 29.6387 164.551 29.6484 164.59 29.6484C164.844 29.7461 165.098 29.8145 165.352 29.8535L165.703 29.9414H165.791C165.693 29.9414 165.635 29.9316 165.615 29.9121H165.586H165.674C166.455 29.9902 167.227 30.0293 167.988 30.0293C168.594 30.0488 169.092 30.2637 169.482 30.6738C169.893 31.084 170.098 31.6016 170.098 32.2266C170.098 32.7734 169.893 33.2422 169.482 33.6328C169.072 34.0234 168.574 34.2285 167.988 34.248H167.402C166.074 34.248 164.766 34.0723 163.477 33.7207C160.117 32.5488 157.891 30.4688 156.797 27.4805C156.406 26.3672 156.211 25.3125 156.211 24.3164V24.5215L156.152 24.1699V23.9941L156.182 24.1699L156.094 24.0234L156.123 24.0527L156.328 24.1992L156.064 24.0234L156.27 24.1113L155.977 24.0234H156.211H156.182C156.162 24.043 156.113 24.0527 156.035 24.0527C156.016 24.0527 155.986 24.0527 155.947 24.0527C155.928 24.0332 155.879 24.0234 155.801 24.0234C155.742 24.0234 155.713 24.0137 155.713 23.9941H155.977L155.273 24.1699C155.273 24.1309 155.322 24.1113 155.42 24.1113L155.361 24.1406C155.342 24.1797 155.225 24.2578 155.01 24.375C154.795 24.4922 154.561 24.6484 154.307 24.8438L154.424 24.7559L154.395 24.7852C154.355 24.8242 154.297 24.8633 154.219 24.9023L154.131 24.9902C152.549 26.2598 151.133 27.6953 149.883 29.2969L149.619 29.5898C149.58 29.707 149.531 29.7852 149.473 29.8242L149.385 29.8828C149.404 29.8828 149.414 29.873 149.414 29.8535C149.434 29.834 149.443 29.8242 149.443 29.8242C149.463 29.8047 149.482 29.7754 149.502 29.7363L148.066 31.7578C145.957 34.9414 143.721 39.1797 141.357 44.4727C141.006 45.1758 140.391 45.5273 139.512 45.5273Z" fill="#077DF9"/>
<path d="M174.009 45.0586C172.701 45.0586 171.382 44.7656 170.054 44.1797C168.726 43.5938 167.681 42.6172 166.92 41.25C166.353 40.0781 166.07 38.877 166.07 37.6465C166.07 35.8691 166.558 33.9453 167.535 31.875C168.785 29.2578 170.406 26.8945 172.398 24.7852C174.664 22.2852 177.134 20.9961 179.81 20.918C181.119 20.918 182.369 21.2402 183.56 21.8848C184.771 22.5293 185.679 23.4473 186.285 24.6387C186.656 25.498 186.841 26.3379 186.841 27.1582C186.841 29.1309 185.894 31.0059 184 32.7832C181.519 35.0293 178.629 36.1523 175.328 36.1523C173.355 36.1523 171.461 35.6934 169.644 34.7754C168.961 34.4043 168.619 33.7988 168.619 32.959C168.619 32.5879 168.707 32.2266 168.882 31.875C169.273 31.2109 169.879 30.8789 170.699 30.8789C171.05 30.8789 171.49 31.0059 172.017 31.2598L172.339 31.4062C172.32 31.4062 172.3 31.4062 172.281 31.4062C172.261 31.4062 172.232 31.3965 172.193 31.377C172.154 31.3574 172.134 31.3379 172.134 31.3184L172.369 31.4062C172.779 31.6016 173.257 31.7383 173.804 31.8164C173.921 31.875 174.078 31.9043 174.273 31.9043L174.068 31.875C174.166 31.9141 174.556 31.9336 175.24 31.9336C175.904 31.9336 176.353 31.9141 176.587 31.875C176.49 31.9141 176.421 31.9336 176.382 31.9336H176.353L176.558 31.875C176.597 31.875 176.627 31.8652 176.646 31.8457C177.584 31.6895 178.306 31.4844 178.814 31.2305L178.58 31.3184C178.912 31.2012 179.302 31.0059 179.752 30.7324C180.201 30.459 180.455 30.293 180.513 30.2344L180.66 30.1172L180.484 30.2637L180.601 30.1758C181.441 29.3359 181.861 28.916 181.861 28.916L181.949 28.7988L181.832 28.9746V28.916C181.91 28.7988 181.968 28.7207 182.007 28.6816C182.046 28.623 182.086 28.5547 182.125 28.4766C182.222 28.3398 182.3 28.2129 182.359 28.0957C182.437 27.959 182.476 27.8906 182.476 27.8906C182.476 27.8711 182.486 27.8516 182.505 27.832L182.447 27.9492L182.623 27.4219L182.652 27.2461V26.8652L182.681 26.8359L182.711 26.8652C182.711 26.8848 182.711 26.9043 182.711 26.9238C182.711 26.9434 182.72 26.9629 182.74 26.9824C182.74 27.0215 182.73 27.041 182.711 27.041C182.691 27.0215 182.671 26.9922 182.652 26.9531C182.652 26.9141 182.642 26.875 182.623 26.8359C182.623 26.7969 182.613 26.7578 182.593 26.7188C182.574 26.6797 182.564 26.6406 182.564 26.6016C182.564 26.5625 182.574 26.543 182.593 26.543L182.681 26.748L182.593 26.6602C182.515 26.5039 182.466 26.4258 182.447 26.4258C182.447 26.4062 182.437 26.377 182.418 26.3379C182.398 26.2988 182.359 26.2402 182.3 26.1621L182.447 26.3086L181.832 25.7227L182.037 25.8984L181.129 25.3418V25.3125L181.334 25.459L181.099 25.3418C180.67 25.2246 180.406 25.166 180.308 25.166C180.23 25.1465 180.191 25.127 180.191 25.1074L180.22 25.0781L180.425 25.166C180.347 25.127 180.25 25.1074 180.132 25.1074C180.015 25.1074 179.908 25.1172 179.81 25.1367H179.546C179.429 25.1367 179.371 25.1465 179.371 25.166C179.371 25.127 179.439 25.1074 179.576 25.1074C179.537 25.1465 179.41 25.1855 179.195 25.2246C178.98 25.2637 178.795 25.3125 178.638 25.3711C178.502 25.4297 178.375 25.4785 178.257 25.5176C177.691 25.8301 177.33 26.0352 177.173 26.1328L176.968 26.2793L176.88 26.3672C176.88 26.3477 176.9 26.3281 176.939 26.3086C176.978 26.2891 177.007 26.2695 177.027 26.25L175.914 27.2461C175.406 27.7344 174.83 28.3789 174.185 29.1797L174.039 29.3555H174.068C174.068 29.3164 174.097 29.2676 174.156 29.209L173.863 29.6191C173.023 30.7129 172.183 32.0508 171.343 33.6328L171.255 33.8965C171.177 34.0137 171.138 34.1016 171.138 34.1602L171.168 34.043C170.796 34.9414 170.533 35.8398 170.377 36.7383L170.347 36.9141L170.377 36.7676C170.337 37.0996 170.318 37.4316 170.318 37.7637V38.1445C170.318 38.3594 170.386 38.6719 170.523 39.082C170.523 39.0234 170.513 38.9746 170.494 38.9355L170.611 39.1992C170.67 39.3555 170.777 39.5117 170.933 39.668L170.787 39.5215C170.943 39.6973 171.109 39.8535 171.285 39.9902L171.402 40.1367C171.402 40.1172 171.392 40.1074 171.373 40.1074C171.373 40.0879 171.334 40.0488 171.255 39.9902L171.783 40.3418C171.861 40.3613 171.929 40.3906 171.988 40.4297C172.046 40.4688 172.086 40.498 172.105 40.5176C172.125 40.5176 172.134 40.5273 172.134 40.5469L172.076 40.4883C171.998 40.4688 171.959 40.4492 171.959 40.4297C172.505 40.6055 172.789 40.6934 172.808 40.6934C172.847 40.6934 172.906 40.7031 172.984 40.7227C173.062 40.7422 173.121 40.7617 173.16 40.7812C173.199 40.7812 173.228 40.7812 173.248 40.7812H173.13C173.482 40.8203 173.843 40.8398 174.214 40.8398L175.269 40.752H175.211L175.796 40.6641C177.066 40.3711 178.228 40.0391 179.283 39.668L180.191 39.3164L180.543 39.1699C180.523 39.1895 180.494 39.1992 180.455 39.1992C180.435 39.1992 180.416 39.2188 180.396 39.2578C180.396 39.2383 180.455 39.209 180.572 39.1699C182.252 38.4277 184.019 37.1973 185.875 35.4785C187.73 33.7402 189.087 32.4414 189.947 31.582C190.377 31.1719 190.875 30.9668 191.441 30.9668C191.988 30.9863 192.466 31.1914 192.877 31.582C193.306 31.9727 193.521 32.4414 193.521 32.9883C193.521 33.0273 193.511 33.1934 193.492 33.4863C193.492 33.7793 193.296 34.1406 192.906 34.5703C188.882 39.2578 184.449 42.4121 179.605 44.0332C177.574 44.7168 175.709 45.0586 174.009 45.0586Z" fill="#077DF9"/>
<path d="M183.663 66.9141C182.843 66.9141 182.257 66.5625 181.905 65.8594C181.73 65.5078 181.642 65.1465 181.642 64.7754C181.642 64.5996 181.661 64.4238 181.7 64.248C183.693 54.8145 186.066 45.498 188.82 36.2988C190.773 29.7168 192.247 24.6582 193.243 21.123C193.4 20.5566 193.722 20.1367 194.21 19.8633C194.542 19.6875 194.904 19.5996 195.294 19.5996C196.114 19.5996 196.71 19.9512 197.081 20.6543C197.257 20.9863 197.345 21.3379 197.345 21.709C197.345 21.8848 197.325 22.0703 197.286 22.2656C196.935 23.5742 195.743 27.627 193.712 34.4238C190.47 45.4199 187.814 55.7324 185.743 65.3613C185.607 65.9473 185.284 66.3672 184.777 66.6211C184.425 66.8164 184.054 66.9141 183.663 66.9141ZM194.825 46.8164C193.419 46.8164 192.15 46.3379 191.017 45.3809C189.943 44.4824 189.405 43.3691 189.405 42.041C189.405 40.752 189.962 39.5703 191.075 38.4961C192.599 37.0117 194.493 35.791 196.759 34.834C200.079 33.7012 203.116 32.8906 205.87 32.4023C208.644 31.8945 212.032 31.2109 216.036 30.3516C216.603 30.2148 217.071 30.3613 217.443 30.791C217.833 31.2012 218.038 31.6895 218.058 32.2559C218.077 32.8613 217.872 33.3594 217.443 33.75C217.032 34.1211 216.544 34.3164 215.978 34.3359C213.946 34.9023 211.202 35.5273 207.745 36.2109L206.398 36.4746C204.464 36.8848 202.999 37.2168 202.003 37.4707C201.027 37.7246 200.05 38.0371 199.073 38.4082L199.015 38.4375C198.898 38.4961 198.81 38.5352 198.751 38.5547C198.712 38.5547 198.683 38.5645 198.663 38.584C198.683 38.5645 198.732 38.5449 198.81 38.5254L198.458 38.6719C197.111 39.2773 195.89 39.9902 194.796 40.8105L194.738 40.8398C194.738 40.8594 194.659 40.9375 194.503 41.0742C194.347 41.1914 194.191 41.3281 194.034 41.4844L193.8 41.7188L193.917 41.6016L193.595 42.041L193.683 41.8652L193.595 42.1875L193.624 42.0117V42.1582L193.595 41.9238L193.624 42.1875V42.0703L193.771 42.2754L193.595 42.0996C193.712 42.2559 193.79 42.334 193.829 42.334C193.888 42.3926 193.917 42.4316 193.917 42.4512H193.946L193.8 42.334L194.122 42.5098H194.005L194.298 42.5684L194.532 42.5977C194.532 42.6172 194.474 42.627 194.357 42.627L194.386 42.5977H195.206L195.06 42.627C195.568 42.5293 196.066 42.3926 196.554 42.2168L197.023 42.041L196.964 42.0703L196.818 42.1289L197.023 42.041C198.234 41.4355 199.23 40.8398 200.011 40.2539L199.835 40.3711L199.864 40.3418C199.904 40.3418 199.982 40.2832 200.099 40.166C201.154 39.2871 201.974 38.4375 202.56 37.6172C202.521 37.6953 202.491 37.7344 202.472 37.7344L202.823 37.2656C203.527 36.25 204.103 35.2051 204.552 34.1309L204.464 34.3652C204.464 34.3457 204.464 34.3262 204.464 34.3066C204.484 34.2871 204.503 34.248 204.523 34.1895C204.562 34.1309 204.669 33.8477 204.845 33.3398C205.138 32.4414 205.333 31.6602 205.431 30.9961C205.45 30.8398 205.48 30.7031 205.519 30.5859L205.548 30.498L205.519 30.6738C205.616 30.0098 205.665 29.3457 205.665 28.6816C205.665 28.2715 205.636 27.8613 205.577 27.4512C205.558 27.2559 205.548 27.0898 205.548 26.9531V26.7773V26.8652L205.577 27.0117L205.138 25.1074L205.196 25.1367V25.2246C205.177 25.2246 205.148 25.2051 205.109 25.166C205.089 25.127 205.06 25.0684 205.021 24.9902C204.982 24.9121 204.943 24.8438 204.904 24.7852C204.943 24.8242 204.962 24.8535 204.962 24.873C204.982 24.873 204.991 24.8828 204.991 24.9023L204.962 24.873C204.923 24.873 204.884 24.8438 204.845 24.7852C204.806 24.7266 204.777 24.6875 204.757 24.668L204.786 24.6973L204.347 24.4629H204.435L204.493 24.5215L204.376 24.4922C204.239 24.4531 204.103 24.4238 203.966 24.4043C203.849 24.3848 203.78 24.3652 203.761 24.3457H203.702C203.761 24.3652 203.829 24.375 203.907 24.375H203.058C202.999 24.375 202.911 24.375 202.794 24.375L202.911 24.3457C202.521 24.4043 202.101 24.5117 201.652 24.668L201.124 24.8438L201.3 24.7559C201.3 24.8145 201.183 24.9023 200.948 25.0195C200.245 25.3711 199.786 25.625 199.571 25.7812L199.396 25.8984L199.542 25.7812C198.527 26.6602 197.863 27.3047 197.55 27.7148L197.404 27.9199L197.433 27.8906C197.433 27.8711 197.443 27.8613 197.462 27.8613C197.482 27.8418 197.501 27.8223 197.521 27.8027V27.7734L196.847 28.7402C196.046 29.9121 195.079 31.7188 193.946 34.1602C193.614 34.8633 193.029 35.2148 192.189 35.2148C191.798 35.2148 191.437 35.1172 191.105 34.9219C190.441 34.5508 190.109 33.9453 190.109 33.1055C190.109 32.3047 190.997 30.3613 192.775 27.2754C194.708 23.9551 197.335 21.709 200.655 20.5371C201.515 20.2441 202.374 20.0977 203.234 20.0977C204.093 20.0977 204.943 20.2637 205.782 20.5957C207.657 21.2988 208.849 22.6172 209.357 24.5508C209.689 25.8008 209.855 27.0801 209.855 28.3887C209.855 31.2207 209.288 33.9062 208.155 36.4453C206.495 40.1758 203.849 43.0957 200.216 45.2051C198.38 46.2793 196.583 46.8164 194.825 46.8164Z" fill="#077DF9"/>
<path d="M220.065 44.8828L219.333 44.8535C216.93 44.5801 215.231 43.3203 214.235 41.0742C213.708 39.8828 213.444 38.6719 213.444 37.4414C213.444 36.2695 213.669 35.0879 214.118 33.8965C216.188 28.3301 218.913 24.4531 222.292 22.2656C223.835 21.25 225.514 20.7422 227.331 20.7422C227.936 20.7422 228.561 20.8105 229.206 20.9473C231.511 21.4746 233.2 22.7832 234.274 24.873C234.782 25.8887 235.036 26.9922 235.036 28.1836V31.2891C235.036 31.2109 235.046 31.1719 235.065 31.1719C235.065 31.3672 235.085 31.5332 235.124 31.6699C235.182 31.9043 235.212 32.1094 235.212 32.2852C235.212 33.3008 234.704 33.9844 233.688 34.3359C233.493 34.3945 233.298 34.4238 233.102 34.4238C231.598 34.4238 230.846 33.0859 230.846 30.4102L230.759 27.6855C230.739 27.2168 230.7 26.9043 230.641 26.748C230.68 26.8066 230.7 26.875 230.7 26.9531L230.319 26.2793H230.378L230.436 26.4258L230.29 26.2793C230.036 25.9668 229.821 25.752 229.645 25.6348C229.645 25.6543 229.655 25.6738 229.675 25.6934C229.694 25.6934 229.704 25.7031 229.704 25.7227C229.723 25.7227 229.743 25.7227 229.762 25.7227C229.782 25.7227 229.792 25.7324 229.792 25.752V25.7227C229.753 25.7227 229.636 25.6641 229.44 25.5469C229.089 25.332 228.864 25.2051 228.766 25.166C228.805 25.2051 228.845 25.2246 228.884 25.2246C228.395 25.0488 228.044 24.9609 227.829 24.9609L228.063 24.9902C227.77 24.9902 227.487 24.9805 227.214 24.9609C227.057 24.9414 226.872 24.9512 226.657 24.9902C226.032 25.1074 225.554 25.2539 225.221 25.4297C225.221 25.4102 225.231 25.4004 225.251 25.4004C225.27 25.4004 225.28 25.4004 225.28 25.4004C225.3 25.3809 225.329 25.3613 225.368 25.3418C225.29 25.4199 225.134 25.5176 224.899 25.6348C224.548 25.8105 224.206 26.0059 223.874 26.2207C223.835 26.2598 223.796 26.2891 223.757 26.3086C223.737 26.3086 223.718 26.3184 223.698 26.3379C223.698 26.3379 223.669 26.3672 223.61 26.4258V26.3965L223.727 26.3379C223.61 26.3965 223.464 26.5137 223.288 26.6895C222.819 27.0996 222.389 27.5586 221.999 28.0664C221.979 28.0664 221.96 28.0762 221.94 28.0957C221.94 28.1152 221.93 28.1348 221.911 28.1543C221.911 28.1543 221.882 28.1934 221.823 28.2715C221.843 28.2324 221.862 28.2129 221.882 28.2129C221.862 28.2129 221.852 28.2227 221.852 28.2422L221.53 28.7109C220.475 30.2539 219.509 32.002 218.63 33.9551L218.483 34.2773C218.054 35.3516 217.8 36.2695 217.721 37.0312L217.634 38.1152C217.634 38.252 217.731 38.6133 217.927 39.1992L217.868 39.1113C218.141 39.6777 218.298 39.9805 218.337 40.0195C218.395 40.0391 218.434 40.0684 218.454 40.1074C218.376 40.0098 218.337 39.9414 218.337 39.9023C218.337 39.9219 218.337 39.9414 218.337 39.9609C218.356 39.9609 218.366 39.9707 218.366 39.9902C218.386 40.0098 218.454 40.0781 218.571 40.1953C218.805 40.4297 218.942 40.5469 218.981 40.5469L218.893 40.4883C218.952 40.5273 218.991 40.5664 219.011 40.6055C219.05 40.625 219.137 40.6641 219.274 40.7227C219.313 40.7422 219.333 40.7617 219.333 40.7812C219.313 40.7617 219.284 40.752 219.245 40.752C219.206 40.7324 219.177 40.7227 219.157 40.7227C219.157 40.7031 219.147 40.6836 219.128 40.6641C219.186 40.7227 219.382 40.791 219.714 40.8691L219.538 40.8398C219.85 40.8398 220.075 40.8301 220.212 40.8105L220.036 40.8398C220.446 40.7031 220.68 40.6348 220.739 40.6348L220.622 40.6934C221.012 40.498 221.393 40.2734 221.764 40.0195C221.784 40.0195 221.804 40.0098 221.823 39.9902C221.862 39.9512 221.911 39.9219 221.97 39.9023C222.126 39.8047 222.204 39.7363 222.204 39.6973C222.204 39.7168 222.184 39.7461 222.145 39.7852C226.462 36.1914 230.368 32.168 233.864 27.7148C234.196 27.2852 234.636 27.0703 235.182 27.0703C235.729 27.0703 236.198 27.2266 236.589 27.5391C237.136 28.0078 237.409 28.5352 237.409 29.1211C237.409 29.4727 237.321 29.8438 237.145 30.2344C236.93 30.7422 236.725 31.2598 236.53 31.7871C235.729 34.0332 235.202 35.9473 234.948 37.5293H234.919L234.948 37.3535C235.065 38.3691 235.397 39.1406 235.944 39.668L235.856 39.6387H235.915C236.13 39.8535 236.393 39.9609 236.706 39.9609L236.501 39.9902L236.706 39.9316C238.503 39.541 240.104 38.8184 241.511 37.7637H241.481L241.393 37.8516C243.19 36.4062 245.182 34.2773 247.37 31.4648C247.682 31.0547 248.093 30.8496 248.6 30.8496C248.659 30.8496 248.854 30.8594 249.186 30.8789C249.518 30.8984 249.88 31.1035 250.27 31.4941C250.68 31.8652 250.886 32.2949 250.886 32.7832C250.886 32.8418 250.876 33.0176 250.856 33.3105C250.837 33.6035 250.651 33.9746 250.3 34.4238C248.542 36.7676 246.667 38.8086 244.675 40.5469C242.761 42.2266 240.563 43.3008 238.083 43.7695C237.868 43.8086 237.634 43.8379 237.38 43.8574C236.091 44.0137 234.792 43.7012 233.483 42.9199C231.647 41.8066 230.729 40.166 230.729 37.998C230.729 37.1973 230.827 36.3965 231.022 35.5957C231.608 33.0371 232.438 30.5371 233.512 28.0957L236.823 30.6738C233.561 34.8535 229.929 38.6816 225.925 42.1582C223.796 44.0137 221.843 44.9219 220.065 44.8828Z" fill="#077DF9"/>
<path d="M254.768 45.3809C253.245 45.3809 251.809 45.0879 250.461 44.502C249.133 43.916 248.059 43.0273 247.239 41.8359C246.418 40.5664 246.008 39.0723 246.008 37.3535C246.008 36.2988 246.125 35.2734 246.36 34.2773C246.868 32.0703 247.786 30.0391 249.114 28.1836C250.559 26.1719 252.278 24.4336 254.27 22.9688C256.731 21.0742 259.075 20.0781 261.301 19.9805C262.668 19.9805 263.909 20.3223 265.022 21.0059C266.135 21.6895 266.897 22.6758 267.307 23.9648C267.405 24.3945 267.454 24.8145 267.454 25.2246C267.454 26.0449 267.2 26.9531 266.692 27.9492C266.184 28.9258 265.276 29.5605 263.967 29.8535L263.44 29.8828C262.463 29.8828 261.77 29.3848 261.36 28.3887C261.301 28.1934 261.272 28.0078 261.272 27.832C261.272 27.4805 261.389 27.0898 261.623 26.6602C261.877 26.2109 262.278 25.918 262.825 25.7812C262.844 25.7812 262.883 25.7812 262.942 25.7812C263.02 25.7617 263.098 25.7324 263.176 25.6934H263.205C263.186 25.7129 263.157 25.7324 263.118 25.752C263.098 25.752 263.069 25.7617 263.03 25.7812C263.01 25.7812 262.991 25.7812 262.971 25.7812V25.752L263.176 25.6934C263.196 25.6934 263.205 25.7031 263.205 25.7227L263.03 25.7812C263.03 25.7617 263.03 25.752 263.03 25.752C263.049 25.752 263.059 25.752 263.059 25.752C263.079 25.7324 263.118 25.6934 263.176 25.6348V25.6055L263.03 25.8398L263.176 25.5762L263.264 25.4883V25.5176L263.118 25.6641L263.235 25.4297C263.235 25.4102 263.235 25.3711 263.235 25.3125C263.254 25.2539 263.274 25.2148 263.293 25.1953C263.274 25.2148 263.264 25.2637 263.264 25.3418V25.1074L263.205 25.0781L263.293 25.2539H263.264C263.225 25.0977 263.205 24.9805 263.205 24.9023H263.176C263.176 25 263.196 25.0684 263.235 25.1074H263.264L263.235 25.0488C263.176 24.9316 263.118 24.8535 263.059 24.8145C263.02 24.7754 262.991 24.7559 262.971 24.7559L263.147 24.9023C262.932 24.6875 262.825 24.5703 262.825 24.5508C262.864 24.5703 262.883 24.5801 262.883 24.5801L262.942 24.6094C262.981 24.6484 263 24.6777 263 24.6973L262.913 24.668C262.737 24.5312 262.532 24.4141 262.297 24.3164L262.444 24.375L262.385 24.3457H262.268C262.112 24.2676 261.936 24.2188 261.741 24.1992L260.891 24.2285C260.95 24.2285 260.989 24.2188 261.008 24.1992H261.038C261.018 24.2188 260.979 24.2383 260.92 24.2578C260.862 24.2578 260.784 24.2676 260.686 24.2871C260.608 24.3066 260.51 24.3359 260.393 24.375C260.276 24.3945 260.159 24.4336 260.041 24.4922C259.944 24.5312 259.875 24.5508 259.836 24.5508C259.797 24.5508 259.748 24.5605 259.69 24.5801H259.719C259.739 24.5801 259.768 24.5605 259.807 24.5215C259.065 24.8535 258.118 25.4102 256.965 26.1914C256.516 26.5039 256.282 26.6699 256.262 26.6895C256.262 26.6895 256.262 26.6992 256.262 26.7188C256.262 26.6992 256.282 26.6797 256.321 26.6602C256.36 26.6406 256.379 26.6211 256.379 26.6016V26.6309L256.262 26.7188C255.012 27.7148 253.909 28.8184 252.952 30.0293L253.069 29.8828L252.6 30.5273C252.073 31.2891 251.614 32.0801 251.223 32.9004L251.106 33.1934L251.135 33.1348C251.135 33.0957 251.145 33.0664 251.164 33.0469C251.164 33.0859 251.145 33.125 251.106 33.1641V33.252L251.077 33.2812C250.666 34.3164 250.393 35.3125 250.256 36.2695C250.276 36.25 250.286 36.2207 250.286 36.1816L250.227 37.3242C250.227 37.7148 250.237 37.9883 250.256 38.1445V37.998L250.227 37.9395L250.256 37.9688V38.1445L250.549 39.1992L250.491 39.082H250.52L250.871 39.6973C250.832 39.6582 250.813 39.6289 250.813 39.6094C250.813 39.5703 250.803 39.5508 250.784 39.5508V39.5801C251.057 39.8926 251.194 40.0488 251.194 40.0488C251.213 40.0488 251.223 40.0586 251.223 40.0781C251.243 40.0977 251.262 40.1172 251.282 40.1367C251.301 40.1367 251.321 40.1465 251.34 40.166C251.379 40.1855 251.399 40.2051 251.399 40.2246L251.282 40.1074C251.282 40.127 251.291 40.1465 251.311 40.166C251.33 40.166 251.34 40.1758 251.34 40.1953C251.36 40.1953 251.379 40.1953 251.399 40.1953L251.428 40.2246C251.799 40.4785 252.121 40.6543 252.395 40.752L252.248 40.6934C252.268 40.7129 252.327 40.7324 252.424 40.752C252.913 40.9277 253.42 41.0645 253.948 41.1621L253.83 41.1328L254.182 41.1621H254.651C255.198 41.1621 255.618 41.1426 255.911 41.1035H255.823L255.881 41.0742C256.018 41.0742 256.106 41.0645 256.145 41.0449C256.418 41.0449 256.936 40.9277 257.698 40.6934C258.459 40.4395 259.026 40.2246 259.397 40.0488C259.436 40.0488 259.465 40.0391 259.485 40.0195C259.465 40.0391 259.446 40.0488 259.426 40.0488C259.426 40.0488 259.397 40.0586 259.338 40.0781L259.719 39.9316C260.774 39.4434 261.946 38.8281 263.235 38.0859L263.586 37.8809C265.95 36.5527 268.02 35.2734 269.797 34.043L270.325 33.6328H270.354C270.354 33.6133 270.383 33.584 270.442 33.5449C270.5 33.4863 270.569 33.4375 270.647 33.3984C271.487 32.7148 272.268 31.9824 272.991 31.2012C273.401 30.791 273.87 30.5859 274.397 30.5859H274.895C275.188 30.6055 275.539 30.8105 275.95 31.2012C276.379 31.5918 276.594 32.0508 276.594 32.5781V33.0762C276.575 33.3887 276.37 33.7598 275.979 34.1895C273.987 36.2207 271.76 37.959 269.299 39.4043C267.014 40.8691 264.661 42.1973 262.239 43.3887C259.485 44.7168 256.995 45.3809 254.768 45.3809Z" fill="#077DF9"/>
<path d="M272.977 45.2344C272.254 45.2344 271.678 44.9316 271.248 44.3262C271.014 44.0137 270.896 43.623 270.896 43.1543C271.619 35.7715 273.113 28.5352 275.379 21.4453C277.195 15.4883 278.982 10.7617 280.74 7.26562L280.887 6.97266C281.473 5.72266 282.195 4.52148 283.055 3.36914C283.914 2.19727 285.047 1.44531 286.453 1.11328C286.766 1.05469 287.068 1.02539 287.361 1.02539C288.416 1.02539 289.344 1.42578 290.145 2.22656C290.926 3.20312 291.346 4.32617 291.404 5.5957C291.404 6.80664 291.277 7.88086 291.023 8.81836L290.994 8.90625C290.135 12.6953 288.65 16.4844 286.541 20.2734C283.807 25.0391 280.594 29.4629 276.902 33.5449C276.512 33.9551 276.043 34.1602 275.496 34.1602C275.457 34.1602 275.291 34.1504 274.998 34.1309C274.705 34.1113 274.354 33.916 273.943 33.5449C273.533 33.1738 273.328 32.7344 273.328 32.2266V31.6992C273.348 31.3867 273.543 31.0059 273.914 30.5566C275.008 29.3262 276.219 27.8809 277.547 26.2207C277.586 26.1426 277.635 26.0742 277.693 26.0156V26.0449L277.576 26.1621C277.615 26.1621 278.064 25.5664 278.924 24.375C281.502 20.8008 283.523 17.2949 284.988 13.8574L284.959 13.9746C284.959 13.9355 284.979 13.8867 285.018 13.8281C285.057 13.75 285.086 13.6719 285.105 13.5938C285.145 13.4961 285.184 13.3887 285.223 13.2715C286.16 10.9473 286.785 8.82812 287.098 6.91406C287.098 6.67969 287.137 6.48438 287.215 6.32812C287.156 6.44531 287.127 6.54297 287.127 6.62109L287.186 6.65039C287.186 6.41602 287.195 6.26953 287.215 6.21094L287.186 5.53711L287.215 5.56641V5.74219C287.195 5.70312 287.176 5.64453 287.156 5.56641C287.156 5.48828 287.137 5.40039 287.098 5.30273C287.059 5.20508 287.029 5.10742 287.01 5.00977C287.029 5.12695 287.039 5.19531 287.039 5.21484C287.059 5.23438 287.088 5.26367 287.127 5.30273L287.098 5.18555H287.068C286.99 5.0293 286.951 4.93164 286.951 4.89258L287.127 5.09766V5.15625C287.107 5.15625 287.068 5.12695 287.01 5.06836L286.922 4.98047L287.215 5.21484C287.156 5.17578 287.127 5.14648 287.127 5.12695V5.09766H287.186L287.303 5.18555C287.322 5.18555 287.332 5.19531 287.332 5.21484L287.186 5.18555H287.42C287.439 5.18555 287.449 5.19531 287.449 5.21484H287.215L287.332 5.15625H287.479C287.439 5.19531 287.293 5.24414 287.039 5.30273L287.215 5.24414C287.195 5.26367 287.166 5.2832 287.127 5.30273C287.107 5.30273 287.088 5.30273 287.068 5.30273L286.775 5.50781V5.47852L286.922 5.39062C286.902 5.39062 286.873 5.41016 286.834 5.44922C286.795 5.48828 286.766 5.51758 286.746 5.53711C286.727 5.53711 286.717 5.54688 286.717 5.56641C286.6 5.66406 286.502 5.77148 286.424 5.88867C286.424 5.86914 286.434 5.84961 286.453 5.83008C286.473 5.81055 286.482 5.79102 286.482 5.77148C286.502 5.75195 286.521 5.73242 286.541 5.71289C286.541 5.75195 286.502 5.82031 286.424 5.91797C285.369 7.51953 284.432 9.19922 283.611 10.957C283.26 11.7773 283.074 12.207 283.055 12.2461C283.035 12.2656 283.025 12.2949 283.025 12.334L282.996 12.3926H282.967L283.055 12.2461C283.035 12.2656 283.025 12.2949 283.025 12.334C281.971 14.9121 280.994 17.6367 280.096 20.5078C278.338 25.7617 277.059 30.6641 276.258 35.2148C275.711 38.1641 275.33 40.8105 275.115 43.1543C273.904 42.666 272.703 42.168 271.512 41.6602L273.797 39.1406C278.035 34.5117 281.199 30.9863 283.289 28.5645C284.969 26.5918 286.697 24.6875 288.475 22.8516C289.939 21.2305 291.395 20.3418 292.84 20.1855C294.168 20.1855 295.281 20.5957 296.18 21.416C297.078 22.2168 297.527 23.1836 297.527 24.3164C297.527 24.5703 297.508 24.8242 297.469 25.0781C297.098 26.8359 296.414 28.4668 295.418 29.9707C294.422 31.4551 293.24 32.7734 291.873 33.9258C289.1 36.25 285.965 37.9102 282.469 38.9062L283.729 35.8008C284.197 36.6016 284.705 37.3828 285.252 38.1445L285.223 38.1152C285.359 38.252 285.564 38.4961 285.838 38.8477C286.131 39.1602 286.443 39.4531 286.775 39.7266L286.893 39.8438C286.873 39.8438 286.844 39.834 286.805 39.8145C286.766 39.7754 286.746 39.7461 286.746 39.7266L287.479 40.1953C287.498 40.1953 287.518 40.2051 287.537 40.2246C287.557 40.2441 287.576 40.2539 287.596 40.2539C287.615 40.2539 287.684 40.293 287.801 40.3711L287.684 40.2832L287.742 40.3125C287.859 40.3711 287.938 40.4102 287.977 40.4297C288.035 40.4297 288.074 40.4395 288.094 40.459C288.309 40.5176 288.523 40.5566 288.738 40.5762C288.66 40.5762 288.602 40.5664 288.562 40.5469H288.768L288.885 40.5762C289.1 40.5762 289.217 40.5664 289.236 40.5469H289.354L289.5 40.5176C289.578 40.5176 289.637 40.5078 289.676 40.4883C289.734 40.4688 289.793 40.459 289.852 40.459C290.223 40.3418 290.584 40.2148 290.936 40.0781L290.818 40.1367L291.023 40.0488C292.332 39.4434 293.65 38.623 294.979 37.5879L295.213 37.3828C295.975 36.7969 296.775 36.1035 297.615 35.3027C298.455 34.4824 299.158 33.7012 299.725 32.959C299.764 32.9395 299.793 32.9102 299.812 32.8711C299.832 32.832 299.852 32.8027 299.871 32.7832C299.91 32.7441 299.939 32.7148 299.959 32.6953V32.7246H299.93L299.842 32.8711V32.8418L300.457 31.9629C300.965 31.2988 301.551 30.9668 302.215 30.9668C302.566 30.9668 302.938 31.0547 303.328 31.2305C304.031 31.6016 304.383 32.2266 304.383 33.1055C304.383 33.457 304.285 33.7891 304.09 34.1016C301.961 37.2656 299.002 40.0879 295.213 42.5684C293.045 43.9551 291.004 44.6973 289.09 44.7949C286.98 44.7559 285.193 44.0332 283.729 42.627C282.264 41.2207 281.043 39.6582 280.066 37.9395C279.871 37.5879 279.773 37.2363 279.773 36.8848C279.773 35.8496 280.291 35.166 281.326 34.834C282.166 34.5996 282.986 34.3262 283.787 34.0137C283.787 33.9941 283.797 33.9844 283.816 33.9844C283.836 33.9844 283.855 33.9844 283.875 33.9844C283.914 33.9648 283.943 33.9551 283.963 33.9551C283.982 33.9355 284.002 33.916 284.021 33.8965H283.992L283.934 33.9551H283.875L283.846 33.9844L284.08 33.8672C284.451 33.7305 284.988 33.4668 285.691 33.0762C286.609 32.5879 287.508 32.0117 288.387 31.3477L288.445 31.3184H288.416C288.396 31.3379 288.377 31.3574 288.357 31.377C288.357 31.3965 288.348 31.4062 288.328 31.4062L288.299 31.4355L288.621 31.1719C289.539 30.4297 290.369 29.6094 291.111 28.7109L291.316 28.418V28.4473L291.609 28.0371C292.078 27.3145 292.439 26.6797 292.693 26.1328L292.752 26.0156C292.986 25.4883 293.172 24.9512 293.309 24.4043L293.338 24.2871C293.338 24.2285 293.357 24.1602 293.396 24.082V24.0527C293.377 24.0527 293.367 24.0918 293.367 24.1699V24.3164C293.367 24.3945 293.396 24.4922 293.455 24.6094V24.5801L293.367 24.4629C293.367 24.4824 293.387 24.5117 293.426 24.5508L293.484 24.6094C293.445 24.6094 293.416 24.5996 293.396 24.5801C293.396 24.541 293.396 24.5117 293.396 24.4922H293.338V24.4629C293.357 24.4629 293.367 24.4727 293.367 24.4922C293.367 24.4922 293.377 24.5117 293.396 24.5508C293.436 24.5703 293.465 24.5801 293.484 24.5801C293.465 24.5801 293.445 24.5801 293.426 24.5801C293.426 24.5605 293.416 24.5508 293.396 24.5508C293.377 24.5312 293.367 24.5117 293.367 24.4922H293.338C293.318 24.4727 293.299 24.4629 293.279 24.4629C293.279 24.4434 293.24 24.4238 293.162 24.4043L293.367 24.4629L293.016 24.3457H293.074C293.094 24.3652 293.143 24.375 293.221 24.375H292.928C293.025 24.375 293.104 24.3652 293.162 24.3457H293.309L293.133 24.375L293.367 24.2578L293.338 24.2871L293.104 24.4043L292.518 24.8145L292.664 24.6973C292.527 24.7949 292.459 24.8438 292.459 24.8438L292.342 24.9609C291.6 25.6445 290.906 26.3672 290.262 27.1289C289.695 27.6953 287.176 30.5273 282.703 35.625C280.77 37.7734 278.826 39.9023 276.873 42.0117L274.471 44.6484C274.1 45.0391 273.602 45.2344 272.977 45.2344Z" fill="#077DF9"/>
<path d="M307.064 45.0586C305.755 45.0586 304.437 44.7656 303.109 44.1797C301.781 43.5938 300.736 42.6172 299.974 41.25C299.408 40.0781 299.125 38.877 299.125 37.6465C299.125 35.8691 299.613 33.9453 300.589 31.875C301.839 29.2578 303.461 26.8945 305.453 24.7852C307.718 22.2852 310.189 20.9961 312.865 20.918C314.173 20.918 315.423 21.2402 316.615 21.8848C317.826 22.5293 318.734 23.4473 319.339 24.6387C319.711 25.498 319.896 26.3379 319.896 27.1582C319.896 29.1309 318.949 31.0059 317.054 32.7832C314.574 35.0293 311.683 36.1523 308.382 36.1523C306.41 36.1523 304.515 35.6934 302.699 34.7754C302.015 34.4043 301.673 33.7988 301.673 32.959C301.673 32.5879 301.761 32.2266 301.937 31.875C302.328 31.2109 302.933 30.8789 303.754 30.8789C304.105 30.8789 304.545 31.0059 305.072 31.2598L305.394 31.4062C305.375 31.4062 305.355 31.4062 305.336 31.4062C305.316 31.4062 305.287 31.3965 305.248 31.377C305.209 31.3574 305.189 31.3379 305.189 31.3184L305.423 31.4062C305.834 31.6016 306.312 31.7383 306.859 31.8164C306.976 31.875 307.132 31.9043 307.328 31.9043L307.123 31.875C307.22 31.9141 307.611 31.9336 308.295 31.9336C308.959 31.9336 309.408 31.9141 309.642 31.875C309.545 31.9141 309.476 31.9336 309.437 31.9336H309.408L309.613 31.875C309.652 31.875 309.681 31.8652 309.701 31.8457C310.638 31.6895 311.361 31.4844 311.869 31.2305L311.634 31.3184C311.966 31.2012 312.357 31.0059 312.806 30.7324C313.255 30.459 313.509 30.293 313.568 30.2344L313.714 30.1172L313.539 30.2637L313.656 30.1758C314.496 29.3359 314.916 28.916 314.916 28.916L315.004 28.7988L314.886 28.9746V28.916C314.964 28.7988 315.023 28.7207 315.062 28.6816C315.101 28.623 315.14 28.5547 315.179 28.4766C315.277 28.3398 315.355 28.2129 315.414 28.0957C315.492 27.959 315.531 27.8906 315.531 27.8906C315.531 27.8711 315.541 27.8516 315.56 27.832L315.502 27.9492L315.677 27.4219L315.707 27.2461V26.8652L315.736 26.8359L315.765 26.8652C315.765 26.8848 315.765 26.9043 315.765 26.9238C315.765 26.9434 315.775 26.9629 315.795 26.9824C315.795 27.0215 315.785 27.041 315.765 27.041C315.746 27.0215 315.726 26.9922 315.707 26.9531C315.707 26.9141 315.697 26.875 315.677 26.8359C315.677 26.7969 315.668 26.7578 315.648 26.7188C315.629 26.6797 315.619 26.6406 315.619 26.6016C315.619 26.5625 315.629 26.543 315.648 26.543L315.736 26.748L315.648 26.6602C315.57 26.5039 315.521 26.4258 315.502 26.4258C315.502 26.4062 315.492 26.377 315.472 26.3379C315.453 26.2988 315.414 26.2402 315.355 26.1621L315.502 26.3086L314.886 25.7227L315.091 25.8984L314.183 25.3418V25.3125L314.388 25.459L314.154 25.3418C313.724 25.2246 313.461 25.166 313.363 25.166C313.285 25.1465 313.246 25.127 313.246 25.1074L313.275 25.0781L313.48 25.166C313.402 25.127 313.304 25.1074 313.187 25.1074C313.07 25.1074 312.962 25.1172 312.865 25.1367H312.601C312.484 25.1367 312.425 25.1465 312.425 25.166C312.425 25.127 312.494 25.1074 312.63 25.1074C312.591 25.1465 312.464 25.1855 312.25 25.2246C312.035 25.2637 311.849 25.3125 311.693 25.3711C311.556 25.4297 311.429 25.4785 311.312 25.5176C310.746 25.8301 310.384 26.0352 310.228 26.1328L310.023 26.2793L309.935 26.3672C309.935 26.3477 309.955 26.3281 309.994 26.3086C310.033 26.2891 310.062 26.2695 310.082 26.25L308.968 27.2461C308.461 27.7344 307.884 28.3789 307.24 29.1797L307.093 29.3555H307.123C307.123 29.3164 307.152 29.2676 307.211 29.209L306.918 29.6191C306.078 30.7129 305.238 32.0508 304.398 33.6328L304.31 33.8965C304.232 34.0137 304.193 34.1016 304.193 34.1602L304.222 34.043C303.851 34.9414 303.587 35.8398 303.431 36.7383L303.402 36.9141L303.431 36.7676C303.392 37.0996 303.373 37.4316 303.373 37.7637V38.1445C303.373 38.3594 303.441 38.6719 303.578 39.082C303.578 39.0234 303.568 38.9746 303.548 38.9355L303.666 39.1992C303.724 39.3555 303.832 39.5117 303.988 39.668L303.841 39.5215C303.998 39.6973 304.164 39.8535 304.339 39.9902L304.457 40.1367C304.457 40.1172 304.447 40.1074 304.427 40.1074C304.427 40.0879 304.388 40.0488 304.31 39.9902L304.837 40.3418C304.916 40.3613 304.984 40.3906 305.043 40.4297C305.101 40.4688 305.14 40.498 305.16 40.5176C305.179 40.5176 305.189 40.5273 305.189 40.5469L305.13 40.4883C305.052 40.4688 305.013 40.4492 305.013 40.4297C305.56 40.6055 305.843 40.6934 305.863 40.6934C305.902 40.6934 305.961 40.7031 306.039 40.7227C306.117 40.7422 306.175 40.7617 306.214 40.7812C306.254 40.7812 306.283 40.7812 306.302 40.7812H306.185C306.537 40.8203 306.898 40.8398 307.269 40.8398L308.324 40.752H308.265L308.851 40.6641C310.121 40.3711 311.283 40.0391 312.337 39.668L313.246 39.3164L313.597 39.1699C313.578 39.1895 313.548 39.1992 313.509 39.1992C313.49 39.1992 313.47 39.2188 313.451 39.2578C313.451 39.2383 313.509 39.209 313.627 39.1699C315.306 38.4277 317.074 37.1973 318.929 35.4785C320.785 33.7402 322.142 32.4414 323.002 31.582C323.431 31.1719 323.929 30.9668 324.496 30.9668C325.043 30.9863 325.521 31.1914 325.931 31.582C326.361 31.9727 326.576 32.4414 326.576 32.9883C326.576 33.0273 326.566 33.1934 326.546 33.4863C326.546 33.7793 326.351 34.1406 325.961 34.5703C321.937 39.2578 317.504 42.4121 312.66 44.0332C310.629 44.7168 308.763 45.0586 307.064 45.0586Z" fill="#077DF9"/>
<path d="M328.495 45.2051C326.777 45.2051 325.253 44.668 323.925 43.5938C322.265 42.0898 321.435 40.1172 321.435 37.6758C321.435 35.7617 322.05 33.6621 323.28 31.377C324.511 28.916 326.21 26.8359 328.378 25.1367C330.487 23.5352 332.89 22.7344 335.585 22.7344C338.456 22.7734 340.761 23.7793 342.499 25.752C342.909 26.2402 343.114 26.7383 343.114 27.2461C343.114 27.7344 342.909 28.2324 342.499 28.7402C342.109 29.1309 341.581 29.3262 340.917 29.3262C340.351 29.3262 339.882 29.1309 339.511 28.7402C339.433 28.623 339.208 28.3887 338.837 28.0371L338.72 27.9492L338.896 28.0957L338.632 27.8906C338.456 27.7734 338.271 27.666 338.075 27.5684C338.036 27.5488 337.987 27.5293 337.929 27.5098C337.89 27.4707 337.851 27.4512 337.812 27.4512C337.773 27.4316 337.743 27.4219 337.724 27.4219C337.704 27.4023 337.695 27.3828 337.695 27.3633L337.87 27.4219C337.362 27.2461 336.845 27.1094 336.318 27.0117L336.259 26.9531H336.142C336.142 26.9336 336.152 26.9238 336.171 26.9238L336.376 27.0117C336.259 26.9727 335.907 26.9531 335.321 26.9531L334.296 26.9824C334.316 26.9629 334.345 26.9531 334.384 26.9531L334.501 26.9824H334.384L334.179 27.041C333.691 27.1387 333.212 27.2754 332.743 27.4512H332.655L332.773 27.3926H332.802L332.626 27.4805C332.294 27.6367 331.952 27.8223 331.601 28.0371C331.073 28.3691 330.751 28.584 330.634 28.6816L330.81 28.5645H330.78L330.663 28.6816C329.823 29.3848 329.169 30.0488 328.7 30.6738L328.525 30.8789L328.554 30.8496C328.554 30.8301 328.564 30.8203 328.583 30.8203C328.603 30.8008 328.622 30.7812 328.642 30.7617V30.7324L328.583 30.8203C327.939 31.7383 327.353 32.6953 326.825 33.6914C326.513 34.2773 326.347 34.6094 326.327 34.6875V34.7754L326.298 34.8047L326.357 34.7168V34.6582C326.064 35.4395 325.849 36.1719 325.712 36.8555L325.683 37.002L325.654 37.0312V36.9727L325.683 36.9434C325.683 37.0801 325.673 37.1875 325.654 37.2656C325.654 37.7539 325.663 38.125 325.683 38.3789V38.2617C325.683 38.3594 325.702 38.457 325.741 38.5547C325.741 38.7109 325.829 39.0332 326.005 39.5215V39.4629L326.269 39.9023C326.308 40.0195 326.366 40.1172 326.445 40.1953C326.366 40.0977 326.327 40.0293 326.327 39.9902L326.357 40.0488L326.562 40.2832C326.659 40.3809 326.737 40.459 326.796 40.5176C326.874 40.5566 326.923 40.5762 326.943 40.5762L326.913 40.5469C326.874 40.5469 326.816 40.5176 326.737 40.459L326.855 40.5469L327.382 40.8105L327.265 40.7812V40.752H327.323C327.441 40.8105 327.509 40.8496 327.529 40.8691C327.548 40.8691 327.675 40.8887 327.909 40.9277C327.929 40.9473 327.958 40.957 327.997 40.957L327.821 40.9277H327.997C328.075 40.9668 328.241 40.9863 328.495 40.9863C328.788 40.9863 329.081 40.9668 329.374 40.9277C329.296 40.9277 329.247 40.9375 329.228 40.957L329.286 40.9277L329.609 40.8691C330.292 40.7324 330.966 40.5371 331.63 40.2832L331.835 40.1953C331.835 40.2148 331.806 40.2344 331.747 40.2539C331.708 40.2539 331.679 40.2637 331.659 40.2832C331.796 40.2051 331.943 40.1367 332.099 40.0781C332.353 39.9609 332.607 39.8242 332.861 39.668C333.661 39.2383 334.413 38.75 335.116 38.2031L335.029 38.2617L335.468 37.9102C337.675 36.0938 340.351 33.4082 343.495 29.8535C345.507 27.5684 347.06 25.7031 348.154 24.2578L348.359 24.0234V23.9941L348.446 23.9062L348.388 23.9941C349.989 21.9434 351.503 19.8242 352.929 17.6367C354.159 15.7617 355.087 14.1504 355.712 12.8027L356.152 11.8359L356.181 11.7773L356.152 11.8066L356.122 11.9238L356.298 11.4551C356.864 9.99023 357.284 8.48633 357.558 6.94336L357.587 6.70898V6.82617L357.558 6.91406C357.616 6.50391 357.646 6.06445 357.646 5.5957C357.646 5.69336 357.665 5.75195 357.704 5.77148H357.734C357.734 5.75195 357.724 5.74219 357.704 5.74219C357.704 5.72266 357.685 5.68359 357.646 5.625L357.763 5.80078V5.77148C357.743 5.77148 357.734 5.77148 357.734 5.77148C357.734 5.75195 357.704 5.71289 357.646 5.6543L357.704 5.71289C357.821 5.92773 357.968 6.03516 358.144 6.03516H358.027C357.929 5.99609 357.861 5.97656 357.821 5.97656C357.958 5.99609 358.036 6.01562 358.056 6.03516C358.036 6.01562 357.997 6.00586 357.939 6.00586C357.9 6.00586 357.861 5.99609 357.821 5.97656C357.724 5.99609 357.558 6.00586 357.323 6.00586L357.206 6.03516L357.441 6.00586L357.089 6.06445C356.679 6.14258 356.269 6.25977 355.859 6.41602L355.8 6.44531C355.253 6.64062 354.609 7.02148 353.866 7.58789L352.87 8.4668C352.226 9.11133 351.757 9.62891 351.464 10.0195V10.0488L351.259 10.2832L350.937 10.7227C350.058 11.9141 349.14 13.4473 348.183 15.3223C347.636 16.3965 347.226 17.2656 346.952 17.9297L346.894 18.0762C346.835 18.1934 346.786 18.3203 346.747 18.457C345.81 20.8008 345.087 23.2031 344.579 25.6641C344.306 26.9727 344.15 27.9102 344.111 28.4766L344.081 28.5352C344.081 28.6914 344.062 28.8672 344.023 29.0625C343.886 30.3125 343.808 31.5723 343.788 32.8418C343.788 33.623 343.798 34.209 343.818 34.5996L343.876 35.4492V35.2734L343.905 35.3027C343.905 35.5762 343.925 35.7324 343.964 35.7715C344.023 36.123 344.111 36.4746 344.228 36.8262C344.306 36.9824 344.345 37.0898 344.345 37.1484H344.316L344.257 36.9727L344.286 37.0312C344.286 37.0703 344.482 37.4121 344.872 38.0566L344.784 37.9102C344.784 37.9492 344.804 37.9883 344.843 38.0273C344.902 38.0664 344.931 38.0957 344.931 38.1152C345.263 38.4473 345.458 38.6133 345.517 38.6133L345.4 38.5547L345.868 38.8184L346.161 38.9648L346.015 38.877C346.073 38.9355 346.132 38.9648 346.191 38.9648C346.523 39.1016 346.786 39.1699 346.982 39.1699L347.245 39.2285L347.011 39.1992C347.03 39.2188 347.06 39.2285 347.099 39.2285C347.157 39.2285 347.236 39.2383 347.333 39.2578C348.095 39.2578 348.603 39.2383 348.857 39.1992L348.681 39.2285L348.739 39.1992H348.857C348.935 39.1602 349.023 39.1406 349.12 39.1406C349.706 39.0039 350.146 38.8672 350.439 38.7305L350.234 38.8184C351.21 38.3301 351.845 37.9395 352.138 37.6465C352.157 37.6465 352.196 37.6172 352.255 37.5586L352.372 37.4707C354.013 36.1426 355.82 34.3164 357.792 31.9922C358.183 31.582 358.652 31.377 359.198 31.377C359.237 31.377 359.404 31.3867 359.696 31.4062C360.009 31.4258 360.37 31.6309 360.78 32.0215C361.191 32.4121 361.396 32.8711 361.396 33.3984C361.396 33.4375 361.386 33.6035 361.366 33.8965C361.347 34.1699 361.152 34.5312 360.78 34.9805C360.097 35.7617 359.404 36.5332 358.7 37.2949C357.06 39.1504 355.204 40.7422 353.134 42.0703C351.493 43.0078 349.784 43.4766 348.007 43.4766C345.448 43.4766 343.427 42.6562 341.943 41.0156C340.341 39.2773 339.54 36.7578 339.54 33.457C339.54 32.0508 339.628 30.5859 339.804 29.0625C340.448 23.2031 342.157 17.666 344.931 12.4512C345.732 10.9277 346.679 9.42383 347.773 7.93945C350.234 4.54102 353.075 2.53906 356.298 1.93359C356.767 1.83594 357.236 1.78711 357.704 1.78711C358.036 1.78711 358.486 1.83594 359.052 1.93359C359.638 2.01172 360.243 2.35352 360.868 2.95898C361.474 3.66211 361.796 4.45312 361.835 5.33203C361.835 6.32812 361.767 7.20703 361.63 7.96875C361.142 10.7617 360.224 13.4082 358.876 15.9082C357.529 18.3887 356.015 20.7617 354.335 23.0273C350.722 28.0273 346.884 32.5977 342.821 36.7383C340.888 38.8477 338.769 40.7324 336.464 42.3926C333.847 44.2285 331.191 45.166 328.495 45.2051Z" fill="#077DF9"/>
</svg>
