<svg width="162" height="44" viewBox="0 0 162 44" fill="none" xmlns="http://www.w3.org/2000/svg">
<path fill-rule="evenodd" clip-rule="evenodd" d="M11.3581 5.73563C8.62487 8.5722 6.36886 10.9448 6.34448 11.0083C6.32024 11.0717 8.42205 12.7989 11.0153 14.8465C13.6085 16.8939 15.8642 18.6312 16.028 18.7072C16.2176 18.7948 16.4697 18.7907 16.7219 18.6955C16.9397 18.6133 19.2145 16.8776 21.7769 14.8387C24.3394 12.7996 26.4359 11.0736 26.4359 11.0031C26.4359 10.9326 24.5972 8.97124 22.3497 6.64444C20.1022 4.31763 17.8811 2.00097 17.4138 1.49604C16.9466 0.99126 16.511 0.578125 16.4458 0.578125C16.3807 0.578125 14.0912 2.89891 11.3581 5.73563ZM0.2344 9.26761C0.0284933 9.56164 0 10.3794 0 15.9951V22.3878H0.703782C1.36791 22.3878 1.56031 22.4947 4.11842 24.2835C5.60941 25.3263 7.11112 26.4054 7.45581 26.6818C7.80036 26.9583 8.1803 27.374 8.30029 27.6059C8.48094 27.9555 8.51854 28.9264 8.5203 33.2853L8.5225 38.5431L11.3893 40.8929C12.9662 42.1853 14.3839 43.3014 14.5399 43.3731C14.7364 43.4635 14.9376 43.4287 15.1957 43.2595L15.5678 43.0157V31.8797V20.7439L8.44202 14.8835C3.28202 10.6396 1.19931 9.0106 0.892506 8.978C0.585702 8.94539 0.404177 9.02528 0.2344 9.26761ZM24.801 14.5384C21.0556 17.6123 17.8093 20.323 17.5872 20.5622L17.1834 20.9972V31.8696V42.7421L17.553 43.1118C17.8171 43.3758 18.0107 43.4534 18.2312 43.3833C18.4012 43.3294 19.8178 42.2312 21.3796 40.9427L24.2193 38.6L24.2629 33.2844C24.3012 28.5938 24.336 27.9146 24.5581 27.5088C24.7255 27.2029 25.8562 26.3137 27.936 24.8522C29.6554 23.6439 31.22 22.5714 31.4128 22.4688C31.6087 22.3647 31.9813 22.3179 32.2573 22.3627L32.7512 22.4427V15.927C32.7512 10.1992 32.7233 9.3832 32.5205 9.18023C32.3934 9.05334 32.137 8.9495 31.9503 8.9495C31.7211 8.9495 29.402 10.7624 24.801 14.5384Z" fill="#077DF9"/>
<path d="M49.8063 0.74292C52.3282 0.74292 54.1804 1.32555 55.3631 2.49082C56.5631 3.63869 57.1632 5.43007 57.1632 7.86495C57.1632 10.1955 56.5197 11.9173 55.2326 13.0304C53.963 14.1261 51.9716 14.6739 49.2585 14.6739H46.7019V19.8393H40.8582V0.74292H49.8063ZM48.815 10.1346C49.6846 10.1346 50.3281 9.95199 50.7455 9.58676C51.1629 9.22152 51.3716 8.64759 51.3716 7.86495C51.3716 7.03013 51.1629 6.41271 50.7455 6.0127C50.3281 5.61268 49.6846 5.41267 48.815 5.41267H46.7019V10.1346H48.815Z" fill="white"/>
<path d="M73.7341 15.1696V19.8393H58.7857V0.74292H64.6555V15.1696H73.7341Z" fill="white"/>
<path d="M89.4153 19.8393L88.1891 17.1262H81.1975L79.9714 19.8393H73.7103L82.1628 0.769009H87.2239L95.6764 19.8393H89.4153ZM84.6933 7.86495L82.8672 12.6912H86.5456L84.6933 7.86495Z" fill="white"/>
<path d="M102.224 19.8393H96.4067V0.74292H102.224V19.8393Z" fill="white"/>
<path d="M118.406 19.8393L111.362 10.4737V19.8393H105.544V0.74292H110.918L117.988 10.2129V0.74292H123.806V19.8393H118.406Z" fill="white"/>
<path d="M49.8063 23.8476C52.3282 23.8476 54.1804 24.4302 55.3631 25.5955C56.5631 26.7434 57.1632 28.5347 57.1632 30.9696C57.1632 33.3001 56.5197 35.022 55.2326 36.135C53.963 37.2307 51.9716 37.7786 49.2585 37.7786H46.7019V42.944H40.8582V23.8476H49.8063ZM48.815 33.2393C49.6846 33.2393 50.3281 33.0567 50.7455 32.6914C51.1629 32.3262 51.3716 31.7523 51.3716 30.9696C51.3716 30.1348 51.1629 29.5174 50.7455 29.1174C50.3281 28.7174 49.6846 28.5173 48.815 28.5173H46.7019V33.2393H48.815Z" fill="white"/>
<path d="M69.5861 42.944L66.5078 37.1786H64.7338V42.944H58.9161V23.8476H67.9948C70.3601 23.8476 72.1515 24.4389 73.3689 25.6216C74.5863 26.7868 75.1951 28.5087 75.1951 30.787C75.1951 33.7958 74.1515 35.6307 72.0645 36.2916L75.8994 42.944H69.5861ZM67.2382 32.6393C67.9513 32.6393 68.4904 32.474 68.8557 32.1436C69.2383 31.8131 69.4296 31.3262 69.4296 30.6827C69.4296 29.2391 68.6992 28.5173 67.2382 28.5173H64.7338V32.6393H67.2382Z" fill="white"/>
<path d="M87.2047 43.2571C83.8481 43.2571 81.3001 42.4223 79.5609 40.7526C77.8391 39.083 76.9782 36.6307 76.9782 33.3958C76.9782 30.1609 77.8391 27.7086 79.5609 26.039C81.3001 24.3694 83.8481 23.5345 87.2047 23.5345C90.5614 23.5345 93.1006 24.3694 94.8224 26.039C96.5442 27.7086 97.4051 30.1609 97.4051 33.3958C97.4051 36.6307 96.5442 39.083 94.8224 40.7526C93.1006 42.4223 90.5614 43.2571 87.2047 43.2571ZM87.2047 28.413C85.7612 28.413 84.6655 28.8391 83.9176 29.6913C83.1872 30.5261 82.8219 31.761 82.8219 33.3958C82.8219 35.0307 83.1872 36.2655 83.9176 37.1003C84.6655 37.9351 85.7612 38.3525 87.2047 38.3525C88.6309 38.3525 89.7092 37.9351 90.4396 37.1003C91.1875 36.2655 91.5614 35.0307 91.5614 33.3958C91.5614 31.761 91.1962 30.5261 90.4657 29.6913C89.7353 28.8391 88.6483 28.413 87.2047 28.413Z" fill="white"/>
<path d="M103.631 33.5002L99.8741 28.6478L97.9175 26.1694C97.361 25.4737 96.7609 24.6998 96.1174 23.8476H103.135L107.022 29.3783L108.327 27.4738L109.37 25.9607L110.831 23.8476H117.823L110.361 33.5002L111.614 35.0654L115.136 39.5265L117.797 42.944H110.727L106.996 37.6482L106.553 38.2743L105.874 39.2134L104.831 40.7005L103.239 42.944H96.274L103.631 33.5002Z" fill="white"/>
<path d="M124.638 42.944H118.82V23.8476H124.638V42.944Z" fill="white"/>
<path d="M134.105 28.5173V31.0479H142.427V35.7176H134.105V38.2743H143.497V42.944H128.287V23.8476H143.497V28.5173H134.105Z" fill="white"/>
<path d="M147.521 36.709C148.339 37.196 149.365 37.6047 150.6 37.9351C151.834 38.2482 153 38.4047 154.095 38.4047C154.861 38.4047 155.391 38.3351 155.687 38.196C156 38.0395 156.156 37.7264 156.156 37.2568C156.156 36.8742 156.017 36.622 155.739 36.5003C155.478 36.3611 154.974 36.2307 154.226 36.109L153.313 35.9524C151.487 35.6046 150.017 35.1785 148.904 34.6741C147.791 34.1698 146.973 33.5436 146.452 32.7958C145.93 32.0305 145.669 31.1088 145.669 30.0305C145.669 27.8043 146.278 26.1781 147.495 25.152C148.73 24.1085 150.73 23.5867 153.495 23.5867C155.008 23.5867 156.452 23.7867 157.826 24.1867C159.2 24.5868 160.417 25.1172 161.478 25.7781L159.183 29.8739C158.417 29.4565 157.487 29.1174 156.391 28.8565C155.313 28.5956 154.304 28.4652 153.365 28.4652C152.704 28.4652 152.226 28.5434 151.93 28.7C151.652 28.8565 151.513 29.1261 151.513 29.5087C151.513 29.8044 151.591 30.0305 151.747 30.187C151.904 30.3435 152.121 30.4566 152.4 30.5261C152.678 30.5957 153.174 30.6914 153.887 30.8131C155.852 31.1088 157.417 31.5001 158.583 31.9871C159.765 32.4566 160.626 33.0741 161.165 33.8393C161.722 34.5872 162 35.535 162 36.6829C162 38.9613 161.391 40.6309 160.174 41.6918C158.956 42.7353 156.965 43.2571 154.2 43.2571C152.513 43.2571 150.904 43.0571 149.373 42.6571C147.843 42.2396 146.53 41.6309 145.434 40.8309L147.521 36.709Z" fill="white"/>
</svg>
