<svg width="1920" height="826" viewBox="0 0 1920 826" fill="none" xmlns="http://www.w3.org/2000/svg">
<mask id="mask0_20_394" style="mask-type:alpha" maskUnits="userSpaceOnUse" x="0" y="0" width="1920" height="826">
<rect width="1920" height="826" fill="#002B7C"/>
</mask>
<g mask="url(#mask0_20_394)">
<path opacity="0.25" d="M18.7868 580.389C44.7868 601.657 68.1617 620.021 70.7334 621.201C73.9734 622.689 77.2909 622.117 81.5455 619.332L18.7868 580.389ZM18.7868 580.389L-28.4814 541.722M18.7868 580.389L85.1816 615.321V613.968M-28.4814 541.722L-25.9814 541.721L-25.9819 540.537M-28.4814 541.722L-26.8984 539.787L-25.9819 540.537M-28.4814 541.722L-28.5176 455.203C-28.5467 383.478 -29.1667 367.501 -32.1451 361.749C-34.1235 357.933 -40.388 351.091 -46.0689 346.543L85.1816 250.015M-25.9819 540.537L20.3698 578.454C33.36 589.08 45.6906 598.977 55.0902 606.362C59.7914 610.056 63.7504 613.113 66.6882 615.317C68.1587 616.42 69.3603 617.299 70.265 617.934C70.7181 618.252 71.0828 618.498 71.3616 618.677C71.6695 618.875 71.7859 618.933 71.7755 618.928L71.7772 618.929C73.9306 619.918 76.3071 619.773 80.1766 617.241L80.1774 617.24L85.1816 613.968M-25.9819 540.537L-26.0176 455.202C-26.0322 419.351 -26.1941 397.375 -26.7272 383.639C-26.9937 376.775 -27.355 371.898 -27.8498 368.346C-28.3418 364.814 -28.9878 362.409 -29.9251 360.599L-29.9257 360.598C-31.0712 358.389 -33.315 355.528 -35.8748 352.732C-38.4725 349.895 -41.5519 346.957 -44.5064 344.591L-44.5068 344.591C-50.2689 339.98 -75.1078 322.168 -99.6647 305.028L-101.096 307.078L-99.6649 305.028C-120.699 290.348 -132.168 282.453 -139.745 278.255C-143.569 276.136 -146.521 274.889 -149.304 274.192C-152.099 273.493 -154.593 273.383 -157.396 273.383H-166.5V170.69C-166.5 124.469 -166.382 98.0536 -165.842 82.5874C-165.572 74.8431 -165.198 69.9433 -164.7 66.7117C-164.202 63.4771 -163.614 62.1726 -163.089 61.424C-161.856 59.6671 -160.733 58.7161 -159.552 58.1971C-158.361 57.6741 -156.832 57.4674 -154.564 57.7062C-154.566 57.7061 -154.567 57.7061 -154.567 57.7062C-154.567 57.7084 -154.399 57.7439 -153.997 57.9214C-153.561 58.1141 -152.977 58.4154 -152.226 58.8503C-150.727 59.7192 -148.704 61.0369 -146.098 62.8601C-140.893 66.5014 -133.509 72.0524 -123.592 79.7942C-103.766 95.2714 -73.9329 119.414 -31.3945 154.33L-29.8084 152.398L-31.3945 154.331L85.1816 250.015M85.1816 613.968V432.075V250.015M85.1816 613.968V250.015M130.808 618.997C129.528 619.396 128.425 619.365 127.201 618.876C125.862 618.341 124.259 617.207 122.179 615.132L116.818 609.781V431.909V253.984L122.808 247.546L122.808 247.546C123.595 246.7 127.466 243.304 134.042 237.712C140.531 232.194 149.487 224.674 160.264 215.693C181.815 197.733 210.629 173.94 241.502 148.653C279.429 117.589 307.935 94.6126 327.425 79.4068C337.174 71.8009 344.643 66.1576 349.899 62.4229C352.531 60.5521 354.571 59.1864 356.047 58.2976C356.788 57.8511 357.342 57.5522 357.73 57.373C357.855 57.3154 357.944 57.2788 358.003 57.2565C359.105 57.2933 360.517 57.6164 361.928 58.1863C363.435 58.795 364.694 59.5854 365.431 60.3202C365.673 60.5629 366.234 61.3396 366.733 64.4472C367.219 67.4821 367.587 72.2844 367.853 80.0529C368.385 95.5558 368.5 122.425 368.5 169.569V273.85L363.256 273.002C360.701 272.588 357.783 272.606 355.088 272.944C352.424 273.278 349.748 273.954 347.761 275.008L348.933 277.217L347.761 275.008C346.828 275.503 344.493 277.011 341.236 279.179C337.915 281.39 333.496 284.382 328.297 287.939C317.897 295.054 304.353 304.443 290.172 314.389C273.013 326.422 259.737 336.123 250.393 343.457C245.723 347.123 242.006 350.22 239.266 352.738C236.609 355.18 234.632 357.287 233.721 358.949C231.583 362.848 230.525 367.85 229.846 381.102C229.163 394.444 228.861 416.597 228.546 455.168L227.836 541.472L181.917 579.279C169.057 589.867 156.8 599.67 147.416 606.93C142.721 610.562 138.76 613.547 135.807 615.673C134.328 616.738 133.123 617.573 132.215 618.161C131.76 618.456 131.401 618.675 131.133 618.826C130.975 618.915 130.881 618.961 130.837 618.983C130.819 618.991 130.809 618.996 130.808 618.997ZM130.808 618.997C130.819 618.993 130.83 618.99 130.841 618.986C130.817 618.994 130.806 618.998 130.808 618.997ZM-56.9057 92.3101C-58.7292 90.7336 -60.1298 89.4857 -61.0796 88.5919C-60.9678 88.468 -60.849 88.3368 -60.7232 88.1984C-59.5924 86.9539 -57.9406 85.1717 -55.8191 82.9061C-51.5786 78.3776 -45.4888 71.9469 -37.9992 64.0859C-23.0215 48.3654 -2.46004 26.9399 20.0696 3.60437L18.271 1.86794L20.0696 3.60432C42.5972 -19.7303 63.2935 -40.9399 78.4892 -56.3132C86.0883 -64.0011 92.3052 -70.2227 96.6854 -74.5188C98.8779 -76.6691 100.597 -78.3241 101.794 -79.4358C101.997 -79.6236 102.181 -79.7934 102.349 -79.9456C102.38 -79.9201 102.413 -79.894 102.446 -79.8671C103.32 -79.1577 104.507 -78.0974 105.934 -76.7469C108.778 -74.0547 112.461 -70.3189 116.285 -66.1956L118.118 -67.8955L116.285 -66.1956C124.013 -57.8624 160.656 -19.7177 197.704 18.5612C216.226 37.6991 233.061 55.3306 245.261 68.319C251.363 74.8148 256.298 80.1407 259.703 83.91C261.408 85.7975 262.715 87.2781 263.589 88.3136C263.602 88.3296 263.616 88.3455 263.629 88.3612C263.621 88.368 263.614 88.3749 263.607 88.3818C262.614 89.3019 261.128 90.6129 259.184 92.282C255.304 95.6144 249.679 100.308 242.722 106.024C228.813 117.453 209.62 132.932 188.502 149.703C167.387 166.471 147.462 181.988 132.372 193.479C124.825 199.226 118.498 203.957 113.84 207.333C111.509 209.022 109.611 210.36 108.195 211.312C107.485 211.789 106.914 212.157 106.48 212.42C106.065 212.671 105.872 212.765 105.835 212.784C105.828 212.787 105.826 212.788 105.828 212.787C102.109 214.188 98.6747 214.135 96.3182 213.049C96.3264 213.052 96.3221 213.05 96.3029 213.038C96.2494 213.007 96.0803 212.906 95.7476 212.685C95.3486 212.421 94.8145 212.05 94.145 211.574C92.8084 210.623 90.9843 209.285 88.7227 207.598C84.2022 204.226 77.9749 199.491 70.4886 193.737C55.5183 182.23 35.5392 166.667 14.1666 149.826C-7.20311 132.985 -26.5427 117.467 -40.485 106.033C-47.4585 100.314 -53.0695 95.6266 -56.9057 92.3101Z" stroke="#077DF9" stroke-width="5"/>
<path opacity="0.05" d="M591.787 580.389C617.787 601.657 641.162 620.021 643.733 621.201C646.973 622.689 650.291 622.117 654.545 619.332L591.787 580.389ZM591.787 580.389L544.519 541.722M591.787 580.389L658.182 615.321V613.968M544.519 541.722L547.019 541.721L547.018 540.537M544.519 541.722L546.102 539.787L547.018 540.537M544.519 541.722L544.482 455.203C544.453 383.478 543.833 367.501 540.855 361.749C538.876 357.933 532.612 351.091 526.931 346.543L658.182 250.015M547.018 540.537L593.37 578.454C606.36 589.08 618.691 598.977 628.09 606.362C632.791 610.056 636.75 613.113 639.688 615.317C641.159 616.42 642.36 617.299 643.265 617.934C643.718 618.252 644.083 618.498 644.362 618.677C644.669 618.875 644.786 618.933 644.776 618.928L644.777 618.929C646.931 619.918 649.307 619.773 653.177 617.241L653.177 617.24L658.182 613.968M547.018 540.537L546.982 455.202C546.968 419.351 546.806 397.375 546.273 383.639C546.006 376.775 545.645 371.898 545.15 368.346C544.658 364.814 544.012 362.409 543.075 360.599L543.074 360.598C541.929 358.389 539.685 355.528 537.125 352.732C534.528 349.895 531.448 346.957 528.494 344.591L528.493 344.591C522.731 339.98 497.892 322.168 473.335 305.028L471.904 307.078L473.335 305.028C452.301 290.348 440.832 282.453 433.255 278.255C429.431 276.136 426.479 274.889 423.696 274.192C420.901 273.493 418.407 273.383 415.604 273.383H406.5V170.69C406.5 124.469 406.618 98.0536 407.158 82.5874C407.428 74.8431 407.802 69.9433 408.3 66.7117C408.798 63.4771 409.386 62.1726 409.911 61.424C411.144 59.6671 412.267 58.7161 413.448 58.1971C414.639 57.6741 416.168 57.4674 418.436 57.7062C418.434 57.7061 418.433 57.7061 418.433 57.7062C418.433 57.7084 418.601 57.7439 419.003 57.9214C419.439 58.1141 420.023 58.4154 420.774 58.8503C422.273 59.7192 424.296 61.0369 426.902 62.8601C432.107 66.5014 439.491 72.0524 449.408 79.7942C469.234 95.2714 499.067 119.414 541.605 154.33L543.192 152.398L541.606 154.331L658.182 250.015M658.182 613.968V432.075V250.015M658.182 613.968V250.015M703.808 618.997C702.528 619.396 701.425 619.365 700.201 618.876C698.862 618.341 697.259 617.207 695.179 615.132L689.818 609.781V431.909V253.984L695.808 247.546L695.808 247.546C696.595 246.7 700.466 243.304 707.042 237.712C713.531 232.194 722.487 224.674 733.264 215.693C754.815 197.733 783.629 173.94 814.502 148.653C852.429 117.589 880.935 94.6126 900.425 79.4068C910.174 71.8009 917.643 66.1576 922.899 62.4229C925.531 60.5521 927.571 59.1864 929.047 58.2976C929.788 57.8511 930.342 57.5522 930.73 57.373C930.855 57.3154 930.944 57.2788 931.003 57.2565C932.105 57.2933 933.517 57.6164 934.928 58.1863C936.435 58.795 937.694 59.5854 938.431 60.3202C938.673 60.5629 939.234 61.3396 939.733 64.4472C940.219 67.4821 940.587 72.2844 940.853 80.0529C941.385 95.5558 941.5 122.425 941.5 169.569V273.85L936.256 273.002C933.701 272.588 930.783 272.606 928.088 272.944C925.424 273.278 922.748 273.954 920.761 275.008L921.933 277.217L920.761 275.008C919.828 275.503 917.493 277.011 914.236 279.179C910.915 281.39 906.496 284.382 901.297 287.939C890.897 295.054 877.353 304.443 863.172 314.389C846.013 326.422 832.737 336.123 823.393 343.457C818.723 347.123 815.006 350.22 812.266 352.738C809.609 355.18 807.632 357.287 806.721 358.949C804.583 362.848 803.525 367.85 802.846 381.102C802.163 394.444 801.861 416.597 801.546 455.168L800.836 541.472L754.917 579.279C742.057 589.867 729.8 599.67 720.416 606.93C715.721 610.562 711.76 613.547 708.807 615.673C707.328 616.738 706.123 617.573 705.215 618.161C704.76 618.456 704.401 618.675 704.133 618.826C703.975 618.915 703.881 618.961 703.837 618.983C703.819 618.991 703.809 618.996 703.808 618.997ZM703.808 618.997C703.819 618.993 703.83 618.99 703.841 618.986C703.817 618.994 703.806 618.998 703.808 618.997ZM516.094 92.3101C514.271 90.7336 512.87 89.4857 511.92 88.5919C512.032 88.468 512.151 88.3368 512.277 88.1984C513.408 86.9539 515.059 85.1717 517.181 82.9061C521.421 78.3776 527.511 71.9469 535.001 64.0859C549.979 48.3654 570.54 26.9399 593.07 3.60437L591.271 1.86794L593.07 3.60432C615.597 -19.7303 636.294 -40.9399 651.489 -56.3132C659.088 -64.0011 665.305 -70.2227 669.685 -74.5188C671.878 -76.6691 673.597 -78.3241 674.794 -79.4358C674.997 -79.6236 675.181 -79.7934 675.349 -79.9456C675.38 -79.9201 675.413 -79.894 675.446 -79.8671C676.32 -79.1577 677.507 -78.0974 678.934 -76.7469C681.778 -74.0547 685.461 -70.3189 689.285 -66.1956L691.118 -67.8955L689.285 -66.1956C697.013 -57.8624 733.656 -19.7177 770.704 18.5612C789.226 37.6991 806.061 55.3306 818.261 68.319C824.363 74.8148 829.298 80.1407 832.703 83.91C834.408 85.7975 835.715 87.2781 836.589 88.3136C836.602 88.3296 836.616 88.3455 836.629 88.3612C836.621 88.368 836.614 88.3749 836.607 88.3818C835.614 89.3019 834.128 90.6129 832.184 92.282C828.304 95.6144 822.679 100.308 815.722 106.024C801.813 117.453 782.62 132.932 761.502 149.703C740.387 166.471 720.462 181.988 705.372 193.479C697.825 199.226 691.498 203.957 686.84 207.333C684.509 209.022 682.611 210.36 681.195 211.312C680.485 211.789 679.914 212.157 679.48 212.42C679.065 212.671 678.872 212.765 678.835 212.784C678.828 212.787 678.826 212.788 678.828 212.787C675.109 214.188 671.675 214.135 669.318 213.049C669.326 213.052 669.322 213.05 669.303 213.038C669.249 213.007 669.08 212.906 668.748 212.685C668.349 212.421 667.814 212.05 667.145 211.574C665.808 210.623 663.984 209.285 661.723 207.598C657.202 204.226 650.975 199.491 643.489 193.737C628.518 182.23 608.539 166.667 587.167 149.826C565.797 132.985 546.457 117.467 532.515 106.033C525.541 100.314 519.931 95.6266 516.094 92.3101Z" stroke="#077DF9" stroke-width="5"/>
<path opacity="0.05" d="M1164.79 580.389C1190.79 601.657 1214.16 620.021 1216.73 621.201C1219.97 622.689 1223.29 622.117 1227.55 619.332L1164.79 580.389ZM1164.79 580.389L1117.52 541.722M1164.79 580.389L1231.18 615.321V613.968M1117.52 541.722L1120.02 541.721L1120.02 540.537M1117.52 541.722L1119.1 539.787L1120.02 540.537M1117.52 541.722L1117.48 455.203C1117.45 383.478 1116.83 367.501 1113.85 361.749C1111.88 357.933 1105.61 351.091 1099.93 346.543L1231.18 250.015M1120.02 540.537L1166.37 578.454C1179.36 589.08 1191.69 598.977 1201.09 606.362C1205.79 610.056 1209.75 613.113 1212.69 615.317C1214.16 616.42 1215.36 617.299 1216.26 617.934C1216.72 618.252 1217.08 618.498 1217.36 618.677C1217.67 618.875 1217.79 618.933 1217.78 618.928L1217.78 618.929C1219.93 619.918 1222.31 619.773 1226.18 617.241L1226.18 617.24L1231.18 613.968M1120.02 540.537L1119.98 455.202C1119.97 419.351 1119.81 397.375 1119.27 383.639C1119.01 376.775 1118.65 371.898 1118.15 368.346C1117.66 364.814 1117.01 362.409 1116.07 360.599L1116.07 360.598C1114.93 358.389 1112.68 355.528 1110.13 352.732C1107.53 349.895 1104.45 346.957 1101.49 344.591L1101.49 344.591C1095.73 339.98 1070.89 322.168 1046.34 305.028L1044.9 307.078L1046.34 305.028C1025.3 290.348 1013.83 282.453 1006.26 278.255C1002.43 276.136 999.479 274.889 996.696 274.192C993.901 273.493 991.407 273.383 988.604 273.383H979.5V170.69C979.5 124.469 979.618 98.0536 980.158 82.5874C980.428 74.8431 980.802 69.9433 981.3 66.7117C981.798 63.4771 982.386 62.1726 982.911 61.424C984.144 59.6671 985.267 58.7161 986.448 58.1971C987.639 57.6741 989.168 57.4674 991.436 57.7062C991.434 57.7061 991.433 57.7061 991.433 57.7062C991.433 57.7084 991.601 57.7439 992.003 57.9214C992.439 58.1141 993.023 58.4154 993.774 58.8503C995.273 59.7192 997.296 61.0369 999.902 62.8601C1005.11 66.5014 1012.49 72.0524 1022.41 79.7942C1042.23 95.2714 1072.07 119.414 1114.61 154.33L1116.19 152.398L1114.61 154.331L1231.18 250.015M1231.18 613.968V432.075V250.015M1231.18 613.968V250.015M1276.81 618.997C1275.53 619.396 1274.43 619.365 1273.2 618.876C1271.86 618.341 1270.26 617.207 1268.18 615.132L1262.82 609.781V431.909V253.984L1268.81 247.546L1268.81 247.546C1269.6 246.7 1273.47 243.304 1280.04 237.712C1286.53 232.194 1295.49 224.674 1306.26 215.693C1327.82 197.733 1356.63 173.94 1387.5 148.653C1425.43 117.589 1453.94 94.6126 1473.43 79.4068C1483.17 71.8009 1490.64 66.1576 1495.9 62.4229C1498.53 60.5521 1500.57 59.1864 1502.05 58.2976C1502.79 57.8511 1503.34 57.5522 1503.73 57.373C1503.85 57.3154 1503.94 57.2788 1504 57.2565C1505.11 57.2933 1506.52 57.6164 1507.93 58.1863C1509.43 58.795 1510.69 59.5854 1511.43 60.3202C1511.67 60.5629 1512.23 61.3396 1512.73 64.4472C1513.22 67.4821 1513.59 72.2844 1513.85 80.0529C1514.38 95.5558 1514.5 122.425 1514.5 169.569V273.85L1509.26 273.002C1506.7 272.588 1503.78 272.606 1501.09 272.944C1498.42 273.278 1495.75 273.954 1493.76 275.008L1494.93 277.217L1493.76 275.008C1492.83 275.503 1490.49 277.011 1487.24 279.179C1483.91 281.39 1479.5 284.382 1474.3 287.939C1463.9 295.054 1450.35 304.443 1436.17 314.389C1419.01 326.422 1405.74 336.123 1396.39 343.457C1391.72 347.123 1388.01 350.22 1385.27 352.738C1382.61 355.18 1380.63 357.287 1379.72 358.949C1377.58 362.848 1376.53 367.85 1375.85 381.102C1375.16 394.444 1374.86 416.597 1374.55 455.168L1373.84 541.472L1327.92 579.279C1315.06 589.867 1302.8 599.67 1293.42 606.93C1288.72 610.562 1284.76 613.547 1281.81 615.673C1280.33 616.738 1279.12 617.573 1278.21 618.161C1277.76 618.456 1277.4 618.675 1277.13 618.826C1276.98 618.915 1276.88 618.961 1276.84 618.983C1276.82 618.991 1276.81 618.996 1276.81 618.997ZM1276.81 618.997C1276.82 618.993 1276.83 618.99 1276.84 618.986C1276.82 618.994 1276.81 618.998 1276.81 618.997ZM1089.09 92.3101C1087.27 90.7336 1085.87 89.4857 1084.92 88.5919C1085.03 88.468 1085.15 88.3368 1085.28 88.1984C1086.41 86.9539 1088.06 85.1717 1090.18 82.9061C1094.42 78.3776 1100.51 71.9469 1108 64.0859C1122.98 48.3654 1143.54 26.9399 1166.07 3.60437L1164.27 1.86794L1166.07 3.60432C1188.6 -19.7303 1209.29 -40.9399 1224.49 -56.3132C1232.09 -64.0011 1238.31 -70.2227 1242.69 -74.5188C1244.88 -76.6691 1246.6 -78.3241 1247.79 -79.4358C1248 -79.6236 1248.18 -79.7934 1248.35 -79.9456C1248.38 -79.9201 1248.41 -79.894 1248.45 -79.8671C1249.32 -79.1577 1250.51 -78.0974 1251.93 -76.7469C1254.78 -74.0547 1258.46 -70.3189 1262.28 -66.1956L1264.12 -67.8955L1262.28 -66.1956C1270.01 -57.8624 1306.66 -19.7177 1343.7 18.5612C1362.23 37.6991 1379.06 55.3306 1391.26 68.319C1397.36 74.8148 1402.3 80.1407 1405.7 83.91C1407.41 85.7975 1408.71 87.2781 1409.59 88.3136C1409.6 88.3296 1409.62 88.3455 1409.63 88.3612C1409.62 88.368 1409.61 88.3749 1409.61 88.3818C1408.61 89.3019 1407.13 90.6129 1405.18 92.282C1401.3 95.6144 1395.68 100.308 1388.72 106.024C1374.81 117.453 1355.62 132.932 1334.5 149.703C1313.39 166.471 1293.46 181.988 1278.37 193.479C1270.83 199.226 1264.5 203.957 1259.84 207.333C1257.51 209.022 1255.61 210.36 1254.19 211.312C1253.49 211.789 1252.91 212.157 1252.48 212.42C1252.07 212.671 1251.87 212.765 1251.83 212.784C1251.83 212.787 1251.83 212.788 1251.83 212.787C1248.11 214.188 1244.67 214.135 1242.32 213.049C1242.33 213.052 1242.32 213.05 1242.3 213.038C1242.25 213.007 1242.08 212.906 1241.75 212.685C1241.35 212.421 1240.81 212.05 1240.14 211.574C1238.81 210.623 1236.98 209.285 1234.72 207.598C1230.2 204.226 1223.97 199.491 1216.49 193.737C1201.52 182.23 1181.54 166.667 1160.17 149.826C1138.8 132.985 1119.46 117.467 1105.52 106.033C1098.54 100.314 1092.93 95.6266 1089.09 92.3101Z" stroke="#077DF9" stroke-width="5"/>
<path opacity="0.25" d="M1737.79 580.389C1763.79 601.657 1787.16 620.021 1789.73 621.201C1792.97 622.689 1796.29 622.117 1800.55 619.332L1737.79 580.389ZM1737.79 580.389L1690.52 541.722M1737.79 580.389L1804.18 615.321V613.968M1690.52 541.722L1693.02 541.721L1693.02 540.537M1690.52 541.722L1692.1 539.787L1693.02 540.537M1690.52 541.722L1690.48 455.203C1690.45 383.478 1689.83 367.501 1686.85 361.749C1684.88 357.933 1678.61 351.091 1672.93 346.543L1804.18 250.015M1693.02 540.537L1739.37 578.454C1752.36 589.08 1764.69 598.977 1774.09 606.362C1778.79 610.056 1782.75 613.113 1785.69 615.317C1787.16 616.42 1788.36 617.299 1789.26 617.934C1789.72 618.252 1790.08 618.498 1790.36 618.677C1790.67 618.875 1790.79 618.933 1790.78 618.928L1790.78 618.929C1792.93 619.918 1795.31 619.773 1799.18 617.241L1799.18 617.24L1804.18 613.968M1693.02 540.537L1692.98 455.202C1692.97 419.351 1692.81 397.375 1692.27 383.639C1692.01 376.775 1691.65 371.898 1691.15 368.346C1690.66 364.814 1690.01 362.409 1689.07 360.599L1689.07 360.598C1687.93 358.389 1685.68 355.528 1683.13 352.732C1680.53 349.895 1677.45 346.957 1674.49 344.591L1674.49 344.591C1668.73 339.98 1643.89 322.168 1619.34 305.028L1617.9 307.078L1619.34 305.028C1598.3 290.348 1586.83 282.453 1579.26 278.255C1575.43 276.136 1572.48 274.889 1569.7 274.192C1566.9 273.493 1564.41 273.383 1561.6 273.383H1552.5V170.69C1552.5 124.469 1552.62 98.0536 1553.16 82.5874C1553.43 74.8431 1553.8 69.9433 1554.3 66.7117C1554.8 63.4771 1555.39 62.1726 1555.91 61.424C1557.14 59.6671 1558.27 58.7161 1559.45 58.1971C1560.64 57.6741 1562.17 57.4674 1564.44 57.7062C1564.43 57.7061 1564.43 57.7061 1564.43 57.7062C1564.43 57.7084 1564.6 57.7439 1565 57.9214C1565.44 58.1141 1566.02 58.4154 1566.77 58.8503C1568.27 59.7192 1570.3 61.0369 1572.9 62.8601C1578.11 66.5014 1585.49 72.0524 1595.41 79.7942C1615.23 95.2714 1645.07 119.414 1687.61 154.33L1689.19 152.398L1687.61 154.331L1804.18 250.015M1804.18 613.968V432.075V250.015M1804.18 613.968V250.015M1849.81 618.997C1848.53 619.396 1847.43 619.365 1846.2 618.876C1844.86 618.341 1843.26 617.207 1841.18 615.132L1835.82 609.781V431.909V253.984L1841.81 247.546L1841.81 247.546C1842.6 246.7 1846.47 243.304 1853.04 237.712C1859.53 232.194 1868.49 224.674 1879.26 215.693C1900.82 197.733 1929.63 173.94 1960.5 148.653C1998.43 117.589 2026.94 94.6126 2046.43 79.4068C2056.17 71.8009 2063.64 66.1576 2068.9 62.4229C2071.53 60.5521 2073.57 59.1864 2075.05 58.2976C2075.79 57.8511 2076.34 57.5522 2076.73 57.373C2076.85 57.3154 2076.94 57.2788 2077 57.2565C2078.11 57.2933 2079.52 57.6164 2080.93 58.1863C2082.43 58.795 2083.69 59.5854 2084.43 60.3202C2084.67 60.5629 2085.23 61.3396 2085.73 64.4472C2086.22 67.4821 2086.59 72.2844 2086.85 80.0529C2087.38 95.5558 2087.5 122.425 2087.5 169.569V273.85L2082.26 273.002C2079.7 272.588 2076.78 272.606 2074.09 272.944C2071.42 273.278 2068.75 273.954 2066.76 275.008L2067.93 277.217L2066.76 275.008C2065.83 275.503 2063.49 277.011 2060.24 279.179C2056.91 281.39 2052.5 284.382 2047.3 287.939C2036.9 295.054 2023.35 304.443 2009.17 314.389C1992.01 326.422 1978.74 336.123 1969.39 343.457C1964.72 347.123 1961.01 350.22 1958.27 352.738C1955.61 355.18 1953.63 357.287 1952.72 358.949C1950.58 362.848 1949.53 367.85 1948.85 381.102C1948.16 394.444 1947.86 416.597 1947.55 455.168L1946.84 541.472L1900.92 579.279C1888.06 589.867 1875.8 599.67 1866.42 606.93C1861.72 610.562 1857.76 613.547 1854.81 615.673C1853.33 616.738 1852.12 617.573 1851.21 618.161C1850.76 618.456 1850.4 618.675 1850.13 618.826C1849.98 618.915 1849.88 618.961 1849.84 618.983C1849.82 618.991 1849.81 618.996 1849.81 618.997ZM1849.81 618.997C1849.82 618.993 1849.83 618.99 1849.84 618.986C1849.82 618.994 1849.81 618.998 1849.81 618.997ZM1662.09 92.3101C1660.27 90.7336 1658.87 89.4857 1657.92 88.5919C1658.03 88.468 1658.15 88.3368 1658.28 88.1984C1659.41 86.9539 1661.06 85.1717 1663.18 82.9061C1667.42 78.3776 1673.51 71.9469 1681 64.0859C1695.98 48.3654 1716.54 26.9399 1739.07 3.60437L1737.27 1.86794L1739.07 3.60432C1761.6 -19.7303 1782.29 -40.9399 1797.49 -56.3132C1805.09 -64.0011 1811.31 -70.2227 1815.69 -74.5188C1817.88 -76.6691 1819.6 -78.3241 1820.79 -79.4358C1821 -79.6236 1821.18 -79.7934 1821.35 -79.9456C1821.38 -79.9201 1821.41 -79.894 1821.45 -79.8671C1822.32 -79.1577 1823.51 -78.0974 1824.93 -76.7469C1827.78 -74.0547 1831.46 -70.3189 1835.28 -66.1956L1837.12 -67.8955L1835.28 -66.1956C1843.01 -57.8624 1879.66 -19.7177 1916.7 18.5612C1935.23 37.6991 1952.06 55.3306 1964.26 68.319C1970.36 74.8148 1975.3 80.1407 1978.7 83.91C1980.41 85.7975 1981.71 87.2781 1982.59 88.3136C1982.6 88.3296 1982.62 88.3455 1982.63 88.3612C1982.62 88.368 1982.61 88.3749 1982.61 88.3818C1981.61 89.3019 1980.13 90.6129 1978.18 92.282C1974.3 95.6144 1968.68 100.308 1961.72 106.024C1947.81 117.453 1928.62 132.932 1907.5 149.703C1886.39 166.471 1866.46 181.988 1851.37 193.479C1843.83 199.226 1837.5 203.957 1832.84 207.333C1830.51 209.022 1828.61 210.36 1827.19 211.312C1826.49 211.789 1825.91 212.157 1825.48 212.42C1825.07 212.671 1824.87 212.765 1824.83 212.784C1824.83 212.787 1824.83 212.788 1824.83 212.787C1821.11 214.188 1817.67 214.135 1815.32 213.049C1815.33 213.052 1815.32 213.05 1815.3 213.038C1815.25 213.007 1815.08 212.906 1814.75 212.685C1814.35 212.421 1813.81 212.05 1813.14 211.574C1811.81 210.623 1809.98 209.285 1807.72 207.598C1803.2 204.226 1796.97 199.491 1789.49 193.737C1774.52 182.23 1754.54 166.667 1733.17 149.826C1711.8 132.985 1692.46 117.467 1678.52 106.033C1671.54 100.314 1665.93 95.6266 1662.09 92.3101Z" stroke="#077DF9" stroke-width="5"/>
<path opacity="0.25" d="M-263.213 355.611C-237.213 334.343 -213.838 315.979 -211.267 314.799C-208.027 313.311 -204.709 313.883 -200.455 316.668L-263.213 355.611ZM-263.213 355.611L-310.481 394.278M-263.213 355.611L-196.818 320.679V322.032M-310.481 394.278L-307.981 394.279L-307.982 395.463M-310.481 394.278L-308.898 396.213L-307.982 395.463M-310.481 394.278L-310.518 480.797C-310.547 552.522 -311.167 568.499 -314.145 574.251C-316.124 578.067 -322.388 584.909 -328.069 589.457L-196.818 685.985M-307.982 395.463L-261.63 357.546C-248.64 346.92 -236.309 337.023 -226.91 329.638C-222.209 325.944 -218.25 322.887 -215.312 320.683C-213.841 319.58 -212.64 318.701 -211.735 318.066C-211.282 317.748 -210.917 317.502 -210.638 317.323C-210.331 317.125 -210.214 317.067 -210.224 317.072L-210.223 317.071C-208.069 316.082 -205.693 316.227 -201.823 318.759L-201.823 318.76L-196.818 322.032M-307.982 395.463L-308.018 480.798C-308.032 516.649 -308.194 538.625 -308.727 552.361C-308.994 559.225 -309.355 564.102 -309.85 567.654C-310.342 571.186 -310.988 573.591 -311.925 575.401L-311.926 575.402C-313.071 577.611 -315.315 580.472 -317.875 583.268C-320.472 586.105 -323.552 589.043 -326.506 591.409L-326.507 591.409C-332.269 596.02 -357.108 613.832 -381.665 630.972L-383.096 628.922L-381.665 630.972C-402.699 645.652 -414.168 653.547 -421.745 657.745C-425.569 659.864 -428.521 661.111 -431.304 661.808C-434.099 662.507 -436.593 662.617 -439.396 662.617H-448.5V765.31C-448.5 811.531 -448.382 837.946 -447.842 853.413C-447.572 861.157 -447.198 866.057 -446.7 869.288C-446.202 872.523 -445.614 873.827 -445.089 874.576C-443.856 876.333 -442.733 877.284 -441.552 877.803C-440.361 878.326 -438.832 878.533 -436.564 878.294C-436.566 878.294 -436.567 878.294 -436.567 878.294C-436.567 878.292 -436.399 878.256 -435.997 878.079C-435.561 877.886 -434.977 877.585 -434.226 877.15C-432.727 876.281 -430.704 874.963 -428.098 873.14C-422.893 869.499 -415.509 863.948 -405.592 856.206C-385.766 840.729 -355.933 816.586 -313.395 781.67L-311.808 783.602L-313.394 781.669L-196.818 685.985M-196.818 322.032V503.925V685.985M-196.818 322.032V685.985M-151.192 317.003C-152.472 316.604 -153.575 316.635 -154.799 317.124C-156.138 317.659 -157.741 318.793 -159.821 320.868L-165.182 326.219V504.091V682.016L-159.192 688.454L-159.192 688.454C-158.405 689.3 -154.534 692.696 -147.958 698.288C-141.469 703.806 -132.513 711.326 -121.736 720.307C-100.185 738.267 -71.3706 762.06 -40.4979 787.347C-2.57053 818.411 25.9352 841.387 45.4251 856.593C55.1738 864.199 62.6434 869.842 67.8986 873.577C70.5311 875.448 72.5714 876.814 74.0467 877.702C74.7879 878.149 75.3417 878.448 75.7299 878.627C75.8548 878.685 75.9443 878.721 76.0029 878.743C77.1053 878.707 78.5172 878.384 79.9279 877.814C81.4346 877.205 82.6937 876.415 83.4308 875.68C83.6729 875.437 84.2343 874.66 84.7326 871.553C85.2194 868.518 85.5873 863.716 85.8535 855.947C86.3846 840.444 86.5 813.575 86.5 766.431V662.15L81.2563 662.998C78.701 663.412 75.7833 663.394 73.0884 663.056C70.4237 662.722 67.7483 662.046 65.7613 660.992L66.9327 658.783L65.761 660.992C64.8282 660.497 62.493 658.989 59.2356 656.821C55.9146 654.61 51.4963 651.618 46.2971 648.061C35.8974 640.946 22.353 631.557 8.17242 621.611C-8.98663 609.578 -22.2627 599.877 -31.6072 592.543C-36.277 588.877 -39.9945 585.78 -42.7341 583.262C-45.3912 580.82 -47.3677 578.713 -48.2792 577.051C-50.4167 573.152 -51.4747 568.15 -52.1536 554.898C-52.8371 541.556 -53.1385 519.403 -53.4544 480.832L-54.1639 394.528L-100.083 356.721C-112.943 346.133 -125.2 336.33 -134.584 329.07C-139.279 325.438 -143.24 322.453 -146.193 320.327C-147.672 319.262 -148.877 318.427 -149.785 317.839C-150.24 317.544 -150.599 317.325 -150.867 317.174C-151.025 317.085 -151.119 317.039 -151.163 317.017C-151.181 317.009 -151.191 317.004 -151.192 317.003ZM-151.192 317.003C-151.181 317.007 -151.17 317.01 -151.159 317.014C-151.183 317.006 -151.194 317.002 -151.192 317.003ZM-338.906 843.69C-340.729 845.266 -342.13 846.514 -343.08 847.408C-342.968 847.532 -342.849 847.663 -342.723 847.802C-341.592 849.046 -339.941 850.828 -337.819 853.094C-333.579 857.622 -327.489 864.053 -319.999 871.914C-305.021 887.635 -284.46 909.06 -261.93 932.396L-263.729 934.132L-261.93 932.396C-239.403 955.73 -218.706 976.94 -203.511 992.313C-195.912 1000 -189.695 1006.22 -185.315 1010.52C-183.122 1012.67 -181.403 1014.32 -180.206 1015.44C-180.003 1015.62 -179.819 1015.79 -179.651 1015.95C-179.62 1015.92 -179.587 1015.89 -179.554 1015.87C-178.68 1015.16 -177.493 1014.1 -176.066 1012.75C-173.222 1010.05 -169.539 1006.32 -165.715 1002.2L-163.882 1003.9L-165.715 1002.2C-157.987 993.862 -121.344 955.718 -84.2961 917.439C-65.7737 898.301 -48.9392 880.669 -36.7385 867.681C-30.6367 861.185 -25.7018 855.859 -22.2968 852.09C-20.5916 850.203 -19.2851 848.722 -18.4114 847.686C-18.3979 847.67 -18.3845 847.655 -18.3712 847.639C-18.3786 847.632 -18.386 847.625 -18.3934 847.618C-19.3856 846.698 -20.8721 845.387 -22.8156 843.718C-26.696 840.386 -32.3209 835.692 -39.2776 829.976C-53.1873 818.547 -72.3805 803.068 -93.4984 786.297C-114.613 769.529 -134.538 754.012 -149.628 742.521C-157.175 736.774 -163.502 732.043 -168.16 728.667C-170.491 726.978 -172.389 725.64 -173.805 724.688C-174.515 724.211 -175.086 723.843 -175.52 723.58C-175.935 723.329 -176.128 723.235 -176.165 723.216C-176.172 723.213 -176.174 723.212 -176.172 723.213C-179.891 721.812 -183.325 721.865 -185.682 722.951C-185.674 722.948 -185.678 722.95 -185.697 722.962C-185.751 722.993 -185.92 723.094 -186.252 723.315C-186.651 723.579 -187.186 723.95 -187.855 724.426C-189.192 725.377 -191.016 726.715 -193.277 728.402C-197.798 731.774 -204.025 736.509 -211.511 742.263C-226.482 753.77 -246.461 769.333 -267.833 786.174C-289.203 803.015 -308.543 818.533 -322.485 829.967C-329.459 835.686 -335.069 840.373 -338.906 843.69Z" stroke="#077DF9" stroke-width="5"/>
<path opacity="0.05" d="M309.787 355.611C335.787 334.343 359.162 315.979 361.733 314.799C364.973 313.311 368.291 313.883 372.545 316.668L309.787 355.611ZM309.787 355.611L262.519 394.278M309.787 355.611L376.182 320.679V322.032M262.519 394.278L265.019 394.279L265.018 395.463M262.519 394.278L264.102 396.213L265.018 395.463M262.519 394.278L262.482 480.797C262.453 552.522 261.833 568.499 258.855 574.251C256.876 578.067 250.612 584.909 244.931 589.457L376.182 685.985M265.018 395.463L311.37 357.546C324.36 346.92 336.691 337.023 346.09 329.638C350.791 325.944 354.75 322.887 357.688 320.683C359.159 319.58 360.36 318.701 361.265 318.066C361.718 317.748 362.083 317.502 362.362 317.323C362.669 317.125 362.786 317.067 362.776 317.072L362.777 317.071C364.931 316.082 367.307 316.227 371.177 318.759L371.177 318.76L376.182 322.032M265.018 395.463L264.982 480.798C264.968 516.649 264.806 538.625 264.273 552.361C264.006 559.225 263.645 564.102 263.15 567.654C262.658 571.186 262.012 573.591 261.075 575.401L261.074 575.402C259.929 577.611 257.685 580.472 255.125 583.268C252.528 586.105 249.448 589.043 246.494 591.409L246.493 591.409C240.731 596.02 215.892 613.832 191.335 630.972L189.904 628.922L191.335 630.972C170.301 645.652 158.832 653.547 151.255 657.745C147.431 659.864 144.479 661.111 141.696 661.808C138.901 662.507 136.407 662.617 133.604 662.617H124.5V765.31C124.5 811.531 124.618 837.946 125.158 853.413C125.428 861.157 125.802 866.057 126.3 869.288C126.798 872.523 127.386 873.827 127.911 874.576C129.144 876.333 130.267 877.284 131.448 877.803C132.639 878.326 134.168 878.533 136.436 878.294C136.434 878.294 136.433 878.294 136.433 878.294C136.433 878.292 136.601 878.256 137.003 878.079C137.439 877.886 138.023 877.585 138.774 877.15C140.273 876.281 142.296 874.963 144.902 873.14C150.107 869.499 157.491 863.948 167.408 856.206C187.234 840.729 217.067 816.586 259.605 781.67L261.192 783.602L259.606 781.669L376.182 685.985M376.182 322.032V503.925V685.985M376.182 322.032V685.985M421.808 317.003C420.528 316.604 419.425 316.635 418.201 317.124C416.862 317.659 415.259 318.793 413.179 320.868L407.818 326.219V504.091V682.016L413.808 688.454L413.808 688.454C414.595 689.3 418.466 692.696 425.042 698.288C431.531 703.806 440.487 711.326 451.264 720.307C472.815 738.267 501.629 762.06 532.502 787.347C570.429 818.411 598.935 841.387 618.425 856.593C628.174 864.199 635.643 869.842 640.899 873.577C643.531 875.448 645.571 876.814 647.047 877.702C647.788 878.149 648.342 878.448 648.73 878.627C648.855 878.685 648.944 878.721 649.003 878.743C650.105 878.707 651.517 878.384 652.928 877.814C654.435 877.205 655.694 876.415 656.431 875.68C656.673 875.437 657.234 874.66 657.733 871.553C658.219 868.518 658.587 863.716 658.853 855.947C659.385 840.444 659.5 813.575 659.5 766.431V662.15L654.256 662.998C651.701 663.412 648.783 663.394 646.088 663.056C643.424 662.722 640.748 662.046 638.761 660.992L639.933 658.783L638.761 660.992C637.828 660.497 635.493 658.989 632.236 656.821C628.915 654.61 624.496 651.618 619.297 648.061C608.897 640.946 595.353 631.557 581.172 621.611C564.013 609.578 550.737 599.877 541.393 592.543C536.723 588.877 533.006 585.78 530.266 583.262C527.609 580.82 525.632 578.713 524.721 577.051C522.583 573.152 521.525 568.15 520.846 554.898C520.163 541.556 519.861 519.403 519.546 480.832L518.836 394.528L472.917 356.721C460.057 346.133 447.8 336.33 438.416 329.07C433.721 325.438 429.76 322.453 426.807 320.327C425.328 319.262 424.123 318.427 423.215 317.839C422.76 317.544 422.401 317.325 422.133 317.174C421.975 317.085 421.881 317.039 421.837 317.017C421.819 317.009 421.809 317.004 421.808 317.003ZM421.808 317.003C421.819 317.007 421.83 317.01 421.841 317.014C421.817 317.006 421.806 317.002 421.808 317.003ZM234.094 843.69C232.271 845.266 230.87 846.514 229.92 847.408C230.032 847.532 230.151 847.663 230.277 847.802C231.408 849.046 233.059 850.828 235.181 853.094C239.421 857.622 245.511 864.053 253.001 871.914C267.979 887.635 288.54 909.06 311.07 932.396L309.271 934.132L311.07 932.396C333.597 955.73 354.294 976.94 369.489 992.313C377.088 1000 383.305 1006.22 387.685 1010.52C389.878 1012.67 391.597 1014.32 392.794 1015.44C392.997 1015.62 393.181 1015.79 393.349 1015.95C393.38 1015.92 393.413 1015.89 393.446 1015.87C394.32 1015.16 395.507 1014.1 396.934 1012.75C399.778 1010.05 403.461 1006.32 407.285 1002.2L409.118 1003.9L407.285 1002.2C415.013 993.862 451.656 955.718 488.704 917.439C507.226 898.301 524.061 880.669 536.261 867.681C542.363 861.185 547.298 855.859 550.703 852.09C552.408 850.203 553.715 848.722 554.589 847.686C554.602 847.67 554.616 847.655 554.629 847.639C554.621 847.632 554.614 847.625 554.607 847.618C553.614 846.698 552.128 845.387 550.184 843.718C546.304 840.386 540.679 835.692 533.722 829.976C519.813 818.547 500.62 803.068 479.502 786.297C458.387 769.529 438.462 754.012 423.372 742.521C415.825 736.774 409.498 732.043 404.84 728.667C402.509 726.978 400.611 725.64 399.195 724.688C398.485 724.211 397.914 723.843 397.48 723.58C397.065 723.329 396.872 723.235 396.835 723.216C396.828 723.213 396.826 723.212 396.828 723.213C393.109 721.812 389.675 721.865 387.318 722.951C387.326 722.948 387.322 722.95 387.303 722.962C387.249 722.993 387.08 723.094 386.748 723.315C386.349 723.579 385.814 723.95 385.145 724.426C383.808 725.377 381.984 726.715 379.723 728.402C375.202 731.774 368.975 736.509 361.489 742.263C346.518 753.77 326.539 769.333 305.167 786.174C283.797 803.015 264.457 818.533 250.515 829.967C243.541 835.686 237.931 840.373 234.094 843.69Z" stroke="#077DF9" stroke-width="5"/>
<path opacity="0.05" d="M882.787 355.611C908.787 334.343 932.162 315.979 934.733 314.799C937.973 313.311 941.291 313.883 945.545 316.668L882.787 355.611ZM882.787 355.611L835.519 394.278M882.787 355.611L949.182 320.679V322.032M835.519 394.278L838.019 394.279L838.018 395.463M835.519 394.278L837.102 396.213L838.018 395.463M835.519 394.278L835.482 480.797C835.453 552.522 834.833 568.499 831.855 574.251C829.876 578.067 823.612 584.909 817.931 589.457L949.182 685.985M838.018 395.463L884.37 357.546C897.36 346.92 909.691 337.023 919.09 329.638C923.791 325.944 927.75 322.887 930.688 320.683C932.159 319.58 933.36 318.701 934.265 318.066C934.718 317.748 935.083 317.502 935.362 317.323C935.669 317.125 935.786 317.067 935.776 317.072L935.777 317.071C937.931 316.082 940.307 316.227 944.177 318.759L944.177 318.76L949.182 322.032M838.018 395.463L837.982 480.798C837.968 516.649 837.806 538.625 837.273 552.361C837.006 559.225 836.645 564.102 836.15 567.654C835.658 571.186 835.012 573.591 834.075 575.401L834.074 575.402C832.929 577.611 830.685 580.472 828.125 583.268C825.528 586.105 822.448 589.043 819.494 591.409L819.493 591.409C813.731 596.02 788.892 613.832 764.335 630.972L762.904 628.922L764.335 630.972C743.301 645.652 731.832 653.547 724.255 657.745C720.431 659.864 717.479 661.111 714.696 661.808C711.901 662.507 709.407 662.617 706.604 662.617H697.5V765.31C697.5 811.531 697.618 837.946 698.158 853.413C698.428 861.157 698.802 866.057 699.3 869.288C699.798 872.523 700.386 873.827 700.911 874.576C702.144 876.333 703.267 877.284 704.448 877.803C705.639 878.326 707.168 878.533 709.436 878.294C709.434 878.294 709.433 878.294 709.433 878.294C709.433 878.292 709.601 878.256 710.003 878.079C710.439 877.886 711.023 877.585 711.774 877.15C713.273 876.281 715.296 874.963 717.902 873.14C723.107 869.499 730.491 863.948 740.408 856.206C760.234 840.729 790.067 816.586 832.605 781.67L834.192 783.602L832.606 781.669L949.182 685.985M949.182 322.032V503.925V685.985M949.182 322.032V685.985M994.808 317.003C993.528 316.604 992.425 316.635 991.201 317.124C989.862 317.659 988.259 318.793 986.179 320.868L980.818 326.219V504.091V682.016L986.808 688.454L986.808 688.454C987.595 689.3 991.466 692.696 998.042 698.288C1004.53 703.806 1013.49 711.326 1024.26 720.307C1045.82 738.267 1074.63 762.06 1105.5 787.347C1143.43 818.411 1171.94 841.387 1191.43 856.593C1201.17 864.199 1208.64 869.842 1213.9 873.577C1216.53 875.448 1218.57 876.814 1220.05 877.702C1220.79 878.149 1221.34 878.448 1221.73 878.627C1221.85 878.685 1221.94 878.721 1222 878.743C1223.11 878.707 1224.52 878.384 1225.93 877.814C1227.43 877.205 1228.69 876.415 1229.43 875.68C1229.67 875.437 1230.23 874.66 1230.73 871.553C1231.22 868.518 1231.59 863.716 1231.85 855.947C1232.38 840.444 1232.5 813.575 1232.5 766.431V662.15L1227.26 662.998C1224.7 663.412 1221.78 663.394 1219.09 663.056C1216.42 662.722 1213.75 662.046 1211.76 660.992L1212.93 658.783L1211.76 660.992C1210.83 660.497 1208.49 658.989 1205.24 656.821C1201.91 654.61 1197.5 651.618 1192.3 648.061C1181.9 640.946 1168.35 631.557 1154.17 621.611C1137.01 609.578 1123.74 599.877 1114.39 592.543C1109.72 588.877 1106.01 585.78 1103.27 583.262C1100.61 580.82 1098.63 578.713 1097.72 577.051C1095.58 573.152 1094.53 568.15 1093.85 554.898C1093.16 541.556 1092.86 519.403 1092.55 480.832L1091.84 394.528L1045.92 356.721C1033.06 346.133 1020.8 336.33 1011.42 329.07C1006.72 325.438 1002.76 322.453 999.807 320.327C998.328 319.262 997.123 318.427 996.215 317.839C995.76 317.544 995.401 317.325 995.133 317.174C994.975 317.085 994.881 317.039 994.837 317.017C994.819 317.009 994.809 317.004 994.808 317.003ZM994.808 317.003C994.819 317.007 994.83 317.01 994.841 317.014C994.817 317.006 994.806 317.002 994.808 317.003ZM807.094 843.69C805.271 845.266 803.87 846.514 802.92 847.408C803.032 847.532 803.151 847.663 803.277 847.802C804.408 849.046 806.059 850.828 808.181 853.094C812.421 857.622 818.511 864.053 826.001 871.914C840.979 887.635 861.54 909.06 884.07 932.396L882.271 934.132L884.07 932.396C906.597 955.73 927.294 976.94 942.489 992.313C950.088 1000 956.305 1006.22 960.685 1010.52C962.878 1012.67 964.597 1014.32 965.794 1015.44C965.997 1015.62 966.181 1015.79 966.349 1015.95C966.38 1015.92 966.413 1015.89 966.446 1015.87C967.32 1015.16 968.507 1014.1 969.934 1012.75C972.778 1010.05 976.461 1006.32 980.285 1002.2L982.118 1003.9L980.285 1002.2C988.013 993.862 1024.66 955.718 1061.7 917.439C1080.23 898.301 1097.06 880.669 1109.26 867.681C1115.36 861.185 1120.3 855.859 1123.7 852.09C1125.41 850.203 1126.71 848.722 1127.59 847.686C1127.6 847.67 1127.62 847.655 1127.63 847.639C1127.62 847.632 1127.61 847.625 1127.61 847.618C1126.61 846.698 1125.13 845.387 1123.18 843.718C1119.3 840.386 1113.68 835.692 1106.72 829.976C1092.81 818.547 1073.62 803.068 1052.5 786.297C1031.39 769.529 1011.46 754.012 996.372 742.521C988.825 736.774 982.498 732.043 977.84 728.667C975.509 726.978 973.611 725.64 972.195 724.688C971.485 724.211 970.914 723.843 970.48 723.58C970.065 723.329 969.872 723.235 969.835 723.216C969.828 723.213 969.826 723.212 969.828 723.213C966.109 721.812 962.675 721.865 960.318 722.951C960.326 722.948 960.322 722.95 960.303 722.962C960.249 722.993 960.08 723.094 959.748 723.315C959.349 723.579 958.814 723.95 958.145 724.426C956.808 725.377 954.984 726.715 952.723 728.402C948.202 731.774 941.975 736.509 934.489 742.263C919.518 753.77 899.539 769.333 878.167 786.174C856.797 803.015 837.457 818.533 823.515 829.967C816.541 835.686 810.931 840.373 807.094 843.69Z" stroke="#077DF9" stroke-width="5"/>
<path opacity="0.05" d="M1455.79 355.611C1481.79 334.343 1505.16 315.979 1507.73 314.799C1510.97 313.311 1514.29 313.883 1518.55 316.668L1455.79 355.611ZM1455.79 355.611L1408.52 394.278M1455.79 355.611L1522.18 320.679V322.032M1408.52 394.278L1411.02 394.279L1411.02 395.463M1408.52 394.278L1410.1 396.213L1411.02 395.463M1408.52 394.278L1408.48 480.797C1408.45 552.522 1407.83 568.499 1404.85 574.251C1402.88 578.067 1396.61 584.909 1390.93 589.457L1522.18 685.985M1411.02 395.463L1457.37 357.546C1470.36 346.92 1482.69 337.023 1492.09 329.638C1496.79 325.944 1500.75 322.887 1503.69 320.683C1505.16 319.58 1506.36 318.701 1507.26 318.066C1507.72 317.748 1508.08 317.502 1508.36 317.323C1508.67 317.125 1508.79 317.067 1508.78 317.072L1508.78 317.071C1510.93 316.082 1513.31 316.227 1517.18 318.759L1517.18 318.76L1522.18 322.032M1411.02 395.463L1410.98 480.798C1410.97 516.649 1410.81 538.625 1410.27 552.361C1410.01 559.225 1409.65 564.102 1409.15 567.654C1408.66 571.186 1408.01 573.591 1407.07 575.401L1407.07 575.402C1405.93 577.611 1403.68 580.472 1401.13 583.268C1398.53 586.105 1395.45 589.043 1392.49 591.409L1392.49 591.409C1386.73 596.02 1361.89 613.832 1337.34 630.972L1335.9 628.922L1337.34 630.972C1316.3 645.652 1304.83 653.547 1297.26 657.745C1293.43 659.864 1290.48 661.111 1287.7 661.808C1284.9 662.507 1282.41 662.617 1279.6 662.617H1270.5V765.31C1270.5 811.531 1270.62 837.946 1271.16 853.413C1271.43 861.157 1271.8 866.057 1272.3 869.288C1272.8 872.523 1273.39 873.827 1273.91 874.576C1275.14 876.333 1276.27 877.284 1277.45 877.803C1278.64 878.326 1280.17 878.533 1282.44 878.294C1282.43 878.294 1282.43 878.294 1282.43 878.294C1282.43 878.292 1282.6 878.256 1283 878.079C1283.44 877.886 1284.02 877.585 1284.77 877.15C1286.27 876.281 1288.3 874.963 1290.9 873.14C1296.11 869.499 1303.49 863.948 1313.41 856.206C1333.23 840.729 1363.07 816.586 1405.61 781.67L1407.19 783.602L1405.61 781.669L1522.18 685.985M1522.18 322.032V503.925V685.985M1522.18 322.032V685.985M1567.81 317.003C1566.53 316.604 1565.43 316.635 1564.2 317.124C1562.86 317.659 1561.26 318.793 1559.18 320.868L1553.82 326.219V504.091V682.016L1559.81 688.454L1559.81 688.454C1560.6 689.3 1564.47 692.696 1571.04 698.288C1577.53 703.806 1586.49 711.326 1597.26 720.307C1618.82 738.267 1647.63 762.06 1678.5 787.347C1716.43 818.411 1744.94 841.387 1764.43 856.593C1774.17 864.199 1781.64 869.842 1786.9 873.577C1789.53 875.448 1791.57 876.814 1793.05 877.702C1793.79 878.149 1794.34 878.448 1794.73 878.627C1794.85 878.685 1794.94 878.721 1795 878.743C1796.11 878.707 1797.52 878.384 1798.93 877.814C1800.43 877.205 1801.69 876.415 1802.43 875.68C1802.67 875.437 1803.23 874.66 1803.73 871.553C1804.22 868.518 1804.59 863.716 1804.85 855.947C1805.38 840.444 1805.5 813.575 1805.5 766.431V662.15L1800.26 662.998C1797.7 663.412 1794.78 663.394 1792.09 663.056C1789.42 662.722 1786.75 662.046 1784.76 660.992L1785.93 658.783L1784.76 660.992C1783.83 660.497 1781.49 658.989 1778.24 656.821C1774.91 654.61 1770.5 651.618 1765.3 648.061C1754.9 640.946 1741.35 631.557 1727.17 621.611C1710.01 609.578 1696.74 599.877 1687.39 592.543C1682.72 588.877 1679.01 585.78 1676.27 583.262C1673.61 580.82 1671.63 578.713 1670.72 577.051C1668.58 573.152 1667.53 568.15 1666.85 554.898C1666.16 541.556 1665.86 519.403 1665.55 480.832L1664.84 394.528L1618.92 356.721C1606.06 346.133 1593.8 336.33 1584.42 329.07C1579.72 325.438 1575.76 322.453 1572.81 320.327C1571.33 319.262 1570.12 318.427 1569.21 317.839C1568.76 317.544 1568.4 317.325 1568.13 317.174C1567.98 317.085 1567.88 317.039 1567.84 317.017C1567.82 317.009 1567.81 317.004 1567.81 317.003ZM1567.81 317.003C1567.82 317.007 1567.83 317.01 1567.84 317.014C1567.82 317.006 1567.81 317.002 1567.81 317.003ZM1380.09 843.69C1378.27 845.266 1376.87 846.514 1375.92 847.408C1376.03 847.532 1376.15 847.663 1376.28 847.802C1377.41 849.046 1379.06 850.828 1381.18 853.094C1385.42 857.622 1391.51 864.053 1399 871.914C1413.98 887.635 1434.54 909.06 1457.07 932.396L1455.27 934.132L1457.07 932.396C1479.6 955.73 1500.29 976.94 1515.49 992.313C1523.09 1000 1529.31 1006.22 1533.69 1010.52C1535.88 1012.67 1537.6 1014.32 1538.79 1015.44C1539 1015.62 1539.18 1015.79 1539.35 1015.95C1539.38 1015.92 1539.41 1015.89 1539.45 1015.87C1540.32 1015.16 1541.51 1014.1 1542.93 1012.75C1545.78 1010.05 1549.46 1006.32 1553.28 1002.2L1555.12 1003.9L1553.28 1002.2C1561.01 993.862 1597.66 955.718 1634.7 917.439C1653.23 898.301 1670.06 880.669 1682.26 867.681C1688.36 861.185 1693.3 855.859 1696.7 852.09C1698.41 850.203 1699.71 848.722 1700.59 847.686C1700.6 847.67 1700.62 847.655 1700.63 847.639C1700.62 847.632 1700.61 847.625 1700.61 847.618C1699.61 846.698 1698.13 845.387 1696.18 843.718C1692.3 840.386 1686.68 835.692 1679.72 829.976C1665.81 818.547 1646.62 803.068 1625.5 786.297C1604.39 769.529 1584.46 754.012 1569.37 742.521C1561.83 736.774 1555.5 732.043 1550.84 728.667C1548.51 726.978 1546.61 725.64 1545.19 724.688C1544.49 724.211 1543.91 723.843 1543.48 723.58C1543.07 723.329 1542.87 723.235 1542.83 723.216C1542.83 723.213 1542.83 723.212 1542.83 723.213C1539.11 721.812 1535.67 721.865 1533.32 722.951C1533.33 722.948 1533.32 722.95 1533.3 722.962C1533.25 722.993 1533.08 723.094 1532.75 723.315C1532.35 723.579 1531.81 723.95 1531.14 724.426C1529.81 725.377 1527.98 726.715 1525.72 728.402C1521.2 731.774 1514.97 736.509 1507.49 742.263C1492.52 753.77 1472.54 769.333 1451.17 786.174C1429.8 803.015 1410.46 818.533 1396.52 829.967C1389.54 835.686 1383.93 840.373 1380.09 843.69Z" stroke="#077DF9" stroke-width="5"/>
<path opacity="0.25" d="M2028.79 355.611C2054.79 334.343 2078.16 315.979 2080.73 314.799C2083.97 313.311 2087.29 313.883 2091.55 316.668L2028.79 355.611ZM2028.79 355.611L1981.52 394.278M2028.79 355.611L2095.18 320.679V322.032M1981.52 394.278L1984.02 394.279L1984.02 395.463M1981.52 394.278L1983.1 396.213L1984.02 395.463M1981.52 394.278L1981.48 480.797C1981.45 552.522 1980.83 568.499 1977.85 574.251C1975.88 578.067 1969.61 584.909 1963.93 589.457L2095.18 685.985M1984.02 395.463L2030.37 357.546C2043.36 346.92 2055.69 337.023 2065.09 329.638C2069.79 325.944 2073.75 322.887 2076.69 320.683C2078.16 319.58 2079.36 318.701 2080.26 318.066C2080.72 317.748 2081.08 317.502 2081.36 317.323C2081.67 317.125 2081.79 317.067 2081.78 317.072L2081.78 317.071C2083.93 316.082 2086.31 316.227 2090.18 318.759L2090.18 318.76L2095.18 322.032M1984.02 395.463L1983.98 480.798C1983.97 516.649 1983.81 538.625 1983.27 552.361C1983.01 559.225 1982.65 564.102 1982.15 567.654C1981.66 571.186 1981.01 573.591 1980.07 575.401L1980.07 575.402C1978.93 577.611 1976.68 580.472 1974.13 583.268C1971.53 586.105 1968.45 589.043 1965.49 591.409L1965.49 591.409C1959.73 596.02 1934.89 613.832 1910.34 630.972L1908.9 628.922L1910.34 630.972C1889.3 645.652 1877.83 653.547 1870.26 657.745C1866.43 659.864 1863.48 661.111 1860.7 661.808C1857.9 662.507 1855.41 662.617 1852.6 662.617H1843.5V765.31C1843.5 811.531 1843.62 837.946 1844.16 853.413C1844.43 861.157 1844.8 866.057 1845.3 869.288C1845.8 872.523 1846.39 873.827 1846.91 874.576C1848.14 876.333 1849.27 877.284 1850.45 877.803C1851.64 878.326 1853.17 878.533 1855.44 878.294C1855.43 878.294 1855.43 878.294 1855.43 878.294C1855.43 878.292 1855.6 878.256 1856 878.079C1856.44 877.886 1857.02 877.585 1857.77 877.15C1859.27 876.281 1861.3 874.963 1863.9 873.14C1869.11 869.499 1876.49 863.948 1886.41 856.206C1906.23 840.729 1936.07 816.586 1978.61 781.67L1980.19 783.602L1978.61 781.669L2095.18 685.985M2095.18 322.032V503.925V685.985M2095.18 322.032V685.985M2140.81 317.003C2139.53 316.604 2138.43 316.635 2137.2 317.124C2135.86 317.659 2134.26 318.793 2132.18 320.868L2126.82 326.219V504.091V682.016L2132.81 688.454L2132.81 688.454C2133.6 689.3 2137.47 692.696 2144.04 698.288C2150.53 703.806 2159.49 711.326 2170.26 720.307C2191.82 738.267 2220.63 762.06 2251.5 787.347C2289.43 818.411 2317.94 841.387 2337.43 856.593C2347.17 864.199 2354.64 869.842 2359.9 873.577C2362.53 875.448 2364.57 876.814 2366.05 877.702C2366.79 878.149 2367.34 878.448 2367.73 878.627C2367.85 878.685 2367.94 878.721 2368 878.743C2369.11 878.707 2370.52 878.384 2371.93 877.814C2373.43 877.205 2374.69 876.415 2375.43 875.68C2375.67 875.437 2376.23 874.66 2376.73 871.553C2377.22 868.518 2377.59 863.716 2377.85 855.947C2378.38 840.444 2378.5 813.575 2378.5 766.431V662.15L2373.26 662.998C2370.7 663.412 2367.78 663.394 2365.09 663.056C2362.42 662.722 2359.75 662.046 2357.76 660.992L2358.93 658.783L2357.76 660.992C2356.83 660.497 2354.49 658.989 2351.24 656.821C2347.91 654.61 2343.5 651.618 2338.3 648.061C2327.9 640.946 2314.35 631.557 2300.17 621.611C2283.01 609.578 2269.74 599.877 2260.39 592.543C2255.72 588.877 2252.01 585.78 2249.27 583.262C2246.61 580.82 2244.63 578.713 2243.72 577.051C2241.58 573.152 2240.53 568.15 2239.85 554.898C2239.16 541.556 2238.86 519.403 2238.55 480.832L2237.84 394.528L2191.92 356.721C2179.06 346.133 2166.8 336.33 2157.42 329.07C2152.72 325.438 2148.76 322.453 2145.81 320.327C2144.33 319.262 2143.12 318.427 2142.21 317.839C2141.76 317.544 2141.4 317.325 2141.13 317.174C2140.98 317.085 2140.88 317.039 2140.84 317.017C2140.82 317.009 2140.81 317.004 2140.81 317.003ZM2140.81 317.003C2140.82 317.007 2140.83 317.01 2140.84 317.014C2140.82 317.006 2140.81 317.002 2140.81 317.003ZM1953.09 843.69C1951.27 845.266 1949.87 846.514 1948.92 847.408C1949.03 847.532 1949.15 847.663 1949.28 847.802C1950.41 849.046 1952.06 850.828 1954.18 853.094C1958.42 857.622 1964.51 864.053 1972 871.914C1986.98 887.635 2007.54 909.06 2030.07 932.396L2028.27 934.132L2030.07 932.396C2052.6 955.73 2073.29 976.94 2088.49 992.313C2096.09 1000 2102.31 1006.22 2106.69 1010.52C2108.88 1012.67 2110.6 1014.32 2111.79 1015.44C2112 1015.62 2112.18 1015.79 2112.35 1015.95C2112.38 1015.92 2112.41 1015.89 2112.45 1015.87C2113.32 1015.16 2114.51 1014.1 2115.93 1012.75C2118.78 1010.05 2122.46 1006.32 2126.28 1002.2L2128.12 1003.9L2126.28 1002.2C2134.01 993.862 2170.66 955.718 2207.7 917.439C2226.23 898.301 2243.06 880.669 2255.26 867.681C2261.36 861.185 2266.3 855.859 2269.7 852.09C2271.41 850.203 2272.71 848.722 2273.59 847.686C2273.6 847.67 2273.62 847.655 2273.63 847.639C2273.62 847.632 2273.61 847.625 2273.61 847.618C2272.61 846.698 2271.13 845.387 2269.18 843.718C2265.3 840.386 2259.68 835.692 2252.72 829.976C2238.81 818.547 2219.62 803.068 2198.5 786.297C2177.39 769.529 2157.46 754.012 2142.37 742.521C2134.83 736.774 2128.5 732.043 2123.84 728.667C2121.51 726.978 2119.61 725.64 2118.19 724.688C2117.49 724.211 2116.91 723.843 2116.48 723.58C2116.07 723.329 2115.87 723.235 2115.83 723.216C2115.83 723.213 2115.83 723.212 2115.83 723.213C2112.11 721.812 2108.67 721.865 2106.32 722.951C2106.33 722.948 2106.32 722.95 2106.3 722.962C2106.25 722.993 2106.08 723.094 2105.75 723.315C2105.35 723.579 2104.81 723.95 2104.14 724.426C2102.81 725.377 2100.98 726.715 2098.72 728.402C2094.2 731.774 2087.97 736.509 2080.49 742.263C2065.52 753.77 2045.54 769.333 2024.17 786.174C2002.8 803.015 1983.46 818.533 1969.52 829.967C1962.54 835.686 1956.93 840.373 1953.09 843.69Z" stroke="#077DF9" stroke-width="5"/>
</g>
</svg>
