<svg width="603" height="618" viewBox="0 0 603 618" fill="none" xmlns="http://www.w3.org/2000/svg">
<path d="M127.171 566.806C140.085 564.068 175.39 555.681 167.549 531.783C158.963 505.592 127.88 506.336 112.492 510.477C97.1029 514.623 70.1374 533.29 78.3537 554.086C87.2386 576.542 114.914 569.399 127.171 566.806Z" fill="white" stroke="#0E185F" stroke-width="1.75939" stroke-miterlimit="10" stroke-linecap="round" stroke-linejoin="round"/>
<path d="M150.424 563.704C160.316 563.704 168.335 555.685 168.335 545.794C168.335 535.902 160.316 527.883 150.424 527.883C140.532 527.883 132.514 535.902 132.514 545.794C132.514 555.685 140.532 563.704 150.424 563.704Z" fill="white" stroke="#0E185F" stroke-width="1.75939" stroke-miterlimit="10" stroke-linecap="round" stroke-linejoin="round"/>
<path d="M135.006 536.674C135.006 536.674 132.608 523.696 135.006 522.804C137.405 521.919 144.049 529.05 144.049 529.05C144.049 529.05 140.918 530.147 138.994 532C137.071 533.853 135.006 536.674 135.006 536.674Z" fill="white" stroke="#0E185F" stroke-width="1.75939" stroke-miterlimit="10" stroke-linecap="round" stroke-linejoin="round"/>
<path d="M163.115 533.156C163.115 533.156 177.607 531.097 178 534.452C178.393 537.806 168.129 543.09 168.129 543.09C168.129 543.09 167.308 538.791 165.842 536.674C164.376 534.557 163.115 533.156 163.115 533.156Z" fill="white" stroke="#0E185F" stroke-width="1.75939" stroke-miterlimit="10" stroke-linecap="round" stroke-linejoin="round"/>
<path d="M86.3239 526.487C86.3239 526.487 69.9381 541.753 74.1313 560.004C78.6061 579.474 114.732 592.488 130.25 573.029C142.683 557.441 121.764 548.761 115.453 558.625C106.598 572.46 68.5658 573.516 86.3239 526.487Z" fill="#0E185F" stroke="#0E185F" stroke-width="1.75939" stroke-miterlimit="10" stroke-linecap="round" stroke-linejoin="round"/>
<path d="M138.994 546.187C138.994 546.187 127.986 544.41 121.277 546.879" stroke="#0E185F" stroke-width="1.75939" stroke-miterlimit="10" stroke-linecap="round" stroke-linejoin="round"/>
<path d="M160.934 552.802C160.934 552.802 170.299 557.963 171.983 560.004" stroke="#0E185F" stroke-width="1.75939" stroke-miterlimit="10" stroke-linecap="round" stroke-linejoin="round"/>
<path d="M138.994 549.348C138.994 549.348 129.276 549.148 122.661 552.309" stroke="#0E185F" stroke-width="1.75939" stroke-miterlimit="10" stroke-linecap="round" stroke-linejoin="round"/>
<path d="M159.01 556.403C159.01 556.403 168.036 563.651 169.666 569.129" stroke="#0E185F" stroke-width="1.75939" stroke-miterlimit="10" stroke-linecap="round" stroke-linejoin="round"/>
<path d="M160.934 360.313L461.947 357.358" stroke="#0E185F" stroke-width="1.75939" stroke-miterlimit="10" stroke-linecap="round" stroke-linejoin="round"/>
<path d="M374.335 522.728L442.764 521.913L437.227 542.551L374.335 542.703V522.728Z" fill="white" stroke="#0E185F" stroke-width="1.75939" stroke-miterlimit="10" stroke-linecap="round" stroke-linejoin="round"/>
<path d="M211.774 269.447C211.774 269.447 190.831 298.753 195.57 322.434C200.303 346.109 227.514 361.803 269.564 360.319C266.01 395.835 272.431 523.713 272.431 523.713L374.335 522.728L433.533 521.907V349.951L350.982 286.255C350.976 286.261 311.613 270.462 211.774 269.447Z" fill="#0E185F" stroke="#0E185F" stroke-width="1.75939" stroke-miterlimit="10" stroke-linecap="round" stroke-linejoin="round"/>
<path d="M317.507 300.53L370.189 348.479L374.335 522.728" stroke="#0E185F" stroke-width="1.75939" stroke-miterlimit="10" stroke-linecap="round" stroke-linejoin="round"/>
<path d="M264.233 523.784L388.146 522.728L383.414 542.668L270.555 543.09L264.233 523.784Z" fill="white" stroke="#0E185F" stroke-width="1.75939" stroke-miterlimit="10" stroke-linecap="round" stroke-linejoin="round"/>
<path d="M427.609 542.703V556.403L463.653 581.943L374.335 582.723V542.703H427.609Z" fill="white" stroke="#0E185F" stroke-width="1.75939" stroke-miterlimit="10" stroke-linecap="round" stroke-linejoin="round"/>
<path d="M273.112 543.09L374.335 542.703V557.734L410.156 582.295L274.021 583.92L273.112 543.09Z" fill="white" stroke="#0E185F" stroke-width="1.75939" stroke-miterlimit="10" stroke-linecap="round" stroke-linejoin="round"/>
<path d="M291.527 248.768L294.125 219.434L292.055 188.65L294.125 219.434L316.621 202.579C316.621 202.579 287.322 161.72 274.297 159.65C266.895 164.975 260.978 156.395 260.978 156.395C260.978 156.395 221.134 157.662 210.484 195.547C233.573 202.948 250.328 207.446 250.328 207.446L255.061 189.248L244.704 239.268L291.527 248.768Z" fill="white" stroke="#0E185F" stroke-width="1.75939" stroke-miterlimit="10" stroke-linecap="round" stroke-linejoin="round"/>
<path d="M210.478 195.541C210.478 195.541 196.35 259.682 199.118 264.421C201.88 269.154 278.859 284.748 298.987 285.469C319.114 286.19 313.15 256.322 307.045 252.874C300.934 249.425 244.704 239.262 244.704 239.262L250.328 207.44L210.478 195.541Z" fill="white" stroke="#0E185F" stroke-width="1.75939" stroke-miterlimit="10" stroke-linecap="round" stroke-linejoin="round"/>
<path d="M295.016 218.988L312.856 205.435L326.685 228.905L312.856 253.173L291.55 248.563L295.016 218.988Z" fill="white" stroke="#0E185F" stroke-width="1.75939" stroke-miterlimit="10" stroke-linecap="round" stroke-linejoin="round"/>
<path d="M295.755 159.79C308.698 155.421 303.573 130.872 296.641 121.019C284.36 103.555 254.169 106.516 246.322 130.198C244.61 135.358 234.089 137.622 238.182 145.885C241.044 151.656 252.539 148.653 252.539 148.653C252.539 148.653 288.008 162.406 295.755 159.79Z" fill="#0E185F" stroke="#0E185F" stroke-width="1.75939" stroke-miterlimit="10" stroke-linecap="round" stroke-linejoin="round"/>
<path d="M260.978 156.389L264.086 147.51C264.086 147.51 260.831 143.07 260.978 140.554C261.125 138.039 256.093 139.816 257.424 134.637C258.755 129.459 265.265 135.229 268.526 136.561C271.787 137.892 277.815 134.719 280.959 134.491C283.099 134.332 285.269 136.402 285.885 137.775C287.128 140.56 285.398 144.554 282.144 146.478C278.889 148.401 274.003 148.7 274.003 148.7L273.517 160.166C273.517 160.166 272.83 162.582 266.462 160.823C260.087 159.051 260.978 156.389 260.978 156.389Z" fill="white" stroke="#0E185F" stroke-width="1.75939" stroke-miterlimit="10" stroke-linecap="round" stroke-linejoin="round"/>
<path d="M12.2068 286.818H601.794" stroke="#0E185F" stroke-width="1.75939" stroke-miterlimit="10" stroke-linecap="round" stroke-linejoin="round"/>
<path d="M78.3596 603.906L160.933 286.818" stroke="#0E185F" stroke-width="1.75939" stroke-miterlimit="10"/>
<path d="M87.2388 286.818L195.564 617.225" stroke="#0E185F" stroke-width="1.75939" stroke-miterlimit="10"/>
<path d="M455.73 286.818L565.833 617.225" stroke="#0E185F" stroke-width="1.75939" stroke-miterlimit="10"/>
<path d="M448.628 599.467L531.202 286.818" stroke="#0E185F" stroke-width="1.75939" stroke-miterlimit="10"/>
<path d="M45.4064 247.549C45.4064 247.549 34.3574 219.826 18.7693 212.724" stroke="#0E185F" stroke-width="1.75939" stroke-miterlimit="10" stroke-linecap="round" stroke-linejoin="round"/>
<path d="M18.7693 212.724C18.7693 212.724 6.88174 193.829 2.14313 199.306C-4.32554 206.79 18.7693 212.724 18.7693 212.724Z" fill="#1E244A" stroke="#0E185F" stroke-width="1.75939" stroke-miterlimit="10" stroke-linecap="round" stroke-linejoin="round"/>
<path d="M34.1523 227.011C29.918 217.85 17.6082 235.268 17.6082 235.268C17.6082 235.268 36.457 231.996 34.1523 227.011Z" fill="#1E244A" stroke="#0E185F" stroke-width="1.75939" stroke-miterlimit="10" stroke-linecap="round" stroke-linejoin="round"/>
<path d="M53.9395 178.141C56.1621 206.109 62.3728 248.071 62.3728 248.071L53.9395 178.141Z" fill="#0E185F"/>
<path d="M53.9395 178.141C56.1621 206.109 62.3728 248.071 62.3728 248.071" stroke="#0E185F" stroke-width="1.75939" stroke-miterlimit="10" stroke-linecap="round" stroke-linejoin="round"/>
<path d="M52.5729 151.597C56.1152 151.246 66.5952 182.457 53.611 180.956C42.0987 179.624 52.5729 151.597 52.5729 151.597Z" fill="#1E244A" stroke="#0E185F" stroke-width="1.75939" stroke-miterlimit="10" stroke-linecap="round" stroke-linejoin="round"/>
<path d="M55.4584 194.198C55.4584 194.198 49.3534 183.917 39.2897 183.126C29.226 182.334 27.6484 183.126 27.6484 183.126" stroke="#0E185F" stroke-width="1.75939" stroke-miterlimit="10" stroke-linecap="round" stroke-linejoin="round"/>
<path d="M27.2554 182.041C25.4491 170.212 7.82007 184.41 7.82007 184.41C7.82007 184.41 28.487 190.128 27.2554 182.041Z" fill="#1E244A" stroke="#0E185F" stroke-width="1.75939" stroke-miterlimit="10" stroke-linecap="round" stroke-linejoin="round"/>
<path d="M57.0068 207.792C57.0068 207.792 61.8745 197.987 74.1198 191.213C83.3917 186.081 88.623 184.562 88.623 184.562" stroke="#0E185F" stroke-width="1.75939" stroke-miterlimit="10" stroke-linecap="round" stroke-linejoin="round"/>
<path d="M89.2151 184.562C85.3621 170.405 118.022 179.255 118.022 179.255C118.022 179.255 91.9539 194.626 89.2151 184.562Z" fill="#1E244A" stroke="#0E185F" stroke-width="1.75939" stroke-miterlimit="10" stroke-linecap="round" stroke-linejoin="round"/>
<path d="M80.5765 248.076C80.5765 248.076 79.9842 229.984 86.4939 224.858" stroke="#0E185F" stroke-width="1.75939" stroke-miterlimit="10" stroke-linecap="round" stroke-linejoin="round"/>
<path d="M109.213 208.256C109.213 208.256 77.8611 214.572 85.9778 224.852C91.4553 231.79 109.213 208.256 109.213 208.256Z" fill="#1E244A" stroke="#0E185F" stroke-width="1.75939" stroke-miterlimit="10" stroke-linecap="round" stroke-linejoin="round"/>
<path d="M72.8119 216.548C80.1368 213.112 81.691 234.453 81.691 234.453C81.691 234.453 65.6395 219.914 72.8119 216.548Z" fill="#1E244A" stroke="#0E185F" stroke-width="1.75939" stroke-miterlimit="10" stroke-linecap="round" stroke-linejoin="round"/>
<path d="M90.5055 247.549H37.4307V286.812H90.5055V247.549Z" fill="#1E244A" stroke="#0E185F" stroke-width="1.75939" stroke-miterlimit="10" stroke-linecap="round" stroke-linejoin="round"/>
<path d="M291.55 286.853L345.921 176.598H492.331L444.195 286.853H291.55Z" fill="#077DF9" stroke="#0E185F" stroke-width="1.75939" stroke-miterlimit="10" stroke-linecap="round" stroke-linejoin="round"/>
<path d="M405.412 226.418C405.412 226.418 399.788 224.888 395.794 227.703C394.064 228.923 388.604 233.18 391.46 236.728C394.316 240.282 399.641 237.174 401.717 234.066C403.787 230.958 405.412 226.418 405.412 226.418Z" fill="#002B7C" stroke="#0E185F" stroke-width="1.75939" stroke-miterlimit="10" stroke-linecap="round" stroke-linejoin="round"/>
<path d="M558.238 275.669L577.573 126.298L489.915 78.5479" stroke="#0E185F" stroke-width="1.75939" stroke-miterlimit="10" stroke-linecap="round" stroke-linejoin="round"/>
<path d="M489.915 78.5479L447.537 96.4995L490.754 123.336L489.915 78.5479Z" fill="#DADADA" stroke="#0E185F" stroke-width="1.75939" stroke-miterlimit="10" stroke-linecap="round" stroke-linejoin="round"/>
<path d="M468.579 122.843C474.769 122.843 479.787 117.826 479.787 111.636C479.787 105.446 474.769 100.429 468.579 100.429C462.39 100.429 457.372 105.446 457.372 111.636C457.372 117.826 462.39 122.843 468.579 122.843Z" fill="white" stroke="#0E185F" stroke-width="1.75939" stroke-miterlimit="10" stroke-linecap="round" stroke-linejoin="round"/>
<path d="M586.318 274.133H529.402V286.232H586.318V274.133Z" fill="#DADADA" stroke="#0E185F" stroke-width="1.75939" stroke-miterlimit="10" stroke-linecap="round" stroke-linejoin="round"/>
<path d="M397.407 101.754L391.313 97.6079C391.313 97.6079 376.441 115.219 381.027 118.844C386.047 122.814 397.407 101.754 397.407 101.754Z" fill="white" stroke="#0E185F" stroke-width="1.75939" stroke-miterlimit="10" stroke-linecap="round" stroke-linejoin="round"/>
<path d="M401.835 101.848C409.453 101.848 415.628 95.6724 415.628 88.0544C415.628 80.4365 409.453 74.261 401.835 74.261C394.217 74.261 388.041 80.4365 388.041 88.0544C388.041 95.6724 394.217 101.848 401.835 101.848Z" fill="#7DCE13" stroke="#0E185F" stroke-width="1.75939" stroke-miterlimit="10" stroke-linecap="round" stroke-linejoin="round"/>
<path d="M401.834 96.8983C406.35 96.8983 410.01 93.2382 410.01 88.7231C410.01 84.208 406.35 80.5479 401.834 80.5479C397.319 80.5479 393.659 84.208 393.659 88.7231C393.659 93.2382 397.319 96.8983 401.834 96.8983Z" fill="white" stroke="#0E185F" stroke-width="1.75939" stroke-miterlimit="10" stroke-linecap="round" stroke-linejoin="round"/>
<path d="M382.845 109.313C382.845 109.313 382.733 111.841 384.622 113.841C385.695 114.979 387.9 115.595 387.9 115.595C387.9 115.595 383.66 121.166 380.997 118.726C378.329 116.281 382.845 109.313 382.845 109.313Z" fill="#DADADA" stroke="#0E185F" stroke-width="1.75939" stroke-miterlimit="10" stroke-linecap="round" stroke-linejoin="round"/>
<path d="M260.878 51.0194C270.741 51.0194 278.736 43.0243 278.736 33.1617C278.736 23.2991 270.741 15.304 260.878 15.304C251.016 15.304 243.021 23.2991 243.021 33.1617C243.021 43.0243 251.016 51.0194 260.878 51.0194Z" fill="#027EF8" stroke="#0E185F" stroke-width="1.75939" stroke-miterlimit="10" stroke-linecap="round" stroke-linejoin="round"/>
<path d="M274.695 21.8545C281.962 22.9688 287.152 26.0829 287.938 30.5107C289.204 37.6479 278.408 44.228 264.034 46.7791C249.659 49.3302 237.138 46.8788 235.872 39.7416C235.168 35.7595 238.165 31.5487 243.455 28.1707" stroke="#0E185F" stroke-width="1.75939" stroke-miterlimit="10" stroke-linecap="round" stroke-linejoin="round"/>
<path d="M286.923 8.495C288.993 8.495 290.671 6.81725 290.671 4.74757C290.671 2.67789 288.993 1 286.923 1C284.854 1 283.176 2.67789 283.176 4.74757C283.176 6.81725 284.854 8.495 286.923 8.495Z" fill="white" stroke="#0E185F" stroke-width="1.75939" stroke-miterlimit="10" stroke-linecap="round" stroke-linejoin="round"/>
<path d="M228.57 57.1888C230.64 57.1888 232.318 55.5111 232.318 53.4414C232.318 51.3717 230.64 49.6938 228.57 49.6938C226.501 49.6938 224.823 51.3717 224.823 53.4414C224.823 55.5111 226.501 57.1888 228.57 57.1888Z" fill="white" stroke="#0E185F" stroke-width="1.75939" stroke-miterlimit="10" stroke-linecap="round" stroke-linejoin="round"/>
<path d="M122.356 116.034C130.635 116.034 137.346 109.323 137.346 101.044C137.346 92.7657 130.635 86.0544 122.356 86.0544C114.077 86.0544 107.366 92.7657 107.366 101.044C107.366 109.323 114.077 116.034 122.356 116.034Z" fill="#FFCB42" stroke="#0E185F" stroke-width="1.75939" stroke-miterlimit="10" stroke-linecap="round" stroke-linejoin="round"/>
<path d="M126.502 106.27L118.415 104.393" stroke="#0E185F" stroke-width="1.75939" stroke-miterlimit="10" stroke-linecap="round" stroke-linejoin="round"/>
<path d="M130.256 102.03L125.417 96.3059" stroke="#0E185F" stroke-width="1.75939" stroke-miterlimit="10" stroke-linecap="round" stroke-linejoin="round"/>
<path d="M115.354 102.03C115.354 102.03 113.876 99.6605 114.861 98.1826C115.846 96.7047 118.415 98.1826 118.415 98.1826C118.415 98.1826 118.415 94.2358 119.799 93.1508C120.896 92.2887 123.547 94.0364 123.547 94.0364" stroke="#0E185F" stroke-width="1.75939" stroke-miterlimit="10" stroke-linecap="round" stroke-linejoin="round"/>
<path d="M137.85 103.208C137.85 103.208 141.305 104.393 141.105 106.27C140.906 108.146 132.619 118.011 130.748 118.21C128.872 118.41 127.277 115.213 127.277 115.213C127.277 115.213 132.414 113.178 134.197 110.246C135.974 107.308 137.85 103.208 137.85 103.208Z" fill="white" stroke="#0E185F" stroke-width="1.75939" stroke-miterlimit="10" stroke-linecap="round" stroke-linejoin="round"/>
<path d="M140.566 108.481C140.566 108.481 143.774 108.639 143.474 110.516C143.175 112.393 136.349 120.298 134.197 119.248C132.584 118.457 132.437 117.219 133.37 116.293C134.9 114.774 140.566 108.481 140.566 108.481Z" fill="white" stroke="#0E185F" stroke-width="1.75939" stroke-miterlimit="10" stroke-linecap="round" stroke-linejoin="round"/>
<path d="M143.123 112.123L147.961 116.486C147.961 116.486 144.495 121.272 143.492 121.172C142.484 121.072 137.921 117.923 137.921 117.923L143.123 112.123Z" fill="white" stroke="#0E185F" stroke-width="1.75939" stroke-miterlimit="10" stroke-linecap="round" stroke-linejoin="round"/>
<path d="M159.602 86.0546C159.602 86.0546 173.806 67.4461 199.265 51.7642L159.602 86.0546Z" fill="white"/>
<path d="M159.602 86.0546C159.602 86.0546 173.806 67.4461 199.265 51.7642" stroke="#0E185F" stroke-width="1.75939" stroke-miterlimit="10" stroke-linecap="round" stroke-linejoin="round"/>
<path d="M169.126 87.5265C169.126 87.5265 178.305 73.7153 194.086 62.2676L169.126 87.5265Z" fill="white"/>
<path d="M169.126 87.5265C169.126 87.5265 178.305 73.7153 194.086 62.2676" stroke="#0E185F" stroke-width="1.75939" stroke-miterlimit="10" stroke-linecap="round" stroke-linejoin="round"/>
<path d="M319.677 37.5015C319.677 37.5015 345.13 39.472 370.588 63.1533" stroke="#0E185F" stroke-width="1.75939" stroke-miterlimit="10" stroke-linecap="round" stroke-linejoin="round"/>
<path d="M329.494 48.5034C329.494 48.5034 347.552 52.6497 365.603 67.5928" stroke="#0E185F" stroke-width="1.75939" stroke-miterlimit="10" stroke-linecap="round" stroke-linejoin="round"/>
</svg>
