<svg width="46" height="46" viewBox="0 0 46 46" fill="none" xmlns="http://www.w3.org/2000/svg">
<rect y="0.32074" width="45.6604" height="45.6604" rx="22.8302" fill="#0E185F" fill-opacity="0.5"/>
<rect width="25.6604" height="25.6604" transform="translate(10 10.3207)" fill="#878CAF"/>
<path d="M22.83 19.676C20.9109 19.676 19.3551 21.2317 19.3551 23.1508C19.3551 25.0699 20.9109 26.6257 22.83 26.6257C24.7491 26.6257 26.3048 25.0699 26.3048 23.1508C26.3048 21.2317 24.7491 19.676 22.83 19.676Z" fill="white"/>
<path fill-rule="evenodd" clip-rule="evenodd" d="M17.2376 13.6153C20.9243 13.2033 24.7356 13.2033 28.4223 13.6153C30.452 13.8422 32.0892 15.4414 32.3274 17.4783C32.7682 21.2471 32.7682 25.0545 32.3274 28.8234C32.0892 30.8603 30.452 32.4595 28.4223 32.6864C24.7356 33.0984 20.9243 33.0984 17.2376 32.6864C15.2079 32.4595 13.5708 30.8603 13.3326 28.8234C12.8918 25.0545 12.8918 21.2471 13.3326 17.4783C13.5708 15.4414 15.2079 13.8422 17.2376 13.6153ZM28.1759 16.7357C27.5854 16.7357 27.1067 17.2144 27.1067 17.8049C27.1067 18.3954 27.5854 18.8741 28.1759 18.8741C28.7664 18.8741 29.2451 18.3954 29.2451 17.8049C29.2451 17.2144 28.7664 16.7357 28.1759 16.7357ZM17.7513 23.1508C17.7513 20.346 20.0251 18.0722 22.83 18.0722C25.6348 18.0722 27.9086 20.346 27.9086 23.1508C27.9086 25.9557 25.6348 28.2295 22.83 28.2295C20.0251 28.2295 17.7513 25.9557 17.7513 23.1508Z" fill="white"/>
</svg>
