<svg width="40" height="40" viewBox="0 0 40 40" fill="none" xmlns="http://www.w3.org/2000/svg">
    <path opacity="0.4"
        d="M17.4831 3.71685L9.16643 6.83353C7.24977 7.5502 5.68311 9.81684 5.68311 11.8668V24.2502C5.68311 26.2169 6.98312 28.8002 8.56646 29.9835L15.7331 35.3335C18.0831 37.1002 21.9497 37.1002 24.2997 35.3335L31.4664 29.9835C33.0498 28.8002 34.3497 26.2169 34.3497 24.2502V11.8668C34.3497 9.81684 32.7831 7.5502 30.8664 6.83353L22.5498 3.71685C21.1331 3.20018 18.8664 3.20018 17.4831 3.71685Z"
        fill="#00E462" />
    <path
        d="M19.6559 17.5096L16.5697 25.4H14.1187L11 17.5096H13.3126L15.3564 23.1607L17.4166 17.5096H19.6559Z"
        fill="#00E462" />
    <path
        d="M27.2092 14L24.4 17.9656C24.5547 17.9493 24.7338 17.933 24.9292 17.933C27.2418 17.933 28.8785 19.586 28.8785 21.7194C28.8785 23.9506 27.0382 25.6036 24.5872 25.6036C22.1525 25.6036 20.3122 23.9669 20.3122 21.7601C20.3122 20.7179 20.7031 19.7733 21.3952 18.731L24.5547 14H27.2092ZM24.5872 19.8629C23.4554 19.8629 22.6004 20.6364 22.6004 21.7357C22.6004 22.8431 23.4554 23.6086 24.5872 23.6086C25.7354 23.6086 26.5904 22.8431 26.5904 21.7357C26.5904 20.6364 25.7354 19.8629 24.5872 19.8629Z"
        fill="#00E462" />
</svg>