<svg width="40" height="40" viewBox="0 0 40 40" fill="none" xmlns="http://www.w3.org/2000/svg">
    <path opacity="0.4"
        d="M33.1335 34.9001C31.5502 36.0668 29.4668 36.6668 26.9835 36.6668H13.0168C12.6168 36.6668 12.2168 36.6501 11.8335 36.6001L23.3335 25.1001L33.1335 34.9001Z"
        fill="#FF5E00" />
    <path opacity="0.4"
        d="M36.6668 13.0166V26.9833C36.6668 29.4666 36.0668 31.5499 34.9001 33.1332L25.1001 23.3333L36.6001 11.8333C36.6501 12.2166 36.6668 12.6166 36.6668 13.0166Z"
        fill="#FF5E00" />
    <path opacity="0.4"
        d="M25.1002 23.3333L34.9002 33.1332C34.4168 33.8332 33.8335 34.4166 33.1335 34.8999L23.3335 25.0999L11.8335 36.5999C10.7668 36.5333 9.80017 36.3166 8.91684 35.9832C5.35017 34.6832 3.3335 31.5166 3.3335 26.9833V13.0166C3.3335 6.94991 6.95016 3.33325 13.0168 3.33325H26.9835C31.5168 3.33325 34.6835 5.34992 35.9835 8.91658C36.3168 9.79992 36.5335 10.7666 36.6001 11.8333L25.1002 23.3333Z"
        fill="#FF5E00" />
    <path
        d="M25.0998 23.3334L34.8998 33.1334C34.4165 33.8334 33.8332 34.4168 33.1332 34.9001L23.3332 25.1001L11.8332 36.6001C10.7665 36.5334 9.79984 36.3167 8.9165 35.9834L9.56648 35.3334L35.9832 8.91675C36.3165 9.80008 36.5331 10.7667 36.5998 11.8334L25.0998 23.3334Z"
        fill="#FF5E00" />
    <path
        d="M20.4002 13.2166C19.7668 10.4666 17.3335 9.23322 15.2002 9.21655C13.0668 9.21655 10.6335 10.4499 10.0002 13.1999C9.30018 16.2499 11.1668 18.7999 12.8502 20.3999C13.5168 21.0332 14.3502 21.3332 15.2002 21.3332C16.0502 21.3332 16.8835 21.0166 17.5502 20.3999C19.2335 18.7999 21.1002 16.2499 20.4002 13.2166ZM15.2502 15.8166C14.3335 15.8166 13.5835 15.0666 13.5835 14.1499C13.5835 13.2332 14.3168 12.4832 15.2502 12.4832H15.2668C16.1835 12.4832 16.9335 13.2332 16.9335 14.1499C16.9335 15.0666 16.1668 15.8166 15.2502 15.8166Z"
        fill="#FF5E00" />
</svg>