<svg width="118" height="65" viewBox="0 0 118 65" fill="none" xmlns="http://www.w3.org/2000/svg">
<path d="M14.459 44.4648C13.6777 44.4648 13.082 44.123 12.6719 43.4395C12.4766 43.1074 12.3789 42.7754 12.3789 42.4434C12.3789 42.248 12.4082 42.0625 12.4668 41.8867C13.9512 37.3555 14.8789 34.4746 15.25 33.2441C17.0078 27.5996 18.9023 21.877 20.9336 16.0762C22.7109 10.959 24.7324 5.93945 26.998 1.01758L30.6309 3.06836C29.3418 5.37305 28.1211 7.7168 26.9688 10.0996C25.4844 13.2051 23.9023 16.1348 22.2227 18.8887C20.7578 21.291 19.0684 23.5566 17.1543 25.6855C12.7793 30.5293 7.91602 33.752 2.56445 35.3535C2.01758 35.5293 1.55859 35.4219 1.1875 35.0312C0.796875 34.6211 0.591797 34.1328 0.572266 33.5664C0.552734 33 0.757812 32.5312 1.1875 32.1602C1.59766 31.7695 3.59961 30.4902 7.19336 28.3223C8.15039 27.7559 9 27.1992 9.74219 26.6523C9.9375 26.5156 10.1426 26.3789 10.3574 26.2422L10.5039 26.1543L10.3574 26.2422C10.6113 26.0664 10.8555 25.8809 11.0898 25.6855C12.4766 24.5332 13.8242 23.1953 15.1328 21.6719L16.1875 20.4121V20.4414C16.168 20.4609 16.1484 20.4805 16.1289 20.5C16.1094 20.5 16.0996 20.5098 16.0996 20.5293L16.0703 20.5586L16.0996 20.5C16.3145 20.2852 16.7246 19.7383 17.3301 18.8594C19.0684 16.3398 21.0508 12.7754 23.2773 8.16602C24.4492 5.74414 25.6992 3.37109 27.0273 1.04688C27.418 0.363281 28.0039 0.0214844 28.7852 0.0214844C29.1562 0.0214844 29.5176 0.119141 29.8691 0.314453C30.5332 0.666016 30.8652 1.22266 30.8652 1.98438C30.8652 2.35547 30.7871 2.7168 30.6309 3.06836L29.4004 5.79297L29.4883 5.61719L28.9902 6.78906C28.3848 8.21484 27.8086 9.65039 27.2617 11.0957C24.3906 18.7129 21.7539 26.4082 19.3516 34.1816C18.4336 37.1113 17.4766 40.041 16.4805 42.9707C16.1484 43.9668 15.4746 44.4648 14.459 44.4648ZM36.4316 42.707C34.6934 42.707 32.9648 42.3164 31.2461 41.5352C29.2344 40.6172 27.1152 39.0254 24.8887 36.7598C22.7988 34.6309 20.7383 32.4727 18.707 30.2852C18.2773 29.8359 18.0625 29.3574 18.0625 28.8496C18.0625 28.5176 18.1602 28.1855 18.3555 27.8535C18.7266 27.1895 19.3613 26.8574 20.2598 26.8574C20.6504 26.8574 20.8457 26.8672 20.8457 26.8867H20.6992L21.4316 26.916L22.5156 26.9746C23.7656 27.0137 24.4688 27.0039 24.625 26.9453C24.7227 26.9258 24.791 26.9062 24.8301 26.8867H24.8594C24.8203 26.9062 24.7617 26.916 24.6836 26.916L25.0645 26.8574C26.1387 26.7402 27.457 26.3984 29.0195 25.832C29.0781 25.8125 29.1562 25.7734 29.2539 25.7148H29.2832L29.1074 25.7734L29.459 25.627C30.6113 25.1582 31.6953 24.582 32.7109 23.8984C33.043 23.6641 33.3848 23.4102 33.7363 23.1367L33.8828 23.0195C35.2109 21.9648 36.3145 20.8906 37.1934 19.7969L37.4277 19.5039H37.3984L37.3105 19.6211L37.5449 19.3574V19.3281C38.5801 18 39.5176 16.4375 40.3574 14.6406L40.6797 13.9375V13.9961L40.5918 14.1133L40.9727 13.1465C41.6758 11.3691 42.2031 9.58203 42.5547 7.78516C42.7695 6.71094 42.877 6.03711 42.877 5.76367C42.877 5.72461 42.8867 5.70508 42.9062 5.70508L42.877 5.88086V5.79297C42.877 5.61719 42.8867 5.4707 42.9062 5.35352L43.0234 4.41602C43.1797 3.18555 43.8828 2.52148 45.1328 2.42383C45.7188 2.38477 46.2168 2.56055 46.627 2.95117C47.0371 3.3418 47.2227 3.83008 47.1836 4.41602C46.9492 7.56055 46.3047 10.627 45.25 13.6152C43.2383 19.3184 39.9473 23.7715 35.377 26.9746C31.5293 29.6895 27.3301 31.0469 22.7793 31.0469C21.7246 31.0469 20.6602 30.9785 19.5859 30.8418L21.6367 27.4141L23.6582 29.4941C27.2324 33.2246 29.5957 35.5488 30.748 36.4668C30.7676 36.4863 30.7969 36.5156 30.8359 36.5547C30.875 36.5742 30.9141 36.584 30.9531 36.584V36.6133L31.2461 36.8184C32.5352 37.6777 33.2969 38.1172 33.5312 38.1367H33.5898C33.5508 38.1367 33.5312 38.127 33.5312 38.1074L33.6484 38.166C33.7852 38.2246 34.2539 38.3418 35.0547 38.5176C35.1328 38.5371 35.2012 38.5566 35.2598 38.5762C35.3184 38.5957 35.3672 38.6055 35.4062 38.6055H35.2891L35.1426 38.5762C35.2988 38.6152 35.9043 38.625 36.959 38.6055C37.0566 38.6055 37.2324 38.5957 37.4863 38.5762H37.5742L37.3105 38.6055L37.457 38.5762C37.5547 38.5762 37.623 38.5762 37.6621 38.5762C37.9746 38.5566 38.5215 38.4199 39.3027 38.166L39.4785 38.1074C39.6543 38.0488 39.8105 37.9805 39.9473 37.9023C39.9473 37.9219 39.9277 37.9414 39.8887 37.9609C39.8691 37.9609 39.8496 37.9707 39.8301 37.9902C39.8105 37.9902 39.791 37.9902 39.7715 37.9902L39.7129 38.0195L40.1523 37.8145C40.7188 37.541 41.2754 37.2188 41.8223 36.8477L42.1152 36.6426C42.1152 36.7012 42.0859 36.7402 42.0273 36.7598C41.9883 36.7598 41.959 36.7598 41.9395 36.7598L41.9102 36.7891L42.1738 36.6133C42.4277 36.457 42.8086 36.0957 43.3164 35.5293L43.6387 35.1777V35.1484L43.4922 35.2949C43.5898 35.1973 43.6777 35.0801 43.7559 34.9434L43.8438 34.8262C44.0977 34.416 44.3418 33.9863 44.5762 33.5371L44.6348 33.4199H44.6641L44.5176 33.625C44.5762 33.5664 44.6152 33.498 44.6348 33.4199L44.8984 32.5996C45.0547 32.0527 45.377 31.6523 45.8652 31.3984C46.1973 31.2227 46.5488 31.1348 46.9199 31.1348C47.7207 31.1348 48.3164 31.4766 48.707 32.1602C48.8828 32.4922 48.9707 32.834 48.9707 33.1855C48.9707 33.3613 48.9414 33.5371 48.8828 33.7129C48.1797 36.1543 46.793 38.166 44.7227 39.748C42.1836 41.7207 39.4199 42.707 36.4316 42.707ZM51.2711 43.0586C49.9625 43.0586 48.6441 42.7656 47.316 42.1797C45.9879 41.5938 44.943 40.6172 44.1813 39.25C43.6148 38.0781 43.3316 36.877 43.3316 35.6465C43.3316 33.8691 43.8199 31.9453 44.7965 29.875C46.0465 27.2578 47.6676 24.8945 49.6598 22.7852C51.9254 20.2852 54.3961 18.9961 57.0719 18.918C58.3805 18.918 59.6305 19.2402 60.8219 19.8848C62.0328 20.5293 62.941 21.4473 63.5465 22.6387C63.9176 23.498 64.1031 24.3379 64.1031 25.1582C64.1031 27.1309 63.1559 29.0059 61.2613 30.7832C58.7809 33.0293 55.8902 34.1523 52.5895 34.1523C50.6168 34.1523 48.7223 33.6934 46.9059 32.7754C46.2223 32.4043 45.8805 31.7988 45.8805 30.959C45.8805 30.5879 45.9684 30.2266 46.1441 29.875C46.5348 29.2109 47.1402 28.8789 47.9605 28.8789C48.3121 28.8789 48.7516 29.0059 49.2789 29.2598L49.6012 29.4062C49.5816 29.4062 49.5621 29.4062 49.5426 29.4062C49.523 29.4062 49.4938 29.3965 49.4547 29.377C49.4156 29.3574 49.3961 29.3379 49.3961 29.3184L49.6305 29.4062C50.0406 29.6016 50.5191 29.7383 51.066 29.8164C51.1832 29.875 51.3395 29.9043 51.5348 29.9043L51.3297 29.875C51.4273 29.9141 51.818 29.9336 52.5016 29.9336C53.1656 29.9336 53.6148 29.9141 53.8492 29.875C53.7516 29.9141 53.6832 29.9336 53.6441 29.9336H53.6148L53.8199 29.875C53.859 29.875 53.8883 29.8652 53.9078 29.8457C54.8453 29.6895 55.568 29.4844 56.0758 29.2305L55.8414 29.3184C56.1734 29.2012 56.5641 29.0059 57.0133 28.7324C57.4625 28.459 57.7164 28.293 57.775 28.2344L57.9215 28.1172L57.7457 28.2637L57.8629 28.1758C58.7027 27.3359 59.1227 26.916 59.1227 26.916L59.2105 26.7988L59.0934 26.9746V26.916C59.1715 26.7988 59.2301 26.7207 59.2691 26.6816C59.3082 26.623 59.3473 26.5547 59.3863 26.4766C59.484 26.3398 59.5621 26.2129 59.6207 26.0957C59.6988 25.959 59.7379 25.8906 59.7379 25.8906C59.7379 25.8711 59.7477 25.8516 59.7672 25.832L59.7086 25.9492L59.8844 25.4219L59.9137 25.2461V24.8652L59.943 24.8359L59.9723 24.8652C59.9723 24.8848 59.9723 24.9043 59.9723 24.9238C59.9723 24.9434 59.982 24.9629 60.0016 24.9824C60.0016 25.0215 59.9918 25.041 59.9723 25.041C59.9527 25.0215 59.9332 24.9922 59.9137 24.9531C59.9137 24.9141 59.9039 24.875 59.8844 24.8359C59.8844 24.7969 59.8746 24.7578 59.8551 24.7188C59.8355 24.6797 59.8258 24.6406 59.8258 24.6016C59.8258 24.5625 59.8355 24.543 59.8551 24.543L59.943 24.748L59.8551 24.6602C59.777 24.5039 59.7281 24.4258 59.7086 24.4258C59.7086 24.4062 59.6988 24.377 59.6793 24.3379C59.6598 24.2988 59.6207 24.2402 59.5621 24.1621L59.7086 24.3086L59.0934 23.7227L59.2984 23.8984L58.3902 23.3418V23.3125L58.5953 23.459L58.3609 23.3418C57.9313 23.2246 57.6676 23.166 57.5699 23.166C57.4918 23.1465 57.4527 23.127 57.4527 23.1074L57.482 23.0781L57.6871 23.166C57.609 23.127 57.5113 23.1074 57.3941 23.1074C57.277 23.1074 57.1695 23.1172 57.0719 23.1367H56.8082C56.691 23.1367 56.6324 23.1465 56.6324 23.166C56.6324 23.127 56.7008 23.1074 56.8375 23.1074C56.7984 23.1465 56.6715 23.1855 56.4566 23.2246C56.2418 23.2637 56.0563 23.3125 55.9 23.3711C55.7633 23.4297 55.6363 23.4785 55.5191 23.5176L55.6949 23.4297L55.5191 23.5176C54.9527 23.8301 54.5914 24.0352 54.4352 24.1328L54.2301 24.2793L54.1422 24.3672C54.1422 24.3477 54.1617 24.3281 54.2008 24.3086C54.2398 24.2891 54.2691 24.2695 54.2887 24.25L53.1754 25.2461C52.6676 25.7344 52.0914 26.3789 51.4469 27.1797L51.3004 27.3555H51.3297C51.3297 27.3164 51.359 27.2676 51.4176 27.209L51.1246 27.6191C50.2848 28.7129 49.4449 30.0508 48.6051 31.6328L48.5172 31.8965C48.4391 32.0137 48.4 32.1016 48.4 32.1602L48.4293 32.043C48.0582 32.9414 47.7945 33.8398 47.6383 34.7383L47.609 34.9141L47.6383 34.7676C47.5992 35.0996 47.5797 35.4316 47.5797 35.7637V36.1445C47.5797 36.3594 47.648 36.6719 47.7848 37.082C47.7848 37.0234 47.775 36.9746 47.7555 36.9355L47.8727 37.1992C47.9313 37.3555 48.0387 37.5117 48.1949 37.668L48.0484 37.5215C48.2047 37.6973 48.3707 37.8535 48.5465 37.9902L48.6637 38.1367C48.6637 38.1172 48.6539 38.1074 48.6344 38.1074C48.6344 38.0879 48.5953 38.0488 48.5172 37.9902L49.0445 38.3418C49.1227 38.3613 49.191 38.3906 49.2496 38.4297C49.3082 38.4688 49.3473 38.498 49.3668 38.5176C49.3863 38.5176 49.3961 38.5273 49.3961 38.5469L49.3375 38.4883C49.2594 38.4688 49.2203 38.4492 49.2203 38.4297C49.7672 38.6055 50.0504 38.6934 50.0699 38.6934C50.109 38.6934 50.1676 38.7031 50.2457 38.7227C50.3238 38.7422 50.3824 38.7617 50.4215 38.7812C50.4605 38.7812 50.4898 38.7812 50.5094 38.7812H50.3922C50.7438 38.8203 51.1051 38.8398 51.4762 38.8398L52.5309 38.752H52.4723L53.0582 38.6641C54.3277 38.3711 55.4898 38.0391 56.5445 37.668L57.4527 37.3164L57.8043 37.1699C57.7848 37.1895 57.7555 37.1992 57.7164 37.1992C57.6969 37.1992 57.6773 37.2188 57.6578 37.2578C57.6578 37.2383 57.7164 37.209 57.8336 37.1699C59.5133 36.4277 61.2809 35.1973 63.1363 33.4785C64.9918 31.7402 66.3492 30.4414 67.2086 29.582C67.6383 29.1719 68.1363 28.9668 68.7027 28.9668C69.2496 28.9863 69.7281 29.1914 70.1383 29.582C70.568 29.9727 70.7828 30.4414 70.7828 30.9883C70.7828 31.0273 70.773 31.1934 70.7535 31.4863C70.7535 31.7793 70.5582 32.1406 70.1676 32.5703C66.1441 37.2578 61.7105 40.4121 56.8668 42.0332C54.8355 42.7168 52.9703 43.0586 51.2711 43.0586ZM73.6398 43.0586C72.3312 43.0586 71.0129 42.7656 69.6848 42.1797C68.3566 41.5938 67.3117 40.6172 66.55 39.25C65.9836 38.0781 65.7004 36.877 65.7004 35.6465C65.7004 33.8691 66.1887 31.9453 67.1652 29.875C68.4152 27.2578 70.0363 24.8945 72.0285 22.7852C74.2941 20.2852 76.7648 18.9961 79.4406 18.918C80.7492 18.918 81.9992 19.2402 83.1906 19.8848C84.4016 20.5293 85.3098 21.4473 85.9152 22.6387C86.2863 23.498 86.4719 24.3379 86.4719 25.1582C86.4719 27.1309 85.5246 29.0059 83.6301 30.7832C81.1496 33.0293 78.259 34.1523 74.9582 34.1523C72.9855 34.1523 71.091 33.6934 69.2746 32.7754C68.591 32.4043 68.2492 31.7988 68.2492 30.959C68.2492 30.5879 68.3371 30.2266 68.5129 29.875C68.9035 29.2109 69.509 28.8789 70.3293 28.8789C70.6809 28.8789 71.1203 29.0059 71.6477 29.2598L71.9699 29.4062C71.9504 29.4062 71.9309 29.4062 71.9113 29.4062C71.8918 29.4062 71.8625 29.3965 71.8234 29.377C71.7844 29.3574 71.7648 29.3379 71.7648 29.3184L71.9992 29.4062C72.4094 29.6016 72.8879 29.7383 73.4348 29.8164C73.552 29.875 73.7082 29.9043 73.9035 29.9043L73.6984 29.875C73.7961 29.9141 74.1867 29.9336 74.8703 29.9336C75.5344 29.9336 75.9836 29.9141 76.218 29.875C76.1203 29.9141 76.052 29.9336 76.0129 29.9336H75.9836L76.1887 29.875C76.2277 29.875 76.257 29.8652 76.2766 29.8457C77.2141 29.6895 77.9367 29.4844 78.4445 29.2305L78.2102 29.3184C78.5422 29.2012 78.9328 29.0059 79.382 28.7324C79.8312 28.459 80.0852 28.293 80.1437 28.2344L80.2902 28.1172L80.1145 28.2637L80.2316 28.1758C81.0715 27.3359 81.4914 26.916 81.4914 26.916L81.5793 26.7988L81.4621 26.9746V26.916C81.5402 26.7988 81.5988 26.7207 81.6379 26.6816C81.677 26.623 81.716 26.5547 81.7551 26.4766C81.8527 26.3398 81.9309 26.2129 81.9895 26.0957C82.0676 25.959 82.1066 25.8906 82.1066 25.8906C82.1066 25.8711 82.1164 25.8516 82.1359 25.832L82.0773 25.9492L82.2531 25.4219L82.2824 25.2461V24.8652L82.3117 24.8359L82.341 24.8652C82.341 24.8848 82.341 24.9043 82.341 24.9238C82.341 24.9434 82.3508 24.9629 82.3703 24.9824C82.3703 25.0215 82.3605 25.041 82.341 25.041C82.3215 25.0215 82.302 24.9922 82.2824 24.9531C82.2824 24.9141 82.2727 24.875 82.2531 24.8359C82.2531 24.7969 82.2434 24.7578 82.2238 24.7188C82.2043 24.6797 82.1945 24.6406 82.1945 24.6016C82.1945 24.5625 82.2043 24.543 82.2238 24.543L82.3117 24.748L82.2238 24.6602C82.1457 24.5039 82.0969 24.4258 82.0773 24.4258C82.0773 24.4062 82.0676 24.377 82.048 24.3379C82.0285 24.2988 81.9895 24.2402 81.9309 24.1621L82.0773 24.3086L81.4621 23.7227L81.6672 23.8984L80.759 23.3418V23.3125L80.9641 23.459L80.7297 23.3418C80.3 23.2246 80.0363 23.166 79.9387 23.166C79.8605 23.1465 79.8215 23.127 79.8215 23.1074L79.8508 23.0781L80.0559 23.166C79.9777 23.127 79.8801 23.1074 79.7629 23.1074C79.6457 23.1074 79.5383 23.1172 79.4406 23.1367H79.177C79.0598 23.1367 79.0012 23.1465 79.0012 23.166C79.0012 23.127 79.0695 23.1074 79.2062 23.1074C79.1672 23.1465 79.0402 23.1855 78.8254 23.2246C78.6105 23.2637 78.425 23.3125 78.2687 23.3711C78.132 23.4297 78.0051 23.4785 77.8879 23.5176L78.0637 23.4297L77.8879 23.5176C77.3215 23.8301 76.9602 24.0352 76.8039 24.1328L76.5988 24.2793L76.5109 24.3672C76.5109 24.3477 76.5305 24.3281 76.5695 24.3086C76.6086 24.2891 76.6379 24.2695 76.6574 24.25L75.5441 25.2461C75.0363 25.7344 74.4602 26.3789 73.8156 27.1797L73.6691 27.3555H73.6984C73.6984 27.3164 73.7277 27.2676 73.7863 27.209L73.4934 27.6191C72.6535 28.7129 71.8137 30.0508 70.9738 31.6328L70.8859 31.8965C70.8078 32.0137 70.7687 32.1016 70.7687 32.1602L70.798 32.043C70.427 32.9414 70.1633 33.8398 70.007 34.7383L69.9777 34.9141L70.007 34.7676C69.968 35.0996 69.9484 35.4316 69.9484 35.7637V36.1445C69.9484 36.3594 70.0168 36.6719 70.1535 37.082C70.1535 37.0234 70.1437 36.9746 70.1242 36.9355L70.2414 37.1992C70.3 37.3555 70.4074 37.5117 70.5637 37.668L70.4172 37.5215C70.5734 37.6973 70.7395 37.8535 70.9152 37.9902L71.0324 38.1367C71.0324 38.1172 71.0227 38.1074 71.0031 38.1074C71.0031 38.0879 70.9641 38.0488 70.8859 37.9902L71.4133 38.3418C71.4914 38.3613 71.5598 38.3906 71.6184 38.4297C71.677 38.4688 71.716 38.498 71.7355 38.5176C71.7551 38.5176 71.7648 38.5273 71.7648 38.5469L71.7062 38.4883C71.6281 38.4688 71.5891 38.4492 71.5891 38.4297C72.1359 38.6055 72.4191 38.6934 72.4387 38.6934C72.4777 38.6934 72.5363 38.7031 72.6145 38.7227C72.6926 38.7422 72.7512 38.7617 72.7902 38.7812C72.8293 38.7812 72.8586 38.7812 72.8781 38.7812H72.7609C73.1125 38.8203 73.4738 38.8398 73.8449 38.8398L74.8996 38.752H74.841L75.427 38.6641C76.6965 38.3711 77.8586 38.0391 78.9133 37.668L79.8215 37.3164L80.173 37.1699C80.1535 37.1895 80.1242 37.1992 80.0852 37.1992C80.0656 37.1992 80.0461 37.2188 80.0266 37.2578C80.0266 37.2383 80.0852 37.209 80.2023 37.1699C81.882 36.4277 83.6496 35.1973 85.5051 33.4785C87.3605 31.7402 88.718 30.4414 89.5773 29.582C90.007 29.1719 90.5051 28.9668 91.0715 28.9668C91.6184 28.9863 92.0969 29.1914 92.507 29.582C92.9367 29.9727 93.1516 30.4414 93.1516 30.9883C93.1516 31.0273 93.1418 31.1934 93.1223 31.4863C93.1223 31.7793 92.927 32.1406 92.5363 32.5703C88.5129 37.2578 84.0793 40.4121 79.2355 42.0332C77.2043 42.7168 75.3391 43.0586 73.6398 43.0586ZM83.2937 64.9141C82.4734 64.9141 81.8875 64.5625 81.5359 63.8594C81.3602 63.5078 81.2723 63.1465 81.2723 62.7754C81.2723 62.5996 81.2918 62.4238 81.3309 62.248C83.323 52.8145 85.6961 43.498 88.45 34.2988C90.4031 27.7168 91.8777 22.6582 92.8738 19.123C93.0301 18.5566 93.3523 18.1367 93.8406 17.8633C94.1727 17.6875 94.534 17.5996 94.9246 17.5996C95.7449 17.5996 96.3406 17.9512 96.7117 18.6543C96.8875 18.9863 96.9754 19.3379 96.9754 19.709C96.9754 19.8848 96.9559 20.0703 96.9168 20.2656C96.5652 21.5742 95.3738 25.627 93.3426 32.4238C90.1004 43.4199 87.4441 53.7324 85.3738 63.3613C85.2371 63.9473 84.9148 64.3672 84.407 64.6211C84.0555 64.8164 83.6844 64.9141 83.2937 64.9141ZM94.4559 44.8164C93.0496 44.8164 91.7801 44.3379 90.6473 43.3809C89.573 42.4824 89.0359 41.3691 89.0359 40.041C89.0359 38.752 89.5926 37.5703 90.7059 36.4961C92.2293 35.0117 94.1238 33.791 96.3895 32.834C99.7098 31.7012 102.747 30.8906 105.501 30.4023C108.274 29.8945 111.663 29.2109 115.667 28.3516C116.233 28.2148 116.702 28.3613 117.073 28.791C117.464 29.2012 117.669 29.6895 117.688 30.2559C117.708 30.8613 117.503 31.3594 117.073 31.75C116.663 32.1211 116.175 32.3164 115.608 32.3359C113.577 32.9023 110.833 33.5273 107.376 34.2109L106.028 34.4746C104.095 34.8848 102.63 35.2168 101.634 35.4707C100.657 35.7246 99.6805 36.0371 98.7039 36.4082L98.6453 36.4375C98.5281 36.4961 98.4402 36.5352 98.3816 36.5547C98.3426 36.5547 98.3133 36.5645 98.2937 36.584C98.3133 36.5645 98.3621 36.5449 98.4402 36.5254L98.0887 36.6719C96.741 37.2773 95.5203 37.9902 94.4266 38.8105L94.368 38.8398C94.368 38.8594 94.2898 38.9375 94.1336 39.0742C93.9773 39.1914 93.8211 39.3281 93.6648 39.4844L93.4598 39.6895L93.4305 39.7188L93.5477 39.6016L93.2254 40.041L93.3133 39.8652L93.2254 40.1875L93.2547 40.0117V40.1582L93.2254 39.9238L93.2547 40.1875V40.0703L93.4012 40.2754L93.2254 40.0996C93.3426 40.2559 93.4207 40.334 93.4598 40.334C93.5184 40.3926 93.5477 40.4316 93.5477 40.4512H93.577L93.4305 40.334L93.7527 40.5098H93.6355L93.9285 40.5684L94.1629 40.5977C94.1629 40.6172 94.1043 40.627 93.9871 40.627L94.0164 40.5977H94.2215H94.8367L94.6902 40.627C95.198 40.5293 95.6961 40.3926 96.1844 40.2168L96.6531 40.041L96.5945 40.0703L96.448 40.1289L96.6531 40.041C97.8641 39.4355 98.8602 38.8398 99.6414 38.2539L99.4656 38.3711L99.4949 38.3418C99.534 38.3418 99.6121 38.2832 99.7293 38.166C100.784 37.2871 101.604 36.4375 102.19 35.6172C102.151 35.6953 102.122 35.7344 102.102 35.7344L102.454 35.2656C103.157 34.25 103.733 33.2051 104.182 32.1309L104.095 32.3652C104.095 32.3457 104.095 32.3262 104.095 32.3066C104.114 32.2871 104.134 32.248 104.153 32.1895C104.192 32.1309 104.3 31.8477 104.475 31.3398C104.768 30.4414 104.964 29.6602 105.061 28.9961C105.081 28.8398 105.11 28.7031 105.149 28.5859L105.179 28.498L105.149 28.6738C105.247 28.0098 105.296 27.3457 105.296 26.6816C105.296 26.2715 105.266 25.8613 105.208 25.4512C105.188 25.2559 105.179 25.0898 105.179 24.9531V24.7773V24.8652L105.208 25.0117L105.032 24.25L104.768 23.1074L104.827 23.1367V23.2246C104.807 23.2246 104.778 23.2051 104.739 23.166C104.72 23.127 104.69 23.0684 104.651 22.9902C104.612 22.9121 104.573 22.8438 104.534 22.7852C104.573 22.8242 104.593 22.8535 104.593 22.873C104.612 22.873 104.622 22.8828 104.622 22.9023L104.593 22.873C104.554 22.873 104.514 22.8438 104.475 22.7852C104.436 22.7266 104.407 22.6875 104.387 22.668L104.417 22.6973L103.977 22.4629H104.065L104.124 22.5215L104.007 22.4922C103.87 22.4531 103.733 22.4238 103.596 22.4043C103.479 22.3848 103.411 22.3652 103.391 22.3457H103.333C103.391 22.3652 103.46 22.375 103.538 22.375H102.688C102.63 22.375 102.542 22.375 102.425 22.375L102.542 22.3457C102.151 22.4043 101.731 22.5117 101.282 22.668L100.755 22.8438L100.93 22.7559C100.93 22.8145 100.813 22.9023 100.579 23.0195C99.8758 23.3711 99.4168 23.625 99.202 23.7812L99.0262 23.8984L99.1727 23.7812C98.157 24.6602 97.493 25.3047 97.1805 25.7148L97.034 25.9199L97.0633 25.8906C97.0633 25.8711 97.073 25.8613 97.0926 25.8613C97.1121 25.8418 97.1316 25.8223 97.1512 25.8027V25.7734L96.4773 26.7402C95.6766 27.9121 94.7098 29.7188 93.577 32.1602C93.2449 32.8633 92.659 33.2148 91.8191 33.2148C91.4285 33.2148 91.0672 33.1172 90.7352 32.9219C90.0711 32.5508 89.7391 31.9453 89.7391 31.1055C89.7391 30.3047 90.6277 28.3613 92.4051 25.2754C94.3387 21.9551 96.9656 19.709 100.286 18.5371C101.145 18.2441 102.005 18.0977 102.864 18.0977C103.723 18.0977 104.573 18.2637 105.413 18.5957C107.288 19.2988 108.479 20.6172 108.987 22.5508C109.319 23.8008 109.485 25.0801 109.485 26.3887C109.485 29.2207 108.919 31.9062 107.786 34.4453C106.126 38.1758 103.479 41.0957 99.8465 43.2051C98.0105 44.2793 96.2137 44.8164 94.4559 44.8164Z" fill="#077DF9"/>
</svg>
