<svg width="46" height="47" viewBox="0 0 46 47" fill="none" xmlns="http://www.w3.org/2000/svg">
<rect y="0.6604" width="45.6604" height="45.6604" rx="22.8302" fill="#0E185F" fill-opacity="0.5"/>
<rect width="25.6604" height="25.6604" transform="translate(10 10.6604)" fill="#878CAF"/>
<path d="M15.0787 12.665C13.8239 12.665 12.8066 13.6822 12.8066 14.937C12.8066 16.1918 13.8239 17.209 15.0787 17.209C16.3335 17.209 17.3507 16.1918 17.3507 14.937C17.3507 13.6822 16.3335 12.665 15.0787 12.665Z" fill="white"/>
<path d="M12.9403 19.0801C12.8665 19.0801 12.8066 19.1399 12.8066 19.2137V33.1131C12.8066 33.1869 12.8665 33.2467 12.9403 33.2467H17.217C17.2908 33.2467 17.3507 33.1869 17.3507 33.1131V19.2137C17.3507 19.1399 17.2908 19.0801 17.217 19.0801H12.9403Z" fill="white"/>
<path d="M19.89 19.0801C19.8162 19.0801 19.7563 19.1399 19.7563 19.2137V33.1131C19.7563 33.1869 19.8162 33.2467 19.89 33.2467H24.1667C24.2405 33.2467 24.3004 33.1869 24.3004 33.1131V25.6288C24.3004 25.0971 24.5116 24.5872 24.8875 24.2113C25.2635 23.8353 25.7734 23.6241 26.3051 23.6241C26.8368 23.6241 27.3467 23.8353 27.7226 24.2113C28.0986 24.5872 28.3098 25.0971 28.3098 25.6288V33.1131C28.3098 33.1869 28.3696 33.2467 28.4434 33.2467H32.7202C32.794 33.2467 32.8538 33.1869 32.8538 33.1131V23.897C32.8538 21.3024 30.5972 19.2725 28.0156 19.5072C27.2194 19.5796 26.4323 19.7775 25.6972 20.0925L24.3004 20.6912V19.2137C24.3004 19.1399 24.2405 19.0801 24.1667 19.0801H19.89Z" fill="white"/>
</svg>
