<svg width="299" height="59" viewBox="0 0 299 59" fill="none" xmlns="http://www.w3.org/2000/svg">
<path d="M20.9004 58.0039C20.3145 58.0039 19.7188 57.916 19.1133 57.7402C17.5898 57.2129 16.5254 56.2754 15.9199 54.9277C15.5488 54.1074 15.3633 53.248 15.3633 52.3496C15.3633 50.3379 16.1738 48.5703 17.7949 47.0469C18.8496 46.0312 19.9727 45.1328 21.1641 44.3516C28.6445 39.1953 36.5059 35.7773 44.748 34.0977L45.2754 34.0684C46.2715 34.0684 46.9648 34.5469 47.3555 35.5039C47.4141 35.6992 47.4434 35.8848 47.4434 36.0605C47.4434 36.4121 47.3164 36.8027 47.0625 37.2324C46.8281 37.6426 46.4375 37.916 45.8906 38.0527C42.3945 38.7363 39.0156 39.7422 35.7539 41.0703C35.7539 41.0898 35.7344 41.1094 35.6953 41.1289C35.6758 41.1289 35.6562 41.1289 35.6367 41.1289C35.6367 41.1289 35.6074 41.1387 35.5488 41.1582H35.5781L33.5859 42.0371C29.4258 43.9316 25.6367 46.1387 22.2188 48.6582L22.3359 48.5703C22.2773 48.6094 22.2383 48.6289 22.2188 48.6289C22.1992 48.6484 22.1797 48.668 22.1602 48.6875C22.1602 48.707 22.1406 48.7266 22.1016 48.7461C21.2617 49.4102 20.7051 49.9277 20.4316 50.2988C20.3535 50.377 20.3145 50.4258 20.3145 50.4453V50.416L20.4023 50.2988C20.168 50.5918 19.9434 50.9531 19.7285 51.3828L19.8164 51.2363C19.8164 51.2754 19.7871 51.3535 19.7285 51.4707C19.6895 51.5879 19.6504 51.7051 19.6113 51.8223L19.5527 52.0859C19.5332 52.0859 19.5234 52.0762 19.5234 52.0566L19.5527 51.9688V51.8516L19.582 52.0273C19.543 52.1055 19.5234 52.2715 19.5234 52.5254C19.5234 52.6426 19.5332 52.7305 19.5527 52.7891V52.6133V52.6719C19.5527 52.7109 19.5625 52.7402 19.582 52.7598L19.6992 53.2871C19.6797 53.2676 19.6699 53.248 19.6699 53.2285C19.6699 53.209 19.6602 53.1602 19.6406 53.082C19.6406 53.1602 19.6699 53.2383 19.7285 53.3164C19.7871 53.4141 19.8262 53.4629 19.8457 53.4629C19.8652 53.4824 19.9043 53.5312 19.9629 53.6094L19.9336 53.5508C19.9141 53.5312 19.8652 53.4922 19.7871 53.4336C19.8457 53.4727 19.8848 53.5117 19.9043 53.5508C19.9434 53.5898 19.9824 53.6289 20.0215 53.668C20.0605 53.707 20.0898 53.7266 20.1094 53.7266V53.7559C20.0898 53.7559 20.0703 53.7461 20.0508 53.7266C20.0508 53.7266 20.0215 53.707 19.9629 53.668V53.6387L20.1387 53.6973C20.1973 53.7559 20.2461 53.7949 20.2852 53.8145C20.3438 53.834 20.373 53.8535 20.373 53.873V53.8438L20.1973 53.7852H20.2852C20.3242 53.8047 20.373 53.8242 20.4316 53.8438C20.5098 53.8828 20.5684 53.9023 20.6074 53.9023C20.666 53.9219 20.7051 53.9316 20.7246 53.9316H20.5195V53.9023C20.6172 53.9023 20.6855 53.8926 20.7246 53.873H21.0176L21.0762 53.9023C21.0762 53.9219 21.0469 53.9316 20.9883 53.9316C20.9492 53.9512 20.9199 53.9609 20.9004 53.9609C20.8613 53.9609 20.8418 53.9512 20.8418 53.9316L20.8711 53.9023H20.9883L21.7793 53.6973L22.0137 53.5801H22.0723L21.9258 53.6387L22.2188 53.4922C22.6094 53.3359 23.0488 53.0625 23.5371 52.6719L23.3906 52.7891C23.7422 52.5156 24.2012 52.0859 24.7676 51.5L25.6172 50.5039L25.8516 50.2402V50.2109L25.793 50.3281V50.2988C25.8906 50.1816 25.9492 50.1035 25.9688 50.0645C25.9883 50.0254 26.0859 49.8789 26.2617 49.625C26.457 49.3906 26.6328 49.1562 26.7891 48.9219C27.9609 47.3594 29.0449 45.4453 30.041 43.1797L30.1582 42.9453L30.0703 43.0625L30.6855 41.5391C31.8379 38.6289 32.7559 35.1816 33.4395 31.1973C33.6348 29.9863 33.7324 29.3223 33.7324 29.2051L33.7617 29.0879L33.791 28.8828C33.9668 27.7109 34.123 26.2363 34.2598 24.459L38.1855 25.4844C36.2324 28.9023 34.3086 31.6562 32.4141 33.7461C30.8516 35.4453 29.0059 36.7637 26.877 37.7012C24.9824 38.541 23.0293 38.9609 21.0176 38.9609C20.7246 38.9609 19.9238 38.9219 18.6152 38.8438C17.3262 38.7656 15.7441 37.9551 13.8691 36.4121C10.998 33.873 9.5625 30.4648 9.5625 26.1875C9.5625 23.7656 9.91406 21.2656 10.6172 18.6875C11.7695 14.3125 14.084 10.6016 17.5605 7.55469C19.3184 6.01172 21.3008 4.84961 23.5078 4.06836C24.582 3.69727 25.6562 3.51172 26.7305 3.51172C27.5508 3.51172 28.6348 3.69727 29.9824 4.06836C31.3301 4.41992 32.4922 5.50391 33.4688 7.32031C34.2109 8.86328 34.582 10.416 34.582 11.9785C34.582 12.7598 34.3867 13.9414 33.9961 15.5234C33.625 17.1055 32.6777 18.9414 31.1543 21.0312C29.6309 23.1211 27.9707 24.918 26.1738 26.4219C22.9316 29.1562 19.3184 31.3047 15.334 32.8672C11.3691 34.4102 7.25781 35.3477 3 35.6797C2.375 35.6797 1.87695 35.4746 1.50586 35.0645C1.13477 34.6543 0.929688 34.1758 0.890625 33.6289C0.890625 33.043 1.0957 32.5742 1.50586 32.2227C1.91602 31.8516 2.41406 31.6367 3 31.5781L4.81641 31.4023L4.875 31.373C5.03125 31.373 5.12891 31.3633 5.16797 31.3438H5.28516C7.14062 31.0508 8.97656 30.6406 10.793 30.1133C11.75 29.8203 12.8828 29.4199 14.1914 28.9121L14.3672 28.8242L14.1621 28.9121C14.2988 28.873 14.4062 28.8242 14.4844 28.7656C14.8945 28.6094 15.2949 28.4336 15.6855 28.2383C17.7754 27.2617 19.8066 26.0703 21.7793 24.6641L21.9258 24.5469L21.75 24.6641H21.7793L21.9551 24.5176C22.873 23.8145 23.7422 23.0625 24.5625 22.2617C25.3828 21.4609 26.1641 20.6113 26.9062 19.7129C26.8477 19.7715 26.8184 19.8105 26.8184 19.8301H26.7891H26.8184L27.7852 18.4824C28.1562 17.9355 28.7324 16.9492 29.5137 15.5234L29.7188 15.1133H29.6895L29.6016 15.3184L29.6895 15.1133C29.6895 15.0742 29.6992 15.0449 29.7188 15.0254C29.7383 15.0059 29.748 14.9863 29.748 14.9668C30.0801 13.7949 30.2461 13.1504 30.2461 13.0332C30.2461 12.9941 30.2559 12.9648 30.2754 12.9453L30.2461 13.0625L30.3047 11.8906L30.2754 10.8945L30.2461 10.6895L30.2754 10.7188V10.9531C30.2949 10.9531 30.3047 10.9629 30.3047 10.9824L30.2754 11.0117L30.2461 10.7188C30.168 10.3672 30.0703 10.0156 29.9531 9.66406V9.63477C29.9336 9.5957 29.9238 9.56641 29.9238 9.54688C29.9238 9.52734 29.8945 9.45898 29.8359 9.3418L29.9531 9.57617V9.63477H29.9824C29.9824 9.61523 29.9727 9.60547 29.9531 9.60547C29.9531 9.60547 29.9434 9.58594 29.9238 9.54688C29.9043 9.50781 29.8262 9.37109 29.6895 9.13672C29.5723 8.90234 29.4844 8.75586 29.4258 8.69727C29.3672 8.63867 29.3379 8.58984 29.3379 8.55078L29.3086 8.52148L29.4551 8.69727C29.3965 8.69727 29.3281 8.61914 29.25 8.46289L29.0156 8.25781C28.8789 8.16016 28.8105 8.0918 28.8105 8.05273C28.8105 8.07227 28.8594 8.11133 28.957 8.16992L29.0449 8.25781L28.9863 8.19922C28.9473 8.17969 28.918 8.16992 28.8984 8.16992C28.8789 8.15039 28.8691 8.13086 28.8691 8.11133C28.5566 7.93555 28.332 7.82812 28.1953 7.78906L28.166 7.73047H28.2246C28.2832 7.78906 28.332 7.81836 28.3711 7.81836L28.4297 7.84766L27.668 7.64258L27.375 7.58398H27.5801L27.668 7.61328L26.7012 7.58398L26.0273 7.61328L25.9395 7.64258L26.0859 7.61328L24.8262 7.93555C24.5332 8.0332 24.3867 8.0918 24.3867 8.11133L24.4746 8.05273C23.7715 8.38477 23.0684 8.75586 22.3652 9.16602L21.0762 10.0449H21.0469L21.1641 9.95703H21.1934L20.8418 10.2207C19.6309 11.2949 18.7715 12.1348 18.2637 12.7402C18.2246 12.7988 18.1758 12.8574 18.1172 12.916C18.0781 12.9551 18.0488 12.9941 18.0293 13.0332C18.0098 13.0723 17.9902 13.0918 17.9707 13.0918L18.0293 13.0039C17.3066 13.9414 16.6621 14.9473 16.0957 16.0215C15.8613 16.4121 15.7051 16.7246 15.627 16.959L15.5098 17.1934L15.5391 17.1641V17.1055C15.5586 17.0664 15.5781 17.0469 15.5977 17.0469V17.0176L15.5684 17.0469V17.1055L15.4512 17.3398L15.334 17.6621C15.2363 17.877 15.1582 18.1016 15.0996 18.3359C14.6895 19.4688 14.3672 20.7773 14.1328 22.2617L13.9863 23.1113V23.2578C13.8496 24.2539 13.7812 25.2207 13.7812 26.1582C13.7812 26.5293 13.791 26.8906 13.8105 27.2422L13.8984 28.1797V28.0332L13.8691 27.9453L13.8984 28.0039C13.8984 28.1602 13.9863 28.6094 14.1621 29.3516L14.6309 30.6406C14.6113 30.6406 14.5918 30.6309 14.5723 30.6113C14.5723 30.5918 14.5625 30.5723 14.543 30.5527C14.543 30.5332 14.543 30.5137 14.543 30.4941H14.5723V30.5527L14.7188 30.8457C14.875 31.1387 15.1094 31.5391 15.4219 32.0469L15.7148 32.3691C15.7148 32.3496 15.6758 32.3203 15.5977 32.2812C15.6953 32.3594 15.7832 32.4473 15.8613 32.5449C16.1738 32.916 16.5254 33.2578 16.916 33.5703C16.916 33.5898 16.9258 33.6094 16.9453 33.6289C16.9648 33.6289 16.9844 33.6387 17.0039 33.6582C17.0234 33.6582 17.0332 33.668 17.0332 33.6875C17.0527 33.707 17.0723 33.7168 17.0918 33.7168L17.1211 33.7461V33.7168C17.0234 33.7168 16.9746 33.6875 16.9746 33.6289H16.9453C16.9844 33.6484 17.0039 33.668 17.0039 33.6875C17.0234 33.6875 17.0332 33.6973 17.0332 33.7168C17.0527 33.7168 17.0723 33.7168 17.0918 33.7168C17.1895 33.8145 17.4727 33.9805 17.9414 34.2148L18.1758 34.332C18.2539 34.3711 18.3125 34.3906 18.3516 34.3906L18.1758 34.3613C18.6055 34.5176 19.0449 34.6445 19.4941 34.7422C19.6113 34.7617 19.6992 34.7812 19.7578 34.8008C19.8359 34.8203 19.9141 34.8301 19.9922 34.8301L20.0801 34.8594L19.8457 34.8301H20.0508L20.0801 34.8594L21.1348 34.8887C21.584 34.8887 21.8672 34.8691 21.9844 34.8301C22.1406 34.8301 22.2383 34.8203 22.2773 34.8008H22.3066C22.2676 34.8203 22.209 34.8301 22.1309 34.8301C22.209 34.8301 22.2773 34.8203 22.3359 34.8008C22.9414 34.7227 23.5469 34.5859 24.1523 34.3906C24.4648 34.2734 24.6602 34.2051 24.7383 34.1855C24.8359 34.1465 24.8945 34.1172 24.9141 34.0977H24.9727L24.9141 34.127H24.8262L24.7676 34.1855C24.8652 34.127 24.9727 34.0781 25.0898 34.0391C25.4609 33.8633 26.0762 33.5215 26.9355 33.0137L27.3457 32.7207C27.4629 32.623 27.5312 32.5742 27.5508 32.5742C27.5703 32.5547 27.5801 32.5352 27.5801 32.5156C27.5996 32.4961 27.6191 32.4863 27.6387 32.4863C28.6738 31.6465 29.6309 30.6797 30.5098 29.5859L30.6562 29.4102L30.5391 29.5566C30.7734 29.2637 30.998 28.9609 31.2129 28.6484C32.4043 26.9688 33.5176 25.2207 34.5527 23.4043C34.9629 22.7402 35.5781 22.4082 36.3984 22.4082C37.043 22.4082 37.5898 22.6719 38.0391 23.1992C38.332 23.5703 38.4785 23.9902 38.4785 24.459C37.8926 31.2363 36.7402 37.0566 35.0215 41.9199C33.6543 45.8262 31.8184 49.2734 29.5137 52.2617C27.6387 54.8594 25.5391 56.6172 23.2148 57.5352C22.4531 57.8477 21.6816 58.0039 20.9004 58.0039ZM51.9117 44.0586C50.6031 44.0586 49.2848 43.7656 47.9566 43.1797C46.6285 42.5938 45.5836 41.6172 44.8219 40.25C44.2555 39.0781 43.9723 37.877 43.9723 36.6465C43.9723 34.8691 44.4605 32.9453 45.4371 30.875C46.6871 28.2578 48.3082 25.8945 50.3004 23.7852C52.566 21.2852 55.0367 19.9961 57.7125 19.918C59.0211 19.918 60.2711 20.2402 61.4625 20.8848C62.6734 21.5293 63.5816 22.4473 64.1871 23.6387C64.5582 24.498 64.7438 25.3379 64.7438 26.1582C64.7438 28.1309 63.7965 30.0059 61.902 31.7832C59.4215 34.0293 56.5309 35.1523 53.2301 35.1523C51.2574 35.1523 49.3629 34.6934 47.5465 33.7754C46.8629 33.4043 46.5211 32.7988 46.5211 31.959C46.5211 31.5879 46.609 31.2266 46.7848 30.875C47.1754 30.2109 47.7809 29.8789 48.6012 29.8789C48.9527 29.8789 49.3922 30.0059 49.9195 30.2598L50.2418 30.4062C50.2223 30.4062 50.2027 30.4062 50.1832 30.4062C50.1637 30.4062 50.1344 30.3965 50.0953 30.377C50.0563 30.3574 50.0367 30.3379 50.0367 30.3184L50.2711 30.4062C50.6813 30.6016 51.1598 30.7383 51.7066 30.8164C51.8238 30.875 51.9801 30.9043 52.1754 30.9043L51.9703 30.875C52.068 30.9141 52.4586 30.9336 53.1422 30.9336C53.8063 30.9336 54.2555 30.9141 54.4898 30.875C54.3922 30.9141 54.3238 30.9336 54.2848 30.9336H54.2555L54.4605 30.875C54.4996 30.875 54.5289 30.8652 54.5484 30.8457C55.4859 30.6895 56.2086 30.4844 56.7164 30.2305L56.482 30.3184C56.8141 30.2012 57.2047 30.0059 57.6539 29.7324C58.1031 29.459 58.357 29.293 58.4156 29.2344L58.5621 29.1172L58.3863 29.2637L58.5035 29.1758C59.3434 28.3359 59.7633 27.916 59.7633 27.916L59.8512 27.7988L59.734 27.9746V27.916C59.8121 27.7988 59.8707 27.7207 59.9098 27.6816C59.9488 27.623 59.9879 27.5547 60.027 27.4766C60.1246 27.3398 60.2027 27.2129 60.2613 27.0957C60.3395 26.959 60.3785 26.8906 60.3785 26.8906C60.3785 26.8711 60.3883 26.8516 60.4078 26.832L60.3492 26.9492L60.525 26.4219L60.5543 26.2461V25.8652L60.5836 25.8359L60.6129 25.8652C60.6129 25.8848 60.6129 25.9043 60.6129 25.9238C60.6129 25.9434 60.6227 25.9629 60.6422 25.9824C60.6422 26.0215 60.6324 26.041 60.6129 26.041C60.5934 26.0215 60.5738 25.9922 60.5543 25.9531C60.5543 25.9141 60.5445 25.875 60.525 25.8359C60.525 25.7969 60.5152 25.7578 60.4957 25.7188C60.4762 25.6797 60.4664 25.6406 60.4664 25.6016C60.4664 25.5625 60.4762 25.543 60.4957 25.543L60.5836 25.748L60.4957 25.6602C60.4176 25.5039 60.3688 25.4258 60.3492 25.4258C60.3492 25.4062 60.3395 25.377 60.3199 25.3379C60.3004 25.2988 60.2613 25.2402 60.2027 25.1621L60.3492 25.3086L59.734 24.7227L59.9391 24.8984L59.0309 24.3418V24.3125L59.2359 24.459L59.0016 24.3418C58.5719 24.2246 58.3082 24.166 58.2105 24.166C58.1324 24.1465 58.0934 24.127 58.0934 24.1074L58.1227 24.0781L58.3277 24.166C58.2496 24.127 58.152 24.1074 58.0348 24.1074C57.9176 24.1074 57.8102 24.1172 57.7125 24.1367H57.4488C57.3316 24.1367 57.273 24.1465 57.273 24.166C57.273 24.127 57.3414 24.1074 57.4781 24.1074C57.4391 24.1465 57.3121 24.1855 57.0973 24.2246C56.8824 24.2637 56.6969 24.3125 56.5406 24.3711C56.4039 24.4297 56.277 24.4785 56.1598 24.5176L56.3355 24.4297L56.1598 24.5176C55.5934 24.8301 55.232 25.0352 55.0758 25.1328L54.8707 25.2793L54.7828 25.3672C54.7828 25.3477 54.8023 25.3281 54.8414 25.3086C54.8805 25.2891 54.9098 25.2695 54.9293 25.25L53.816 26.2461C53.3082 26.7344 52.732 27.3789 52.0875 28.1797L51.941 28.3555H51.9703C51.9703 28.3164 51.9996 28.2676 52.0582 28.209L51.7652 28.6191C50.9254 29.7129 50.0855 31.0508 49.2457 32.6328L49.1578 32.8965C49.0797 33.0137 49.0406 33.1016 49.0406 33.1602L49.0699 33.043C48.6988 33.9414 48.4352 34.8398 48.2789 35.7383L48.2496 35.9141L48.2789 35.7676C48.2398 36.0996 48.2203 36.4316 48.2203 36.7637V37.1445C48.2203 37.3594 48.2887 37.6719 48.4254 38.082C48.4254 38.0234 48.4156 37.9746 48.3961 37.9355L48.5133 38.1992C48.5719 38.3555 48.6793 38.5117 48.8355 38.668L48.6891 38.5215C48.8453 38.6973 49.0113 38.8535 49.1871 38.9902L49.3043 39.1367C49.3043 39.1172 49.2945 39.1074 49.275 39.1074C49.275 39.0879 49.2359 39.0488 49.1578 38.9902L49.6852 39.3418C49.7633 39.3613 49.8316 39.3906 49.8902 39.4297C49.9488 39.4688 49.9879 39.498 50.0074 39.5176C50.027 39.5176 50.0367 39.5273 50.0367 39.5469L49.9781 39.4883C49.9 39.4688 49.8609 39.4492 49.8609 39.4297C50.4078 39.6055 50.691 39.6934 50.7105 39.6934C50.7496 39.6934 50.8082 39.7031 50.8863 39.7227C50.9645 39.7422 51.023 39.7617 51.0621 39.7812C51.1012 39.7812 51.1305 39.7812 51.15 39.7812H51.0328C51.3844 39.8203 51.7457 39.8398 52.1168 39.8398L53.1715 39.752H53.1129L53.6988 39.6641C54.9684 39.3711 56.1305 39.0391 57.1852 38.668L58.0934 38.3164L58.4449 38.1699C58.4254 38.1895 58.3961 38.1992 58.357 38.1992C58.3375 38.1992 58.318 38.2188 58.2984 38.2578C58.2984 38.2383 58.357 38.209 58.4742 38.1699C60.1539 37.4277 61.9215 36.1973 63.777 34.4785C65.6324 32.7402 66.9898 31.4414 67.8492 30.582C68.2789 30.1719 68.777 29.9668 69.3434 29.9668C69.8902 29.9863 70.3688 30.1914 70.7789 30.582C71.2086 30.9727 71.4234 31.4414 71.4234 31.9883C71.4234 32.0273 71.4137 32.1934 71.3941 32.4863C71.3941 32.7793 71.1988 33.1406 70.8082 33.5703C66.7848 38.2578 62.3512 41.4121 57.5074 43.0332C55.4762 43.7168 53.6109 44.0586 51.9117 44.0586ZM76.5949 43.8828C75.4035 43.8828 74.2121 43.6582 73.0207 43.209C70.8137 42.3496 69.2316 40.8457 68.2746 38.6973C67.6105 37.2324 67.2785 35.709 67.2785 34.127C67.2785 33.4434 67.3371 32.7402 67.4543 32.0176C68.1965 27.8574 70.1887 24.4199 73.4309 21.7051C75.0715 20.3379 76.8781 19.3516 78.8508 18.7461C79.9445 18.4141 81.0676 18.248 82.2199 18.248C85.5598 18.248 87.5422 19.2441 88.1672 21.2363C88.2648 21.5488 88.3137 21.8711 88.3137 22.2031C88.3137 23.1211 87.9914 24.0684 87.3469 25.0449C84.4367 29.4395 79.6125 32.0859 72.8742 32.9844C72.3078 33.0625 71.7902 33.1016 71.3215 33.1016C69.2512 33.1016 68.216 32.3203 68.216 30.7578C68.216 30.3477 68.2941 29.8691 68.4504 29.3223C68.9387 29.3223 69.6125 29.2734 70.4719 29.1758L71.3215 29.0586C73.3723 28.7852 75.3645 28.2871 77.298 27.5645L78.0012 27.3008C79.3488 26.7734 80.4816 26.1484 81.3996 25.4258V25.3965L81.2531 25.543C82.1906 24.8008 82.9035 24.0977 83.3918 23.4336L83.2746 23.5508L83.4797 23.2578C83.7922 22.8477 83.9777 22.5449 84.0363 22.3496V22.4082H84.007L84.0363 22.3789V22.291C84.0559 22.2715 84.0656 22.2422 84.0656 22.2031C84.0852 22.1641 84.0949 22.1152 84.0949 22.0566L84.0656 22.291V22.1152C84.0656 22.291 84.1535 22.4961 84.3293 22.7305L84.3586 22.7598L84.2707 22.7305C84.3293 22.7305 84.3781 22.75 84.4172 22.7891L83.1281 22.4961C83.2063 22.4961 83.2648 22.5059 83.3039 22.5254C82.9719 22.4863 82.6301 22.4668 82.2785 22.4668C81.7902 22.4668 81.4191 22.4766 81.1652 22.4961L81.2824 22.4668C81.2824 22.4863 81.2531 22.4961 81.1945 22.4961C81.1555 22.4961 81.0969 22.5059 81.0188 22.5254C79.8664 22.8184 79.2219 23.0039 79.0852 23.082C79.0656 23.1016 79.0266 23.1113 78.968 23.1113L79.0852 23.082L79.0266 23.1113C78.2844 23.4434 77.4445 23.9414 76.507 24.6055L76.6828 24.459C75.6477 25.2988 74.8273 26.1094 74.2219 26.8906L74.134 26.9785L74.1926 26.8906C73.4699 27.9062 72.8938 28.873 72.4641 29.791C72.4445 29.8301 72.425 29.8691 72.4055 29.9082C72.4055 29.9277 72.4055 29.9473 72.4055 29.9668C72.093 30.6895 71.8293 31.627 71.6145 32.7793L71.5852 32.9258C71.5461 33.0625 71.5266 33.668 71.5266 34.7422C71.5266 35.1719 71.5461 35.416 71.5852 35.4746V35.5332L71.5266 35.2988C71.5461 35.3379 71.5559 35.3867 71.5559 35.4453C71.5559 35.6797 71.6828 36.1289 71.9367 36.793C71.9563 36.8711 71.9758 36.9199 71.9953 36.9395C71.9758 36.9395 71.966 36.9297 71.966 36.9102C71.966 36.8906 71.966 36.8613 71.966 36.8223L71.9367 36.793C72.132 37.2227 72.3469 37.6035 72.5813 37.9355C72.6008 37.9355 72.6105 37.9453 72.6105 37.9648C72.6105 37.9453 72.6008 37.9355 72.5813 37.9355C72.5813 37.916 72.552 37.877 72.4934 37.8184L73.343 38.6387H73.3137L73.1965 38.5215H73.2258C73.2258 38.541 73.3039 38.5996 73.4602 38.6973C73.8508 38.9707 74.1926 39.166 74.4855 39.2832L74.2805 39.1953H74.3391C74.4367 39.293 74.8664 39.4297 75.6281 39.6055C75.7258 39.625 75.8332 39.6348 75.9504 39.6348L75.716 39.6055H75.8625L75.8918 39.6348H77.3859C77.425 39.5957 77.5129 39.5762 77.6496 39.5762L77.6203 39.6055L77.5031 39.6348H77.4445C77.4445 39.6152 77.4641 39.6055 77.5031 39.6055C77.6203 39.6055 77.6984 39.5859 77.7375 39.5469C78.6555 39.4102 79.6418 38.9805 80.6965 38.2578L81.1359 37.9355L81.048 38.0234V37.9941C81.4191 37.7793 82.0637 37.1348 82.9816 36.0605L83.0109 36.0312L82.9816 36.0898C83.3527 35.6602 83.7238 35.0254 84.0949 34.1855L84.1828 34.0098V34.0684C84.1828 34.0488 84.1828 34.0195 84.1828 33.9805C84.2023 33.9414 84.2121 33.9121 84.2121 33.8926C84.2316 33.8535 84.2414 33.834 84.2414 33.834C84.2609 33.834 84.3488 33.541 84.5051 32.9551L84.7102 32.1055C84.7102 32.2422 84.7004 32.3105 84.6809 32.3105L84.7102 30.9922C84.7102 30.8555 84.7004 30.7773 84.6809 30.7578C84.7004 30.7773 84.7102 30.8066 84.7102 30.8457C84.7102 30.8652 84.7199 30.8848 84.7395 30.9043V30.9922L84.4758 29.9961C84.4953 30.0156 84.5051 30.0352 84.5051 30.0547C84.5051 30.0742 84.5051 30.1035 84.5051 30.1426C84.5246 30.1816 84.5441 30.2012 84.5637 30.2012L84.1242 29.4395H84.1535L84.2707 29.5566V29.5859C84.1926 29.5859 84.0852 29.498 83.9484 29.3223C83.9094 29.2637 83.8605 29.2148 83.802 29.1758L86.7902 26.1875L87.4348 26.7148L87.8449 27.0664C87.923 27.3789 88.4016 27.8867 89.2805 28.5898L89.4563 28.707L89.5734 28.7363C91.0383 29.4004 92.8742 29.7812 95.0813 29.8789C97.1125 29.957 98.177 30.4355 98.2746 31.3145C98.4504 32.7207 97.4445 33.4141 95.257 33.3945C93.1867 33.3945 91.3313 33.209 89.6906 32.8379C87.9523 32.4277 85.9992 31.1973 83.8313 29.1465C83.4211 28.7559 83.2258 28.2969 83.2453 27.7695V27.2715C83.2453 26.9785 83.4406 26.627 83.8313 26.2168C84.2219 25.7871 84.6809 25.582 85.2082 25.6016H85.7063C85.9992 25.6016 86.3508 25.8066 86.7609 26.2168C88.2453 27.623 88.9875 29.4492 88.9875 31.6953C88.9875 32.7891 88.675 34.1172 88.05 35.6797C87.4445 37.2422 86.4094 38.7461 84.9445 40.1914C83.3625 41.7539 81.5168 42.8477 79.4074 43.4727C78.4699 43.7461 77.5324 43.8828 76.5949 43.8828ZM102.684 44.1172C101.786 44.1172 100.878 43.9805 99.9598 43.707C98.1043 43.1016 96.7273 41.9297 95.8289 40.1914C95.2234 38.7852 94.9207 37.3301 94.9207 35.8262C94.9207 33.9902 95.2918 31.7148 96.034 29C97.5184 22.75 99.5789 16.8906 102.216 11.4219C104.012 7.55469 106.093 4.57617 108.456 2.48633C110.233 0.923828 112.059 0.142578 113.934 0.142578L114.55 0.171875C117.128 0.464844 118.827 1.75391 119.647 4.03906C119.862 4.70313 119.97 5.36719 119.97 6.03125C119.97 8.0625 118.993 10.9824 117.04 14.791C113.485 21.7637 108.016 27.75 100.634 32.75C100.302 32.9453 99.9598 33.043 99.6082 33.043C98.827 33.043 98.202 32.6914 97.7332 31.9883C97.5379 31.6562 97.4402 31.3145 97.4402 30.9629C97.4402 30.2012 97.8016 29.5762 98.5242 29.0879C99.2469 28.5801 99.9695 28.0527 100.692 27.5059C100.712 27.5059 100.741 27.4961 100.78 27.4766C100.819 27.4375 100.848 27.418 100.868 27.418C100.887 27.3984 100.956 27.3398 101.073 27.2422L100.985 27.3008C101.044 27.2422 101.21 27.1152 101.483 26.9199C102.792 25.8457 103.807 24.9668 104.53 24.2832C106.054 22.8379 107.587 21.1973 109.13 19.3613L109.569 18.7754V18.8047L109.481 18.8926C109.481 18.873 109.501 18.8535 109.54 18.834L109.716 18.5703C111.591 16.0898 113.192 13.3066 114.52 10.2207C114.54 10.1426 114.569 10.0742 114.608 10.0156C114.647 9.9375 114.686 9.85938 114.725 9.78125L114.755 9.66406V9.72266L114.696 9.78125L114.755 9.66406C115.184 8.64844 115.487 7.70117 115.663 6.82227C115.702 6.70508 115.721 6.58789 115.721 6.4707V6.67578H115.692L115.721 5.91406C115.721 5.66016 115.712 5.5332 115.692 5.5332L115.721 5.62109V5.76758H115.751C115.751 5.65039 115.721 5.57227 115.663 5.5332C115.663 5.47461 115.653 5.43555 115.634 5.41602C115.634 5.37695 115.624 5.33789 115.604 5.29883C115.585 5.25977 115.575 5.2207 115.575 5.18164L115.663 5.35742L115.575 5.21094C115.497 5.13281 115.458 5.06445 115.458 5.00586C115.477 5.00586 115.507 5.03516 115.546 5.09375L115.106 4.6543C115.106 4.69336 115.145 4.73242 115.223 4.77148C115.067 4.6543 114.97 4.58594 114.93 4.56641C114.891 4.54687 114.872 4.52734 114.872 4.50781H114.93L114.96 4.53711L114.139 4.33203H114.169C114.208 4.35156 114.276 4.36133 114.374 4.36133C114.022 4.36133 113.72 4.37109 113.466 4.39062L113.612 4.36133C113.573 4.40039 113.495 4.41992 113.378 4.41992C113.28 4.45898 113.212 4.47852 113.173 4.47852C113.153 4.47852 113.124 4.48828 113.085 4.50781C113.046 4.52734 113.007 4.53711 112.968 4.53711L112.762 4.625L112.88 4.56641L112.645 4.68359C112.45 4.78125 112.264 4.88867 112.089 5.00586C111.991 5.08398 111.884 5.15234 111.766 5.21094L111.679 5.24023L111.796 5.15234C111.737 5.21094 111.688 5.25977 111.649 5.29883C111.61 5.31836 111.591 5.33789 111.591 5.35742C110.751 6.04102 110.018 6.79297 109.393 7.61328L109.335 7.70117H109.305L109.218 7.81836L109.159 7.90625C108.339 8.96094 107.538 10.2402 106.757 11.7441C105.839 13.5215 104.989 15.3477 104.208 17.2227L104.12 17.457L104.179 17.2812V17.3398L103.827 18.1309C102.011 22.7402 100.526 27.8086 99.3738 33.3359C99.3543 33.5117 99.325 33.6777 99.2859 33.834V34.0098L99.2566 34.0977L99.2859 33.8633C99.2859 33.9805 99.2762 34.0391 99.2566 34.0391C99.198 34.6445 99.1687 35.25 99.1687 35.8555C99.1687 36.2461 99.1883 36.627 99.2273 36.998V37.0566L99.198 36.998V36.9688C99.2176 36.9688 99.2273 37.0176 99.2273 37.1152C99.3641 37.7598 99.4715 38.1211 99.5496 38.1992C99.5496 38.2383 99.5691 38.2773 99.6082 38.3164C99.5496 38.3164 99.5203 38.2578 99.5203 38.1406H99.491L99.5203 38.1699C99.5203 38.1895 99.5203 38.2188 99.5203 38.2578C99.5398 38.2773 99.5887 38.3359 99.6668 38.4336C99.7449 38.5312 99.8035 38.6387 99.8426 38.7559L99.8719 38.8145V38.7852C99.8523 38.7852 99.8328 38.7754 99.8133 38.7559C99.8133 38.7363 99.8035 38.7168 99.784 38.6973C99.784 38.6582 99.7645 38.6387 99.7254 38.6387L100.341 39.2539C100.321 39.2539 100.262 39.2051 100.165 39.1074L100.399 39.2832L101.044 39.6348C100.985 39.6348 100.917 39.6055 100.839 39.5469H100.809C100.829 39.5664 100.878 39.5859 100.956 39.6055L101.22 39.6934L101.805 39.8398C101.903 39.8398 101.971 39.8496 102.011 39.8691H102.098V39.8984C102.079 39.8984 102.05 39.8984 102.011 39.8984C101.971 39.8789 101.942 39.8594 101.923 39.8398H101.835C101.913 39.8984 102.03 39.9277 102.186 39.9277C102.538 39.9277 102.753 39.9082 102.831 39.8691C103.143 39.8691 103.329 39.8594 103.387 39.8398H103.475L103.446 39.8691H103.358L103.417 39.8398H103.505C104.169 39.7422 104.794 39.5664 105.38 39.3125C105.477 39.2734 105.546 39.2539 105.585 39.2539L105.38 39.3418L105.438 39.3125C105.477 39.2734 105.516 39.2539 105.555 39.2539C105.595 39.2344 105.634 39.2148 105.673 39.1953C106.591 38.8047 108.212 37.7207 110.536 35.9434C110.595 35.8652 110.673 35.8066 110.77 35.7676C110.712 35.8262 110.663 35.8555 110.624 35.8555V35.8848C110.721 35.8066 110.78 35.7676 110.8 35.7676C110.819 35.748 110.839 35.7188 110.858 35.6797L111.21 35.416C113.71 33.3652 115.36 31.7734 116.161 30.6406C116.2 30.6211 116.229 30.5918 116.249 30.5527C116.268 30.5137 116.288 30.4941 116.307 30.4941C116.327 30.4746 116.337 30.4551 116.337 30.4355L116.278 30.5234L116.366 30.4062C116.874 29.7227 117.47 29.3809 118.153 29.3809C118.485 29.3809 118.846 29.4688 119.237 29.6445C119.96 30.0742 120.321 30.709 120.321 31.5488C120.321 31.9004 120.214 32.2324 119.999 32.5449C119.393 33.3457 118.749 34.1172 118.065 34.8594C115.507 37.4961 112.675 39.8008 109.569 41.7734C108.163 42.7109 106.63 43.3945 104.97 43.8242C104.208 44.0195 103.446 44.1172 102.684 44.1172ZM125.551 43.8828C124.36 43.8828 123.168 43.6582 121.977 43.209C119.77 42.3496 118.188 40.8457 117.231 38.6973C116.567 37.2324 116.235 35.709 116.235 34.127C116.235 33.4434 116.293 32.7402 116.411 32.0176C117.153 27.8574 119.145 24.4199 122.387 21.7051C124.028 20.3379 125.834 19.3516 127.807 18.7461C128.901 18.4141 130.024 18.248 131.176 18.248C134.516 18.248 136.498 19.2441 137.123 21.2363C137.221 21.5488 137.27 21.8711 137.27 22.2031C137.27 23.1211 136.948 24.0684 136.303 25.0449C133.393 29.4395 128.569 32.0859 121.83 32.9844C121.264 33.0625 120.746 33.1016 120.278 33.1016C118.207 33.1016 117.172 32.3203 117.172 30.7578C117.172 30.3477 117.25 29.8691 117.407 29.3223C117.895 29.3223 118.569 29.2734 119.428 29.1758L120.278 29.0586C122.329 28.7852 124.321 28.2871 126.254 27.5645L126.957 27.3008C128.305 26.7734 129.438 26.1484 130.356 25.4258V25.3965L130.209 25.543C131.147 24.8008 131.86 24.0977 132.348 23.4336L132.231 23.5508L132.436 23.2578C132.748 22.8477 132.934 22.5449 132.993 22.3496V22.4082H132.963L132.993 22.3789V22.291C133.012 22.2715 133.022 22.2422 133.022 22.2031C133.041 22.1641 133.051 22.1152 133.051 22.0566L133.022 22.291V22.1152C133.022 22.291 133.11 22.4961 133.286 22.7305L133.315 22.7598L133.227 22.7305C133.286 22.7305 133.334 22.75 133.373 22.7891L132.084 22.4961C132.162 22.4961 132.221 22.5059 132.26 22.5254C131.928 22.4863 131.586 22.4668 131.235 22.4668C130.746 22.4668 130.375 22.4766 130.121 22.4961L130.239 22.4668C130.239 22.4863 130.209 22.4961 130.151 22.4961C130.112 22.4961 130.053 22.5059 129.975 22.5254C128.823 22.8184 128.178 23.0039 128.041 23.082C128.022 23.1016 127.983 23.1113 127.924 23.1113L128.041 23.082L127.983 23.1113C127.241 23.4434 126.401 23.9414 125.463 24.6055L125.639 24.459C124.604 25.2988 123.784 26.1094 123.178 26.8906L123.09 26.9785L123.149 26.8906C122.426 27.9062 121.85 28.873 121.42 29.791C121.401 29.8301 121.381 29.8691 121.362 29.9082C121.362 29.9277 121.362 29.9473 121.362 29.9668C121.049 30.6895 120.786 31.627 120.571 32.7793L120.541 32.9258C120.502 33.0625 120.483 33.668 120.483 34.7422C120.483 35.1719 120.502 35.416 120.541 35.4746V35.5332L120.483 35.2988C120.502 35.3379 120.512 35.3867 120.512 35.4453C120.512 35.6797 120.639 36.1289 120.893 36.793C120.912 36.8711 120.932 36.9199 120.952 36.9395C120.932 36.9395 120.922 36.9297 120.922 36.9102C120.922 36.8906 120.922 36.8613 120.922 36.8223L120.893 36.793C121.088 37.2227 121.303 37.6035 121.537 37.9355C121.557 37.9355 121.567 37.9453 121.567 37.9648C121.567 37.9453 121.557 37.9355 121.537 37.9355C121.537 37.916 121.508 37.877 121.45 37.8184L122.299 38.6387H122.27L122.153 38.5215H122.182C122.182 38.541 122.26 38.5996 122.416 38.6973C122.807 38.9707 123.149 39.166 123.442 39.2832L123.237 39.1953H123.295C123.393 39.293 123.823 39.4297 124.584 39.6055C124.682 39.625 124.789 39.6348 124.907 39.6348L124.672 39.6055H124.819L124.848 39.6348H126.342C126.381 39.5957 126.469 39.5762 126.606 39.5762L126.577 39.6055L126.459 39.6348H126.401C126.401 39.6152 126.42 39.6055 126.459 39.6055C126.577 39.6055 126.655 39.5859 126.694 39.5469C127.612 39.4102 128.598 38.9805 129.653 38.2578L130.092 37.9355L130.004 38.0234V37.9941C130.375 37.7793 131.02 37.1348 131.938 36.0605L131.967 36.0312L131.938 36.0898C132.309 35.6602 132.68 35.0254 133.051 34.1855L133.139 34.0098V34.0684C133.139 34.0488 133.139 34.0195 133.139 33.9805C133.159 33.9414 133.168 33.9121 133.168 33.8926C133.188 33.8535 133.198 33.834 133.198 33.834C133.217 33.834 133.305 33.541 133.461 32.9551L133.666 32.1055C133.666 32.2422 133.657 32.3105 133.637 32.3105L133.666 30.9922C133.666 30.8555 133.657 30.7773 133.637 30.7578C133.657 30.7773 133.666 30.8066 133.666 30.8457C133.666 30.8652 133.676 30.8848 133.696 30.9043V30.9922L133.432 29.9961C133.452 30.0156 133.461 30.0352 133.461 30.0547C133.461 30.0742 133.461 30.1035 133.461 30.1426C133.481 30.1816 133.5 30.2012 133.52 30.2012L133.08 29.4395H133.11L133.227 29.5566V29.5859C133.149 29.5859 133.041 29.498 132.905 29.3223C132.866 29.2637 132.817 29.2148 132.758 29.1758L135.746 26.1875L136.391 26.7148L136.801 27.0664C136.879 27.3789 137.358 27.8867 138.237 28.5898L138.412 28.707L138.53 28.7363C139.995 29.4004 141.83 29.7812 144.037 29.8789C146.069 29.957 147.133 30.4355 147.231 31.3145C147.407 32.7207 146.401 33.4141 144.213 33.3945C142.143 33.3945 140.287 33.209 138.647 32.8379C136.909 32.4277 134.955 31.1973 132.787 29.1465C132.377 28.7559 132.182 28.2969 132.202 27.7695V27.2715C132.202 26.9785 132.397 26.627 132.787 26.2168C133.178 25.7871 133.637 25.582 134.164 25.6016H134.662C134.955 25.6016 135.307 25.8066 135.717 26.2168C137.202 27.623 137.944 29.4492 137.944 31.6953C137.944 32.7891 137.631 34.1172 137.006 35.6797C136.401 37.2422 135.366 38.7461 133.901 40.1914C132.319 41.7539 130.473 42.8477 128.364 43.4727C127.426 43.7461 126.489 43.8828 125.551 43.8828ZM152.109 44.3809C150.586 44.3809 149.15 44.0879 147.803 43.502C146.475 42.916 145.4 42.0273 144.58 40.8359C143.76 39.5664 143.35 38.0723 143.35 36.3535C143.35 35.2988 143.467 34.2734 143.701 33.2773C144.209 31.0703 145.127 29.0391 146.455 27.1836C147.9 25.1719 149.619 23.4336 151.611 21.9688C154.072 20.0742 156.416 19.0781 158.643 18.9805C160.01 18.9805 161.25 19.3223 162.363 20.0059C163.477 20.6895 164.238 21.6758 164.648 22.9648C164.746 23.3945 164.795 23.8145 164.795 24.2246C164.795 25.0449 164.541 25.9531 164.033 26.9492C163.525 27.9258 162.617 28.5605 161.309 28.8535L160.781 28.8828C159.805 28.8828 159.111 28.3848 158.701 27.3887C158.643 27.1934 158.613 27.0078 158.613 26.832C158.613 26.4805 158.73 26.0898 158.965 25.6602C159.219 25.2109 159.619 24.918 160.166 24.7812C160.186 24.7812 160.225 24.7812 160.283 24.7812C160.361 24.7617 160.439 24.7324 160.518 24.6934H160.547C160.527 24.7129 160.498 24.7324 160.459 24.752C160.439 24.752 160.41 24.7617 160.371 24.7812C160.352 24.7812 160.332 24.7812 160.312 24.7812V24.752L160.518 24.6934C160.537 24.6934 160.547 24.7031 160.547 24.7227L160.371 24.7812C160.371 24.7617 160.371 24.752 160.371 24.752C160.391 24.752 160.4 24.752 160.4 24.752C160.42 24.7324 160.459 24.6934 160.518 24.6348V24.6055L160.371 24.8398L160.518 24.5762L160.605 24.4883V24.5176L160.459 24.6641L160.576 24.4297C160.576 24.4102 160.576 24.3711 160.576 24.3125C160.596 24.2539 160.615 24.2148 160.635 24.1953C160.615 24.2148 160.605 24.2637 160.605 24.3418V24.1074L160.547 24.0781L160.635 24.2539H160.605C160.566 24.0977 160.547 23.9805 160.547 23.9023H160.518C160.518 24 160.537 24.0684 160.576 24.1074H160.605L160.576 24.0488C160.518 23.9316 160.459 23.8535 160.4 23.8145C160.361 23.7754 160.332 23.7559 160.312 23.7559L160.488 23.9023C160.273 23.6875 160.166 23.5703 160.166 23.5508C160.205 23.5703 160.225 23.5801 160.225 23.5801L160.283 23.6094C160.322 23.6484 160.342 23.6777 160.342 23.6973L160.254 23.668C160.078 23.5312 159.873 23.4141 159.639 23.3164L159.785 23.375L159.727 23.3457H159.609C159.453 23.2676 159.277 23.2188 159.082 23.1992L158.232 23.2285C158.291 23.2285 158.33 23.2188 158.35 23.1992H158.379C158.359 23.2188 158.32 23.2383 158.262 23.2578C158.203 23.2578 158.125 23.2676 158.027 23.2871C157.949 23.3066 157.852 23.3359 157.734 23.375C157.617 23.3945 157.5 23.4336 157.383 23.4922C157.285 23.5312 157.217 23.5508 157.178 23.5508C157.139 23.5508 157.09 23.5605 157.031 23.5801H157.061C157.08 23.5801 157.109 23.5605 157.148 23.5215C156.406 23.8535 155.459 24.4102 154.307 25.1914C153.857 25.5039 153.623 25.6699 153.604 25.6895C153.604 25.6895 153.604 25.6992 153.604 25.7188C153.604 25.6992 153.623 25.6797 153.662 25.6602C153.701 25.6406 153.721 25.6211 153.721 25.6016V25.6309L153.604 25.7188C152.354 26.7148 151.25 27.8184 150.293 29.0293L150.41 28.8828L149.941 29.5273C149.414 30.2891 148.955 31.0801 148.564 31.9004L148.447 32.1934L148.477 32.1348C148.477 32.0957 148.486 32.0664 148.506 32.0469C148.506 32.0859 148.486 32.125 148.447 32.1641V32.252L148.418 32.2812C148.008 33.3164 147.734 34.3125 147.598 35.2695C147.617 35.25 147.627 35.2207 147.627 35.1816L147.568 36.3242C147.568 36.7148 147.578 36.9883 147.598 37.1445V36.998L147.568 36.9395L147.598 36.9688V37.1445L147.891 38.1992L147.832 38.082H147.861L148.213 38.6973C148.174 38.6582 148.154 38.6289 148.154 38.6094C148.154 38.5703 148.145 38.5508 148.125 38.5508V38.5801C148.398 38.8926 148.535 39.0488 148.535 39.0488C148.555 39.0488 148.564 39.0586 148.564 39.0781C148.584 39.0977 148.604 39.1172 148.623 39.1367C148.643 39.1367 148.662 39.1465 148.682 39.166C148.721 39.1855 148.74 39.2051 148.74 39.2246L148.623 39.1074C148.623 39.127 148.633 39.1465 148.652 39.166C148.672 39.166 148.682 39.1758 148.682 39.1953C148.701 39.1953 148.721 39.1953 148.74 39.1953L148.77 39.2246C149.141 39.4785 149.463 39.6543 149.736 39.752L149.59 39.6934C149.609 39.7129 149.668 39.7324 149.766 39.752C150.254 39.9277 150.762 40.0645 151.289 40.1621L151.172 40.1328L151.523 40.1621H151.992C152.539 40.1621 152.959 40.1426 153.252 40.1035H153.164L153.223 40.0742C153.359 40.0742 153.447 40.0645 153.486 40.0449C153.76 40.0449 154.277 39.9277 155.039 39.6934C155.801 39.4395 156.367 39.2246 156.738 39.0488C156.777 39.0488 156.807 39.0391 156.826 39.0195C156.807 39.0391 156.787 39.0488 156.768 39.0488C156.768 39.0488 156.738 39.0586 156.68 39.0781L157.061 38.9316C158.115 38.4434 159.287 37.8281 160.576 37.0859L160.928 36.8809C163.291 35.5527 165.361 34.2734 167.139 33.043L167.666 32.6328H167.695C167.695 32.6133 167.725 32.584 167.783 32.5449C167.842 32.4863 167.91 32.4375 167.988 32.3984C168.828 31.7148 169.609 30.9824 170.332 30.2012C170.742 29.791 171.211 29.5859 171.738 29.5859H172.236C172.529 29.6055 172.881 29.8105 173.291 30.2012C173.721 30.5918 173.936 31.0508 173.936 31.5781V32.0762C173.916 32.3887 173.711 32.7598 173.32 33.1895C171.328 35.2207 169.102 36.959 166.641 38.4043C164.355 39.8691 162.002 41.1973 159.58 42.3887C156.826 43.7168 154.336 44.3809 152.109 44.3809ZM175.269 43.8828L174.537 43.8535C172.134 43.5801 170.435 42.3203 169.439 40.0742C168.912 38.8828 168.648 37.6719 168.648 36.4414C168.648 35.2695 168.873 34.0879 169.322 32.8965C171.392 27.3301 174.117 23.4531 177.496 21.2656C179.039 20.25 180.718 19.7422 182.535 19.7422C183.14 19.7422 183.765 19.8105 184.41 19.9473C186.714 20.4746 188.404 21.7832 189.478 23.873C189.986 24.8887 190.24 25.9922 190.24 27.1836V30.2891C190.24 30.2109 190.25 30.1719 190.269 30.1719C190.269 30.3672 190.289 30.5332 190.328 30.6699C190.386 30.9043 190.416 31.1094 190.416 31.2852C190.416 32.3008 189.908 32.9844 188.892 33.3359C188.697 33.3945 188.502 33.4238 188.306 33.4238C186.802 33.4238 186.05 32.0859 186.05 29.4102L185.962 26.6855C185.943 26.2168 185.904 25.9043 185.845 25.748C185.884 25.8066 185.904 25.875 185.904 25.9531L185.523 25.2793H185.582L185.64 25.4258L185.494 25.2793C185.24 24.9668 185.025 24.752 184.849 24.6348C184.849 24.6543 184.859 24.6738 184.879 24.6934C184.898 24.6934 184.908 24.7031 184.908 24.7227C184.927 24.7227 184.947 24.7227 184.966 24.7227C184.986 24.7227 184.996 24.7324 184.996 24.752V24.7227C184.957 24.7227 184.839 24.6641 184.644 24.5469C184.293 24.332 184.068 24.2051 183.97 24.166C184.009 24.2051 184.048 24.2246 184.087 24.2246C183.599 24.0488 183.248 23.9609 183.033 23.9609L183.267 23.9902C182.974 23.9902 182.691 23.9805 182.418 23.9609C182.261 23.9414 182.076 23.9512 181.861 23.9902C181.236 24.1074 180.757 24.2539 180.425 24.4297C180.425 24.4102 180.435 24.4004 180.455 24.4004C180.474 24.4004 180.484 24.4004 180.484 24.4004C180.504 24.3809 180.533 24.3613 180.572 24.3418C180.494 24.4199 180.337 24.5176 180.103 24.6348C179.752 24.8105 179.41 25.0059 179.078 25.2207C179.039 25.2598 179 25.2891 178.961 25.3086C178.941 25.3086 178.921 25.3184 178.902 25.3379C178.902 25.3379 178.873 25.3672 178.814 25.4258V25.3965L178.931 25.3379C178.814 25.3965 178.668 25.5137 178.492 25.6895C178.023 26.0996 177.593 26.5586 177.203 27.0664C177.183 27.0664 177.164 27.0762 177.144 27.0957C177.144 27.1152 177.134 27.1348 177.115 27.1543C177.115 27.1543 177.086 27.1934 177.027 27.2715C177.046 27.2324 177.066 27.2129 177.086 27.2129C177.066 27.2129 177.056 27.2227 177.056 27.2422L176.734 27.7109C175.679 29.2539 174.712 31.002 173.834 32.9551L173.687 33.2773C173.257 34.3516 173.004 35.2695 172.925 36.0312L172.837 37.1152C172.837 37.252 172.935 37.6133 173.13 38.1992L173.072 38.1113C173.345 38.6777 173.502 38.9805 173.541 39.0195C173.599 39.0391 173.638 39.0684 173.658 39.1074C173.58 39.0098 173.541 38.9414 173.541 38.9023C173.541 38.9219 173.541 38.9414 173.541 38.9609C173.56 38.9609 173.57 38.9707 173.57 38.9902C173.589 39.0098 173.658 39.0781 173.775 39.1953C174.009 39.4297 174.146 39.5469 174.185 39.5469L174.097 39.4883C174.156 39.5273 174.195 39.5664 174.214 39.6055C174.254 39.625 174.341 39.6641 174.478 39.7227C174.517 39.7422 174.537 39.7617 174.537 39.7812C174.517 39.7617 174.488 39.752 174.449 39.752C174.41 39.7324 174.38 39.7227 174.361 39.7227C174.361 39.7031 174.351 39.6836 174.332 39.6641C174.39 39.7227 174.586 39.791 174.918 39.8691L174.742 39.8398C175.054 39.8398 175.279 39.8301 175.416 39.8105L175.24 39.8398C175.65 39.7031 175.884 39.6348 175.943 39.6348L175.826 39.6934C176.216 39.498 176.597 39.2734 176.968 39.0195C176.988 39.0195 177.007 39.0098 177.027 38.9902C177.066 38.9512 177.115 38.9219 177.173 38.9023C177.33 38.8047 177.408 38.7363 177.408 38.6973C177.408 38.7168 177.388 38.7461 177.349 38.7852C181.666 35.1914 185.572 31.168 189.068 26.7148C189.4 26.2852 189.839 26.0703 190.386 26.0703C190.933 26.0703 191.402 26.2266 191.793 26.5391C192.339 27.0078 192.613 27.5352 192.613 28.1211C192.613 28.4727 192.525 28.8438 192.349 29.2344C192.134 29.7422 191.929 30.2598 191.734 30.7871C190.933 33.0332 190.406 34.9473 190.152 36.5293H190.123L190.152 36.3535C190.269 37.3691 190.601 38.1406 191.148 38.668L191.06 38.6387H191.119C191.334 38.8535 191.597 38.9609 191.91 38.9609L191.705 38.9902L191.91 38.9316C193.707 38.541 195.308 37.8184 196.714 36.7637H196.685L196.597 36.8516C198.394 35.4062 200.386 33.2773 202.574 30.4648C202.886 30.0547 203.296 29.8496 203.804 29.8496C203.863 29.8496 204.058 29.8594 204.39 29.8789C204.722 29.8984 205.084 30.1035 205.474 30.4941C205.884 30.8652 206.089 31.2949 206.089 31.7832C206.089 31.8418 206.08 32.0176 206.06 32.3105C206.041 32.6035 205.855 32.9746 205.504 33.4238C203.746 35.7676 201.871 37.8086 199.879 39.5469C197.964 41.2266 195.767 42.3008 193.287 42.7695C193.072 42.8086 192.837 42.8379 192.584 42.8574C191.295 43.0137 189.996 42.7012 188.687 41.9199C186.851 40.8066 185.933 39.166 185.933 36.998C185.933 36.1973 186.031 35.3965 186.226 34.5957C186.812 32.0371 187.642 29.5371 188.716 27.0957L192.027 29.6738C188.765 33.8535 185.132 37.6816 181.129 41.1582C179 43.0137 177.046 43.9219 175.269 43.8828ZM209.503 44.1172C208.605 44.1172 207.696 43.9805 206.779 43.707C204.923 43.1016 203.546 41.9297 202.648 40.1914C202.042 38.7852 201.739 37.3301 201.739 35.8262C201.739 33.9902 202.111 31.7148 202.853 29C204.337 22.75 206.398 16.8906 209.034 11.4219C210.831 7.55469 212.911 4.57617 215.275 2.48633C217.052 0.923828 218.878 0.142578 220.753 0.142578L221.368 0.171875C223.946 0.464844 225.646 1.75391 226.466 4.03906C226.681 4.70313 226.788 5.36719 226.788 6.03125C226.788 8.0625 225.812 10.9824 223.859 14.791C220.304 21.7637 214.835 27.75 207.452 32.75C207.12 32.9453 206.779 33.043 206.427 33.043C205.646 33.043 205.021 32.6914 204.552 31.9883C204.357 31.6562 204.259 31.3145 204.259 30.9629C204.259 30.2012 204.62 29.5762 205.343 29.0879C206.066 28.5801 206.788 28.0527 207.511 27.5059C207.53 27.5059 207.56 27.4961 207.599 27.4766C207.638 27.4375 207.667 27.418 207.687 27.418C207.706 27.3984 207.775 27.3398 207.892 27.2422L207.804 27.3008C207.863 27.2422 208.029 27.1152 208.302 26.9199C209.611 25.8457 210.626 24.9668 211.349 24.2832C212.872 22.8379 214.405 21.1973 215.948 19.3613L216.388 18.7754V18.8047L216.3 18.8926C216.3 18.873 216.32 18.8535 216.359 18.834L216.534 18.5703C218.409 16.0898 220.011 13.3066 221.339 10.2207C221.359 10.1426 221.388 10.0742 221.427 10.0156C221.466 9.9375 221.505 9.85938 221.544 9.78125L221.573 9.66406V9.72266L221.515 9.78125L221.573 9.66406C222.003 8.64844 222.306 7.70117 222.482 6.82227C222.521 6.70508 222.54 6.58789 222.54 6.4707V6.67578H222.511L222.54 5.91406C222.54 5.66016 222.53 5.5332 222.511 5.5332L222.54 5.62109V5.76758H222.57C222.57 5.65039 222.54 5.57227 222.482 5.5332C222.482 5.47461 222.472 5.43555 222.452 5.41602C222.452 5.37695 222.443 5.33789 222.423 5.29883C222.404 5.25977 222.394 5.2207 222.394 5.18164L222.482 5.35742L222.394 5.21094C222.316 5.13281 222.277 5.06445 222.277 5.00586C222.296 5.00586 222.325 5.03516 222.364 5.09375L221.925 4.6543C221.925 4.69336 221.964 4.73242 222.042 4.77148C221.886 4.6543 221.788 4.58594 221.749 4.56641C221.71 4.54687 221.691 4.52734 221.691 4.50781H221.749L221.779 4.53711L220.958 4.33203H220.988C221.027 4.35156 221.095 4.36133 221.193 4.36133C220.841 4.36133 220.538 4.37109 220.284 4.39062L220.431 4.36133C220.392 4.40039 220.314 4.41992 220.196 4.41992C220.099 4.45898 220.03 4.47852 219.991 4.47852C219.972 4.47852 219.943 4.48828 219.904 4.50781C219.864 4.52734 219.825 4.53711 219.786 4.53711L219.581 4.625L219.698 4.56641L219.464 4.68359C219.269 4.78125 219.083 4.88867 218.907 5.00586C218.81 5.08398 218.702 5.15234 218.585 5.21094L218.497 5.24023L218.614 5.15234C218.556 5.21094 218.507 5.25977 218.468 5.29883C218.429 5.31836 218.409 5.33789 218.409 5.35742C217.57 6.04102 216.837 6.79297 216.212 7.61328L216.154 7.70117H216.124L216.036 7.81836L215.978 7.90625C215.157 8.96094 214.357 10.2402 213.575 11.7441C212.657 13.5215 211.808 15.3477 211.027 17.2227L210.939 17.457L210.997 17.2812V17.3398L210.646 18.1309C208.829 22.7402 207.345 27.8086 206.193 33.3359C206.173 33.5117 206.144 33.6777 206.105 33.834V34.0098L206.075 34.0977L206.105 33.8633C206.105 33.9805 206.095 34.0391 206.075 34.0391C206.017 34.6445 205.988 35.25 205.988 35.8555C205.988 36.2461 206.007 36.627 206.046 36.998V37.0566L206.017 36.998V36.9688C206.036 36.9688 206.046 37.0176 206.046 37.1152C206.183 37.7598 206.29 38.1211 206.368 38.1992C206.368 38.2383 206.388 38.2773 206.427 38.3164C206.368 38.3164 206.339 38.2578 206.339 38.1406H206.31L206.339 38.1699C206.339 38.1895 206.339 38.2188 206.339 38.2578C206.359 38.2773 206.407 38.3359 206.486 38.4336C206.564 38.5312 206.622 38.6387 206.661 38.7559L206.691 38.8145V38.7852C206.671 38.7852 206.652 38.7754 206.632 38.7559C206.632 38.7363 206.622 38.7168 206.603 38.6973C206.603 38.6582 206.583 38.6387 206.544 38.6387L207.159 39.2539C207.14 39.2539 207.081 39.2051 206.984 39.1074L207.218 39.2832L207.863 39.6348C207.804 39.6348 207.736 39.6055 207.657 39.5469H207.628C207.648 39.5664 207.696 39.5859 207.775 39.6055L208.038 39.6934L208.624 39.8398C208.722 39.8398 208.79 39.8496 208.829 39.8691H208.917V39.8984C208.898 39.8984 208.868 39.8984 208.829 39.8984C208.79 39.8789 208.761 39.8594 208.741 39.8398H208.654C208.732 39.8984 208.849 39.9277 209.005 39.9277C209.357 39.9277 209.571 39.9082 209.65 39.8691C209.962 39.8691 210.148 39.8594 210.206 39.8398H210.294L210.265 39.8691H210.177L210.236 39.8398H210.323C210.988 39.7422 211.613 39.5664 212.198 39.3125C212.296 39.2734 212.364 39.2539 212.404 39.2539L212.198 39.3418L212.257 39.3125C212.296 39.2734 212.335 39.2539 212.374 39.2539C212.413 39.2344 212.452 39.2148 212.491 39.1953C213.409 38.8047 215.03 37.7207 217.355 35.9434C217.413 35.8652 217.491 35.8066 217.589 35.7676C217.53 35.8262 217.482 35.8555 217.443 35.8555V35.8848C217.54 35.8066 217.599 35.7676 217.618 35.7676C217.638 35.748 217.657 35.7188 217.677 35.6797L218.029 35.416C220.529 33.3652 222.179 31.7734 222.98 30.6406C223.019 30.6211 223.048 30.5918 223.068 30.5527C223.087 30.5137 223.107 30.4941 223.126 30.4941C223.146 30.4746 223.155 30.4551 223.155 30.4355L223.097 30.5234L223.185 30.4062C223.693 29.7227 224.288 29.3809 224.972 29.3809C225.304 29.3809 225.665 29.4688 226.056 29.6445C226.779 30.0742 227.14 30.709 227.14 31.5488C227.14 31.9004 227.032 32.2324 226.818 32.5449C226.212 33.3457 225.568 34.1172 224.884 34.8594C222.325 37.4961 219.493 39.8008 216.388 41.7734C214.982 42.7109 213.448 43.3945 211.788 43.8242C211.027 44.0195 210.265 44.1172 209.503 44.1172ZM229.864 15.3477L204.025 14.9961C203.419 14.9766 202.921 14.7715 202.53 14.3809C202.159 13.9707 201.954 13.4727 201.915 12.8867C201.915 12.3008 202.12 11.8027 202.53 11.3926C202.96 10.9824 203.458 10.7773 204.025 10.7773L229.864 11.1289C230.47 11.1484 230.958 11.3535 231.329 11.7441C231.72 12.1348 231.935 12.6328 231.974 13.2383C231.974 13.8242 231.769 14.3223 231.359 14.7324C230.948 15.123 230.45 15.3281 229.864 15.3477ZM227.858 43.9707C226.335 43.9512 225.016 43.502 223.903 42.623C222.419 41.4707 221.677 39.7617 221.677 37.4961C221.677 35.9141 222.096 33.8535 222.936 31.3145L223.083 30.7871C223.923 27.9941 224.88 25.2402 225.954 22.5254C226.364 21.5293 227.057 21.0312 228.034 21.0312C228.815 21.0312 229.411 21.373 229.821 22.0566C230.016 22.3887 230.114 22.7207 230.114 23.0527C230.114 23.248 230.085 23.4434 230.026 23.6387C228.913 26.4316 227.936 29.2637 227.096 32.1348L227.067 32.1934C226.716 33.3457 226.403 34.5176 226.13 35.709C226.052 36.041 225.993 36.334 225.954 36.5879C225.954 36.627 225.944 36.6465 225.925 36.6465L225.954 36.4707C225.954 36.5684 225.944 36.6465 225.925 36.7051L225.895 37.9648L225.925 38.1406L225.866 37.9648L226.071 38.7852L226.13 38.9609L226.042 38.7266C226.1 38.8438 226.139 38.9219 226.159 38.9609C226.198 39 226.218 39.0293 226.218 39.0488C226.237 39.0684 226.257 39.0879 226.276 39.1074C226.354 39.1855 226.393 39.2441 226.393 39.2832L226.276 39.1367V39.166C226.296 39.1855 226.315 39.2051 226.335 39.2246C226.374 39.2441 226.393 39.2734 226.393 39.3125C226.413 39.332 226.442 39.3516 226.481 39.3711C226.54 39.3906 226.579 39.4102 226.598 39.4297C226.618 39.4297 226.637 39.4395 226.657 39.459L226.481 39.3711L226.891 39.6348C226.833 39.5957 226.794 39.5762 226.774 39.5762C226.774 39.5762 226.784 39.5762 226.804 39.5762L227.595 39.7812L227.389 39.752H228.268L228.356 39.7227C228.766 39.6641 229.177 39.5469 229.587 39.3711L229.47 39.4297L229.557 39.3711C229.616 39.332 229.675 39.3125 229.733 39.3125C230.69 38.8242 231.813 38.1211 233.102 37.2031L233.952 36.5879L234.245 36.3535C236.159 34.8105 237.907 33.1113 239.489 31.2559C239.88 30.8457 240.348 30.6406 240.895 30.6406C240.934 30.6406 241.1 30.6504 241.393 30.6699C241.686 30.6895 242.048 30.8848 242.477 31.2559C242.887 31.666 243.093 32.1348 243.093 32.6621C243.093 32.7012 243.083 32.8672 243.063 33.1602C243.044 33.4336 242.848 33.7949 242.477 34.2441C240.427 36.627 238.122 38.7461 235.563 40.6016C234.45 41.4609 233.249 42.2324 231.96 42.916C230.671 43.5996 229.304 43.9512 227.858 43.9707ZM230.554 15.5527C230.261 15.5527 229.987 15.4941 229.733 15.377C229.479 15.2793 229.255 15.1328 229.059 14.9375L228.679 14.5566C228.425 14.3027 228.249 13.9902 228.151 13.6191L228.063 13.0625C228.083 12.5938 228.229 12.1836 228.503 11.832C228.776 11.4609 229.069 11.2266 229.382 11.1289C229.616 11.0117 229.88 10.9531 230.173 10.9531C230.466 10.9531 230.739 11.0117 230.993 11.1289C231.227 11.207 231.491 11.3926 231.784 11.6855C232.214 12.1152 232.477 12.5156 232.575 12.8867L232.663 13.4434C232.663 13.9121 232.546 14.293 232.311 14.5859L232.077 14.9082C231.901 15.1035 231.667 15.2598 231.374 15.377C231.12 15.4941 230.846 15.5527 230.554 15.5527ZM248.645 43.8828C247.454 43.8828 246.262 43.6582 245.071 43.209C242.864 42.3496 241.282 40.8457 240.325 38.6973C239.661 37.2324 239.329 35.709 239.329 34.127C239.329 33.4434 239.387 32.7402 239.504 32.0176C240.246 27.8574 242.239 24.4199 245.481 21.7051C247.121 20.3379 248.928 19.3516 250.901 18.7461C251.995 18.4141 253.118 18.248 254.27 18.248C257.61 18.248 259.592 19.2441 260.217 21.2363C260.315 21.5488 260.364 21.8711 260.364 22.2031C260.364 23.1211 260.041 24.0684 259.397 25.0449C256.487 29.4395 251.663 32.0859 244.924 32.9844C244.358 33.0625 243.84 33.1016 243.371 33.1016C241.301 33.1016 240.266 32.3203 240.266 30.7578C240.266 30.3477 240.344 29.8691 240.5 29.3223C240.989 29.3223 241.663 29.2734 242.522 29.1758L243.371 29.0586C245.422 28.7852 247.414 28.2871 249.348 27.5645L250.051 27.3008C251.399 26.7734 252.532 26.1484 253.45 25.4258V25.3965L253.303 25.543C254.241 24.8008 254.954 24.0977 255.442 23.4336L255.325 23.5508L255.53 23.2578C255.842 22.8477 256.028 22.5449 256.086 22.3496V22.4082H256.057L256.086 22.3789V22.291C256.106 22.2715 256.116 22.2422 256.116 22.2031C256.135 22.1641 256.145 22.1152 256.145 22.0566L256.116 22.291V22.1152C256.116 22.291 256.204 22.4961 256.379 22.7305L256.409 22.7598L256.321 22.7305C256.379 22.7305 256.428 22.75 256.467 22.7891L255.178 22.4961C255.256 22.4961 255.315 22.5059 255.354 22.5254C255.022 22.4863 254.68 22.4668 254.329 22.4668C253.84 22.4668 253.469 22.4766 253.215 22.4961L253.332 22.4668C253.332 22.4863 253.303 22.4961 253.245 22.4961C253.205 22.4961 253.147 22.5059 253.069 22.5254C251.916 22.8184 251.272 23.0039 251.135 23.082C251.116 23.1016 251.077 23.1113 251.018 23.1113L251.135 23.082L251.077 23.1113C250.334 23.4434 249.495 23.9414 248.557 24.6055L248.733 24.459C247.698 25.2988 246.877 26.1094 246.272 26.8906L246.184 26.9785L246.243 26.8906C245.52 27.9062 244.944 28.873 244.514 29.791C244.495 29.8301 244.475 29.8691 244.455 29.9082C244.455 29.9277 244.455 29.9473 244.455 29.9668C244.143 30.6895 243.879 31.627 243.664 32.7793L243.635 32.9258C243.596 33.0625 243.577 33.668 243.577 34.7422C243.577 35.1719 243.596 35.416 243.635 35.4746V35.5332L243.577 35.2988C243.596 35.3379 243.606 35.3867 243.606 35.4453C243.606 35.6797 243.733 36.1289 243.987 36.793C244.006 36.8711 244.026 36.9199 244.045 36.9395C244.026 36.9395 244.016 36.9297 244.016 36.9102C244.016 36.8906 244.016 36.8613 244.016 36.8223L243.987 36.793C244.182 37.2227 244.397 37.6035 244.631 37.9355C244.651 37.9355 244.661 37.9453 244.661 37.9648C244.661 37.9453 244.651 37.9355 244.631 37.9355C244.631 37.916 244.602 37.877 244.543 37.8184L245.393 38.6387H245.364L245.246 38.5215H245.276C245.276 38.541 245.354 38.5996 245.51 38.6973C245.901 38.9707 246.243 39.166 246.536 39.2832L246.33 39.1953H246.389C246.487 39.293 246.916 39.4297 247.678 39.6055C247.776 39.625 247.883 39.6348 248 39.6348L247.766 39.6055H247.913L247.942 39.6348H249.436C249.475 39.5957 249.563 39.5762 249.7 39.5762L249.67 39.6055L249.553 39.6348H249.495C249.495 39.6152 249.514 39.6055 249.553 39.6055C249.67 39.6055 249.748 39.5859 249.788 39.5469C250.705 39.4102 251.692 38.9805 252.746 38.2578L253.186 37.9355L253.098 38.0234V37.9941C253.469 37.7793 254.114 37.1348 255.032 36.0605L255.061 36.0312L255.032 36.0898C255.403 35.6602 255.774 35.0254 256.145 34.1855L256.233 34.0098V34.0684C256.233 34.0488 256.233 34.0195 256.233 33.9805C256.252 33.9414 256.262 33.9121 256.262 33.8926C256.282 33.8535 256.291 33.834 256.291 33.834C256.311 33.834 256.399 33.541 256.555 32.9551L256.76 32.1055C256.76 32.2422 256.75 32.3105 256.731 32.3105L256.76 30.9922C256.76 30.8555 256.75 30.7773 256.731 30.7578C256.75 30.7773 256.76 30.8066 256.76 30.8457C256.76 30.8652 256.77 30.8848 256.789 30.9043V30.9922L256.526 29.9961C256.545 30.0156 256.555 30.0352 256.555 30.0547C256.555 30.0742 256.555 30.1035 256.555 30.1426C256.575 30.1816 256.594 30.2012 256.614 30.2012L256.174 29.4395H256.204L256.321 29.5566V29.5859C256.243 29.5859 256.135 29.498 255.998 29.3223C255.959 29.2637 255.911 29.2148 255.852 29.1758L258.84 26.1875L259.485 26.7148L259.895 27.0664C259.973 27.3789 260.452 27.8867 261.33 28.5898L261.506 28.707L261.623 28.7363C263.088 29.4004 264.924 29.7812 267.131 29.8789C269.163 29.957 270.227 30.4355 270.325 31.3145C270.5 32.7207 269.495 33.4141 267.307 33.3945C265.237 33.3945 263.381 33.209 261.741 32.8379C260.002 32.4277 258.049 31.1973 255.881 29.1465C255.471 28.7559 255.276 28.2969 255.295 27.7695V27.2715C255.295 26.9785 255.491 26.627 255.881 26.2168C256.272 25.7871 256.731 25.582 257.258 25.6016H257.756C258.049 25.6016 258.401 25.8066 258.811 26.2168C260.295 27.623 261.038 29.4492 261.038 31.6953C261.038 32.7891 260.725 34.1172 260.1 35.6797C259.495 37.2422 258.459 38.7461 256.995 40.1914C255.413 41.7539 253.567 42.8477 251.457 43.4727C250.52 43.7461 249.582 43.8828 248.645 43.8828ZM266.619 45.377C266.346 45.377 266.072 45.3184 265.799 45.2012C265.311 44.9863 264.959 44.6543 264.744 44.2051C264.588 43.9121 264.51 43.5996 264.51 43.2676C264.51 43.0332 266.561 35.0645 270.662 19.3613C270.838 18.7949 271.17 18.375 271.658 18.1016C271.99 17.9258 272.352 17.8379 272.742 17.8379C273.562 17.8379 274.158 18.1895 274.529 18.8926C274.705 19.2246 274.793 19.5762 274.793 19.9473C274.793 20.123 274.773 20.3086 274.734 20.5039L268.641 43.8535L264.803 42.2129C266.404 39.6348 267.986 37.0273 269.549 34.3906C271.111 31.7539 272.713 29.127 274.354 26.5098C275.506 24.5566 276.863 22.7598 278.426 21.1191C280.496 19.0488 282.654 17.9746 284.9 17.8965C286.502 17.916 287.732 18.5996 288.592 19.9473C289.041 20.8262 289.266 21.7734 289.266 22.7891C289.266 24.3711 289.012 26.0801 288.504 27.916L288.387 28.3555C288.094 29.5273 287.781 30.6895 287.449 31.8418C286.59 34.9668 286.072 37.2227 285.896 38.6094V38.4629C285.896 38.5605 285.887 38.6387 285.867 38.6973C285.828 38.9512 285.789 39.4492 285.75 40.1914V40.4551C285.652 40.2207 285.477 40.0156 285.223 39.8398C285.066 39.7422 284.93 39.6934 284.812 39.6934L284.725 39.7227L284.842 39.752H284.988C284.988 39.7324 284.979 39.7227 284.959 39.7227L284.725 39.7812L285.047 39.6934C285.184 39.6934 285.486 39.5957 285.955 39.4004C286.033 39.3613 286.121 39.332 286.219 39.3125L286.043 39.3711C286.043 39.3516 286.15 39.3027 286.365 39.2246L287.303 38.7266L288.709 37.8184L288.855 37.7012L288.738 37.7891C288.855 37.7109 288.963 37.623 289.061 37.5254L289.676 37.0273C290.711 36.0898 291.961 34.7812 293.426 33.1016C294.031 32.3984 294.646 31.7051 295.271 31.0215C295.682 30.6113 296.15 30.4062 296.678 30.4062C296.717 30.4062 296.883 30.416 297.176 30.4355C297.469 30.4355 297.82 30.6309 298.23 31.0215C298.66 31.4121 298.875 31.8711 298.875 32.3984C298.875 32.4375 298.865 32.6133 298.846 32.9258C298.846 33.2188 298.65 33.5801 298.26 34.0098C297.654 34.6543 297.049 35.3184 296.443 36.002C295.037 37.6621 293.523 39.2051 291.902 40.6309C290.281 42.0566 288.406 43.0918 286.277 43.7363C285.828 43.873 285.389 43.9414 284.959 43.9414C284.627 43.9414 284.188 43.8828 283.641 43.7656C283.094 43.6289 282.586 43.209 282.117 42.5059C281.727 41.8809 281.531 41.1973 281.531 40.4551C281.531 39.5957 281.6 38.7852 281.736 38.0234L281.795 37.584C282.166 35.3379 282.82 32.6426 283.758 29.498C284.305 27.2715 284.646 25.8359 284.783 25.1914C284.803 25.1523 284.842 24.918 284.9 24.4883C284.939 24.1758 284.979 24 285.018 23.9609L284.988 24.2539C284.988 24.1367 284.998 24.0684 285.018 24.0488C285.018 23.8535 285.027 23.6875 285.047 23.5508V22.7891L285.018 22.4668L285.047 22.6719L285.076 22.6426C285.076 22.623 285.066 22.5938 285.047 22.5547C285.047 22.5156 285.037 22.4668 285.018 22.4082C285.018 22.3496 285.008 22.2812 284.988 22.2031C284.969 22.125 284.959 22.0762 284.959 22.0566L284.93 22.0273C284.93 22.0469 284.93 22.0664 284.93 22.0859C284.949 22.1055 284.959 22.1445 284.959 22.2031C284.979 22.2617 285.008 22.291 285.047 22.291L284.812 21.8809L285.018 22.1738L284.988 22.1445C284.969 22.125 284.949 22.1055 284.93 22.0859C284.91 22.0469 284.891 22.0273 284.871 22.0273L284.959 22.0566C285.076 22.1152 285.145 22.1641 285.164 22.2031L284.959 22.0859L285.105 22.1445L284.9 22.1152L284.93 22.0859L285.105 22.1445C285.027 22.1445 284.959 22.1348 284.9 22.1152H284.871C284.559 22.1543 284.256 22.2324 283.963 22.3496C283.885 22.3496 283.768 22.3887 283.611 22.4668L283.875 22.3203L282.469 23.1699C282.43 23.209 282.391 23.2383 282.352 23.2578H282.322L282.439 23.1699L282.117 23.4629C281.902 23.6387 281.707 23.8145 281.531 23.9902C280.926 24.5957 280.447 25.123 280.096 25.5723C279.998 25.7285 279.93 25.8066 279.891 25.8066L280.037 25.6309C279.959 25.7285 279.91 25.7969 279.891 25.8359C279.891 25.8555 279.832 25.9238 279.715 26.041C278.855 27.3105 278.035 28.5801 277.254 29.8496L277.166 29.9668C275.877 32.0762 274.598 34.1953 273.328 36.3242C271.727 39.0195 270.096 41.6953 268.436 44.3516C267.986 45.0352 267.381 45.377 266.619 45.377Z" fill="#077DF9"/>
</svg>
