<svg width="50" height="50" viewBox="0 0 50 50" fill="none" xmlns="http://www.w3.org/2000/svg">
<rect width="50" height="50" rx="25" fill="url(#paint0_linear_28_136)"/>
<path fill-rule="evenodd" clip-rule="evenodd" d="M19.1328 19.6977L19.5616 23.5572L18.6938 23.6265C17.4837 23.7231 16.4956 24.6327 16.2994 25.8307C15.8473 28.5919 15.8473 31.4081 16.2994 34.1693C16.4956 35.3673 17.4837 36.277 18.6938 36.3736L20.564 36.5229C23.5167 36.7586 26.4834 36.7586 29.4361 36.5229L31.3063 36.3736C32.5164 36.277 33.5045 35.3673 33.7007 34.1693C34.1528 31.4081 34.1528 28.5919 33.7007 25.8307C33.5045 24.6327 32.5164 23.7231 31.3063 23.6265L30.4384 23.5572L30.8672 19.6977C30.9177 19.2428 30.9177 18.7836 30.8672 18.3286L30.8387 18.0725C30.5369 15.3558 28.4011 13.2062 25.6864 12.8868C25.2304 12.8331 24.7696 12.8331 24.3136 12.8868C21.5988 13.2062 19.4631 15.3557 19.1612 18.0725L19.1328 18.3286C19.0822 18.7836 19.0822 19.2428 19.1328 19.6977ZM25.4673 14.749C25.1568 14.7124 24.8431 14.7124 24.5327 14.749C22.6844 14.9664 21.2303 16.4299 21.0248 18.2795L20.9963 18.5357C20.961 18.853 20.961 19.1733 20.9963 19.4907L21.4323 23.4147C23.8083 23.2623 26.1917 23.2623 28.5677 23.4146L29.0037 19.4907C29.0389 19.1733 29.0389 18.853 29.0037 18.5357L28.9752 18.2795C28.7697 16.4299 27.3156 14.9664 25.4673 14.749ZM25 28.125C23.9645 28.125 23.125 28.9645 23.125 30C23.125 31.0355 23.9645 31.875 25 31.875C26.0355 31.875 26.875 31.0355 26.875 30C26.875 28.9645 26.0355 28.125 25 28.125Z" fill="white"/>
<defs>
<linearGradient id="paint0_linear_28_136" x1="50" y1="0" x2="0" y2="50" gradientUnits="userSpaceOnUse">
<stop stop-color="#2290FC"/>
<stop offset="1" stop-color="#0673E8"/>
</linearGradient>
</defs>
</svg>
