<svg width="139" height="37" viewBox="0 0 139 37" fill="none" xmlns="http://www.w3.org/2000/svg">
<path fill-rule="evenodd" clip-rule="evenodd" d="M9.74549 4.42527C7.40035 6.85912 5.46464 8.89489 5.44372 8.94933C5.42293 9.00376 7.22633 10.4857 9.45137 12.2426C11.6764 13.9994 13.6119 15.49 13.7524 15.5552C13.9151 15.6304 14.1314 15.6269 14.3478 15.5452C14.5347 15.4746 16.4865 13.9854 18.6851 12.2359C20.8838 10.4863 22.6827 9.0054 22.6827 8.94491C22.6827 8.88443 21.105 7.2015 19.1766 5.20504C17.2482 3.20859 15.3424 1.22083 14.9415 0.787593C14.5406 0.35448 14.1668 0 14.1109 0C14.0551 0 12.0906 1.99129 9.74549 4.42527ZM0.201121 7.45579C0.0244479 7.70808 0 8.40973 0 13.2282V18.7132H0.603862C1.1737 18.7132 1.33878 18.8049 3.53371 20.3398C4.81301 21.2345 6.10151 22.1605 6.39727 22.3976C6.6929 22.6348 7.0189 22.9915 7.12186 23.1905C7.27686 23.4904 7.30912 24.3235 7.31063 28.0635L7.31252 32.5748L9.77233 34.5911C11.1254 35.7 12.3418 36.6576 12.4756 36.7191C12.6442 36.7967 12.8169 36.7669 13.0383 36.6217L13.3576 36.4125V26.8576V17.3027L7.24346 12.2744C2.81605 8.63303 1.02904 7.23527 0.765792 7.2073C0.502547 7.17932 0.346794 7.24787 0.201121 7.45579ZM21.2799 11.9782C18.0662 14.6157 15.2808 16.9416 15.0903 17.1468L14.7437 17.5201V26.8489V36.1777L15.0609 36.4949C15.2875 36.7215 15.4536 36.788 15.6429 36.7279C15.7887 36.6817 17.0042 35.7393 18.3442 34.6338L20.7807 32.6237L20.8182 28.0628C20.8511 24.0381 20.8809 23.4554 21.0715 23.1072C21.2151 22.8447 22.1853 22.0817 23.9698 20.8277C25.4451 19.791 26.7875 18.8707 26.953 18.7828C27.1211 18.6934 27.4408 18.6532 27.6775 18.6917L28.1013 18.7603V13.1697C28.1013 8.25511 28.0774 7.55497 27.9034 7.38082C27.7944 7.27194 27.5743 7.18285 27.4142 7.18285C27.2175 7.18285 25.2277 8.73837 21.2799 11.9782Z" fill="#077DF9"/>
<path d="M42.735 0.141357C44.8988 0.141357 46.4881 0.64127 47.5028 1.6411C48.5325 2.626 49.0473 4.16304 49.0473 6.25223C49.0473 8.25188 48.4952 9.72924 47.3909 10.6843C46.3016 11.6244 44.5929 12.0945 42.2649 12.0945H40.0713V16.5266H35.0573V0.141357H42.735ZM41.8844 8.19965C42.6306 8.19965 43.1827 8.04296 43.5408 7.72959C43.899 7.41621 44.0781 6.92376 44.0781 6.25223C44.0781 5.53594 43.899 5.00618 43.5408 4.66296C43.1827 4.31973 42.6306 4.14812 41.8844 4.14812H40.0713V8.19965H41.8844Z" fill="#0E185F"/>
<path d="M63.2657 12.5198V16.5266H50.4395V0.141357H55.476V12.5198H63.2657Z" fill="#0E185F"/>
<path d="M76.7205 16.5266L75.6684 14.1986H69.6694L68.6174 16.5266H63.2452L70.4977 0.163743H74.8402L82.0927 16.5266H76.7205ZM72.6689 6.25223L71.102 10.3933H74.2582L72.6689 6.25223Z" fill="#0E185F"/>
<path d="M87.7109 16.5266H82.7192V0.141357H87.7109V16.5266Z" fill="#0E185F"/>
<path d="M101.595 16.5266L95.5511 8.49065V16.5266H90.5595V0.141357H95.1706L101.237 8.26681V0.141357H106.228V16.5266H101.595Z" fill="#0E185F"/>
<path d="M42.735 19.9657C44.8988 19.9657 46.4881 20.4656 47.5028 21.4655C48.5325 22.4504 49.0473 23.9874 49.0473 26.0766C49.0473 28.0763 48.4952 29.5536 47.3909 30.5087C46.3016 31.4488 44.5929 31.9189 42.2649 31.9189H40.0713V36.3509H35.0573V19.9657H42.735ZM41.8844 28.024C42.6306 28.024 43.1827 27.8673 43.5408 27.554C43.899 27.2406 44.0781 26.7481 44.0781 26.0766C44.0781 25.3603 43.899 24.8306 43.5408 24.4873C43.1827 24.1441 42.6306 23.9725 41.8844 23.9725H40.0713V28.024H41.8844Z" fill="#0E185F"/>
<path d="M59.7066 36.3509L57.0652 31.404H55.5431V36.3509H50.5515V19.9657H58.3411C60.3706 19.9657 61.9077 20.4731 62.9523 21.4879C63.9969 22.4877 64.5192 23.965 64.5192 25.9199C64.5192 28.5016 63.6238 30.0759 61.8331 30.643L65.1235 36.3509H59.7066ZM57.692 27.5092C58.3038 27.5092 58.7664 27.3674 59.0798 27.0839C59.4081 26.8004 59.5723 26.3825 59.5723 25.8304C59.5723 24.5918 58.9455 23.9725 57.692 23.9725H55.5431V27.5092H57.692Z" fill="#0E185F"/>
<path d="M74.8237 36.6195C71.9437 36.6195 69.7575 35.9033 68.2652 34.4707C66.7878 33.0381 66.0492 30.934 66.0492 28.1583C66.0492 25.3827 66.7878 23.2786 68.2652 21.846C69.7575 20.4134 71.9437 19.6971 74.8237 19.6971C77.7038 19.6971 79.8826 20.4134 81.3599 21.846C82.8373 23.2786 83.576 25.3827 83.576 28.1583C83.576 30.934 82.8373 33.0381 81.3599 34.4707C79.8826 35.9033 77.7038 36.6195 74.8237 36.6195ZM74.8237 23.883C73.5852 23.883 72.645 24.2486 72.0033 24.9798C71.3766 25.6961 71.0632 26.7556 71.0632 28.1583C71.0632 29.5611 71.3766 30.6206 72.0033 31.3369C72.645 32.0532 73.5852 32.4113 74.8237 32.4113C76.0474 32.4113 76.9726 32.0532 77.5994 31.3369C78.2411 30.6206 78.5619 29.5611 78.5619 28.1583C78.5619 26.7556 78.2485 25.6961 77.6218 24.9798C76.995 24.2486 76.0623 23.883 74.8237 23.883Z" fill="#0E185F"/>
<path d="M88.9177 28.2479L85.6944 24.0844L84.0156 21.9579C83.5381 21.361 83.0232 20.697 82.4711 19.9657H88.4924L91.8277 24.7112L92.9469 23.0771L93.8422 21.7789L95.0957 19.9657H101.095L94.6928 28.2479L95.7673 29.5909L98.7891 33.4186L101.072 36.3509H95.0062L91.8053 31.807L91.4247 32.3442L90.8428 33.15L89.9474 34.4259L88.582 36.3509H82.6054L88.9177 28.2479Z" fill="#0E185F"/>
<path d="M106.942 36.3509H101.95V19.9657H106.942V36.3509Z" fill="#0E185F"/>
<path d="M115.065 23.9725V26.1438H122.206V30.1505H115.065V32.3442H123.124V36.3509H110.074V19.9657H123.124V23.9725H115.065Z" fill="#0E185F"/>
<path d="M126.577 31.0011C127.278 31.419 128.159 31.7696 129.218 32.0532C130.278 32.3218 131.277 32.4561 132.218 32.4561C132.874 32.4561 133.329 32.3964 133.583 32.277C133.852 32.1427 133.986 31.8741 133.986 31.4712C133.986 31.1429 133.867 30.9265 133.628 30.8221C133.404 30.7027 132.971 30.5907 132.33 30.4863L131.546 30.352C129.979 30.0535 128.718 29.6879 127.763 29.2552C126.808 28.8224 126.107 28.2852 125.659 27.6435C125.211 26.9869 124.988 26.196 124.988 25.2708C124.988 23.3607 125.51 21.9654 126.554 21.0849C127.614 20.1896 129.33 19.7419 131.703 19.7419C133.001 19.7419 134.24 19.9135 135.419 20.2567C136.597 20.6 137.642 21.0551 138.552 21.6222L136.582 25.1365C135.926 24.7783 135.128 24.4873 134.187 24.2635C133.262 24.0397 132.397 23.9277 131.591 23.9277C131.024 23.9277 130.613 23.9949 130.36 24.1292C130.121 24.2635 130.002 24.4948 130.002 24.8231C130.002 25.0768 130.069 25.2708 130.203 25.4051C130.337 25.5394 130.524 25.6364 130.763 25.6961C131.001 25.7558 131.427 25.8378 132.039 25.9423C133.725 26.196 135.068 26.5318 136.068 26.9496C137.082 27.3525 137.821 27.8823 138.284 28.5389C138.761 29.1805 139 29.9938 139 30.9787C139 32.9336 138.478 34.3662 137.433 35.2765C136.389 36.1719 134.68 36.6195 132.307 36.6195C130.86 36.6195 129.479 36.4479 128.166 36.1047C126.853 35.7466 125.726 35.2243 124.786 34.5378L126.577 31.0011Z" fill="#0E185F"/>
</svg>
