<svg width="151" height="46" viewBox="0 0 151 46" fill="none" xmlns="http://www.w3.org/2000/svg">
<path d="M25.0566 45.5527C22.166 45.5527 18.8945 44.8887 15.2422 43.5605C13.6406 42.9746 12.3711 42.5938 11.4336 42.418C11.3164 42.3984 11.1992 42.3691 11.082 42.3301C10.8867 42.291 10.418 42.2715 9.67578 42.2715C9.55859 42.2715 9.5 42.2617 9.5 42.2422L9.76367 42.2715L9.64648 42.2422L8.85547 42.4766V42.4473C8.91406 42.4082 8.97266 42.3887 9.03125 42.3887C9.03125 42.4082 8.86523 42.5059 8.5332 42.6816L8.70898 42.5645L8.35742 42.8867V39.9863C8.2207 39.9082 8.15234 39.8594 8.15234 39.8398L8.44531 40.0156L8.21094 39.8984C8.28906 39.9375 8.37695 39.9668 8.47461 39.9863L8.21094 39.957H8.65039V39.9277L8.47461 39.957C8.55273 39.957 8.62109 39.9473 8.67969 39.9277C8.75781 39.8887 8.81641 39.8594 8.85547 39.8398C8.91406 39.8008 8.95312 39.7812 8.97266 39.7812C8.97266 39.8008 8.9043 39.8398 8.76758 39.8984L9.11914 39.7227C9.60742 39.4688 10.1836 38.9707 10.8477 38.2285L10.7305 38.3457C12.4492 35.9043 13.6992 33.6875 14.4805 31.6953C14.5 31.6562 14.5293 31.5977 14.5684 31.5195C14.627 31.4414 14.6562 31.3828 14.6562 31.3438L14.5977 31.4609C15.75 28.8242 17.1562 24.7227 18.8164 19.1562L19.959 15.1719C20.877 12.0273 22.0684 8.99023 23.5332 6.06055C24.2168 4.69336 25.1348 3.51172 26.2871 2.51562C27.127 1.8125 28.0938 1.45117 29.1875 1.43164C30.3594 1.41211 31.2676 1.77344 31.9121 2.51562C32.8301 3.57031 33.2891 4.76172 33.2891 6.08984C33.2891 7.69141 32.8496 9.64453 31.9707 11.9492L31.7656 12.5352C29.3438 19.5469 25.5254 25.0156 20.3105 28.9414C18.3379 31.0117 15.7109 32.7598 12.4297 34.1855C9.83203 34.9863 7.63477 35.4844 5.83789 35.6797C4.62695 35.8164 3.42578 35.875 2.23438 35.8555L1.53125 35.8262C0.945312 35.8066 0.525391 35.543 0.271484 35.0352C0.0957031 34.6836 0.0078125 34.3223 0.0078125 33.9512C0.0078125 33.7949 0.0273438 33.6289 0.0664062 33.4531C0.339844 32.4961 1.04297 31.9688 2.17578 31.8711C4.77344 31.6562 6.57031 31.4512 7.56641 31.2559L7.88867 31.1973C9.58789 30.9434 11.2676 30.4844 12.9277 29.8203L12.8105 29.8496C14.6465 29.0098 16.2969 27.6523 17.7617 25.7773C17.7617 25.7578 17.7617 25.748 17.7617 25.748C17.7812 25.7285 17.8789 25.6602 18.0547 25.543H18.0254L17.9375 25.6309C19.6367 24.3418 21.1309 22.877 22.4199 21.2363C22.3809 21.2754 22.3613 21.3047 22.3613 21.3242H22.332H22.3613L22.5664 21.0312C23.4844 19.8398 24.3145 18.5898 25.0566 17.2812C25.6816 16.1875 26.3262 14.791 26.9902 13.0918C27.9082 10.8066 28.582 8.72656 29.0117 6.85156L28.9824 6.96875L29.041 6.00195C29.002 5.96289 28.9824 5.85547 28.9824 5.67969L29.041 5.85547C29.0215 5.75781 28.9922 5.66992 28.9531 5.5918C28.9336 5.49414 28.9141 5.41602 28.8945 5.35742C28.875 5.2793 28.8555 5.23047 28.8359 5.21094C28.8359 5.19141 28.8262 5.18164 28.8066 5.18164C28.8262 5.18164 28.8359 5.20117 28.8359 5.24023C28.8359 5.25977 28.8652 5.29883 28.9238 5.35742L28.748 5.09375L28.8945 5.26953L28.7773 5.15234C28.875 5.23047 28.9531 5.28906 29.0117 5.32812C29.0898 5.34766 29.1582 5.36719 29.2168 5.38672C29.2949 5.38672 29.3438 5.39648 29.3633 5.41602L29.5684 5.38672C29.5098 5.40625 29.4512 5.42578 29.3926 5.44531C29.3535 5.46484 29.3145 5.48437 29.2754 5.50391C29.2363 5.50391 29.1973 5.5332 29.1582 5.5918C29.1191 5.63086 29.0801 5.65039 29.041 5.65039C29.0215 5.65039 29.002 5.66016 28.9824 5.67969L29.1582 5.5332C28.7871 5.8457 28.4648 6.1582 28.1914 6.4707H28.2207L28.1914 6.5293C27.957 6.76367 27.6445 7.24219 27.2539 7.96484C26.6875 9.01953 26.4043 9.60547 26.4043 9.72266L26.4336 9.69336C25.1641 12.8574 23.9531 16.5 22.8008 20.6211C18.9531 34.2734 14.7637 41.959 10.2324 43.6777C9.60742 43.9121 9.01172 44.0293 8.44531 44.0293C7.35156 44.0293 6.33594 43.6387 5.39844 42.8574C4.96875 42.5059 4.76367 42.0664 4.7832 41.5391V41.041C4.7832 40.748 4.98828 40.4062 5.39844 40.0156C6.64844 38.8047 8.2207 38.1992 10.1152 38.1992C11.7559 38.1992 13.9336 38.6875 16.6484 39.6641C18.7773 40.4453 20.8086 40.9824 22.7422 41.2754L22.7715 41.3047L22.6543 41.2754H22.7129C22.8105 41.373 23.6016 41.4219 25.0859 41.4219C26.4531 41.4219 27.2148 41.3828 27.3711 41.3047H27.4004L27.3418 41.334C27.9668 41.334 29.0605 41.0605 30.623 40.5137C30.6621 40.4941 30.7109 40.4551 30.7695 40.3965H30.7988C30.7598 40.4355 30.6914 40.4648 30.5938 40.4844C30.8281 40.4062 31.1797 40.2402 31.6484 39.9863C32.5469 39.5176 33.123 39.1562 33.377 38.9023H33.3477L33.2305 39.0195C33.2891 38.9609 33.377 38.8926 33.4941 38.8145C34.1387 38.2871 34.7246 37.7012 35.252 37.0566L35.1641 37.1445C35.1641 37.125 35.1934 37.0957 35.252 37.0566C35.3105 36.998 35.3789 36.9004 35.457 36.7637L35.5156 36.6758C35.75 36.3438 36.043 35.8262 36.3945 35.123V35.1816L36.3066 35.3281C36.5215 34.8789 36.7168 34.1953 36.8926 33.2773C37.0098 32.7109 37.332 32.3105 37.8594 32.0762C38.1914 31.9199 38.5332 31.8418 38.8848 31.8418C38.9629 31.8418 39.1484 31.8711 39.4414 31.9297C40.4375 32.1445 40.916 32.7793 40.877 33.834L40.7891 34.3613C40.3203 37.1348 39.002 39.4785 36.834 41.3926C33.6699 44.166 29.7441 45.5527 25.0566 45.5527ZM45.5504 43.8828C44.359 43.8828 43.1676 43.6582 41.9762 43.209C39.7691 42.3496 38.1871 40.8457 37.2301 38.6973C36.566 37.2324 36.234 35.709 36.234 34.127C36.234 33.4434 36.2926 32.7402 36.4098 32.0176C37.152 27.8574 39.1441 24.4199 42.3863 21.7051C44.027 20.3379 45.8336 19.3516 47.8063 18.7461C48.9 18.4141 50.023 18.248 51.1754 18.248C54.5152 18.248 56.4977 19.2441 57.1227 21.2363C57.2203 21.5488 57.2691 21.8711 57.2691 22.2031C57.2691 23.1211 56.9469 24.0684 56.3023 25.0449C53.3922 29.4395 48.568 32.0859 41.8297 32.9844C41.2633 33.0625 40.7457 33.1016 40.277 33.1016C38.2066 33.1016 37.1715 32.3203 37.1715 30.7578C37.1715 30.3477 37.2496 29.8691 37.4059 29.3223C37.8941 29.3223 38.568 29.2734 39.4273 29.1758L40.277 29.0586C42.3277 28.7852 44.3199 28.2871 46.2535 27.5645L46.9566 27.3008C48.3043 26.7734 49.4371 26.1484 50.3551 25.4258V25.3965L50.2086 25.543C51.1461 24.8008 51.859 24.0977 52.3473 23.4336L52.2301 23.5508L52.4352 23.2578C52.7477 22.8477 52.9332 22.5449 52.9918 22.3496V22.4082H52.9625L52.9918 22.3789V22.291C53.0113 22.2715 53.0211 22.2422 53.0211 22.2031C53.0406 22.1641 53.0504 22.1152 53.0504 22.0566L53.0211 22.291V22.1152C53.0211 22.291 53.109 22.4961 53.2848 22.7305L53.3141 22.7598L53.2262 22.7305C53.2848 22.7305 53.3336 22.75 53.3727 22.7891L52.0836 22.4961C52.1617 22.4961 52.2203 22.5059 52.2594 22.5254C51.9273 22.4863 51.5855 22.4668 51.234 22.4668C50.7457 22.4668 50.3746 22.4766 50.1207 22.4961L50.2379 22.4668C50.2379 22.4863 50.2086 22.4961 50.15 22.4961C50.1109 22.4961 50.0523 22.5059 49.9742 22.5254C48.8219 22.8184 48.1773 23.0039 48.0406 23.082C48.0211 23.1016 47.982 23.1113 47.9234 23.1113L48.0406 23.082L47.982 23.1113C47.2398 23.4434 46.4 23.9414 45.4625 24.6055L45.6383 24.459C44.6031 25.2988 43.7828 26.1094 43.1773 26.8906L43.0895 26.9785L43.148 26.8906C42.4254 27.9062 41.8492 28.873 41.4195 29.791C41.4 29.8301 41.3805 29.8691 41.3609 29.9082C41.3609 29.9277 41.3609 29.9473 41.3609 29.9668C41.0484 30.6895 40.7848 31.627 40.5699 32.7793L40.5406 32.9258C40.5016 33.0625 40.482 33.668 40.482 34.7422C40.482 35.1719 40.5016 35.416 40.5406 35.4746V35.5332L40.482 35.2988C40.5016 35.3379 40.5113 35.3867 40.5113 35.4453C40.5113 35.6797 40.6383 36.1289 40.8922 36.793C40.9117 36.8711 40.9313 36.9199 40.9508 36.9395C40.9313 36.9395 40.9215 36.9297 40.9215 36.9102C40.9215 36.8906 40.9215 36.8613 40.9215 36.8223L40.8922 36.793C41.0875 37.2227 41.3023 37.6035 41.5367 37.9355C41.5563 37.9355 41.566 37.9453 41.566 37.9648C41.566 37.9453 41.5563 37.9355 41.5367 37.9355C41.5367 37.916 41.5074 37.877 41.4488 37.8184L42.2984 38.6387H42.2691L42.152 38.5215H42.1813C42.1813 38.541 42.2594 38.5996 42.4156 38.6973C42.8063 38.9707 43.148 39.166 43.441 39.2832L43.2359 39.1953H43.2945C43.3922 39.293 43.8219 39.4297 44.5836 39.6055C44.6813 39.625 44.7887 39.6348 44.9059 39.6348L44.6715 39.6055H44.818L44.8473 39.6348H46.3414C46.3805 39.5957 46.4684 39.5762 46.6051 39.5762L46.5758 39.6055L46.4586 39.6348H46.4C46.4 39.6152 46.4195 39.6055 46.4586 39.6055C46.5758 39.6055 46.6539 39.5859 46.693 39.5469C47.6109 39.4102 48.5973 38.9805 49.652 38.2578L50.0914 37.9355L50.0035 38.0234V37.9941C50.3746 37.7793 51.0191 37.1348 51.9371 36.0605L51.9664 36.0312L51.9371 36.0898C52.3082 35.6602 52.6793 35.0254 53.0504 34.1855L53.1383 34.0098V34.0684C53.1383 34.0488 53.1383 34.0195 53.1383 33.9805C53.1578 33.9414 53.1676 33.9121 53.1676 33.8926C53.1871 33.8535 53.1969 33.834 53.1969 33.834C53.2164 33.834 53.3043 33.541 53.4605 32.9551L53.6656 32.1055C53.6656 32.2422 53.6559 32.3105 53.6363 32.3105L53.6656 30.9922C53.6656 30.8555 53.6559 30.7773 53.6363 30.7578C53.6559 30.7773 53.6656 30.8066 53.6656 30.8457C53.6656 30.8652 53.6754 30.8848 53.6949 30.9043V30.9922L53.4313 29.9961C53.4508 30.0156 53.4605 30.0352 53.4605 30.0547C53.4605 30.0742 53.4605 30.1035 53.4605 30.1426C53.4801 30.1816 53.4996 30.2012 53.5191 30.2012L53.0797 29.4395H53.109L53.2262 29.5566V29.5859C53.148 29.5859 53.0406 29.498 52.9039 29.3223C52.8648 29.2637 52.816 29.2148 52.7574 29.1758L55.7457 26.1875L56.3902 26.7148L56.8004 27.0664C56.8785 27.3789 57.357 27.8867 58.2359 28.5898L58.4117 28.707L58.5289 28.7363C59.9938 29.4004 61.8297 29.7812 64.0367 29.8789C66.068 29.957 67.1324 30.4355 67.2301 31.3145C67.4059 32.7207 66.4 33.4141 64.2125 33.3945C62.1422 33.3945 60.2867 33.209 58.6461 32.8379C56.9078 32.4277 54.9547 31.1973 52.7867 29.1465C52.3766 28.7559 52.1813 28.2969 52.2008 27.7695V27.2715C52.2008 26.9785 52.3961 26.627 52.7867 26.2168C53.1773 25.7871 53.6363 25.582 54.1637 25.6016H54.6617C54.9547 25.6016 55.3063 25.8066 55.7164 26.2168C57.2008 27.623 57.943 29.4492 57.943 31.6953C57.943 32.7891 57.6305 34.1172 57.0055 35.6797C56.4 37.2422 55.3648 38.7461 53.9 40.1914C52.318 41.7539 50.4723 42.8477 48.3629 43.4727C47.4254 43.7461 46.4879 43.8828 45.5504 43.8828ZM66.718 44.1172C65.0578 44.1172 63.9348 43.3359 63.3488 41.7734C63.2316 41.2656 63.173 40.748 63.173 40.2207C63.173 39.5762 63.2707 38.4336 63.466 36.793C63.759 34.0977 64.2375 31.4023 64.9016 28.707C65.2531 27.2227 65.4973 26.0605 65.634 25.2207V25.3379L65.6047 25.3965L65.634 25.2793L65.6926 24.5176L65.7219 23.9023C65.7219 23.5117 65.6535 23.043 65.5168 22.4961C65.4777 22.3203 65.4582 22.1543 65.4582 21.998C65.4582 20.9629 65.9758 20.2695 67.0109 19.918C67.2062 19.8594 67.3918 19.8301 67.5676 19.8301C67.9191 19.8301 68.3098 19.957 68.7395 20.2109C69.5207 20.6602 69.9113 21.959 69.9113 24.1074C69.9113 25.5137 69.5891 27.457 68.9445 29.9375C68.5539 31.3828 68.173 33.3262 67.802 35.7676C67.802 35.8262 67.7922 35.875 67.7727 35.9141V35.9727L67.802 35.8848L67.7141 36.5586C67.5578 37.8281 67.4504 38.9609 67.3918 39.957V40.4551L67.3625 40.3965L67.3918 40.543L67.2746 40.3672C67.216 40.2305 67.1184 40.123 66.9816 40.0449C66.8645 39.9473 66.718 39.8984 66.5422 39.8984C66.6203 39.8984 66.6691 39.9082 66.6887 39.9277H66.718L66.6594 39.957L66.5129 39.9863V39.957C66.5324 39.9375 66.6496 39.8984 66.8645 39.8398L67.1281 39.7812L67.0109 39.8398H66.9816L67.1281 39.752C67.2453 39.6738 67.3625 39.6152 67.4797 39.5762C67.7531 39.4199 68.0168 39.2441 68.2707 39.0488L68.1535 39.1367H68.1242C68.2805 39.0195 68.3586 38.9609 68.3586 38.9609C68.3781 38.9414 68.3977 38.9316 68.4172 38.9316L68.8566 38.5508C69.5793 37.8281 70.2238 37.1152 70.7902 36.4121C73.7785 32.8379 77.8508 27.9062 83.007 21.6172C83.3586 21.2266 83.8371 21.0312 84.4426 21.0312C85.3996 21.0312 86.0734 21.4609 86.4641 22.3203C86.5812 22.5742 86.6398 22.8281 86.6398 23.082C86.6398 23.2773 86.6008 23.4727 86.5227 23.668C86.2102 24.4492 85.966 25.2695 85.7902 26.1289C85.7707 26.1484 85.7609 26.1777 85.7609 26.2168C85.7609 26.2363 85.7512 26.2754 85.7316 26.334V26.5098L85.673 26.7441V26.627C85.6145 27.0566 85.5852 27.6816 85.5852 28.502C85.6047 28.5605 85.6145 28.6484 85.6145 28.7656L85.5852 28.6191C85.6242 28.8535 85.6828 29.0879 85.7609 29.3223L85.7023 29.1465L85.8781 29.4395L85.7609 29.293L85.966 29.5273L85.7902 29.3809C85.8098 29.3809 85.8586 29.4102 85.9367 29.4688C86.0148 29.5273 86.1027 29.5762 86.2004 29.6152C86.0637 29.5566 85.9953 29.5176 85.9953 29.498L86.3176 29.6445C86.552 29.7031 86.6984 29.7324 86.757 29.7324L86.5227 29.7031C86.7375 29.7031 86.9035 29.7129 87.0207 29.7324C87.6848 29.7324 88.134 29.7031 88.3684 29.6445H88.5441L88.3098 29.6738C88.6027 29.6152 88.8859 29.5859 89.1594 29.5859C90.1359 29.5859 90.8293 30.084 91.2395 31.0801C91.298 31.2754 91.3273 31.4609 91.3273 31.6367C91.3273 31.9883 91.2004 32.3887 90.9465 32.8379C90.7121 33.2871 90.3215 33.5703 89.7746 33.6875C88.9934 33.8242 88.2219 33.8926 87.4602 33.8926C86.8156 33.8926 85.9758 33.8145 84.9406 33.6582C83.925 33.4824 82.9875 32.7402 82.1281 31.4316C81.6008 30.3965 81.3371 29.3027 81.3371 28.1504C81.3371 26.3145 81.7082 24.4492 82.4504 22.5547L85.9953 24.6055C78.5734 33.5703 74.7648 38.1797 74.5695 38.4336C73.8273 39.3711 73.0461 40.2695 72.2258 41.1289C71.093 42.3203 69.7648 43.2188 68.2414 43.8242C67.7141 44.0195 67.2062 44.1172 66.718 44.1172ZM95.4734 44.0586C94.1648 44.0586 92.8465 43.7656 91.5184 43.1797C90.1902 42.5938 89.1453 41.6172 88.3836 40.25C87.8172 39.0781 87.534 37.877 87.534 36.6465C87.534 34.8691 88.0223 32.9453 88.9988 30.875C90.2488 28.2578 91.8699 25.8945 93.8621 23.7852C96.1277 21.2852 98.5984 19.9961 101.274 19.918C102.583 19.918 103.833 20.2402 105.024 20.8848C106.235 21.5293 107.143 22.4473 107.749 23.6387C108.12 24.498 108.305 25.3379 108.305 26.1582C108.305 28.1309 107.358 30.0059 105.464 31.7832C102.983 34.0293 100.093 35.1523 96.7918 35.1523C94.8191 35.1523 92.9246 34.6934 91.1082 33.7754C90.4246 33.4043 90.0828 32.7988 90.0828 31.959C90.0828 31.5879 90.1707 31.2266 90.3465 30.875C90.7371 30.2109 91.3426 29.8789 92.1629 29.8789C92.5145 29.8789 92.9539 30.0059 93.4812 30.2598L93.8035 30.4062C93.784 30.4062 93.7645 30.4062 93.7449 30.4062C93.7254 30.4062 93.6961 30.3965 93.657 30.377C93.618 30.3574 93.5984 30.3379 93.5984 30.3184L93.8328 30.4062C94.243 30.6016 94.7215 30.7383 95.2684 30.8164C95.3855 30.875 95.5418 30.9043 95.7371 30.9043L95.532 30.875C95.6297 30.9141 96.0203 30.9336 96.7039 30.9336C97.368 30.9336 97.8172 30.9141 98.0516 30.875C97.9539 30.9141 97.8855 30.9336 97.8465 30.9336H97.8172L98.0223 30.875C98.0613 30.875 98.0906 30.8652 98.1102 30.8457C99.0477 30.6895 99.7703 30.4844 100.278 30.2305L100.044 30.3184C100.376 30.2012 100.766 30.0059 101.216 29.7324C101.665 29.459 101.919 29.293 101.977 29.2344L102.124 29.1172L101.948 29.2637L102.065 29.1758C102.905 28.3359 103.325 27.916 103.325 27.916L103.413 27.7988L103.296 27.9746V27.916C103.374 27.7988 103.432 27.7207 103.471 27.6816C103.511 27.623 103.55 27.5547 103.589 27.4766C103.686 27.3398 103.764 27.2129 103.823 27.0957C103.901 26.959 103.94 26.8906 103.94 26.8906C103.94 26.8711 103.95 26.8516 103.97 26.832L103.911 26.9492L104.087 26.4219L104.116 26.2461V25.8652L104.145 25.8359L104.175 25.8652C104.175 25.8848 104.175 25.9043 104.175 25.9238C104.175 25.9434 104.184 25.9629 104.204 25.9824C104.204 26.0215 104.194 26.041 104.175 26.041C104.155 26.0215 104.136 25.9922 104.116 25.9531C104.116 25.9141 104.106 25.875 104.087 25.8359C104.087 25.7969 104.077 25.7578 104.057 25.7188C104.038 25.6797 104.028 25.6406 104.028 25.6016C104.028 25.5625 104.038 25.543 104.057 25.543L104.145 25.748L104.057 25.6602C103.979 25.5039 103.93 25.4258 103.911 25.4258C103.911 25.4062 103.901 25.377 103.882 25.3379C103.862 25.2988 103.823 25.2402 103.764 25.1621L103.911 25.3086L103.296 24.7227L103.501 24.8984L102.593 24.3418V24.3125L102.798 24.459L102.563 24.3418C102.134 24.2246 101.87 24.166 101.772 24.166C101.694 24.1465 101.655 24.127 101.655 24.1074L101.684 24.0781L101.889 24.166C101.811 24.127 101.714 24.1074 101.596 24.1074C101.479 24.1074 101.372 24.1172 101.274 24.1367H101.011C100.893 24.1367 100.835 24.1465 100.835 24.166C100.835 24.127 100.903 24.1074 101.04 24.1074C101.001 24.1465 100.874 24.1855 100.659 24.2246C100.444 24.2637 100.259 24.3125 100.102 24.3711C99.9656 24.4297 99.8387 24.4785 99.7215 24.5176L99.8973 24.4297L99.7215 24.5176C99.1551 24.8301 98.7937 25.0352 98.6375 25.1328L98.4324 25.2793L98.3445 25.3672C98.3445 25.3477 98.3641 25.3281 98.4031 25.3086C98.4422 25.2891 98.4715 25.2695 98.491 25.25L97.3777 26.2461C96.8699 26.7344 96.2937 27.3789 95.6492 28.1797L95.5027 28.3555H95.532C95.532 28.3164 95.5613 28.2676 95.6199 28.209L95.327 28.6191C94.4871 29.7129 93.6473 31.0508 92.8074 32.6328L92.7195 32.8965C92.6414 33.0137 92.6023 33.1016 92.6023 33.1602L92.6316 33.043C92.2605 33.9414 91.9969 34.8398 91.8406 35.7383L91.8113 35.9141L91.8406 35.7676C91.8016 36.0996 91.782 36.4316 91.782 36.7637V37.1445C91.782 37.3594 91.8504 37.6719 91.9871 38.082C91.9871 38.0234 91.9773 37.9746 91.9578 37.9355L92.075 38.1992C92.1336 38.3555 92.241 38.5117 92.3973 38.668L92.2508 38.5215C92.407 38.6973 92.573 38.8535 92.7488 38.9902L92.866 39.1367C92.866 39.1172 92.8562 39.1074 92.8367 39.1074C92.8367 39.0879 92.7977 39.0488 92.7195 38.9902L93.2469 39.3418C93.325 39.3613 93.3934 39.3906 93.452 39.4297C93.5105 39.4688 93.5496 39.498 93.5691 39.5176C93.5887 39.5176 93.5984 39.5273 93.5984 39.5469L93.5398 39.4883C93.4617 39.4688 93.4227 39.4492 93.4227 39.4297C93.9695 39.6055 94.2527 39.6934 94.2723 39.6934C94.3113 39.6934 94.3699 39.7031 94.448 39.7227C94.5262 39.7422 94.5848 39.7617 94.6238 39.7812C94.6629 39.7812 94.6922 39.7812 94.7117 39.7812H94.5945C94.9461 39.8203 95.3074 39.8398 95.6785 39.8398L96.7332 39.752H96.6746L97.2605 39.6641C98.5301 39.3711 99.6922 39.0391 100.747 38.668L101.655 38.3164L102.007 38.1699C101.987 38.1895 101.958 38.1992 101.919 38.1992C101.899 38.1992 101.88 38.2188 101.86 38.2578C101.86 38.2383 101.919 38.209 102.036 38.1699C103.716 37.4277 105.483 36.1973 107.339 34.4785C109.194 32.7402 110.552 31.4414 111.411 30.582C111.841 30.1719 112.339 29.9668 112.905 29.9668C113.452 29.9863 113.93 30.1914 114.341 30.582C114.77 30.9727 114.985 31.4414 114.985 31.9883C114.985 32.0273 114.975 32.1934 114.956 32.4863C114.956 32.7793 114.761 33.1406 114.37 33.5703C110.346 38.2578 105.913 41.4121 101.069 43.0332C99.0379 43.7168 97.1727 44.0586 95.4734 44.0586ZM116.905 44.2051C115.186 44.2051 113.662 43.668 112.334 42.5938C110.674 41.0898 109.844 39.1172 109.844 36.6758C109.844 34.7617 110.459 32.6621 111.69 30.377C112.92 27.916 114.62 25.8359 116.787 24.1367C118.897 22.5352 121.299 21.7344 123.995 21.7344C126.866 21.7734 129.17 22.7793 130.909 24.752C131.319 25.2402 131.524 25.7383 131.524 26.2461C131.524 26.7344 131.319 27.2324 130.909 27.7402C130.518 28.1309 129.991 28.3262 129.327 28.3262C128.76 28.3262 128.291 28.1309 127.92 27.7402C127.842 27.623 127.618 27.3887 127.246 27.0371L127.129 26.9492L127.305 27.0957L127.041 26.8906C126.866 26.7734 126.68 26.666 126.485 26.5684C126.446 26.5488 126.397 26.5293 126.338 26.5098C126.299 26.4707 126.26 26.4512 126.221 26.4512C126.182 26.4316 126.153 26.4219 126.133 26.4219C126.114 26.4023 126.104 26.3828 126.104 26.3633L126.28 26.4219C125.772 26.2461 125.254 26.1094 124.727 26.0117L124.668 25.9531H124.551C124.551 25.9336 124.561 25.9238 124.58 25.9238L124.786 26.0117C124.668 25.9727 124.317 25.9531 123.731 25.9531L122.705 25.9824C122.725 25.9629 122.754 25.9531 122.793 25.9531L122.911 25.9824H122.793L122.588 26.041C122.1 26.1387 121.621 26.2754 121.153 26.4512H121.065L121.182 26.3926H121.211L121.036 26.4805C120.704 26.6367 120.362 26.8223 120.01 27.0371C119.483 27.3691 119.161 27.584 119.043 27.6816L119.219 27.5645H119.19L119.073 27.6816C118.233 28.3848 117.579 29.0488 117.11 29.6738L116.934 29.8789L116.963 29.8496C116.963 29.8301 116.973 29.8203 116.993 29.8203C117.012 29.8008 117.032 29.7812 117.051 29.7617V29.7324L116.993 29.8203C116.348 30.7383 115.762 31.6953 115.235 32.6914C114.922 33.2773 114.756 33.6094 114.737 33.6875V33.7754L114.707 33.8047L114.766 33.7168V33.6582C114.473 34.4395 114.258 35.1719 114.121 35.8555L114.092 36.002L114.063 36.0312V35.9727L114.092 35.9434C114.092 36.0801 114.082 36.1875 114.063 36.2656C114.063 36.7539 114.073 37.125 114.092 37.3789V37.2617C114.092 37.3594 114.112 37.457 114.151 37.5547C114.151 37.7109 114.239 38.0332 114.414 38.5215V38.4629L114.678 38.9023C114.717 39.0195 114.776 39.1172 114.854 39.1953C114.776 39.0977 114.737 39.0293 114.737 38.9902L114.766 39.0488L114.971 39.2832C115.069 39.3809 115.147 39.459 115.205 39.5176C115.284 39.5566 115.332 39.5762 115.352 39.5762L115.323 39.5469C115.284 39.5469 115.225 39.5176 115.147 39.459L115.264 39.5469L115.791 39.8105L115.674 39.7812V39.752H115.733C115.85 39.8105 115.918 39.8496 115.938 39.8691C115.957 39.8691 116.084 39.8887 116.319 39.9277C116.338 39.9473 116.368 39.957 116.407 39.957L116.231 39.9277H116.407C116.485 39.9668 116.651 39.9863 116.905 39.9863C117.198 39.9863 117.491 39.9668 117.784 39.9277C117.705 39.9277 117.657 39.9375 117.637 39.957L117.696 39.9277L118.018 39.8691C118.702 39.7324 119.375 39.5371 120.039 39.2832L120.245 39.1953C120.245 39.2148 120.215 39.2344 120.157 39.2539C120.118 39.2539 120.088 39.2637 120.069 39.2832C120.205 39.2051 120.352 39.1367 120.508 39.0781C120.762 38.9609 121.016 38.8242 121.27 38.668C122.071 38.2383 122.823 37.75 123.526 37.2031L123.438 37.2617L123.877 36.9102C126.084 35.0938 128.76 32.4082 131.905 28.8535C133.916 26.5684 135.469 24.7031 136.563 23.2578L136.768 23.0234V22.9941L136.856 22.9062L136.797 22.9941C138.399 20.9434 139.912 18.8242 141.338 16.6367C142.569 14.7617 143.496 13.1504 144.121 11.8027L144.561 10.8359L144.59 10.7773L144.561 10.8066L144.532 10.9238L144.707 10.4551C145.274 8.99023 145.694 7.48633 145.967 5.94336L145.996 5.70898V5.82617L145.967 5.91406C146.026 5.50391 146.055 5.06445 146.055 4.5957C146.055 4.69336 146.075 4.75195 146.114 4.77148H146.143C146.143 4.75195 146.133 4.74219 146.114 4.74219C146.114 4.72266 146.094 4.68359 146.055 4.625L146.172 4.80078V4.77148C146.153 4.77148 146.143 4.77148 146.143 4.77148C146.143 4.75195 146.114 4.71289 146.055 4.6543L146.114 4.71289C146.231 4.92773 146.377 5.03516 146.553 5.03516H146.436C146.338 4.99609 146.27 4.97656 146.231 4.97656C146.368 4.99609 146.446 5.01562 146.465 5.03516C146.446 5.01562 146.407 5.00586 146.348 5.00586C146.309 5.00586 146.27 4.99609 146.231 4.97656C146.133 4.99609 145.967 5.00586 145.733 5.00586L145.616 5.03516L145.85 5.00586L145.498 5.06445C145.088 5.14258 144.678 5.25977 144.268 5.41602L144.209 5.44531C143.662 5.64063 143.018 6.02148 142.276 6.58789L141.28 7.4668C140.635 8.11133 140.166 8.62891 139.873 9.01953V9.04883L139.668 9.2832L139.346 9.72266C138.467 10.9141 137.549 12.4473 136.592 14.3223C136.045 15.3965 135.635 16.2656 135.362 16.9297L135.303 17.0762C135.245 17.1934 135.196 17.3203 135.157 17.457C134.219 19.8008 133.496 22.2031 132.989 24.6641C132.715 25.9727 132.559 26.9102 132.52 27.4766L132.491 27.5352C132.491 27.6914 132.471 27.8672 132.432 28.0625C132.295 29.3125 132.217 30.5723 132.198 31.8418C132.198 32.623 132.207 33.209 132.227 33.5996L132.286 34.4492V34.2734L132.315 34.3027C132.315 34.5762 132.334 34.7324 132.373 34.7715C132.432 35.123 132.52 35.4746 132.637 35.8262C132.715 35.9824 132.754 36.0898 132.754 36.1484H132.725L132.666 35.9727L132.696 36.0312C132.696 36.0703 132.891 36.4121 133.282 37.0566L133.194 36.9102C133.194 36.9492 133.213 36.9883 133.252 37.0273C133.311 37.0664 133.34 37.0957 133.34 37.1152C133.672 37.4473 133.868 37.6133 133.926 37.6133L133.809 37.5547L134.278 37.8184L134.571 37.9648L134.424 37.877H134.366H134.424C134.483 37.9355 134.541 37.9648 134.6 37.9648C134.932 38.1016 135.196 38.1699 135.391 38.1699L135.655 38.2285L135.42 38.1992C135.44 38.2188 135.469 38.2285 135.508 38.2285C135.567 38.2285 135.645 38.2383 135.743 38.2578C136.504 38.2578 137.012 38.2383 137.266 38.1992L137.09 38.2285L137.149 38.1992H137.266C137.344 38.1602 137.432 38.1406 137.53 38.1406C138.116 38.0039 138.555 37.8672 138.848 37.7305L138.643 37.8184C139.62 37.3301 140.254 36.9395 140.547 36.6465C140.567 36.6465 140.606 36.6172 140.664 36.5586L140.782 36.4707C142.422 35.1426 144.229 33.3164 146.202 30.9922C146.592 30.582 147.061 30.377 147.608 30.377C147.647 30.377 147.813 30.3867 148.106 30.4062C148.418 30.4258 148.78 30.6309 149.19 31.0215C149.6 31.4121 149.805 31.8711 149.805 32.3984C149.805 32.4375 149.795 32.6035 149.776 32.8965C149.756 33.1699 149.561 33.5312 149.19 33.9805C148.506 34.7617 147.813 35.5332 147.11 36.2949C145.469 38.1504 143.614 39.7422 141.543 41.0703C139.903 42.0078 138.194 42.4766 136.416 42.4766C133.858 42.4766 131.836 41.6562 130.352 40.0156C128.75 38.2773 127.95 35.7578 127.95 32.457C127.95 31.0508 128.037 29.5859 128.213 28.0625C128.858 22.2031 130.567 16.666 133.34 11.4512C134.141 9.92773 135.088 8.42383 136.182 6.93945C138.643 3.54102 141.485 1.53906 144.707 0.933594C145.176 0.835938 145.645 0.787109 146.114 0.787109C146.446 0.787109 146.895 0.835938 147.461 0.933594C148.047 1.01172 148.653 1.35352 149.278 1.95898C149.883 2.66211 150.205 3.45312 150.245 4.33203C150.245 5.32812 150.176 6.20703 150.039 6.96875C149.551 9.76172 148.633 12.4082 147.286 14.9082C145.938 17.3887 144.424 19.7617 142.745 22.0273C139.131 27.0273 135.293 31.5977 131.231 35.7383C129.297 37.8477 127.178 39.7324 124.873 41.3926C122.256 43.2285 119.6 44.166 116.905 44.2051Z" fill="#7DCE13"/>
</svg>
