<svg width="371" height="54" viewBox="0 0 371 54" fill="none" xmlns="http://www.w3.org/2000/svg">
<path d="M13.459 44.9668C12.6387 44.9668 12.0527 44.625 11.7012 43.9414C11.5059 43.5898 11.4082 43.2383 11.4082 42.8867C11.4082 42.7109 11.4277 42.5449 11.4668 42.3887C13.3809 35.1035 15.4219 27.8477 17.5898 20.6211L17.8535 19.7422C19.7871 13.2578 21.2031 9.10742 22.1016 7.29102C23.1758 5.04492 24.5332 3.30664 26.1738 2.07617C27.1504 1.35352 28.166 0.992188 29.2207 0.992188C31.0371 0.992188 32.1699 1.8125 32.6191 3.45312C32.7363 3.94141 32.7949 4.44922 32.7949 4.97656C32.7949 5.26953 32.7559 5.69922 32.6777 6.26562C32.4629 8.35547 31.8672 10.4355 30.8906 12.5059C28.7031 17.1934 24.9141 21.5977 19.5234 25.7188C14.6602 29.4883 9.28906 32.8672 3.41016 35.8555C3.21484 35.9141 3.01953 35.9434 2.82422 35.9434C2.47266 35.9434 2.10156 35.8262 1.71094 35.5918C1.30078 35.3379 1.00781 34.9473 0.832031 34.4199C0.773438 34.2246 0.744141 34.0293 0.744141 33.834C0.744141 33.4824 0.871094 33.1211 1.125 32.75C1.37891 32.3789 1.76953 32.0957 2.29688 31.9004C3.78125 31.002 4.75781 30.4355 5.22656 30.2012C5.22656 30.2207 5.20703 30.2402 5.16797 30.2598C5.14844 30.2598 5.12891 30.2598 5.10938 30.2598L5.08008 30.2891L6.36914 29.7324C9.88477 27.5645 13.1855 25.3281 16.2715 23.0234L16.2129 23.082C16.2129 23.0625 16.2129 23.0527 16.2129 23.0527L16.3301 22.9648C16.4082 22.9062 16.457 22.877 16.4766 22.877C16.6133 22.7793 16.7402 22.6719 16.8574 22.5547C19.416 20.543 21.6328 18.4434 23.5078 16.2559C23.6641 16.0996 23.8301 15.9043 24.0059 15.6699L24.123 15.5234L24.0352 15.6406C25.0703 14.293 25.9688 12.9258 26.7305 11.5391L27.2285 10.4844C27.2676 10.4453 27.2871 10.3965 27.2871 10.3379L27.2285 10.4844C27.2871 10.3867 27.3359 10.2793 27.375 10.1621C27.8828 8.89258 28.2441 7.59375 28.459 6.26562L28.4297 6.44141C28.4297 6.34375 28.4395 6.25586 28.459 6.17773L28.4883 5.70898L28.5176 4.5957C28.5176 4.38086 28.5273 4.27344 28.5469 4.27344C28.5859 4.44922 28.6055 4.55664 28.6055 4.5957C28.6055 4.61523 28.6055 4.63477 28.6055 4.6543C28.625 4.6543 28.6738 4.69336 28.752 4.77148C28.8301 4.83008 28.8984 4.87891 28.957 4.91797L29.0156 4.97656L28.9277 4.91797C29.0059 4.99609 29.1328 5.05469 29.3086 5.09375C29.4062 5.09375 29.4648 5.08398 29.4844 5.06445H29.1914L29.4844 5.03516L28.8691 5.18164C28.8691 5.16211 28.8789 5.15234 28.8984 5.15234C28.918 5.13281 28.9473 5.11328 28.9863 5.09375H29.0742C29.0742 5.13281 29.0254 5.18164 28.9277 5.24023C28.8301 5.29883 28.752 5.33789 28.6934 5.35742C28.6543 5.37695 28.625 5.38672 28.6055 5.38672L28.5762 5.41602L28.6055 5.38672C28.6055 5.36719 28.6152 5.35742 28.6348 5.35742C28.6543 5.33789 28.6738 5.31836 28.6934 5.29883H28.7227C28.7227 5.35742 28.5957 5.47461 28.3418 5.65039C27.8926 6.06055 27.5703 6.40234 27.375 6.67578L27.2285 6.79297L27.3457 6.64648V6.67578L27.1992 6.85156L26.7305 7.52539C26.1641 8.44336 25.7246 9.2832 25.4121 10.0449L25.4707 9.86914V9.92773L25.4121 10.0449C25.2559 10.3574 24.9824 11.0996 24.5918 12.2715C23.8496 14.5371 23.4199 15.9043 23.3027 16.373C20.5879 25.0449 18 34.0781 15.5391 43.4727C15.3633 44.0391 15.0312 44.4492 14.543 44.7031C14.2109 44.8789 13.8496 44.9668 13.459 44.9668ZM13.8984 45.6406C13.5469 45.6406 13.1758 45.5527 12.7852 45.377C12.082 44.9863 11.7305 44.3711 11.7305 43.5312C11.7305 43.1992 11.8281 42.877 12.0234 42.5645L30.832 16.373C32.6875 13.7363 34.1719 11.6758 35.2852 10.1914C36.9062 8.00391 38.8496 6.13867 41.1152 4.5957C42.6777 3.59961 44.1621 3.10156 45.5684 3.10156C47.2676 3.19922 48.6348 3.91211 49.6699 5.24023C50.5879 6.4707 51.0469 7.79883 51.0469 9.22461L51.0176 10.5723C50.959 11.6465 50.4707 13.3164 49.5527 15.582C49.1621 16.5977 48.5762 18.375 47.7949 20.9141L41.4082 41.1582C39.8652 40.4941 38.5859 39.9668 37.5703 39.5762L38.4785 38.0527C38.8691 37.4277 43.0488 30.5137 51.0176 17.3105L53.9766 12.3887C54.7188 11.1191 55.5391 9.9082 56.4375 8.75586C57.3945 7.52539 58.5469 6.57813 59.8945 5.91406C60.5977 5.58203 61.3301 5.41602 62.0918 5.41602C62.7949 5.41602 63.5176 5.5625 64.2598 5.85547C65.4316 6.40234 66.2715 7.19336 66.7793 8.22852C67.3652 9.49805 67.6582 11.041 67.6582 12.8574C67.6582 13.6582 67.6094 14.4199 67.5117 15.1426C67.082 18.502 66.2227 21.7539 64.9336 24.8984L63.9375 27.3887C62.5312 30.7871 61.5645 33.6387 61.0371 35.9434C60.998 36.0605 60.9785 36.1875 60.9785 36.3242L60.9492 36.3828L60.9785 36.1484L60.9199 36.9688V38.1699L60.9492 38.4922C60.9297 38.4727 60.9199 38.4531 60.9199 38.4336C60.9199 38.4141 60.9102 38.3555 60.8906 38.2578L60.9199 38.4336C60.9395 38.5703 60.9688 38.7168 61.0078 38.873C61.0664 39.0098 61.1055 39.1367 61.125 39.2539L61.1836 39.2832V39.3711C61.2227 39.4297 61.2422 39.4785 61.2422 39.5176L61.1543 39.2539L61.2715 39.4883C61.3887 39.6641 61.4473 39.7617 61.4473 39.7812C61.4473 39.8008 61.457 39.8105 61.4766 39.8105C61.4766 39.7715 61.4668 39.7422 61.4473 39.7227C61.4277 39.7031 61.3789 39.6641 61.3008 39.6055C61.3789 39.7031 61.418 39.752 61.418 39.752C61.4375 39.752 61.457 39.7617 61.4766 39.7812C61.4961 39.8008 61.5156 39.8203 61.5352 39.8398C61.5547 39.8398 61.6035 39.8789 61.6816 39.957L61.5938 39.8691L61.4473 39.8105C61.6035 39.8887 61.6816 39.9375 61.6816 39.957C61.6816 39.957 61.7012 39.957 61.7402 39.957C61.7988 39.957 61.8281 39.9766 61.8281 40.0156L61.7988 39.9863C61.7598 39.9863 61.7207 39.9766 61.6816 39.957C61.6426 39.9375 61.6133 39.9277 61.5938 39.9277C61.5742 39.9277 61.5645 39.918 61.5645 39.8984L62.0918 40.0742C62.0137 40.0742 61.9746 40.0645 61.9746 40.0449H62.2676L62.3262 40.0156C62.3652 40.0156 62.3945 40.0059 62.4141 39.9863C62.4531 39.9668 62.4824 39.957 62.502 39.957C62.5215 39.9375 62.5801 39.9082 62.6777 39.8691V39.8984L62.5898 39.9277C63.0391 39.7129 63.7129 39.2832 64.6113 38.6387C64.6895 38.5996 64.8457 38.4922 65.0801 38.3164L65.168 38.2578H65.1387L65.0215 38.3457L65.2559 38.1992C66.6035 37.1445 67.8926 35.9141 69.123 34.5078C69.123 34.4883 69.1426 34.459 69.1816 34.4199C69.2402 34.3613 69.2793 34.3223 69.2988 34.3027C69.3184 34.2637 69.3379 34.2344 69.3574 34.2148C69.377 34.1953 69.377 34.1953 69.3574 34.2148L69.4746 34.0684C69.5332 33.9707 69.5723 33.9219 69.5918 33.9219C69.6895 33.7656 69.7969 33.6191 69.9141 33.4824C70.3633 32.8379 70.7734 32.1836 71.1445 31.5195C71.5742 30.8555 72.1699 30.5234 72.9316 30.5234C73.3027 30.5234 73.6641 30.6113 74.0156 30.7871C74.6992 31.1582 75.041 31.7539 75.041 32.5742C75.041 33.1602 74.543 34.1465 73.5469 35.5332C71.5742 38.2676 69.1816 40.5723 66.3691 42.4473C64.7871 43.5801 63.3809 44.1465 62.1504 44.1465C61.7402 44.1465 61.3301 44.0977 60.9199 44C59.4746 43.6484 58.3711 42.8379 57.6094 41.5684C57.0039 40.416 56.7012 39.1074 56.7012 37.6426C56.7012 35.0254 57.6875 31.4414 59.6602 26.8906L60.1875 25.543C61.4961 22.4961 62.4922 19.3516 63.1758 16.1094C63.2148 15.8359 63.2539 15.6211 63.293 15.4648L63.2637 15.582V15.4941C63.2832 15.4551 63.293 15.377 63.293 15.2598C63.3906 14.6152 63.4395 13.9121 63.4395 13.1504C63.4395 12.623 63.4004 11.9297 63.3223 11.0703V10.9531C63.3027 10.9336 63.293 10.9043 63.293 10.8652L63.1465 10.3086L63.0879 10.1914L63.1465 10.3086V10.2793L63.0879 10.2207L63.0293 10.1035L62.8828 9.86914L62.9121 9.89844C62.9121 9.91797 62.9219 9.92773 62.9414 9.92773L62.9707 9.95703C62.9512 9.95703 62.8926 9.9082 62.7949 9.81055C62.6973 9.71289 62.6484 9.6543 62.6484 9.63477L62.7363 9.75195L62.2969 9.45898H62.2676H62.2969C62.3359 9.49805 62.375 9.51758 62.4141 9.51758C62.4531 9.51758 62.4824 9.52734 62.502 9.54688H62.4434L62.1797 9.42969L62.2676 9.45898H62.3848L62.4434 9.48828C62.209 9.48828 62.082 9.47852 62.0625 9.45898H61.9746C61.9941 9.43945 62.0723 9.42969 62.209 9.42969C62.1895 9.42969 62.1406 9.44922 62.0625 9.48828C62.0039 9.50781 61.916 9.52734 61.7988 9.54688L61.7402 9.57617H61.6523L61.7402 9.51758H61.7988L61.8281 9.48828V9.51758H61.7988L61.2715 9.83984C61.252 9.83984 61.2129 9.85938 61.1543 9.89844C61.1152 9.91797 61.0664 9.94727 61.0078 9.98633C60.9688 10.0059 60.9395 10.0352 60.9199 10.0742L61.125 9.89844L60.9492 10.0449C60.1484 10.8457 59.6992 11.3047 59.6016 11.4219C59.5625 11.4805 59.5332 11.5195 59.5137 11.5391C59.5137 11.5391 59.5039 11.5488 59.4844 11.5684C59.4648 11.5684 59.4551 11.5781 59.4551 11.5977L59.4844 11.5684C59.4844 11.5488 59.5332 11.4902 59.6309 11.3926C59.6113 11.4121 59.5918 11.4316 59.5723 11.4512C59.5723 11.4512 59.5723 11.4609 59.5723 11.4805C59.416 11.6367 59.1621 11.9785 58.8105 12.5059C57.9707 13.8145 56.0762 16.9492 53.127 21.9102L41.2031 41.627C40.7539 42.3105 40.1484 42.6523 39.3867 42.6523C38.5664 42.6523 37.9316 42.2617 37.4824 41.4805C37.3457 41.207 37.2773 40.9238 37.2773 40.6309C37.2773 40.377 38.3516 36.8516 40.5 30.0547C42.6094 23.4141 43.7812 19.6836 44.0156 18.8633C44.4648 17.3984 44.9629 15.9336 45.5098 14.4688C45.8223 13.6875 46.1055 12.9063 46.3594 12.125L46.7988 10.3379V10.3672C46.7988 10.2695 46.8086 10.2012 46.8281 10.1621L46.8574 9.63477C46.8574 9.18555 46.8477 8.88281 46.8281 8.72656C46.8477 8.80469 46.8672 8.85352 46.8867 8.87305V8.90234C46.8672 8.90234 46.8477 8.88281 46.8281 8.84375C46.8281 8.80469 46.8184 8.76562 46.7988 8.72656C46.7793 8.66797 46.7598 8.61914 46.7402 8.58008C46.7402 8.52148 46.7305 8.48242 46.7109 8.46289C46.7109 8.42383 46.7012 8.375 46.6816 8.31641C46.6621 8.25781 46.6426 8.20898 46.623 8.16992C46.6426 8.24805 46.6621 8.29687 46.6816 8.31641C46.6621 8.29687 46.6426 8.26758 46.623 8.22852C46.623 8.18945 46.6133 8.15039 46.5938 8.11133C46.5742 8.07227 46.5449 8.02344 46.5059 7.96484C46.4668 7.90625 46.4082 7.79883 46.3301 7.64258H46.3594C46.3789 7.66211 46.3887 7.69141 46.3887 7.73047C46.4082 7.75 46.4277 7.75977 46.4473 7.75977V7.78906C46.4082 7.78906 46.3691 7.75 46.3301 7.67188C46.1348 7.51563 46.0371 7.41797 46.0371 7.37891L46.0078 7.32031C46.0273 7.32031 46.0371 7.33008 46.0371 7.34961C46.0566 7.34961 46.0859 7.36914 46.125 7.4082C46.1641 7.42773 46.1836 7.44727 46.1836 7.4668L45.9492 7.34961L45.6562 7.14453H45.7148L45.832 7.20312C45.832 7.22266 45.8223 7.23242 45.8027 7.23242C45.627 7.23242 45.5391 7.21289 45.5391 7.17383L45.7734 7.20312H45.4805C45.4023 7.20312 45.3633 7.19336 45.3633 7.17383H45.5098C45.2168 7.21289 45.0508 7.25195 45.0117 7.29102C44.8359 7.33008 44.6699 7.37891 44.5137 7.4375L44.6309 7.37891H44.6602L44.4551 7.49609C44.1621 7.61328 43.6641 7.88672 42.9609 8.31641C42.6484 8.57031 42.4727 8.69727 42.4336 8.69727L42.4043 8.72656L42.5801 8.58008C41.2324 9.69336 39.9824 10.9727 38.8301 12.418C38.791 12.457 38.7617 12.4863 38.7422 12.5059C38.7422 12.5059 38.7422 12.5156 38.7422 12.5352L38.8008 12.418V12.4473L38.5078 12.8281C37.6875 13.9219 37.1797 14.6152 36.9844 14.9082C31.9062 22.0371 26.8086 29.1465 21.6914 36.2363L15.6562 44.6445C15.168 45.3086 14.582 45.6406 13.8984 45.6406ZM79.7145 43.8828C78.523 43.8828 77.3316 43.6582 76.1402 43.209C73.9332 42.3496 72.3512 40.8457 71.3941 38.6973C70.7301 37.2324 70.398 35.709 70.398 34.127C70.398 33.4434 70.4566 32.7402 70.5738 32.0176C71.316 27.8574 73.3082 24.4199 76.5504 21.7051C78.191 20.3379 79.9977 19.3516 81.9703 18.7461C83.0641 18.4141 84.1871 18.248 85.3395 18.248C88.6793 18.248 90.6617 19.2441 91.2867 21.2363C91.3844 21.5488 91.4332 21.8711 91.4332 22.2031C91.4332 23.1211 91.1109 24.0684 90.4664 25.0449C87.5563 29.4395 82.732 32.0859 75.9938 32.9844C75.4273 33.0625 74.9098 33.1016 74.441 33.1016C72.3707 33.1016 71.3355 32.3203 71.3355 30.7578C71.3355 30.3477 71.4137 29.8691 71.5699 29.3223C72.0582 29.3223 72.732 29.2734 73.5914 29.1758L74.441 29.0586C76.4918 28.7852 78.484 28.2871 80.4176 27.5645L81.1207 27.3008C82.4684 26.7734 83.6012 26.1484 84.5191 25.4258V25.3965L84.3727 25.543C85.3102 24.8008 86.023 24.0977 86.5113 23.4336L86.3941 23.5508L86.5992 23.2578C86.9117 22.8477 87.0973 22.5449 87.1559 22.3496V22.4082H87.1266L87.1559 22.3789V22.291C87.1754 22.2715 87.1852 22.2422 87.1852 22.2031C87.2047 22.1641 87.2145 22.1152 87.2145 22.0566L87.1852 22.291V22.1152C87.1852 22.291 87.273 22.4961 87.4488 22.7305L87.4781 22.7598L87.3902 22.7305C87.4488 22.7305 87.4977 22.75 87.5367 22.7891L86.2477 22.4961C86.3258 22.4961 86.3844 22.5059 86.4234 22.5254C86.0914 22.4863 85.7496 22.4668 85.398 22.4668C84.9098 22.4668 84.5387 22.4766 84.2848 22.4961L84.402 22.4668C84.402 22.4863 84.3727 22.4961 84.3141 22.4961C84.275 22.4961 84.2164 22.5059 84.1383 22.5254C82.9859 22.8184 82.3414 23.0039 82.2047 23.082C82.1852 23.1016 82.1461 23.1113 82.0875 23.1113L82.2047 23.082L82.1461 23.1113C81.4039 23.4434 80.5641 23.9414 79.6266 24.6055L79.8023 24.459C78.7672 25.2988 77.9469 26.1094 77.3414 26.8906L77.2535 26.9785L77.3121 26.8906C76.5895 27.9062 76.0133 28.873 75.5836 29.791C75.5641 29.8301 75.5445 29.8691 75.525 29.9082C75.525 29.9277 75.525 29.9473 75.525 29.9668C75.2125 30.6895 74.9488 31.627 74.734 32.7793L74.7047 32.9258C74.6656 33.0625 74.6461 33.668 74.6461 34.7422C74.6461 35.1719 74.6656 35.416 74.7047 35.4746V35.5332L74.6461 35.2988C74.6656 35.3379 74.6754 35.3867 74.6754 35.4453C74.6754 35.6797 74.8023 36.1289 75.0563 36.793C75.0758 36.8711 75.0953 36.9199 75.1148 36.9395C75.0953 36.9395 75.0855 36.9297 75.0855 36.9102C75.0855 36.8906 75.0855 36.8613 75.0855 36.8223L75.0563 36.793C75.2516 37.2227 75.4664 37.6035 75.7008 37.9355C75.7203 37.9355 75.7301 37.9453 75.7301 37.9648C75.7301 37.9453 75.7203 37.9355 75.7008 37.9355C75.7008 37.916 75.6715 37.877 75.6129 37.8184L76.4625 38.6387H76.4332L76.316 38.5215H76.3453C76.3453 38.541 76.4234 38.5996 76.5797 38.6973C76.9703 38.9707 77.3121 39.166 77.6051 39.2832L77.4 39.1953H77.4586C77.5563 39.293 77.9859 39.4297 78.7477 39.6055C78.8453 39.625 78.9527 39.6348 79.0699 39.6348L78.8355 39.6055H78.982L79.0113 39.6348H80.5055C80.5445 39.5957 80.6324 39.5762 80.7691 39.5762L80.7398 39.6055L80.6227 39.6348H80.5641C80.5641 39.6152 80.5836 39.6055 80.6227 39.6055C80.7398 39.6055 80.818 39.5859 80.857 39.5469C81.775 39.4102 82.7613 38.9805 83.816 38.2578L84.2555 37.9355L84.1676 38.0234V37.9941C84.5387 37.7793 85.1832 37.1348 86.1012 36.0605L86.1305 36.0312L86.1012 36.0898C86.4723 35.6602 86.8434 35.0254 87.2145 34.1855L87.3023 34.0098V34.0684C87.3023 34.0488 87.3023 34.0195 87.3023 33.9805C87.3219 33.9414 87.3316 33.9121 87.3316 33.8926C87.3512 33.8535 87.3609 33.834 87.3609 33.834C87.3805 33.834 87.4684 33.541 87.6246 32.9551L87.8297 32.1055C87.8297 32.2422 87.8199 32.3105 87.8004 32.3105L87.8297 30.9922C87.8297 30.8555 87.8199 30.7773 87.8004 30.7578C87.8199 30.7773 87.8297 30.8066 87.8297 30.8457C87.8297 30.8652 87.8395 30.8848 87.859 30.9043V30.9922L87.5953 29.9961C87.6148 30.0156 87.6246 30.0352 87.6246 30.0547C87.6246 30.0742 87.6246 30.1035 87.6246 30.1426C87.6441 30.1816 87.6637 30.2012 87.6832 30.2012L87.2438 29.4395H87.273L87.3902 29.5566V29.5859C87.3121 29.5859 87.2047 29.498 87.068 29.3223C87.0289 29.2637 86.9801 29.2148 86.9215 29.1758L89.9098 26.1875L90.5543 26.7148L90.9645 27.0664C91.0426 27.3789 91.5211 27.8867 92.4 28.5898L92.5758 28.707L92.693 28.7363C94.1578 29.4004 95.9938 29.7812 98.2008 29.8789C100.232 29.957 101.296 30.4355 101.394 31.3145C101.57 32.7207 100.564 33.4141 98.3766 33.3945C96.3063 33.3945 94.4508 33.209 92.8102 32.8379C91.0719 32.4277 89.1188 31.1973 86.9508 29.1465C86.5406 28.7559 86.3453 28.2969 86.3648 27.7695V27.2715C86.3648 26.9785 86.5602 26.627 86.9508 26.2168C87.3414 25.7871 87.8004 25.582 88.3277 25.6016H88.8258C89.1188 25.6016 89.4703 25.8066 89.8805 26.2168C91.3648 27.623 92.107 29.4492 92.107 31.6953C92.107 32.7891 91.7945 34.1172 91.1695 35.6797C90.5641 37.2422 89.5289 38.7461 88.0641 40.1914C86.482 41.7539 84.6363 42.8477 82.527 43.4727C81.5895 43.7461 80.652 43.8828 79.7145 43.8828ZM98.3625 44.5273C98.0891 44.5273 97.8254 44.4688 97.5715 44.3516C96.7121 43.9805 96.2824 43.3359 96.2824 42.418C96.2824 42.2422 96.302 42.0566 96.341 41.8613L101.644 19.2441C101.8 18.6777 102.132 18.2578 102.64 17.9844C102.991 17.8086 103.353 17.7207 103.724 17.7207C104.544 17.7207 105.14 18.0723 105.511 18.7754C105.687 19.127 105.775 19.4883 105.775 19.8594C105.775 20.1133 103.988 27.8184 100.413 42.9746L96.5461 41.3633C98.05 37.9453 99.7199 34.625 101.556 31.4023C103.236 28.4336 105.238 25.7188 107.562 23.2578C109.749 20.9141 111.761 19.4785 113.597 18.9512C113.988 18.834 114.388 18.7754 114.798 18.7754C115.579 18.7754 116.37 19 117.171 19.4492C118.148 20.0742 118.782 20.9434 119.075 22.0566C119.173 22.5254 119.241 22.9941 119.28 23.4629L119.339 23.9609L119.31 23.8438L119.339 24.1074C119.495 24.6934 119.593 25.0352 119.632 25.1328C119.671 25.2109 119.691 25.2793 119.691 25.3379L119.661 25.2207L120.071 26.041L120.511 26.6855L120.394 26.5391C120.921 27.0664 121.234 27.3691 121.331 27.4473L121.39 27.5352L121.361 27.5059C121.361 27.4863 121.341 27.4766 121.302 27.4766C121.282 27.457 121.263 27.4473 121.243 27.4473C121.243 27.4277 121.234 27.418 121.214 27.418V27.3887C121.234 27.3887 121.243 27.3984 121.243 27.418C121.243 27.418 121.263 27.4277 121.302 27.4473C121.341 27.4668 121.38 27.5059 121.419 27.5645C121.478 27.6035 121.878 27.8379 122.62 28.2676C123.089 28.5215 123.333 28.6484 123.353 28.6484H123.411L123.353 28.5898C123.294 28.5703 123.226 28.5605 123.148 28.5605C123.206 28.5605 123.255 28.5801 123.294 28.6191C123.353 28.6387 123.402 28.6484 123.441 28.6484C123.695 28.7461 123.948 28.8145 124.202 28.8535L124.554 28.9414H124.642C124.544 28.9414 124.486 28.9316 124.466 28.9121H124.437H124.525C125.306 28.9902 126.077 29.0293 126.839 29.0293C127.445 29.0488 127.943 29.2637 128.333 29.6738C128.743 30.084 128.948 30.6016 128.948 31.2266C128.948 31.7734 128.743 32.2422 128.333 32.6328C127.923 33.0234 127.425 33.2285 126.839 33.248H126.253C124.925 33.248 123.616 33.0723 122.327 32.7207C118.968 31.5488 116.741 29.4688 115.648 26.4805C115.257 25.3672 115.062 24.3125 115.062 23.3164V23.5215L115.003 23.1699V22.9941L115.032 23.1699L114.945 23.0234L114.974 23.0527L115.179 23.1992L114.915 23.0234L115.12 23.1113L114.827 23.0234H115.062H115.032C115.013 23.043 114.964 23.0527 114.886 23.0527C114.866 23.0527 114.837 23.0527 114.798 23.0527C114.779 23.0332 114.73 23.0234 114.652 23.0234C114.593 23.0234 114.564 23.0137 114.564 22.9941H114.827L114.124 23.1699C114.124 23.1309 114.173 23.1113 114.271 23.1113L114.212 23.1406C114.193 23.1797 114.075 23.2578 113.861 23.375C113.646 23.4922 113.411 23.6484 113.157 23.8438L113.275 23.7559L113.245 23.7852C113.206 23.8242 113.148 23.8633 113.07 23.9023L112.982 23.9902C111.4 25.2598 109.984 26.6953 108.734 28.2969L108.47 28.5898C108.431 28.707 108.382 28.7852 108.323 28.8242L108.236 28.8828C108.255 28.8828 108.265 28.873 108.265 28.8535C108.284 28.834 108.294 28.8242 108.294 28.8242C108.314 28.8047 108.333 28.7754 108.353 28.7363L106.917 30.7578C104.808 33.9414 102.571 38.1797 100.208 43.4727C99.8566 44.1758 99.2414 44.5273 98.3625 44.5273ZM132.86 44.0586C131.552 44.0586 130.233 43.7656 128.905 43.1797C127.577 42.5938 126.532 41.6172 125.77 40.25C125.204 39.0781 124.921 37.877 124.921 36.6465C124.921 34.8691 125.409 32.9453 126.386 30.875C127.636 28.2578 129.257 25.8945 131.249 23.7852C133.514 21.2852 135.985 19.9961 138.661 19.918C139.97 19.918 141.22 20.2402 142.411 20.8848C143.622 21.5293 144.53 22.4473 145.136 23.6387C145.507 24.498 145.692 25.3379 145.692 26.1582C145.692 28.1309 144.745 30.0059 142.85 31.7832C140.37 34.0293 137.479 35.1523 134.179 35.1523C132.206 35.1523 130.311 34.6934 128.495 33.7754C127.811 33.4043 127.47 32.7988 127.47 31.959C127.47 31.5879 127.557 31.2266 127.733 30.875C128.124 30.2109 128.729 29.8789 129.55 29.8789C129.901 29.8789 130.341 30.0059 130.868 30.2598L131.19 30.4062C131.171 30.4062 131.151 30.4062 131.132 30.4062C131.112 30.4062 131.083 30.3965 131.044 30.377C131.005 30.3574 130.985 30.3379 130.985 30.3184L131.22 30.4062C131.63 30.6016 132.108 30.7383 132.655 30.8164C132.772 30.875 132.929 30.9043 133.124 30.9043L132.919 30.875C133.016 30.9141 133.407 30.9336 134.091 30.9336C134.755 30.9336 135.204 30.9141 135.438 30.875C135.341 30.9141 135.272 30.9336 135.233 30.9336H135.204L135.409 30.875C135.448 30.875 135.477 30.8652 135.497 30.8457C136.434 30.6895 137.157 30.4844 137.665 30.2305L137.43 30.3184C137.762 30.2012 138.153 30.0059 138.602 29.7324C139.052 29.459 139.305 29.293 139.364 29.2344L139.511 29.1172L139.335 29.2637L139.452 29.1758C140.292 28.3359 140.712 27.916 140.712 27.916L140.8 27.7988L140.682 27.9746V27.916C140.761 27.7988 140.819 27.7207 140.858 27.6816C140.897 27.623 140.936 27.5547 140.975 27.4766C141.073 27.3398 141.151 27.2129 141.21 27.0957C141.288 26.959 141.327 26.8906 141.327 26.8906C141.327 26.8711 141.337 26.8516 141.356 26.832L141.298 26.9492L141.473 26.4219L141.503 26.2461V25.8652L141.532 25.8359L141.561 25.8652C141.561 25.8848 141.561 25.9043 141.561 25.9238C141.561 25.9434 141.571 25.9629 141.591 25.9824C141.591 26.0215 141.581 26.041 141.561 26.041C141.542 26.0215 141.522 25.9922 141.503 25.9531C141.503 25.9141 141.493 25.875 141.473 25.8359C141.473 25.7969 141.464 25.7578 141.444 25.7188C141.425 25.6797 141.415 25.6406 141.415 25.6016C141.415 25.5625 141.425 25.543 141.444 25.543L141.532 25.748L141.444 25.6602C141.366 25.5039 141.317 25.4258 141.298 25.4258C141.298 25.4062 141.288 25.377 141.268 25.3379C141.249 25.2988 141.21 25.2402 141.151 25.1621L141.298 25.3086L140.682 24.7227L140.887 24.8984L139.979 24.3418V24.3125L140.184 24.459L139.95 24.3418C139.52 24.2246 139.257 24.166 139.159 24.166C139.081 24.1465 139.042 24.127 139.042 24.1074L139.071 24.0781L139.276 24.166C139.198 24.127 139.1 24.1074 138.983 24.1074C138.866 24.1074 138.759 24.1172 138.661 24.1367H138.397C138.28 24.1367 138.221 24.1465 138.221 24.166C138.221 24.127 138.29 24.1074 138.427 24.1074C138.387 24.1465 138.261 24.1855 138.046 24.2246C137.831 24.2637 137.645 24.3125 137.489 24.3711C137.352 24.4297 137.225 24.4785 137.108 24.5176L137.284 24.4297L137.108 24.5176C136.542 24.8301 136.18 25.0352 136.024 25.1328L135.819 25.2793L135.731 25.3672C135.731 25.3477 135.751 25.3281 135.79 25.3086C135.829 25.2891 135.858 25.2695 135.878 25.25L134.764 26.2461C134.257 26.7344 133.68 27.3789 133.036 28.1797L132.889 28.3555H132.919C132.919 28.3164 132.948 28.2676 133.007 28.209L132.714 28.6191C131.874 29.7129 131.034 31.0508 130.194 32.6328L130.106 32.8965C130.028 33.0137 129.989 33.1016 129.989 33.1602L130.018 33.043C129.647 33.9414 129.384 34.8398 129.227 35.7383L129.198 35.9141L129.227 35.7676C129.188 36.0996 129.169 36.4316 129.169 36.7637V37.1445C129.169 37.3594 129.237 37.6719 129.374 38.082C129.374 38.0234 129.364 37.9746 129.345 37.9355L129.462 38.1992C129.52 38.3555 129.628 38.5117 129.784 38.668L129.637 38.5215C129.794 38.6973 129.96 38.8535 130.136 38.9902L130.253 39.1367C130.253 39.1172 130.243 39.1074 130.223 39.1074C130.223 39.0879 130.184 39.0488 130.106 38.9902L130.634 39.3418C130.712 39.3613 130.78 39.3906 130.839 39.4297C130.897 39.4688 130.936 39.498 130.956 39.5176C130.975 39.5176 130.985 39.5273 130.985 39.5469L130.927 39.4883C130.848 39.4688 130.809 39.4492 130.809 39.4297C131.356 39.6055 131.639 39.6934 131.659 39.6934C131.698 39.6934 131.757 39.7031 131.835 39.7227C131.913 39.7422 131.971 39.7617 132.011 39.7812C132.05 39.7812 132.079 39.7812 132.098 39.7812H131.981C132.333 39.8203 132.694 39.8398 133.065 39.8398L134.12 39.752H134.061L134.647 39.6641C135.917 39.3711 137.079 39.0391 138.134 38.668L139.042 38.3164L139.393 38.1699C139.374 38.1895 139.345 38.1992 139.305 38.1992C139.286 38.1992 139.266 38.2188 139.247 38.2578C139.247 38.2383 139.305 38.209 139.423 38.1699C141.102 37.4277 142.87 36.1973 144.725 34.4785C146.581 32.7402 147.938 31.4414 148.798 30.582C149.227 30.1719 149.725 29.9668 150.292 29.9668C150.839 29.9863 151.317 30.1914 151.727 30.582C152.157 30.9727 152.372 31.4414 152.372 31.9883C152.372 32.0273 152.362 32.1934 152.343 32.4863C152.343 32.7793 152.147 33.1406 151.757 33.5703C147.733 38.2578 143.3 41.4121 138.456 43.0332C136.425 43.7168 134.559 44.0586 132.86 44.0586ZM205.225 46.168C202.197 46.168 199.951 45.0059 198.486 42.6816C197.783 41.373 197.432 39.9766 197.432 38.4922C197.432 36.832 197.734 34.752 198.34 32.252C199.551 26.7246 201.328 21.4121 203.672 16.3145C204.004 15.6504 204.609 15.3184 205.488 15.3184C206.309 15.3184 206.943 15.6992 207.393 16.4609C207.549 16.7344 207.627 17.0078 207.627 17.2812C207.627 17.4766 207.588 17.6816 207.51 17.8965C204.951 24.1465 201.484 29.9961 197.109 35.4453C195.488 37.5742 193.633 39.459 191.543 41.0996C189.297 42.7793 186.758 43.7754 183.926 44.0879C183.555 44.127 183.193 44.1465 182.842 44.1465C180.381 44.1465 178.174 43.375 176.221 41.832C173.564 39.5273 172.236 36.4219 172.236 32.5156C172.236 29.4688 173.428 25.3965 175.811 20.2988L176.045 19.7715C178.369 14.4395 180.986 10.2012 183.896 7.05664C187.197 3.58008 190.488 1.45117 193.77 0.669922C194.316 0.572266 194.863 0.523438 195.41 0.523438C195.996 0.523438 196.709 0.611328 197.549 0.787109C198.408 0.962891 199.277 1.43164 200.156 2.19336C201.211 3.22852 201.807 4.44922 201.943 5.85547C201.982 6.28516 202.002 6.70508 202.002 7.11523C202.002 8.11133 201.904 9.07812 201.709 10.0156C201.24 12.5156 200.303 14.8789 198.896 17.1055C197.49 19.3125 195.84 21.2754 193.945 22.9941C190.312 26.1973 185.713 28.9023 180.146 31.1094C174.678 33.375 169.619 34.8984 164.971 35.6797L163.447 35.6504C162.178 35.5137 161.475 34.8301 161.338 33.5996C161.338 33.0527 161.543 32.5742 161.953 32.1641C162.363 31.7539 162.861 31.5488 163.447 31.5488C169.072 30.2793 172.793 29.3418 174.609 28.7363C176.445 28.1699 177.979 27.6133 179.209 27.0664C179.287 27.0273 179.355 27.0078 179.414 27.0078H179.355L179.297 27.0371C179.414 26.998 179.521 26.9492 179.619 26.8906C182.432 25.7188 185.068 24.3418 187.529 22.7598C188.545 22.0566 189.082 21.6758 189.141 21.6172H189.111L188.994 21.7344C188.994 21.7148 189.053 21.666 189.17 21.5879C189.307 21.5098 189.404 21.4316 189.463 21.3535L190.078 20.8555C191.426 19.7617 192.637 18.541 193.711 17.1934L193.77 17.1348V17.1641C193.75 17.1836 193.73 17.2031 193.711 17.2227C193.691 17.2227 193.682 17.2324 193.682 17.252L193.652 17.2812L193.74 17.1934C193.779 17.1348 194.014 16.8027 194.443 16.1973C195.322 14.9277 195.996 13.7656 196.465 12.7109L196.641 12.3594L196.582 12.4766L196.611 12.418C196.611 12.3594 196.631 12.3105 196.67 12.2715L196.846 11.8027C197.236 10.7676 197.529 9.68359 197.725 8.55078L197.695 8.66797L197.725 8.58008C197.725 8.42383 197.734 8.32617 197.754 8.28711V8.19922C197.793 7.76953 197.812 7.33984 197.812 6.91016C197.812 6.75391 197.803 6.60742 197.783 6.4707V6.35352L197.754 6.29492V6.23633L197.783 6.38281L197.695 5.97266L197.578 5.65039L197.637 5.76758C197.598 5.66992 197.549 5.57227 197.49 5.47461L197.402 5.35742C197.344 5.29883 197.314 5.25 197.314 5.21094L197.432 5.32812H197.402C197.383 5.30859 197.354 5.28906 197.314 5.26953C197.295 5.23047 197.266 5.20117 197.227 5.18164C197.207 5.14258 197.178 5.11328 197.139 5.09375C197.119 5.05469 197.109 5.02539 197.109 5.00586L197.08 4.97656H197.109L197.227 5.06445V5.09375H197.168C196.934 4.99609 196.768 4.89844 196.67 4.80078L196.582 4.77148C196.582 4.83008 196.66 4.85938 196.816 4.85938C196.777 4.85938 196.729 4.84961 196.67 4.83008C196.631 4.79102 196.602 4.77148 196.582 4.77148L196.201 4.6543C196.045 4.6543 195.938 4.625 195.879 4.56641H195.996C196.035 4.58594 196.064 4.5957 196.084 4.5957C196.104 4.5957 196.113 4.60547 196.113 4.625L195.82 4.5957H195.117C195.078 4.61523 194.99 4.625 194.854 4.625C194.971 4.625 195.049 4.61523 195.088 4.5957H195.146C195.107 4.61523 195.049 4.63477 194.971 4.6543C194.912 4.6543 194.844 4.66406 194.766 4.68359C194.512 4.68359 194.023 4.82031 193.301 5.09375L193.184 5.12305L193.418 5.03516C193.398 5.05469 193.369 5.06445 193.33 5.06445L193.154 5.15234C192.119 5.66016 191.133 6.25586 190.195 6.93945C190.156 6.95898 190.127 6.96875 190.107 6.96875C190.107 6.96875 190.107 6.97852 190.107 6.99805L190.254 6.88086L190.195 6.91016C190.078 7.02734 189.824 7.23242 189.434 7.52539C188.516 8.26758 187.617 9.11719 186.738 10.0742C186.348 10.5039 186.084 10.8164 185.947 11.0117C185.928 11.0117 185.908 11.0313 185.889 11.0703C185.869 11.1094 185.84 11.1484 185.801 11.1875C185.762 11.207 185.742 11.2266 185.742 11.2461L185.83 11.1289L185.801 11.1875L185.625 11.3926C182.969 15.123 180.977 18.6387 179.648 21.9395L179.297 22.7598C178.086 25.6113 177.236 28.0234 176.748 29.9961L176.572 30.9336V31.0508L176.543 31.1094L176.572 31.0215C176.494 31.5684 176.455 32.3594 176.455 33.3945C176.494 33.6289 176.514 33.873 176.514 34.127V34.0684C176.533 34.127 176.543 34.1855 176.543 34.2441C176.543 34.3027 176.553 34.3516 176.572 34.3906C176.689 34.9961 176.865 35.5918 177.1 36.1777C177.1 36.2168 177.109 36.2461 177.129 36.2656L177.041 36.0898L177.422 36.8223L177.979 37.7012L178.125 37.9062C178.105 37.8867 178.086 37.877 178.066 37.877C178.047 37.8574 178.037 37.8379 178.037 37.8184L178.008 37.7891C178.027 37.7891 178.047 37.8086 178.066 37.8477C178.379 38.1797 178.711 38.502 179.062 38.8145L179.18 38.9316L179.062 38.8438H179.033C179.15 38.9023 179.287 38.9902 179.443 39.1074L180.498 39.6641C180.498 39.6445 180.479 39.6348 180.439 39.6348C180.42 39.6348 180.4 39.625 180.381 39.6055L180.527 39.6641H180.586C180.801 39.7422 181.025 39.8105 181.26 39.8691C181.494 39.9277 181.748 39.9766 182.021 40.0156H181.992C181.953 40.0156 181.924 40.0059 181.904 39.9863H181.816C182.129 40.0254 182.451 40.0449 182.783 40.0449L183.545 40.0156C183.701 40.0156 183.838 39.9961 183.955 39.957H184.072C184.053 39.9766 184.014 39.9863 183.955 39.9863C184.834 39.8496 185.703 39.6152 186.562 39.2832C186.484 39.3027 186.436 39.3125 186.416 39.3125C186.416 39.3125 186.416 39.3223 186.416 39.3418L187.002 39.0488C187.725 38.6973 188.477 38.2383 189.258 37.6719L189.141 37.7598L189.258 37.6426H189.287L189.463 37.4961C190.225 36.9297 191.123 36.0605 192.158 34.8887C195.049 31.666 197.793 27.7305 200.391 23.082C201.445 21.1875 202.266 19.5469 202.852 18.1602L203.291 17.2227L203.232 17.3398L203.467 16.7832C205.01 17.4473 206.289 17.9746 207.305 18.3652L206.777 19.5664L206.836 19.4492C206.445 20.3086 205.938 21.5781 205.312 23.2578C203.652 27.7891 202.49 32.1738 201.826 36.4121L201.797 36.4707V36.6465L201.768 36.793L201.797 36.5879C201.699 37.1738 201.65 37.8867 201.65 38.7266L201.709 39.4297C201.689 39.4297 201.67 39.4102 201.65 39.3711C201.65 39.332 201.65 39.2832 201.65 39.2246L201.943 40.25L201.973 40.3965L201.943 40.3672C201.924 40.3477 201.914 40.3184 201.914 40.2793L201.885 40.25V40.2207C201.904 40.2207 201.914 40.2305 201.914 40.25C201.992 40.3281 202.109 40.5234 202.266 40.8359L202.324 40.9531C202.305 40.9531 202.295 40.9434 202.295 40.9238C202.275 40.9238 202.266 40.9141 202.266 40.8945H202.295C202.295 40.9141 202.305 40.9336 202.324 40.9531C202.344 40.9531 202.363 40.9727 202.383 41.0117C202.422 41.0508 202.461 41.0898 202.5 41.1289C202.559 41.168 202.617 41.2168 202.676 41.2754C202.734 41.334 202.803 41.3926 202.881 41.4512L202.676 41.3047C202.832 41.4609 202.959 41.5391 203.057 41.5391C203.135 41.5977 203.232 41.6562 203.35 41.7148C203.486 41.7734 203.564 41.8027 203.584 41.8027V41.832L203.35 41.7148C203.447 41.8125 203.682 41.8906 204.053 41.9492C204.111 41.9492 204.16 41.959 204.199 41.9785L204.463 42.0371H204.697C205.518 42.0371 205.986 42.0273 206.104 42.0078L205.869 42.0664L205.928 42.0371C205.967 42.0371 206.006 42.0273 206.045 42.0078C206.084 41.9883 206.123 41.9785 206.162 41.9785C206.416 41.9395 206.67 41.8809 206.924 41.8027C207.041 41.7637 207.148 41.7344 207.246 41.7148C207.363 41.6758 207.461 41.6367 207.539 41.5977L207.656 41.5684L207.48 41.6562V41.627C207.52 41.627 207.598 41.5977 207.715 41.5391C208.203 41.3047 208.535 41.1191 208.711 40.9824L208.945 40.8066H208.975L208.799 40.9531C209.346 40.5234 209.863 40.0254 210.352 39.459L210.586 39.1953V39.166C210.586 39.1855 210.566 39.2148 210.527 39.2539C210.508 39.2734 210.498 39.293 210.498 39.3125L210.615 39.1074L210.703 39.0195C211.094 38.4922 211.445 37.9355 211.758 37.3496L212.9 35.0645L213.018 34.8008L212.93 34.9473L213.018 34.7715C213.174 34.459 213.311 34.127 213.428 33.7754C213.838 32.7988 214.521 32.3105 215.479 32.3105C216.26 32.3105 216.865 32.6426 217.295 33.3066C217.49 33.6387 217.588 33.9707 217.588 34.3027C217.588 34.4785 217.559 34.6641 217.5 34.8594C216.797 36.6562 215.967 38.375 215.01 40.0156C214.053 41.6562 212.783 43.0723 211.201 44.2637C209.424 45.5332 207.432 46.168 205.225 46.168ZM213.384 44.5273C213.111 44.5273 212.847 44.4688 212.593 44.3516C211.734 43.9805 211.304 43.3359 211.304 42.418C211.304 42.2422 211.324 42.0566 211.363 41.8613L216.666 19.2441C216.822 18.6777 217.154 18.2578 217.662 17.9844C218.013 17.8086 218.375 17.7207 218.746 17.7207C219.566 17.7207 220.162 18.0723 220.533 18.7754C220.709 19.127 220.796 19.4883 220.796 19.8594C220.796 20.1133 219.009 27.8184 215.435 42.9746L211.568 41.3633C213.072 37.9453 214.742 34.625 216.578 31.4023C218.257 28.4336 220.259 25.7188 222.584 23.2578C224.771 20.9141 226.783 19.4785 228.619 18.9512C229.009 18.834 229.41 18.7754 229.82 18.7754C230.601 18.7754 231.392 19 232.193 19.4492C233.17 20.0742 233.804 20.9434 234.097 22.0566C234.195 22.5254 234.263 22.9941 234.302 23.4629L234.361 23.9609L234.332 23.8438L234.361 24.1074C234.517 24.6934 234.615 25.0352 234.654 25.1328C234.693 25.2109 234.712 25.2793 234.712 25.3379L234.683 25.2207L235.093 26.041L235.533 26.6855L235.416 26.5391C235.943 27.0664 236.255 27.3691 236.353 27.4473L236.412 27.5352L236.382 27.5059C236.382 27.4863 236.363 27.4766 236.324 27.4766C236.304 27.457 236.285 27.4473 236.265 27.4473C236.265 27.4277 236.255 27.418 236.236 27.418V27.3887C236.255 27.3887 236.265 27.3984 236.265 27.418C236.265 27.418 236.285 27.4277 236.324 27.4473C236.363 27.4668 236.402 27.5059 236.441 27.5645C236.5 27.6035 236.9 27.8379 237.642 28.2676C238.111 28.5215 238.355 28.6484 238.375 28.6484H238.433L238.375 28.5898C238.316 28.5703 238.248 28.5605 238.17 28.5605C238.228 28.5605 238.277 28.5801 238.316 28.6191C238.375 28.6387 238.423 28.6484 238.462 28.6484C238.716 28.7461 238.97 28.8145 239.224 28.8535L239.576 28.9414H239.664C239.566 28.9414 239.507 28.9316 239.488 28.9121H239.459H239.546C240.328 28.9902 241.099 29.0293 241.861 29.0293C242.466 29.0488 242.964 29.2637 243.355 29.6738C243.765 30.084 243.97 30.6016 243.97 31.2266C243.97 31.7734 243.765 32.2422 243.355 32.6328C242.945 33.0234 242.447 33.2285 241.861 33.248H241.275C239.947 33.248 238.638 33.0723 237.349 32.7207C233.99 31.5488 231.763 29.4688 230.67 26.4805C230.279 25.3672 230.084 24.3125 230.084 23.3164V23.5215L230.025 23.1699V22.9941L230.054 23.1699L229.966 23.0234L229.996 23.0527L230.201 23.1992L229.937 23.0234L230.142 23.1113L229.849 23.0234H230.084H230.054C230.035 23.043 229.986 23.0527 229.908 23.0527C229.888 23.0527 229.859 23.0527 229.82 23.0527C229.8 23.0332 229.752 23.0234 229.673 23.0234C229.615 23.0234 229.586 23.0137 229.586 22.9941H229.849L229.146 23.1699C229.146 23.1309 229.195 23.1113 229.293 23.1113L229.234 23.1406C229.214 23.1797 229.097 23.2578 228.882 23.375C228.668 23.4922 228.433 23.6484 228.179 23.8438L228.296 23.7559L228.267 23.7852C228.228 23.8242 228.17 23.8633 228.091 23.9023L228.004 23.9902C226.421 25.2598 225.005 26.6953 223.755 28.2969L223.492 28.5898C223.453 28.707 223.404 28.7852 223.345 28.8242L223.257 28.8828C223.277 28.8828 223.287 28.873 223.287 28.8535C223.306 28.834 223.316 28.8242 223.316 28.8242C223.336 28.8047 223.355 28.7754 223.375 28.7363L221.939 30.7578C219.83 33.9414 217.593 38.1797 215.23 43.4727C214.879 44.1758 214.263 44.5273 213.384 44.5273ZM248.409 44.1172C247.511 44.1172 246.603 43.9805 245.685 43.707C243.829 43.1016 242.452 41.9297 241.554 40.1914C240.948 38.7852 240.646 37.3301 240.646 35.8262C240.646 33.9902 241.017 31.7148 241.759 29C243.243 22.75 245.304 16.8906 247.941 11.4219C249.738 7.55469 251.818 4.57617 254.181 2.48633C255.958 0.923828 257.784 0.142578 259.659 0.142578L260.275 0.171875C262.853 0.464844 264.552 1.75391 265.372 4.03906C265.587 4.70313 265.695 5.36719 265.695 6.03125C265.695 8.0625 264.718 10.9824 262.765 14.791C259.21 21.7637 253.741 27.75 246.359 32.75C246.027 32.9453 245.685 33.043 245.333 33.043C244.552 33.043 243.927 32.6914 243.458 31.9883C243.263 31.6562 243.165 31.3145 243.165 30.9629C243.165 30.2012 243.527 29.5762 244.249 29.0879C244.972 28.5801 245.695 28.0527 246.417 27.5059C246.437 27.5059 246.466 27.4961 246.505 27.4766C246.544 27.4375 246.573 27.418 246.593 27.418C246.613 27.3984 246.681 27.3398 246.798 27.2422L246.71 27.3008C246.769 27.2422 246.935 27.1152 247.208 26.9199C248.517 25.8457 249.532 24.9668 250.255 24.2832C251.779 22.8379 253.312 21.1973 254.855 19.3613L255.294 18.7754V18.8047L255.206 18.8926C255.206 18.873 255.226 18.8535 255.265 18.834L255.441 18.5703C257.316 16.0898 258.917 13.3066 260.245 10.2207C260.265 10.1426 260.294 10.0742 260.333 10.0156C260.372 9.9375 260.411 9.85938 260.45 9.78125L260.48 9.66406V9.72266L260.421 9.78125L260.48 9.66406C260.909 8.64844 261.212 7.70117 261.388 6.82227C261.427 6.70508 261.446 6.58789 261.446 6.4707V6.67578H261.417L261.446 5.91406C261.446 5.66016 261.437 5.5332 261.417 5.5332L261.446 5.62109V5.76758H261.476C261.476 5.65039 261.446 5.57227 261.388 5.5332C261.388 5.47461 261.378 5.43555 261.359 5.41602C261.359 5.37695 261.349 5.33789 261.329 5.29883C261.31 5.25977 261.3 5.2207 261.3 5.18164L261.388 5.35742L261.3 5.21094C261.222 5.13281 261.183 5.06445 261.183 5.00586C261.202 5.00586 261.232 5.03516 261.271 5.09375L260.831 4.6543C260.831 4.69336 260.87 4.73242 260.948 4.77148C260.792 4.6543 260.695 4.58594 260.655 4.56641C260.616 4.54687 260.597 4.52734 260.597 4.50781H260.655L260.685 4.53711L259.864 4.33203H259.894C259.933 4.35156 260.001 4.36133 260.099 4.36133C259.747 4.36133 259.445 4.37109 259.191 4.39062L259.337 4.36133C259.298 4.40039 259.22 4.41992 259.103 4.41992C259.005 4.45898 258.937 4.47852 258.898 4.47852C258.878 4.47852 258.849 4.48828 258.81 4.50781C258.771 4.52734 258.732 4.53711 258.693 4.53711L258.488 4.625L258.605 4.56641L258.37 4.68359C258.175 4.78125 257.989 4.88867 257.814 5.00586C257.716 5.08398 257.609 5.15234 257.491 5.21094L257.404 5.24023L257.521 5.15234C257.462 5.21094 257.413 5.25977 257.374 5.29883C257.335 5.31836 257.316 5.33789 257.316 5.35742C256.476 6.04102 255.743 6.79297 255.118 7.61328L255.06 7.70117H255.03L254.943 7.81836L254.884 7.90625C254.064 8.96094 253.263 10.2402 252.482 11.7441C251.564 13.5215 250.714 15.3477 249.933 17.2227L249.845 17.457L249.904 17.2812V17.3398L249.552 18.1309C247.736 22.7402 246.251 27.8086 245.099 33.3359C245.079 33.5117 245.05 33.6777 245.011 33.834V34.0098L244.982 34.0977L245.011 33.8633C245.011 33.9805 245.001 34.0391 244.982 34.0391C244.923 34.6445 244.894 35.25 244.894 35.8555C244.894 36.2461 244.913 36.627 244.952 36.998V37.0566L244.923 36.998V36.9688C244.943 36.9688 244.952 37.0176 244.952 37.1152C245.089 37.7598 245.196 38.1211 245.275 38.1992C245.275 38.2383 245.294 38.2773 245.333 38.3164C245.275 38.3164 245.245 38.2578 245.245 38.1406H245.216L245.245 38.1699C245.245 38.1895 245.245 38.2188 245.245 38.2578C245.265 38.2773 245.314 38.3359 245.392 38.4336C245.47 38.5312 245.529 38.6387 245.568 38.7559L245.597 38.8145V38.7852C245.577 38.7852 245.558 38.7754 245.538 38.7559C245.538 38.7363 245.529 38.7168 245.509 38.6973C245.509 38.6582 245.489 38.6387 245.45 38.6387L246.066 39.2539C246.046 39.2539 245.988 39.2051 245.89 39.1074L246.124 39.2832L246.769 39.6348C246.71 39.6348 246.642 39.6055 246.564 39.5469H246.534C246.554 39.5664 246.603 39.5859 246.681 39.6055L246.945 39.6934L247.53 39.8398C247.628 39.8398 247.696 39.8496 247.736 39.8691H247.823V39.8984C247.804 39.8984 247.775 39.8984 247.736 39.8984C247.696 39.8789 247.667 39.8594 247.648 39.8398H247.56C247.638 39.8984 247.755 39.9277 247.911 39.9277C248.263 39.9277 248.478 39.9082 248.556 39.8691C248.868 39.8691 249.054 39.8594 249.113 39.8398H249.2L249.171 39.8691H249.083L249.142 39.8398H249.23C249.894 39.7422 250.519 39.5664 251.105 39.3125C251.202 39.2734 251.271 39.2539 251.31 39.2539L251.105 39.3418L251.163 39.3125C251.202 39.2734 251.241 39.2539 251.28 39.2539C251.32 39.2344 251.359 39.2148 251.398 39.1953C252.316 38.8047 253.937 37.7207 256.261 35.9434C256.32 35.8652 256.398 35.8066 256.495 35.7676C256.437 35.8262 256.388 35.8555 256.349 35.8555V35.8848C256.446 35.8066 256.505 35.7676 256.525 35.7676C256.544 35.748 256.564 35.7188 256.583 35.6797L256.935 35.416C259.435 33.3652 261.085 31.7734 261.886 30.6406C261.925 30.6211 261.954 30.5918 261.974 30.5527C261.993 30.5137 262.013 30.4941 262.032 30.4941C262.052 30.4746 262.062 30.4551 262.062 30.4355L262.003 30.5234L262.091 30.4062C262.599 29.7227 263.195 29.3809 263.878 29.3809C264.21 29.3809 264.571 29.4688 264.962 29.6445C265.685 30.0742 266.046 30.709 266.046 31.5488C266.046 31.9004 265.939 32.2324 265.724 32.5449C265.118 33.3457 264.474 34.1172 263.79 34.8594C261.232 37.4961 258.4 39.8008 255.294 41.7734C253.888 42.7109 252.355 43.3945 250.695 43.8242C249.933 44.0195 249.171 44.1172 248.409 44.1172ZM268.771 15.3477L242.931 14.9961C242.325 14.9766 241.827 14.7715 241.437 14.3809C241.066 13.9707 240.861 13.4727 240.821 12.8867C240.821 12.3008 241.027 11.8027 241.437 11.3926C241.866 10.9824 242.364 10.7773 242.931 10.7773L268.771 11.1289C269.376 11.1484 269.864 11.3535 270.236 11.7441C270.626 12.1348 270.841 12.6328 270.88 13.2383C270.88 13.8242 270.675 14.3223 270.265 14.7324C269.855 15.123 269.357 15.3281 268.771 15.3477ZM266.764 43.9707C265.241 43.9512 263.923 43.502 262.809 42.623C261.325 41.4707 260.583 39.7617 260.583 37.4961C260.583 35.9141 261.003 33.8535 261.843 31.3145L261.989 30.7871C262.829 27.9941 263.786 25.2402 264.86 22.5254C265.27 21.5293 265.964 21.0312 266.94 21.0312C267.721 21.0312 268.317 21.373 268.727 22.0566C268.923 22.3887 269.02 22.7207 269.02 23.0527C269.02 23.248 268.991 23.4434 268.932 23.6387C267.819 26.4316 266.843 29.2637 266.003 32.1348L265.973 32.1934C265.622 33.3457 265.309 34.5176 265.036 35.709C264.958 36.041 264.899 36.334 264.86 36.5879C264.86 36.627 264.85 36.6465 264.831 36.6465L264.86 36.4707C264.86 36.5684 264.85 36.6465 264.831 36.7051L264.802 37.9648L264.831 38.1406L264.772 37.9648L264.977 38.7852L265.036 38.9609L264.948 38.7266C265.007 38.8438 265.046 38.9219 265.065 38.9609C265.104 39 265.124 39.0293 265.124 39.0488C265.143 39.0684 265.163 39.0879 265.182 39.1074C265.261 39.1855 265.3 39.2441 265.3 39.2832L265.182 39.1367V39.166C265.202 39.1855 265.221 39.2051 265.241 39.2246C265.28 39.2441 265.3 39.2734 265.3 39.3125C265.319 39.332 265.348 39.3516 265.388 39.3711C265.446 39.3906 265.485 39.4102 265.505 39.4297C265.524 39.4297 265.544 39.4395 265.563 39.459L265.388 39.3711L265.798 39.6348C265.739 39.5957 265.7 39.5762 265.68 39.5762C265.68 39.5762 265.69 39.5762 265.71 39.5762L266.501 39.7812L266.296 39.752H267.175L267.263 39.7227C267.673 39.6641 268.083 39.5469 268.493 39.3711L268.376 39.4297L268.464 39.3711C268.522 39.332 268.581 39.3125 268.639 39.3125C269.596 38.8242 270.72 38.1211 272.009 37.2031L272.858 36.5879L273.151 36.3535C275.065 34.8105 276.813 33.1113 278.395 31.2559C278.786 30.8457 279.255 30.6406 279.802 30.6406C279.841 30.6406 280.007 30.6504 280.3 30.6699C280.593 30.6895 280.954 30.8848 281.384 31.2559C281.794 31.666 281.999 32.1348 281.999 32.6621C281.999 32.7012 281.989 32.8672 281.97 33.1602C281.95 33.4336 281.755 33.7949 281.384 34.2441C279.333 36.627 277.028 38.7461 274.47 40.6016C273.356 41.4609 272.155 42.2324 270.866 42.916C269.577 43.5996 268.21 43.9512 266.764 43.9707ZM269.46 15.5527C269.167 15.5527 268.893 15.4941 268.639 15.377C268.386 15.2793 268.161 15.1328 267.966 14.9375L267.585 14.5566C267.331 14.3027 267.155 13.9902 267.057 13.6191L266.97 13.0625C266.989 12.5938 267.136 12.1836 267.409 11.832C267.682 11.4609 267.975 11.2266 268.288 11.1289C268.522 11.0117 268.786 10.9531 269.079 10.9531C269.372 10.9531 269.645 11.0117 269.899 11.1289C270.134 11.207 270.397 11.3926 270.69 11.6855C271.12 12.1152 271.384 12.5156 271.481 12.8867L271.569 13.4434C271.569 13.9121 271.452 14.293 271.218 14.5859L270.983 14.9082C270.807 15.1035 270.573 15.2598 270.28 15.377C270.026 15.4941 269.753 15.5527 269.46 15.5527ZM286.233 44.3809C284.709 44.3809 283.274 44.0879 281.926 43.502C280.598 42.916 279.524 42.0273 278.704 40.8359C277.883 39.5664 277.473 38.0723 277.473 36.3535C277.473 35.2988 277.59 34.2734 277.825 33.2773C278.332 31.0703 279.25 29.0391 280.579 27.1836C282.024 25.1719 283.743 23.4336 285.735 21.9688C288.196 20.0742 290.539 19.0781 292.766 18.9805C294.133 18.9805 295.373 19.3223 296.487 20.0059C297.6 20.6895 298.362 21.6758 298.772 22.9648C298.87 23.3945 298.918 23.8145 298.918 24.2246C298.918 25.0449 298.664 25.9531 298.157 26.9492C297.649 27.9258 296.741 28.5605 295.432 28.8535L294.905 28.8828C293.928 28.8828 293.235 28.3848 292.825 27.3887C292.766 27.1934 292.737 27.0078 292.737 26.832C292.737 26.4805 292.854 26.0898 293.088 25.6602C293.342 25.2109 293.743 24.918 294.289 24.7812C294.309 24.7812 294.348 24.7812 294.407 24.7812C294.485 24.7617 294.563 24.7324 294.641 24.6934H294.67C294.651 24.7129 294.621 24.7324 294.582 24.752C294.563 24.752 294.534 24.7617 294.495 24.7812C294.475 24.7812 294.455 24.7812 294.436 24.7812V24.752L294.641 24.6934C294.661 24.6934 294.67 24.7031 294.67 24.7227L294.495 24.7812C294.495 24.7617 294.495 24.752 294.495 24.752C294.514 24.752 294.524 24.752 294.524 24.752C294.543 24.7324 294.582 24.6934 294.641 24.6348V24.6055L294.495 24.8398L294.641 24.5762L294.729 24.4883V24.5176L294.582 24.6641L294.7 24.4297C294.7 24.4102 294.7 24.3711 294.7 24.3125C294.719 24.2539 294.739 24.2148 294.758 24.1953C294.739 24.2148 294.729 24.2637 294.729 24.3418V24.1074L294.67 24.0781L294.758 24.2539H294.729C294.69 24.0977 294.67 23.9805 294.67 23.9023H294.641C294.641 24 294.661 24.0684 294.7 24.1074H294.729L294.7 24.0488C294.641 23.9316 294.582 23.8535 294.524 23.8145C294.485 23.7754 294.455 23.7559 294.436 23.7559L294.612 23.9023C294.397 23.6875 294.289 23.5703 294.289 23.5508C294.329 23.5703 294.348 23.5801 294.348 23.5801L294.407 23.6094C294.446 23.6484 294.465 23.6777 294.465 23.6973L294.377 23.668C294.202 23.5312 293.996 23.4141 293.762 23.3164L293.909 23.375L293.85 23.3457H293.733C293.577 23.2676 293.401 23.2188 293.205 23.1992L292.356 23.2285C292.414 23.2285 292.454 23.2188 292.473 23.1992H292.502C292.483 23.2188 292.444 23.2383 292.385 23.2578C292.327 23.2578 292.248 23.2676 292.151 23.2871C292.073 23.3066 291.975 23.3359 291.858 23.375C291.741 23.3945 291.623 23.4336 291.506 23.4922C291.409 23.5312 291.34 23.5508 291.301 23.5508C291.262 23.5508 291.213 23.5605 291.155 23.5801H291.184C291.204 23.5801 291.233 23.5605 291.272 23.5215C290.53 23.8535 289.582 24.4102 288.43 25.1914C287.981 25.5039 287.746 25.6699 287.727 25.6895C287.727 25.6895 287.727 25.6992 287.727 25.7188C287.727 25.6992 287.746 25.6797 287.786 25.6602C287.825 25.6406 287.844 25.6211 287.844 25.6016V25.6309L287.727 25.7188C286.477 26.7148 285.373 27.8184 284.416 29.0293L284.534 28.8828L284.065 29.5273C283.538 30.2891 283.079 31.0801 282.688 31.9004L282.571 32.1934L282.6 32.1348C282.6 32.0957 282.61 32.0664 282.629 32.0469C282.629 32.0859 282.61 32.125 282.571 32.1641V32.252L282.541 32.2812C282.131 33.3164 281.858 34.3125 281.721 35.2695C281.741 35.25 281.75 35.2207 281.75 35.1816L281.692 36.3242C281.692 36.7148 281.702 36.9883 281.721 37.1445V36.998L281.692 36.9395L281.721 36.9688V37.1445L282.014 38.1992L281.955 38.082H281.985L282.336 38.6973C282.297 38.6582 282.278 38.6289 282.278 38.6094C282.278 38.5703 282.268 38.5508 282.248 38.5508V38.5801C282.522 38.8926 282.659 39.0488 282.659 39.0488C282.678 39.0488 282.688 39.0586 282.688 39.0781C282.707 39.0977 282.727 39.1172 282.746 39.1367C282.766 39.1367 282.786 39.1465 282.805 39.166C282.844 39.1855 282.864 39.2051 282.864 39.2246L282.746 39.1074C282.746 39.127 282.756 39.1465 282.776 39.166C282.795 39.166 282.805 39.1758 282.805 39.1953C282.825 39.1953 282.844 39.1953 282.864 39.1953L282.893 39.2246C283.264 39.4785 283.586 39.6543 283.86 39.752L283.713 39.6934C283.733 39.7129 283.791 39.7324 283.889 39.752C284.377 39.9277 284.885 40.0645 285.413 40.1621L285.295 40.1328L285.647 40.1621H286.116C286.663 40.1621 287.082 40.1426 287.375 40.1035H287.288L287.346 40.0742C287.483 40.0742 287.571 40.0645 287.61 40.0449C287.883 40.0449 288.401 39.9277 289.163 39.6934C289.924 39.4395 290.491 39.2246 290.862 39.0488C290.901 39.0488 290.93 39.0391 290.95 39.0195C290.93 39.0391 290.911 39.0488 290.891 39.0488C290.891 39.0488 290.862 39.0586 290.803 39.0781L291.184 38.9316C292.239 38.4434 293.411 37.8281 294.7 37.0859L295.051 36.8809C297.414 35.5527 299.485 34.2734 301.262 33.043L301.789 32.6328H301.819C301.819 32.6133 301.848 32.584 301.907 32.5449C301.965 32.4863 302.034 32.4375 302.112 32.3984C302.952 31.7148 303.733 30.9824 304.455 30.2012C304.866 29.791 305.334 29.5859 305.862 29.5859H306.36C306.653 29.6055 307.004 29.8105 307.414 30.2012C307.844 30.5918 308.059 31.0508 308.059 31.5781V32.0762C308.039 32.3887 307.834 32.7598 307.444 33.1895C305.452 35.2207 303.225 36.959 300.764 38.4043C298.479 39.8691 296.125 41.1973 293.704 42.3887C290.95 43.7168 288.459 44.3809 286.233 44.3809ZM311.18 44.1172C310.281 44.1172 309.373 43.9805 308.455 43.707C306.6 43.1016 305.223 41.9297 304.324 40.1914C303.719 38.7852 303.416 37.3301 303.416 35.8262C303.416 33.9902 303.787 31.7148 304.529 29C306.014 22.75 308.074 16.8906 310.711 11.4219C312.508 7.55469 314.588 4.57617 316.951 2.48633C318.729 0.923828 320.555 0.142578 322.43 0.142578L323.045 0.171875C325.623 0.464844 327.322 1.75391 328.143 4.03906C328.357 4.70313 328.465 5.36719 328.465 6.03125C328.465 8.0625 327.488 10.9824 325.535 14.791C321.98 21.7637 316.512 27.75 309.129 32.75C308.797 32.9453 308.455 33.043 308.104 33.043C307.322 33.043 306.697 32.6914 306.229 31.9883C306.033 31.6562 305.936 31.3145 305.936 30.9629C305.936 30.2012 306.297 29.5762 307.02 29.0879C307.742 28.5801 308.465 28.0527 309.188 27.5059C309.207 27.5059 309.236 27.4961 309.275 27.4766C309.314 27.4375 309.344 27.418 309.363 27.418C309.383 27.3984 309.451 27.3398 309.568 27.2422L309.48 27.3008C309.539 27.2422 309.705 27.1152 309.979 26.9199C311.287 25.8457 312.303 24.9668 313.025 24.2832C314.549 22.8379 316.082 21.1973 317.625 19.3613L318.064 18.7754V18.8047L317.977 18.8926C317.977 18.873 317.996 18.8535 318.035 18.834L318.211 18.5703C320.086 16.0898 321.688 13.3066 323.016 10.2207C323.035 10.1426 323.064 10.0742 323.104 10.0156C323.143 9.9375 323.182 9.85938 323.221 9.78125L323.25 9.66406V9.72266L323.191 9.78125L323.25 9.66406C323.68 8.64844 323.982 7.70117 324.158 6.82227C324.197 6.70508 324.217 6.58789 324.217 6.4707V6.67578H324.188L324.217 5.91406C324.217 5.66016 324.207 5.5332 324.188 5.5332L324.217 5.62109V5.76758H324.246C324.246 5.65039 324.217 5.57227 324.158 5.5332C324.158 5.47461 324.148 5.43555 324.129 5.41602C324.129 5.37695 324.119 5.33789 324.1 5.29883C324.08 5.25977 324.07 5.2207 324.07 5.18164L324.158 5.35742L324.07 5.21094C323.992 5.13281 323.953 5.06445 323.953 5.00586C323.973 5.00586 324.002 5.03516 324.041 5.09375L323.602 4.6543C323.602 4.69336 323.641 4.73242 323.719 4.77148C323.562 4.6543 323.465 4.58594 323.426 4.56641C323.387 4.54687 323.367 4.52734 323.367 4.50781H323.426L323.455 4.53711L322.635 4.33203H322.664C322.703 4.35156 322.771 4.36133 322.869 4.36133C322.518 4.36133 322.215 4.37109 321.961 4.39062L322.107 4.36133C322.068 4.40039 321.99 4.41992 321.873 4.41992C321.775 4.45898 321.707 4.47852 321.668 4.47852C321.648 4.47852 321.619 4.48828 321.58 4.50781C321.541 4.52734 321.502 4.53711 321.463 4.53711L321.258 4.625L321.375 4.56641L321.141 4.68359C320.945 4.78125 320.76 4.88867 320.584 5.00586C320.486 5.08398 320.379 5.15234 320.262 5.21094L320.174 5.24023L320.291 5.15234C320.232 5.21094 320.184 5.25977 320.145 5.29883C320.105 5.31836 320.086 5.33789 320.086 5.35742C319.246 6.04102 318.514 6.79297 317.889 7.61328L317.83 7.70117H317.801L317.713 7.81836L317.654 7.90625C316.834 8.96094 316.033 10.2402 315.252 11.7441C314.334 13.5215 313.484 15.3477 312.703 17.2227L312.615 17.457L312.674 17.2812V17.3398L312.322 18.1309C310.506 22.7402 309.021 27.8086 307.869 33.3359C307.85 33.5117 307.82 33.6777 307.781 33.834V34.0098L307.752 34.0977L307.781 33.8633C307.781 33.9805 307.771 34.0391 307.752 34.0391C307.693 34.6445 307.664 35.25 307.664 35.8555C307.664 36.2461 307.684 36.627 307.723 36.998V37.0566L307.693 36.998V36.9688C307.713 36.9688 307.723 37.0176 307.723 37.1152C307.859 37.7598 307.967 38.1211 308.045 38.1992C308.045 38.2383 308.064 38.2773 308.104 38.3164C308.045 38.3164 308.016 38.2578 308.016 38.1406H307.986L308.016 38.1699C308.016 38.1895 308.016 38.2188 308.016 38.2578C308.035 38.2773 308.084 38.3359 308.162 38.4336C308.24 38.5312 308.299 38.6387 308.338 38.7559L308.367 38.8145V38.7852C308.348 38.7852 308.328 38.7754 308.309 38.7559C308.309 38.7363 308.299 38.7168 308.279 38.6973C308.279 38.6582 308.26 38.6387 308.221 38.6387L308.836 39.2539C308.816 39.2539 308.758 39.2051 308.66 39.1074L308.895 39.2832L309.539 39.6348C309.48 39.6348 309.412 39.6055 309.334 39.5469H309.305C309.324 39.5664 309.373 39.5859 309.451 39.6055L309.715 39.6934L310.301 39.8398C310.398 39.8398 310.467 39.8496 310.506 39.8691H310.594V39.8984C310.574 39.8984 310.545 39.8984 310.506 39.8984C310.467 39.8789 310.438 39.8594 310.418 39.8398H310.33C310.408 39.8984 310.525 39.9277 310.682 39.9277C311.033 39.9277 311.248 39.9082 311.326 39.8691C311.639 39.8691 311.824 39.8594 311.883 39.8398H311.971L311.941 39.8691H311.854L311.912 39.8398H312C312.664 39.7422 313.289 39.5664 313.875 39.3125C313.973 39.2734 314.041 39.2539 314.08 39.2539L313.875 39.3418L313.934 39.3125C313.973 39.2734 314.012 39.2539 314.051 39.2539C314.09 39.2344 314.129 39.2148 314.168 39.1953C315.086 38.8047 316.707 37.7207 319.031 35.9434C319.09 35.8652 319.168 35.8066 319.266 35.7676C319.207 35.8262 319.158 35.8555 319.119 35.8555V35.8848C319.217 35.8066 319.275 35.7676 319.295 35.7676C319.314 35.748 319.334 35.7188 319.354 35.6797L319.705 35.416C322.205 33.3652 323.855 31.7734 324.656 30.6406C324.695 30.6211 324.725 30.5918 324.744 30.5527C324.764 30.5137 324.783 30.4941 324.803 30.4941C324.822 30.4746 324.832 30.4551 324.832 30.4355L324.773 30.5234L324.861 30.4062C325.369 29.7227 325.965 29.3809 326.648 29.3809C326.98 29.3809 327.342 29.4688 327.732 29.6445C328.455 30.0742 328.816 30.709 328.816 31.5488C328.816 31.9004 328.709 32.2324 328.494 32.5449C327.889 33.3457 327.244 34.1172 326.561 34.8594C324.002 37.4961 321.17 39.8008 318.064 41.7734C316.658 42.7109 315.125 43.3945 313.465 43.8242C312.703 44.0195 311.941 44.1172 311.18 44.1172ZM331.732 44.0586C330.423 44.0586 329.105 43.7656 327.777 43.1797C326.449 42.5938 325.404 41.6172 324.642 40.25C324.076 39.0781 323.793 37.877 323.793 36.6465C323.793 34.8691 324.281 32.9453 325.257 30.875C326.507 28.2578 328.129 25.8945 330.121 23.7852C332.386 21.2852 334.857 19.9961 337.533 19.918C338.841 19.918 340.091 20.2402 341.283 20.8848C342.494 21.5293 343.402 22.4473 344.007 23.6387C344.379 24.498 344.564 25.3379 344.564 26.1582C344.564 28.1309 343.617 30.0059 341.722 31.7832C339.242 34.0293 336.351 35.1523 333.05 35.1523C331.078 35.1523 329.183 34.6934 327.367 33.7754C326.683 33.4043 326.341 32.7988 326.341 31.959C326.341 31.5879 326.429 31.2266 326.605 30.875C326.996 30.2109 327.601 29.8789 328.421 29.8789C328.773 29.8789 329.212 30.0059 329.74 30.2598L330.062 30.4062C330.043 30.4062 330.023 30.4062 330.004 30.4062C329.984 30.4062 329.955 30.3965 329.916 30.377C329.877 30.3574 329.857 30.3379 329.857 30.3184L330.091 30.4062C330.502 30.6016 330.98 30.7383 331.527 30.8164C331.644 30.875 331.8 30.9043 331.996 30.9043L331.791 30.875C331.888 30.9141 332.279 30.9336 332.962 30.9336C333.627 30.9336 334.076 30.9141 334.31 30.875C334.212 30.9141 334.144 30.9336 334.105 30.9336H334.076L334.281 30.875C334.32 30.875 334.349 30.8652 334.369 30.8457C335.306 30.6895 336.029 30.4844 336.537 30.2305L336.302 30.3184C336.634 30.2012 337.025 30.0059 337.474 29.7324C337.923 29.459 338.177 29.293 338.236 29.2344L338.382 29.1172L338.207 29.2637L338.324 29.1758C339.164 28.3359 339.584 27.916 339.584 27.916L339.671 27.7988L339.554 27.9746V27.916C339.632 27.7988 339.691 27.7207 339.73 27.6816C339.769 27.623 339.808 27.5547 339.847 27.4766C339.945 27.3398 340.023 27.2129 340.082 27.0957C340.16 26.959 340.199 26.8906 340.199 26.8906C340.199 26.8711 340.209 26.8516 340.228 26.832L340.17 26.9492L340.345 26.4219L340.375 26.2461V25.8652L340.404 25.8359L340.433 25.8652C340.433 25.8848 340.433 25.9043 340.433 25.9238C340.433 25.9434 340.443 25.9629 340.462 25.9824C340.462 26.0215 340.453 26.041 340.433 26.041C340.414 26.0215 340.394 25.9922 340.375 25.9531C340.375 25.9141 340.365 25.875 340.345 25.8359C340.345 25.7969 340.336 25.7578 340.316 25.7188C340.296 25.6797 340.287 25.6406 340.287 25.6016C340.287 25.5625 340.296 25.543 340.316 25.543L340.404 25.748L340.316 25.6602C340.238 25.5039 340.189 25.4258 340.17 25.4258C340.17 25.4062 340.16 25.377 340.14 25.3379C340.121 25.2988 340.082 25.2402 340.023 25.1621L340.17 25.3086L339.554 24.7227L339.759 24.8984L338.851 24.3418V24.3125L339.056 24.459L338.822 24.3418C338.392 24.2246 338.129 24.166 338.031 24.166C337.953 24.1465 337.914 24.127 337.914 24.1074L337.943 24.0781L338.148 24.166C338.07 24.127 337.972 24.1074 337.855 24.1074C337.738 24.1074 337.63 24.1172 337.533 24.1367H337.269C337.152 24.1367 337.093 24.1465 337.093 24.166C337.093 24.127 337.162 24.1074 337.298 24.1074C337.259 24.1465 337.132 24.1855 336.918 24.2246C336.703 24.2637 336.517 24.3125 336.361 24.3711C336.224 24.4297 336.097 24.4785 335.98 24.5176L336.156 24.4297L335.98 24.5176C335.414 24.8301 335.052 25.0352 334.896 25.1328L334.691 25.2793L334.603 25.3672C334.603 25.3477 334.623 25.3281 334.662 25.3086C334.701 25.2891 334.73 25.2695 334.75 25.25L333.636 26.2461C333.129 26.7344 332.552 27.3789 331.908 28.1797L331.761 28.3555H331.791C331.791 28.3164 331.82 28.2676 331.879 28.209L331.586 28.6191C330.746 29.7129 329.906 31.0508 329.066 32.6328L328.978 32.8965C328.9 33.0137 328.861 33.1016 328.861 33.1602L328.89 33.043C328.519 33.9414 328.255 34.8398 328.099 35.7383L328.07 35.9141L328.099 35.7676C328.06 36.0996 328.041 36.4316 328.041 36.7637V37.1445C328.041 37.3594 328.109 37.6719 328.246 38.082C328.246 38.0234 328.236 37.9746 328.216 37.9355L328.334 38.1992C328.392 38.3555 328.5 38.5117 328.656 38.668L328.509 38.5215C328.666 38.6973 328.832 38.8535 329.007 38.9902L329.125 39.1367C329.125 39.1172 329.115 39.1074 329.095 39.1074C329.095 39.0879 329.056 39.0488 328.978 38.9902L329.505 39.3418C329.584 39.3613 329.652 39.3906 329.711 39.4297C329.769 39.4688 329.808 39.498 329.828 39.5176C329.847 39.5176 329.857 39.5273 329.857 39.5469L329.798 39.4883C329.72 39.4688 329.681 39.4492 329.681 39.4297C330.228 39.6055 330.511 39.6934 330.531 39.6934C330.57 39.6934 330.629 39.7031 330.707 39.7227C330.785 39.7422 330.843 39.7617 330.882 39.7812C330.921 39.7812 330.951 39.7812 330.97 39.7812H330.853C331.205 39.8203 331.566 39.8398 331.937 39.8398L332.992 39.752H332.933L333.519 39.6641C334.789 39.3711 335.951 39.0391 337.005 38.668L337.914 38.3164L338.265 38.1699C338.246 38.1895 338.216 38.1992 338.177 38.1992C338.158 38.1992 338.138 38.2188 338.119 38.2578C338.119 38.2383 338.177 38.209 338.295 38.1699C339.974 37.4277 341.742 36.1973 343.597 34.4785C345.453 32.7402 346.81 31.4414 347.67 30.582C348.099 30.1719 348.597 29.9668 349.164 29.9668C349.711 29.9863 350.189 30.1914 350.599 30.582C351.029 30.9727 351.244 31.4414 351.244 31.9883C351.244 32.0273 351.234 32.1934 351.214 32.4863C351.214 32.7793 351.019 33.1406 350.629 33.5703C346.605 38.2578 342.171 41.4121 337.328 43.0332C335.296 43.7168 333.431 44.0586 331.732 44.0586ZM349.267 53.7852C348.173 53.7852 347.089 53.5605 346.015 53.1113C344.218 52.2715 343.095 50.8945 342.646 48.9805C342.587 48.5508 342.558 48.1309 342.558 47.7207C342.558 46.3535 342.851 45.0254 343.437 43.7363C344.784 40.6895 346.816 38.209 349.53 36.2949C354.277 32.9941 360.497 30.9336 368.193 30.1133C368.837 30.1133 369.335 30.3281 369.687 30.7578C370.058 31.1875 370.263 31.6758 370.302 32.2227C370.302 32.8281 370.087 33.3164 369.657 33.6875C369.247 34.0391 368.759 34.2539 368.193 34.332L367.284 34.4199H367.402L366.845 34.5078C363.583 34.918 360.204 35.7969 356.708 37.1445L356.298 37.3203L355.976 37.4668C355.058 37.8574 354.071 38.375 353.017 39.0195C352.314 39.4688 351.864 39.7715 351.669 39.9277C351.63 39.9473 351.601 39.9668 351.581 39.9863C351.562 39.9863 351.503 40.0254 351.405 40.1035L351.552 40.0156C350.732 40.5625 349.941 41.3145 349.179 42.2715L348.798 42.7402C348.798 42.7207 348.798 42.7012 348.798 42.6816C348.818 42.6621 348.827 42.6523 348.827 42.6523C348.847 42.6328 348.886 42.5938 348.945 42.5352C348.866 42.5938 348.827 42.6523 348.827 42.7109C348.241 43.5117 347.802 44.2539 347.509 44.9375C347.489 44.9961 347.47 45.0352 347.45 45.0547C347.431 45.0742 347.411 45.123 347.392 45.2012V45.1719L347.421 45.0547H347.45L347.362 45.2305C347.128 45.8555 346.972 46.3633 346.894 46.7539L346.747 47.3398L346.718 47.3984L346.747 47.1934L346.718 47.5449V47.7793C346.718 47.8379 346.728 47.8867 346.747 47.9258V48.0137C346.786 48.1113 346.806 48.209 346.806 48.3066C346.825 48.3066 346.835 48.3164 346.835 48.3359C346.835 48.3555 346.845 48.3848 346.864 48.4238C346.864 48.4824 346.874 48.5117 346.894 48.5117V48.4824C346.835 48.4238 346.806 48.375 346.806 48.3359C346.786 48.3164 346.777 48.2969 346.777 48.2773L346.806 48.3066C346.806 48.3262 346.825 48.3555 346.864 48.3945C346.884 48.4336 346.904 48.4727 346.923 48.5117C346.943 48.5703 346.972 48.6289 347.011 48.6875C347.03 48.7656 347.06 48.8047 347.099 48.8047C347.021 48.8047 346.982 48.7754 346.982 48.7168L346.952 48.6582H346.982C346.982 48.6777 347.109 48.8145 347.362 49.0684L347.48 49.1562L347.45 49.127C347.431 49.127 347.411 49.1172 347.392 49.0977C347.372 49.0977 347.353 49.0879 347.333 49.0684C347.314 49.0684 347.304 49.0586 347.304 49.0391L347.655 49.2148C347.773 49.332 347.89 49.3906 348.007 49.3906L347.773 49.332C347.831 49.332 347.88 49.3418 347.919 49.3613C347.958 49.3809 348.134 49.4297 348.446 49.5078C348.525 49.5469 348.622 49.5664 348.739 49.5664L348.534 49.5371C348.593 49.5566 348.71 49.5664 348.886 49.5664C349.081 49.5859 349.277 49.5957 349.472 49.5957C349.511 49.5762 349.638 49.5664 349.853 49.5664C349.853 49.5859 349.823 49.5957 349.765 49.5957H349.648L350.116 49.5078L350.966 49.2441L351.083 49.2148C351.083 49.1758 351.112 49.1562 351.171 49.1562L351.23 49.127H351.259L351.493 49.0098C351.864 48.7949 352.226 48.5605 352.577 48.3066L352.665 48.2773C352.646 48.2969 352.616 48.3164 352.577 48.3359C352.558 48.3555 352.538 48.3652 352.519 48.3652C352.519 48.3848 352.509 48.3945 352.489 48.3945C353.154 47.8477 353.691 47.3203 354.101 46.8125L354.218 46.6953L354.159 46.7832V46.7539C354.159 46.7344 354.179 46.7051 354.218 46.666C354.628 46.0801 354.999 45.4551 355.331 44.791L355.419 44.6152V44.5859L355.448 44.498C355.468 44.4199 355.497 44.3516 355.536 44.293C355.654 43.8633 355.751 43.4629 355.829 43.0918L355.859 43.0625C355.859 42.9648 355.868 42.9062 355.888 42.8867L355.859 43.0039C355.898 42.6133 355.917 42.2324 355.917 41.8613C355.917 41.627 355.907 41.4023 355.888 41.1875V40.9531L355.859 40.748L355.888 40.8652V41.0117L355.917 40.8945C355.917 40.7578 355.849 40.4844 355.712 40.0742C355.673 39.918 355.517 39.4297 355.243 38.6094C355.282 38.7266 355.302 38.7949 355.302 38.8145C355.302 38.8145 355.312 38.8145 355.331 38.8145L355.214 38.6094C355.019 38.1797 354.784 37.7598 354.511 37.3496C354.355 37.1543 354.277 37.0273 354.277 36.9688H354.247L354.364 37.1152L354.159 36.8809C353.769 36.4121 353.339 35.9922 352.87 35.6211L352.987 35.7383V35.709L352.753 35.5625C352.441 35.3281 351.894 34.9961 351.112 34.5664C349.941 33.9805 348.886 33.2383 347.948 32.3398C346.679 30.9727 346.044 29.4102 346.044 27.6523C346.044 27.3398 346.064 27.0273 346.103 26.7148C346.454 24.6836 347.294 22.877 348.622 21.2949C349.228 20.5137 349.95 19.8008 350.79 19.1562C352.118 18.1406 353.534 17.6328 355.038 17.6328C356.894 17.6328 358.378 18.375 359.491 19.8594C360.116 20.7773 360.439 21.7734 360.458 22.8477C360.458 23.9219 360.243 24.957 359.814 25.9531C358.915 27.7109 357.665 29.1758 356.064 30.3477C354.404 31.6562 352.577 32.6621 350.585 33.3652C350.37 33.4238 350.165 33.4531 349.97 33.4531C349.618 33.4531 349.247 33.3262 348.857 33.0723C348.466 32.8184 348.173 32.4277 347.978 31.9004C347.919 31.7051 347.89 31.5098 347.89 31.3145C347.89 30.9629 348.017 30.5918 348.271 30.2012C348.525 29.791 348.915 29.4883 349.443 29.293L350.204 29.0293L350.087 29.0586C350.107 29.0391 350.136 29.0293 350.175 29.0293C350.214 29.0098 350.253 28.9902 350.292 28.9707L350.497 28.8828C351.259 28.5508 352.05 28.0918 352.87 27.5059C352.948 27.4668 353.036 27.4082 353.134 27.3301L353.251 27.2422C353.232 27.2422 353.202 27.2617 353.163 27.3008C354.081 26.5781 354.765 25.9336 355.214 25.3672C355.312 25.2695 355.37 25.2012 355.39 25.1621L355.302 25.25V25.2793L355.419 25.1328C355.575 24.918 355.712 24.7031 355.829 24.4883L355.976 24.2539C355.976 24.1953 355.986 24.1465 356.005 24.1074C356.044 24.0488 356.073 24.0098 356.093 23.9902L356.034 24.1074L356.093 23.9609C356.093 23.9219 356.142 23.7559 356.239 23.4629V22.9062C356.239 22.8672 356.23 22.8086 356.21 22.7305C356.21 22.6328 356.171 22.5059 356.093 22.3496V22.2617C356.093 22.3203 356.112 22.3691 356.152 22.4082V22.4668L355.976 22.1445C355.956 22.125 355.937 22.1152 355.917 22.1152C355.898 22.0957 355.888 22.0762 355.888 22.0566V22.0859C355.907 22.0859 355.927 22.1055 355.946 22.1445C355.986 22.1836 356.015 22.2031 356.034 22.2031V22.1738C355.995 22.1738 355.946 22.1445 355.888 22.0859L355.8 21.998L355.888 22.0566C355.751 21.998 355.634 21.9297 355.536 21.8516H355.507H355.536C355.536 21.8711 355.546 21.8906 355.566 21.9102C355.585 21.9102 355.605 21.9199 355.624 21.9395C355.663 21.9395 355.683 21.9492 355.683 21.9688C355.683 21.9492 355.654 21.9395 355.595 21.9395C355.536 21.9395 355.448 21.9102 355.331 21.8516H354.775L354.95 21.8223L354.892 21.8516C354.56 21.9102 354.335 21.9688 354.218 22.0273L354.101 22.0566L354.247 22.0273L354.189 22.0566C354.071 22.1152 353.984 22.1543 353.925 22.1738C353.866 22.1934 353.661 22.3203 353.31 22.5547L353.134 22.6719C353.134 22.6523 353.134 22.6426 353.134 22.6426C353.154 22.623 353.163 22.6133 353.163 22.6133C353.183 22.5938 353.202 22.5742 353.222 22.5547H353.251C353.251 22.5742 353.232 22.5938 353.193 22.6133L352.519 23.2578L351.611 24.2539H351.581H351.611L351.698 24.1367V24.1074C351.698 24.166 351.64 24.2539 351.523 24.3711C351.503 24.4297 351.474 24.4785 351.435 24.5176C351.2 24.8887 350.986 25.25 350.79 25.6016L350.761 25.6895C350.702 25.8066 350.663 25.8848 350.644 25.9238V25.9824L350.673 25.8652C350.517 26.2363 350.4 26.627 350.321 27.0371C350.282 27.252 350.253 27.3691 350.234 27.3887L350.263 27.3301V27.8867C350.263 27.9844 350.273 28.043 350.292 28.0625V28.1504C350.273 28.1309 350.263 28.0723 350.263 27.9746L350.234 27.9453H350.263C350.263 28.043 350.273 28.0918 350.292 28.0918L350.351 28.3848L350.468 28.707C350.448 28.707 350.429 28.6973 350.409 28.6777C350.409 28.6582 350.409 28.6387 350.409 28.6191C350.409 28.5996 350.4 28.5801 350.38 28.5605L350.702 29.0879C350.702 29.1074 350.732 29.1465 350.79 29.2051L350.849 29.293V29.2637C350.829 29.2637 350.78 29.2246 350.702 29.1465H350.732C350.751 29.166 350.761 29.1855 350.761 29.2051C350.78 29.2051 350.8 29.2246 350.82 29.2637C350.859 29.2832 350.878 29.3027 350.878 29.3223C351.073 29.5176 351.298 29.7227 351.552 29.9375L351.435 29.8203H351.464C351.484 29.8398 351.503 29.8691 351.523 29.9082C351.562 29.9277 351.601 29.9473 351.64 29.9668C351.777 30.084 352.323 30.416 353.28 30.9629C357.167 33.1113 359.413 36.2363 360.019 40.3379C360.077 40.8652 360.107 41.3828 360.107 41.8906C360.107 45.0547 358.935 47.877 356.591 50.3574C355.204 51.8223 353.564 52.8379 351.669 53.4043C350.868 53.6582 350.068 53.7852 349.267 53.7852Z" fill="#077DF9"/>
</svg>
