<svg width="526" height="429" viewBox="0 0 526 429" fill="none" xmlns="http://www.w3.org/2000/svg">
    <path
        d="M274.652 425.468C273.291 425.468 271.931 425.119 270.712 424.407L209.967 389.328L210.489 388.426L271.234 423.505C273.355 424.724 275.981 424.724 278.102 423.505L295.839 413.189L395.177 355.83C395.635 355.561 395.904 355.086 395.904 354.564C395.904 354.026 395.635 353.552 395.177 353.298L292.152 293.819L292.675 292.917L395.699 352.397C396.49 352.855 396.949 353.662 396.949 354.564C396.949 355.466 396.474 356.273 395.699 356.732L296.361 414.091L278.624 424.407C277.405 425.119 276.029 425.468 274.652 425.468Z"
        fill="#017EFF" />
    <path
        d="M394.654 277.87L322.691 236.318C320.476 235.037 317.738 235.037 315.523 236.318L281.883 255.733L281.361 254.831L315.001 235.416C317.532 233.961 320.665 233.961 323.197 235.416L395.161 276.968L394.638 277.87H394.654Z"
        fill="#017EFF" />
    <path style="mix-blend-mode:lighten" opacity="0.6"
        d="M197.894 194.798L150.536 222.141L213.939 258.755L261.297 231.413L197.894 194.798Z"
        fill="url(#paint0_linear_605_9243)" />
    <path style="mix-blend-mode:lighten" opacity="0.6"
        d="M150.536 295.354L197.894 322.696L261.297 286.097L213.939 258.755L150.536 295.354Z"
        fill="url(#paint1_linear_605_9243)" />
    <path style="mix-blend-mode:lighten" opacity="0.6"
        d="M324.716 322.696L372.075 295.354L308.656 258.755L261.297 286.097L324.716 322.696Z"
        fill="url(#paint2_linear_605_9243)" />
    <g style="mix-blend-mode:lighten">
        <path
            d="M261.297 310.734C260.348 310.734 259.446 310.544 258.75 310.132L201.486 277.078C200.742 276.651 200.347 276.033 200.347 275.353C200.347 274.562 200.9 273.787 201.882 273.233L258.37 240.621C260.095 239.625 262.642 239.53 264.145 240.4L321.409 273.454C322.153 273.882 322.548 274.499 322.548 275.179C322.548 275.97 321.995 276.746 321.014 277.299L264.525 309.911C263.592 310.449 262.405 310.734 261.297 310.734ZM259.193 309.373C260.411 310.085 262.658 309.974 264.082 309.151L320.571 276.54C321.251 276.144 321.662 275.638 321.662 275.179C321.662 274.72 321.283 274.404 320.966 274.23L263.702 241.175C262.484 240.463 260.237 240.574 258.813 241.397L202.325 274.008C201.644 274.404 201.233 274.91 201.233 275.369C201.233 275.828 201.613 276.144 201.929 276.318L259.193 309.373Z"
            fill="#017EFF" />
    </g>
    <path d="M322.105 251.081V258.107L261.313 293.202L200.505 258.107V251.081H322.105Z"
        fill="url(#paint3_linear_605_9243)" />
    <path d="M261.313 286.177L200.505 251.081L261.297 215.969L322.105 251.081L261.313 286.177Z"
        fill="#767AF7" />
    <path
        d="M261.313 285.37L201.217 250.67L200.505 251.081L261.313 286.177L322.105 251.081L321.393 250.67L261.313 285.37Z"
        fill="white" />
    <path d="M261.297 278.091L214.54 251.081L261.297 224.087L308.07 251.081L261.297 278.091Z"
        fill="#0F054C" />
    <path opacity="0.5"
        d="M261.297 278.091L214.54 251.081L261.297 224.087L308.07 251.081L261.297 278.091Z"
        fill="url(#paint4_linear_605_9243)" />
    <path opacity="0.5" d="M261.297 217.283L308.07 244.277V251.081L261.297 224.087V217.283Z"
        fill="url(#paint5_linear_605_9243)" />
    <path opacity="0.5" d="M261.297 224.087L214.54 251.081V244.277L261.297 217.283V224.087Z"
        fill="url(#paint6_linear_605_9243)" />
    <path opacity="0.5"
        d="M261.297 271.271L214.54 244.277L261.297 217.283L308.07 244.277L261.297 271.271Z"
        fill="url(#paint7_linear_605_9243)" />
    <path opacity="0.5"
        d="M261.297 255.069L242.61 244.277L261.297 233.486L279.984 244.277L261.297 255.069Z"
        fill="#017EFF" />
    <path opacity="0.5"
        d="M261.297 234.483L279.13 244.768L279.984 244.277L261.297 233.486L242.61 244.277L243.48 244.768L261.297 234.483Z"
        fill="#017EFF" />
    <path opacity="0.5" d="M261.297 271.271V278.091L308.07 251.081V244.277L261.297 271.271Z"
        fill="url(#paint8_linear_605_9243)" />
    <path opacity="0.5" d="M214.54 244.277V251.081L261.297 278.091V271.271L214.54 244.277Z"
        fill="url(#paint9_linear_605_9243)" />
    <path opacity="0.8"
        d="M261.297 270.527L215.173 243.897L214.54 244.277L261.297 271.271L308.07 244.277L307.422 243.913L261.297 270.527Z"
        fill="#017EFF" />
    <path d="M139.586 171.396L31.5303 109.005L139.586 46.615L247.658 109.005L139.586 171.396Z"
        fill="#767AF7" />
    <path opacity="0.7"
        d="M139.586 165.779L41.2612 109.005L139.586 52.2322L237.926 109.005L139.586 165.779Z"
        fill="#044991" />
    <path
        d="M139.586 428.663C137.924 428.663 136.247 428.236 134.76 427.382L2.39965 350.956C1.51356 350.45 0.975586 349.516 0.975586 348.504C0.975586 347.491 1.51356 346.557 2.39965 346.051L139.57 266.856L281.013 348.519L144.396 427.398C142.909 428.252 141.247 428.679 139.57 428.679L139.586 428.663ZM135.282 426.48C137.94 428.015 141.231 428.015 143.89 426.48L278.956 348.504L139.586 268.043L2.92182 346.937C2.35219 347.269 2.01989 347.839 2.01989 348.504C2.01989 349.168 2.35219 349.738 2.92182 350.07L135.282 426.496V426.48Z"
        fill="#017EFF" />
    <path d="M139.586 410.894L31.5303 348.488L139.586 286.098L247.658 348.504L139.586 410.894Z"
        fill="white" />
    <path d="M247.658 109.005V348.504L139.586 410.894V171.396L247.658 109.005Z"
        fill="url(#paint10_linear_605_9243)" />
    <path d="M31.5303 109.005V348.488L139.586 410.894V171.396L31.5303 109.005Z" fill="#24126A" />
    <g opacity="0.51">
        <path d="M38.8403 124.892V340.149L132.276 394.09V178.833L38.8403 124.892Z" fill="#044991" />
    </g>
    <path d="M231.439 166.87V173.2L155.805 216.871V210.542L231.439 166.87Z" fill="#044991" />
    <path d="M231.439 193.628V199.957L155.805 243.645V237.3L231.439 193.628Z" fill="#044991" />
    <path d="M231.439 220.4V226.729L155.805 270.401V264.072L231.439 220.4Z" fill="#044991" />
    <path d="M231.439 247.157V253.502L155.805 297.174V290.845L231.439 247.157Z" fill="#044991" />
    <path d="M231.439 273.93V280.259L155.805 323.931V317.601L231.439 273.93Z" fill="#044991" />
    <path d="M231.439 300.687V307.032L155.805 350.703V344.374L231.439 300.687Z" fill="#044991" />
    <path
        d="M139.586 169.37L33.2866 107.993L31.5303 109.005L139.586 171.396L247.658 109.005L245.902 107.993L139.586 169.37Z"
        fill="white" />
    <g opacity="0.51">
        <path d="M31.5303 310.655L139.586 245.4V171.396L31.5303 109.005V310.655Z" fill="#044991" />
    </g>
    <path d="M50.0273 201.127L63.477 208.896V206.554L50.0432 198.801L50.0273 201.127Z"
        fill="#017EFF" />
    <path d="M65.6445 210.131L72.9706 214.372V212.03L65.6445 207.805V210.131Z" fill="#017EFF" />
    <path d="M84.3633 220.938L89.6798 224.007V221.666L84.3791 218.612L84.3633 220.938Z"
        fill="#017EFF" />
    <path d="M80.5024 218.707L82.3221 219.751V217.425L80.5024 216.381V218.707Z" fill="#017EFF" />
    <path d="M75.1543 215.621L78.4455 217.52V215.194L75.1543 213.28V215.621Z" fill="#017EFF" />
    <path d="M62.4644 218.976L67.7651 222.029V219.703L62.4644 216.634V218.976Z" fill="#017EFF" />
    <path d="M50.0273 211.792L60.4073 217.789V215.463L50.0273 209.45V211.792Z" fill="#017EFF" />
    <path d="M69.3945 249.609L79.7745 255.606V253.28L69.3945 247.283V249.609Z" fill="#017EFF" />
    <path d="M64.0464 246.524L67.3376 248.423V246.097L64.0464 244.198V246.524Z" fill="#017EFF" />
    <path d="M69.3315 238.929L79.7273 244.926V242.6L69.3315 236.603V238.929Z" fill="#017EFF" />
    <path d="M63.9834 235.844L67.2746 237.742L67.2904 235.416L63.9992 233.518L63.9834 235.844Z"
        fill="#017EFF" />
    <path d="M69.458 295.686L49.8848 284.389V286.715L69.458 298.012V295.686Z" fill="#017EFF" />
    <path d="M76.3572 299.673L71.5153 296.873L71.4995 299.199L76.3414 301.999L76.3572 299.673Z"
        fill="#017EFF" />
    <path d="M108.051 301.936L88.4775 290.623V292.965L108.035 304.262L108.051 301.936Z"
        fill="#017EFF" />
    <path d="M114.934 305.908L110.092 303.107V305.449L114.934 308.25V305.908Z" fill="#017EFF" />
    <path d="M55.1855 282.11L49.8848 279.057V281.383L55.1855 284.452V282.11Z" fill="#017EFF" />
    <path d="M85.6608 289.025L80.3601 285.971L80.3442 288.297L85.645 291.351L85.6608 289.025Z"
        fill="#017EFF" />
    <path d="M67.6384 289.294L57.2427 283.297V285.639L67.6384 291.636V289.294Z" fill="#017EFF" />
    <path d="M72.9709 292.379L69.6955 290.48L69.6797 292.822L72.9709 294.721V292.379Z"
        fill="#017EFF" />
    <path d="M85.5183 299.61L75.1226 293.614V295.955L85.5183 301.952V299.61Z" fill="#017EFF" />
    <path d="M90.8666 302.697L87.5754 300.798L87.5596 303.14L90.8508 305.038L90.8666 302.697Z"
        fill="#017EFF" />
    <path d="M85.645 294.357L80.3442 291.303V293.629L85.645 296.699V294.357Z" fill="#017EFF" />
    <path d="M98.0979 301.541L87.7021 295.544V297.886L98.0821 303.883L98.0979 301.541Z"
        fill="#017EFF" />
    <path d="M103.43 304.626L100.139 302.728V305.069L103.43 306.968V304.626Z" fill="#017EFF" />
    <path d="M60.7394 279.99L49.9006 273.724L49.8848 276.05L60.7394 282.316V279.99Z" fill="#017EFF" />
    <path d="M70.6447 285.702L62.7964 281.176V283.502L70.6447 288.043V285.702Z" fill="#017EFF" />
    <path d="M78.0024 289.959L72.7017 286.889V289.231L78.0024 292.285V289.959Z" fill="#017EFF" />
    <path d="M113.874 243.28L124.712 249.546V247.22L113.874 240.954V243.28Z" fill="#017EFF" />
    <path d="M103.968 237.568L111.817 242.109V239.767L103.968 235.242V237.568Z" fill="#017EFF" />
    <path d="M96.6104 233.327L101.911 236.381V234.055L96.6104 230.986V233.327Z" fill="#017EFF" />
    <path d="M109.364 235.337L120.218 241.603V239.261L109.364 232.995V235.337Z" fill="#017EFF" />
    <path d="M99.4585 229.625L107.307 234.15V231.808L99.4743 227.283L99.4585 229.625Z"
        fill="#017EFF" />
    <path d="M92.1167 225.368L97.4174 228.438V226.096L92.1167 223.042V225.368Z" fill="#017EFF" />
    <path d="M70.9453 245.195L74.6163 247.315V244.989L70.9453 242.869V245.195Z" fill="#017EFF" />
    <path d="M64.0464 241.223L68.8883 244.008V241.682L64.0464 238.881V241.223Z" fill="#017EFF" />
    <path d="M60.8185 274.689L49.9639 268.423V270.764L60.8185 277.015V274.689Z" fill="#017EFF" />
    <path d="M70.7079 280.401L62.8755 275.876V278.202L70.7079 282.743V280.401Z" fill="#017EFF" />
    <path d="M78.0659 284.658L72.7651 281.588V283.93L78.0659 286.984V284.658Z" fill="#017EFF" />
    <path d="M53.6348 265.211L49.9797 263.091L49.9639 265.433L53.6348 267.537V265.211Z"
        fill="#017EFF" />
    <path d="M60.5338 269.199L55.6919 266.398V268.724L60.5338 271.525V269.199Z" fill="#017EFF" />
    <path d="M70.3916 274.879L62.5908 270.369V272.711L70.3916 277.221V274.879Z" fill="#017EFF" />
    <path d="M73.2397 230.495L76.9107 232.615V230.289L73.2397 228.169V230.495Z" fill="#017EFF" />
    <path d="M66.3408 226.524L71.1827 229.309V226.983L66.3408 224.182V226.524Z" fill="#017EFF" />
    <path d="M56.4829 220.827L64.2837 225.337V222.995L56.4829 218.501V220.827Z" fill="#017EFF" />
    <path d="M79.6479 239.15L87.4487 243.66V241.334L79.6479 236.824V239.15Z" fill="#017EFF" />
    <path d="M66.958 232.204L77.4645 238.28L77.4804 235.938L66.958 229.878V232.204Z" fill="#017EFF" />
    <path d="M61.6099 229.118L64.9011 231.017V228.691L61.6099 226.792V229.118Z" fill="#017EFF" />
    <path d="M56.4829 226.16L59.7741 228.058V225.732L56.4829 223.818V226.16Z" fill="#017EFF" />
    <path d="M61.7363 256.287L72.1163 262.284L72.1321 259.942L61.7363 253.945V256.287Z"
        fill="#017EFF" />
    <path d="M56.3882 253.201L59.6794 255.1V252.758L56.3882 250.86V253.201Z" fill="#017EFF" />
    <path d="M63.3506 262.553L67.0057 264.657L67.0215 262.331L63.3506 260.211V262.553Z"
        fill="#017EFF" />
    <path d="M74.4897 258.281L78.1449 260.385V258.059L74.4897 255.939V258.281Z" fill="#017EFF" />
    <path d="M79.7114 261.287L88.4932 266.366L88.5091 264.024L79.7114 258.961V261.287Z"
        fill="#017EFF" />
    <path d="M90.0596 267.252L95.2812 270.274L95.297 267.948L90.0596 264.926V267.252Z"
        fill="#017EFF" />
    <path d="M56.4512 258.565L61.293 261.366V259.024L56.4512 256.239V258.565Z" fill="#017EFF" />
    <path d="M56.8789 264.04L60.5341 266.16V263.819L56.8789 261.714V264.04Z" fill="#017EFF" />
    <path d="M49.9795 260.068L54.8214 262.853V260.527L49.9795 257.727V260.068Z" fill="#017EFF" />
    <path d="M69.1729 255.211L72.4641 257.11V254.784L69.1729 252.869V255.211Z" fill="#017EFF" />
    <path d="M64.0464 252.252L67.3376 254.151V251.809L64.0464 249.91V252.252Z" fill="#017EFF" />
    <path d="M82.9712 225.447L94.2056 231.935V229.593L82.9712 223.121V225.447Z" fill="#017EFF" />
    <path d="M70.4072 218.2L80.9138 224.261L80.9296 221.935L70.4072 215.859V218.2Z" fill="#017EFF" />
    <path d="M65.0591 215.115L68.3503 217.014V214.672L65.0591 212.773V215.115Z" fill="#017EFF" />
    <path d="M59.9326 212.14L63.2238 214.039V211.713L59.9326 209.814V212.14Z" fill="#017EFF" />
    <path d="M57.1319 210.526L50.0273 206.428V204.102L57.1319 208.2V210.526Z" fill="#017EFF" />
    <path d="M139.586 124.781L31.5303 62.3905L139.586 0L247.658 62.3905L139.586 124.781Z"
        fill="#E0E0FC" />
    <path d="M139.586 107.739L61.04 62.3905L139.586 17.0415L218.148 62.3905L139.586 107.739Z"
        fill="#044991" />
    <path
        d="M139.586 20.1112L215.489 63.9253L218.148 62.3905L139.586 17.0415L61.04 62.3905L63.6983 63.9253L139.586 20.1112Z"
        fill="white" />
    <path d="M247.658 62.3904V97.755L139.586 160.145V124.781L247.658 62.3904Z"
        fill="url(#paint11_linear_605_9243)" />
    <path d="M31.5303 62.3904V97.755L139.586 160.145V124.781L31.5303 62.3904Z" fill="#24126A" />
    <g opacity="0.51">
        <path d="M38.8403 78.2766V89.4161L132.276 143.357V132.218L38.8403 78.2766Z" fill="#044991" />
    </g>
    <path
        d="M139.586 122.755L33.2866 61.3777L31.5303 62.3904L139.586 124.781L247.658 62.3904L245.902 61.3777L139.586 122.755Z"
        fill="white" />
    <path d="M231.439 87.1697V93.4989L155.805 137.171V130.841L231.439 87.1697Z" fill="#044991" />
    <path opacity="0.51" d="M31.5303 62.3904V97.755L139.586 160.145V124.781L31.5303 62.3904Z"
        fill="#044991" />
    <path d="M108.051 122.898L88.4775 111.6V113.942L108.035 125.24L108.051 122.898Z" fill="#017EFF" />
    <path d="M85.6608 110.003L80.3601 106.933L80.3442 109.275L85.645 112.329L85.6608 110.003Z"
        fill="#017EFF" />
    <path d="M60.8185 95.6666L49.9639 89.4006V91.7266L60.8185 97.9926V95.6666Z" fill="#017EFF" />
    <path d="M70.7079 101.379L62.8755 96.8533V99.1793L70.7079 103.705V101.379Z" fill="#017EFF" />
    <path d="M78.0659 105.619L72.7651 102.565V104.891L78.0659 107.961V105.619Z" fill="#017EFF" />
    <path d="M139.697 32.6117L136.263 30.6338L139.697 28.6401L143.13 30.6338L139.697 32.6117Z"
        fill="#017EFF" />
    <path opacity="0.1"
        d="M146.564 36.5676L143.13 34.5897L146.564 32.6118L149.998 34.5897L146.564 36.5676Z"
        fill="#017EFF" />
    <path opacity="0.4"
        d="M153.431 40.539L149.998 38.5453L153.431 36.5674L156.865 38.5453L153.431 40.539Z"
        fill="#017EFF" />
    <path d="M160.283 44.4951L156.865 42.5172L160.283 40.5393L163.716 42.5172L160.283 44.4951Z"
        fill="#017EFF" />
    <path opacity="0.4"
        d="M167.149 48.4665L163.716 46.4728L167.149 44.4949L170.583 46.4728L167.149 48.4665Z"
        fill="#017EFF" />
    <path d="M174.017 52.4216L170.583 50.4437L174.017 48.4658L177.45 50.4437L174.017 52.4216Z"
        fill="#017EFF" />
    <path d="M180.884 56.3776L177.451 54.3998L180.884 52.4219L184.318 54.3998L180.884 56.3776Z"
        fill="#017EFF" />
    <path d="M187.736 60.3493L184.318 58.3714L187.736 56.3777L191.169 58.3714L187.736 60.3493Z"
        fill="#017EFF" />
    <path opacity="0.1"
        d="M194.603 64.3054L191.169 62.3275L194.603 60.3496L198.036 62.3275L194.603 64.3054Z"
        fill="#017EFF" />
    <path d="M132.814 36.5835L129.38 34.6056L132.814 32.6277L136.247 34.6056L132.814 36.5835Z"
        fill="#017EFF" />
    <path d="M139.681 40.5548L136.247 38.5611L139.665 36.5833L143.098 38.5611L139.681 40.5548Z"
        fill="#017EFF" />
    <path d="M146.532 44.51L143.099 42.5321L146.532 40.5542L149.966 42.5321L146.532 44.51Z"
        fill="#017EFF" />
    <path d="M153.399 48.4816L149.966 46.4879L153.399 44.51L156.833 46.4879L153.399 48.4816Z"
        fill="#017EFF" />
    <path d="M160.267 52.4377L156.833 50.4598L160.267 48.4819L163.7 50.4598L160.267 52.4377Z"
        fill="#017EFF" />
    <path d="M167.118 56.3938L163.7 54.4159L167.118 52.438L170.552 54.4159L167.118 56.3938Z"
        fill="#017EFF" />
    <path d="M173.985 60.3652L170.552 58.3873L173.985 56.3936L177.419 58.3873L173.985 60.3652Z"
        fill="#017EFF" />
    <path d="M180.853 64.3208L177.419 62.3429L180.853 60.365L184.286 62.3429L180.853 64.3208Z"
        fill="#017EFF" />
    <path d="M187.72 68.2922L184.286 66.2984L187.72 64.3206L191.153 66.2984L187.72 68.2922Z"
        fill="#017EFF" />
    <path d="M125.915 40.57L122.481 38.5921L125.915 36.5984L129.349 38.5921L125.915 40.57Z"
        fill="#017EFF" />
    <path d="M132.782 44.5261L129.348 42.5482L132.782 40.5703L136.215 42.5482L132.782 44.5261Z"
        fill="#017EFF" />
    <path d="M139.649 48.498L136.216 46.5043L139.649 44.5264L143.083 46.5043L139.649 48.498Z"
        fill="#017EFF" />
    <path opacity="0.1"
        d="M146.501 52.4536L143.083 50.4757L146.501 48.4978L149.934 50.4757L146.501 52.4536Z"
        fill="#017EFF" />
    <path opacity="0.4"
        d="M153.368 56.4091L149.935 54.4313L153.368 52.4534L156.802 54.4313L153.368 56.4091Z"
        fill="#017EFF" />
    <path opacity="0.4"
        d="M160.235 60.381L156.801 58.4031L160.235 56.4094L163.668 58.4031L160.235 60.381Z"
        fill="#017EFF" />
    <path d="M167.103 64.3366L163.669 62.3587L167.103 60.3809L170.536 62.3587L167.103 64.3366Z"
        fill="#017EFF" />
    <path d="M173.954 68.3085L170.536 66.3148L173.954 64.3369L177.388 66.3148L173.954 68.3085Z"
        fill="#017EFF" />
    <path d="M180.821 72.2641L177.387 70.2862L180.821 68.3083L184.254 70.2862L180.821 72.2641Z"
        fill="#017EFF" />
    <path opacity="0.4"
        d="M119.032 44.542L115.598 42.5641L119.032 40.5862L122.465 42.5641L119.032 44.542Z"
        fill="#017EFF" />
    <path opacity="0.4"
        d="M125.899 48.5136L122.465 46.5199L125.899 44.542L129.317 46.5199L125.899 48.5136Z"
        fill="#017EFF" />
    <path opacity="0.1"
        d="M132.75 52.4692L129.316 50.4913L132.75 48.5134L136.184 50.4913L132.75 52.4692Z"
        fill="#017EFF" />
    <path d="M139.618 56.425L136.184 54.4471L139.618 52.4692L143.051 54.4471L139.618 56.425Z"
        fill="#017EFF" />
    <path d="M146.485 60.3966L143.051 58.4188L146.485 56.425L149.918 58.4188L146.485 60.3966Z"
        fill="#017EFF" />
    <path d="M153.336 64.3525L149.918 62.3746L153.336 60.3967L156.77 62.3746L153.336 64.3525Z"
        fill="#017EFF" />
    <path opacity="0.4"
        d="M160.203 68.3241L156.77 66.3304L160.203 64.3525L163.637 66.3304L160.203 68.3241Z"
        fill="#017EFF" />
    <path d="M167.071 72.2797L163.637 70.3019L167.071 68.324L170.504 70.3019L167.071 72.2797Z"
        fill="#017EFF" />
    <path d="M173.938 76.2356L170.504 74.2577L173.938 72.2798L177.372 74.2577L173.938 76.2356Z"
        fill="#017EFF" />
    <path d="M112.133 48.5295L108.699 46.5357L112.133 44.5579L115.566 46.5357L112.133 48.5295Z"
        fill="#017EFF" />
    <path d="M119 52.4851L115.566 50.5072L119 48.5293L122.434 50.5072L119 52.4851Z" fill="#017EFF" />
    <path d="M125.867 56.4406L122.434 54.4628L125.867 52.4849L129.301 54.4628L125.867 56.4406Z"
        fill="#017EFF" />
    <path d="M132.719 60.4128L129.301 58.4349L132.719 56.4412L136.152 58.4349L132.719 60.4128Z"
        fill="#017EFF" />
    <path d="M139.586 64.3686L136.152 62.3907L139.586 60.4128L143.02 62.3907L139.586 64.3686Z"
        fill="#017EFF" />
    <path d="M146.453 68.3398L143.02 66.3461L146.453 64.3682L149.887 66.3461L146.453 68.3398Z"
        fill="#017EFF" />
    <path d="M153.32 72.2956L149.887 70.3177L153.32 68.3398L156.754 70.3177L153.32 72.2956Z"
        fill="#017EFF" />
    <path d="M160.172 76.2512L156.754 74.2733L160.172 72.2954L163.605 74.2733L160.172 76.2512Z"
        fill="#017EFF" />
    <path d="M167.039 80.2231L163.605 78.2452L167.039 76.2515L170.473 78.2452L167.039 80.2231Z"
        fill="#017EFF" />
    <path d="M105.25 52.5009L101.816 50.5231L105.25 48.5452L108.683 50.5231L105.25 52.5009Z"
        fill="#017EFF" />
    <path d="M112.117 56.457L108.684 54.4791L112.117 52.5012L115.535 54.4791L112.117 56.457Z"
        fill="#017EFF" />
    <path opacity="0.4"
        d="M118.968 60.4284L115.535 58.4505L118.968 56.4568L122.402 58.4505L118.968 60.4284Z"
        fill="#017EFF" />
    <path d="M125.835 64.3845L122.402 62.4066L125.835 60.4287L129.269 62.4066L125.835 64.3845Z"
        fill="#017EFF" />
    <path opacity="0.1"
        d="M132.703 68.3554L129.27 66.3617L132.703 64.3838L136.137 66.3617L132.703 68.3554Z"
        fill="#017EFF" />
    <path d="M139.555 72.3115L136.137 70.3336L139.555 68.3557L142.988 70.3336L139.555 72.3115Z"
        fill="#017EFF" />
    <path d="M146.421 76.2675L142.988 74.2897L146.421 72.3118L149.855 74.2897L146.421 76.2675Z"
        fill="#017EFF" />
    <path d="M153.289 80.2392L149.855 78.2613L153.289 76.2834L156.722 78.2613L153.289 80.2392Z"
        fill="#017EFF" />
    <path d="M160.156 84.1948L156.722 82.2169L160.156 80.239L163.589 82.2169L160.156 84.1948Z"
        fill="#017EFF" />
    <path d="M98.3511 56.4729L94.9175 54.495L98.3511 52.5171L101.785 54.495L98.3511 56.4729Z"
        fill="#017EFF" />
    <path d="M105.218 60.4443L101.785 58.4664L105.218 56.4727L108.652 58.4664L105.218 60.4443Z"
        fill="#017EFF" />
    <path opacity="0.4"
        d="M112.085 64.4001L108.652 62.4222L112.085 60.4443L115.519 62.4222L112.085 64.4001Z"
        fill="#017EFF" />
    <path d="M118.953 68.3717L115.519 66.378L118.953 64.4001L122.37 66.378L118.953 68.3717Z"
        fill="#017EFF" />
    <path d="M125.804 72.3276L122.37 70.3497L125.804 68.3718L129.237 70.3497L125.804 72.3276Z"
        fill="#017EFF" />
    <path opacity="0.1"
        d="M132.671 76.2992L129.238 74.3055L132.671 72.3276L136.105 74.3055L132.671 76.2992Z"
        fill="#017EFF" />
    <path opacity="0.4"
        d="M139.539 80.2546L136.105 78.2767L139.539 76.2988L142.972 78.2767L139.539 80.2546Z"
        fill="#017EFF" />
    <path d="M146.39 84.2104L142.972 82.2325L146.39 80.2546L149.824 82.2325L146.39 84.2104Z"
        fill="#017EFF" />
    <path opacity="0.1"
        d="M153.257 88.1818L149.824 86.2039L153.257 84.2102L156.691 86.2039L153.257 88.1818Z"
        fill="#017EFF" />
    <path d="M91.4678 60.4601L88.0342 58.4822L91.4678 56.4885L94.9014 58.4822L91.4678 60.4601Z"
        fill="#017EFF" />
    <path opacity="0.4"
        d="M98.335 64.416L94.9014 62.4381L98.335 60.4602L101.753 62.4381L98.335 64.416Z"
        fill="#017EFF" />
    <path d="M105.187 68.3876L101.753 66.3939L105.187 64.416L108.62 66.3939L105.187 68.3876Z"
        fill="#017EFF" />
    <path d="M112.054 72.343L108.62 70.3651L112.054 68.3872L115.487 70.3651L112.054 72.343Z"
        fill="#017EFF" />
    <path d="M118.921 76.3149L115.487 74.3211L118.921 72.3433L122.355 74.3211L118.921 76.3149Z"
        fill="#017EFF" />
    <path d="M125.773 80.2705L122.355 78.2926L125.773 76.3147L129.206 78.2926L125.773 80.2705Z"
        fill="#017EFF" />
    <path d="M132.64 84.2263L129.206 82.2484L132.64 80.2705L136.073 82.2484L132.64 84.2263Z"
        fill="#017EFF" />
    <path opacity="0.4"
        d="M139.507 88.1979L136.073 86.22L139.507 84.2263L142.94 86.22L139.507 88.1979Z"
        fill="#017EFF" />
    <path d="M146.374 92.154L142.94 90.1761L146.374 88.1982L149.808 90.1761L146.374 92.154Z"
        fill="#017EFF" />
    <path d="M84.5689 64.4318L81.1353 62.454L84.5689 60.4761L88.0025 62.454L84.5689 64.4318Z"
        fill="#017EFF" />
    <path opacity="0.1"
        d="M91.4361 68.4032L88.0024 66.4095L91.4361 64.4316L94.8697 66.4253L91.4361 68.4032Z"
        fill="#017EFF" />
    <path d="M98.3037 72.3589L94.8701 70.381L98.3037 68.4031L101.737 70.381L98.3037 72.3589Z"
        fill="#017EFF" />
    <path d="M105.171 76.3305L101.737 74.3368L105.171 72.3589L108.589 74.3368L105.171 76.3305Z"
        fill="#017EFF" />
    <path d="M112.022 80.2866L108.588 78.3087L112.022 76.3308L115.456 78.3087L112.022 80.2866Z"
        fill="#017EFF" />
    <path d="M118.889 84.2424L115.456 82.2645L118.889 80.2866L122.323 82.2645L118.889 84.2424Z"
        fill="#017EFF" />
    <path opacity="0.4"
        d="M125.757 88.214L122.323 86.2361L125.757 84.2424L129.19 86.2361L125.757 88.214Z"
        fill="#017EFF" />
    <path d="M132.608 92.1699L129.19 90.192L132.608 88.2141L136.041 90.192L132.608 92.1699Z"
        fill="#017EFF" />
    <path d="M139.475 96.1415L136.042 94.1478L139.475 92.1699L142.909 94.1478L139.475 96.1415Z"
        fill="#017EFF" />
    <path
        d="M443.959 356.59C442.314 356.59 440.684 356.162 439.26 355.34L345.397 301.145C344.559 300.655 344.052 299.785 344.052 298.804C344.052 297.823 344.559 296.952 345.397 296.462L404.433 262.379L404.686 262.521L502.995 319.279C503.85 319.769 504.34 320.64 504.34 321.621C504.34 322.602 503.834 323.472 502.995 323.962L448.659 355.34C447.235 356.162 445.605 356.59 443.959 356.59ZM439.766 354.438C442.298 355.893 445.605 355.893 448.137 354.438L502.473 323.06C502.995 322.76 503.312 322.222 503.312 321.621C503.312 321.019 502.995 320.481 502.473 320.181L404.417 263.566L404.227 263.676L345.904 297.348C345.381 297.649 345.065 298.187 345.065 298.788C345.065 299.389 345.381 299.927 345.904 300.228L439.766 354.422V354.438Z"
        fill="#017EFF" />
    <path
        d="M404.306 240.575L417.376 162.994L416.332 162.551L417.914 161.649C418.215 161.459 418.658 161.459 419.133 161.744L523.644 222.077C524.499 222.568 525.147 223.85 525.005 224.736L511.824 302.933C511.761 303.345 511.555 303.614 511.27 303.725L509.72 304.611L509.451 303.171L509.546 303.202L405.667 243.233C404.813 242.742 404.164 241.461 404.306 240.575Z"
        fill="url(#paint12_linear_605_9243)" />
    <path
        d="M523.059 224.197L524.783 223.438C524.973 223.881 525.068 224.34 525.005 224.735L511.824 302.933C511.761 303.345 511.555 303.614 511.271 303.724L509.72 304.61L509.451 303.171L509.546 303.202L504.292 300.164L523.059 224.197Z"
        fill="url(#paint13_linear_605_9243)" />
    <path
        d="M404.021 244.182L508.533 304.516C509.34 304.974 510.036 304.705 510.179 303.883L523.359 225.685C523.517 224.799 522.853 223.533 521.998 223.027L417.487 162.693C416.68 162.234 415.984 162.503 415.841 163.326L402.661 241.524C402.502 242.41 403.167 243.676 404.021 244.182Z"
        fill="#24126A" />
    <g opacity="0.51">
        <path d="M418.864 167.677L519.593 225.843L507.109 299.484L406.427 241.366L418.864 167.677Z"
            fill="#044991" />
    </g>
    <path
        d="M338.324 281.208L344.02 284.183L401.205 251.16C402.154 250.607 403.831 250.67 404.939 251.319L503.58 308.266C504.53 307.744 508.833 305.671 508.833 305.671L506.745 311.114C506.666 311.351 506.476 311.589 506.159 311.763L445.921 346.542C444.971 347.096 443.294 347.032 442.187 346.384L341.251 288.107C340.792 287.838 340.523 287.522 340.397 287.205L338.324 281.208Z"
        fill="url(#paint14_linear_605_9243)" />
    <path
        d="M339.21 282.141L442.661 341.874C443.801 342.522 445.509 342.601 446.491 342.032L508.216 306.398C509.197 305.829 509.071 304.847 507.947 304.183L404.496 244.451C403.357 243.802 401.648 243.723 400.667 244.292L338.941 279.926C337.96 280.496 338.087 281.477 339.21 282.141Z"
        fill="url(#paint15_linear_605_9243)" />
    <path
        d="M339.21 281.54L442.661 341.272C443.8 341.921 445.509 342 446.49 341.431L508.216 305.797C508.533 305.607 508.723 305.386 508.818 305.132C508.976 305.591 508.786 306.066 508.216 306.398L446.49 342.032C445.509 342.602 443.8 342.522 442.661 341.874L339.21 282.142C338.45 281.698 338.15 281.113 338.34 280.607C338.45 280.939 338.735 281.271 339.21 281.556V281.54Z"
        fill="white" />
    <path
        d="M473.865 328.947V327.807C473.865 327.697 473.801 327.649 473.722 327.697L469.719 330.007C469.64 330.054 469.577 330.181 469.577 330.292V331.431C469.577 331.542 469.64 331.589 469.719 331.542L473.722 329.231C473.801 329.184 473.865 329.057 473.865 328.947Z"
        fill="#2842A2" />
    <path
        d="M467.884 332.396V331.257C467.884 331.146 467.821 331.098 467.741 331.146L463.738 333.456C463.659 333.503 463.596 333.63 463.596 333.741V334.88C463.596 334.991 463.659 335.038 463.738 334.991L467.741 332.681C467.821 332.633 467.884 332.507 467.884 332.396Z"
        fill="#2842A2" />
    <path
        d="M492.125 303.044L406.158 253.407C405.588 253.075 404.876 253.075 404.306 253.407L373.689 271.113C373.246 271.366 373.246 271.999 373.689 272.252L459.624 321.858C460.194 322.19 460.906 322.19 461.475 321.858L492.125 304.167C492.568 303.914 492.568 303.281 492.125 303.028V303.044Z"
        fill="#89C0F9" />
    <path
        d="M492.124 304.183L491.824 304.357L406.158 254.894C405.588 254.562 404.876 254.562 404.306 254.894L374.005 272.426L373.704 272.252C373.261 271.999 373.261 271.366 373.704 271.113L404.322 253.407C404.892 253.075 405.604 253.075 406.173 253.407L492.14 303.044C492.583 303.297 492.583 303.93 492.14 304.183H492.124Z"
        fill="#000F9F" />
    <path d="M401.996 257.901L476.665 301.019L479.988 299.088L405.319 255.986L401.996 257.901Z"
        fill="#24126A" />
    <path d="M393.863 262.601L463.896 303.029L467.219 301.114L397.17 260.686L393.863 262.601Z"
        fill="#24126A" />
    <path d="M388.562 265.654L471.016 313.266L474.339 311.351L391.869 263.739L388.562 265.654Z"
        fill="#24126A" />
    <path d="M383.262 268.724L465.716 316.336L469.039 314.422L386.569 266.81L383.262 268.724Z"
        fill="#24126A" />
    <path d="M377.945 271.778L460.415 319.389L463.738 317.475L381.268 269.863L377.945 271.778Z"
        fill="#24126A" />
    <path d="M481.19 303.614L484.497 305.528L487.82 303.614L484.497 301.699L481.19 303.614Z"
        fill="#24126A" />
    <path d="M469.466 306.256L476.365 310.228L479.688 308.313L472.789 304.342L469.466 306.256Z"
        fill="#24126A" />
    <path
        d="M402.851 315.054L379.67 301.668C378.768 301.145 378.768 300.291 379.67 299.769L395.525 290.623C396.427 290.101 397.898 290.101 398.8 290.623L421.981 304.009C422.883 304.532 422.883 305.386 421.981 305.908L406.126 315.054C405.224 315.576 403.753 315.576 402.851 315.054Z"
        fill="url(#paint16_linear_605_9243)" />
    <path
        d="M421.981 304.785L398.8 291.398C397.898 290.876 396.426 290.876 395.524 291.398L379.67 300.544C379.385 300.702 379.211 300.892 379.1 301.098C378.863 300.639 379.037 300.133 379.67 299.769L395.524 290.623C396.426 290.101 397.898 290.101 398.8 290.623L421.981 304.009C422.614 304.373 422.788 304.88 422.55 305.339C422.44 305.133 422.266 304.943 421.981 304.785Z"
        fill="#000F9F" />
    <g opacity="0.11">
        <mask id="mask0_605_9243" style="mask-type:luminance" maskUnits="userSpaceOnUse" x="406"
            y="167" width="114" height="133">
            <path
                d="M418.864 167.677L519.593 225.843L507.109 299.484L406.427 241.366L418.864 167.677Z"
                fill="white" />
        </mask>
        <g mask="url(#mask0_605_9243)">
            <path
                d="M404.401 244.324L507.853 304.057C508.992 304.705 510.701 304.784 511.682 304.215L573.408 268.581C574.389 268.012 574.262 267.031 573.139 266.366L469.687 206.634C468.548 205.985 466.839 205.906 465.858 206.476L404.132 242.109C403.151 242.679 403.278 243.66 404.401 244.324Z"
                fill="url(#paint17_linear_605_9243)" />
            <path
                d="M508.154 255.037L484.973 241.65C484.071 241.128 484.071 240.274 484.973 239.751L500.828 230.606C501.729 230.084 503.201 230.084 504.103 230.606L527.284 243.992C528.186 244.514 528.186 245.369 527.284 245.891L511.429 255.037C510.527 255.559 509.056 255.559 508.154 255.037Z"
                fill="url(#paint18_linear_605_9243)" />
            <path
                d="M527.284 244.767L504.103 231.381C503.201 230.859 501.73 230.859 500.828 231.381L484.973 240.527C484.688 240.685 484.514 240.875 484.403 241.081C484.166 240.622 484.34 240.115 484.973 239.751L500.828 230.606C501.73 230.084 503.201 230.084 504.103 230.606L527.284 243.992C527.917 244.356 528.091 244.862 527.854 245.321C527.743 245.115 527.569 244.926 527.284 244.767Z"
                fill="#000F9F" />
            <path
                d="M537.474 275.939L451.507 226.302C450.937 225.97 450.225 225.97 449.656 226.302L419.038 244.008C418.595 244.261 418.595 244.894 419.038 245.147L504.957 294.753C505.527 295.085 506.239 295.085 506.809 294.753L537.458 277.063C537.901 276.81 537.901 276.177 537.458 275.923L537.474 275.939Z"
                fill="#89C0F9" />
            <path
                d="M537.474 277.094L537.173 277.268L451.507 227.805C450.937 227.473 450.225 227.473 449.655 227.805L419.354 245.337L419.053 245.163C418.61 244.91 418.61 244.277 419.053 244.024L449.671 226.318C450.241 225.986 450.953 225.986 451.522 226.318L537.489 275.955C537.932 276.208 537.932 276.841 537.489 277.094H537.474Z"
                fill="#000F9F" />
            <path d="M427.06 242.821L501.951 286.05L498.976 287.775L424.085 244.53L427.06 242.821Z"
                fill="#24126A" />
            <path
                d="M434.94 238.264L506.128 279.357L503.169 281.066L431.981 239.973L434.94 238.264Z"
                fill="#24126A" />
            <path
                d="M511.445 282.426L518.09 286.271L515.132 287.98L508.486 284.135L511.445 282.426Z"
                fill="#24126A" />
            <path
                d="M505.574 288.155L510.195 290.829L507.236 292.538L502.6 289.863L505.574 288.155Z"
                fill="#24126A" />
            <path d="M439.893 235.4L523.043 283.408L520.068 285.132L436.918 237.125L439.893 235.4Z"
                fill="#24126A" />
            <path d="M444.83 232.552L527.98 280.56L525.021 282.268L441.871 234.261L444.83 232.552Z"
                fill="#24126A" />
            <path
                d="M449.782 229.704L532.932 277.695L529.958 279.42L446.807 231.413L449.782 229.704Z"
                fill="#24126A" />
        </g>
    </g>
    <path d="M441.032 195.336L449.181 200.052L449.434 198.627L441.269 193.928L441.032 195.336Z"
        fill="#017EFF" />
    <path d="M450.494 200.795L454.94 203.374L455.177 201.95L450.731 199.387L450.494 200.795Z"
        fill="#017EFF" />
    <path d="M461.855 207.362L465.067 209.213L465.304 207.805L462.092 205.938L461.855 207.362Z"
        fill="#017EFF" />
    <path d="M459.513 206.001L460.605 206.634L460.842 205.226L459.751 204.593L459.513 206.001Z"
        fill="#017EFF" />
    <path d="M456.27 204.134L458.263 205.289L458.501 203.865L456.507 202.71L456.27 204.134Z"
        fill="#017EFF" />
    <path d="M447.487 206.159L450.699 208.026L450.937 206.602L447.725 204.751L447.487 206.159Z"
        fill="#017EFF" />
    <path d="M439.94 201.807L446.238 205.447L446.475 204.023L440.177 200.383L439.94 201.807Z"
        fill="#017EFF" />
    <path d="M448.975 224.735L455.273 228.375L455.51 226.966L449.212 223.327L448.975 224.735Z"
        fill="#017EFF" />
    <path d="M445.731 222.868L447.725 224.023L447.963 222.599L445.969 221.46L445.731 222.868Z"
        fill="#017EFF" />
    <path d="M450.02 218.264L456.317 221.903L456.554 220.495L450.257 216.856L450.02 218.264Z"
        fill="#017EFF" />
    <path d="M446.775 216.397L448.769 217.552L449.022 216.128L447.029 214.973L446.775 216.397Z"
        fill="#017EFF" />
    <path d="M444.323 252.68L432.456 245.828L432.218 247.252L444.086 254.104L444.323 252.68Z"
        fill="#017EFF" />
    <path d="M448.5 255.1L445.573 253.407L445.335 254.815L448.263 256.508L448.5 255.1Z"
        fill="#017EFF" />
    <path d="M469.339 256.477L457.488 249.625L457.25 251.033L469.102 257.885L469.339 256.477Z"
        fill="#017EFF" />
    <path d="M473.517 258.898L470.589 257.189L470.352 258.613L473.279 260.306L473.517 258.898Z"
        fill="#017EFF" />
    <path d="M436.221 244.451L433.009 242.6L432.772 244.008L435.984 245.875L436.221 244.451Z"
        fill="#017EFF" />
    <path d="M455.779 248.644L452.567 246.793L452.313 248.201L455.526 250.068L455.779 248.644Z"
        fill="#017EFF" />
    <path d="M443.769 248.818L437.471 245.179L437.234 246.587L443.531 250.227L443.769 248.818Z"
        fill="#017EFF" />
    <path d="M446.997 250.685L445.003 249.53L444.766 250.954L446.76 252.094L446.997 250.685Z"
        fill="#017EFF" />
    <path d="M454.608 255.069L448.311 251.429L448.073 252.837L454.355 256.477L454.608 255.069Z"
        fill="#017EFF" />
    <path d="M457.836 256.935L455.842 255.78L455.605 257.204L457.599 258.359L457.836 256.935Z"
        fill="#017EFF" />
    <path d="M455.225 251.888L452.013 250.021L451.776 251.445L454.988 253.296L455.225 251.888Z"
        fill="#017EFF" />
    <path d="M462.773 256.239L456.475 252.6L456.238 254.024L462.535 257.647L462.773 256.239Z"
        fill="#017EFF" />
    <path d="M466.001 258.106L464.007 256.967L463.77 258.375L465.763 259.53L466.001 258.106Z"
        fill="#017EFF" />
    <path d="M440.13 243.17L433.547 239.356L433.31 240.781L439.892 244.578L440.13 243.17Z"
        fill="#017EFF" />
    <path d="M446.127 246.635L441.38 243.881L441.143 245.305L445.89 248.043L446.127 246.635Z"
        fill="#017EFF" />
    <path d="M450.589 249.214L447.377 247.347L447.14 248.771L450.352 250.623L450.589 249.214Z"
        fill="#017EFF" />
    <path d="M481.745 263.628L475.178 259.831L474.941 261.239L481.507 265.052L481.745 263.628Z"
        fill="#017EFF" />
    <path d="M487.757 267.094L482.995 264.357L482.757 265.765L487.504 268.518L487.757 267.094Z"
        fill="#017EFF" />
    <path d="M492.204 269.673L488.992 267.822L488.754 269.23L491.966 271.097L492.204 269.673Z"
        fill="#017EFF" />
    <path d="M479.181 220.906L485.764 224.72L486.001 223.296L479.418 219.498L479.181 220.906Z"
        fill="#017EFF" />
    <path d="M473.185 217.441L477.931 220.194L478.185 218.77L473.422 216.033L473.185 217.441Z"
        fill="#017EFF" />
    <path d="M468.722 214.862L471.934 216.729L472.172 215.305L468.96 213.453L468.722 214.862Z"
        fill="#017EFF" />
    <path d="M476.998 216.096L483.58 219.894L483.817 218.469L477.235 214.672L476.998 216.096Z"
        fill="#017EFF" />
    <path d="M471 212.615L475.763 215.368L476.001 213.96L471.238 211.207L471 212.615Z"
        fill="#017EFF" />
    <path d="M466.539 210.052L469.751 211.903L469.988 210.495L466.776 208.628L466.539 210.052Z"
        fill="#017EFF" />
    <path d="M450.462 222.062L452.678 223.359L452.915 221.935L450.7 220.653L450.462 222.062Z"
        fill="#017EFF" />
    <path d="M446.269 219.656L449.212 221.349L449.45 219.941L446.506 218.232L446.269 219.656Z"
        fill="#017EFF" />
    <path d="M440.715 239.957L434.148 236.144L433.911 237.568L440.478 241.366L440.715 239.957Z"
        fill="#017EFF" />
    <path d="M446.712 243.423L441.965 240.67L441.728 242.078L446.475 244.831L446.712 243.423Z"
        fill="#017EFF" />
    <path d="M451.175 246.002L447.962 244.135L447.725 245.559L450.937 247.41L451.175 246.002Z"
        fill="#017EFF" />
    <path d="M436.918 234.198L434.687 232.916L434.449 234.34L436.664 235.622L436.918 234.198Z"
        fill="#017EFF" />
    <path d="M441.095 236.619L438.152 234.926L437.915 236.334L440.858 238.027L441.095 236.619Z"
        fill="#017EFF" />
    <path d="M447.06 240.068L442.329 237.331L442.092 238.755L446.823 241.476L447.06 240.068Z"
        fill="#017EFF" />
    <path d="M453.469 213.153L455.7 214.435L455.937 213.027L453.722 211.745L453.469 213.153Z"
        fill="#017EFF" />
    <path d="M449.292 210.732L452.235 212.441L452.472 211.017L449.529 209.324L449.292 210.732Z"
        fill="#017EFF" />
    <path d="M443.326 207.283L448.057 210.02L448.295 208.596L443.564 205.875L443.326 207.283Z"
        fill="#017EFF" />
    <path d="M456.854 218.406L461.586 221.128L461.823 219.719L457.092 216.982L456.854 218.406Z"
        fill="#017EFF" />
    <path d="M449.117 214.182L455.494 217.868L455.731 216.46L449.37 212.773L449.117 214.182Z"
        fill="#017EFF" />
    <path d="M445.89 212.315L447.883 213.47L448.121 212.046L446.127 210.906L445.89 212.315Z"
        fill="#017EFF" />
    <path d="M442.772 210.51L444.766 211.665L445.003 210.257L443.01 209.102L442.772 210.51Z"
        fill="#017EFF" />
    <path d="M443.2 228.786L449.497 232.426L449.735 231.017L443.437 227.378L443.2 228.786Z"
        fill="#017EFF" />
    <path d="M439.971 226.919L441.965 228.074L442.202 226.65L440.209 225.495L439.971 226.919Z"
        fill="#017EFF" />
    <path d="M443.643 232.584L445.858 233.866L446.095 232.457L443.88 231.176L443.643 232.584Z"
        fill="#017EFF" />
    <path d="M451.475 230.004L453.69 231.286L453.943 229.862L451.712 228.58L451.475 230.004Z"
        fill="#017EFF" />
    <path d="M454.64 231.825L459.972 234.91L460.209 233.486L454.877 230.416L454.64 231.825Z"
        fill="#017EFF" />
    <path d="M460.921 235.448L464.086 237.283L464.323 235.859L461.159 234.023L460.921 235.448Z"
        fill="#017EFF" />
    <path d="M439.449 230.179L442.392 231.872L442.63 230.448L439.702 228.755L439.449 230.179Z"
        fill="#017EFF" />
    <path d="M439.18 233.501L441.395 234.783L441.633 233.359L439.418 232.077L439.18 233.501Z"
        fill="#017EFF" />
    <path d="M435.003 231.08L437.931 232.773L438.168 231.365L435.241 229.656L435.003 231.08Z"
        fill="#017EFF" />
    <path d="M448.247 228.138L450.241 229.293L450.494 227.869L448.5 226.729L448.247 228.138Z"
        fill="#017EFF" />
    <path d="M445.146 226.334L447.139 227.489L447.377 226.08L445.383 224.925L445.146 226.334Z"
        fill="#017EFF" />
    <path d="M460.462 210.099L467.266 214.023L467.504 212.615L460.7 208.675L460.462 210.099Z"
        fill="#017EFF" />
    <path d="M452.852 205.685L459.212 209.371L459.45 207.963L453.089 204.276L452.852 205.685Z"
        fill="#017EFF" />
    <path d="M449.608 203.817L451.602 204.972L451.839 203.548L449.845 202.409L449.608 203.817Z"
        fill="#017EFF" />
    <path d="M446.491 202.013L448.484 203.169L448.722 201.76L446.728 200.605L446.491 202.013Z"
        fill="#017EFF" />
    <path d="M444.798 201.033L440.494 198.549L440.731 197.14L445.035 199.625L444.798 201.033Z"
        fill="#017EFF" />
    <path style="mix-blend-mode:lighten"
        d="M234.552 412.837C242.09 409.617 245.59 400.896 242.37 393.358C239.15 385.82 230.429 382.319 222.891 385.539C215.353 388.759 211.852 397.481 215.072 405.019C218.292 412.557 227.014 416.057 234.552 412.837Z"
        fill="url(#paint19_radial_605_9243)" />
    <path
        d="M232.198 397.207C231.075 395.277 228.606 394.644 226.676 395.767C224.746 396.891 224.113 399.359 225.236 401.289C226.36 403.22 228.828 403.853 230.758 402.729C232.689 401.606 233.322 399.137 232.198 397.207Z"
        fill="url(#paint20_radial_605_9243)" />
    <path style="mix-blend-mode:lighten"
        d="M260.933 403.125C256.803 396.052 247.705 393.663 240.632 397.808C233.559 401.938 231.17 411.036 235.316 418.109C239.446 425.182 248.544 427.572 255.617 423.426C262.69 419.296 265.079 410.198 260.933 403.125Z"
        fill="url(#paint21_radial_605_9243)" />
    <path
        d="M248.133 414.644C250.361 414.644 252.167 412.837 252.167 410.609C252.167 408.381 250.361 406.574 248.133 406.574C245.904 406.574 244.098 408.381 244.098 410.609C244.098 412.837 245.904 414.644 248.133 414.644Z"
        fill="url(#paint22_radial_605_9243)" />
    <path style="mix-blend-mode:lighten"
        d="M360.525 393.318C367.889 389.718 370.941 380.83 367.341 373.466C363.742 366.101 354.853 363.049 347.489 366.649C340.125 370.249 337.073 379.137 340.673 386.501C344.273 393.866 353.161 396.918 360.525 393.318Z"
        fill="url(#paint23_radial_605_9243)" />
    <path
        d="M357.486 377.919C356.362 375.989 353.894 375.356 351.964 376.479C350.033 377.602 349.4 380.071 350.524 382.001C351.647 383.932 354.116 384.565 356.046 383.441C357.976 382.318 358.609 379.849 357.486 377.919Z"
        fill="url(#paint24_radial_605_9243)" />
    <path style="mix-blend-mode:lighten"
        d="M391.79 335.798C387.66 328.725 378.562 326.336 371.489 330.481C364.416 334.611 362.027 343.709 366.173 350.782C370.302 357.855 379.401 360.244 386.474 356.099C393.547 351.969 395.936 342.871 391.79 335.798Z"
        fill="url(#paint25_radial_605_9243)" />
    <path
        d="M382.47 341.257C381.347 339.326 378.878 338.693 376.948 339.817C375.018 340.94 374.385 343.409 375.508 345.339C376.632 347.269 379.1 347.902 381.03 346.779C382.961 345.655 383.594 343.187 382.47 341.257Z"
        fill="url(#paint26_radial_605_9243)" />
    <path style="mix-blend-mode:lighten"
        d="M368.958 322.332C364.828 315.259 355.73 312.87 348.657 317.015C341.584 321.161 339.194 330.243 343.34 337.316C347.47 344.389 356.568 346.779 363.641 342.633C370.714 338.503 373.103 329.405 368.958 322.332Z"
        fill="url(#paint27_radial_605_9243)" />
    <path
        d="M359.622 327.775C358.499 325.845 356.03 325.212 354.1 326.336C352.169 327.459 351.537 329.927 352.66 331.858C353.783 333.788 356.252 334.421 358.182 333.298C360.113 332.174 360.746 329.706 359.622 327.775Z"
        fill="url(#paint28_radial_605_9243)" />
    <path style="mix-blend-mode:lighten"
        d="M346.109 309.785C341.979 302.712 332.88 300.322 325.808 304.468C318.735 308.598 316.345 317.696 320.491 324.769C324.621 331.842 333.719 334.231 340.792 330.086C347.865 325.956 350.254 316.858 346.109 309.785Z"
        fill="url(#paint29_radial_605_9243)" />
    <path
        d="M336.789 315.243C335.666 313.313 333.197 312.68 331.267 313.804C329.336 314.927 328.704 317.395 329.827 319.326C330.95 321.256 333.419 321.889 335.349 320.766C337.28 319.642 337.913 317.174 336.789 315.243Z"
        fill="url(#paint30_radial_605_9243)" />
    <defs>
        <linearGradient id="paint0_linear_605_9243" x1="278.134" y1="221.266" x2="246.279"
            y2="166.092" gradientUnits="userSpaceOnUse">
            <stop stop-color="#42E8E0" />
            <stop offset="0.02" stop-color="#40DDD9" />
            <stop offset="0.11" stop-color="#36ADBC" />
            <stop offset="0.22" stop-color="#2E82A2" />
            <stop offset="0.32" stop-color="#275E8C" />
            <stop offset="0.43" stop-color="#21407A" />
            <stop offset="0.55" stop-color="#1D296C" />
            <stop offset="0.67" stop-color="#1A1962" />
            <stop offset="0.81" stop-color="#18105C" />
            <stop offset="1" stop-color="#180D5B" />
        </linearGradient>
        <linearGradient id="paint1_linear_605_9243" x1="-1919.77" y1="-972.929" x2="-1951.47"
            y2="-918.02" gradientUnits="userSpaceOnUse">
            <stop stop-color="#42E8E0" />
            <stop offset="0.02" stop-color="#40DDD9" />
            <stop offset="0.11" stop-color="#36ADBC" />
            <stop offset="0.22" stop-color="#2E82A2" />
            <stop offset="0.32" stop-color="#275E8C" />
            <stop offset="0.43" stop-color="#21407A" />
            <stop offset="0.55" stop-color="#1D296C" />
            <stop offset="0.67" stop-color="#1A1962" />
            <stop offset="0.81" stop-color="#18105C" />
            <stop offset="1" stop-color="#180D5B" />
        </linearGradient>
        <linearGradient id="paint2_linear_605_9243" x1="1879.28" y1="-665.057" x2="1911.13"
            y2="-609.895" gradientUnits="userSpaceOnUse">
            <stop stop-color="#42E8E0" />
            <stop offset="0.02" stop-color="#40DDD9" />
            <stop offset="0.11" stop-color="#36ADBC" />
            <stop offset="0.22" stop-color="#2E82A2" />
            <stop offset="0.32" stop-color="#275E8C" />
            <stop offset="0.43" stop-color="#21407A" />
            <stop offset="0.55" stop-color="#1D296C" />
            <stop offset="0.67" stop-color="#1A1962" />
            <stop offset="0.81" stop-color="#18105C" />
            <stop offset="1" stop-color="#180D5B" />
        </linearGradient>
        <linearGradient id="paint3_linear_605_9243" x1="170.441" y1="0.000324123" x2="326.267"
            y2="0.000324123" gradientUnits="userSpaceOnUse">
            <stop stop-color="#5761D7" />
            <stop offset="0.16" stop-color="#5E67D9" />
            <stop offset="0.41" stop-color="#7179E1" />
            <stop offset="0.69" stop-color="#9197EE" />
            <stop offset="1" stop-color="#BCBEFF" />
        </linearGradient>
        <linearGradient id="paint4_linear_605_9243" x1="214.54" y1="0.000420034" x2="308.07"
            y2="0.000420034" gradientUnits="userSpaceOnUse">
            <stop stop-color="#42E8E0" />
            <stop offset="0.15" stop-color="#42E3DF" />
            <stop offset="0.33" stop-color="#44D4DE" />
            <stop offset="0.52" stop-color="#48BDDD" />
            <stop offset="0.72" stop-color="#4D9BDA" />
            <stop offset="0.93" stop-color="#5471D8" />
            <stop offset="1" stop-color="#5761D7" />
        </linearGradient>
        <linearGradient id="paint5_linear_605_9243" x1="261.297" y1="234.182" x2="308.07"
            y2="234.182" gradientUnits="userSpaceOnUse">
            <stop stop-color="#42E8E0" />
            <stop offset="0.15" stop-color="#42E3DF" />
            <stop offset="0.33" stop-color="#44D4DE" />
            <stop offset="0.52" stop-color="#48BDDD" />
            <stop offset="0.72" stop-color="#4D9BDA" />
            <stop offset="0.93" stop-color="#5471D8" />
            <stop offset="1" stop-color="#5761D7" />
        </linearGradient>
        <linearGradient id="paint6_linear_605_9243" x1="214.54" y1="234.182" x2="261.297"
            y2="234.182" gradientUnits="userSpaceOnUse">
            <stop stop-color="#42E8E0" />
            <stop offset="0.15" stop-color="#42E3DF" />
            <stop offset="0.33" stop-color="#44D4DE" />
            <stop offset="0.52" stop-color="#48BDDD" />
            <stop offset="0.72" stop-color="#4D9BDA" />
            <stop offset="0.93" stop-color="#5471D8" />
            <stop offset="1" stop-color="#5761D7" />
        </linearGradient>
        <linearGradient id="paint7_linear_605_9243" x1="214.54" y1="244.277" x2="308.07"
            y2="244.277" gradientUnits="userSpaceOnUse">
            <stop stop-color="#42E8E0" />
            <stop offset="0.15" stop-color="#42E3DF" />
            <stop offset="0.33" stop-color="#44D4DE" />
            <stop offset="0.52" stop-color="#48BDDD" />
            <stop offset="0.72" stop-color="#4D9BDA" />
            <stop offset="0.93" stop-color="#5471D8" />
            <stop offset="1" stop-color="#5761D7" />
        </linearGradient>
        <linearGradient id="paint8_linear_605_9243" x1="261.297" y1="261.176" x2="308.07"
            y2="261.176" gradientUnits="userSpaceOnUse">
            <stop stop-color="#42E8E0" />
            <stop offset="0.15" stop-color="#42E3DF" />
            <stop offset="0.33" stop-color="#44D4DE" />
            <stop offset="0.52" stop-color="#48BDDD" />
            <stop offset="0.72" stop-color="#4D9BDA" />
            <stop offset="0.93" stop-color="#5471D8" />
            <stop offset="1" stop-color="#5761D7" />
        </linearGradient>
        <linearGradient id="paint9_linear_605_9243" x1="214.54" y1="261.176" x2="261.297"
            y2="261.176" gradientUnits="userSpaceOnUse">
            <stop stop-color="#42E8E0" />
            <stop offset="0.15" stop-color="#42E3DF" />
            <stop offset="0.33" stop-color="#44D4DE" />
            <stop offset="0.52" stop-color="#48BDDD" />
            <stop offset="0.72" stop-color="#4D9BDA" />
            <stop offset="0.93" stop-color="#5471D8" />
            <stop offset="1" stop-color="#5761D7" />
        </linearGradient>
        <linearGradient id="paint10_linear_605_9243" x1="193.622" y1="343.456" x2="193.622"
            y2="115.414" gradientUnits="userSpaceOnUse">
            <stop stop-color="#C0BFF6" />
            <stop offset="0.29" stop-color="#C4C3F6" />
            <stop offset="0.64" stop-color="#D2D2F9" />
            <stop offset="1" stop-color="#E9E9FD" />
        </linearGradient>
        <linearGradient id="paint11_linear_605_9243" x1="-299.995" y1="138.31" x2="-298.413"
            y2="64.4632" gradientUnits="userSpaceOnUse">
            <stop stop-color="#C0BFF6" />
            <stop offset="0.29" stop-color="#C4C3F6" />
            <stop offset="0.64" stop-color="#D2D2F9" />
            <stop offset="1" stop-color="#E9E9FD" />
        </linearGradient>
        <linearGradient id="paint12_linear_605_9243" x1="525.037" y1="233.074" x2="404.29"
            y2="233.074" gradientUnits="userSpaceOnUse">
            <stop stop-color="#C0BFF6" />
            <stop offset="0.29" stop-color="#C4C3F6" />
            <stop offset="0.64" stop-color="#D2D2F9" />
            <stop offset="1" stop-color="#E9E9FD" />
        </linearGradient>
        <linearGradient id="paint13_linear_605_9243" x1="525.037" y1="0.000111063" x2="504.292"
            y2="0.000111063" gradientUnits="userSpaceOnUse">
            <stop stop-color="#5761D7" />
            <stop offset="0.18" stop-color="#5B65D8" />
            <stop offset="0.39" stop-color="#6A72DE" />
            <stop offset="0.61" stop-color="#8188E8" />
            <stop offset="0.85" stop-color="#A2A6F5" />
            <stop offset="1" stop-color="#BCBEFF" />
        </linearGradient>
        <linearGradient id="paint14_linear_605_9243" x1="508.849" y1="298.835" x2="338.34"
            y2="298.835" gradientUnits="userSpaceOnUse">
            <stop stop-color="#5761D7" />
            <stop offset="0.18" stop-color="#5B65D8" />
            <stop offset="0.39" stop-color="#6A72DE" />
            <stop offset="0.61" stop-color="#8188E8" />
            <stop offset="0.85" stop-color="#A2A6F5" />
            <stop offset="1" stop-color="#BCBEFF" />
        </linearGradient>
        <linearGradient id="paint15_linear_605_9243" x1="451.554" y1="293.154" x2="280.949"
            y2="293.154" gradientUnits="userSpaceOnUse">
            <stop stop-color="#C0BFF6" />
            <stop offset="0.29" stop-color="#C4C3F6" />
            <stop offset="0.64" stop-color="#D2D2F9" />
            <stop offset="1" stop-color="#E9E9FD" />
        </linearGradient>
        <linearGradient id="paint16_linear_605_9243" x1="422.661" y1="302.838" x2="378.99"
            y2="302.838" gradientUnits="userSpaceOnUse">
            <stop stop-color="#C0BFF6" />
            <stop offset="0.29" stop-color="#C4C3F6" />
            <stop offset="0.64" stop-color="#D2D2F9" />
            <stop offset="1" stop-color="#E9E9FD" />
        </linearGradient>
        <linearGradient id="paint17_linear_605_9243" x1="516.745" y1="255.337" x2="346.141"
            y2="255.337" gradientUnits="userSpaceOnUse">
            <stop stop-color="#C0BFF6" />
            <stop offset="0.29" stop-color="#C4C3F6" />
            <stop offset="0.64" stop-color="#D2D2F9" />
            <stop offset="1" stop-color="#E9E9FD" />
        </linearGradient>
        <linearGradient id="paint18_linear_605_9243" x1="527.964" y1="242.821" x2="484.308"
            y2="242.821" gradientUnits="userSpaceOnUse">
            <stop stop-color="#C0BFF6" />
            <stop offset="0.29" stop-color="#C4C3F6" />
            <stop offset="0.64" stop-color="#D2D2F9" />
            <stop offset="1" stop-color="#E9E9FD" />
        </linearGradient>
        <radialGradient id="paint19_radial_605_9243" cx="0" cy="0" r="1"
            gradientUnits="userSpaceOnUse"
            gradientTransform="translate(228.773 399.248) rotate(-30.31) scale(14.842 14.8421)">
            <stop stop-color="#41E4DD" />
            <stop offset="0.06" stop-color="#38B7C2" />
            <stop offset="0.13" stop-color="#318FAA" />
            <stop offset="0.2" stop-color="#2A6C94" />
            <stop offset="0.27" stop-color="#244E82" />
            <stop offset="0.36" stop-color="#1F3674" />
            <stop offset="0.45" stop-color="#1C2368" />
            <stop offset="0.56" stop-color="#191660" />
            <stop offset="0.7" stop-color="#180F5C" />
            <stop offset="1" stop-color="#180D5B" />
        </radialGradient>
        <radialGradient id="paint20_radial_605_9243" cx="0" cy="0" r="1"
            gradientUnits="userSpaceOnUse"
            gradientTransform="translate(228.718 399.265) rotate(-30.3101) scale(4.03489 4.03489)">
            <stop stop-color="#42E8E0" />
            <stop offset="1" stop-color="#42E8E0" />
        </radialGradient>
        <radialGradient id="paint21_radial_605_9243" cx="0" cy="0" r="1"
            gradientUnits="userSpaceOnUse"
            gradientTransform="translate(248.141 410.638) rotate(-30.31) scale(14.8421 14.8421)">
            <stop stop-color="#41E4DD" />
            <stop offset="0.06" stop-color="#38B7C2" />
            <stop offset="0.13" stop-color="#318FAA" />
            <stop offset="0.2" stop-color="#2A6C94" />
            <stop offset="0.27" stop-color="#244E82" />
            <stop offset="0.36" stop-color="#1F3674" />
            <stop offset="0.45" stop-color="#1C2368" />
            <stop offset="0.56" stop-color="#191660" />
            <stop offset="0.7" stop-color="#180F5C" />
            <stop offset="1" stop-color="#180D5B" />
        </radialGradient>
        <radialGradient id="paint22_radial_605_9243" cx="0" cy="0" r="1"
            gradientUnits="userSpaceOnUse"
            gradientTransform="translate(248.141 410.637) rotate(-30.3098) scale(4.03489 4.03488)">
            <stop stop-color="#42E8E0" />
            <stop offset="1" stop-color="#42E8E0" />
        </radialGradient>
        <radialGradient id="paint23_radial_605_9243" cx="0" cy="0" r="1"
            gradientUnits="userSpaceOnUse"
            gradientTransform="translate(353.989 379.964) rotate(-30.31) scale(0.791155)">
            <stop stop-color="#41E4DD" />
            <stop offset="0.06" stop-color="#38B7C2" />
            <stop offset="0.13" stop-color="#318FAA" />
            <stop offset="0.2" stop-color="#2A6C94" />
            <stop offset="0.27" stop-color="#244E82" />
            <stop offset="0.36" stop-color="#1F3674" />
            <stop offset="0.45" stop-color="#1C2368" />
            <stop offset="0.56" stop-color="#191660" />
            <stop offset="0.7" stop-color="#180F5C" />
            <stop offset="1" stop-color="#180D5B" />
        </radialGradient>
        <radialGradient id="paint24_radial_605_9243" cx="0" cy="0" r="1"
            gradientUnits="userSpaceOnUse"
            gradientTransform="translate(354.023 379.972) rotate(-30.3101) scale(4.03489 4.03489)">
            <stop stop-color="#42E8E0" />
            <stop offset="1" stop-color="#42E8E0" />
        </radialGradient>
        <radialGradient id="paint25_radial_605_9243" cx="0" cy="0" r="1"
            gradientUnits="userSpaceOnUse"
            gradientTransform="translate(379.004 343.319) rotate(-30.31) scale(14.8421)">
            <stop stop-color="#41E4DD" />
            <stop offset="0.06" stop-color="#38B7C2" />
            <stop offset="0.13" stop-color="#318FAA" />
            <stop offset="0.2" stop-color="#2A6C94" />
            <stop offset="0.27" stop-color="#244E82" />
            <stop offset="0.36" stop-color="#1F3674" />
            <stop offset="0.45" stop-color="#1C2368" />
            <stop offset="0.56" stop-color="#191660" />
            <stop offset="0.7" stop-color="#180F5C" />
            <stop offset="1" stop-color="#180D5B" />
        </radialGradient>
        <radialGradient id="paint26_radial_605_9243" cx="0" cy="0" r="1"
            gradientUnits="userSpaceOnUse"
            gradientTransform="translate(379.004 343.319) rotate(-30.3101) scale(4.03489 4.03489)">
            <stop stop-color="#42E8E0" />
            <stop offset="1" stop-color="#42E8E0" />
        </radialGradient>
        <radialGradient id="paint27_radial_605_9243" cx="0" cy="0" r="1"
            gradientUnits="userSpaceOnUse"
            gradientTransform="translate(356.153 329.845) rotate(-30.31) scale(14.8421 14.8421)">
            <stop stop-color="#41E4DD" />
            <stop offset="0.06" stop-color="#38B7C2" />
            <stop offset="0.13" stop-color="#318FAA" />
            <stop offset="0.2" stop-color="#2A6C94" />
            <stop offset="0.27" stop-color="#244E82" />
            <stop offset="0.36" stop-color="#1F3674" />
            <stop offset="0.45" stop-color="#1C2368" />
            <stop offset="0.56" stop-color="#191660" />
            <stop offset="0.7" stop-color="#180F5C" />
            <stop offset="1" stop-color="#180D5B" />
        </radialGradient>
        <radialGradient id="paint28_radial_605_9243" cx="0" cy="0" r="1"
            gradientUnits="userSpaceOnUse"
            gradientTransform="translate(356.153 329.845) rotate(-30.31) scale(4.03488 4.03489)">
            <stop stop-color="#42E8E0" />
            <stop offset="1" stop-color="#42E8E0" />
        </radialGradient>
        <radialGradient id="paint29_radial_605_9243" cx="0" cy="0" r="1"
            gradientUnits="userSpaceOnUse"
            gradientTransform="translate(333.312 317.299) rotate(-30.31) scale(14.8421 14.8421)">
            <stop stop-color="#41E4DD" />
            <stop offset="0.06" stop-color="#38B7C2" />
            <stop offset="0.13" stop-color="#318FAA" />
            <stop offset="0.2" stop-color="#2A6C94" />
            <stop offset="0.27" stop-color="#244E82" />
            <stop offset="0.36" stop-color="#1F3674" />
            <stop offset="0.45" stop-color="#1C2368" />
            <stop offset="0.56" stop-color="#191660" />
            <stop offset="0.7" stop-color="#180F5C" />
            <stop offset="1" stop-color="#180D5B" />
        </radialGradient>
        <radialGradient id="paint30_radial_605_9243" cx="0" cy="0" r="1"
            gradientUnits="userSpaceOnUse"
            gradientTransform="translate(333.313 317.299) rotate(-30.31) scale(4.03488 4.03489)">
            <stop stop-color="#42E8E0" />
            <stop offset="1" stop-color="#42E8E0" />
        </radialGradient>
    </defs>
</svg>