<svg width="50" height="50" viewBox="0 0 50 50" fill="none" xmlns="http://www.w3.org/2000/svg">
<rect width="50" height="50" rx="25" fill="url(#paint0_linear_28_139)"/>
<path d="M26.4508 15.5088C25.5583 14.9713 24.4417 14.9713 23.5492 15.5088L22.9038 15.8974C21.3379 16.8403 19.5799 17.419 17.76 17.5904L17.3534 17.6287C16.5508 17.7043 15.9375 18.3782 15.9375 19.1843V21.2392C15.9375 24.7125 17.3476 28.0369 19.8448 30.451L23.914 34.3848C24.5196 34.9702 25.4804 34.9702 26.086 34.3848L30.1552 30.451C32.6524 28.0369 34.0625 24.7125 34.0625 21.2392V19.1843C34.0625 18.3782 33.4492 17.7043 32.6466 17.6287L32.24 17.5904C30.4201 17.419 28.6621 16.8403 27.0962 15.8974L26.4508 15.5088Z" fill="white"/>
<defs>
<linearGradient id="paint0_linear_28_139" x1="50" y1="0" x2="0" y2="50" gradientUnits="userSpaceOnUse">
<stop stop-color="#2290FC"/>
<stop offset="1" stop-color="#0673E8"/>
</linearGradient>
</defs>
</svg>
