<svg width="509" height="115" viewBox="0 0 509 115" fill="none" xmlns="http://www.w3.org/2000/svg">
<path d="M32.2904 81.9893C31.1863 81.9893 29.7352 81.8789 27.937 81.6581C26.1705 81.4373 24.2777 80.5225 22.2588 78.9136C19.7351 76.7369 18.4733 73.9136 18.4733 70.4435C18.4733 67.2574 19.6405 64.4498 21.9749 62.0208C25.0033 58.9293 29.1042 56.8472 34.2778 55.7747C37.9371 55.0176 43.016 54.2447 49.5145 53.4561C51.7542 52.9198 58.1423 52.3204 68.6786 51.6579C69.6565 51.6895 70.4452 52.0207 71.0445 52.6516C71.6755 53.2826 72.0225 54.0554 72.0856 54.9703C72.0856 55.9166 71.6755 56.5633 70.8553 56.9103C70.0351 57.2258 69.1518 57.3993 68.2054 57.4308C61.6439 58.0618 57.3536 58.5665 55.3347 58.9451C45.0823 60.2069 39.0885 61.0902 37.3535 61.5949C35.65 62.0681 33.8677 62.6359 32.0065 63.2984L31.7226 63.393L32.0065 63.2511L31.7226 63.393C30.7762 63.8347 29.7509 64.4025 28.6468 65.0965L28.1736 65.3804L28.3629 65.1911H28.4102L28.3629 65.2385C27.3219 66.2164 26.8014 66.7211 26.8014 66.7527C26.8014 66.7527 26.7383 66.8158 26.6121 66.9419C26.5175 67.0366 26.4702 67.0997 26.4702 67.1312V67.0839L26.6594 66.8473C26.5333 67.005 26.4386 67.1312 26.3755 67.2259C26.3124 67.3205 26.2336 67.4309 26.1389 67.5571C26.0443 67.6833 25.9181 67.8568 25.7604 68.0776C25.6342 68.2984 25.5711 68.4719 25.5711 68.5981L25.6184 68.5035V68.5508C25.5869 68.5508 25.5553 68.5823 25.5238 68.6454C25.5238 68.677 25.508 68.7401 25.4765 68.8347C25.4449 68.9293 25.4134 69.0397 25.3818 69.1659C25.3818 69.2606 25.3661 69.3552 25.3345 69.4498C25.303 69.5445 25.2714 69.6549 25.2399 69.7811C25.2399 69.8757 25.2241 69.9388 25.1926 69.9703H25.1452L25.1926 69.8757C25.1926 69.8442 25.1926 69.8126 25.1926 69.7811C25.2241 69.718 25.2556 69.6707 25.2872 69.6391C25.2556 69.6707 25.2399 69.8284 25.2399 70.1123C25.2399 70.7748 25.2556 71.1691 25.2872 71.2953L25.1926 70.8221C25.2872 71.0429 25.3345 71.2795 25.3345 71.5319L25.3818 71.7211C25.4765 72.1943 25.5869 72.5098 25.7131 72.6675L25.4765 72.3363V72.289C25.508 72.289 25.5238 72.3047 25.5238 72.3363C25.7131 72.5571 25.8235 72.7148 25.855 72.8095C25.9181 72.9041 25.9654 72.9672 25.997 72.9988C26.0285 73.0618 26.0443 73.1092 26.0443 73.1407C26.0758 73.2038 26.0916 73.2354 26.0916 73.2354C26.1232 73.2669 26.1862 73.3458 26.2809 73.4719C26.2493 73.4719 26.202 73.4246 26.1389 73.33C26.1074 73.2669 26.0916 73.2196 26.0916 73.188H26.0443C26.0758 73.188 26.0916 73.2038 26.0916 73.2354C26.1232 73.2669 26.1862 73.33 26.2809 73.4246L27.038 74.229C27.0695 74.229 27.0853 74.2448 27.0853 74.2764H27.038L26.9434 74.1817C26.8803 74.1502 26.8329 74.1186 26.8014 74.0871V74.0398H26.8487C26.9434 74.1344 27.4008 74.4026 28.221 74.8442L27.9844 74.7022H28.0317C28.1263 74.7969 28.2052 74.8442 28.2683 74.8442C28.5522 74.9388 28.8519 75.0177 29.1673 75.0808C29.5143 75.207 29.814 75.2701 30.0664 75.2701C30.0979 75.3016 30.1453 75.3174 30.2084 75.3174C30.303 75.3489 30.3661 75.3647 30.3976 75.3647L30.1137 75.3174C30.7762 75.3805 31.4386 75.412 32.1011 75.412L33.8992 75.3647C34.0254 75.3332 34.2462 75.3174 34.5617 75.3174L34.2305 75.3647L34.5144 75.2701C35.8393 75.1123 37.385 74.7338 39.1516 74.1344L39.6721 73.8978C39.5775 73.9609 39.4986 73.9925 39.4355 73.9925L39.8614 73.8032H39.956L41.281 73.1407C42.1012 72.7306 42.7479 72.3363 43.221 71.9577L43.6469 71.6265H43.6942L43.4576 71.8158C44.0255 71.3741 44.893 70.5697 46.0602 69.4025L46.2495 69.1659L46.0602 69.4025H46.0129L46.1548 69.2606C46.7857 68.3457 47.2905 67.5098 47.669 66.7527L47.5744 66.9893L47.9529 65.9009C48.1107 65.3962 48.2368 64.8915 48.3315 64.3867L48.3788 64.0082L48.4261 63.9609L48.3788 64.0082V64.2921C48.4419 63.7558 48.4734 63.2826 48.4734 62.8725C48.4734 62.6202 48.4577 62.3836 48.4261 62.1627V61.6422L48.3788 61.453L48.4261 61.6422C48.3946 61.6107 48.3788 61.5003 48.3788 61.311C48.1264 60.1753 47.9056 59.434 47.7163 59.087L47.811 59.2763L47.7637 59.229C47.7637 59.0712 47.4797 58.5192 46.9119 57.5728C46.6911 57.2573 46.5491 57.0523 46.486 56.9577C46.423 56.863 46.3756 56.7999 46.3441 56.7684C46.3125 56.7368 46.2968 56.7053 46.2968 56.6737L46.3441 56.7211C46.3441 56.7526 46.3599 56.7842 46.3914 56.8157C46.423 56.8157 46.4545 56.8315 46.486 56.863L46.3441 56.8157C44.8614 55.2384 43.2841 53.7715 41.6122 52.415C38.016 49.6706 35.0033 46.4371 32.5743 42.7147C30.1137 38.8661 28.8046 34.6862 28.6468 30.1752C28.6468 25.9796 29.7825 22.1467 32.0538 18.6767C34.3251 15.2066 37.3535 12.5568 41.139 10.7271C44.2936 9.21291 47.4482 8.45581 50.6028 8.45581C54.8615 8.45581 58.3315 9.84383 61.0129 12.6199C63.1265 14.8596 64.1833 17.6199 64.1833 20.9007C64.1833 26.9259 59.9404 33.4875 51.4545 40.5853C44.7352 46.169 37.2431 50.475 28.9781 53.5034C20.7446 56.5318 12.2272 58.2353 3.42587 58.6138C2.47949 58.6138 1.69084 58.2984 1.05993 57.6674C0.429008 57.005 0.0820027 56.2163 0.0189108 55.3015C0.0189108 54.3551 0.365916 53.5822 1.05993 52.9829C1.72239 52.3835 2.51104 52.0523 3.42587 51.9892C5.60254 51.8945 7.76343 51.721 9.90856 51.4687L10.1452 51.4213L9.95587 51.4687L10.0505 51.4213H10.2398C10.4922 51.3583 10.7445 51.3267 10.9969 51.3267L15.5395 50.475C19.8928 49.5601 23.9307 48.3772 27.6531 46.9261L28.3629 46.6421C28.4891 46.6106 28.5837 46.5791 28.6468 46.5475C28.7415 46.516 28.8046 46.5002 28.8361 46.5002C28.8992 46.4686 28.9465 46.4371 28.9781 46.4055C29.0096 46.374 29.0412 46.3582 29.0727 46.3582L30.161 45.885C34.5775 44.0554 39.0097 41.5475 43.4576 38.3613C43.6154 38.2667 43.7573 38.1721 43.8835 38.0774C44.0097 37.9512 44.1359 37.8408 44.2621 37.7462L44.3567 37.6989C44.3252 37.7304 44.2936 37.762 44.2621 37.7935C44.2305 37.7935 44.199 37.8093 44.1674 37.8408V37.8882L44.5933 37.5096C45.2242 37.068 46.2652 36.2162 47.7163 34.9544C49.8615 33.0616 52.0066 30.8692 54.1517 28.3771L54.0097 28.519L54.199 28.2824C54.199 28.2509 54.2148 28.2351 54.2463 28.2351C54.4041 27.9827 54.5776 27.7461 54.7669 27.5253C55.5555 26.4212 56.1391 25.4433 56.5176 24.5915L56.8016 24.071C56.77 24.1657 56.7542 24.2288 56.7542 24.2603C56.7542 24.2603 56.7385 24.2603 56.7069 24.2603L56.7542 24.1657C56.7542 24.1341 56.7542 24.1026 56.7542 24.071C56.7858 24.0079 56.8016 23.9606 56.8016 23.9291C56.8331 23.866 56.8647 23.8187 56.8962 23.7871L57.3221 22.2729C57.3221 22.1783 57.3536 22.0521 57.4167 21.8944V21.7051L57.464 22.0836L57.4167 21.7524C57.4167 21.5631 57.4325 21.3896 57.464 21.2319C57.4956 21.0426 57.5113 20.8376 57.5113 20.6168C57.5113 20.3959 57.464 20.2224 57.3694 20.0963C57.4009 20.0963 57.4167 20.112 57.4167 20.1436C57.4167 20.1751 57.4325 20.2067 57.464 20.2382V20.4748L57.1801 19.2445L56.9435 18.582L57.0855 18.8186L56.4703 17.683C56.4388 17.683 56.4072 17.6672 56.3757 17.6357C56.3757 17.5726 56.3441 17.5253 56.2811 17.4937C56.2495 17.4306 56.218 17.3833 56.1864 17.3518C56.1864 17.3202 56.1864 17.2887 56.1864 17.2571L56.3757 17.541C55.9971 17.0363 55.6975 16.7208 55.4766 16.5947L55.2874 16.3581H55.3347L55.5713 16.5473H55.4766C55.2874 16.3581 54.8142 16.0899 54.0571 15.7429L53.9624 15.6483H53.7732V15.601L54.0097 15.6956L53.6312 15.601C53.3157 15.4748 53.0003 15.3801 52.6848 15.317C52.4009 15.254 52.1801 15.1909 52.0224 15.1278H52.0697C52.1012 15.1593 52.1643 15.1751 52.2589 15.1751C52.2589 15.2066 52.2116 15.2224 52.117 15.2224C51.5492 15.1593 50.9813 15.1278 50.4135 15.1278C49.8772 15.1278 49.341 15.1593 48.8047 15.2224L48.9466 15.1751H49.1359L48.8047 15.2224C47.5113 15.4748 46.2179 15.8218 44.9245 16.2634L44.8299 16.3107L45.0192 16.1688H45.1138C45.1138 16.2003 45.098 16.2161 45.0665 16.2161L44.546 16.4527C43.3472 17.0521 42.3693 17.6199 41.6122 18.1562L41.281 18.4401V18.3928L41.4229 18.2981L41.0444 18.6294C40.0034 19.4811 39.2463 20.2224 38.7731 20.8534L38.4892 21.1846L38.7258 20.9007L38.6311 21.0426C38.4418 21.2319 38.1737 21.6105 37.8267 22.1783C37.0696 23.4086 36.6122 24.2445 36.4544 24.6862L36.5964 24.3076C36.3125 25.0332 36.0759 25.743 35.8866 26.437L35.5081 28.1405L35.5554 27.7619C35.5554 27.9196 35.5396 28.0301 35.5081 28.0931L35.4607 29.7493C35.4607 30.948 35.5081 31.7367 35.6027 32.1152C35.5712 32.1152 35.5554 32.0206 35.5554 31.8313L35.5081 31.784L35.5554 31.8787C35.5554 32.0364 35.5869 32.1783 35.65 32.3045C35.8393 33.5979 36.2494 34.9859 36.8803 36.4686L36.7857 36.232C36.7857 36.2635 36.8015 36.3109 36.833 36.3739C36.8645 36.4055 36.8803 36.4528 36.8803 36.5159L37.2589 37.273C37.9213 38.5979 38.7731 39.9544 39.8141 41.3424L39.8614 41.4371C39.8614 41.5002 39.9245 41.5633 40.0507 41.6263L40.1453 41.8156L40.0034 41.6263C41.5176 43.5191 43.505 45.4276 45.9655 47.3519C47.8267 48.7399 49.5302 50.2857 51.076 51.9892C53.8205 55.2384 55.1927 58.8662 55.1927 62.8725C55.1927 63.6927 55.1296 64.5445 55.0034 65.4277C54.1833 69.8757 52.0066 73.5035 48.4734 76.3111C43.71 80.0966 38.3157 81.9893 32.2904 81.9893ZM73.3405 72.6202C70.0597 72.6202 67.7884 71.0902 66.5265 68.0303C66.0849 66.7684 65.8641 65.4593 65.8641 64.1028C65.8641 60.4119 66.9209 55.9955 69.0344 50.8535C71.0849 45.2068 73.6559 39.8125 76.7474 34.6705C77.473 33.5664 78.4351 33.0143 79.6339 33.0143C80.2332 33.0143 80.8168 33.1563 81.3847 33.4402C82.5203 34.1026 83.0881 35.1121 83.0881 36.4686C83.0881 37.0364 82.9304 37.5885 82.615 38.1247C81.0377 40.68 79.6023 43.3298 78.3089 46.0743C77.6149 47.557 76.6843 49.8283 75.5171 52.8882C74.2868 56.169 73.4509 58.8346 73.0092 60.8851L72.9619 61.2164C72.8988 61.4687 72.8673 61.6738 72.8673 61.8315L72.7726 62.6832L72.7253 64.434L72.7726 65.2385L72.7253 64.8599C72.7569 64.9545 72.7726 65.0176 72.7726 65.0492C72.7726 65.0807 72.7884 65.2069 72.8199 65.4277C72.883 65.617 72.9461 65.7905 73.0092 65.9482C72.9461 65.8221 72.9146 65.7432 72.9146 65.7116C72.9146 65.6801 72.9146 65.6486 72.9146 65.617L73.1512 66.0902L72.9146 65.8063L73.1039 65.9956L72.8673 65.8063L72.7726 65.759L73.0565 65.8536L73.3405 65.9009L72.9619 65.8536L73.7663 65.8063L73.4824 65.9009C73.4824 65.8694 73.5613 65.8378 73.719 65.8063C73.8767 65.7747 73.9714 65.759 74.0029 65.759V65.7116L74.76 65.4751C74.76 65.4435 74.7758 65.4277 74.8073 65.4277L75.5644 65.0492C76.9209 64.3236 78.1985 63.5034 79.3973 62.5886L79.1607 62.7779L79.4446 62.5413C79.9178 62.1627 80.391 61.7526 80.8642 61.311C84.6497 57.9356 88.0566 54.3393 91.085 50.5223C94.1134 46.6737 97.0472 42.7147 99.8863 38.6453C100.707 37.5411 101.669 36.9891 102.773 36.9891C103.341 36.9891 103.94 37.131 104.571 37.415C105.643 38.0459 106.18 39.008 106.18 40.3014C106.18 40.9008 106.054 41.5002 105.801 42.0995C105.36 43.0459 104.934 44.0081 104.524 44.986L104.098 45.9324L104.05 46.1216L103.861 46.5475C103.861 46.6737 103.83 46.7368 103.766 46.7368C103.041 48.4403 102.237 50.5696 101.353 53.1248C100.344 55.9955 99.634 58.6927 99.2239 61.2164C99.1923 61.2479 99.1766 61.3268 99.1766 61.453C99.1766 61.5476 99.1608 61.658 99.1292 61.7842C99.0977 61.8788 99.0819 61.9419 99.0819 61.9735V61.8315C99.0504 62.2731 99.0346 62.7306 99.0346 63.2037V63.7716C99.0346 63.6454 99.0188 63.5823 98.9873 63.5823C98.9873 63.5508 99.0031 63.535 99.0346 63.535V63.6296C99.0346 63.7243 99.0346 63.7873 99.0346 63.8189C99.0661 63.8189 99.0819 63.8347 99.0819 63.8662L99.2239 64.434L99.1292 64.1028C99.2239 64.2605 99.2712 64.3552 99.2712 64.3867C99.2712 64.4183 99.3185 64.4814 99.4132 64.576L99.5551 64.718L99.3185 64.5287C99.3501 64.5602 99.3816 64.5918 99.4132 64.6233C99.4762 64.6233 99.5078 64.6391 99.5078 64.6706C99.4762 64.6706 99.4447 64.6706 99.4132 64.6706C99.3816 64.6391 99.3343 64.6233 99.2712 64.6233C99.2396 64.6233 99.2239 64.6075 99.2239 64.576L99.4132 64.6233H99.1292H99.4132H99.1292C99.2554 64.5918 99.3185 64.576 99.3185 64.576C99.3501 64.576 99.3974 64.576 99.4605 64.576C99.5236 64.576 99.5867 64.5445 99.6497 64.4814H99.7444L99.5078 64.576C100.675 64.0082 102.252 62.9829 104.24 61.5003C104.429 61.3741 104.524 61.2952 104.524 61.2637C104.555 61.2321 104.602 61.2006 104.666 61.169C104.729 61.1375 104.776 61.1059 104.808 61.0744L104.666 61.169C107.315 59.2447 110.296 56.2952 113.609 52.3204C113.609 52.2258 113.656 52.1311 113.751 52.0365L113.893 51.9419L113.751 52.1311L113.845 51.9419C113.909 51.8157 113.972 51.7526 114.035 51.7526L115.407 49.7652C116.227 48.6926 117.174 48.1563 118.246 48.1563C118.814 48.1563 119.429 48.2983 120.092 48.5822C121.227 49.2131 121.795 50.2068 121.795 51.5633C121.795 52.1311 121.621 52.6832 121.274 53.2195C117.647 58.6454 113.073 63.393 107.552 67.4624L107.363 67.6044C104.177 70.0965 101.511 71.3426 99.3658 71.3426C97.8201 71.3426 96.3532 70.8063 94.9652 69.7338C93.1671 68.0303 92.2522 65.9325 92.2207 63.4403C92.2207 61.2637 92.5361 59.1028 93.1671 56.9577V56.863C94.3027 52.2889 96.4952 46.3267 99.7444 38.9765C99.8075 38.8818 99.8548 38.7714 99.8863 38.6453C101.874 39.7809 103.845 40.9323 105.801 42.0995C96.9683 54.8125 88.9715 63.8504 81.8105 69.2132C79.76 70.7905 77.4887 71.8789 74.9966 72.4782C74.4288 72.5729 73.8767 72.6202 73.3405 72.6202ZM105.731 107.589C104.406 107.589 103.46 107.021 102.892 105.885C102.608 105.318 102.466 104.734 102.466 104.135C102.466 103.851 102.498 103.567 102.561 103.283C105.778 88.0462 109.611 72.9988 114.059 58.1406C117.214 47.5097 119.596 39.3393 121.204 33.6295C121.457 32.7146 121.977 32.0364 122.766 31.5947C123.302 31.3108 123.886 31.1689 124.517 31.1689C125.842 31.1689 126.804 31.7367 127.403 32.8724C127.687 33.4086 127.829 33.9765 127.829 34.5758C127.829 34.8597 127.798 35.1594 127.734 35.4749C127.167 37.5885 125.242 44.1342 121.962 55.1122C116.725 72.8726 112.435 89.5288 109.091 105.081C108.87 106.027 108.349 106.706 107.529 107.116C106.961 107.431 106.362 107.589 105.731 107.589ZM123.76 75.1281C121.488 75.1281 119.438 74.3552 117.608 72.8095C115.873 71.3584 115.006 69.5603 115.006 67.4151C115.006 65.3331 115.905 63.4246 117.703 61.6895C120.163 59.2921 123.223 57.3204 126.883 55.7747C132.246 53.945 137.151 52.6359 141.599 51.8472C146.078 51.027 151.552 49.9229 158.019 48.5349C158.933 48.3141 159.69 48.5507 160.29 49.2447C160.921 49.9071 161.252 50.6958 161.284 51.6106C161.315 52.5885 160.984 53.393 160.29 54.0239C159.627 54.6233 158.839 54.9387 157.924 54.9703C154.643 55.8851 150.211 56.8946 144.627 57.9987L142.451 58.4245C139.328 59.087 136.962 59.6233 135.353 60.0334C133.775 60.4435 132.198 60.9482 130.621 61.5476L130.526 61.5949C130.337 61.6895 130.195 61.7526 130.1 61.7842C130.037 61.7842 129.99 61.8 129.958 61.8315C129.99 61.8 130.069 61.7684 130.195 61.7369L129.627 61.9735C127.451 62.9514 125.479 64.1028 123.712 65.4277L123.618 65.4751C123.618 65.5066 123.492 65.6328 123.239 65.8536C122.987 66.0429 122.734 66.2637 122.482 66.5161L122.151 66.8473L122.104 66.8946L122.293 66.7053L121.772 67.4151L121.914 67.1312L121.772 67.6517L121.82 67.3678V67.6044L121.772 67.2259L121.82 67.6517V67.4624L122.056 67.7937L121.772 67.5098C121.962 67.7621 122.088 67.8883 122.151 67.8883C122.245 67.983 122.293 68.046 122.293 68.0776H122.34L122.104 67.8883L122.624 68.1722H122.435L122.908 68.2669L123.286 68.3142C123.286 68.3457 123.192 68.3615 123.003 68.3615L123.05 68.3142H123.381H124.375L124.138 68.3615C124.958 68.2038 125.763 67.983 126.551 67.699L127.309 67.4151L127.214 67.4624L126.977 67.5571L127.309 67.4151C129.264 66.4372 130.873 65.4751 132.135 64.5287L131.851 64.718L131.899 64.6706C131.962 64.6706 132.088 64.576 132.277 64.3867C133.981 62.9672 135.305 61.5949 136.252 60.27C136.189 60.3962 136.141 60.4593 136.11 60.4593L136.678 59.7022C137.813 58.0618 138.744 56.3741 139.47 54.639L139.328 55.0176C139.328 54.986 139.328 54.9545 139.328 54.9229C139.359 54.8914 139.391 54.8283 139.422 54.7337C139.485 54.639 139.659 54.1816 139.943 53.3614C140.416 51.9103 140.731 50.6485 140.889 49.5759C140.921 49.3235 140.968 49.1027 141.031 48.9134L141.078 48.7715L141.031 49.0554C141.189 47.9828 141.268 46.9103 141.268 45.8377C141.268 45.1753 141.22 44.5128 141.126 43.8503C141.094 43.5349 141.078 43.2667 141.078 43.0459V42.762V42.904L141.126 43.1405L140.842 41.9103L140.416 40.0648L140.511 40.1121V40.2541C140.479 40.2541 140.432 40.2225 140.369 40.1595C140.337 40.0964 140.29 40.0017 140.227 39.8755C140.164 39.7494 140.1 39.6389 140.037 39.5443C140.1 39.6074 140.132 39.6547 140.132 39.6863C140.164 39.6863 140.179 39.702 140.179 39.7336L140.132 39.6863C140.069 39.6863 140.006 39.6389 139.943 39.5443C139.88 39.4497 139.832 39.3866 139.801 39.355L139.848 39.4024L139.138 39.0238H139.28L139.375 39.1184L139.186 39.0711C138.965 39.008 138.744 38.9607 138.523 38.9292C138.334 38.8976 138.223 38.8661 138.192 38.8345H138.097C138.192 38.8661 138.302 38.8818 138.429 38.8818H137.056C136.962 38.8818 136.82 38.8818 136.63 38.8818L136.82 38.8345C136.189 38.9292 135.511 39.1027 134.785 39.355L133.933 39.6389L134.217 39.497C134.217 39.5916 134.028 39.7336 133.649 39.9229C132.514 40.4907 131.772 40.9008 131.425 41.1532L131.141 41.3424L131.378 41.1532C129.738 42.5727 128.665 43.6137 128.16 44.2762L127.924 44.6074L127.971 44.5601C127.971 44.5286 127.987 44.5128 128.018 44.5128C128.05 44.4812 128.081 44.4497 128.113 44.4182V44.3708L127.025 45.9324C125.731 47.8251 124.17 50.7431 122.34 54.6864C121.804 55.822 120.857 56.3898 119.501 56.3898C118.87 56.3898 118.286 56.2321 117.75 55.9166C116.678 55.3173 116.141 54.3393 116.141 52.9829C116.141 51.6895 117.577 48.5507 120.447 43.5664C123.57 38.2036 127.813 34.5758 133.176 32.6831C134.564 32.2099 135.952 31.9733 137.34 31.9733C138.728 31.9733 140.1 32.2414 141.457 32.7777C144.485 33.9134 146.41 36.0427 147.23 39.1658C147.766 41.1847 148.034 43.251 148.034 45.3645C148.034 49.9387 147.119 54.2763 145.29 58.3772C142.608 64.4025 138.334 69.1186 132.466 72.5256C129.501 74.2606 126.599 75.1281 123.76 75.1281ZM166.561 72.289C164.447 72.289 162.318 71.8158 160.172 70.8694C158.027 69.923 156.34 68.3457 155.109 66.1375C154.195 64.2448 153.737 62.3047 153.737 60.3173C153.737 57.4466 154.526 54.3393 156.103 50.9955C158.122 46.7683 160.74 42.9513 163.958 39.5443C167.617 35.5064 171.608 33.4244 175.93 33.2982C178.043 33.2982 180.062 33.8187 181.986 34.8597C183.942 35.9008 185.409 37.3834 186.387 39.3077C186.987 40.6957 187.286 42.0522 187.286 43.3771C187.286 46.5633 185.756 49.5917 182.696 52.4624C178.69 56.0901 174.021 57.904 168.69 57.904C165.504 57.904 162.444 57.1627 159.51 55.68C158.406 55.0807 157.854 54.1028 157.854 52.7463C157.854 52.1469 157.996 51.5633 158.28 50.9955C158.911 49.9229 159.889 49.3866 161.213 49.3866C161.781 49.3866 162.491 49.5917 163.343 50.0018L163.863 50.2384C163.832 50.2384 163.8 50.2384 163.769 50.2384C163.737 50.2384 163.69 50.2226 163.627 50.1911C163.564 50.1595 163.532 50.128 163.532 50.0964L163.911 50.2384C164.573 50.5538 165.346 50.7747 166.229 50.9008C166.419 50.9955 166.671 51.0428 166.986 51.0428L166.655 50.9955C166.813 51.0586 167.444 51.0901 168.548 51.0901C169.62 51.0901 170.346 51.0586 170.725 50.9955C170.567 51.0586 170.456 51.0901 170.393 51.0901H170.346L170.677 50.9955C170.74 50.9955 170.788 50.9797 170.819 50.9482C172.333 50.6958 173.501 50.3646 174.321 49.9545L173.942 50.0964C174.479 49.9071 175.109 49.5917 175.835 49.15C176.561 48.7084 176.971 48.4403 177.065 48.3456L177.302 48.1563L177.018 48.3929L177.207 48.251C178.564 46.8945 179.242 46.2163 179.242 46.2163L179.384 46.027L179.195 46.3109V46.2163C179.321 46.027 179.415 45.9008 179.479 45.8377C179.542 45.7431 179.605 45.6327 179.668 45.5065C179.826 45.2857 179.952 45.0806 180.046 44.8913C180.173 44.6705 180.236 44.5601 180.236 44.5601C180.236 44.5286 180.251 44.497 180.283 44.4655L180.188 44.6548L180.472 43.803L180.52 43.5191V42.904L180.567 42.8566L180.614 42.904C180.614 42.9355 180.614 42.967 180.614 42.9986C180.614 43.0301 180.63 43.0617 180.662 43.0932C180.662 43.1563 180.646 43.1879 180.614 43.1879C180.583 43.1563 180.551 43.109 180.52 43.0459C180.52 42.9828 180.504 42.9197 180.472 42.8566C180.472 42.7935 180.457 42.7304 180.425 42.6674C180.393 42.6043 180.378 42.5412 180.378 42.4781C180.378 42.415 180.393 42.3834 180.425 42.3834L180.567 42.7147L180.425 42.5727C180.299 42.3204 180.22 42.1942 180.188 42.1942C180.188 42.1626 180.173 42.1153 180.141 42.0522C180.109 41.9891 180.046 41.8945 179.952 41.7683L180.188 42.0049L179.195 41.0585L179.526 41.3424L178.059 40.4434V40.3961L178.39 40.6326L178.012 40.4434C177.318 40.2541 176.892 40.1595 176.734 40.1595C176.608 40.1279 176.545 40.0964 176.545 40.0648L176.592 40.0175L176.923 40.1595C176.797 40.0964 176.639 40.0648 176.45 40.0648C176.261 40.0648 176.087 40.0806 175.93 40.1121H175.504C175.315 40.1121 175.22 40.1279 175.22 40.1595C175.22 40.0964 175.33 40.0648 175.551 40.0648C175.488 40.1279 175.283 40.191 174.936 40.2541C174.589 40.3172 174.289 40.3961 174.037 40.4907C173.816 40.5853 173.611 40.6642 173.422 40.7273L173.706 40.5853L173.422 40.7273C172.507 41.232 171.923 41.5633 171.671 41.721L171.34 41.9576L171.198 42.0995C171.198 42.068 171.229 42.0364 171.292 42.0049C171.356 41.9733 171.403 41.9418 171.434 41.9103L169.636 43.5191C168.816 44.3077 167.885 45.3488 166.844 46.6421L166.608 46.9261H166.655C166.655 46.863 166.702 46.7841 166.797 46.6895L166.324 47.3519C164.967 49.1185 163.611 51.2794 162.255 53.8346L162.113 54.2605C161.986 54.4498 161.923 54.5917 161.923 54.6864L161.971 54.4971C161.371 55.9482 160.945 57.3993 160.693 58.8504L160.646 59.1343L160.693 58.8977C160.63 59.434 160.598 59.9703 160.598 60.5066V61.1217C160.598 61.4687 160.709 61.9735 160.93 62.6359C160.93 62.5413 160.914 62.4624 160.882 62.3993L161.072 62.8252C161.166 63.0776 161.34 63.3299 161.592 63.5823L161.355 63.3457C161.608 63.6296 161.876 63.882 162.16 64.1028L162.349 64.3394C162.349 64.3079 162.333 64.2921 162.302 64.2921C162.302 64.2605 162.239 64.1974 162.113 64.1028L162.964 64.6706C163.09 64.7022 163.201 64.7495 163.296 64.8126C163.39 64.8757 163.453 64.923 163.485 64.9545C163.516 64.9545 163.532 64.9703 163.532 65.0019L163.437 64.9072C163.311 64.8757 163.248 64.8441 163.248 64.8126C164.131 65.0965 164.589 65.2385 164.62 65.2385C164.684 65.2385 164.778 65.2542 164.904 65.2858C165.031 65.3173 165.125 65.3489 165.188 65.3804C165.251 65.3804 165.299 65.3804 165.33 65.3804H165.141C165.709 65.4435 166.292 65.4751 166.892 65.4751L168.595 65.3331H168.501L169.447 65.1911C171.497 64.718 173.374 64.1817 175.078 63.5823L176.545 63.0145L177.113 62.7779C177.081 62.8094 177.034 62.8252 176.971 62.8252C176.939 62.8252 176.908 62.8567 176.876 62.9198C176.876 62.8883 176.971 62.841 177.16 62.7779C179.873 61.5791 182.728 59.5917 185.725 56.8157C188.722 54.0081 190.914 51.9103 192.302 50.5223C192.996 49.8598 193.8 49.5286 194.715 49.5286C195.599 49.5601 196.371 49.8914 197.034 50.5223C197.728 51.1532 198.075 51.9103 198.075 52.7936C198.075 52.8567 198.059 53.1248 198.028 53.598C198.028 54.0712 197.712 54.6548 197.081 55.3488C190.583 62.9198 183.422 68.0145 175.598 70.6328C172.318 71.7369 169.305 72.289 166.561 72.289ZM191.522 73.0461C191.081 73.0461 190.655 72.9514 190.245 72.7622C188.857 72.1628 188.163 71.1218 188.163 69.6391C188.163 69.3552 188.194 69.0555 188.257 68.7401L196.822 32.2099C197.074 31.2951 197.611 30.6168 198.431 30.1752C198.999 29.8913 199.582 29.7493 200.182 29.7493C201.506 29.7493 202.469 30.3171 203.068 31.4528C203.352 32.0206 203.494 32.6042 203.494 33.2036C203.494 33.6137 200.607 46.0585 194.834 70.5382L188.588 67.9356C191.017 62.4151 193.715 57.0523 196.68 51.8472C199.393 47.0522 202.626 42.6674 206.38 38.6926C209.913 34.9071 213.163 32.5884 216.128 31.7367C216.759 31.5474 217.406 31.4528 218.068 31.4528C219.33 31.4528 220.608 31.8156 221.901 32.5411C223.478 33.5506 224.503 34.9544 224.977 36.7525C225.134 37.5096 225.245 38.2667 225.308 39.0238L225.402 39.8282L225.355 39.6389L225.402 40.0648C225.655 41.0112 225.813 41.5633 225.876 41.721C225.939 41.8472 225.97 41.9576 225.97 42.0522L225.923 41.8629L226.585 43.1879L227.295 44.2289L227.106 43.9923C227.958 44.844 228.462 45.333 228.62 45.4592L228.715 45.6011L228.667 45.5538C228.667 45.5223 228.636 45.5065 228.573 45.5065C228.541 45.4749 228.51 45.4592 228.478 45.4592C228.478 45.4276 228.462 45.4119 228.431 45.4119V45.3645C228.462 45.3645 228.478 45.3803 228.478 45.4119C228.478 45.4119 228.51 45.4276 228.573 45.4592C228.636 45.4907 228.699 45.5538 228.762 45.6484C228.857 45.7115 229.503 46.0901 230.702 46.7841C231.459 47.1942 231.854 47.3992 231.885 47.3992H231.98L231.885 47.3046C231.791 47.2731 231.68 47.2573 231.554 47.2573C231.649 47.2573 231.727 47.2888 231.791 47.3519C231.885 47.3835 231.964 47.3992 232.027 47.3992C232.437 47.557 232.847 47.6674 233.257 47.7305L233.825 47.8724H233.967C233.809 47.8724 233.715 47.8567 233.683 47.8251H233.636H233.778C235.04 47.9513 236.286 48.0144 237.516 48.0144C238.494 48.0459 239.298 48.3929 239.929 49.0554C240.592 49.7179 240.923 50.5538 240.923 51.5633C240.923 52.4466 240.592 53.2037 239.929 53.8346C239.267 54.4655 238.463 54.7968 237.516 54.8283H236.57C234.425 54.8283 232.311 54.5444 230.229 53.9766C224.803 52.0838 221.207 48.7242 219.44 43.8976C218.809 42.0995 218.494 40.3961 218.494 38.7872V39.1184L218.399 38.5506V38.2667L218.447 38.5506L218.305 38.314L218.352 38.3613L218.683 38.5979L218.257 38.314L218.589 38.456L218.115 38.314H218.494H218.447C218.415 38.3456 218.336 38.3613 218.21 38.3613C218.178 38.3613 218.131 38.3613 218.068 38.3613C218.037 38.3298 217.958 38.314 217.831 38.314C217.737 38.314 217.69 38.2982 217.69 38.2667H218.115L216.98 38.5506C216.98 38.4875 217.059 38.456 217.216 38.456L217.122 38.5033C217.09 38.5664 216.901 38.6926 216.554 38.8818C216.207 39.0711 215.828 39.3235 215.418 39.6389L215.607 39.497L215.56 39.5443C215.497 39.6074 215.402 39.6705 215.276 39.7336L215.134 39.8755C212.579 41.926 210.292 44.2447 208.273 46.8314L207.847 47.3046C207.784 47.4939 207.705 47.6201 207.611 47.6832L207.469 47.7778C207.5 47.7778 207.516 47.762 207.516 47.7305C207.548 47.6989 207.563 47.6832 207.563 47.6832C207.595 47.6516 207.626 47.6043 207.658 47.5412L205.339 50.8062C201.932 55.9482 198.32 62.7937 194.503 71.3426C193.935 72.4782 192.942 73.0461 191.522 73.0461ZM248.85 72.8095C246.389 72.8095 244.071 72.3363 241.894 71.3899C239.749 70.4435 238.014 69.0082 236.689 67.0839C235.364 65.0334 234.702 62.6202 234.702 59.8441C234.702 58.1406 234.891 56.4845 235.269 54.8756C236.09 51.3109 237.572 48.0302 239.717 45.0333C242.052 41.7841 244.828 38.9765 248.046 36.6105C252.02 33.5506 255.806 31.9417 259.402 31.784C261.61 31.784 263.613 32.3361 265.412 33.4402C267.21 34.5443 268.44 36.1374 269.102 38.2194C269.26 38.9134 269.339 39.5916 269.339 40.2541C269.339 41.579 268.929 43.0459 268.109 44.6548C267.289 46.232 265.822 47.2573 263.708 47.7305L262.856 47.7778C261.279 47.7778 260.159 46.9734 259.497 45.3645C259.402 45.0491 259.355 44.7494 259.355 44.4655C259.355 43.8976 259.544 43.2667 259.923 42.5727C260.333 41.8472 260.979 41.374 261.863 41.1532C261.894 41.1532 261.957 41.1532 262.052 41.1532C262.178 41.1216 262.304 41.0743 262.43 41.0112H262.478C262.446 41.0427 262.399 41.0743 262.336 41.1058C262.304 41.1058 262.257 41.1216 262.194 41.1532C262.162 41.1532 262.131 41.1532 262.099 41.1532V41.1058L262.43 41.0112C262.462 41.0112 262.478 41.027 262.478 41.0585L262.194 41.1532C262.194 41.1216 262.194 41.1058 262.194 41.1058C262.225 41.1058 262.241 41.1058 262.241 41.1058C262.273 41.0743 262.336 41.0112 262.43 40.9166V40.8692L262.194 41.2478L262.43 40.8219L262.572 40.68V40.7273L262.336 40.9639L262.525 40.5853C262.525 40.5538 262.525 40.4907 262.525 40.3961C262.557 40.3014 262.588 40.2383 262.62 40.2068C262.588 40.2383 262.572 40.3172 262.572 40.4434V40.0648L262.478 40.0175L262.62 40.3014H262.572C262.509 40.049 262.478 39.8598 262.478 39.7336H262.43C262.43 39.8913 262.462 40.0017 262.525 40.0648H262.572L262.525 39.9702C262.43 39.7809 262.336 39.6547 262.241 39.5916C262.178 39.5285 262.131 39.497 262.099 39.497L262.383 39.7336C262.036 39.3866 261.863 39.1973 261.863 39.1658C261.926 39.1973 261.957 39.2131 261.957 39.2131L262.052 39.2604C262.115 39.3235 262.147 39.3708 262.147 39.4024L262.005 39.355C261.721 39.1342 261.389 38.9449 261.011 38.7872L261.248 38.8818L261.153 38.8345H260.964C260.711 38.7083 260.427 38.6295 260.112 38.5979L258.74 38.6453C258.834 38.6453 258.897 38.6295 258.929 38.5979H258.976C258.945 38.6295 258.882 38.661 258.787 38.6926C258.692 38.6926 258.566 38.7083 258.408 38.7399C258.282 38.7714 258.124 38.8188 257.935 38.8818C257.746 38.9134 257.557 38.9765 257.367 39.0711C257.21 39.1342 257.099 39.1658 257.036 39.1658C256.973 39.1658 256.894 39.1815 256.8 39.2131H256.847C256.878 39.2131 256.926 39.1815 256.989 39.1184C255.79 39.6547 254.26 40.5538 252.399 41.8156C251.673 42.3204 251.295 42.5885 251.263 42.62C251.263 42.62 251.263 42.6358 251.263 42.6674C251.263 42.6358 251.295 42.6043 251.358 42.5727C251.421 42.5412 251.452 42.5096 251.452 42.4781V42.5254L251.263 42.6674C249.244 44.2762 247.462 46.0585 245.916 48.0144L246.105 47.7778L245.348 48.8188C244.497 50.0491 243.755 51.3267 243.124 52.6516L242.935 53.1248L242.982 53.0302C242.982 52.9671 242.998 52.9198 243.03 52.8882C243.03 52.9513 242.998 53.0144 242.935 53.0775V53.2195L242.888 53.2668C242.225 54.9387 241.784 56.5476 241.563 58.0933C241.594 58.0618 241.61 58.0144 241.61 57.9514L241.516 59.7968C241.516 60.4277 241.531 60.8694 241.563 61.1217V60.8851L241.516 60.7905L241.563 60.8378V61.1217L242.036 62.8252L241.941 62.6359H241.989L242.557 63.6296C242.493 63.5665 242.462 63.5192 242.462 63.4877C242.462 63.4246 242.446 63.393 242.415 63.393V63.4403C242.856 63.9451 243.077 64.1974 243.077 64.1974C243.109 64.1974 243.124 64.2132 243.124 64.2448C243.156 64.2763 243.187 64.3079 243.219 64.3394C243.251 64.3394 243.282 64.3552 243.314 64.3867C243.377 64.4183 243.408 64.4498 243.408 64.4814L243.219 64.2921C243.219 64.3236 243.235 64.3552 243.266 64.3867C243.298 64.3867 243.314 64.4025 243.314 64.434C243.345 64.434 243.377 64.434 243.408 64.434L243.456 64.4814C244.055 64.8915 244.575 65.1754 245.017 65.3331L244.781 65.2385C244.812 65.27 244.907 65.3016 245.064 65.3331C245.853 65.617 246.673 65.8378 247.525 65.9956L247.336 65.9482L247.904 65.9956H248.661C249.544 65.9956 250.222 65.964 250.695 65.9009H250.553L250.648 65.8536C250.869 65.8536 251.011 65.8378 251.074 65.8063C251.516 65.8063 252.352 65.617 253.582 65.2385C254.812 64.8284 255.727 64.4814 256.326 64.1974C256.389 64.1974 256.437 64.1817 256.468 64.1501C256.437 64.1817 256.405 64.1974 256.374 64.1974C256.374 64.1974 256.326 64.2132 256.232 64.2448L256.847 64.0082C258.55 63.2195 260.443 62.2258 262.525 61.0271L263.093 60.6958C266.91 58.5507 270.254 56.4845 273.125 54.4971L273.976 53.8346H274.024C274.024 53.8031 274.071 53.7557 274.166 53.6927C274.26 53.598 274.371 53.5192 274.497 53.4561C275.853 52.352 277.115 51.169 278.282 49.9071C278.945 49.2447 279.702 48.9134 280.554 48.9134H281.358C281.831 48.945 282.399 49.2762 283.062 49.9071C283.756 50.5381 284.103 51.2794 284.103 52.1311V52.9356C284.071 53.4403 283.74 54.0397 283.109 54.7337C279.891 58.0144 276.295 60.822 272.32 63.1564C268.629 65.5224 264.828 67.6675 260.916 69.5918C256.468 71.7369 252.446 72.8095 248.85 72.8095ZM313.418 72.9988C310.705 72.9988 308.591 71.9893 307.077 69.9703C306.257 68.5823 305.846 66.8631 305.846 64.8126C306.162 61.4687 306.856 58.1879 307.929 54.9703C308.906 51.7526 309.553 49.0239 309.869 46.7841L309.916 46.5475L309.869 46.9734C309.932 46.6579 309.963 46.2794 309.963 45.8377C310.058 45.1437 310.105 44.4497 310.105 43.7557C310.105 43.314 310.074 42.967 310.011 42.7147V42.0995L310.058 42.2888V42.4781C310.026 42.4465 309.995 42.3992 309.963 42.3361C309.963 42.2415 309.963 42.1626 309.963 42.0995C309.774 41.3424 309.632 40.9008 309.537 40.7746C309.474 40.6484 309.443 40.5538 309.443 40.4907H309.49C309.49 40.5222 309.506 40.5696 309.537 40.6326C309.6 40.6957 309.648 40.7273 309.679 40.7273C309.648 40.7273 309.616 40.7115 309.585 40.68C309.553 40.6169 309.522 40.5696 309.49 40.538C309.458 40.4749 309.427 40.4434 309.395 40.4434C309.395 40.4118 309.38 40.3645 309.348 40.3014C309.317 40.2068 309.269 40.1121 309.206 40.0175C309.143 39.9229 309.096 39.8598 309.064 39.8282C309.127 39.8598 309.175 39.9071 309.206 39.9702C309.269 40.0017 309.317 40.0333 309.348 40.0648H309.253C309.222 40.0648 309.096 39.9544 308.875 39.7336L308.78 39.6863H308.875L309.064 39.8755C308.78 39.6547 308.544 39.5128 308.354 39.4497C308.417 39.4812 308.465 39.5128 308.496 39.5443C308.559 39.5759 308.607 39.5916 308.638 39.5916H308.686H308.638C308.26 39.4339 307.944 39.3235 307.692 39.2604V39.3077H308.07L307.787 39.2604L307.503 39.3077H306.982L307.029 39.2604H307.361C307.171 39.2604 306.919 39.3393 306.604 39.497H306.367L306.414 39.4497L306.651 39.4024H306.604C306.572 39.4339 306.509 39.4812 306.414 39.5443C306.32 39.6074 306.225 39.6705 306.13 39.7336C306.067 39.7651 306.004 39.8125 305.941 39.8755L306.083 39.7336H306.13L305.657 40.1121C305.184 40.5538 304.758 41.0112 304.38 41.4844V41.5317C304.127 41.7841 304.001 41.9418 304.001 42.0049L304.096 41.8156C303.906 42.0995 303.701 42.3677 303.481 42.62C301.241 45.8377 299.159 49.087 297.234 52.3677C295.089 56.0271 292.865 59.6233 290.562 63.1564C287.187 68.7401 283.906 71.6738 280.72 71.9577C279.521 71.9262 278.496 71.5161 277.644 70.7275C276.446 69.6549 275.846 68.1722 275.846 66.2795C275.846 65.9956 275.941 65.0965 276.13 63.5823C276.603 59.4498 277.092 55.8062 277.597 52.6516C279.868 38.8345 282.944 26.4212 286.824 15.4117C287.834 12.4464 289.064 9.59146 290.515 6.84697C292.755 2.68291 295.499 0.600877 298.749 0.600877L299.648 0.648196C302.266 1.08984 304.175 2.47786 305.373 4.81226C306.036 6.45264 306.367 8.12458 306.367 9.82806C306.367 10.7429 306.272 11.6577 306.083 12.5726C305.673 14.907 305.089 17.2098 304.332 19.4811C304.238 19.7019 304.159 19.9385 304.096 20.1909C303.244 22.8407 302.25 25.4433 301.115 27.9985C296.73 37.3361 290.941 45.7115 283.749 53.1248C283.086 53.7873 282.329 54.1185 281.477 54.1185H280.72C280.247 54.087 279.648 53.7557 278.922 53.1248C278.291 52.4939 277.976 51.7526 277.976 50.9008V50.0964C278.007 49.5917 278.323 49.0081 278.922 48.3456C280.562 46.6421 282.124 44.8756 283.607 43.0459L285.31 40.9639C285.247 41.027 285.215 41.0743 285.215 41.1058C285.215 41.1058 285.2 41.1058 285.168 41.1058L285.215 41.0585C285.215 41.0585 285.247 41.027 285.31 40.9639C285.405 40.9008 285.452 40.8219 285.452 40.7273C287.345 38.3298 289.316 35.4118 291.367 31.9733C293.07 29.0711 294.443 26.3739 295.484 23.8818C295.515 23.8818 295.531 23.866 295.531 23.8344C295.563 23.7714 295.578 23.7083 295.578 23.6452C295.61 23.5821 295.626 23.5348 295.626 23.5032C295.657 23.4717 295.689 23.4401 295.72 23.4086L295.626 23.5979C295.973 22.7777 296.509 21.3581 297.234 19.3392C298.244 16.4685 298.985 13.724 299.458 11.1057V11.2949H299.411L299.458 11.2476C299.458 11.0899 299.474 10.9795 299.506 10.9164V10.7744C299.537 10.3012 299.553 9.71765 299.553 9.02364V8.50313L299.6 8.55045V8.88168V8.83436C299.569 8.80282 299.537 8.7555 299.506 8.6924C299.474 8.59777 299.458 8.50313 299.458 8.40849L299.222 7.69871C299.285 7.79335 299.332 7.90376 299.364 8.02994C299.364 7.99839 299.332 7.9353 299.269 7.84066C299.238 7.74603 299.19 7.65139 299.127 7.55675C299.064 7.46211 299.017 7.39902 298.985 7.36748C299.143 7.46211 299.238 7.52521 299.269 7.55675C299.301 7.55675 299.316 7.57252 299.316 7.60407C299.222 7.57252 299.175 7.55675 299.175 7.55675L298.891 7.36748V7.32016C298.922 7.32016 298.938 7.33593 298.938 7.36748C298.969 7.36748 299.001 7.38325 299.033 7.41479C299.064 7.44634 299.096 7.47789 299.127 7.50943C299.159 7.50943 299.19 7.50943 299.222 7.50943C299.222 7.54098 299.206 7.55675 299.175 7.55675L298.938 7.46211C298.875 7.43057 298.812 7.41479 298.749 7.41479C298.717 7.38325 298.686 7.36748 298.654 7.36748C298.622 7.33593 298.607 7.30438 298.607 7.27284C298.638 7.30438 298.701 7.33593 298.796 7.36748C298.891 7.39902 298.954 7.41479 298.985 7.41479L299.033 7.46211L298.938 7.41479C298.875 7.41479 298.828 7.39902 298.796 7.36748C298.764 7.33593 298.67 7.30438 298.512 7.27284V7.22552H298.701L299.033 7.32016C299.001 7.3517 298.938 7.36748 298.843 7.36748H298.512C298.512 7.39902 298.544 7.41479 298.607 7.41479C298.67 7.41479 298.78 7.38325 298.938 7.32016H299.033V7.27284L298.607 7.41479V7.36748L299.033 7.1782C299.033 7.20975 298.859 7.32016 298.512 7.50943L298.323 7.65139V7.69871L297.66 8.36117L297.471 8.64509C297.503 8.64509 297.55 8.61354 297.613 8.55045C297.676 8.45581 297.708 8.37695 297.708 8.31385C297.676 8.3454 297.629 8.40849 297.566 8.50313C297.534 8.56622 297.487 8.62931 297.424 8.6924C297.361 8.7555 297.329 8.80282 297.329 8.83436C296.509 10.0647 295.799 11.3423 295.2 12.6672C294.884 13.4558 294.648 14.0079 294.49 14.3234C294.49 14.3549 294.474 14.3707 294.443 14.3707L294.679 13.8975L294.017 15.459C292.85 18.519 291.809 21.6105 290.894 24.7335C288.496 32.8408 286.54 41.0585 285.026 49.3866C284.174 54.2763 283.654 57.6043 283.465 59.3709L283.417 59.4656L283.465 59.2763C283.433 59.3394 283.417 59.434 283.417 59.5602C283.417 59.6548 283.402 59.7652 283.37 59.8914C283.244 60.617 283.165 61.3268 283.133 62.0208C282.818 64.7337 282.66 66.2795 282.66 66.658L282.613 66.3268L282.471 66.0429L282.566 66.2322L282.518 66.1375C282.455 66.106 282.376 66.0587 282.282 65.9956C282.219 65.9009 282.187 65.8063 282.187 65.7116L282.282 65.8063C281.808 65.3646 281.272 65.1438 280.673 65.1438H280.72C280.657 65.2069 280.484 65.2385 280.2 65.2385L280.389 65.1438C280.073 65.2385 279.916 65.3016 279.916 65.3331L280.342 65.0965L280.673 64.9072C280.484 65.0965 280.373 65.1911 280.342 65.1911L280.247 65.2385C280.247 65.1754 280.436 64.9861 280.815 64.6706C281.351 64.1659 281.856 63.6296 282.329 63.0618L282.471 62.8725C282.629 62.7148 282.723 62.6202 282.755 62.5886C282.786 62.5255 282.818 62.494 282.85 62.494L282.518 62.8252C283.086 62.1943 283.607 61.4845 284.08 60.6958C287.676 54.9229 289.853 51.4056 290.61 50.1437C293.133 45.7273 295.925 41.4844 298.985 37.415C300.468 35.3329 302.392 33.8345 304.758 32.9197C305.705 32.6358 306.651 32.4938 307.597 32.4938C309.111 32.4938 310.594 32.8881 312.045 33.6768C315.294 35.6642 316.919 39.0869 316.919 43.945L316.872 44.9387C316.493 49.2605 315.626 53.5034 314.269 57.6674C313.67 59.7179 313.165 61.8 312.755 63.9135C312.723 63.9766 312.708 64.0555 312.708 64.1501C312.708 64.2448 312.692 64.3394 312.66 64.434L312.755 63.8662V64.0555C312.723 64.1186 312.692 64.2763 312.66 64.5287C312.66 64.7495 312.66 64.9861 312.66 65.2385C312.66 65.8694 312.676 66.2006 312.708 66.2322V65.9956L312.613 65.7116L312.85 66.4688H312.802C312.802 66.4688 312.787 66.453 312.755 66.4214C312.723 66.3583 312.692 66.2952 312.66 66.2322C312.66 66.1691 312.66 66.106 312.66 66.0429L312.613 65.9956L312.66 66.0902C312.692 66.1533 312.723 66.2164 312.755 66.2795C312.818 66.3426 312.865 66.3741 312.897 66.3741V66.4214L312.518 65.9956L312.897 66.3268H312.85C312.692 66.1691 312.597 66.0902 312.566 66.0902C312.534 66.0587 312.518 66.0271 312.518 65.9956C312.518 66.0271 312.534 66.0587 312.566 66.0902C312.597 66.1217 312.629 66.1533 312.66 66.1848C312.723 66.2164 312.787 66.2322 312.85 66.2322L312.944 66.2795C312.818 66.2795 312.708 66.2322 312.613 66.1375H312.518C312.518 66.106 312.55 66.0902 312.613 66.0902C312.802 66.1848 312.944 66.2322 313.039 66.2322C313.039 66.2637 313.023 66.2795 312.992 66.2795L312.897 66.2322H312.66V66.1848H313.891L313.938 66.1375H314.175C314.269 66.1375 314.506 66.0744 314.884 65.9482C314.947 65.9482 315.026 65.9325 315.121 65.9009C315.216 65.8378 315.326 65.8063 315.452 65.8063L315.074 65.9482L315.452 65.7116C315.894 65.4908 316.146 65.3331 316.209 65.2385C316.304 65.1438 316.43 65.065 316.588 65.0019C316.335 65.065 316.209 65.1438 316.209 65.2385H316.257C316.288 65.2385 316.351 65.1911 316.446 65.0965C317.518 64.1501 318.055 63.5981 318.055 63.4403L318.102 63.393C318.197 63.2668 318.26 63.2037 318.291 63.2037L318.007 63.535L318.197 63.2984L318.291 63.1091C318.67 62.6044 319.269 61.6107 320.089 60.128L320.941 58.2826L320.752 58.6611L321.178 57.6201C321.651 56.3898 322.235 54.6548 322.929 52.415C323.496 50.7747 324.601 49.9545 326.241 49.9545C327.566 49.9545 328.544 50.5223 329.175 51.6579C329.49 52.1942 329.648 52.7463 329.648 53.3141C329.648 53.7557 329.143 55.4592 328.134 58.4245C327.345 60.6958 326.304 62.9514 325.011 65.1911C321.982 70.3962 318.118 72.9988 313.418 72.9988ZM331.092 72.0051L329.909 71.9577C326.029 71.5161 323.284 69.4814 321.676 65.8536C320.824 63.9293 320.398 61.9735 320.398 59.9861C320.398 58.0933 320.761 56.1848 321.486 54.2605C324.83 45.2699 329.231 39.008 334.688 35.4749C337.18 33.8345 339.893 33.0143 342.827 33.0143C343.805 33.0143 344.815 33.1247 345.856 33.3455C349.578 34.1973 352.307 36.3109 354.042 39.6863C354.862 41.3267 355.272 43.109 355.272 45.0333V50.0491C355.272 49.9229 355.288 49.8598 355.319 49.8598C355.319 50.1753 355.351 50.4434 355.414 50.6642C355.509 51.0428 355.556 51.374 355.556 51.6579C355.556 53.2983 354.736 54.4024 353.095 54.9703C352.78 55.0649 352.464 55.1122 352.149 55.1122C349.72 55.1122 348.505 52.9513 348.505 48.6295L348.363 44.2289C348.332 43.4718 348.269 42.967 348.174 42.7147C348.237 42.8093 348.269 42.9197 348.269 43.0459L347.654 41.9576H347.748L347.843 42.1942L347.606 41.9576C347.196 41.4528 346.849 41.1058 346.565 40.9166C346.565 40.9481 346.581 40.9797 346.613 41.0112C346.644 41.0112 346.66 41.027 346.66 41.0585C346.691 41.0585 346.723 41.0585 346.755 41.0585C346.786 41.0585 346.802 41.0743 346.802 41.1058V41.0585C346.739 41.0585 346.55 40.9639 346.234 40.7746C345.666 40.4276 345.303 40.2225 345.146 40.1595C345.209 40.2225 345.272 40.2541 345.335 40.2541C344.546 39.9702 343.979 39.8282 343.632 39.8282L344.01 39.8755C343.537 39.8755 343.079 39.8598 342.638 39.8282C342.385 39.7967 342.086 39.8125 341.739 39.8755C340.729 40.0648 339.956 40.3014 339.42 40.5853C339.42 40.5538 339.436 40.538 339.467 40.538C339.499 40.538 339.515 40.538 339.515 40.538C339.546 40.5065 339.594 40.4749 339.657 40.4434C339.531 40.5696 339.278 40.7273 338.9 40.9166C338.332 41.2005 337.78 41.5159 337.243 41.8629C337.18 41.926 337.117 41.9733 337.054 42.0049C337.023 42.0049 336.991 42.0207 336.96 42.0522C336.96 42.0522 336.912 42.0995 336.818 42.1942V42.1468L337.007 42.0522C336.818 42.1468 336.581 42.3361 336.297 42.62C335.54 43.2825 334.846 44.0238 334.215 44.844C334.184 44.844 334.152 44.8598 334.12 44.8913C334.12 44.9229 334.105 44.9544 334.073 44.986C334.073 44.986 334.026 45.0491 333.931 45.1753C333.963 45.1122 333.994 45.0806 334.026 45.0806C333.994 45.0806 333.978 45.0964 333.978 45.1279L333.458 45.885C331.755 48.3772 330.193 51.2005 328.773 54.3551L328.537 54.8756C327.843 56.6107 327.433 58.0933 327.307 59.3236L327.165 61.0744C327.165 61.2952 327.322 61.8788 327.638 62.8252L327.543 62.6832C327.985 63.5981 328.237 64.087 328.3 64.1501C328.395 64.1817 328.458 64.229 328.489 64.2921C328.363 64.1344 328.3 64.0239 328.3 63.9609C328.3 63.9924 328.3 64.0239 328.3 64.0555C328.332 64.0555 328.348 64.0713 328.348 64.1028C328.379 64.1344 328.489 64.2448 328.679 64.434C329.057 64.8126 329.278 65.0019 329.341 65.0019L329.199 64.9072C329.294 64.9703 329.357 65.0334 329.389 65.0965C329.452 65.1281 329.594 65.1911 329.814 65.2858C329.878 65.3173 329.909 65.3489 329.909 65.3804C329.878 65.3489 329.83 65.3331 329.767 65.3331C329.704 65.3016 329.657 65.2858 329.625 65.2858C329.625 65.2542 329.609 65.2227 329.578 65.1911C329.672 65.2858 329.988 65.3962 330.524 65.5224L330.24 65.4751C330.745 65.4751 331.108 65.4593 331.329 65.4277L331.045 65.4751C331.707 65.2542 332.086 65.1438 332.18 65.1438L331.991 65.2385C332.622 64.923 333.237 64.5602 333.837 64.1501C333.868 64.1501 333.9 64.1344 333.931 64.1028C333.994 64.0397 334.073 63.9924 334.168 63.9609C334.42 63.8031 334.546 63.6927 334.546 63.6296C334.546 63.6612 334.515 63.7085 334.452 63.7716C341.423 57.9671 347.733 51.4687 353.379 44.2762C353.916 43.5822 354.625 43.2352 355.509 43.2352C356.392 43.2352 357.149 43.4876 357.78 43.9923C358.663 44.7494 359.105 45.6011 359.105 46.5475C359.105 47.1153 358.963 47.7147 358.679 48.3456C358.332 49.1658 358.001 50.0018 357.685 50.8535C356.392 54.4813 355.54 57.5728 355.13 60.128H355.083L355.13 59.8441C355.319 61.4845 355.856 62.7306 356.739 63.5823L356.597 63.535H356.692C357.039 63.882 357.464 64.0555 357.969 64.0555L357.638 64.1028L357.969 64.0082C360.871 63.3773 363.458 62.2101 365.729 60.5066H365.682L365.54 60.6485C368.442 58.3141 371.66 54.8756 375.193 50.333C375.698 49.6706 376.36 49.3393 377.181 49.3393C377.275 49.3393 377.591 49.3551 378.127 49.3866C378.663 49.4182 379.247 49.7494 379.878 50.3803C380.54 50.9797 380.871 51.6737 380.871 52.4624C380.871 52.557 380.856 52.8409 380.824 53.3141C380.793 53.7873 380.493 54.3867 379.925 55.1122C377.086 58.8977 374.058 62.1943 370.84 65.0019C367.748 67.7148 364.199 69.4498 360.193 70.2069C359.846 70.27 359.468 70.3174 359.057 70.3489C356.975 70.6013 354.878 70.0965 352.764 68.8347C349.799 67.0366 348.316 64.3867 348.316 60.8851C348.316 59.5917 348.474 58.2984 348.789 57.005C349.736 52.8725 351.076 48.8346 352.811 44.8913L358.158 49.0554C352.89 55.8062 347.023 61.9892 340.556 67.6044C337.117 70.6013 333.963 72.0682 331.092 72.0051ZM374.366 73.0461C373.924 73.0461 373.499 72.9514 373.089 72.7622C371.7 72.1628 371.006 71.1218 371.006 69.6391C371.006 69.3552 371.038 69.0555 371.101 68.7401L379.666 32.2099C379.918 31.2951 380.454 30.6168 381.275 30.1752C381.842 29.8913 382.426 29.7493 383.025 29.7493C384.35 29.7493 385.313 30.3171 385.912 31.4528C386.196 32.0206 386.338 32.6042 386.338 33.2036C386.338 33.6137 383.451 46.0585 377.678 70.5382L371.432 67.9356C373.861 62.4151 376.559 57.0523 379.524 51.8472C382.237 47.0522 385.47 42.6674 389.224 38.6926C392.757 34.9071 396.007 32.5884 398.972 31.7367C399.603 31.5474 400.25 31.4528 400.912 31.4528C402.174 31.4528 403.451 31.8156 404.745 32.5411C406.322 33.5506 407.347 34.9544 407.821 36.7525C407.978 37.5096 408.089 38.2667 408.152 39.0238L408.246 39.8282L408.199 39.6389L408.246 40.0648C408.499 41.0112 408.657 41.5633 408.72 41.721C408.783 41.8472 408.814 41.9576 408.814 42.0522L408.767 41.8629L409.429 43.1879L410.139 44.2289L409.95 43.9923C410.802 44.844 411.306 45.333 411.464 45.4592L411.559 45.6011L411.511 45.5538C411.511 45.5223 411.48 45.5065 411.417 45.5065C411.385 45.4749 411.354 45.4592 411.322 45.4592C411.322 45.4276 411.306 45.4119 411.275 45.4119V45.3645C411.306 45.3645 411.322 45.3803 411.322 45.4119C411.322 45.4119 411.354 45.4276 411.417 45.4592C411.48 45.4907 411.543 45.5538 411.606 45.6484C411.701 45.7115 412.347 46.0901 413.546 46.7841C414.303 47.1942 414.698 47.3992 414.729 47.3992H414.824L414.729 47.3046C414.634 47.2731 414.524 47.2573 414.398 47.2573C414.493 47.2573 414.571 47.2888 414.634 47.3519C414.729 47.3835 414.808 47.3992 414.871 47.3992C415.281 47.557 415.691 47.6674 416.101 47.7305L416.669 47.8724H416.811C416.653 47.8724 416.559 47.8567 416.527 47.8251H416.48H416.622C417.884 47.9513 419.13 48.0144 420.36 48.0144C421.338 48.0459 422.142 48.3929 422.773 49.0554C423.436 49.7179 423.767 50.5538 423.767 51.5633C423.767 52.4466 423.436 53.2037 422.773 53.8346C422.111 54.4655 421.306 54.7968 420.36 54.8283H419.414C417.269 54.8283 415.155 54.5444 413.073 53.9766C407.647 52.0838 404.051 48.7242 402.284 43.8976C401.653 42.0995 401.338 40.3961 401.338 38.7872V39.1184L401.243 38.5506V38.2667L401.291 38.5506L401.149 38.314L401.196 38.3613L401.527 38.5979L401.101 38.314L401.433 38.456L400.959 38.314H401.338H401.291C401.259 38.3456 401.18 38.3613 401.054 38.3613C401.022 38.3613 400.975 38.3613 400.912 38.3613C400.88 38.3298 400.802 38.314 400.675 38.314C400.581 38.314 400.533 38.2982 400.533 38.2667H400.959L399.824 38.5506C399.824 38.4875 399.903 38.456 400.06 38.456L399.966 38.5033C399.934 38.5664 399.745 38.6926 399.398 38.8818C399.051 39.0711 398.672 39.3235 398.262 39.6389L398.451 39.497L398.404 39.5443C398.341 39.6074 398.246 39.6705 398.12 39.7336L397.978 39.8755C395.423 41.926 393.136 44.2447 391.117 46.8314L390.691 47.3046C390.628 47.4939 390.549 47.6201 390.455 47.6832L390.313 47.7778C390.344 47.7778 390.36 47.762 390.36 47.7305C390.391 47.6989 390.407 47.6832 390.407 47.6832C390.439 47.6516 390.47 47.6043 390.502 47.5412L388.183 50.8062C384.776 55.9482 381.164 62.7937 377.347 71.3426C376.779 72.4782 375.786 73.0461 374.366 73.0461ZM414.848 114.781C413.145 114.781 411.71 114.529 410.542 114.024C408.429 112.983 407.262 110.885 407.041 107.731C407.041 104.892 407.451 102.289 408.271 99.9232C409.186 97.0841 410.463 94.4027 412.104 91.879C418.855 81.6266 427.23 72.9357 437.23 65.8063C443.76 61.1375 452.956 55.6327 464.817 49.292C466.047 48.6295 466.946 48.2983 467.514 48.2983C468.745 48.2983 469.738 48.8504 470.495 49.9545C470.811 50.4907 470.969 51.0428 470.969 51.6106C470.969 52.9356 470.401 53.945 469.265 54.639L465.811 56.5318C454.896 62.2731 445.937 67.7621 438.934 72.9988L438.366 73.4246C438.334 73.4562 438.303 73.4719 438.271 73.4719C438.271 73.5035 438.255 73.5193 438.224 73.5193C438.192 73.5508 438.161 73.5666 438.129 73.5666C438.129 73.5981 438.098 73.6139 438.035 73.6139C438.003 73.6454 437.388 74.1502 436.189 75.1281C431.804 78.7559 427.845 82.6203 424.312 86.7212C422.766 88.5824 421.994 89.5446 421.994 89.6077C421.994 89.5761 422.041 89.513 422.135 89.4184V89.3711L421.946 89.655C420.148 91.9263 418.508 94.3238 417.025 96.8475C416.394 97.9831 415.952 98.8664 415.7 99.4973H415.653L415.605 99.6866L415.558 99.7339L415.653 99.5446L415.511 99.8759C415.038 101.043 414.659 102.242 414.375 103.472C414.06 104.734 413.902 105.491 413.902 105.743L413.949 105.412C413.949 105.696 413.918 105.964 413.855 106.217V107.731C413.886 107.762 413.902 107.889 413.902 108.109V107.873L413.997 108.251L414.044 108.441C413.949 108.314 413.902 108.204 413.902 108.109L414.044 108.393V108.299L413.76 107.967C413.76 107.999 413.776 108.015 413.807 108.015C413.839 108.046 413.886 108.078 413.949 108.109C413.981 108.172 414.012 108.204 414.044 108.204V108.299L413.523 107.873L413.807 108.062L413.855 108.015C413.855 107.983 413.839 107.952 413.807 107.92C413.776 107.92 413.728 107.904 413.665 107.873C413.602 107.841 413.555 107.825 413.523 107.825L413.334 107.873L413.381 107.825L413.476 107.873H413.807L413.902 107.92H413.855C413.823 107.952 413.76 107.967 413.665 107.967H415.085L415.463 107.92L415.18 107.967L415.227 107.92C415.448 107.92 415.574 107.904 415.605 107.873C416.016 107.873 416.678 107.699 417.593 107.352L418.492 107.068C418.492 107.1 418.476 107.116 418.445 107.116C418.413 107.147 418.366 107.163 418.303 107.163C418.24 107.195 418.192 107.21 418.161 107.21L418.113 107.258L418.397 107.068C418.587 107.068 419.17 106.706 420.148 105.98L420.763 105.507V105.554L420.574 105.696C420.574 105.633 420.669 105.554 420.858 105.46C420.921 105.428 420.968 105.381 421 105.318C422.987 103.772 425.069 101.658 427.246 98.9768V98.9295L427.104 99.1188L427.53 98.5983C430.306 94.8759 433.003 89.9231 435.621 83.7401C435.684 83.677 435.748 83.5509 435.811 83.3616C435.905 83.1723 435.953 83.0461 435.953 82.983L435.905 83.1723L436.284 82.1786C439.06 75.5224 441.284 68.7085 442.956 61.7369C444.47 55.4277 445.811 49.0554 446.978 42.62L453.555 44.4182C450.937 50.822 446.205 56.7684 439.36 62.2574C436.899 64.2763 435.464 65.4277 435.054 65.7116C431.867 68.5192 428.65 69.923 425.4 69.923C425.337 69.923 424.801 69.9073 423.792 69.8757C422.814 69.8442 421.505 69.1659 419.864 67.841C418.35 66.4214 417.53 64.718 417.404 62.7306L417.356 61.169C417.356 59.7179 417.514 58.2984 417.829 56.9103C418.429 53.7873 419.533 50.8377 421.142 48.0617C424.391 42.2888 428.997 38.0143 434.959 35.2383C437.483 34.1026 440.038 33.5348 442.625 33.5348C447.041 33.5348 450.18 35.2383 452.041 38.6453C452.325 39.2762 452.467 39.8755 452.467 40.4434C452.467 41.5159 451.915 42.4623 450.811 43.2825C450.306 43.598 449.77 43.7557 449.202 43.7557C447.782 43.7557 446.773 43.1879 446.173 42.0522L445.795 41.4371L445.653 41.2951H445.7C445.732 41.3267 445.763 41.374 445.795 41.4371C445.858 41.4686 445.89 41.5002 445.89 41.5317H445.937L445.795 41.3897C445.543 41.232 445.401 41.1374 445.369 41.1058C445.369 41.0427 445.369 40.9954 445.369 40.9639L445.606 41.1058L445.653 41.2005H445.558C445.495 41.1374 445.369 41.0585 445.18 40.9639C445.18 40.9323 445.164 40.9166 445.132 40.9166C445.101 40.885 445.054 40.8535 444.99 40.8219C444.959 40.7904 444.801 40.7115 444.517 40.5853H444.565C444.596 40.6169 444.628 40.6484 444.659 40.68C444.691 40.68 444.722 40.68 444.754 40.68C444.817 40.68 444.849 40.6957 444.849 40.7273L444.801 40.68C444.643 40.68 444.454 40.6326 444.233 40.538L443.429 40.3014L443.334 40.3487H443.76C443.76 40.3803 443.729 40.3961 443.666 40.3961L443.429 40.3487L442.577 40.3014C442.104 40.3014 441.647 40.333 441.205 40.3961H440.921L441.158 40.3487L441.252 40.3961C441.252 40.3645 441.237 40.3487 441.205 40.3487C441.173 40.3487 441.126 40.3645 441.063 40.3961C441 40.4276 440.937 40.4434 440.874 40.4434C440.811 40.4434 440.779 40.4591 440.779 40.4907C439.959 40.6169 439.186 40.8219 438.46 41.1058L437.94 41.2951L438.224 41.1532H438.271L437.656 41.4844C436.363 42.0838 435.148 42.7778 434.012 43.5664L433.255 44.1342L433.397 43.9923H433.445L432.971 44.3708C431.678 45.4749 430.479 46.6579 429.375 47.9198C429.375 48.0144 429.328 48.0933 429.233 48.1563C429.17 48.2194 429.107 48.2825 429.044 48.3456C429.012 48.3772 428.997 48.4087 428.997 48.4403V48.3929L428.098 49.6706C427.372 50.7747 426.725 51.9103 426.158 53.0775C426.094 53.2668 426.016 53.4403 425.921 53.598L425.874 53.7873L425.779 53.9766L425.874 53.6927V53.7873L425.779 53.9292C425.243 55.1595 424.817 56.5791 424.501 58.1879L424.312 58.9924L424.265 59.5602L424.217 59.6548V59.7968L424.265 59.5602L424.217 59.6548V59.9861L424.17 60.0334L424.123 61.5949C424.123 61.7842 424.139 61.9104 424.17 61.9735V62.1154L424.123 61.9261C424.123 61.9892 424.139 62.0839 424.17 62.2101C424.202 62.3047 424.217 62.3836 424.217 62.4466C424.249 62.5097 424.281 62.5571 424.312 62.5886V62.6832L424.359 62.7779L424.265 62.494L424.407 62.7779L424.17 62.494L424.407 62.7306H424.359H424.407C424.407 62.7621 424.438 62.8094 424.501 62.8725C424.564 62.9041 424.612 62.9356 424.643 62.9672C424.706 62.9672 424.754 62.9672 424.785 62.9672L424.833 63.0145L424.501 62.8725H424.596L424.833 63.0145H424.975L425.069 63.0618C425.227 63.1249 425.337 63.1564 425.4 63.1564L425.117 63.1091V63.0618H425.164C425.195 63.0933 425.306 63.1091 425.495 63.1091C425.527 63.1407 425.716 63.1564 426.063 63.1564C426.094 63.1249 426.189 63.1091 426.347 63.1091H426.063L426.016 63.1564L426.205 63.1091C426.52 63.046 426.852 62.9514 427.199 62.8252C427.262 62.8252 427.309 62.8094 427.341 62.7779H427.388C427.356 62.8094 427.309 62.841 427.246 62.8725C427.183 62.8725 427.135 62.8725 427.104 62.8725C427.924 62.5571 428.871 61.9892 429.943 61.169C429.943 61.1375 429.959 61.1217 429.99 61.1217C430.022 61.0902 430.069 61.0429 430.132 60.9798C430.227 60.9167 430.29 60.8851 430.322 60.8851L430.132 61.0271L430.18 60.9798C430.211 60.9482 430.243 60.9324 430.274 60.9324C430.337 60.9009 430.369 60.8536 430.369 60.7905L430.842 60.4119C436.236 56.311 440.401 52.4466 443.334 48.8188C443.429 48.7242 443.476 48.6611 443.476 48.6295L443.334 48.8188C443.461 48.7242 443.587 48.5664 443.713 48.3456C443.871 48.0933 444.044 47.8409 444.233 47.5885C445.243 46.1059 446.095 44.5917 446.789 43.0459L446.883 42.9513V42.904L446.789 43.0932L446.741 43.1879C446.804 42.9986 446.883 42.8251 446.978 42.6674V42.62C447.64 41.0112 448.76 40.2068 450.338 40.2068C451.694 40.2068 452.64 40.7588 453.177 41.8629C453.461 42.4308 453.603 43.0301 453.603 43.6611L453.555 44.4182C451.694 54.5444 449.817 62.9829 447.924 69.7338C446.063 76.0429 443.776 82.2102 441.063 88.2354C438.823 93.5667 435.984 98.5509 432.546 103.188C430.779 105.491 428.807 107.589 426.631 109.482C423.066 112.825 419.139 114.592 414.848 114.781ZM476.624 72.289C474.511 72.289 472.381 71.8158 470.236 70.8694C468.091 69.923 466.403 68.3457 465.173 66.1375C464.258 64.2448 463.801 62.3047 463.801 60.3173C463.801 57.4466 464.589 54.3393 466.167 50.9955C468.186 46.7683 470.804 42.9513 474.022 39.5443C477.681 35.5064 481.671 33.4244 485.993 33.2982C488.107 33.2982 490.126 33.8187 492.05 34.8597C494.006 35.9008 495.473 37.3834 496.451 39.3077C497.05 40.6957 497.35 42.0522 497.35 43.3771C497.35 46.5633 495.82 49.5917 492.76 52.4624C488.753 56.0901 484.085 57.904 478.753 57.904C475.567 57.904 472.507 57.1627 469.574 55.68C468.469 55.0807 467.917 54.1028 467.917 52.7463C467.917 52.1469 468.059 51.5633 468.343 50.9955C468.974 49.9229 469.952 49.3866 471.277 49.3866C471.845 49.3866 472.555 49.5917 473.406 50.0018L473.927 50.2384C473.895 50.2384 473.864 50.2384 473.832 50.2384C473.801 50.2384 473.753 50.2226 473.69 50.1911C473.627 50.1595 473.596 50.128 473.596 50.0964L473.974 50.2384C474.637 50.5538 475.41 50.7747 476.293 50.9008C476.482 50.9955 476.735 51.0428 477.05 51.0428L476.719 50.9955C476.876 51.0586 477.507 51.0901 478.611 51.0901C479.684 51.0901 480.41 51.0586 480.788 50.9955C480.63 51.0586 480.52 51.0901 480.457 51.0901H480.41L480.741 50.9955C480.804 50.9955 480.851 50.9797 480.883 50.9482C482.397 50.6958 483.564 50.3646 484.384 49.9545L484.006 50.0964C484.542 49.9071 485.173 49.5917 485.899 49.15C486.624 48.7084 487.034 48.4403 487.129 48.3456L487.365 48.1563L487.082 48.3929L487.271 48.251C488.627 46.8945 489.306 46.2163 489.306 46.2163L489.448 46.027L489.258 46.3109V46.2163C489.384 46.027 489.479 45.9008 489.542 45.8377C489.605 45.7431 489.668 45.6327 489.731 45.5065C489.889 45.2857 490.015 45.0806 490.11 44.8913C490.236 44.6705 490.299 44.5601 490.299 44.5601C490.299 44.5286 490.315 44.497 490.347 44.4655L490.252 44.6548L490.536 43.803L490.583 43.5191V42.904L490.63 42.8566L490.678 42.904C490.678 42.9355 490.678 42.967 490.678 42.9986C490.678 43.0301 490.694 43.0617 490.725 43.0932C490.725 43.1563 490.709 43.1879 490.678 43.1879C490.646 43.1563 490.615 43.109 490.583 43.0459C490.583 42.9828 490.567 42.9197 490.536 42.8566C490.536 42.7935 490.52 42.7304 490.489 42.6674C490.457 42.6043 490.441 42.5412 490.441 42.4781C490.441 42.415 490.457 42.3834 490.489 42.3834L490.63 42.7147L490.489 42.5727C490.362 42.3204 490.283 42.1942 490.252 42.1942C490.252 42.1626 490.236 42.1153 490.205 42.0522C490.173 41.9891 490.11 41.8945 490.015 41.7683L490.252 42.0049L489.258 41.0585L489.589 41.3424L488.123 40.4434V40.3961L488.454 40.6326L488.075 40.4434C487.381 40.2541 486.955 40.1595 486.798 40.1595C486.671 40.1279 486.608 40.0964 486.608 40.0648L486.656 40.0175L486.987 40.1595C486.861 40.0964 486.703 40.0648 486.514 40.0648C486.324 40.0648 486.151 40.0806 485.993 40.1121H485.567C485.378 40.1121 485.283 40.1279 485.283 40.1595C485.283 40.0964 485.394 40.0648 485.615 40.0648C485.552 40.1279 485.347 40.191 485 40.2541C484.653 40.3172 484.353 40.3961 484.1 40.4907C483.88 40.5853 483.675 40.6642 483.485 40.7273L483.769 40.5853L483.485 40.7273C482.57 41.232 481.987 41.5633 481.735 41.721L481.403 41.9576L481.261 42.0995C481.261 42.068 481.293 42.0364 481.356 42.0049C481.419 41.9733 481.466 41.9418 481.498 41.9103L479.7 43.5191C478.88 44.3077 477.949 45.3488 476.908 46.6421L476.671 46.9261H476.719C476.719 46.863 476.766 46.7841 476.861 46.6895L476.388 47.3519C475.031 49.1185 473.675 51.2794 472.318 53.8346L472.176 54.2605C472.05 54.4498 471.987 54.5917 471.987 54.6864L472.034 54.4971C471.435 55.9482 471.009 57.3993 470.757 58.8504L470.709 59.1343L470.757 58.8977C470.693 59.434 470.662 59.9703 470.662 60.5066V61.1217C470.662 61.4687 470.772 61.9735 470.993 62.6359C470.993 62.5413 470.977 62.4624 470.946 62.3993L471.135 62.8252C471.23 63.0776 471.403 63.3299 471.656 63.5823L471.419 63.3457C471.671 63.6296 471.94 63.882 472.223 64.1028L472.413 64.3394C472.413 64.3079 472.397 64.2921 472.365 64.2921C472.365 64.2605 472.302 64.1974 472.176 64.1028L473.028 64.6706C473.154 64.7022 473.264 64.7495 473.359 64.8126C473.454 64.8757 473.517 64.923 473.548 64.9545C473.58 64.9545 473.596 64.9703 473.596 65.0019L473.501 64.9072C473.375 64.8757 473.312 64.8441 473.312 64.8126C474.195 65.0965 474.652 65.2385 474.684 65.2385C474.747 65.2385 474.842 65.2542 474.968 65.2858C475.094 65.3173 475.189 65.3489 475.252 65.3804C475.315 65.3804 475.362 65.3804 475.394 65.3804H475.205C475.772 65.4435 476.356 65.4751 476.955 65.4751L478.659 65.3331H478.564L479.511 65.1911C481.561 64.718 483.438 64.1817 485.141 63.5823L486.608 63.0145L487.176 62.7779C487.145 62.8094 487.097 62.8252 487.034 62.8252C487.003 62.8252 486.971 62.8567 486.94 62.9198C486.94 62.8883 487.034 62.841 487.224 62.7779C489.936 61.5791 492.791 59.5917 495.788 56.8157C498.785 54.0081 500.978 51.9103 502.366 50.5223C503.06 49.8598 503.864 49.5286 504.779 49.5286C505.662 49.5601 506.435 49.8914 507.097 50.5223C507.791 51.1532 508.138 51.9103 508.138 52.7936C508.138 52.8567 508.123 53.1248 508.091 53.598C508.091 54.0712 507.776 54.6548 507.145 55.3488C500.646 62.9198 493.485 68.0145 485.662 70.6328C482.381 71.7369 479.369 72.289 476.624 72.289Z" fill="#027BF4"/>
</svg>
