<svg width="315" height="72" viewBox="0 0 315 72" fill="none" xmlns="http://www.w3.org/2000/svg">
<path d="M20.1348 51.0645C19.4512 51.0645 18.5527 50.9961 17.4395 50.8594C16.3457 50.7227 15.1738 50.1562 13.9238 49.1602C12.3613 47.8125 11.5801 46.0645 11.5801 43.916C11.5801 41.9434 12.3027 40.2051 13.748 38.7012C15.623 36.7871 18.1621 35.498 21.3652 34.834C23.6309 34.3652 26.7754 33.8867 30.7988 33.3984C32.1855 33.0664 36.1406 32.6953 42.6641 32.2852C43.2695 32.3047 43.7578 32.5098 44.1289 32.9004C44.5195 33.291 44.7344 33.7695 44.7734 34.3359C44.7734 34.9219 44.5195 35.3223 44.0117 35.5371C43.5039 35.7324 42.957 35.8398 42.3711 35.8594C38.3086 36.25 35.6523 36.5625 34.4023 36.7969C28.0547 37.5781 24.3438 38.125 23.2695 38.4375C22.2148 38.7305 21.1113 39.082 19.959 39.4922L19.7832 39.5508L19.959 39.4629L19.7832 39.5508C19.1973 39.8242 18.5625 40.1758 17.8789 40.6055L17.5859 40.7812L17.7031 40.6641H17.7324L17.7031 40.6934C17.0586 41.2988 16.7363 41.6113 16.7363 41.6309C16.7363 41.6309 16.6973 41.6699 16.6191 41.748C16.5605 41.8066 16.5312 41.8457 16.5312 41.8652V41.8359L16.6484 41.6895C16.5703 41.7871 16.5117 41.8652 16.4727 41.9238C16.4336 41.9824 16.3848 42.0508 16.3262 42.1289C16.2676 42.207 16.1895 42.3145 16.0918 42.4512C16.0137 42.5879 15.9746 42.6953 15.9746 42.7734L16.0039 42.7148V42.7441C15.9844 42.7441 15.9648 42.7637 15.9453 42.8027C15.9453 42.8223 15.9355 42.8613 15.916 42.9199C15.8965 42.9785 15.877 43.0469 15.8574 43.125C15.8574 43.1836 15.8477 43.2422 15.8281 43.3008C15.8086 43.3594 15.7891 43.4277 15.7695 43.5059C15.7695 43.5645 15.7598 43.6035 15.7402 43.623H15.7109L15.7402 43.5645C15.7402 43.5449 15.7402 43.5254 15.7402 43.5059C15.7598 43.4668 15.7793 43.4375 15.7988 43.418C15.7793 43.4375 15.7695 43.5352 15.7695 43.7109C15.7695 44.1211 15.7793 44.3652 15.7988 44.4434L15.7402 44.1504C15.7988 44.2871 15.8281 44.4336 15.8281 44.5898L15.8574 44.707C15.916 45 15.9844 45.1953 16.0625 45.293L15.916 45.0879V45.0586C15.9355 45.0586 15.9453 45.0684 15.9453 45.0879C16.0625 45.2246 16.1309 45.3223 16.1504 45.3809C16.1895 45.4395 16.2188 45.4785 16.2383 45.498C16.2578 45.5371 16.2676 45.5664 16.2676 45.5859C16.2871 45.625 16.2969 45.6445 16.2969 45.6445C16.3164 45.6641 16.3555 45.7129 16.4141 45.791C16.3945 45.791 16.3652 45.7617 16.3262 45.7031C16.3066 45.6641 16.2969 45.6348 16.2969 45.6152H16.2676C16.2871 45.6152 16.2969 45.625 16.2969 45.6445C16.3164 45.6641 16.3555 45.7031 16.4141 45.7617L16.8828 46.2598C16.9023 46.2598 16.9121 46.2695 16.9121 46.2891H16.8828L16.8242 46.2305C16.7852 46.2109 16.7559 46.1914 16.7363 46.1719V46.1426H16.7656C16.8242 46.2012 17.1074 46.3672 17.6152 46.6406L17.4688 46.5527H17.498C17.5566 46.6113 17.6055 46.6406 17.6445 46.6406C17.8203 46.6992 18.0059 46.748 18.2012 46.7871C18.416 46.8652 18.6016 46.9043 18.7578 46.9043C18.7773 46.9238 18.8066 46.9336 18.8457 46.9336C18.9043 46.9531 18.9434 46.9629 18.9629 46.9629L18.7871 46.9336C19.1973 46.9727 19.6074 46.9922 20.0176 46.9922L21.1309 46.9629C21.209 46.9434 21.3457 46.9336 21.541 46.9336L21.3359 46.9629L21.5117 46.9043C22.332 46.8066 23.2891 46.5723 24.3828 46.2012L24.7051 46.0547C24.6465 46.0938 24.5977 46.1133 24.5586 46.1133L24.8223 45.9961H24.8809L25.7012 45.5859C26.209 45.332 26.6094 45.0879 26.9023 44.8535L27.166 44.6484H27.1953L27.0488 44.7656C27.4004 44.4922 27.9375 43.9941 28.6602 43.2715L28.7773 43.125L28.6602 43.2715H28.6309L28.7188 43.1836C29.1094 42.6172 29.4219 42.0996 29.6562 41.6309L29.5977 41.7773L29.832 41.1035C29.9297 40.791 30.0078 40.4785 30.0664 40.166L30.0957 39.9316L30.125 39.9023L30.0957 39.9316V40.1074C30.1348 39.7754 30.1543 39.4824 30.1543 39.2285C30.1543 39.0723 30.1445 38.9258 30.125 38.7891V38.4668L30.0957 38.3496L30.125 38.4668C30.1055 38.4473 30.0957 38.3789 30.0957 38.2617C29.9395 37.5586 29.8027 37.0996 29.6855 36.8848L29.7441 37.002L29.7148 36.9727C29.7148 36.875 29.5391 36.5332 29.1875 35.9473C29.0508 35.752 28.9629 35.625 28.9238 35.5664C28.8848 35.5078 28.8555 35.4688 28.8359 35.4492C28.8164 35.4297 28.8066 35.4102 28.8066 35.3906L28.8359 35.4199C28.8359 35.4395 28.8457 35.459 28.8652 35.4785C28.8848 35.4785 28.9043 35.4883 28.9238 35.5078L28.8359 35.4785C27.918 34.502 26.9414 33.5938 25.9062 32.7539C23.6797 31.0547 21.8145 29.0527 20.3105 26.748C18.7871 24.3652 17.9766 21.7773 17.8789 18.9844C17.8789 16.3867 18.582 14.0137 19.9883 11.8652C21.3945 9.7168 23.2695 8.07617 25.6133 6.94336C27.5664 6.00586 29.5195 5.53711 31.4727 5.53711C34.1094 5.53711 36.2578 6.39648 37.918 8.11523C39.2266 9.50195 39.8809 11.2109 39.8809 13.2422C39.8809 16.9727 37.2539 21.0352 32 25.4297C27.8398 28.8867 23.2012 31.5527 18.084 33.4277C12.9863 35.3027 7.71289 36.3574 2.26367 36.5918C1.67773 36.5918 1.18945 36.3965 0.798828 36.0059C0.408203 35.5957 0.193359 35.1074 0.154297 34.541C0.154297 33.9551 0.369141 33.4766 0.798828 33.1055C1.20898 32.7344 1.69727 32.5293 2.26367 32.4902C3.61133 32.4316 4.94922 32.3242 6.27734 32.168L6.42383 32.1387L6.30664 32.168L6.36523 32.1387H6.48242C6.63867 32.0996 6.79492 32.0801 6.95117 32.0801L9.76367 31.5527C12.459 30.9863 14.959 30.2539 17.2637 29.3555L17.7031 29.1797C17.7812 29.1602 17.8398 29.1406 17.8789 29.1211C17.9375 29.1016 17.9766 29.0918 17.9961 29.0918C18.0352 29.0723 18.0645 29.0527 18.084 29.0332C18.1035 29.0137 18.123 29.0039 18.1426 29.0039L18.8164 28.7109C21.5508 27.5781 24.2949 26.0254 27.0488 24.0527C27.1465 23.9941 27.2344 23.9355 27.3125 23.877C27.3906 23.7988 27.4688 23.7305 27.5469 23.6719L27.6055 23.6426C27.5859 23.6621 27.5664 23.6816 27.5469 23.7012C27.5273 23.7012 27.5078 23.7109 27.4883 23.7305V23.7598L27.752 23.5254C28.1426 23.252 28.7871 22.7246 29.6855 21.9434C31.0137 20.7715 32.3418 19.4141 33.6699 17.8711L33.582 17.959L33.6992 17.8125C33.6992 17.793 33.709 17.7832 33.7285 17.7832C33.8262 17.627 33.9336 17.4805 34.0508 17.3438C34.5391 16.6602 34.9004 16.0547 35.1348 15.5273L35.3105 15.2051C35.291 15.2637 35.2812 15.3027 35.2812 15.3223C35.2812 15.3223 35.2715 15.3223 35.252 15.3223L35.2812 15.2637C35.2812 15.2441 35.2812 15.2246 35.2812 15.2051C35.3008 15.166 35.3105 15.1367 35.3105 15.1172C35.3301 15.0781 35.3496 15.0488 35.3691 15.0293L35.6328 14.0918C35.6328 14.0332 35.6523 13.9551 35.6914 13.8574V13.7402L35.7207 13.9746L35.6914 13.7695C35.6914 13.6523 35.7012 13.5449 35.7207 13.4473C35.7402 13.3301 35.75 13.2031 35.75 13.0664C35.75 12.9297 35.7207 12.8223 35.6621 12.7441C35.6816 12.7441 35.6914 12.7539 35.6914 12.7734C35.6914 12.793 35.7012 12.8125 35.7207 12.832V12.9785L35.5449 12.2168L35.3984 11.8066L35.4863 11.9531L35.1055 11.25C35.0859 11.25 35.0664 11.2402 35.0469 11.2207C35.0469 11.1816 35.0273 11.1523 34.9883 11.1328C34.9688 11.0938 34.9492 11.0645 34.9297 11.0449C34.9297 11.0254 34.9297 11.0059 34.9297 10.9863L35.0469 11.1621C34.8125 10.8496 34.627 10.6543 34.4902 10.5762L34.373 10.4297H34.4023L34.5488 10.5469H34.4902C34.373 10.4297 34.0801 10.2637 33.6113 10.0488L33.5527 9.99023H33.4355V9.96094L33.582 10.0195L33.3477 9.96094C33.1523 9.88281 32.957 9.82422 32.7617 9.78516C32.5859 9.74609 32.4492 9.70703 32.3516 9.66797H32.3809C32.4004 9.6875 32.4395 9.69727 32.498 9.69727C32.498 9.7168 32.4688 9.72656 32.4102 9.72656C32.0586 9.6875 31.707 9.66797 31.3555 9.66797C31.0234 9.66797 30.6914 9.6875 30.3594 9.72656L30.4473 9.69727H30.5645L30.3594 9.72656C29.5586 9.88281 28.7578 10.0977 27.957 10.3711L27.8984 10.4004L28.0156 10.3125H28.0742C28.0742 10.332 28.0645 10.3418 28.0449 10.3418L27.7227 10.4883C26.9805 10.8594 26.375 11.2109 25.9062 11.543L25.7012 11.7188V11.6895L25.7891 11.6309L25.5547 11.8359C24.9102 12.3633 24.4414 12.8223 24.1484 13.2129L23.9727 13.418L24.1191 13.2422L24.0605 13.3301C23.9434 13.4473 23.7773 13.6816 23.5625 14.0332C23.0938 14.7949 22.8105 15.3125 22.7129 15.5859L22.8008 15.3516C22.625 15.8008 22.4785 16.2402 22.3613 16.6699L22.127 17.7246L22.1562 17.4902C22.1562 17.5879 22.1465 17.6562 22.127 17.6953L22.0977 18.7207C22.0977 19.4629 22.127 19.9512 22.1855 20.1855C22.166 20.1855 22.1562 20.127 22.1562 20.0098L22.127 19.9805L22.1562 20.0391C22.1562 20.1367 22.1758 20.2246 22.2148 20.3027C22.332 21.1035 22.5859 21.9629 22.9766 22.8809L22.918 22.7344C22.918 22.7539 22.9277 22.7832 22.9473 22.8223C22.9668 22.8418 22.9766 22.8711 22.9766 22.9102L23.2109 23.3789C23.6211 24.1992 24.1484 25.0391 24.793 25.8984L24.8223 25.957C24.8223 25.9961 24.8613 26.0352 24.9395 26.0742L24.998 26.1914L24.9102 26.0742C25.8477 27.2461 27.0781 28.4277 28.6016 29.6191C29.7539 30.4785 30.8086 31.4355 31.7656 32.4902C33.4648 34.502 34.3145 36.748 34.3145 39.2285C34.3145 39.7363 34.2754 40.2637 34.1973 40.8105C33.6895 43.5645 32.3418 45.8105 30.1543 47.5488C27.2051 49.8926 23.8652 51.0645 20.1348 51.0645ZM45.5504 45.2637C43.5191 45.2637 42.1129 44.3164 41.3316 42.4219C41.0582 41.6406 40.9215 40.8301 40.9215 39.9902C40.9215 37.7051 41.5758 34.9707 42.8844 31.7871C44.1539 28.291 45.7457 24.9512 47.6598 21.7676C48.109 21.084 48.7047 20.7422 49.4469 20.7422C49.818 20.7422 50.1793 20.8301 50.5309 21.0059C51.234 21.416 51.5855 22.041 51.5855 22.8809C51.5855 23.2324 51.4879 23.5742 51.2926 23.9062C50.316 25.4883 49.4273 27.1289 48.6266 28.8281C48.1969 29.7461 47.6207 31.1523 46.898 33.0469C46.1363 35.0781 45.6188 36.7285 45.3453 37.998L45.316 38.2031C45.277 38.3594 45.2574 38.4863 45.2574 38.584L45.1988 39.1113L45.1695 40.1953L45.1988 40.6934L45.1695 40.459C45.1891 40.5176 45.1988 40.5566 45.1988 40.5762C45.1988 40.5957 45.2086 40.6738 45.2281 40.8105C45.2672 40.9277 45.3063 41.0352 45.3453 41.1328C45.3063 41.0547 45.2867 41.0059 45.2867 40.9863C45.2867 40.9668 45.2867 40.9473 45.2867 40.9277L45.4332 41.2207L45.2867 41.0449L45.4039 41.1621L45.2574 41.0449L45.1988 41.0156L45.3746 41.0742L45.5504 41.1035L45.316 41.0742L45.8141 41.0449L45.6383 41.1035C45.6383 41.084 45.6871 41.0645 45.7848 41.0449C45.8824 41.0254 45.941 41.0156 45.9605 41.0156V40.9863L46.4293 40.8398C46.4293 40.8203 46.4391 40.8105 46.4586 40.8105L46.9273 40.5762C47.7672 40.127 48.5582 39.6191 49.3004 39.0527L49.1539 39.1699L49.3297 39.0234C49.6227 38.7891 49.9156 38.5352 50.2086 38.2617C52.5523 36.1719 54.6617 33.9453 56.5367 31.582C58.4117 29.1992 60.2281 26.748 61.9859 24.2285C62.4938 23.5449 63.0895 23.2031 63.773 23.2031C64.1246 23.2031 64.4957 23.291 64.8863 23.4668C65.5504 23.8574 65.8824 24.4531 65.8824 25.2539C65.8824 25.625 65.8043 25.9961 65.648 26.3672C65.3746 26.9531 65.1109 27.5488 64.857 28.1543L64.5934 28.7402L64.5641 28.8574L64.4469 29.1211C64.4469 29.1992 64.4273 29.2383 64.3883 29.2383C63.9391 30.293 63.441 31.6113 62.8941 33.1934C62.2691 34.9707 61.8297 36.6406 61.5758 38.2031C61.5563 38.2227 61.5465 38.2715 61.5465 38.3496C61.5465 38.4082 61.5367 38.4766 61.5172 38.5547C61.4977 38.6133 61.4879 38.6523 61.4879 38.6719V38.584C61.4684 38.8574 61.4586 39.1406 61.4586 39.4336V39.7852C61.4586 39.707 61.4488 39.668 61.4293 39.668C61.4293 39.6484 61.4391 39.6387 61.4586 39.6387V39.6973C61.4586 39.7559 61.4586 39.7949 61.4586 39.8145C61.4781 39.8145 61.4879 39.8242 61.4879 39.8438L61.5758 40.1953L61.5172 39.9902C61.5758 40.0879 61.6051 40.1465 61.6051 40.166C61.6051 40.1855 61.6344 40.2246 61.693 40.2832L61.7809 40.3711L61.6344 40.2539C61.6539 40.2734 61.6734 40.293 61.693 40.3125C61.732 40.3125 61.7516 40.3223 61.7516 40.3418C61.732 40.3418 61.7125 40.3418 61.693 40.3418C61.6734 40.3223 61.6441 40.3125 61.6051 40.3125C61.5855 40.3125 61.5758 40.3027 61.5758 40.2832L61.693 40.3125H61.5172H61.693H61.5172C61.5953 40.293 61.6344 40.2832 61.6344 40.2832C61.6539 40.2832 61.6832 40.2832 61.7223 40.2832C61.7613 40.2832 61.8004 40.2637 61.8395 40.2246H61.898L61.7516 40.2832C62.4742 39.9316 63.4508 39.2969 64.6813 38.3789C64.7984 38.3008 64.857 38.252 64.857 38.2324C64.8766 38.2129 64.9059 38.1934 64.9449 38.1738C64.984 38.1543 65.0133 38.1348 65.0328 38.1152L64.9449 38.1738C66.5855 36.9824 68.4313 35.1562 70.482 32.6953C70.482 32.6367 70.5113 32.5781 70.5699 32.5195L70.6578 32.4609L70.5699 32.5781L70.6285 32.4609C70.6676 32.3828 70.7066 32.3438 70.7457 32.3438L71.5953 31.1133C72.1031 30.4492 72.6891 30.1172 73.3531 30.1172C73.7047 30.1172 74.0855 30.2051 74.4957 30.3809C75.1988 30.7715 75.5504 31.3867 75.5504 32.2266C75.5504 32.5781 75.443 32.9199 75.2281 33.252C72.982 36.6113 70.15 39.5508 66.732 42.0703L66.6148 42.1582C64.6422 43.7012 62.9918 44.4727 61.6637 44.4727C60.7066 44.4727 59.7984 44.1406 58.9391 43.4766C57.8258 42.4219 57.2594 41.123 57.2398 39.5801C57.2398 38.2324 57.4352 36.8945 57.8258 35.5664V35.5078C58.5289 32.6758 59.8863 28.9844 61.898 24.4336C61.9371 24.375 61.9664 24.3066 61.9859 24.2285C63.2164 24.9316 64.4371 25.6445 65.648 26.3672C60.1793 34.2383 55.2281 39.834 50.7945 43.1543C49.525 44.1309 48.1188 44.8047 46.5758 45.1758C46.2242 45.2344 45.8824 45.2637 45.5504 45.2637ZM65.6047 66.9141C64.7844 66.9141 64.1984 66.5625 63.8469 65.8594C63.6711 65.5078 63.5832 65.1465 63.5832 64.7754C63.5832 64.5996 63.6027 64.4238 63.6418 64.248C65.634 54.8145 68.007 45.498 70.7609 36.2988C72.7141 29.7168 74.1887 24.6582 75.1848 21.123C75.341 20.5566 75.6633 20.1367 76.1516 19.8633C76.4836 19.6875 76.8449 19.5996 77.2355 19.5996C78.0559 19.5996 78.6516 19.9512 79.0227 20.6543C79.1984 20.9863 79.2863 21.3379 79.2863 21.709C79.2863 21.8848 79.2668 22.0703 79.2277 22.2656C78.8762 23.5742 77.6848 27.627 75.6535 34.4238C72.4113 45.4199 69.7551 55.7324 67.6848 65.3613C67.548 65.9473 67.2258 66.3672 66.718 66.6211C66.3664 66.8164 65.9953 66.9141 65.6047 66.9141ZM76.7668 46.8164C75.3605 46.8164 74.091 46.3379 72.9582 45.3809C71.884 44.4824 71.3469 43.3691 71.3469 42.041C71.3469 40.752 71.9035 39.5703 73.0168 38.4961C74.5402 37.0117 76.4348 35.791 78.7004 34.834C82.0207 33.7012 85.0578 32.8906 87.8117 32.4023C90.5852 31.8945 93.9738 31.2109 97.9777 30.3516C98.5441 30.2148 99.0129 30.3613 99.384 30.791C99.7746 31.2012 99.9797 31.6895 99.9992 32.2559C100.019 32.8613 99.8137 33.3594 99.384 33.75C98.9738 34.1211 98.4855 34.3164 97.9191 34.3359C95.8879 34.9023 93.1438 35.5273 89.6867 36.2109L88.3391 36.4746C86.4055 36.8848 84.9406 37.2168 83.9445 37.4707C82.968 37.7246 81.9914 38.0371 81.0148 38.4082L80.9563 38.4375C80.8391 38.4961 80.7512 38.5352 80.6926 38.5547C80.6535 38.5547 80.6242 38.5645 80.6047 38.584C80.6242 38.5645 80.673 38.5449 80.7512 38.5254L80.3996 38.6719C79.052 39.2773 77.8313 39.9902 76.7375 40.8105L76.6789 40.8398C76.6789 40.8594 76.6008 40.9375 76.4445 41.0742C76.2883 41.1914 76.132 41.3281 75.9758 41.4844L75.7707 41.6895L75.7414 41.7188L75.8586 41.6016L75.5363 42.041L75.6242 41.8652L75.5363 42.1875L75.5656 42.0117V42.1582L75.5363 41.9238L75.5656 42.1875V42.0703L75.7121 42.2754L75.5363 42.0996C75.6535 42.2559 75.7316 42.334 75.7707 42.334C75.8293 42.3926 75.8586 42.4316 75.8586 42.4512H75.8879L75.7414 42.334L76.0637 42.5098H75.9465L76.2395 42.5684L76.4738 42.5977C76.4738 42.6172 76.4152 42.627 76.298 42.627L76.3273 42.5977H76.5324H77.1477L77.0012 42.627C77.509 42.5293 78.007 42.3926 78.4953 42.2168L78.9641 42.041L78.9055 42.0703L78.759 42.1289L78.9641 42.041C80.175 41.4355 81.1711 40.8398 81.9523 40.2539L81.7766 40.3711L81.8059 40.3418C81.8449 40.3418 81.923 40.2832 82.0402 40.166C83.0949 39.2871 83.9152 38.4375 84.5012 37.6172C84.4621 37.6953 84.4328 37.7344 84.4133 37.7344L84.7648 37.2656C85.468 36.25 86.0441 35.2051 86.4934 34.1309L86.4055 34.3652C86.4055 34.3457 86.4055 34.3262 86.4055 34.3066C86.425 34.2871 86.4445 34.248 86.4641 34.1895C86.5031 34.1309 86.6105 33.8477 86.7863 33.3398C87.0793 32.4414 87.2746 31.6602 87.3723 30.9961C87.3918 30.8398 87.4211 30.7031 87.4602 30.5859L87.4895 30.498L87.4602 30.6738C87.5578 30.0098 87.6066 29.3457 87.6066 28.6816C87.6066 28.2715 87.5773 27.8613 87.5188 27.4512C87.4992 27.2559 87.4895 27.0898 87.4895 26.9531V26.7773V26.8652L87.5188 27.0117L87.343 26.25L87.0793 25.1074L87.1379 25.1367V25.2246C87.1184 25.2246 87.0891 25.2051 87.05 25.166C87.0305 25.127 87.0012 25.0684 86.9621 24.9902C86.923 24.9121 86.884 24.8438 86.8449 24.7852C86.884 24.8242 86.9035 24.8535 86.9035 24.873C86.923 24.873 86.9328 24.8828 86.9328 24.9023L86.9035 24.873C86.8645 24.873 86.8254 24.8438 86.7863 24.7852C86.7473 24.7266 86.718 24.6875 86.6984 24.668L86.7277 24.6973L86.2883 24.4629H86.3762L86.4348 24.5215L86.3176 24.4922C86.1809 24.4531 86.0441 24.4238 85.9074 24.4043C85.7902 24.3848 85.7219 24.3652 85.7023 24.3457H85.6438C85.7023 24.3652 85.7707 24.375 85.8488 24.375H84.9992C84.9406 24.375 84.8527 24.375 84.7355 24.375L84.8527 24.3457C84.4621 24.4043 84.0422 24.5117 83.593 24.668L83.0656 24.8438L83.2414 24.7559C83.2414 24.8145 83.1242 24.9023 82.8898 25.0195C82.1867 25.3711 81.7277 25.625 81.5129 25.7812L81.3371 25.8984L81.4836 25.7812C80.468 26.6602 79.8039 27.3047 79.4914 27.7148L79.3449 27.9199L79.3742 27.8906C79.3742 27.8711 79.384 27.8613 79.4035 27.8613C79.423 27.8418 79.4426 27.8223 79.4621 27.8027V27.7734L78.7883 28.7402C77.9875 29.9121 77.0207 31.7188 75.8879 34.1602C75.5559 34.8633 74.9699 35.2148 74.1301 35.2148C73.7395 35.2148 73.3781 35.1172 73.0461 34.9219C72.382 34.5508 72.05 33.9453 72.05 33.1055C72.05 32.3047 72.9387 30.3613 74.716 27.2754C76.6496 23.9551 79.2766 21.709 82.5969 20.5371C83.4563 20.2441 84.3156 20.0977 85.175 20.0977C86.0344 20.0977 86.884 20.2637 87.7238 20.5957C89.5988 21.2988 90.7902 22.6172 91.298 24.5508C91.6301 25.8008 91.7961 27.0801 91.7961 28.3887C91.7961 31.2207 91.2297 33.9062 90.0969 36.4453C88.4367 40.1758 85.7902 43.0957 82.1574 45.2051C80.3215 46.2793 78.5246 46.8164 76.7668 46.8164ZM103.266 45.0586C101.958 45.0586 100.639 44.7656 99.3113 44.1797C97.9832 43.5938 96.9383 42.6172 96.1766 41.25C95.6102 40.0781 95.327 38.877 95.327 37.6465C95.327 35.8691 95.8152 33.9453 96.7918 31.875C98.0418 29.2578 99.6629 26.8945 101.655 24.7852C103.921 22.2852 106.391 20.9961 109.067 20.918C110.376 20.918 111.626 21.2402 112.817 21.8848C114.028 22.5293 114.936 23.4473 115.542 24.6387C115.913 25.498 116.098 26.3379 116.098 27.1582C116.098 29.1309 115.151 31.0059 113.257 32.7832C110.776 35.0293 107.886 36.1523 104.585 36.1523C102.612 36.1523 100.718 35.6934 98.9012 34.7754C98.2176 34.4043 97.8758 33.7988 97.8758 32.959C97.8758 32.5879 97.9637 32.2266 98.1395 31.875C98.5301 31.2109 99.1355 30.8789 99.9559 30.8789C100.307 30.8789 100.747 31.0059 101.274 31.2598L101.596 31.4062C101.577 31.4062 101.557 31.4062 101.538 31.4062C101.518 31.4062 101.489 31.3965 101.45 31.377C101.411 31.3574 101.391 31.3379 101.391 31.3184L101.626 31.4062C102.036 31.6016 102.514 31.7383 103.061 31.8164C103.179 31.875 103.335 31.9043 103.53 31.9043L103.325 31.875C103.423 31.9141 103.813 31.9336 104.497 31.9336C105.161 31.9336 105.61 31.9141 105.845 31.875C105.747 31.9141 105.679 31.9336 105.639 31.9336H105.61L105.815 31.875C105.854 31.875 105.884 31.8652 105.903 31.8457C106.841 31.6895 107.563 31.4844 108.071 31.2305L107.837 31.3184C108.169 31.2012 108.559 31.0059 109.009 30.7324C109.458 30.459 109.712 30.293 109.77 30.2344L109.917 30.1172L109.741 30.2637L109.858 30.1758C110.698 29.3359 111.118 28.916 111.118 28.916L111.206 28.7988L111.089 28.9746V28.916C111.167 28.7988 111.225 28.7207 111.264 28.6816C111.304 28.623 111.343 28.5547 111.382 28.4766C111.479 28.3398 111.557 28.2129 111.616 28.0957C111.694 27.959 111.733 27.8906 111.733 27.8906C111.733 27.8711 111.743 27.8516 111.762 27.832L111.704 27.9492L111.88 27.4219L111.909 27.2461V26.8652L111.938 26.8359L111.968 26.8652C111.968 26.8848 111.968 26.9043 111.968 26.9238C111.968 26.9434 111.977 26.9629 111.997 26.9824C111.997 27.0215 111.987 27.041 111.968 27.041C111.948 27.0215 111.929 26.9922 111.909 26.9531C111.909 26.9141 111.899 26.875 111.88 26.8359C111.88 26.7969 111.87 26.7578 111.85 26.7188C111.831 26.6797 111.821 26.6406 111.821 26.6016C111.821 26.5625 111.831 26.543 111.85 26.543L111.938 26.748L111.85 26.6602C111.772 26.5039 111.723 26.4258 111.704 26.4258C111.704 26.4062 111.694 26.377 111.675 26.3379C111.655 26.2988 111.616 26.2402 111.557 26.1621L111.704 26.3086L111.089 25.7227L111.294 25.8984L110.386 25.3418V25.3125L110.591 25.459L110.356 25.3418C109.927 25.2246 109.663 25.166 109.565 25.166C109.487 25.1465 109.448 25.127 109.448 25.1074L109.477 25.0781L109.682 25.166C109.604 25.127 109.507 25.1074 109.389 25.1074C109.272 25.1074 109.165 25.1172 109.067 25.1367H108.804C108.686 25.1367 108.628 25.1465 108.628 25.166C108.628 25.127 108.696 25.1074 108.833 25.1074C108.794 25.1465 108.667 25.1855 108.452 25.2246C108.237 25.2637 108.052 25.3125 107.895 25.3711C107.759 25.4297 107.632 25.4785 107.514 25.5176L107.69 25.4297L107.514 25.5176C106.948 25.8301 106.587 26.0352 106.43 26.1328L106.225 26.2793L106.137 26.3672C106.137 26.3477 106.157 26.3281 106.196 26.3086C106.235 26.2891 106.264 26.2695 106.284 26.25L105.171 27.2461C104.663 27.7344 104.087 28.3789 103.442 29.1797L103.296 29.3555H103.325C103.325 29.3164 103.354 29.2676 103.413 29.209L103.12 29.6191C102.28 30.7129 101.44 32.0508 100.6 33.6328L100.512 33.8965C100.434 34.0137 100.395 34.1016 100.395 34.1602L100.425 34.043C100.054 34.9414 99.7898 35.8398 99.6336 36.7383L99.6043 36.9141L99.6336 36.7676C99.5945 37.0996 99.575 37.4316 99.575 37.7637V38.1445C99.575 38.3594 99.6434 38.6719 99.7801 39.082C99.7801 39.0234 99.7703 38.9746 99.7508 38.9355L99.868 39.1992C99.9266 39.3555 100.034 39.5117 100.19 39.668L100.044 39.5215C100.2 39.6973 100.366 39.8535 100.542 39.9902L100.659 40.1367C100.659 40.1172 100.649 40.1074 100.63 40.1074C100.63 40.0879 100.591 40.0488 100.512 39.9902L101.04 40.3418C101.118 40.3613 101.186 40.3906 101.245 40.4297C101.304 40.4688 101.343 40.498 101.362 40.5176C101.382 40.5176 101.391 40.5273 101.391 40.5469L101.333 40.4883C101.255 40.4688 101.216 40.4492 101.216 40.4297C101.762 40.6055 102.046 40.6934 102.065 40.6934C102.104 40.6934 102.163 40.7031 102.241 40.7227C102.319 40.7422 102.378 40.7617 102.417 40.7812C102.456 40.7812 102.485 40.7812 102.505 40.7812H102.387C102.739 40.8203 103.1 40.8398 103.471 40.8398L104.526 40.752H104.468L105.054 40.6641C106.323 40.3711 107.485 40.0391 108.54 39.668L109.448 39.3164L109.8 39.1699C109.78 39.1895 109.751 39.1992 109.712 39.1992C109.692 39.1992 109.673 39.2188 109.653 39.2578C109.653 39.2383 109.712 39.209 109.829 39.1699C111.509 38.4277 113.276 37.1973 115.132 35.4785C116.987 33.7402 118.345 32.4414 119.204 31.582C119.634 31.1719 120.132 30.9668 120.698 30.9668C121.245 30.9863 121.723 31.1914 122.134 31.582C122.563 31.9727 122.778 32.4414 122.778 32.9883C122.778 33.0273 122.768 33.1934 122.749 33.4863C122.749 33.7793 122.554 34.1406 122.163 34.5703C118.139 39.2578 113.706 42.4121 108.862 44.0332C106.831 44.7168 104.966 45.0586 103.266 45.0586ZM118.721 45.5273C118.448 45.5273 118.184 45.4688 117.93 45.3516C117.071 44.9805 116.641 44.3359 116.641 43.418C116.641 43.2422 116.661 43.0566 116.7 42.8613L122.002 20.2441C122.159 19.6777 122.491 19.2578 122.998 18.9844C123.35 18.8086 123.711 18.7207 124.082 18.7207C124.903 18.7207 125.498 19.0723 125.87 19.7754C126.045 20.127 126.133 20.4883 126.133 20.8594C126.133 21.1133 124.346 28.8184 120.772 43.9746L116.905 42.3633C118.409 38.9453 120.079 35.625 121.914 32.4023C123.594 29.4336 125.596 26.7188 127.92 24.2578C130.108 21.9141 132.12 20.4785 133.955 19.9512C134.346 19.834 134.746 19.7754 135.157 19.7754C135.938 19.7754 136.729 20 137.53 20.4492C138.506 21.0742 139.141 21.9434 139.434 23.0566C139.532 23.5254 139.6 23.9941 139.639 24.4629L139.698 24.9609L139.668 24.8438L139.698 25.1074C139.854 25.6934 139.952 26.0352 139.991 26.1328C140.03 26.2109 140.049 26.2793 140.049 26.3379L140.02 26.2207L140.43 27.041L140.87 27.6855L140.752 27.5391C141.28 28.0664 141.592 28.3691 141.69 28.4473L141.748 28.5352L141.719 28.5059C141.719 28.4863 141.7 28.4766 141.661 28.4766C141.641 28.457 141.621 28.4473 141.602 28.4473C141.602 28.4277 141.592 28.418 141.573 28.418V28.3887C141.592 28.3887 141.602 28.3984 141.602 28.418C141.602 28.418 141.621 28.4277 141.661 28.4473C141.7 28.4668 141.739 28.5059 141.778 28.5645C141.836 28.6035 142.237 28.8379 142.979 29.2676C143.448 29.5215 143.692 29.6484 143.711 29.6484H143.77L143.711 29.5898C143.653 29.5703 143.584 29.5605 143.506 29.5605C143.565 29.5605 143.614 29.5801 143.653 29.6191C143.711 29.6387 143.76 29.6484 143.799 29.6484C144.053 29.7461 144.307 29.8145 144.561 29.8535L144.912 29.9414H145C144.903 29.9414 144.844 29.9316 144.825 29.9121H144.795H144.883C145.664 29.9902 146.436 30.0293 147.198 30.0293C147.803 30.0488 148.301 30.2637 148.692 30.6738C149.102 31.084 149.307 31.6016 149.307 32.2266C149.307 32.7734 149.102 33.2422 148.692 33.6328C148.282 34.0234 147.784 34.2285 147.198 34.248H146.612C145.284 34.248 143.975 34.0723 142.686 33.7207C139.327 32.5488 137.1 30.4688 136.006 27.4805C135.616 26.3672 135.42 25.3125 135.42 24.3164V24.5215L135.362 24.1699V23.9941L135.391 24.1699L135.303 24.0234L135.332 24.0527L135.537 24.1992L135.274 24.0234L135.479 24.1113L135.186 24.0234H135.42H135.391C135.371 24.043 135.323 24.0527 135.245 24.0527C135.225 24.0527 135.196 24.0527 135.157 24.0527C135.137 24.0332 135.088 24.0234 135.01 24.0234C134.952 24.0234 134.922 24.0137 134.922 23.9941H135.186L134.483 24.1699C134.483 24.1309 134.532 24.1113 134.629 24.1113L134.571 24.1406C134.551 24.1797 134.434 24.2578 134.219 24.375C134.004 24.4922 133.77 24.6484 133.516 24.8438L133.633 24.7559L133.604 24.7852C133.565 24.8242 133.506 24.8633 133.428 24.9023L133.34 24.9902C131.758 26.2598 130.342 27.6953 129.092 29.2969L128.829 29.5898C128.789 29.707 128.741 29.7852 128.682 29.8242L128.594 29.8828C128.614 29.8828 128.623 29.873 128.623 29.8535C128.643 29.834 128.653 29.8242 128.653 29.8242C128.672 29.8047 128.692 29.7754 128.711 29.7363L127.276 31.7578C125.166 34.9414 122.93 39.1797 120.567 44.4727C120.215 45.1758 119.6 45.5273 118.721 45.5273ZM154.215 45.3809C152.691 45.3809 151.256 45.0879 149.908 44.502C148.58 43.916 147.506 43.0273 146.686 41.8359C145.865 40.5664 145.455 39.0723 145.455 37.3535C145.455 36.2988 145.572 35.2734 145.807 34.2773C146.314 32.0703 147.232 30.0391 148.561 28.1836C150.006 26.1719 151.725 24.4336 153.717 22.9688C156.178 21.0742 158.521 20.0781 160.748 19.9805C162.115 19.9805 163.355 20.3223 164.469 21.0059C165.582 21.6895 166.344 22.6758 166.754 23.9648C166.852 24.3945 166.9 24.8145 166.9 25.2246C166.9 26.0449 166.646 26.9531 166.139 27.9492C165.631 28.9258 164.723 29.5605 163.414 29.8535L162.887 29.8828C161.91 29.8828 161.217 29.3848 160.807 28.3887C160.748 28.1934 160.719 28.0078 160.719 27.832C160.719 27.4805 160.836 27.0898 161.07 26.6602C161.324 26.2109 161.725 25.918 162.271 25.7812C162.291 25.7812 162.33 25.7812 162.389 25.7812C162.467 25.7617 162.545 25.7324 162.623 25.6934H162.652C162.633 25.7129 162.604 25.7324 162.564 25.752C162.545 25.752 162.516 25.7617 162.477 25.7812C162.457 25.7812 162.438 25.7812 162.418 25.7812V25.752L162.623 25.6934C162.643 25.6934 162.652 25.7031 162.652 25.7227L162.477 25.7812C162.477 25.7617 162.477 25.752 162.477 25.752C162.496 25.752 162.506 25.752 162.506 25.752C162.525 25.7324 162.564 25.6934 162.623 25.6348V25.6055L162.477 25.8398L162.623 25.5762L162.711 25.4883V25.5176L162.564 25.6641L162.682 25.4297C162.682 25.4102 162.682 25.3711 162.682 25.3125C162.701 25.2539 162.721 25.2148 162.74 25.1953C162.721 25.2148 162.711 25.2637 162.711 25.3418V25.1074L162.652 25.0781L162.74 25.2539H162.711C162.672 25.0977 162.652 24.9805 162.652 24.9023H162.623C162.623 25 162.643 25.0684 162.682 25.1074H162.711L162.682 25.0488C162.623 24.9316 162.564 24.8535 162.506 24.8145C162.467 24.7754 162.438 24.7559 162.418 24.7559L162.594 24.9023C162.379 24.6875 162.271 24.5703 162.271 24.5508C162.311 24.5703 162.33 24.5801 162.33 24.5801L162.389 24.6094C162.428 24.6484 162.447 24.6777 162.447 24.6973L162.359 24.668C162.184 24.5312 161.979 24.4141 161.744 24.3164L161.891 24.375L161.832 24.3457H161.715C161.559 24.2676 161.383 24.2188 161.188 24.1992L160.338 24.2285C160.396 24.2285 160.436 24.2188 160.455 24.1992H160.484C160.465 24.2188 160.426 24.2383 160.367 24.2578C160.309 24.2578 160.23 24.2676 160.133 24.2871C160.055 24.3066 159.957 24.3359 159.84 24.375C159.723 24.3945 159.605 24.4336 159.488 24.4922C159.391 24.5312 159.322 24.5508 159.283 24.5508C159.244 24.5508 159.195 24.5605 159.137 24.5801H159.166C159.186 24.5801 159.215 24.5605 159.254 24.5215C158.512 24.8535 157.564 25.4102 156.412 26.1914C155.963 26.5039 155.729 26.6699 155.709 26.6895C155.709 26.6895 155.709 26.6992 155.709 26.7188C155.709 26.6992 155.729 26.6797 155.768 26.6602C155.807 26.6406 155.826 26.6211 155.826 26.6016V26.6309L155.709 26.7188C154.459 27.7148 153.355 28.8184 152.398 30.0293L152.516 29.8828L152.047 30.5273C151.52 31.2891 151.061 32.0801 150.67 32.9004L150.553 33.1934L150.582 33.1348C150.582 33.0957 150.592 33.0664 150.611 33.0469C150.611 33.0859 150.592 33.125 150.553 33.1641V33.252L150.523 33.2812C150.113 34.3164 149.84 35.3125 149.703 36.2695C149.723 36.25 149.732 36.2207 149.732 36.1816L149.674 37.3242C149.674 37.7148 149.684 37.9883 149.703 38.1445V37.998L149.674 37.9395L149.703 37.9688V38.1445L149.996 39.1992L149.938 39.082H149.967L150.318 39.6973C150.279 39.6582 150.26 39.6289 150.26 39.6094C150.26 39.5703 150.25 39.5508 150.23 39.5508V39.5801C150.504 39.8926 150.641 40.0488 150.641 40.0488C150.66 40.0488 150.67 40.0586 150.67 40.0781C150.689 40.0977 150.709 40.1172 150.729 40.1367C150.748 40.1367 150.768 40.1465 150.787 40.166C150.826 40.1855 150.846 40.2051 150.846 40.2246L150.729 40.1074C150.729 40.127 150.738 40.1465 150.758 40.166C150.777 40.166 150.787 40.1758 150.787 40.1953C150.807 40.1953 150.826 40.1953 150.846 40.1953L150.875 40.2246C151.246 40.4785 151.568 40.6543 151.842 40.752L151.695 40.6934C151.715 40.7129 151.773 40.7324 151.871 40.752C152.359 40.9277 152.867 41.0645 153.395 41.1621L153.277 41.1328L153.629 41.1621H154.098C154.645 41.1621 155.064 41.1426 155.357 41.1035H155.27L155.328 41.0742C155.465 41.0742 155.553 41.0645 155.592 41.0449C155.865 41.0449 156.383 40.9277 157.145 40.6934C157.906 40.4395 158.473 40.2246 158.844 40.0488C158.883 40.0488 158.912 40.0391 158.932 40.0195C158.912 40.0391 158.893 40.0488 158.873 40.0488C158.873 40.0488 158.844 40.0586 158.785 40.0781L159.166 39.9316C160.221 39.4434 161.393 38.8281 162.682 38.0859L163.033 37.8809C165.396 36.5527 167.467 35.2734 169.244 34.043L169.771 33.6328H169.801C169.801 33.6133 169.83 33.584 169.889 33.5449C169.947 33.4863 170.016 33.4375 170.094 33.3984C170.934 32.7148 171.715 31.9824 172.438 31.2012C172.848 30.791 173.316 30.5859 173.844 30.5859H174.342C174.635 30.6055 174.986 30.8105 175.396 31.2012C175.826 31.5918 176.041 32.0508 176.041 32.5781V33.0762C176.021 33.3887 175.816 33.7598 175.426 34.1895C173.434 36.2207 171.207 37.959 168.746 39.4043C166.461 40.8691 164.107 42.1973 161.686 43.3887C158.932 44.7168 156.441 45.3809 154.215 45.3809ZM194.191 45.498C192.511 45.498 191.203 44.873 190.265 43.623C189.757 42.7637 189.504 41.6992 189.504 40.4297C189.699 38.3594 190.129 36.3281 190.793 34.3359C191.398 32.3438 191.798 30.6543 191.994 29.2676L192.023 29.1211L191.994 29.3848C192.033 29.1895 192.052 28.9551 192.052 28.6816C192.111 28.252 192.14 27.8223 192.14 27.3926C192.14 27.1191 192.121 26.9043 192.082 26.748V26.3672L192.111 26.4844V26.6016C192.091 26.582 192.072 26.5527 192.052 26.5137C192.052 26.4551 192.052 26.4062 192.052 26.3672C191.935 25.8984 191.847 25.625 191.789 25.5469C191.75 25.4688 191.73 25.4102 191.73 25.3711H191.759C191.759 25.3906 191.769 25.4199 191.789 25.459C191.828 25.498 191.857 25.5176 191.877 25.5176C191.857 25.5176 191.837 25.5078 191.818 25.4883C191.798 25.4492 191.779 25.4199 191.759 25.4004C191.74 25.3613 191.72 25.3418 191.701 25.3418C191.701 25.3223 191.691 25.293 191.671 25.2539C191.652 25.1953 191.623 25.1367 191.584 25.0781C191.545 25.0195 191.515 24.9805 191.496 24.9609C191.535 24.9805 191.564 25.0098 191.584 25.0488C191.623 25.0684 191.652 25.0879 191.671 25.1074H191.613C191.593 25.1074 191.515 25.0391 191.379 24.9023L191.32 24.873H191.379L191.496 24.9902C191.32 24.8535 191.173 24.7656 191.056 24.7266C191.095 24.7461 191.125 24.7656 191.144 24.7852C191.183 24.8047 191.212 24.8145 191.232 24.8145H191.261H191.232C190.998 24.7168 190.802 24.6484 190.646 24.6094V24.6387H190.88L190.705 24.6094L190.529 24.6387H190.207L190.236 24.6094H190.441C190.324 24.6094 190.168 24.6582 189.972 24.7559H189.826L189.855 24.7266L190.002 24.6973H189.972C189.953 24.7168 189.914 24.7461 189.855 24.7852C189.796 24.8242 189.738 24.8633 189.679 24.9023C189.64 24.9219 189.601 24.9512 189.562 24.9902L189.65 24.9023H189.679L189.386 25.1367C189.093 25.4102 188.83 25.6934 188.595 25.9863V26.0156C188.439 26.1719 188.361 26.2695 188.361 26.3086L188.42 26.1914C188.302 26.3672 188.175 26.5332 188.039 26.6895C186.652 28.6816 185.363 30.6934 184.171 32.7246C182.843 34.9902 181.466 37.2168 180.041 39.4043C177.951 42.8613 175.92 44.6777 173.947 44.8535C173.205 44.834 172.57 44.5801 172.043 44.0918C171.3 43.4277 170.929 42.5098 170.929 41.3379C170.929 41.1621 170.988 40.6055 171.105 39.668C171.398 37.1094 171.701 34.8535 172.013 32.9004C173.42 24.3457 175.324 16.6602 177.726 9.84375C178.351 8.00781 179.113 6.24023 180.011 4.54102C181.398 1.96289 183.097 0.673828 185.109 0.673828L185.666 0.703125C187.287 0.976562 188.468 1.83594 189.211 3.28125C189.621 4.29688 189.826 5.33203 189.826 6.38672C189.826 6.95312 189.767 7.51953 189.65 8.08594C189.396 9.53125 189.035 10.957 188.566 12.3633C188.507 12.5 188.459 12.6465 188.42 12.8027C187.892 14.4434 187.277 16.0547 186.574 17.6367C183.859 23.418 180.275 28.6035 175.822 33.1934C175.412 33.6035 174.943 33.8086 174.416 33.8086H173.947C173.654 33.7891 173.283 33.584 172.834 33.1934C172.443 32.8027 172.248 32.3438 172.248 31.8164V31.3184C172.267 31.0059 172.462 30.6445 172.834 30.2344C173.849 29.1797 174.816 28.0859 175.734 26.9531L176.789 25.6641C176.75 25.7031 176.73 25.7324 176.73 25.752C176.73 25.752 176.72 25.752 176.701 25.752L176.73 25.7227C176.73 25.7227 176.75 25.7031 176.789 25.6641C176.847 25.625 176.877 25.5762 176.877 25.5176C178.048 24.0332 179.269 22.2266 180.539 20.0977C181.593 18.3008 182.443 16.6309 183.087 15.0879C183.107 15.0879 183.117 15.0781 183.117 15.0586C183.136 15.0195 183.146 14.9805 183.146 14.9414C183.166 14.9023 183.175 14.873 183.175 14.8535C183.195 14.834 183.214 14.8145 183.234 14.7949L183.175 14.9121C183.39 14.4043 183.722 13.5254 184.171 12.2754C184.796 10.498 185.255 8.79883 185.548 7.17773V7.29492H185.519L185.548 7.26562C185.548 7.16797 185.558 7.09961 185.578 7.06055V6.97266C185.597 6.67969 185.607 6.31836 185.607 5.88867V5.56641L185.636 5.5957V5.80078V5.77148C185.617 5.75195 185.597 5.72266 185.578 5.68359C185.558 5.625 185.548 5.56641 185.548 5.50781L185.402 5.06836C185.441 5.12695 185.47 5.19531 185.49 5.27344C185.49 5.25391 185.47 5.21484 185.431 5.15625C185.412 5.09766 185.382 5.03906 185.343 4.98047C185.304 4.92188 185.275 4.88281 185.255 4.86328C185.353 4.92188 185.412 4.96094 185.431 4.98047C185.451 4.98047 185.461 4.99023 185.461 5.00977C185.402 4.99023 185.373 4.98047 185.373 4.98047L185.197 4.86328V4.83398C185.216 4.83398 185.226 4.84375 185.226 4.86328C185.246 4.86328 185.265 4.87305 185.285 4.89258C185.304 4.91211 185.324 4.93164 185.343 4.95117C185.363 4.95117 185.382 4.95117 185.402 4.95117C185.402 4.9707 185.392 4.98047 185.373 4.98047L185.226 4.92188C185.187 4.90234 185.148 4.89258 185.109 4.89258C185.089 4.87305 185.07 4.86328 185.05 4.86328C185.031 4.84375 185.021 4.82422 185.021 4.80469C185.041 4.82422 185.08 4.84375 185.138 4.86328C185.197 4.88281 185.236 4.89258 185.255 4.89258L185.285 4.92188L185.226 4.89258C185.187 4.89258 185.158 4.88281 185.138 4.86328C185.119 4.84375 185.06 4.82422 184.962 4.80469V4.77539H185.08L185.285 4.83398C185.265 4.85352 185.226 4.86328 185.168 4.86328H184.962C184.962 4.88281 184.982 4.89258 185.021 4.89258C185.06 4.89258 185.129 4.87305 185.226 4.83398H185.285V4.80469L185.021 4.89258V4.86328L185.285 4.74609C185.285 4.76563 185.177 4.83398 184.962 4.95117L184.845 5.03906V5.06836L184.435 5.47852L184.318 5.6543C184.337 5.6543 184.367 5.63477 184.406 5.5957C184.445 5.53711 184.464 5.48828 184.464 5.44922C184.445 5.46875 184.416 5.50781 184.377 5.56641C184.357 5.60547 184.328 5.64453 184.289 5.68359C184.25 5.72266 184.23 5.75195 184.23 5.77148C183.722 6.5332 183.283 7.32422 182.912 8.14453C182.716 8.63281 182.57 8.97461 182.472 9.16992C182.472 9.18945 182.462 9.19922 182.443 9.19922L182.589 8.90625L182.179 9.87305C181.457 11.7676 180.812 13.6816 180.246 15.6152C178.761 20.6348 177.55 25.7227 176.613 30.8789C176.086 33.9062 175.763 35.9668 175.646 37.0605L175.617 37.1191L175.646 37.002C175.627 37.041 175.617 37.0996 175.617 37.1777C175.617 37.2363 175.607 37.3047 175.587 37.3828C175.509 37.832 175.461 38.2715 175.441 38.7012C175.246 40.3809 175.148 41.3379 175.148 41.5723L175.119 41.3672L175.031 41.1914L175.089 41.3086L175.06 41.25C175.021 41.2305 174.972 41.2012 174.914 41.1621C174.875 41.1035 174.855 41.0449 174.855 40.9863L174.914 41.0449C174.621 40.7715 174.289 40.6348 173.918 40.6348H173.947C173.908 40.6738 173.8 40.6934 173.625 40.6934L173.742 40.6348C173.546 40.6934 173.449 40.7324 173.449 40.752L173.712 40.6055L173.918 40.4883C173.8 40.6055 173.732 40.6641 173.712 40.6641L173.654 40.6934C173.654 40.6543 173.771 40.5371 174.005 40.3418C174.337 40.0293 174.65 39.6973 174.943 39.3457L175.031 39.2285C175.129 39.1309 175.187 39.0723 175.207 39.0527C175.226 39.0137 175.246 38.9941 175.265 38.9941L175.06 39.1992C175.412 38.8086 175.734 38.3691 176.027 37.8809C178.254 34.3066 179.601 32.1289 180.07 31.3477C181.632 28.6133 183.361 25.9863 185.255 23.4668C186.173 22.1777 187.365 21.25 188.83 20.6836C189.416 20.5078 190.002 20.4199 190.587 20.4199C191.525 20.4199 192.443 20.6641 193.341 21.1523C195.353 22.3828 196.359 24.502 196.359 27.5098L196.33 28.125C196.095 30.8008 195.558 33.4277 194.718 36.0059C194.347 37.2754 194.035 38.5645 193.781 39.873C193.761 39.9121 193.752 39.9609 193.752 40.0195C193.752 40.0781 193.742 40.1367 193.722 40.1953L193.781 39.8438V39.9609C193.761 40 193.742 40.0977 193.722 40.2539C193.722 40.3906 193.722 40.5371 193.722 40.6934C193.722 41.084 193.732 41.2891 193.752 41.3086V41.1621L193.693 40.9863L193.839 41.4551H193.81C193.81 41.4551 193.8 41.4453 193.781 41.4258C193.761 41.3867 193.742 41.3477 193.722 41.3086C193.722 41.2695 193.722 41.2305 193.722 41.1914L193.693 41.1621L193.722 41.2207C193.742 41.2598 193.761 41.2988 193.781 41.3379C193.82 41.377 193.849 41.3965 193.869 41.3965V41.4258L193.634 41.1621L193.869 41.3672H193.839C193.742 41.2695 193.683 41.2207 193.664 41.2207C193.644 41.2012 193.634 41.1816 193.634 41.1621C193.634 41.1816 193.644 41.2012 193.664 41.2207C193.683 41.2402 193.703 41.2598 193.722 41.2793C193.761 41.2988 193.8 41.3086 193.839 41.3086L193.898 41.3379C193.82 41.3379 193.752 41.3086 193.693 41.25H193.634C193.634 41.2305 193.654 41.2207 193.693 41.2207C193.81 41.2793 193.898 41.3086 193.957 41.3086C193.957 41.3281 193.947 41.3379 193.927 41.3379L193.869 41.3086H193.722V41.2793H194.484L194.513 41.25H194.66C194.718 41.25 194.865 41.2109 195.099 41.1328C195.138 41.1328 195.187 41.123 195.246 41.1035C195.304 41.0645 195.373 41.0449 195.451 41.0449L195.216 41.1328L195.451 40.9863C195.724 40.8496 195.88 40.752 195.92 40.6934C195.978 40.6348 196.056 40.5859 196.154 40.5469C195.998 40.5859 195.92 40.6348 195.92 40.6934H195.949C195.968 40.6934 196.007 40.6641 196.066 40.6055C196.73 40.0195 197.062 39.6777 197.062 39.5801L197.091 39.5508C197.15 39.4727 197.189 39.4336 197.209 39.4336L197.033 39.6387L197.15 39.4922L197.209 39.375C197.443 39.0625 197.814 38.4473 198.322 37.5293L198.849 36.3867L198.732 36.6211L198.996 35.9766C199.289 35.2148 199.65 34.1406 200.08 32.7539C200.431 31.7383 201.115 31.2305 202.13 31.2305C202.951 31.2305 203.556 31.582 203.947 32.2852C204.142 32.6172 204.24 32.959 204.24 33.3105C204.24 33.584 203.927 34.6387 203.302 36.4746C202.814 37.8809 202.17 39.2773 201.369 40.6641C199.494 43.8867 197.101 45.498 194.191 45.498ZM205.134 44.8828L204.402 44.8535C201.999 44.5801 200.3 43.3203 199.304 41.0742C198.777 39.8828 198.513 38.6719 198.513 37.4414C198.513 36.2695 198.738 35.0879 199.187 33.8965C201.257 28.3301 203.982 24.4531 207.361 22.2656C208.904 21.25 210.583 20.7422 212.4 20.7422C213.005 20.7422 213.63 20.8105 214.275 20.9473C216.579 21.4746 218.269 22.7832 219.343 24.873C219.851 25.8887 220.105 26.9922 220.105 28.1836V31.2891C220.105 31.2109 220.114 31.1719 220.134 31.1719C220.134 31.3672 220.154 31.5332 220.193 31.6699C220.251 31.9043 220.28 32.1094 220.28 32.2852C220.28 33.3008 219.773 33.9844 218.757 34.3359C218.562 34.3945 218.366 34.4238 218.171 34.4238C216.667 34.4238 215.915 33.0859 215.915 30.4102L215.827 27.6855C215.808 27.2168 215.769 26.9043 215.71 26.748C215.749 26.8066 215.769 26.875 215.769 26.9531L215.388 26.2793H215.446L215.505 26.4258L215.359 26.2793C215.105 25.9668 214.89 25.752 214.714 25.6348C214.714 25.6543 214.724 25.6738 214.743 25.6934C214.763 25.6934 214.773 25.7031 214.773 25.7227C214.792 25.7227 214.812 25.7227 214.831 25.7227C214.851 25.7227 214.861 25.7324 214.861 25.752V25.7227C214.821 25.7227 214.704 25.6641 214.509 25.5469C214.157 25.332 213.933 25.2051 213.835 25.166C213.874 25.2051 213.913 25.2246 213.952 25.2246C213.464 25.0488 213.113 24.9609 212.898 24.9609L213.132 24.9902C212.839 24.9902 212.556 24.9805 212.282 24.9609C212.126 24.9414 211.941 24.9512 211.726 24.9902C211.101 25.1074 210.622 25.2539 210.29 25.4297C210.29 25.4102 210.3 25.4004 210.32 25.4004C210.339 25.4004 210.349 25.4004 210.349 25.4004C210.368 25.3809 210.398 25.3613 210.437 25.3418C210.359 25.4199 210.202 25.5176 209.968 25.6348C209.616 25.8105 209.275 26.0059 208.943 26.2207C208.904 26.2598 208.864 26.2891 208.825 26.3086C208.806 26.3086 208.786 26.3184 208.767 26.3379C208.767 26.3379 208.738 26.3672 208.679 26.4258V26.3965L208.796 26.3379C208.679 26.3965 208.532 26.5137 208.357 26.6895C207.888 27.0996 207.458 27.5586 207.068 28.0664C207.048 28.0664 207.029 28.0762 207.009 28.0957C207.009 28.1152 206.999 28.1348 206.98 28.1543C206.98 28.1543 206.95 28.1934 206.892 28.2715C206.911 28.2324 206.931 28.2129 206.95 28.2129C206.931 28.2129 206.921 28.2227 206.921 28.2422L206.599 28.7109C205.544 30.2539 204.577 32.002 203.698 33.9551L203.552 34.2773C203.122 35.3516 202.868 36.2695 202.79 37.0312L202.702 38.1152C202.702 38.252 202.8 38.6133 202.995 39.1992L202.937 39.1113C203.21 39.6777 203.366 39.9805 203.405 40.0195C203.464 40.0391 203.503 40.0684 203.523 40.1074C203.445 40.0098 203.405 39.9414 203.405 39.9023C203.405 39.9219 203.405 39.9414 203.405 39.9609C203.425 39.9609 203.435 39.9707 203.435 39.9902C203.454 40.0098 203.523 40.0781 203.64 40.1953C203.874 40.4297 204.011 40.5469 204.05 40.5469L203.962 40.4883C204.021 40.5273 204.06 40.5664 204.079 40.6055C204.118 40.625 204.206 40.6641 204.343 40.7227C204.382 40.7422 204.402 40.7617 204.402 40.7812C204.382 40.7617 204.353 40.752 204.314 40.752C204.275 40.7324 204.245 40.7227 204.226 40.7227C204.226 40.7031 204.216 40.6836 204.196 40.6641C204.255 40.7227 204.45 40.791 204.782 40.8691L204.607 40.8398C204.919 40.8398 205.144 40.8301 205.28 40.8105L205.105 40.8398C205.515 40.7031 205.749 40.6348 205.808 40.6348L205.691 40.6934C206.081 40.498 206.462 40.2734 206.833 40.0195C206.853 40.0195 206.872 40.0098 206.892 39.9902C206.931 39.9512 206.98 39.9219 207.038 39.9023C207.195 39.8047 207.273 39.7363 207.273 39.6973C207.273 39.7168 207.253 39.7461 207.214 39.7852C211.53 36.1914 215.437 32.168 218.933 27.7148C219.265 27.2852 219.704 27.0703 220.251 27.0703C220.798 27.0703 221.267 27.2266 221.657 27.5391C222.204 28.0078 222.478 28.5352 222.478 29.1211C222.478 29.4727 222.39 29.8438 222.214 30.2344C221.999 30.7422 221.794 31.2598 221.599 31.7871C220.798 34.0332 220.271 35.9473 220.017 37.5293H219.988L220.017 37.3535C220.134 38.3691 220.466 39.1406 221.013 39.668L220.925 39.6387H220.984C221.198 39.8535 221.462 39.9609 221.775 39.9609L221.57 39.9902L221.775 39.9316C223.571 39.541 225.173 38.8184 226.579 37.7637H226.55L226.462 37.8516C228.259 36.4062 230.251 34.2773 232.439 31.4648C232.751 31.0547 233.161 30.8496 233.669 30.8496C233.728 30.8496 233.923 30.8594 234.255 30.8789C234.587 30.8984 234.948 31.1035 235.339 31.4941C235.749 31.8652 235.954 32.2949 235.954 32.7832C235.954 32.8418 235.945 33.0176 235.925 33.3105C235.905 33.6035 235.72 33.9746 235.368 34.4238C233.611 36.7676 231.736 38.8086 229.743 40.5469C227.829 42.2266 225.632 43.3008 223.152 43.7695C222.937 43.8086 222.702 43.8379 222.448 43.8574C221.159 44.0137 219.861 43.7012 218.552 42.9199C216.716 41.8066 215.798 40.166 215.798 37.998C215.798 37.1973 215.896 36.3965 216.091 35.5957C216.677 33.0371 217.507 30.5371 218.581 28.0957L221.892 30.6738C218.63 34.8535 214.997 38.6816 210.993 42.1582C208.864 44.0137 206.911 44.9219 205.134 44.8828ZM231.927 45.5273C231.653 45.5273 231.389 45.4688 231.136 45.3516C230.276 44.9805 229.846 44.3359 229.846 43.418C229.846 43.2422 229.866 43.0566 229.905 42.8613L235.208 20.2441C235.364 19.6777 235.696 19.2578 236.204 18.9844C236.555 18.8086 236.917 18.7207 237.288 18.7207C238.108 18.7207 238.704 19.0723 239.075 19.7754C239.251 20.127 239.339 20.4883 239.339 20.8594C239.339 21.1133 237.552 28.8184 233.977 43.9746L230.11 42.3633C231.614 38.9453 233.284 35.625 235.12 32.4023C236.8 29.4336 238.802 26.7188 241.126 24.2578C243.313 21.9141 245.325 20.4785 247.161 19.9512C247.552 19.834 247.952 19.7754 248.362 19.7754C249.143 19.7754 249.934 20 250.735 20.4492C251.712 21.0742 252.346 21.9434 252.639 23.0566C252.737 23.5254 252.805 23.9941 252.845 24.4629L252.903 24.9609L252.874 24.8438L252.903 25.1074C253.059 25.6934 253.157 26.0352 253.196 26.1328C253.235 26.2109 253.255 26.2793 253.255 26.3379L253.225 26.2207L253.636 27.041L254.075 27.6855L253.958 27.5391C254.485 28.0664 254.798 28.3691 254.895 28.4473L254.954 28.5352L254.925 28.5059C254.925 28.4863 254.905 28.4766 254.866 28.4766C254.846 28.457 254.827 28.4473 254.807 28.4473C254.807 28.4277 254.798 28.418 254.778 28.418V28.3887C254.798 28.3887 254.807 28.3984 254.807 28.418C254.807 28.418 254.827 28.4277 254.866 28.4473C254.905 28.4668 254.944 28.5059 254.983 28.5645C255.042 28.6035 255.442 28.8379 256.184 29.2676C256.653 29.5215 256.897 29.6484 256.917 29.6484H256.975L256.917 29.5898C256.858 29.5703 256.79 29.5605 256.712 29.5605C256.77 29.5605 256.819 29.5801 256.858 29.6191C256.917 29.6387 256.966 29.6484 257.005 29.6484C257.259 29.7461 257.512 29.8145 257.766 29.8535L258.118 29.9414H258.206C258.108 29.9414 258.05 29.9316 258.03 29.9121H258.001H258.089C258.87 29.9902 259.641 30.0293 260.403 30.0293C261.009 30.0488 261.507 30.2637 261.897 30.6738C262.307 31.084 262.512 31.6016 262.512 32.2266C262.512 32.7734 262.307 33.2422 261.897 33.6328C261.487 34.0234 260.989 34.2285 260.403 34.248H259.817C258.489 34.248 257.18 34.0723 255.891 33.7207C252.532 32.5488 250.305 30.4688 249.212 27.4805C248.821 26.3672 248.626 25.3125 248.626 24.3164V24.5215L248.567 24.1699V23.9941L248.596 24.1699L248.509 24.0234L248.538 24.0527L248.743 24.1992L248.479 24.0234L248.684 24.1113L248.391 24.0234H248.626H248.596C248.577 24.043 248.528 24.0527 248.45 24.0527C248.43 24.0527 248.401 24.0527 248.362 24.0527C248.343 24.0332 248.294 24.0234 248.216 24.0234C248.157 24.0234 248.128 24.0137 248.128 23.9941H248.391L247.688 24.1699C247.688 24.1309 247.737 24.1113 247.835 24.1113L247.776 24.1406C247.757 24.1797 247.639 24.2578 247.425 24.375C247.21 24.4922 246.975 24.6484 246.721 24.8438L246.839 24.7559L246.809 24.7852C246.77 24.8242 246.712 24.8633 246.634 24.9023L246.546 24.9902C244.964 26.2598 243.548 27.6953 242.298 29.2969L242.034 29.5898C241.995 29.707 241.946 29.7852 241.887 29.8242L241.8 29.8828C241.819 29.8828 241.829 29.873 241.829 29.8535C241.848 29.834 241.858 29.8242 241.858 29.8242C241.878 29.8047 241.897 29.7754 241.917 29.7363L240.481 31.7578C238.372 34.9414 236.136 39.1797 233.772 44.4727C233.421 45.1758 232.805 45.5273 231.927 45.5273ZM256.991 71.3672C255.936 71.3672 255.047 71.2109 254.325 70.8984C253.016 70.2539 252.293 68.9551 252.157 67.002C252.157 65.2441 252.411 63.6328 252.918 62.168C253.485 60.4102 254.276 58.75 255.291 57.1875C259.471 50.8398 264.657 45.459 270.848 41.0449C274.891 38.1543 280.584 34.7461 287.928 30.8203C288.69 30.4102 289.246 30.2051 289.598 30.2051C290.36 30.2051 290.975 30.5469 291.444 31.2305C291.639 31.5625 291.737 31.9043 291.737 32.2559C291.737 33.0762 291.385 33.7012 290.682 34.1309L288.543 35.3027C281.786 38.8574 276.239 42.2559 271.903 45.498L271.551 45.7617C271.532 45.7812 271.512 45.791 271.493 45.791C271.493 45.8105 271.483 45.8203 271.463 45.8203C271.444 45.8398 271.424 45.8496 271.405 45.8496C271.405 45.8691 271.385 45.8789 271.346 45.8789C271.327 45.8984 270.946 46.2109 270.204 46.8164C267.489 49.0625 265.038 51.4551 262.85 53.9941C261.893 55.1465 261.414 55.7422 261.414 55.7812C261.414 55.7617 261.444 55.7227 261.502 55.6641V55.6348L261.385 55.8105C260.272 57.2168 259.256 58.7012 258.338 60.2637C257.948 60.9668 257.674 61.5137 257.518 61.9043H257.489L257.459 62.0215L257.43 62.0508L257.489 61.9336L257.401 62.1387C257.108 62.8613 256.873 63.6035 256.698 64.3652C256.502 65.1465 256.405 65.6152 256.405 65.7715L256.434 65.5664C256.434 65.7422 256.414 65.9082 256.375 66.0645V67.002C256.395 67.0215 256.405 67.0996 256.405 67.2363V67.0898L256.463 67.3242L256.493 67.4414C256.434 67.3633 256.405 67.2949 256.405 67.2363L256.493 67.4121V67.3535L256.317 67.1484C256.317 67.168 256.327 67.1777 256.346 67.1777C256.366 67.1973 256.395 67.2168 256.434 67.2363C256.454 67.2754 256.473 67.2949 256.493 67.2949V67.3535L256.17 67.0898L256.346 67.207L256.375 67.1777C256.375 67.1582 256.366 67.1387 256.346 67.1191C256.327 67.1191 256.297 67.1094 256.258 67.0898C256.219 67.0703 256.19 67.0605 256.17 67.0605L256.053 67.0898L256.082 67.0605L256.141 67.0898H256.346L256.405 67.1191H256.375C256.356 67.1387 256.317 67.1484 256.258 67.1484H257.137L257.371 67.1191L257.196 67.1484L257.225 67.1191C257.362 67.1191 257.44 67.1094 257.459 67.0898C257.713 67.0898 258.123 66.9824 258.69 66.7676L259.246 66.5918C259.246 66.6113 259.237 66.6211 259.217 66.6211C259.198 66.6406 259.168 66.6504 259.129 66.6504C259.09 66.6699 259.061 66.6797 259.041 66.6797L259.012 66.709L259.188 66.5918C259.305 66.5918 259.666 66.3672 260.272 65.918L260.653 65.625V65.6543L260.536 65.7422C260.536 65.7031 260.594 65.6543 260.711 65.5957C260.75 65.5762 260.78 65.5469 260.799 65.5078C262.03 64.5508 263.319 63.2422 264.666 61.582V61.5527L264.579 61.6699L264.842 61.3477C266.561 59.043 268.231 55.9766 269.852 52.1484C269.891 52.1094 269.93 52.0312 269.969 51.9141C270.028 51.7969 270.057 51.7188 270.057 51.6797L270.028 51.7969L270.262 51.1816C271.981 47.0605 273.358 42.8418 274.393 38.5254C275.33 34.6191 276.161 30.6738 276.883 26.6895L280.955 27.8027C279.334 31.7676 276.405 35.4492 272.166 38.8477C270.643 40.0977 269.754 40.8105 269.5 40.9863C267.528 42.7246 265.536 43.5938 263.524 43.5938C263.485 43.5938 263.153 43.584 262.528 43.5645C261.922 43.5449 261.112 43.125 260.096 42.3047C259.159 41.4258 258.651 40.3711 258.573 39.1406L258.543 38.1738C258.543 37.2754 258.641 36.3965 258.836 35.5371C259.207 33.6035 259.891 31.7773 260.887 30.0586C262.899 26.4844 265.75 23.8379 269.442 22.1191C271.004 21.416 272.586 21.0645 274.188 21.0645C276.922 21.0645 278.866 22.1191 280.018 24.2285C280.194 24.6191 280.282 24.9902 280.282 25.3418C280.282 26.0059 279.94 26.5918 279.256 27.0996C278.944 27.2949 278.612 27.3926 278.26 27.3926C277.381 27.3926 276.756 27.041 276.385 26.3379L276.151 25.957L276.063 25.8691H276.092C276.112 25.8887 276.131 25.918 276.151 25.957C276.19 25.9766 276.209 25.9961 276.209 26.0156H276.239L276.151 25.9277C275.995 25.8301 275.907 25.7715 275.887 25.752C275.887 25.7129 275.887 25.6836 275.887 25.6641L276.034 25.752L276.063 25.8105H276.004C275.965 25.7715 275.887 25.7227 275.77 25.6641C275.77 25.6445 275.76 25.6348 275.741 25.6348C275.721 25.6152 275.692 25.5957 275.653 25.5762C275.633 25.5566 275.536 25.5078 275.36 25.4297H275.389C275.409 25.4492 275.428 25.4688 275.448 25.4883C275.467 25.4883 275.487 25.4883 275.506 25.4883C275.545 25.4883 275.565 25.498 275.565 25.5176L275.536 25.4883C275.438 25.4883 275.321 25.459 275.184 25.4004L274.686 25.2539L274.627 25.2832H274.891C274.891 25.3027 274.871 25.3125 274.832 25.3125L274.686 25.2832L274.159 25.2539C273.866 25.2539 273.582 25.2734 273.309 25.3125H273.133L273.28 25.2832L273.338 25.3125C273.338 25.293 273.329 25.2832 273.309 25.2832C273.289 25.2832 273.26 25.293 273.221 25.3125C273.182 25.332 273.143 25.3418 273.104 25.3418C273.065 25.3418 273.045 25.3516 273.045 25.3711C272.538 25.4492 272.059 25.5762 271.61 25.752L271.288 25.8691L271.463 25.7812H271.493L271.112 25.9863C270.311 26.3574 269.559 26.7871 268.856 27.2754L268.387 27.627L268.475 27.5391H268.504L268.211 27.7734C267.411 28.457 266.668 29.1895 265.985 29.9707C265.985 30.0293 265.955 30.0781 265.897 30.1172C265.858 30.1562 265.819 30.1953 265.78 30.2344C265.76 30.2539 265.75 30.2734 265.75 30.293V30.2637L265.194 31.0547C264.745 31.7383 264.344 32.4414 263.993 33.1641C263.954 33.2812 263.905 33.3887 263.846 33.4863L263.817 33.6035L263.758 33.7207L263.817 33.5449V33.6035L263.758 33.6914C263.426 34.4531 263.163 35.332 262.967 36.3281L262.85 36.8262L262.821 37.1777L262.791 37.2363V37.3242L262.821 37.1777L262.791 37.2363V37.4414L262.762 37.4707L262.733 38.4375C262.733 38.5547 262.743 38.6328 262.762 38.6719V38.7598L262.733 38.6426C262.733 38.6816 262.743 38.7402 262.762 38.8184C262.782 38.877 262.791 38.9258 262.791 38.9648C262.811 39.0039 262.83 39.0332 262.85 39.0527V39.1113L262.879 39.1699L262.821 38.9941L262.909 39.1699L262.762 38.9941L262.909 39.1406H262.879H262.909C262.909 39.1602 262.928 39.1895 262.967 39.2285C263.006 39.248 263.036 39.2676 263.055 39.2871C263.094 39.2871 263.123 39.2871 263.143 39.2871L263.172 39.3164L262.967 39.2285H263.026L263.172 39.3164H263.26L263.319 39.3457C263.416 39.3848 263.485 39.4043 263.524 39.4043L263.348 39.375V39.3457H263.377C263.397 39.3652 263.465 39.375 263.582 39.375C263.602 39.3945 263.719 39.4043 263.934 39.4043C263.954 39.3848 264.012 39.375 264.11 39.375H263.934L263.905 39.4043L264.022 39.375C264.217 39.3359 264.422 39.2773 264.637 39.1992C264.676 39.1992 264.705 39.1895 264.725 39.1699H264.754C264.735 39.1895 264.705 39.209 264.666 39.2285C264.627 39.2285 264.598 39.2285 264.579 39.2285C265.086 39.0332 265.672 38.6816 266.336 38.1738C266.336 38.1543 266.346 38.1445 266.366 38.1445C266.385 38.125 266.414 38.0957 266.454 38.0566C266.512 38.0176 266.551 37.998 266.571 37.998L266.454 38.0859L266.483 38.0566C266.502 38.0371 266.522 38.0273 266.541 38.0273C266.58 38.0078 266.6 37.9785 266.6 37.9395L266.893 37.7051C270.233 35.166 272.811 32.7734 274.627 30.5273C274.686 30.4688 274.715 30.4297 274.715 30.4102L274.627 30.5273C274.705 30.4688 274.784 30.3711 274.862 30.2344C274.959 30.0781 275.067 29.9219 275.184 29.7656C275.809 28.8477 276.336 27.9102 276.766 26.9531L276.825 26.8945V26.8652L276.766 26.9824L276.737 27.041C276.776 26.9238 276.825 26.8164 276.883 26.7188V26.6895C277.293 25.6934 277.987 25.1953 278.963 25.1953C279.803 25.1953 280.389 25.5371 280.721 26.2207C280.897 26.5723 280.985 26.9434 280.985 27.334L280.955 27.8027C279.803 34.0723 278.641 39.2969 277.469 43.4766C276.317 47.3828 274.901 51.2012 273.221 54.9316C271.834 58.2324 270.077 61.3184 267.948 64.1895C266.854 65.6152 265.633 66.9141 264.286 68.0859C262.079 70.1562 259.647 71.25 256.991 71.3672ZM295.238 45.0586C293.93 45.0586 292.611 44.7656 291.283 44.1797C289.955 43.5938 288.91 42.6172 288.148 41.25C287.582 40.0781 287.299 38.877 287.299 37.6465C287.299 35.8691 287.787 33.9453 288.764 31.875C290.014 29.2578 291.635 26.8945 293.627 24.7852C295.893 22.2852 298.363 20.9961 301.039 20.918C302.348 20.918 303.598 21.2402 304.789 21.8848C306 22.5293 306.908 23.4473 307.514 24.6387C307.885 25.498 308.07 26.3379 308.07 27.1582C308.07 29.1309 307.123 31.0059 305.229 32.7832C302.748 35.0293 299.857 36.1523 296.557 36.1523C294.584 36.1523 292.689 35.6934 290.873 34.7754C290.189 34.4043 289.848 33.7988 289.848 32.959C289.848 32.5879 289.936 32.2266 290.111 31.875C290.502 31.2109 291.107 30.8789 291.928 30.8789C292.279 30.8789 292.719 31.0059 293.246 31.2598L293.568 31.4062C293.549 31.4062 293.529 31.4062 293.51 31.4062C293.49 31.4062 293.461 31.3965 293.422 31.377C293.383 31.3574 293.363 31.3379 293.363 31.3184L293.598 31.4062C294.008 31.6016 294.486 31.7383 295.033 31.8164C295.15 31.875 295.307 31.9043 295.502 31.9043L295.297 31.875C295.395 31.9141 295.785 31.9336 296.469 31.9336C297.133 31.9336 297.582 31.9141 297.816 31.875C297.719 31.9141 297.65 31.9336 297.611 31.9336H297.582L297.787 31.875C297.826 31.875 297.855 31.8652 297.875 31.8457C298.812 31.6895 299.535 31.4844 300.043 31.2305L299.809 31.3184C300.141 31.2012 300.531 31.0059 300.98 30.7324C301.43 30.459 301.684 30.293 301.742 30.2344L301.889 30.1172L301.713 30.2637L301.83 30.1758C302.67 29.3359 303.09 28.916 303.09 28.916L303.178 28.7988L303.061 28.9746V28.916C303.139 28.7988 303.197 28.7207 303.236 28.6816C303.275 28.623 303.314 28.5547 303.354 28.4766C303.451 28.3398 303.529 28.2129 303.588 28.0957C303.666 27.959 303.705 27.8906 303.705 27.8906C303.705 27.8711 303.715 27.8516 303.734 27.832L303.676 27.9492L303.852 27.4219L303.881 27.2461V26.8652L303.91 26.8359L303.939 26.8652C303.939 26.8848 303.939 26.9043 303.939 26.9238C303.939 26.9434 303.949 26.9629 303.969 26.9824C303.969 27.0215 303.959 27.041 303.939 27.041C303.92 27.0215 303.9 26.9922 303.881 26.9531C303.881 26.9141 303.871 26.875 303.852 26.8359C303.852 26.7969 303.842 26.7578 303.822 26.7188C303.803 26.6797 303.793 26.6406 303.793 26.6016C303.793 26.5625 303.803 26.543 303.822 26.543L303.91 26.748L303.822 26.6602C303.744 26.5039 303.695 26.4258 303.676 26.4258C303.676 26.4062 303.666 26.377 303.646 26.3379C303.627 26.2988 303.588 26.2402 303.529 26.1621L303.676 26.3086L303.061 25.7227L303.266 25.8984L302.357 25.3418V25.3125L302.562 25.459L302.328 25.3418C301.898 25.2246 301.635 25.166 301.537 25.166C301.459 25.1465 301.42 25.127 301.42 25.1074L301.449 25.0781L301.654 25.166C301.576 25.127 301.479 25.1074 301.361 25.1074C301.244 25.1074 301.137 25.1172 301.039 25.1367H300.775C300.658 25.1367 300.6 25.1465 300.6 25.166C300.6 25.127 300.668 25.1074 300.805 25.1074C300.766 25.1465 300.639 25.1855 300.424 25.2246C300.209 25.2637 300.023 25.3125 299.867 25.3711C299.73 25.4297 299.604 25.4785 299.486 25.5176L299.662 25.4297L299.486 25.5176C298.92 25.8301 298.559 26.0352 298.402 26.1328L298.197 26.2793L298.109 26.3672C298.109 26.3477 298.129 26.3281 298.168 26.3086C298.207 26.2891 298.236 26.2695 298.256 26.25L297.143 27.2461C296.635 27.7344 296.059 28.3789 295.414 29.1797L295.268 29.3555H295.297C295.297 29.3164 295.326 29.2676 295.385 29.209L295.092 29.6191C294.252 30.7129 293.412 32.0508 292.572 33.6328L292.484 33.8965C292.406 34.0137 292.367 34.1016 292.367 34.1602L292.396 34.043C292.025 34.9414 291.762 35.8398 291.605 36.7383L291.576 36.9141L291.605 36.7676C291.566 37.0996 291.547 37.4316 291.547 37.7637V38.1445C291.547 38.3594 291.615 38.6719 291.752 39.082C291.752 39.0234 291.742 38.9746 291.723 38.9355L291.84 39.1992C291.898 39.3555 292.006 39.5117 292.162 39.668L292.016 39.5215C292.172 39.6973 292.338 39.8535 292.514 39.9902L292.631 40.1367C292.631 40.1172 292.621 40.1074 292.602 40.1074C292.602 40.0879 292.562 40.0488 292.484 39.9902L293.012 40.3418C293.09 40.3613 293.158 40.3906 293.217 40.4297C293.275 40.4688 293.314 40.498 293.334 40.5176C293.354 40.5176 293.363 40.5273 293.363 40.5469L293.305 40.4883C293.227 40.4688 293.188 40.4492 293.188 40.4297C293.734 40.6055 294.018 40.6934 294.037 40.6934C294.076 40.6934 294.135 40.7031 294.213 40.7227C294.291 40.7422 294.35 40.7617 294.389 40.7812C294.428 40.7812 294.457 40.7812 294.477 40.7812H294.359C294.711 40.8203 295.072 40.8398 295.443 40.8398L296.498 40.752H296.439L297.025 40.6641C298.295 40.3711 299.457 40.0391 300.512 39.668L301.42 39.3164L301.771 39.1699C301.752 39.1895 301.723 39.1992 301.684 39.1992C301.664 39.1992 301.645 39.2188 301.625 39.2578C301.625 39.2383 301.684 39.209 301.801 39.1699C303.48 38.4277 305.248 37.1973 307.104 35.4785C308.959 33.7402 310.316 32.4414 311.176 31.582C311.605 31.1719 312.104 30.9668 312.67 30.9668C313.217 30.9863 313.695 31.1914 314.105 31.582C314.535 31.9727 314.75 32.4414 314.75 32.9883C314.75 33.0273 314.74 33.1934 314.721 33.4863C314.721 33.7793 314.525 34.1406 314.135 34.5703C310.111 39.2578 305.678 42.4121 300.834 44.0332C298.803 44.7168 296.938 45.0586 295.238 45.0586Z" fill="#077DF9"/>
</svg>
