<svg width="46" height="46" viewBox="0 0 46 46" fill="none" xmlns="http://www.w3.org/2000/svg">
<rect width="45.6604" height="45.6604" rx="22.8302" fill="#0E185F" fill-opacity="0.5"/>
<rect width="25.6604" height="25.6604" transform="translate(10 10)" fill="#878CAF"/>
<path fill-rule="evenodd" clip-rule="evenodd" d="M29.7616 31.1592L29.7624 31.1574L29.781 31.1109L32.9872 14.9458V14.8933C32.9872 14.4906 32.8384 14.1389 32.5146 13.928C32.2311 13.7434 31.9053 13.7303 31.6768 13.7476C31.4351 13.766 31.2073 13.8263 31.0495 13.8765C30.9684 13.9023 30.9004 13.9272 30.8519 13.946C30.8275 13.9555 30.8077 13.9635 30.7934 13.9695L30.7793 13.9754L12.9027 20.9881L12.8978 20.9899C12.8881 20.9934 12.8754 20.9982 12.86 21.0042C12.8292 21.0161 12.7874 21.0333 12.7382 21.0555C12.6417 21.0993 12.5083 21.1668 12.3731 21.2594C12.1433 21.4167 11.7059 21.7891 11.7798 22.3796C11.841 22.8686 12.1781 23.1792 12.4054 23.34C12.5272 23.4262 12.6437 23.4884 12.7291 23.529C12.7723 23.5496 12.8091 23.5654 12.8364 23.5765C12.8501 23.5821 12.8616 23.5866 12.8705 23.59L12.8818 23.5942L12.8891 23.5969L16.0167 24.6498C16.0062 24.8461 16.0256 25.0461 16.0777 25.2435L17.6443 31.1865C17.8301 31.8911 18.4676 32.382 19.1963 32.3815C19.8495 32.381 20.4288 31.9858 20.6749 31.3963L23.1208 28.781L27.3216 32.0016L27.3814 32.0276C27.763 32.1942 28.1196 32.247 28.4456 32.2024C28.7712 32.1579 29.0299 32.0214 29.2242 31.866C29.4155 31.713 29.5465 31.5403 29.629 31.4103C29.6708 31.3442 29.7021 31.2862 29.7237 31.2425C29.7346 31.2205 29.7432 31.202 29.7496 31.1875L29.7576 31.1689L29.7605 31.162L29.7616 31.1592ZM17.6284 24.8347C17.5928 24.6997 17.6487 24.5571 17.7666 24.4822L28.3751 17.7454C28.3751 17.7454 28.999 17.3666 28.9767 17.7454C28.9767 17.7454 29.0881 17.8123 28.7537 18.1242C28.4366 18.4204 21.1928 25.414 20.4598 26.1217C20.4175 26.1625 20.3923 26.2094 20.3774 26.2663L19.1951 30.7777L17.6284 24.8347Z" fill="white"/>
</svg>
