<svg width="46" height="47" viewBox="0 0 46 47" fill="none" xmlns="http://www.w3.org/2000/svg">
<rect y="0.98114" width="45.6604" height="45.6604" rx="22.8302" fill="#0E185F" fill-opacity="0.5"/>
<rect width="25.6604" height="25.6604" transform="translate(10 10.9811)" fill="#878CAF"/>
<path d="M33.319 17.6391C33.381 17.5527 33.2895 17.4412 33.1904 17.4796C32.4861 17.7526 31.75 17.9368 30.9992 18.0276C31.8352 17.5281 32.4803 16.7679 32.838 15.8678C32.8745 15.7761 32.7743 15.6942 32.688 15.7419C31.911 16.171 31.073 16.48 30.2025 16.6579C30.1661 16.6654 30.1285 16.653 30.1029 16.626C29.4497 15.9367 28.5898 15.4778 27.6524 15.3192C26.6953 15.1573 25.7116 15.3176 24.8554 15.775C23.9993 16.2324 23.3192 16.9611 22.9218 17.8467C22.5439 18.6888 22.4419 19.6274 22.6283 20.5289C22.6428 20.5988 22.588 20.6648 22.5167 20.6604C20.8231 20.5552 19.1683 20.1047 17.6543 19.3361C16.1442 18.5694 14.807 17.5029 13.724 16.2022C13.676 16.1444 13.5849 16.1519 13.5498 16.2184C13.2129 16.8578 13.0364 17.5705 13.0369 18.2949C13.0355 19.0159 13.2125 19.7261 13.552 20.3622C13.8915 20.9983 14.383 21.5406 14.9828 21.9408C14.3467 21.9235 13.7231 21.7662 13.1559 21.4811C13.0828 21.4444 12.9951 21.4967 12.9989 21.5784C13.0431 22.5292 13.3922 23.4837 13.9963 24.216C14.6392 24.9953 15.5316 25.5286 16.5224 25.7257C16.141 25.8418 15.745 25.903 15.3463 25.9075C15.1294 25.9049 14.9128 25.8889 14.6979 25.8595C14.6183 25.8486 14.5532 25.9243 14.5811 25.9997C14.8766 26.7989 15.3987 27.4963 16.0852 28.0054C16.8192 28.5496 17.7045 28.8515 18.618 28.8691C17.0754 30.0829 15.1709 30.7453 13.208 30.7508C13.0063 30.7515 12.8047 30.745 12.6036 30.7313C12.4902 30.7235 12.4381 30.8745 12.5358 30.9325C14.4483 32.0675 16.6343 32.6674 18.864 32.6647C20.5102 32.6818 22.1433 32.3707 23.6679 31.7495C25.1925 31.1284 26.5781 30.2097 27.7437 29.0471C28.9093 27.8845 29.8316 26.5013 30.4566 24.9782C31.0817 23.4552 31.397 21.8229 31.3841 20.1766V19.6636C31.3841 19.6299 31.4001 19.5981 31.427 19.5778C32.1522 19.0302 32.79 18.3765 33.319 17.6391Z" fill="white"/>
</svg>
