<svg width="198" height="71" viewBox="0 0 198 71" fill="none" xmlns="http://www.w3.org/2000/svg">
<path d="M22.2148 44.2051C20.5742 44.2051 19.041 43.6582 17.6152 42.5645C16.4824 41.6855 15.7891 40.5918 15.5352 39.2832C15.418 38.6777 15.3594 38.0625 15.3594 37.4375C15.3594 35.7578 16.1113 32.4668 17.6152 27.5645C20.0762 19.5176 22.9473 11.627 26.2285 3.89258L30.0664 5.47461C28.6992 8.18945 27.2539 10.875 25.7305 13.5312C19.4414 24.4297 11.8438 31.793 2.9375 35.6211C2.76172 35.6992 2.58594 35.7383 2.41016 35.7383C1.60938 35.7383 1.0332 35.2402 0.681641 34.2441C0.623047 34.0488 0.603516 33.8633 0.623047 33.6875C0.623047 33.5312 0.720703 33.3066 0.916016 33.0137C1.11133 32.7012 1.79492 32.1152 2.9668 31.2559C9.56836 26.4512 14.7246 21.627 18.4355 16.7832C20.877 13.5801 23.5723 9.12695 26.5215 3.42383C26.873 2.74023 27.4395 2.39844 28.2207 2.39844C29.041 2.39844 29.6855 2.7793 30.1543 3.54102C30.3301 3.83398 30.418 4.12695 30.418 4.41992C30.418 4.5957 30.3789 4.78125 30.3008 4.97656C26.7266 13.4141 23.7285 21.8027 21.3066 30.1426C20.4668 33.0527 19.9297 35.1035 19.6953 36.2949L19.6074 36.7344H19.5781L19.6074 36.6758L19.5781 37.7305V38.2871C19.5586 38.2676 19.5488 38.248 19.5488 38.2285C19.5488 38.1895 19.5488 38.1602 19.5488 38.1406C19.5488 38.1602 19.5488 38.1797 19.5488 38.1992C19.5684 38.2188 19.5879 38.2578 19.6074 38.3164C19.627 38.375 19.6367 38.4434 19.6367 38.5215C19.6562 38.5801 19.7148 38.7363 19.8125 38.9902L19.7246 38.8145C19.8027 38.9121 19.8418 38.9609 19.8418 38.9609L20.1055 39.4004C20.1055 39.3418 20.0859 39.3125 20.0469 39.3125C20.0078 39.293 19.9883 39.2734 19.9883 39.2539L19.959 39.2246L20.0762 39.3125C20.1348 39.3906 20.1934 39.4492 20.252 39.4883C20.3105 39.5078 20.3496 39.5273 20.3691 39.5469C20.3887 39.5664 20.4082 39.5762 20.4277 39.5762H20.3691C20.3496 39.5762 20.3105 39.5566 20.252 39.5176C20.6426 39.752 20.8477 39.8789 20.8672 39.8984C20.8867 39.8984 20.9062 39.8984 20.9258 39.8984L20.7793 39.8105H20.6914C20.8672 39.8496 21.0332 39.8984 21.1895 39.957L21.7754 40.1035H21.541C21.541 40.084 21.5898 40.0742 21.6875 40.0742H21.8633C22.2344 40.0938 22.5273 40.1035 22.7422 40.1035H22.8887H22.9473V40.1328L22.7422 40.0742L22.8887 40.0449C22.9668 40.0254 23.0254 40.0156 23.0645 40.0156C23.3184 39.957 23.5625 39.8887 23.7969 39.8105C23.8359 39.791 23.8652 39.7812 23.8848 39.7812C23.9238 39.7617 23.9629 39.752 24.002 39.752C24.041 39.7324 24.0703 39.7129 24.0898 39.6934H24.1191L23.9727 39.752L24.3242 39.5762C24.793 39.3613 25.252 39.1074 25.7012 38.8145C25.9355 38.6582 26.0918 38.541 26.1699 38.4629L26.0527 38.5508L26.1113 38.4922C26.1504 38.4531 26.1895 38.4336 26.2285 38.4336L26.8438 37.9062C27.8398 37.1055 29.168 35.9043 30.8281 34.3027C33.4844 31.7832 35.9844 29.1465 38.3281 26.3926L40.4082 23.9023C40.4082 23.8828 40.4766 23.7949 40.6133 23.6387L40.5254 23.7266C42.0098 21.9102 43.3965 20.0156 44.6855 18.043C45.7012 16.4609 46.5312 14.9277 47.1758 13.4434L47.1172 13.5898L47.3516 13.0332C47.8984 11.627 48.2793 10.2598 48.4941 8.93164C48.4941 8.89258 48.4941 8.84375 48.4941 8.78516V8.87305L48.5527 8.43359C48.5723 8.16016 48.582 7.87695 48.582 7.58398C48.582 6.90039 48.5723 6.38281 48.5527 6.03125C48.5527 5.85547 48.5332 5.66992 48.4941 5.47461L48.5234 5.70898L48.4941 5.5625V5.50391C48.4551 5.40625 48.4258 5.29883 48.4062 5.18164C48.4258 5.25977 48.4453 5.30859 48.4648 5.32812V5.38672C48.4453 5.38672 48.4355 5.37695 48.4355 5.35742C48.4355 5.33789 48.4258 5.31836 48.4062 5.29883C48.4062 5.25977 48.3965 5.23047 48.377 5.21094L48.4648 5.32812V5.38672L48.4941 5.35742C48.4941 5.33789 48.4844 5.32812 48.4648 5.32812C48.4453 5.30859 48.416 5.28906 48.377 5.26953H48.4355C48.4941 5.32812 48.582 5.37695 48.6992 5.41602C48.7383 5.43555 48.7578 5.45508 48.7578 5.47461H48.6406V5.44531C48.6602 5.44531 48.6699 5.45508 48.6699 5.47461L48.9043 5.50391H48.8457H48.6992H48.6113L48.8164 5.47461L48.377 5.5918L48.4941 5.50391H48.5527C48.4746 5.58203 48.3574 5.65039 48.2012 5.70898C48.0645 5.74805 47.9375 5.81641 47.8203 5.91406L47.6738 6.03125L47.791 5.94336C47.5176 6.13867 47.2637 6.37305 47.0293 6.64648H47C46.3359 7.33008 45.7988 7.93555 45.3887 8.46289L45.2422 8.63867C45.2422 8.61914 45.252 8.60938 45.2715 8.60938C45.291 8.58984 45.3008 8.57031 45.3008 8.55078C45.3203 8.53125 45.3398 8.51172 45.3594 8.49219C44.7344 9.25391 44.041 10.2793 43.2793 11.5684C42.4785 12.9551 41.8535 14.1758 41.4043 15.2305L41.2578 15.6113C39.4805 19.9277 38.25 23.4922 37.5664 26.3047C37.4102 26.9883 37.3223 27.3594 37.3027 27.418C37.3027 27.4766 37.3027 27.5547 37.3027 27.6523V27.5059C37.2441 27.9551 37.2246 28.6973 37.2441 29.7324C37.2441 29.8105 37.2441 29.9277 37.2441 30.084V29.9961C37.2441 30.2891 37.3809 30.7676 37.6543 31.4316L37.5957 31.3145C37.6934 31.5098 37.8789 31.7637 38.1523 32.0762L38.7676 32.75L38.8848 32.8672L38.7383 32.8086C38.7578 32.8281 38.7871 32.8379 38.8262 32.8379C39.0215 32.9746 39.2363 33.1016 39.4707 33.2188L39.5879 33.2773L39.8809 33.4238L39.7344 33.3652C40.5156 33.6387 41.043 33.7754 41.3164 33.7754H41.1406C41.3164 33.7754 41.4629 33.7754 41.5801 33.7754C42.2637 33.7949 42.7129 33.7949 42.9277 33.7754H42.8691H42.957L43.0742 33.7461C43.1914 33.707 43.2891 33.6777 43.3672 33.6582C44.1875 33.5215 44.8027 33.3457 45.2129 33.1309H45.2422H45.2129L45.0957 33.1895L45.125 33.1602C45.8672 32.8672 46.7363 32.3789 47.7324 31.6953L48.4648 31.1973H48.4355L48.6406 30.9922C49.1289 30.543 49.6758 30.3184 50.2812 30.3184C50.7891 30.3184 51.2773 30.5234 51.7461 30.9336C52.1562 31.3047 52.3613 31.7832 52.3613 32.3691C52.3809 32.9746 52.1855 33.4531 51.7754 33.8047C48.4746 36.5391 45.2617 37.9062 42.1367 37.9062C38.7969 37.9062 36.2285 36.5977 34.4316 33.9805C33.5137 32.6719 33.0449 31.2461 33.0254 29.7031C32.9863 28.0234 33.1621 26.4414 33.5527 24.957C33.9824 23.2969 34.4707 21.666 35.0176 20.0645C35.8184 17.7598 36.7168 15.4746 37.7129 13.209C39.3535 9.51758 41.4336 6.38281 43.9531 3.80469C44.8906 2.82813 45.9941 2.11523 47.2637 1.66602C47.7715 1.49023 48.2695 1.40234 48.7578 1.40234C49.7344 1.40234 50.623 1.77344 51.4238 2.51562C52.0098 3.04297 52.3809 3.67773 52.5371 4.41992C52.7129 5.14258 52.8008 5.97266 52.8008 6.91016C52.8008 11.3828 51.1016 16.0898 47.7031 21.0312C43.1523 27.6523 37.8105 33.7168 31.6777 39.2246C30.6621 40.1426 29.6074 41.0117 28.5137 41.832C26.4238 43.4141 24.3242 44.2051 22.2148 44.2051ZM54.8668 43.8828L54.1344 43.8535C51.732 43.5801 50.0328 42.3203 49.0367 40.0742C48.5094 38.8828 48.2457 37.6719 48.2457 36.4414C48.2457 35.2695 48.4703 34.0879 48.9195 32.8965C50.9898 27.3301 53.7145 23.4531 57.0934 21.2656C58.6363 20.25 60.316 19.7422 62.1324 19.7422C62.7379 19.7422 63.3629 19.8105 64.0074 19.9473C66.3121 20.4746 68.0016 21.7832 69.0758 23.873C69.5836 24.8887 69.8375 25.9922 69.8375 27.1836V30.2891C69.8375 30.2109 69.8473 30.1719 69.8668 30.1719C69.8668 30.3672 69.8863 30.5332 69.9254 30.6699C69.984 30.9043 70.0133 31.1094 70.0133 31.2852C70.0133 32.3008 69.5055 32.9844 68.4898 33.3359C68.2945 33.3945 68.0992 33.4238 67.9039 33.4238C66.4 33.4238 65.648 32.0859 65.648 29.4102L65.5602 26.6855C65.5406 26.2168 65.5016 25.9043 65.443 25.748C65.482 25.8066 65.5016 25.875 65.5016 25.9531L65.1207 25.2793H65.1793L65.2379 25.4258L65.0914 25.2793C64.8375 24.9668 64.6227 24.752 64.4469 24.6348C64.4469 24.6543 64.4566 24.6738 64.4762 24.6934C64.4957 24.6934 64.5055 24.7031 64.5055 24.7227C64.525 24.7227 64.5445 24.7227 64.5641 24.7227C64.5836 24.7227 64.5934 24.7324 64.5934 24.752V24.7227C64.5543 24.7227 64.4371 24.6641 64.2418 24.5469C63.8902 24.332 63.6656 24.2051 63.568 24.166C63.607 24.2051 63.6461 24.2246 63.6852 24.2246C63.1969 24.0488 62.8453 23.9609 62.6305 23.9609L62.8648 23.9902C62.5719 23.9902 62.2887 23.9805 62.0152 23.9609C61.859 23.9414 61.6734 23.9512 61.4586 23.9902C60.8336 24.1074 60.3551 24.2539 60.023 24.4297C60.023 24.4102 60.0328 24.4004 60.0523 24.4004C60.0719 24.4004 60.0816 24.4004 60.0816 24.4004C60.1012 24.3809 60.1305 24.3613 60.1695 24.3418C60.0914 24.4199 59.9352 24.5176 59.7008 24.6348C59.3492 24.8105 59.0074 25.0059 58.6754 25.2207C58.6363 25.2598 58.5973 25.2891 58.5582 25.3086C58.5387 25.3086 58.5191 25.3184 58.4996 25.3379C58.4996 25.3379 58.4703 25.3672 58.4117 25.4258V25.3965L58.5289 25.3379C58.4117 25.3965 58.2652 25.5137 58.0895 25.6895C57.6207 26.0996 57.191 26.5586 56.8004 27.0664C56.7809 27.0664 56.7613 27.0762 56.7418 27.0957C56.7418 27.1152 56.732 27.1348 56.7125 27.1543C56.7125 27.1543 56.6832 27.1934 56.6246 27.2715C56.6441 27.2324 56.6637 27.2129 56.6832 27.2129C56.6637 27.2129 56.6539 27.2227 56.6539 27.2422L56.3316 27.7109C55.277 29.2539 54.3102 31.002 53.4313 32.9551L53.2848 33.2773C52.8551 34.3516 52.6012 35.2695 52.523 36.0312L52.4352 37.1152C52.4352 37.252 52.5328 37.6133 52.7281 38.1992L52.6695 38.1113C52.943 38.6777 53.0992 38.9805 53.1383 39.0195C53.1969 39.0391 53.2359 39.0684 53.2555 39.1074C53.1773 39.0098 53.1383 38.9414 53.1383 38.9023C53.1383 38.9219 53.1383 38.9414 53.1383 38.9609C53.1578 38.9609 53.1676 38.9707 53.1676 38.9902C53.1871 39.0098 53.2555 39.0781 53.3727 39.1953C53.607 39.4297 53.7438 39.5469 53.7828 39.5469L53.6949 39.4883C53.7535 39.5273 53.7926 39.5664 53.8121 39.6055C53.8512 39.625 53.9391 39.6641 54.0758 39.7227C54.1148 39.7422 54.1344 39.7617 54.1344 39.7812C54.1148 39.7617 54.0855 39.752 54.0465 39.752C54.0074 39.7324 53.9781 39.7227 53.9586 39.7227C53.9586 39.7031 53.9488 39.6836 53.9293 39.6641C53.9879 39.7227 54.1832 39.791 54.5152 39.8691L54.3395 39.8398C54.652 39.8398 54.8766 39.8301 55.0133 39.8105L54.8375 39.8398C55.2477 39.7031 55.482 39.6348 55.5406 39.6348L55.4234 39.6934C55.8141 39.498 56.1949 39.2734 56.566 39.0195C56.5855 39.0195 56.6051 39.0098 56.6246 38.9902C56.6637 38.9512 56.7125 38.9219 56.7711 38.9023C56.9273 38.8047 57.0055 38.7363 57.0055 38.6973C57.0055 38.7168 56.9859 38.7461 56.9469 38.7852C61.2633 35.1914 65.1695 31.168 68.6656 26.7148C68.9977 26.2852 69.4371 26.0703 69.984 26.0703C70.5309 26.0703 70.9996 26.2266 71.3902 26.5391C71.9371 27.0078 72.2105 27.5352 72.2105 28.1211C72.2105 28.4727 72.1227 28.8438 71.9469 29.2344C71.732 29.7422 71.527 30.2598 71.3316 30.7871C70.5309 33.0332 70.0035 34.9473 69.7496 36.5293H69.7203L69.7496 36.3535C69.8668 37.3691 70.1988 38.1406 70.7457 38.668L70.6578 38.6387H70.7164C70.9313 38.8535 71.1949 38.9609 71.5074 38.9609L71.3023 38.9902L71.5074 38.9316C73.3043 38.541 74.9059 37.8184 76.3121 36.7637H76.2828L76.1949 36.8516C77.9918 35.4062 79.984 33.2773 82.1715 30.4648C82.484 30.0547 82.8941 29.8496 83.402 29.8496C83.4605 29.8496 83.6559 29.8594 83.9879 29.8789C84.3199 29.8984 84.6813 30.1035 85.0719 30.4941C85.482 30.8652 85.6871 31.2949 85.6871 31.7832C85.6871 31.8418 85.6773 32.0176 85.6578 32.3105C85.6383 32.6035 85.4527 32.9746 85.1012 33.4238C83.3434 35.7676 81.4684 37.8086 79.4762 39.5469C77.5621 41.2266 75.3648 42.3008 72.8844 42.7695C72.6695 42.8086 72.4352 42.8379 72.1813 42.8574C70.8922 43.0137 69.5934 42.7012 68.2848 41.9199C66.4488 40.8066 65.5309 39.166 65.5309 36.998C65.5309 36.1973 65.6285 35.3965 65.8238 34.5957C66.4098 32.0371 67.2398 29.5371 68.3141 27.0957L71.6246 29.6738C68.3629 33.8535 64.7301 37.6816 60.7262 41.1582C58.5973 43.0137 56.6441 43.9219 54.8668 43.8828ZM81.6594 44.5273C81.3859 44.5273 81.1223 44.4688 80.8684 44.3516C80.009 43.9805 79.5793 43.3359 79.5793 42.418C79.5793 42.2422 79.5988 42.0566 79.6379 41.8613L84.9406 19.2441C85.0969 18.6777 85.4289 18.2578 85.9367 17.9844C86.2883 17.8086 86.6496 17.7207 87.0207 17.7207C87.841 17.7207 88.4367 18.0723 88.8078 18.7754C88.9836 19.127 89.0715 19.4883 89.0715 19.8594C89.0715 20.1133 87.2844 27.8184 83.7102 42.9746L79.843 41.3633C81.3469 37.9453 83.0168 34.625 84.8527 31.4023C86.5324 28.4336 88.5344 25.7188 90.8586 23.2578C93.0461 20.9141 95.0578 19.4785 96.8938 18.9512C97.2844 18.834 97.6848 18.7754 98.0949 18.7754C98.8762 18.7754 99.6672 19 100.468 19.4492C101.445 20.0742 102.079 20.9434 102.372 22.0566C102.47 22.5254 102.538 22.9941 102.577 23.4629L102.636 23.9609L102.607 23.8438L102.636 24.1074C102.792 24.6934 102.89 25.0352 102.929 25.1328C102.968 25.2109 102.988 25.2793 102.988 25.3379L102.958 25.2207L103.368 26.041L103.808 26.6855L103.691 26.5391C104.218 27.0664 104.53 27.3691 104.628 27.4473L104.687 27.5352L104.657 27.5059C104.657 27.4863 104.638 27.4766 104.599 27.4766C104.579 27.457 104.56 27.4473 104.54 27.4473C104.54 27.4277 104.53 27.418 104.511 27.418V27.3887C104.53 27.3887 104.54 27.3984 104.54 27.418C104.54 27.418 104.56 27.4277 104.599 27.4473C104.638 27.4668 104.677 27.5059 104.716 27.5645C104.775 27.6035 105.175 27.8379 105.917 28.2676C106.386 28.5215 106.63 28.6484 106.65 28.6484H106.708L106.65 28.5898C106.591 28.5703 106.523 28.5605 106.445 28.5605C106.503 28.5605 106.552 28.5801 106.591 28.6191C106.65 28.6387 106.698 28.6484 106.738 28.6484C106.991 28.7461 107.245 28.8145 107.499 28.8535L107.851 28.9414H107.939C107.841 28.9414 107.782 28.9316 107.763 28.9121H107.734H107.821C108.603 28.9902 109.374 29.0293 110.136 29.0293C110.741 29.0488 111.239 29.2637 111.63 29.6738C112.04 30.084 112.245 30.6016 112.245 31.2266C112.245 31.7734 112.04 32.2422 111.63 32.6328C111.22 33.0234 110.722 33.2285 110.136 33.248H109.55C108.222 33.248 106.913 33.0723 105.624 32.7207C102.265 31.5488 100.038 29.4688 98.9445 26.4805C98.5539 25.3672 98.3586 24.3125 98.3586 23.3164V23.5215L98.3 23.1699V22.9941L98.3293 23.1699L98.2414 23.0234L98.2707 23.0527L98.4758 23.1992L98.2121 23.0234L98.4172 23.1113L98.1242 23.0234H98.3586H98.3293C98.3098 23.043 98.2609 23.0527 98.1828 23.0527C98.1633 23.0527 98.134 23.0527 98.0949 23.0527C98.0754 23.0332 98.0266 23.0234 97.9484 23.0234C97.8898 23.0234 97.8605 23.0137 97.8605 22.9941H98.1242L97.4211 23.1699C97.4211 23.1309 97.4699 23.1113 97.5676 23.1113L97.509 23.1406C97.4895 23.1797 97.3723 23.2578 97.1574 23.375C96.9426 23.4922 96.7082 23.6484 96.4543 23.8438L96.5715 23.7559L96.5422 23.7852C96.5031 23.8242 96.4445 23.8633 96.3664 23.9023L96.2785 23.9902C94.6965 25.2598 93.2805 26.6953 92.0305 28.2969L91.7668 28.5898C91.7277 28.707 91.6789 28.7852 91.6203 28.8242L91.5324 28.8828C91.552 28.8828 91.5617 28.873 91.5617 28.8535C91.5813 28.834 91.591 28.8242 91.591 28.8242C91.6105 28.8047 91.6301 28.7754 91.6496 28.7363L90.2141 30.7578C88.1047 33.9414 85.8684 38.1797 83.5051 43.4727C83.1535 44.1758 82.5383 44.5273 81.6594 44.5273ZM114.077 43.9707C112.554 43.9512 111.235 43.502 110.122 42.623C108.637 41.4707 107.895 39.7617 107.895 37.4961C107.895 35.9141 108.315 33.8535 109.155 31.3145L109.302 30.7871C110.141 27.9941 111.098 25.2402 112.173 22.5254C112.583 21.5293 113.276 21.0312 114.253 21.0312C115.034 21.0312 115.63 21.373 116.04 22.0566C116.235 22.3887 116.333 22.7207 116.333 23.0527C116.333 23.248 116.304 23.4434 116.245 23.6387C115.132 26.4316 114.155 29.2637 113.315 32.1348L113.286 32.1934C112.934 33.3457 112.622 34.5176 112.348 35.709C112.27 36.041 112.212 36.334 112.173 36.5879C112.173 36.627 112.163 36.6465 112.143 36.6465L112.173 36.4707C112.173 36.5684 112.163 36.6465 112.143 36.7051L112.114 37.9648L112.143 38.1406L112.085 37.9648L112.29 38.7852L112.348 38.9609L112.261 38.7266C112.319 38.8438 112.358 38.9219 112.378 38.9609C112.417 39 112.436 39.0293 112.436 39.0488C112.456 39.0684 112.475 39.0879 112.495 39.1074C112.573 39.1855 112.612 39.2441 112.612 39.2832L112.495 39.1367V39.166C112.514 39.1855 112.534 39.2051 112.554 39.2246C112.593 39.2441 112.612 39.2734 112.612 39.3125C112.632 39.332 112.661 39.3516 112.7 39.3711C112.759 39.3906 112.798 39.4102 112.817 39.4297C112.837 39.4297 112.856 39.4395 112.876 39.459L112.7 39.3711L113.11 39.6348C113.052 39.5957 113.012 39.5762 112.993 39.5762C112.993 39.5762 113.003 39.5762 113.022 39.5762L113.813 39.7812L113.608 39.752H114.487L114.575 39.7227C114.985 39.6641 115.395 39.5469 115.805 39.3711L115.688 39.4297L115.776 39.3711C115.835 39.332 115.893 39.3125 115.952 39.3125C116.909 38.8242 118.032 38.1211 119.321 37.2031L120.171 36.5879L120.464 36.3535C122.378 34.8105 124.126 33.1113 125.708 31.2559C126.098 30.8457 126.567 30.6406 127.114 30.6406C127.153 30.6406 127.319 30.6504 127.612 30.6699C127.905 30.6895 128.266 30.8848 128.696 31.2559C129.106 31.666 129.311 32.1348 129.311 32.6621C129.311 32.7012 129.302 32.8672 129.282 33.1602C129.262 33.4336 129.067 33.7949 128.696 34.2441C126.645 36.627 124.341 38.7461 121.782 40.6016C120.669 41.4609 119.468 42.2324 118.179 42.916C116.889 43.5996 115.522 43.9512 114.077 43.9707ZM116.772 15.5527C116.479 15.5527 116.206 15.4941 115.952 15.377C115.698 15.2793 115.473 15.1328 115.278 14.9375L114.897 14.5566C114.643 14.3027 114.468 13.9902 114.37 13.6191L114.282 13.0625C114.302 12.5938 114.448 12.1836 114.721 11.832C114.995 11.4609 115.288 11.2266 115.6 11.1289C115.835 11.0117 116.098 10.9531 116.391 10.9531C116.684 10.9531 116.958 11.0117 117.212 11.1289C117.446 11.207 117.71 11.3926 118.003 11.6855C118.432 12.1152 118.696 12.5156 118.794 12.8867L118.882 13.4434C118.882 13.9121 118.764 14.293 118.53 14.5859L118.296 14.9082C118.12 15.1035 117.886 15.2598 117.593 15.377C117.339 15.4941 117.065 15.5527 116.772 15.5527ZM132.549 44.0586C131.241 44.0586 129.922 43.7656 128.594 43.1797C127.266 42.5938 126.221 41.6172 125.459 40.25C124.893 39.0781 124.61 37.877 124.61 36.6465C124.61 34.8691 125.098 32.9453 126.075 30.875C127.325 28.2578 128.946 25.8945 130.938 23.7852C133.204 21.2852 135.674 19.9961 138.35 19.918C139.659 19.918 140.909 20.2402 142.1 20.8848C143.311 21.5293 144.219 22.4473 144.825 23.6387C145.196 24.498 145.381 25.3379 145.381 26.1582C145.381 28.1309 144.434 30.0059 142.539 31.7832C140.059 34.0293 137.168 35.1523 133.868 35.1523C131.895 35.1523 130 34.6934 128.184 33.7754C127.5 33.4043 127.159 32.7988 127.159 31.959C127.159 31.5879 127.246 31.2266 127.422 30.875C127.813 30.2109 128.418 29.8789 129.239 29.8789C129.59 29.8789 130.03 30.0059 130.557 30.2598L130.879 30.4062C130.86 30.4062 130.84 30.4062 130.821 30.4062C130.801 30.4062 130.772 30.3965 130.733 30.377C130.694 30.3574 130.674 30.3379 130.674 30.3184L130.909 30.4062C131.319 30.6016 131.797 30.7383 132.344 30.8164C132.461 30.875 132.618 30.9043 132.813 30.9043L132.608 30.875C132.705 30.9141 133.096 30.9336 133.78 30.9336C134.444 30.9336 134.893 30.9141 135.127 30.875C135.03 30.9141 134.961 30.9336 134.922 30.9336H134.893L135.098 30.875C135.137 30.875 135.166 30.8652 135.186 30.8457C136.123 30.6895 136.846 30.4844 137.354 30.2305L137.12 30.3184C137.452 30.2012 137.842 30.0059 138.291 29.7324C138.741 29.459 138.995 29.293 139.053 29.2344L139.2 29.1172L139.024 29.2637L139.141 29.1758C139.981 28.3359 140.401 27.916 140.401 27.916L140.489 27.7988L140.371 27.9746V27.916C140.45 27.7988 140.508 27.7207 140.547 27.6816C140.586 27.623 140.625 27.5547 140.664 27.4766C140.762 27.3398 140.84 27.2129 140.899 27.0957C140.977 26.959 141.016 26.8906 141.016 26.8906C141.016 26.8711 141.026 26.8516 141.045 26.832L140.987 26.9492L141.162 26.4219L141.192 26.2461V25.8652L141.221 25.8359L141.25 25.8652C141.25 25.8848 141.25 25.9043 141.25 25.9238C141.25 25.9434 141.26 25.9629 141.28 25.9824C141.28 26.0215 141.27 26.041 141.25 26.041C141.231 26.0215 141.211 25.9922 141.192 25.9531C141.192 25.9141 141.182 25.875 141.162 25.8359C141.162 25.7969 141.153 25.7578 141.133 25.7188C141.114 25.6797 141.104 25.6406 141.104 25.6016C141.104 25.5625 141.114 25.543 141.133 25.543L141.221 25.748L141.133 25.6602C141.055 25.5039 141.006 25.4258 140.987 25.4258C140.987 25.4062 140.977 25.377 140.957 25.3379C140.938 25.2988 140.899 25.2402 140.84 25.1621L140.987 25.3086L140.371 24.7227L140.577 24.8984L139.668 24.3418V24.3125L139.873 24.459L139.639 24.3418C139.209 24.2246 138.946 24.166 138.848 24.166C138.77 24.1465 138.731 24.127 138.731 24.1074L138.76 24.0781L138.965 24.166C138.887 24.127 138.789 24.1074 138.672 24.1074C138.555 24.1074 138.448 24.1172 138.35 24.1367H138.086C137.969 24.1367 137.911 24.1465 137.911 24.166C137.911 24.127 137.979 24.1074 138.116 24.1074C138.077 24.1465 137.95 24.1855 137.735 24.2246C137.52 24.2637 137.334 24.3125 137.178 24.3711C137.041 24.4297 136.914 24.4785 136.797 24.5176L136.973 24.4297L136.797 24.5176C136.231 24.8301 135.87 25.0352 135.713 25.1328L135.508 25.2793L135.42 25.3672C135.42 25.3477 135.44 25.3281 135.479 25.3086C135.518 25.2891 135.547 25.2695 135.567 25.25L134.454 26.2461C133.946 26.7344 133.37 27.3789 132.725 28.1797L132.579 28.3555H132.608C132.608 28.3164 132.637 28.2676 132.696 28.209L132.403 28.6191C131.563 29.7129 130.723 31.0508 129.883 32.6328L129.795 32.8965C129.717 33.0137 129.678 33.1016 129.678 33.1602L129.707 33.043C129.336 33.9414 129.073 34.8398 128.916 35.7383L128.887 35.9141L128.916 35.7676C128.877 36.0996 128.858 36.4316 128.858 36.7637V37.1445C128.858 37.3594 128.926 37.6719 129.063 38.082C129.063 38.0234 129.053 37.9746 129.034 37.9355L129.151 38.1992C129.209 38.3555 129.317 38.5117 129.473 38.668L129.327 38.5215C129.483 38.6973 129.649 38.8535 129.825 38.9902L129.942 39.1367C129.942 39.1172 129.932 39.1074 129.912 39.1074C129.912 39.0879 129.873 39.0488 129.795 38.9902L130.323 39.3418C130.401 39.3613 130.469 39.3906 130.528 39.4297C130.586 39.4688 130.625 39.498 130.645 39.5176C130.664 39.5176 130.674 39.5273 130.674 39.5469L130.616 39.4883C130.537 39.4688 130.498 39.4492 130.498 39.4297C131.045 39.6055 131.329 39.6934 131.348 39.6934C131.387 39.6934 131.446 39.7031 131.524 39.7227C131.602 39.7422 131.661 39.7617 131.7 39.7812C131.739 39.7812 131.768 39.7812 131.787 39.7812H131.67C132.022 39.8203 132.383 39.8398 132.754 39.8398L133.809 39.752H133.75L134.336 39.6641C135.606 39.3711 136.768 39.0391 137.823 38.668L138.731 38.3164L139.082 38.1699C139.063 38.1895 139.034 38.1992 138.995 38.1992C138.975 38.1992 138.955 38.2188 138.936 38.2578C138.936 38.2383 138.995 38.209 139.112 38.1699C140.791 37.4277 142.559 36.1973 144.414 34.4785C146.27 32.7402 147.627 31.4414 148.487 30.582C148.916 30.1719 149.414 29.9668 149.981 29.9668C150.528 29.9863 151.006 30.1914 151.416 30.582C151.846 30.9727 152.061 31.4414 152.061 31.9883C152.061 32.0273 152.051 32.1934 152.032 32.4863C152.032 32.7793 151.836 33.1406 151.446 33.5703C147.422 38.2578 142.989 41.4121 138.145 43.0332C136.114 43.7168 134.248 44.0586 132.549 44.0586ZM155.445 44.1172C154.547 44.1172 153.639 43.9805 152.721 43.707C150.865 43.1016 149.488 41.9297 148.59 40.1914C147.984 38.7852 147.682 37.3301 147.682 35.8262C147.682 33.9902 148.053 31.7148 148.795 29C150.279 22.75 152.34 16.8906 154.977 11.4219C156.773 7.55469 158.854 4.57617 161.217 2.48633C162.994 0.923828 164.82 0.142578 166.695 0.142578L167.311 0.171875C169.889 0.464844 171.588 1.75391 172.408 4.03906C172.623 4.70313 172.73 5.36719 172.73 6.03125C172.73 8.0625 171.754 10.9824 169.801 14.791C166.246 21.7637 160.777 27.75 153.395 32.75C153.062 32.9453 152.721 33.043 152.369 33.043C151.588 33.043 150.963 32.6914 150.494 31.9883C150.299 31.6562 150.201 31.3145 150.201 30.9629C150.201 30.2012 150.562 29.5762 151.285 29.0879C152.008 28.5801 152.73 28.0527 153.453 27.5059C153.473 27.5059 153.502 27.4961 153.541 27.4766C153.58 27.4375 153.609 27.418 153.629 27.418C153.648 27.3984 153.717 27.3398 153.834 27.2422L153.746 27.3008C153.805 27.2422 153.971 27.1152 154.244 26.9199C155.553 25.8457 156.568 24.9668 157.291 24.2832C158.814 22.8379 160.348 21.1973 161.891 19.3613L162.33 18.7754V18.8047L162.242 18.8926C162.242 18.873 162.262 18.8535 162.301 18.834L162.477 18.5703C164.352 16.0898 165.953 13.3066 167.281 10.2207C167.301 10.1426 167.33 10.0742 167.369 10.0156C167.408 9.9375 167.447 9.85938 167.486 9.78125L167.516 9.66406V9.72266L167.457 9.78125L167.516 9.66406C167.945 8.64844 168.248 7.70117 168.424 6.82227C168.463 6.70508 168.482 6.58789 168.482 6.4707V6.67578H168.453L168.482 5.91406C168.482 5.66016 168.473 5.5332 168.453 5.5332L168.482 5.62109V5.76758H168.512C168.512 5.65039 168.482 5.57227 168.424 5.5332C168.424 5.47461 168.414 5.43555 168.395 5.41602C168.395 5.37695 168.385 5.33789 168.365 5.29883C168.346 5.25977 168.336 5.2207 168.336 5.18164L168.424 5.35742L168.336 5.21094C168.258 5.13281 168.219 5.06445 168.219 5.00586C168.238 5.00586 168.268 5.03516 168.307 5.09375L167.867 4.6543C167.867 4.69336 167.906 4.73242 167.984 4.77148C167.828 4.6543 167.73 4.58594 167.691 4.56641C167.652 4.54687 167.633 4.52734 167.633 4.50781H167.691L167.721 4.53711L166.9 4.33203H166.93C166.969 4.35156 167.037 4.36133 167.135 4.36133C166.783 4.36133 166.48 4.37109 166.227 4.39062L166.373 4.36133C166.334 4.40039 166.256 4.41992 166.139 4.41992C166.041 4.45898 165.973 4.47852 165.934 4.47852C165.914 4.47852 165.885 4.48828 165.846 4.50781C165.807 4.52734 165.768 4.53711 165.729 4.53711L165.523 4.625L165.641 4.56641L165.406 4.68359C165.211 4.78125 165.025 4.88867 164.85 5.00586C164.752 5.08398 164.645 5.15234 164.527 5.21094L164.439 5.24023L164.557 5.15234C164.498 5.21094 164.449 5.25977 164.41 5.29883C164.371 5.31836 164.352 5.33789 164.352 5.35742C163.512 6.04102 162.779 6.79297 162.154 7.61328L162.096 7.70117H162.066L161.979 7.81836L161.92 7.90625C161.1 8.96094 160.299 10.2402 159.518 11.7441C158.6 13.5215 157.75 15.3477 156.969 17.2227L156.881 17.457L156.939 17.2812V17.3398L156.588 18.1309C154.771 22.7402 153.287 27.8086 152.135 33.3359C152.115 33.5117 152.086 33.6777 152.047 33.834V34.0098L152.018 34.0977L152.047 33.8633C152.047 33.9805 152.037 34.0391 152.018 34.0391C151.959 34.6445 151.93 35.25 151.93 35.8555C151.93 36.2461 151.949 36.627 151.988 36.998V37.0566L151.959 36.998V36.9688C151.979 36.9688 151.988 37.0176 151.988 37.1152C152.125 37.7598 152.232 38.1211 152.311 38.1992C152.311 38.2383 152.33 38.2773 152.369 38.3164C152.311 38.3164 152.281 38.2578 152.281 38.1406H152.252L152.281 38.1699C152.281 38.1895 152.281 38.2188 152.281 38.2578C152.301 38.2773 152.35 38.3359 152.428 38.4336C152.506 38.5312 152.564 38.6387 152.604 38.7559L152.633 38.8145V38.7852C152.613 38.7852 152.594 38.7754 152.574 38.7559C152.574 38.7363 152.564 38.7168 152.545 38.6973C152.545 38.6582 152.525 38.6387 152.486 38.6387L153.102 39.2539C153.082 39.2539 153.023 39.2051 152.926 39.1074L153.16 39.2832L153.805 39.6348C153.746 39.6348 153.678 39.6055 153.6 39.5469H153.57C153.59 39.5664 153.639 39.5859 153.717 39.6055L153.98 39.6934L154.566 39.8398C154.664 39.8398 154.732 39.8496 154.771 39.8691H154.859V39.8984C154.84 39.8984 154.811 39.8984 154.771 39.8984C154.732 39.8789 154.703 39.8594 154.684 39.8398H154.596C154.674 39.8984 154.791 39.9277 154.947 39.9277C155.299 39.9277 155.514 39.9082 155.592 39.8691C155.904 39.8691 156.09 39.8594 156.148 39.8398H156.236L156.207 39.8691H156.119L156.178 39.8398H156.266C156.93 39.7422 157.555 39.5664 158.141 39.3125C158.238 39.2734 158.307 39.2539 158.346 39.2539L158.141 39.3418L158.199 39.3125C158.238 39.2734 158.277 39.2539 158.316 39.2539C158.355 39.2344 158.395 39.2148 158.434 39.1953C159.352 38.8047 160.973 37.7207 163.297 35.9434C163.355 35.8652 163.434 35.8066 163.531 35.7676C163.473 35.8262 163.424 35.8555 163.385 35.8555V35.8848C163.482 35.8066 163.541 35.7676 163.561 35.7676C163.58 35.748 163.6 35.7188 163.619 35.6797L163.971 35.416C166.471 33.3652 168.121 31.7734 168.922 30.6406C168.961 30.6211 168.99 30.5918 169.01 30.5527C169.029 30.5137 169.049 30.4941 169.068 30.4941C169.088 30.4746 169.098 30.4551 169.098 30.4355L169.039 30.5234L169.127 30.4062C169.635 29.7227 170.23 29.3809 170.914 29.3809C171.246 29.3809 171.607 29.4688 171.998 29.6445C172.721 30.0742 173.082 30.709 173.082 31.5488C173.082 31.9004 172.975 32.2324 172.76 32.5449C172.154 33.3457 171.51 34.1172 170.826 34.8594C168.268 37.4961 165.436 39.8008 162.33 41.7734C160.924 42.7109 159.391 43.3945 157.73 43.8242C156.969 44.0195 156.207 44.1172 155.445 44.1172ZM175.807 15.3477L149.967 14.9961C149.361 14.9766 148.863 14.7715 148.473 14.3809C148.102 13.9707 147.896 13.4727 147.857 12.8867C147.857 12.3008 148.062 11.8027 148.473 11.3926C148.902 10.9824 149.4 10.7773 149.967 10.7773L175.807 11.1289C176.412 11.1484 176.9 11.3535 177.271 11.7441C177.662 12.1348 177.877 12.6328 177.916 13.2383C177.916 13.8242 177.711 14.3223 177.301 14.7324C176.891 15.123 176.393 15.3281 175.807 15.3477ZM165.568 70.6309C164.982 70.6309 164.406 70.543 163.839 70.3672C162.238 69.7227 161.291 68.6484 160.998 67.1445C160.861 66.4805 160.793 65.8164 160.793 65.1523C160.793 64.3125 160.9 63.4629 161.115 62.6035C161.974 58.9707 163.879 55.6113 166.828 52.5254C169.562 49.6738 172.502 47.0664 175.646 44.7031C178.791 42.3594 181.984 40.084 185.226 37.877C188.332 35.7676 191.388 33.5898 194.396 31.3438C194.709 31.1289 195.041 31.0215 195.392 31.0215C196.193 31.0215 196.818 31.3828 197.267 32.1055C197.462 32.4375 197.56 32.7793 197.56 33.1309C197.56 33.834 197.209 34.4492 196.505 34.9766C194.494 36.5391 190.812 39.1562 185.461 42.8281C181.925 45.2695 179.484 47.0371 178.136 48.1309C178.078 48.1504 178.019 48.1797 177.961 48.2188C177.921 48.2773 177.873 48.3262 177.814 48.3652L177.902 48.2773H177.931L177.521 48.5996C174.377 50.9434 171.525 53.5605 168.966 56.4512L168.527 56.9785V57.0078C168.429 57.1055 168.38 57.1641 168.38 57.1836H168.351L168.439 57.0664V57.0957L168.322 57.2422C167.56 58.2578 166.886 59.3516 166.3 60.5234C166.105 60.9141 165.998 61.1484 165.978 61.2266L166.037 61.1094L165.89 61.4316C165.597 62.1934 165.343 63.0234 165.129 63.9219C165.089 64.2344 165.05 64.4492 165.011 64.5664V64.6836H164.982L165.011 64.5078L164.982 65.6211C164.982 65.8359 164.992 65.9824 165.011 66.0605C164.992 66.0605 164.982 66.0215 164.982 65.9434L164.953 65.8262H164.982V65.9434L165.011 66.0312C165.089 66.2266 165.129 66.3633 165.129 66.4414C165.109 66.4414 165.099 66.4316 165.099 66.4121C165.08 66.3926 165.07 66.3633 165.07 66.3242C165.05 66.3047 165.041 66.2559 165.041 66.1777L165.216 66.5H165.187C165.187 66.5 165.177 66.4805 165.158 66.4414C165.119 66.4219 165.089 66.3926 165.07 66.3535C165.031 66.3145 165.011 66.2852 165.011 66.2656C165.031 66.2656 165.05 66.2754 165.07 66.2949C165.089 66.3145 165.119 66.334 165.158 66.3535C165.177 66.373 165.197 66.4023 165.216 66.4414C165.197 66.4414 165.177 66.4219 165.158 66.3828C165.119 66.3633 165.07 66.334 165.011 66.2949L164.923 66.2363C164.982 66.2559 165.031 66.2754 165.07 66.2949C165.089 66.334 165.119 66.3633 165.158 66.3828C165.197 66.4023 165.226 66.4121 165.246 66.4121C165.246 66.4121 165.246 66.4219 165.246 66.4414L164.953 66.3242V66.2949C164.992 66.3145 165.031 66.3242 165.07 66.3242C165.109 66.3438 165.158 66.3535 165.216 66.3535C165.275 66.373 165.334 66.3828 165.392 66.3828C165.431 66.4023 165.451 66.4219 165.451 66.4414L165.421 66.4121L165.07 66.3828H165.949C165.91 66.4023 165.822 66.4121 165.685 66.4121H165.627C165.724 66.4121 165.812 66.3926 165.89 66.3535C166.027 66.3535 166.33 66.2754 166.798 66.1191L167.033 66.0312L167.326 65.8848C167.775 65.6895 168.361 65.3477 169.084 64.8594C169.084 64.8398 169.103 64.8105 169.142 64.7715C169.181 64.752 169.22 64.7324 169.259 64.7129C169.298 64.6934 169.328 64.6738 169.347 64.6543H169.318C169.22 64.752 169.162 64.8008 169.142 64.8008C169.142 64.8008 169.142 64.8105 169.142 64.8301L169.904 64.1562C170.783 63.2773 171.603 62.3496 172.365 61.373L172.306 61.4609L172.892 60.6699C174.201 58.8145 175.48 56.5781 176.73 53.9609C177.043 53.2969 177.267 52.7988 177.404 52.4668L177.433 52.4082C177.433 52.3691 177.443 52.3301 177.462 52.291C177.482 52.252 177.502 52.2227 177.521 52.2031L177.462 52.3203L177.609 51.998C177.609 51.959 177.619 51.9297 177.638 51.9102C179.318 47.6914 181.642 40.7188 184.611 30.9922C185.295 28.7266 185.998 26.4609 186.72 24.1953C188.244 24.8594 189.523 25.3965 190.558 25.8066C189.269 28.7559 187.648 31.5 185.695 34.0391C183.468 36.9883 181.339 39.1562 179.308 40.543C177.824 41.5391 176.232 42.0371 174.533 42.0371C173.302 42.0371 172.15 41.666 171.076 40.9238C169.67 39.8105 168.879 38.4238 168.703 36.7637C168.644 36.1777 168.615 35.6016 168.615 35.0352C168.615 33.9609 168.712 32.8867 168.908 31.8125C169.396 28.7266 170.392 25.8262 171.896 23.1113C172.267 22.4277 172.873 22.0859 173.712 22.0859C174.084 22.0859 174.435 22.1738 174.767 22.3496C175.451 22.7207 175.793 23.3262 175.793 24.166C175.793 24.5371 175.705 24.8887 175.529 25.2207C175.158 25.8848 174.826 26.5684 174.533 27.2715L174.416 27.5352C173.732 29.3711 173.293 30.9629 173.097 32.3105L172.98 32.9258L173.009 32.8672V32.8086C172.99 32.8477 172.98 32.9062 172.98 32.9844C172.882 33.8438 172.834 34.6836 172.834 35.5039C172.834 35.9531 172.843 36.2559 172.863 36.4121L172.834 36.2363L173.009 36.9102C173.029 36.9297 173.039 36.959 173.039 36.998L172.98 36.8223C172.98 36.8809 173.009 36.9492 173.068 37.0273L173.097 37.0566C173.097 37.0957 173.117 37.1445 173.156 37.2031C173.214 37.2422 173.244 37.2715 173.244 37.291L173.097 37.1445V37.1152C173.117 37.1152 173.127 37.125 173.127 37.1445C173.127 37.1445 173.127 37.1543 173.127 37.1738C173.146 37.1738 173.205 37.2227 173.302 37.3203C173.302 37.3398 173.322 37.3691 173.361 37.4082C173.4 37.4277 173.429 37.4375 173.449 37.4375V37.4668L173.244 37.3496C173.283 37.3691 173.322 37.3984 173.361 37.4375C173.4 37.457 173.439 37.4766 173.478 37.4961C173.517 37.5156 173.546 37.5352 173.566 37.5547C173.605 37.5547 173.644 37.5645 173.683 37.584C173.722 37.6035 173.752 37.623 173.771 37.6426C173.791 37.6426 173.8 37.6523 173.8 37.6719L173.771 37.6426C173.732 37.623 173.664 37.6035 173.566 37.584C173.976 37.7207 174.24 37.7988 174.357 37.8184L174.533 37.8477C174.474 37.8477 174.435 37.8379 174.416 37.8184C174.318 37.8184 174.269 37.8086 174.269 37.7891C174.347 37.8281 174.435 37.8477 174.533 37.8477C174.65 37.8477 174.757 37.8379 174.855 37.8184H175.002L175.324 37.7598C175.617 37.7012 175.91 37.6133 176.203 37.4961L176.056 37.5547L176.144 37.4961C176.183 37.457 176.232 37.4375 176.291 37.4375C176.701 37.2422 177.101 36.9883 177.492 36.6758C177.511 36.6758 177.521 36.6758 177.521 36.6758C177.541 36.6562 177.58 36.6172 177.638 36.5586L177.521 36.6465C177.58 36.5684 177.677 36.4902 177.814 36.4121C178.048 36.2168 178.283 36.002 178.517 35.7676C182.111 32.3301 184.914 28.3066 186.925 23.6973C187.257 23.0137 187.863 22.6719 188.742 22.6719C189.582 22.6719 190.216 23.0625 190.646 23.8438C190.783 24.1172 190.851 24.4102 190.851 24.7227C190.851 25.0156 190.5 26.2461 189.796 28.4141L185.578 41.8613C184.562 45.2012 183.439 48.5117 182.209 51.793C180.9 55.3281 179.22 58.6777 177.17 61.8418C176.291 63.209 175.314 64.5078 174.24 65.7383C172.15 68.1406 169.845 69.6836 167.326 70.3672C166.74 70.543 166.154 70.6309 165.568 70.6309Z" fill="#077DF9"/>
</svg>
