<svg width="50" height="50" viewBox="0 0 50 50" fill="none" xmlns="http://www.w3.org/2000/svg">
<rect width="50" height="50" rx="25" fill="url(#paint0_linear_28_138)"/>
<path d="M23.75 14.6875C21.1612 14.6875 19.0625 16.7862 19.0625 19.375C19.0625 21.9638 21.1612 24.0625 23.75 24.0625C26.3388 24.0625 28.4375 21.9638 28.4375 19.375C28.4375 16.7862 26.3388 14.6875 23.75 14.6875Z" fill="white"/>
<path d="M18.75 26.5625C16.1612 26.5625 14.0625 28.6612 14.0625 31.25V32.7354C14.0625 33.6769 14.7449 34.4797 15.6741 34.6314C21.0226 35.5046 26.4774 35.5046 31.8259 34.6314C32.7551 34.4797 33.4375 33.6769 33.4375 32.7354V31.25C33.4375 28.6612 31.3388 26.5625 28.75 26.5625H28.3239C28.0933 26.5625 27.8641 26.599 27.6449 26.6705L26.563 27.0238C24.7352 27.6207 22.7648 27.6207 20.937 27.0238L19.8551 26.6705C19.6359 26.599 19.4067 26.5625 19.1761 26.5625H18.75Z" fill="white"/>
<path d="M34.375 17.8125C34.8928 17.8125 35.3125 18.2322 35.3125 18.75V20.9375H37.5C38.0178 20.9375 38.4375 21.3572 38.4375 21.875C38.4375 22.3928 38.0178 22.8125 37.5 22.8125H35.3125V25C35.3125 25.5178 34.8928 25.9375 34.375 25.9375C33.8572 25.9375 33.4375 25.5178 33.4375 25V22.8125H31.25C30.7322 22.8125 30.3125 22.3928 30.3125 21.875C30.3125 21.3572 30.7322 20.9375 31.25 20.9375H33.4375V18.75C33.4375 18.2322 33.8572 17.8125 34.375 17.8125Z" fill="white"/>
<defs>
<linearGradient id="paint0_linear_28_138" x1="50" y1="0" x2="0" y2="50" gradientUnits="userSpaceOnUse">
<stop stop-color="#2290FC"/>
<stop offset="1" stop-color="#0673E8"/>
</linearGradient>
</defs>
</svg>
