<svg width="281" height="59" viewBox="0 0 281 59" fill="none" xmlns="http://www.w3.org/2000/svg">
<path d="M17.1758 58.2969C16.5312 58.2969 15.8867 58.1992 15.2422 58.0039C13.4258 57.2812 12.5176 55.8457 12.5176 53.6973C12.5176 52.5645 12.8008 51.4316 13.3672 50.2988C14.1289 48.8926 15.1738 47.6914 16.502 46.6953C17.8301 45.7188 19.207 44.8691 20.6328 44.1465C23.7773 42.5059 26.9219 40.8945 30.0664 39.3125C33.2305 37.7305 36.4727 36.2852 39.793 34.9766C43.1133 33.6484 46.5215 32.6914 50.0176 32.1055L50.4863 32.0762C51.4824 32.0762 52.1953 32.5645 52.625 33.541C52.6641 33.7168 52.6836 33.8926 52.6836 34.0684C52.6836 34.4199 52.5664 34.8105 52.332 35.2402C52.0977 35.6699 51.6973 35.9434 51.1309 36.0605C47.5762 36.6465 43.7773 37.7793 39.7344 39.459L39.5879 39.5176C39.5879 39.498 39.5879 39.4883 39.5879 39.4883L39.6758 39.459L39.4414 39.5762H39.3828L37.7129 40.3086C35.6621 41.1875 33.3184 42.291 30.6816 43.6191C24.8223 46.5488 21.3066 48.4043 20.1348 49.1855L19.4902 49.625C19.4121 49.7031 19.3535 49.7422 19.3145 49.7422C19.3535 49.7422 19.4023 49.7129 19.4609 49.6543H19.4316L18.6699 50.2988C18.1816 50.748 17.8594 51.0801 17.7031 51.2949L17.5566 51.4707H17.5273L17.6738 51.3242L17.5273 51.5C17.1562 52.0469 16.9707 52.3691 16.9707 52.4668H16.9414L17 52.4082V52.3203H17.0293V52.3789C17.0098 52.3984 16.9805 52.457 16.9414 52.5547C16.9023 52.6719 16.873 52.7793 16.8535 52.877C16.834 52.877 16.8242 52.8965 16.8242 52.9355C16.8242 52.9746 16.8145 53.0137 16.7949 53.0527L16.7363 53.2578L16.7656 53.1699C16.7656 53.1309 16.7754 53.1113 16.7949 53.1113V53.1406C16.7754 53.1797 16.7656 53.2578 16.7656 53.375L16.7363 53.4629C16.7363 53.8145 16.7461 54.0098 16.7656 54.0488V54.1074V54.0195C16.7461 53.9805 16.7266 53.9609 16.707 53.9609V53.9316C16.7266 53.9316 16.7363 53.9316 16.7363 53.9316C16.7363 53.9512 16.7461 53.9805 16.7656 54.0195L16.8535 54.3711L16.8242 54.3418V54.2539L16.8535 54.3125C16.834 54.3125 16.8145 54.3027 16.7949 54.2832C16.7949 54.2832 16.7852 54.2734 16.7656 54.2539H16.7363H16.7656C16.7852 54.2539 16.8145 54.2734 16.8535 54.3125C16.7168 54.2148 16.6289 54.166 16.5898 54.166V54.1367L16.8535 54.1953L16.8242 54.2246C16.7852 54.2246 16.7656 54.2148 16.7656 54.1953L18.1133 54.1367C18.1523 54.1172 18.2012 54.1074 18.2598 54.1074C19.5293 53.834 20.3301 53.6094 20.6621 53.4336L20.7793 53.4043L20.7207 53.4336C21.834 52.9258 22.7422 52.4082 23.4453 51.8809C23.6406 51.7637 23.7578 51.6855 23.7969 51.6465H23.7676C23.748 51.666 23.7188 51.6758 23.6797 51.6758C23.6602 51.6953 23.6504 51.7246 23.6504 51.7637V51.7344C23.748 51.6758 23.9629 51.5098 24.2949 51.2363C25.1543 50.5332 25.9746 49.6934 26.7559 48.7168L26.8145 48.6582V48.6289L26.7852 48.7168L26.7266 48.7461L26.9316 48.5117C28.0645 47.0078 29.0508 45.377 29.8906 43.6191C30.3594 42.6621 30.8184 41.6953 31.2676 40.7188V40.6895L31.3262 40.5723L31.2969 40.6309L31.3262 40.5723C31.3262 40.5332 31.3359 40.5137 31.3555 40.5137V40.4551L31.8535 39.3418C36.1504 29.166 39.9297 18.7363 43.1914 8.05273L47.2637 9.13672L45.5938 12.8867C43.6211 17.2812 41.3652 21.5195 38.8262 25.6016C37.6543 27.4375 36.3457 29.1855 34.9004 30.8457C33.4746 32.5059 31.8438 33.9902 30.0078 35.2988C28.1914 36.6074 26.1406 37.584 23.8555 38.2285C22.6445 38.5605 21.4336 38.7266 20.2227 38.7266C16.3359 38.7266 13.4453 37.2715 11.5508 34.3613C10.4375 32.4668 9.88086 30.2793 9.88086 27.7988C9.88086 24.127 10.9648 20.0156 13.1328 15.4648C14.5977 12.2422 16.5312 9.25391 18.9336 6.5C20.9648 4.11719 23.2109 2.92578 25.6719 2.92578C26.6484 2.92578 27.6445 3.13086 28.6602 3.54102C29.8906 4.12695 30.7305 4.98633 31.1797 6.11914C31.6289 7.25195 31.8535 8.48242 31.8535 9.81055C31.7754 14.166 30.2715 18.248 27.3418 22.0566C24.5684 25.5137 20.916 28.4727 16.3848 30.9336C11.7949 33.5312 7.24414 35.084 2.73242 35.5918C2.10742 35.5918 1.60938 35.3867 1.23828 34.9766C0.867188 34.5664 0.671875 34.0879 0.652344 33.541C0.652344 32.9355 0.857422 32.4668 1.26758 32.1348C1.77539 31.7051 2.27344 31.4902 2.76172 31.4902C2.85938 31.4902 2.92773 31.4805 2.9668 31.4609H2.99609L2.9082 31.4902L3.78711 31.3438C5.75977 30.9531 7.78125 30.3574 9.85156 29.5566L9.96875 29.4688H10.0566L9.91016 29.5273C10.0664 29.4492 10.1836 29.4004 10.2617 29.3809L10.9062 29.0879C13.7578 27.8184 16.5801 26.1582 19.373 24.1074L19.7832 23.8145C21.1309 22.7402 22.3516 21.5586 23.4453 20.2695C23.5625 20.0938 23.6797 19.9473 23.7969 19.8301V19.8594L23.709 19.9766C23.709 19.957 23.7285 19.9277 23.7676 19.8887C23.8066 19.8301 23.8457 19.7715 23.8848 19.7129L24.1777 19.332C24.9199 18.3164 25.6523 17.0762 26.375 15.6113L26.4043 15.5527L26.3457 15.6406L26.4336 15.4355C26.4922 15.3379 26.6094 15.0352 26.7852 14.5273C27.0977 13.6094 27.332 12.7012 27.4883 11.8027C27.5273 11.6465 27.5469 11.5293 27.5469 11.4512L27.5176 11.6562L27.5469 11.5391C27.5469 11.4219 27.5566 11.1875 27.5762 10.8359C27.6152 10.4648 27.6348 9.9375 27.6348 9.25391C27.6348 9.03906 27.6152 8.79492 27.5762 8.52148C27.5762 8.48242 27.5859 8.45313 27.6055 8.43359V8.46289L27.6348 8.58008H27.6055L27.5469 8.3457C27.5469 8.18945 27.4883 7.97461 27.3711 7.70117L27.459 7.81836V7.84766L27.4297 7.81836C27.4102 7.79883 27.3809 7.76953 27.3418 7.73047C27.3223 7.67188 27.3027 7.63281 27.2832 7.61328C27.2832 7.57422 27.2637 7.53516 27.2246 7.49609C27.2051 7.45703 27.1855 7.4375 27.166 7.4375C27.1855 7.4375 27.1953 7.45703 27.1953 7.49609C27.2148 7.53516 27.2441 7.56445 27.2832 7.58398C27.3223 7.58398 27.3418 7.59375 27.3418 7.61328L27.3125 7.58398C27.293 7.58398 27.2637 7.57422 27.2246 7.55469C27.2051 7.51563 27.1758 7.48633 27.1367 7.4668C27.1172 7.42773 27.0879 7.39844 27.0488 7.37891C27.0293 7.33984 27.0098 7.31055 26.9902 7.29102C27.0684 7.33008 27.1074 7.34961 27.1074 7.34961L27.1953 7.4375C27.1758 7.41797 27.1367 7.39844 27.0781 7.37891C27.0391 7.35937 26.9902 7.33008 26.9316 7.29102C26.8926 7.25195 26.8438 7.22266 26.7852 7.20312C26.7461 7.16406 26.7168 7.14453 26.6973 7.14453L26.873 7.23242C26.8145 7.23242 26.7559 7.22266 26.6973 7.20312C26.6582 7.16406 26.6289 7.13477 26.6094 7.11523C26.3945 7.07617 26.2773 7.05664 26.2578 7.05664C26.2383 7.03711 26.209 7.01758 26.1699 6.99805H26.082L26.0234 6.96875L25.9941 6.99805L26.2285 6.96875C26.209 6.98828 26.1602 6.99805 26.082 6.99805H25.3496C25.3105 7.01758 25.2422 7.02734 25.1445 7.02734L25.4082 6.99805L25.2324 7.02734C24.7637 7.14453 24.5098 7.22266 24.4707 7.26172V7.23242L24.6172 7.17383C24.5586 7.23242 24.4707 7.28125 24.3535 7.32031C23.9434 7.51563 23.6113 7.7207 23.3574 7.93555L23.5332 7.81836H23.5039C23.5039 7.83789 23.4844 7.85742 23.4453 7.87695C23.4258 7.89648 23.3965 7.92578 23.3574 7.96484C22.5957 8.62891 21.9023 9.36133 21.2773 10.1621H21.248H21.2773H21.248C21.248 10.1816 21.2285 10.2012 21.1895 10.2207C21.1699 10.2402 21.1211 10.3086 21.043 10.4258L20.457 11.2168C19.5195 12.5059 18.6699 13.8438 17.9082 15.2305C16.9512 16.9883 16.4727 17.9746 16.4727 18.1895C16.4531 18.2285 16.4434 18.248 16.4434 18.248H16.4141L16.4727 18.1895V18.1309L16.502 18.1016C16.4824 18.1211 16.4629 18.1504 16.4434 18.1895C16.4434 18.209 16.4336 18.2383 16.4141 18.2773C16.3945 18.3164 16.375 18.375 16.3555 18.4531C16.3359 18.5117 16.3066 18.5801 16.2676 18.6582C15.9941 19.2637 15.7305 19.9766 15.4766 20.7969C14.9297 22.3594 14.5391 23.8047 14.3047 25.1328C14.2852 25.3477 14.2461 25.5625 14.1875 25.7773L14.2461 25.5723V25.6309C14.207 25.709 14.1875 25.8457 14.1875 26.041C14.1094 26.6465 14.0703 27.2617 14.0703 27.8867C14.0703 28.4141 14.0898 28.7754 14.1289 28.9707C14.1289 29.2637 14.1484 29.4102 14.1875 29.4102V29.3809C14.168 29.3613 14.1582 29.3027 14.1582 29.2051L14.1289 29.1758L14.1582 29.2051C14.1582 29.3418 14.168 29.4199 14.1875 29.4395C14.1875 29.5957 14.2852 30.0449 14.4805 30.7871L14.7734 31.5781L14.8027 31.6367C15.2129 32.3789 15.4473 32.75 15.5059 32.75V32.7793L15.3887 32.6328C15.4277 32.6328 15.4863 32.6914 15.5645 32.8086C15.584 32.8477 15.6133 32.877 15.6523 32.8965C15.8672 33.1309 16.0039 33.2773 16.0625 33.3359C16.1406 33.375 16.1895 33.4043 16.209 33.4238C16.2285 33.4434 16.2773 33.4824 16.3555 33.541H16.3262L16.209 33.4531C16.541 33.668 16.8828 33.873 17.2344 34.0684L17.4688 34.1562C17.4492 34.1562 17.4199 34.1562 17.3809 34.1562C17.3418 34.1367 17.3223 34.1172 17.3223 34.0977H17.3516C17.3906 34.1367 17.4297 34.1562 17.4688 34.1562C17.5078 34.1562 17.6543 34.2051 17.9082 34.3027C18.3184 34.4395 18.6016 34.5176 18.7578 34.5371C18.9141 34.5566 19.0117 34.5664 19.0508 34.5664H18.9629C18.9043 34.5664 18.875 34.5566 18.875 34.5371L18.9336 34.5664L19.9883 34.5957C20.5742 34.5957 20.9844 34.5859 21.2188 34.5664C21.2383 34.5469 21.2676 34.5371 21.3066 34.5371C21.3652 34.5371 21.4043 34.5273 21.4238 34.5078H21.4531L21.248 34.5664C21.3066 34.5469 21.3555 34.5371 21.3945 34.5371C21.4336 34.5176 21.4824 34.5078 21.541 34.5078C22.5176 34.332 23.4648 34.0684 24.3828 33.7168L24.4414 33.6875C24.5 33.6875 24.5488 33.6777 24.5879 33.6582C24.627 33.6191 24.6562 33.5996 24.6758 33.5996L24.5293 33.6582L24.6172 33.5996L24.7344 33.5703C25.9648 33.0234 26.9609 32.457 27.7227 31.8711L28.0156 31.6953C28.0156 31.6758 28.0254 31.6562 28.0449 31.6367C28.084 31.6172 28.1328 31.5879 28.1914 31.5488H28.2207L28.0742 31.6367L28.543 31.2852C30.0273 30.0742 31.3555 28.7363 32.5273 27.2715L32.7324 27.0371V27.0078L32.6445 27.125L32.7031 27.0371C32.7617 26.9785 32.791 26.9395 32.791 26.9199C33.1035 26.5684 33.5137 26.0215 34.0215 25.2793C36.8145 21.2559 39.6855 15.9434 42.6348 9.3418C42.8496 8.83398 42.9668 8.56055 42.9863 8.52148C43.0059 8.48242 43.0156 8.46289 43.0156 8.46289C43.0156 8.44336 43.0156 8.43359 43.0156 8.43359C43.0352 8.41406 43.0547 8.39453 43.0742 8.375V8.3457L43.0156 8.43359C43.0742 8.33594 43.123 8.22852 43.1621 8.11133L43.1914 8.05273C43.6016 7.07617 44.2949 6.58789 45.2715 6.58789C46.0723 6.58789 46.668 6.91992 47.0586 7.58398C47.2344 7.91602 47.3223 8.25781 47.3223 8.60938C47.3223 8.78516 47.3027 8.96094 47.2637 9.13672L46.3848 11.9785C44.0215 19.4395 41.3945 26.8125 38.5039 34.0977C38.4648 34.2148 38.416 34.3223 38.3574 34.4199C35.6621 41.4707 33.3086 46.5195 31.2969 49.5664C27.918 54.6445 23.5137 57.5352 18.084 58.2383C17.7715 58.2773 17.4688 58.2969 17.1758 58.2969ZM59.3785 43.8828C58.1871 43.8828 56.9957 43.6582 55.8043 43.209C53.5973 42.3496 52.0152 40.8457 51.0582 38.6973C50.3941 37.2324 50.0621 35.709 50.0621 34.127C50.0621 33.4434 50.1207 32.7402 50.2379 32.0176C50.9801 27.8574 52.9723 24.4199 56.2145 21.7051C57.8551 20.3379 59.6617 19.3516 61.6344 18.7461C62.7281 18.4141 63.8512 18.248 65.0035 18.248C68.3434 18.248 70.3258 19.2441 70.9508 21.2363C71.0484 21.5488 71.0973 21.8711 71.0973 22.2031C71.0973 23.1211 70.775 24.0684 70.1305 25.0449C67.2203 29.4395 62.3961 32.0859 55.6578 32.9844C55.0914 33.0625 54.5738 33.1016 54.1051 33.1016C52.0348 33.1016 50.9996 32.3203 50.9996 30.7578C50.9996 30.3477 51.0777 29.8691 51.234 29.3223C51.7223 29.3223 52.3961 29.2734 53.2555 29.1758L54.1051 29.0586C56.1559 28.7852 58.148 28.2871 60.0816 27.5645L60.7848 27.3008C62.1324 26.7734 63.2652 26.1484 64.1832 25.4258V25.3965L64.0367 25.543C64.9742 24.8008 65.6871 24.0977 66.1754 23.4336L66.0582 23.5508L66.2633 23.2578C66.5758 22.8477 66.7613 22.5449 66.8199 22.3496V22.4082H66.7906L66.8199 22.3789V22.291C66.8395 22.2715 66.8492 22.2422 66.8492 22.2031C66.8688 22.1641 66.8785 22.1152 66.8785 22.0566L66.8492 22.291V22.1152C66.8492 22.291 66.9371 22.4961 67.1129 22.7305L67.1422 22.7598L67.0543 22.7305C67.1129 22.7305 67.1617 22.75 67.2008 22.7891L65.9117 22.4961C65.9898 22.4961 66.0484 22.5059 66.0875 22.5254C65.7555 22.4863 65.4137 22.4668 65.0621 22.4668C64.5738 22.4668 64.2027 22.4766 63.9488 22.4961L64.066 22.4668C64.066 22.4863 64.0367 22.4961 63.9781 22.4961C63.9391 22.4961 63.8805 22.5059 63.8023 22.5254C62.65 22.8184 62.0055 23.0039 61.8688 23.082C61.8492 23.1016 61.8102 23.1113 61.7516 23.1113L61.8688 23.082L61.8102 23.1113C61.068 23.4434 60.2281 23.9414 59.2906 24.6055L59.4664 24.459C58.4313 25.2988 57.6109 26.1094 57.0055 26.8906L56.9176 26.9785L56.9762 26.8906C56.2535 27.9062 55.6773 28.873 55.2477 29.791C55.2281 29.8301 55.2086 29.8691 55.1891 29.9082C55.1891 29.9277 55.1891 29.9473 55.1891 29.9668C54.8766 30.6895 54.6129 31.627 54.398 32.7793L54.3688 32.9258C54.3297 33.0625 54.3102 33.668 54.3102 34.7422C54.3102 35.1719 54.3297 35.416 54.3688 35.4746V35.5332L54.3102 35.2988C54.3297 35.3379 54.3395 35.3867 54.3395 35.4453C54.3395 35.6797 54.4664 36.1289 54.7203 36.793C54.7398 36.8711 54.7594 36.9199 54.7789 36.9395C54.7594 36.9395 54.7496 36.9297 54.7496 36.9102C54.7496 36.8906 54.7496 36.8613 54.7496 36.8223L54.7203 36.793C54.9156 37.2227 55.1305 37.6035 55.3648 37.9355C55.3844 37.9355 55.3941 37.9453 55.3941 37.9648C55.3941 37.9453 55.3844 37.9355 55.3648 37.9355C55.3648 37.916 55.3355 37.877 55.277 37.8184L56.1266 38.6387H56.0973L55.9801 38.5215H56.0094C56.0094 38.541 56.0875 38.5996 56.2438 38.6973C56.6344 38.9707 56.9762 39.166 57.2691 39.2832L57.0641 39.1953H57.1227C57.2203 39.293 57.65 39.4297 58.4117 39.6055C58.5094 39.625 58.6168 39.6348 58.734 39.6348L58.4996 39.6055H58.6461L58.6754 39.6348H60.1695C60.2086 39.5957 60.2965 39.5762 60.4332 39.5762L60.4039 39.6055L60.2867 39.6348H60.2281C60.2281 39.6152 60.2477 39.6055 60.2867 39.6055C60.4039 39.6055 60.482 39.5859 60.5211 39.5469C61.4391 39.4102 62.4254 38.9805 63.4801 38.2578L63.9195 37.9355L63.8316 38.0234V37.9941C64.2027 37.7793 64.8473 37.1348 65.7652 36.0605L65.7945 36.0312L65.7652 36.0898C66.1363 35.6602 66.5074 35.0254 66.8785 34.1855L66.9664 34.0098V34.0684C66.9664 34.0488 66.9664 34.0195 66.9664 33.9805C66.9859 33.9414 66.9957 33.9121 66.9957 33.8926C67.0152 33.8535 67.025 33.834 67.025 33.834C67.0445 33.834 67.1324 33.541 67.2887 32.9551L67.4938 32.1055C67.4938 32.2422 67.484 32.3105 67.4645 32.3105L67.4938 30.9922C67.4938 30.8555 67.484 30.7773 67.4645 30.7578C67.484 30.7773 67.4938 30.8066 67.4938 30.8457C67.4938 30.8652 67.5035 30.8848 67.523 30.9043V30.9922L67.2594 29.9961C67.2789 30.0156 67.2887 30.0352 67.2887 30.0547C67.2887 30.0742 67.2887 30.1035 67.2887 30.1426C67.3082 30.1816 67.3277 30.2012 67.3473 30.2012L66.9078 29.4395H66.9371L67.0543 29.5566V29.5859C66.9762 29.5859 66.8688 29.498 66.732 29.3223C66.693 29.2637 66.6441 29.2148 66.5855 29.1758L69.5738 26.1875L70.2184 26.7148L70.6285 27.0664C70.7066 27.3789 71.1852 27.8867 72.0641 28.5898L72.2398 28.707L72.357 28.7363C73.8219 29.4004 75.6578 29.7812 77.8648 29.8789C79.8961 29.957 80.9605 30.4355 81.0582 31.3145C81.234 32.7207 80.2281 33.4141 78.0406 33.3945C75.9703 33.3945 74.1148 33.209 72.4742 32.8379C70.7359 32.4277 68.7828 31.1973 66.6148 29.1465C66.2047 28.7559 66.0094 28.2969 66.0289 27.7695V27.2715C66.0289 26.9785 66.2242 26.627 66.6148 26.2168C67.0055 25.7871 67.4645 25.582 67.9918 25.6016H68.4898C68.7828 25.6016 69.1344 25.8066 69.5445 26.2168C71.0289 27.623 71.7711 29.4492 71.7711 31.6953C71.7711 32.7891 71.4586 34.1172 70.8336 35.6797C70.2281 37.2422 69.193 38.7461 67.7281 40.1914C66.1461 41.7539 64.3004 42.8477 62.191 43.4727C61.2535 43.7461 60.316 43.8828 59.3785 43.8828ZM81.3957 44.2637C79.3645 44.2637 77.9582 43.3164 77.177 41.4219C76.9035 40.6406 76.7668 39.8301 76.7668 38.9902C76.7668 36.7051 77.4211 33.9707 78.7297 30.7871C79.9992 27.291 81.591 23.9512 83.5051 20.7676C83.9543 20.084 84.55 19.7422 85.2922 19.7422C85.6633 19.7422 86.0246 19.8301 86.3762 20.0059C87.0793 20.416 87.4309 21.041 87.4309 21.8809C87.4309 22.2324 87.3332 22.5742 87.1379 22.9062C86.1613 24.4883 85.2727 26.1289 84.4719 27.8281C84.0422 28.7461 83.466 30.1523 82.7434 32.0469C81.9816 34.0781 81.4641 35.7285 81.1906 36.998L81.1613 37.2031C81.1223 37.3594 81.1027 37.4863 81.1027 37.584L81.0441 38.1113L81.0148 39.1953L81.0441 39.6934L81.0148 39.459C81.0344 39.5176 81.0441 39.5566 81.0441 39.5762C81.0441 39.5957 81.0539 39.6738 81.0734 39.8105C81.1125 39.9277 81.1516 40.0352 81.1906 40.1328C81.1516 40.0547 81.132 40.0059 81.132 39.9863C81.132 39.9668 81.132 39.9473 81.132 39.9277L81.2785 40.2207L81.132 40.0449L81.2492 40.1621L81.1027 40.0449L81.0441 40.0156L81.2199 40.0742L81.3957 40.1035L81.1613 40.0742L81.6594 40.0449L81.4836 40.1035C81.4836 40.084 81.5324 40.0645 81.6301 40.0449C81.7277 40.0254 81.7863 40.0156 81.8059 40.0156V39.9863L82.2746 39.8398C82.2746 39.8203 82.2844 39.8105 82.3039 39.8105L82.7727 39.5762C83.6125 39.127 84.4035 38.6191 85.1457 38.0527L84.9992 38.1699L85.175 38.0234C85.468 37.7891 85.7609 37.5352 86.0539 37.2617C88.3977 35.1719 90.507 32.9453 92.382 30.582C94.257 28.1992 96.0734 25.748 97.8313 23.2285C98.3391 22.5449 98.9348 22.2031 99.6184 22.2031C99.9699 22.2031 100.341 22.291 100.732 22.4668C101.396 22.8574 101.728 23.4531 101.728 24.2539C101.728 24.625 101.65 24.9961 101.493 25.3672C101.22 25.9531 100.956 26.5488 100.702 27.1543L100.439 27.7402L100.409 27.8574L100.292 28.1211C100.292 28.1992 100.273 28.2383 100.234 28.2383C99.7844 29.293 99.2863 30.6113 98.7395 32.1934C98.1145 33.9707 97.675 35.6406 97.4211 37.2031C97.4016 37.2227 97.3918 37.2715 97.3918 37.3496C97.3918 37.4082 97.382 37.4766 97.3625 37.5547C97.343 37.6133 97.3332 37.6523 97.3332 37.6719V37.584C97.3137 37.8574 97.3039 38.1406 97.3039 38.4336V38.7852C97.3039 38.707 97.2941 38.668 97.2746 38.668C97.2746 38.6484 97.2844 38.6387 97.3039 38.6387V38.6973C97.3039 38.7559 97.3039 38.7949 97.3039 38.8145C97.3234 38.8145 97.3332 38.8242 97.3332 38.8438L97.4211 39.1953L97.3625 38.9902C97.4211 39.0879 97.4504 39.1465 97.4504 39.166C97.4504 39.1855 97.4797 39.2246 97.5383 39.2832L97.6262 39.3711L97.4797 39.2539C97.4992 39.2734 97.5188 39.293 97.5383 39.3125C97.5773 39.3125 97.5969 39.3223 97.5969 39.3418C97.5773 39.3418 97.5578 39.3418 97.5383 39.3418C97.5188 39.3223 97.4895 39.3125 97.4504 39.3125C97.4309 39.3125 97.4211 39.3027 97.4211 39.2832L97.5383 39.3125H97.3625H97.5383H97.3625C97.4406 39.293 97.4797 39.2832 97.4797 39.2832C97.4992 39.2832 97.5285 39.2832 97.5676 39.2832C97.6066 39.2832 97.6457 39.2637 97.6848 39.2246H97.7434L97.5969 39.2832C98.3195 38.9316 99.2961 38.2969 100.527 37.3789C100.644 37.3008 100.702 37.252 100.702 37.2324C100.722 37.2129 100.751 37.1934 100.79 37.1738C100.829 37.1543 100.859 37.1348 100.878 37.1152L100.79 37.1738C102.431 35.9824 104.277 34.1562 106.327 31.6953C106.327 31.6367 106.357 31.5781 106.415 31.5195L106.503 31.4609L106.415 31.5781L106.474 31.4609C106.513 31.3828 106.552 31.3438 106.591 31.3438L107.441 30.1133C107.948 29.4492 108.534 29.1172 109.198 29.1172C109.55 29.1172 109.931 29.2051 110.341 29.3809C111.044 29.7715 111.396 30.3867 111.396 31.2266C111.396 31.5781 111.288 31.9199 111.073 32.252C108.827 35.6113 105.995 38.5508 102.577 41.0703L102.46 41.1582C100.488 42.7012 98.8371 43.4727 97.509 43.4727C96.552 43.4727 95.6438 43.1406 94.7844 42.4766C93.6711 41.4219 93.1047 40.123 93.0852 38.5801C93.0852 37.2324 93.2805 35.8945 93.6711 34.5664V34.5078C94.3742 31.6758 95.7316 27.9844 97.7434 23.4336C97.7824 23.375 97.8117 23.3066 97.8313 23.2285C99.0617 23.9316 100.282 24.6445 101.493 25.3672C96.0246 33.2383 91.0734 38.834 86.6398 42.1543C85.3703 43.1309 83.9641 43.8047 82.4211 44.1758C82.0695 44.2344 81.7277 44.2637 81.3957 44.2637ZM107.251 44.5273C106.977 44.5273 106.714 44.4688 106.46 44.3516C105.6 43.9805 105.171 43.3359 105.171 42.418C105.171 42.2422 105.19 42.0566 105.229 41.8613L110.532 19.2441C110.688 18.6777 111.02 18.2578 111.528 17.9844C111.88 17.8086 112.241 17.7207 112.612 17.7207C113.432 17.7207 114.028 18.0723 114.399 18.7754C114.575 19.127 114.663 19.4883 114.663 19.8594C114.663 20.1133 112.876 27.8184 109.302 42.9746L105.434 41.3633C106.938 37.9453 108.608 34.625 110.444 31.4023C112.124 28.4336 114.126 25.7188 116.45 23.2578C118.637 20.9141 120.649 19.4785 122.485 18.9512C122.876 18.834 123.276 18.7754 123.686 18.7754C124.468 18.7754 125.259 19 126.059 19.4492C127.036 20.0742 127.671 20.9434 127.964 22.0566C128.061 22.5254 128.13 22.9941 128.169 23.4629L128.227 23.9609L128.198 23.8438L128.227 24.1074C128.384 24.6934 128.481 25.0352 128.52 25.1328C128.559 25.2109 128.579 25.2793 128.579 25.3379L128.55 25.2207L128.96 26.041L129.399 26.6855L129.282 26.5391C129.809 27.0664 130.122 27.3691 130.22 27.4473L130.278 27.5352L130.249 27.5059C130.249 27.4863 130.229 27.4766 130.19 27.4766C130.171 27.457 130.151 27.4473 130.132 27.4473C130.132 27.4277 130.122 27.418 130.102 27.418V27.3887C130.122 27.3887 130.132 27.3984 130.132 27.418C130.132 27.418 130.151 27.4277 130.19 27.4473C130.229 27.4668 130.268 27.5059 130.307 27.5645C130.366 27.6035 130.766 27.8379 131.509 28.2676C131.977 28.5215 132.221 28.6484 132.241 28.6484H132.3L132.241 28.5898C132.182 28.5703 132.114 28.5605 132.036 28.5605C132.095 28.5605 132.143 28.5801 132.182 28.6191C132.241 28.6387 132.29 28.6484 132.329 28.6484C132.583 28.7461 132.837 28.8145 133.091 28.8535L133.442 28.9414H133.53C133.432 28.9414 133.374 28.9316 133.354 28.9121H133.325H133.413C134.194 28.9902 134.966 29.0293 135.727 29.0293C136.333 29.0488 136.831 29.2637 137.221 29.6738C137.632 30.084 137.837 30.6016 137.837 31.2266C137.837 31.7734 137.632 32.2422 137.221 32.6328C136.811 33.0234 136.313 33.2285 135.727 33.248H135.141C133.813 33.248 132.505 33.0723 131.216 32.7207C127.856 31.5488 125.63 29.4688 124.536 26.4805C124.145 25.3672 123.95 24.3125 123.95 23.3164V23.5215L123.891 23.1699V22.9941L123.921 23.1699L123.833 23.0234L123.862 23.0527L124.067 23.1992L123.804 23.0234L124.009 23.1113L123.716 23.0234H123.95H123.921C123.901 23.043 123.852 23.0527 123.774 23.0527C123.755 23.0527 123.725 23.0527 123.686 23.0527C123.667 23.0332 123.618 23.0234 123.54 23.0234C123.481 23.0234 123.452 23.0137 123.452 22.9941H123.716L123.012 23.1699C123.012 23.1309 123.061 23.1113 123.159 23.1113L123.1 23.1406C123.081 23.1797 122.964 23.2578 122.749 23.375C122.534 23.4922 122.3 23.6484 122.046 23.8438L122.163 23.7559L122.134 23.7852C122.095 23.8242 122.036 23.8633 121.958 23.9023L121.87 23.9902C120.288 25.2598 118.872 26.6953 117.622 28.2969L117.358 28.5898C117.319 28.707 117.27 28.7852 117.212 28.8242L117.124 28.8828C117.143 28.8828 117.153 28.873 117.153 28.8535C117.173 28.834 117.182 28.8242 117.182 28.8242C117.202 28.8047 117.221 28.7754 117.241 28.7363L115.805 30.7578C113.696 33.9414 111.46 38.1797 109.096 43.4727C108.745 44.1758 108.13 44.5273 107.251 44.5273ZM160.484 46.8125C159.703 46.8125 159.107 46.4805 158.697 45.8164C158.502 45.5039 158.404 45.1816 158.404 44.8496C158.404 44.5176 160.357 39.2246 164.264 28.9707C166.236 23.7949 167.389 20.7578 167.721 19.8594C168.072 18.9414 170.035 13.7559 173.609 4.30273C175.094 4.88867 176.373 5.41602 177.447 5.88477C174.791 11.7832 172.008 17.0566 169.098 21.7051C165.797 26.959 161.881 30.5918 157.35 32.6035C155.201 33.5605 152.584 34.6055 149.498 35.7383L148.414 35.7969C147.828 35.4844 147.535 35.0059 147.535 34.3613C147.301 33.5801 147.604 32.9453 148.443 32.457C148.873 32.125 149.869 31.5684 151.432 30.7871C152.994 29.9863 154.205 29.4199 155.064 29.0879L155.416 28.9707L156.617 28.3848C156.871 28.248 157.77 27.6914 159.312 26.7148L159.195 26.8027C159.215 26.7832 159.225 26.7734 159.225 26.7734C159.244 26.7734 159.264 26.7637 159.283 26.7441C159.303 26.7051 159.332 26.6855 159.371 26.6855C160.855 25.4355 162.193 24.0781 163.385 22.6133C163.365 22.6523 163.346 22.6719 163.326 22.6719L163.385 22.584C164.537 21.0605 165.523 19.6152 166.344 18.248C169.117 13.5801 171.627 8.77539 173.873 3.83398C174.186 3.15039 174.771 2.80859 175.631 2.80859C176.471 2.80859 177.105 3.18945 177.535 3.95117C177.691 4.24414 177.77 4.53711 177.77 4.83008C177.77 5.00586 177.73 5.19141 177.652 5.38672L162.535 45.3477L158.492 44.2637L161.1 37.291C163.248 31.5879 165.641 25.9922 168.277 20.5039C171.246 14.3516 174.879 9.74219 179.176 6.67578C181.988 4.64453 184.859 3.62891 187.789 3.62891C190.133 3.62891 191.92 4.52734 193.15 6.32422C194.4 8.12109 195.025 10.3086 195.025 12.8867C195.025 15.2109 194.41 17.7305 193.18 20.4453C191.91 23.2773 190.104 25.7285 187.76 27.7988C185.084 30.1816 181.949 31.5781 178.355 31.9883C177.906 32.0469 177.467 32.0762 177.037 32.0762C174.049 32.0762 171.256 31.2559 168.658 29.6152L171.236 26.3926L171.91 26.9492C171.91 26.9297 171.9 26.9199 171.881 26.9199C171.861 26.9199 171.842 26.9199 171.822 26.9199C171.822 26.9004 171.812 26.8906 171.793 26.8906C171.773 26.8711 171.764 26.8516 171.764 26.832C171.764 26.8711 171.822 26.9102 171.939 26.9492C171.939 26.9883 172.408 27.3105 173.346 27.916C174.576 28.7168 175.826 29.3809 177.096 29.9082L177.418 30.0254V30.0547L177.271 29.9961V29.9668C177.271 29.9863 177.291 30.0059 177.33 30.0254C179.127 30.709 180.982 31.2168 182.896 31.5488C183.424 31.6465 183.707 31.7051 183.746 31.7246L183.688 31.6953H183.717C183.736 31.7148 183.785 31.7246 183.863 31.7246C184.859 31.8613 185.992 31.9297 187.262 31.9297C188.277 31.9297 189.312 31.8711 190.367 31.7539C190.484 31.7539 190.543 31.7441 190.543 31.7246C190.543 31.7441 190.494 31.7539 190.396 31.7539C192.115 31.4609 193.639 31.1191 194.967 30.7285C195.162 30.6699 195.357 30.6406 195.553 30.6406C195.904 30.6406 196.275 30.7676 196.666 31.0215C197.076 31.2559 197.369 31.6367 197.545 32.1641C197.604 32.3594 197.633 32.5547 197.633 32.75C197.633 33.082 197.506 33.4434 197.252 33.834C197.018 34.2051 196.627 34.4785 196.08 34.6543C193.17 35.5723 190.211 36.0312 187.203 36.0312C180.074 36.0312 173.766 33.7754 168.277 29.2637C167.867 28.9316 167.662 28.4727 167.662 27.8867C167.662 27.418 167.809 26.998 168.102 26.627C168.551 26.0605 169.107 25.7773 169.771 25.7773C170.123 25.7773 170.465 25.875 170.797 26.0703C171.48 26.5 172.096 26.832 172.643 27.0664C172.74 27.1445 172.838 27.1836 172.936 27.1836L172.76 27.1543C174.01 27.623 174.879 27.8574 175.367 27.8574C175.406 27.877 175.484 27.8867 175.602 27.8867L175.631 27.916L175.455 27.8867C175.924 27.9453 176.49 27.9746 177.154 27.9746C177.564 27.9746 178.121 27.9062 178.824 27.7695C179.781 27.5938 180.611 27.3691 181.314 27.0957L181.168 27.1543C182.398 26.5879 183.424 26.0117 184.244 25.4258L184.127 25.4844H184.156C184.176 25.4648 184.205 25.4355 184.244 25.3965C184.303 25.3574 184.361 25.3184 184.42 25.2793C184.498 25.2207 184.537 25.1816 184.537 25.1621C185.631 24.2246 186.441 23.4043 186.969 22.7012C187.008 22.6621 187.027 22.6328 187.027 22.6133C187.008 22.6328 186.988 22.6621 186.969 22.7012C186.969 22.7207 186.959 22.7305 186.939 22.7305C186.939 22.7305 186.93 22.7402 186.91 22.7598L187.584 21.793C188.404 20.6406 189.068 19.4785 189.576 18.3066L189.84 17.6035C190.27 16.3926 190.553 15.3574 190.689 14.498C190.768 14.1855 190.807 13.6484 190.807 12.8867C190.807 12.457 190.797 12.0859 190.777 11.7734L190.748 11.334L190.777 11.3633V11.4512C190.758 11.4316 190.748 11.3926 190.748 11.334C190.611 10.6113 190.426 9.91797 190.191 9.25391V9.2832C190.172 9.2832 190.074 9.08789 189.898 8.69727L189.605 8.31641L189.723 8.43359C189.703 8.43359 189.615 8.375 189.459 8.25781C189.322 8.12109 189.254 8.0332 189.254 7.99414H189.225H189.254L189.371 8.08203C189.215 7.98438 189.049 7.89648 188.873 7.81836L189.049 7.87695C188.912 7.83789 188.824 7.81836 188.785 7.81836C188.766 7.81836 188.717 7.80859 188.639 7.78906C188.58 7.75 188.541 7.73047 188.521 7.73047C188.502 7.73047 188.482 7.7207 188.463 7.70117H187.027L187.232 7.67188C187.232 7.69141 187.213 7.70117 187.174 7.70117C186.861 7.70117 186.09 7.90625 184.859 8.31641C184.488 8.45313 184.283 8.52148 184.244 8.52148L184.479 8.43359L184.42 8.49219C184.322 8.49219 184.234 8.51172 184.156 8.55078C182.77 9.25391 181.773 9.83984 181.168 10.3086C181.148 10.3086 181.129 10.3184 181.109 10.3379C181.09 10.3574 181.07 10.377 181.051 10.3965C181.031 10.3965 180.982 10.4258 180.904 10.4844C180.924 10.4844 180.934 10.4746 180.934 10.4551C180.953 10.4355 181.002 10.4062 181.08 10.3672C179.713 11.4023 178.326 12.75 176.92 14.4102C176.92 14.4297 176.891 14.4785 176.832 14.5566C176.793 14.6348 176.754 14.6738 176.715 14.6738L176.861 14.5273C176.744 14.6445 176.637 14.7715 176.539 14.9082C175.719 15.9824 174.957 17.1055 174.254 18.2773C171.676 22.5547 168.57 29.5176 164.938 39.166C164.156 41.2559 163.355 43.3164 162.535 45.3477C162.125 46.3242 161.441 46.8125 160.484 46.8125ZM202.541 44.1172C201.642 44.1172 200.734 43.9805 199.816 43.707C197.961 43.1016 196.584 41.9297 195.685 40.1914C195.08 38.7852 194.777 37.3301 194.777 35.8262C194.777 33.9902 195.148 31.7148 195.89 29C197.375 22.75 199.435 16.8906 202.072 11.4219C203.869 7.55469 205.949 4.57617 208.312 2.48633C210.089 0.923828 211.916 0.142578 213.791 0.142578L214.406 0.171875C216.984 0.464844 218.683 1.75391 219.504 4.03906C219.718 4.70313 219.826 5.36719 219.826 6.03125C219.826 8.0625 218.849 10.9824 216.896 14.791C213.341 21.7637 207.873 27.75 200.49 32.75C200.158 32.9453 199.816 33.043 199.464 33.043C198.683 33.043 198.058 32.6914 197.589 31.9883C197.394 31.6562 197.296 31.3145 197.296 30.9629C197.296 30.2012 197.658 29.5762 198.38 29.0879C199.103 28.5801 199.826 28.0527 200.548 27.5059C200.568 27.5059 200.597 27.4961 200.636 27.4766C200.675 27.4375 200.705 27.418 200.724 27.418C200.744 27.3984 200.812 27.3398 200.929 27.2422L200.841 27.3008C200.9 27.2422 201.066 27.1152 201.339 26.9199C202.648 25.8457 203.664 24.9668 204.386 24.2832C205.91 22.8379 207.443 21.1973 208.986 19.3613L209.425 18.7754V18.8047L209.337 18.8926C209.337 18.873 209.357 18.8535 209.396 18.834L209.572 18.5703C211.447 16.0898 213.048 13.3066 214.377 10.2207C214.396 10.1426 214.425 10.0742 214.464 10.0156C214.504 9.9375 214.543 9.85938 214.582 9.78125L214.611 9.66406V9.72266L214.552 9.78125L214.611 9.66406C215.041 8.64844 215.343 7.70117 215.519 6.82227C215.558 6.70508 215.578 6.58789 215.578 6.4707V6.67578H215.548L215.578 5.91406C215.578 5.66016 215.568 5.5332 215.548 5.5332L215.578 5.62109V5.76758H215.607C215.607 5.65039 215.578 5.57227 215.519 5.5332C215.519 5.47461 215.509 5.43555 215.49 5.41602C215.49 5.37695 215.48 5.33789 215.461 5.29883C215.441 5.25977 215.431 5.2207 215.431 5.18164L215.519 5.35742L215.431 5.21094C215.353 5.13281 215.314 5.06445 215.314 5.00586C215.334 5.00586 215.363 5.03516 215.402 5.09375L214.962 4.6543C214.962 4.69336 215.002 4.73242 215.08 4.77148C214.923 4.6543 214.826 4.58594 214.787 4.56641C214.748 4.54687 214.728 4.52734 214.728 4.50781H214.787L214.816 4.53711L213.996 4.33203H214.025C214.064 4.35156 214.132 4.36133 214.23 4.36133C213.879 4.36133 213.576 4.37109 213.322 4.39062L213.468 4.36133C213.429 4.40039 213.351 4.41992 213.234 4.41992C213.136 4.45898 213.068 4.47852 213.029 4.47852C213.009 4.47852 212.98 4.48828 212.941 4.50781C212.902 4.52734 212.863 4.53711 212.824 4.53711L212.619 4.625L212.736 4.56641L212.502 4.68359C212.306 4.78125 212.121 4.88867 211.945 5.00586C211.847 5.08398 211.74 5.15234 211.623 5.21094L211.535 5.24023L211.652 5.15234C211.593 5.21094 211.545 5.25977 211.505 5.29883C211.466 5.31836 211.447 5.33789 211.447 5.35742C210.607 6.04102 209.875 6.79297 209.25 7.61328L209.191 7.70117H209.162L209.074 7.81836L209.015 7.90625C208.195 8.96094 207.394 10.2402 206.613 11.7441C205.695 13.5215 204.845 15.3477 204.064 17.2227L203.976 17.457L204.035 17.2812V17.3398L203.683 18.1309C201.867 22.7402 200.382 27.8086 199.23 33.3359C199.211 33.5117 199.181 33.6777 199.142 33.834V34.0098L199.113 34.0977L199.142 33.8633C199.142 33.9805 199.132 34.0391 199.113 34.0391C199.054 34.6445 199.025 35.25 199.025 35.8555C199.025 36.2461 199.045 36.627 199.084 36.998V37.0566L199.054 36.998V36.9688C199.074 36.9688 199.084 37.0176 199.084 37.1152C199.22 37.7598 199.328 38.1211 199.406 38.1992C199.406 38.2383 199.425 38.2773 199.464 38.3164C199.406 38.3164 199.377 38.2578 199.377 38.1406H199.347L199.377 38.1699C199.377 38.1895 199.377 38.2188 199.377 38.2578C199.396 38.2773 199.445 38.3359 199.523 38.4336C199.601 38.5312 199.66 38.6387 199.699 38.7559L199.728 38.8145V38.7852C199.709 38.7852 199.689 38.7754 199.67 38.7559C199.67 38.7363 199.66 38.7168 199.64 38.6973C199.64 38.6582 199.621 38.6387 199.582 38.6387L200.197 39.2539C200.177 39.2539 200.119 39.2051 200.021 39.1074L200.255 39.2832L200.9 39.6348C200.841 39.6348 200.773 39.6055 200.695 39.5469H200.666C200.685 39.5664 200.734 39.5859 200.812 39.6055L201.076 39.6934L201.662 39.8398C201.759 39.8398 201.828 39.8496 201.867 39.8691H201.955V39.8984C201.935 39.8984 201.906 39.8984 201.867 39.8984C201.828 39.8789 201.798 39.8594 201.779 39.8398H201.691C201.769 39.8984 201.886 39.9277 202.043 39.9277C202.394 39.9277 202.609 39.9082 202.687 39.8691C203 39.8691 203.185 39.8594 203.244 39.8398H203.332L203.302 39.8691H203.214L203.273 39.8398H203.361C204.025 39.7422 204.65 39.5664 205.236 39.3125C205.334 39.2734 205.402 39.2539 205.441 39.2539L205.236 39.3418L205.295 39.3125C205.334 39.2734 205.373 39.2539 205.412 39.2539C205.451 39.2344 205.49 39.2148 205.529 39.1953C206.447 38.8047 208.068 37.7207 210.392 35.9434C210.451 35.8652 210.529 35.8066 210.627 35.7676C210.568 35.8262 210.519 35.8555 210.48 35.8555V35.8848C210.578 35.8066 210.636 35.7676 210.656 35.7676C210.675 35.748 210.695 35.7188 210.714 35.6797L211.066 35.416C213.566 33.3652 215.216 31.7734 216.017 30.6406C216.056 30.6211 216.086 30.5918 216.105 30.5527C216.125 30.5137 216.144 30.4941 216.164 30.4941C216.183 30.4746 216.193 30.4551 216.193 30.4355L216.134 30.5234L216.222 30.4062C216.73 29.7227 217.326 29.3809 218.009 29.3809C218.341 29.3809 218.703 29.4688 219.093 29.6445C219.816 30.0742 220.177 30.709 220.177 31.5488C220.177 31.9004 220.07 32.2324 219.855 32.5449C219.25 33.3457 218.605 34.1172 217.921 34.8594C215.363 37.4961 212.531 39.8008 209.425 41.7734C208.019 42.7109 206.486 43.3945 204.826 43.8242C204.064 44.0195 203.302 44.1172 202.541 44.1172ZM221.833 43.8828L221.101 43.8535C218.698 43.5801 216.999 42.3203 216.003 40.0742C215.476 38.8828 215.212 37.6719 215.212 36.4414C215.212 35.2695 215.437 34.0879 215.886 32.8965C217.956 27.3301 220.681 23.4531 224.06 21.2656C225.603 20.25 227.282 19.7422 229.099 19.7422C229.704 19.7422 230.329 19.8105 230.974 19.9473C233.279 20.4746 234.968 21.7832 236.042 23.873C236.55 24.8887 236.804 25.9922 236.804 27.1836V30.2891C236.804 30.2109 236.814 30.1719 236.833 30.1719C236.833 30.3672 236.853 30.5332 236.892 30.6699C236.95 30.9043 236.98 31.1094 236.98 31.2852C236.98 32.3008 236.472 32.9844 235.456 33.3359C235.261 33.3945 235.066 33.4238 234.87 33.4238C233.366 33.4238 232.614 32.0859 232.614 29.4102L232.527 26.6855C232.507 26.2168 232.468 25.9043 232.409 25.748C232.448 25.8066 232.468 25.875 232.468 25.9531L232.087 25.2793H232.146L232.204 25.4258L232.058 25.2793C231.804 24.9668 231.589 24.752 231.413 24.6348C231.413 24.6543 231.423 24.6738 231.443 24.6934C231.462 24.6934 231.472 24.7031 231.472 24.7227C231.491 24.7227 231.511 24.7227 231.53 24.7227C231.55 24.7227 231.56 24.7324 231.56 24.752V24.7227C231.521 24.7227 231.404 24.6641 231.208 24.5469C230.857 24.332 230.632 24.2051 230.534 24.166C230.573 24.2051 230.613 24.2246 230.652 24.2246C230.163 24.0488 229.812 23.9609 229.597 23.9609L229.831 23.9902C229.538 23.9902 229.255 23.9805 228.982 23.9609C228.825 23.9414 228.64 23.9512 228.425 23.9902C227.8 24.1074 227.321 24.2539 226.989 24.4297C226.989 24.4102 226.999 24.4004 227.019 24.4004C227.038 24.4004 227.048 24.4004 227.048 24.4004C227.068 24.3809 227.097 24.3613 227.136 24.3418C227.058 24.4199 226.902 24.5176 226.667 24.6348C226.316 24.8105 225.974 25.0059 225.642 25.2207C225.603 25.2598 225.564 25.2891 225.525 25.3086C225.505 25.3086 225.486 25.3184 225.466 25.3379C225.466 25.3379 225.437 25.3672 225.378 25.4258V25.3965L225.495 25.3379C225.378 25.3965 225.232 25.5137 225.056 25.6895C224.587 26.0996 224.157 26.5586 223.767 27.0664C223.747 27.0664 223.728 27.0762 223.708 27.0957C223.708 27.1152 223.698 27.1348 223.679 27.1543C223.679 27.1543 223.65 27.1934 223.591 27.2715C223.611 27.2324 223.63 27.2129 223.65 27.2129C223.63 27.2129 223.62 27.2227 223.62 27.2422L223.298 27.7109C222.243 29.2539 221.277 31.002 220.398 32.9551L220.251 33.2773C219.821 34.3516 219.568 35.2695 219.489 36.0312L219.402 37.1152C219.402 37.252 219.499 37.6133 219.695 38.1992L219.636 38.1113C219.909 38.6777 220.066 38.9805 220.105 39.0195C220.163 39.0391 220.202 39.0684 220.222 39.1074C220.144 39.0098 220.105 38.9414 220.105 38.9023C220.105 38.9219 220.105 38.9414 220.105 38.9609C220.124 38.9609 220.134 38.9707 220.134 38.9902C220.154 39.0098 220.222 39.0781 220.339 39.1953C220.573 39.4297 220.71 39.5469 220.749 39.5469L220.661 39.4883C220.72 39.5273 220.759 39.5664 220.779 39.6055C220.818 39.625 220.905 39.6641 221.042 39.7227C221.081 39.7422 221.101 39.7617 221.101 39.7812C221.081 39.7617 221.052 39.752 221.013 39.752C220.974 39.7324 220.945 39.7227 220.925 39.7227C220.925 39.7031 220.915 39.6836 220.896 39.6641C220.954 39.7227 221.15 39.791 221.482 39.8691L221.306 39.8398C221.618 39.8398 221.843 39.8301 221.98 39.8105L221.804 39.8398C222.214 39.7031 222.448 39.6348 222.507 39.6348L222.39 39.6934C222.78 39.498 223.161 39.2734 223.532 39.0195C223.552 39.0195 223.571 39.0098 223.591 38.9902C223.63 38.9512 223.679 38.9219 223.738 38.9023C223.894 38.8047 223.972 38.7363 223.972 38.6973C223.972 38.7168 223.952 38.7461 223.913 38.7852C228.23 35.1914 232.136 31.168 235.632 26.7148C235.964 26.2852 236.404 26.0703 236.95 26.0703C237.497 26.0703 237.966 26.2266 238.357 26.5391C238.904 27.0078 239.177 27.5352 239.177 28.1211C239.177 28.4727 239.089 28.8438 238.913 29.2344C238.698 29.7422 238.493 30.2598 238.298 30.7871C237.497 33.0332 236.97 34.9473 236.716 36.5293H236.687L236.716 36.3535C236.833 37.3691 237.165 38.1406 237.712 38.668L237.624 38.6387H237.683C237.898 38.8535 238.161 38.9609 238.474 38.9609L238.269 38.9902L238.474 38.9316C240.271 38.541 241.872 37.8184 243.279 36.7637H243.249L243.161 36.8516C244.958 35.4062 246.95 33.2773 249.138 30.4648C249.45 30.0547 249.861 29.8496 250.368 29.8496C250.427 29.8496 250.622 29.8594 250.954 29.8789C251.286 29.8984 251.648 30.1035 252.038 30.4941C252.448 30.8652 252.654 31.2949 252.654 31.7832C252.654 31.8418 252.644 32.0176 252.624 32.3105C252.605 32.6035 252.419 32.9746 252.068 33.4238C250.31 35.7676 248.435 37.8086 246.443 39.5469C244.529 41.2266 242.331 42.3008 239.851 42.7695C239.636 42.8086 239.402 42.8379 239.148 42.8574C237.859 43.0137 236.56 42.7012 235.251 41.9199C233.415 40.8066 232.497 39.166 232.497 36.998C232.497 36.1973 232.595 35.3965 232.79 34.5957C233.376 32.0371 234.206 29.5371 235.28 27.0957L238.591 29.6738C235.329 33.8535 231.696 37.6816 227.693 41.1582C225.564 43.0137 223.611 43.9219 221.833 43.8828ZM247.952 45.377C247.679 45.377 247.405 45.3184 247.132 45.2012C246.643 44.9863 246.292 44.6543 246.077 44.2051C245.921 43.9121 245.843 43.5996 245.843 43.2676C245.843 43.0332 247.893 35.0645 251.995 19.3613C252.171 18.7949 252.503 18.375 252.991 18.1016C253.323 17.9258 253.684 17.8379 254.075 17.8379C254.895 17.8379 255.491 18.1895 255.862 18.8926C256.038 19.2246 256.126 19.5762 256.126 19.9473C256.126 20.123 256.106 20.3086 256.067 20.5039L249.973 43.8535L246.136 42.2129C247.737 39.6348 249.319 37.0273 250.882 34.3906C252.444 31.7539 254.046 29.127 255.686 26.5098C256.839 24.5566 258.196 22.7598 259.759 21.1191C261.829 19.0488 263.987 17.9746 266.233 17.8965C267.835 17.916 269.065 18.5996 269.925 19.9473C270.374 20.8262 270.598 21.7734 270.598 22.7891C270.598 24.3711 270.345 26.0801 269.837 27.916L269.72 28.3555C269.427 29.5273 269.114 30.6895 268.782 31.8418C267.923 34.9668 267.405 37.2227 267.229 38.6094V38.4629C267.229 38.5605 267.22 38.6387 267.2 38.6973C267.161 38.9512 267.122 39.4492 267.083 40.1914V40.4551C266.985 40.2207 266.809 40.0156 266.555 39.8398C266.399 39.7422 266.262 39.6934 266.145 39.6934L266.057 39.7227L266.175 39.752H266.321C266.321 39.7324 266.311 39.7227 266.292 39.7227L266.057 39.7812L266.38 39.6934C266.516 39.6934 266.819 39.5957 267.288 39.4004C267.366 39.3613 267.454 39.332 267.552 39.3125L267.376 39.3711C267.376 39.3516 267.483 39.3027 267.698 39.2246L268.636 38.7266L270.042 37.8184L270.188 37.7012L270.071 37.7891C270.188 37.7109 270.296 37.623 270.393 37.5254L271.009 37.0273C272.044 36.0898 273.294 34.7812 274.759 33.1016C275.364 32.3984 275.979 31.7051 276.604 31.0215C277.014 30.6113 277.483 30.4062 278.011 30.4062C278.05 30.4062 278.216 30.416 278.509 30.4355C278.802 30.4355 279.153 30.6309 279.563 31.0215C279.993 31.4121 280.208 31.8711 280.208 32.3984C280.208 32.4375 280.198 32.6133 280.179 32.9258C280.179 33.2188 279.983 33.5801 279.593 34.0098C278.987 34.6543 278.382 35.3184 277.776 36.002C276.37 37.6621 274.856 39.2051 273.235 40.6309C271.614 42.0566 269.739 43.0918 267.61 43.7363C267.161 43.873 266.721 43.9414 266.292 43.9414C265.96 43.9414 265.52 43.8828 264.973 43.7656C264.427 43.6289 263.919 43.209 263.45 42.5059C263.059 41.8809 262.864 41.1973 262.864 40.4551C262.864 39.5957 262.932 38.7852 263.069 38.0234L263.128 37.584C263.499 35.3379 264.153 32.6426 265.091 29.498C265.637 27.2715 265.979 25.8359 266.116 25.1914C266.136 25.1523 266.175 24.918 266.233 24.4883C266.272 24.1758 266.311 24 266.35 23.9609L266.321 24.2539C266.321 24.1367 266.331 24.0684 266.35 24.0488C266.35 23.8535 266.36 23.6875 266.38 23.5508V22.7891L266.35 22.4668L266.38 22.6719L266.409 22.6426C266.409 22.623 266.399 22.5938 266.38 22.5547C266.38 22.5156 266.37 22.4668 266.35 22.4082C266.35 22.3496 266.341 22.2812 266.321 22.2031C266.302 22.125 266.292 22.0762 266.292 22.0566L266.262 22.0273C266.262 22.0469 266.262 22.0664 266.262 22.0859C266.282 22.1055 266.292 22.1445 266.292 22.2031C266.311 22.2617 266.341 22.291 266.38 22.291L266.145 21.8809L266.35 22.1738L266.321 22.1445C266.302 22.125 266.282 22.1055 266.262 22.0859C266.243 22.0469 266.223 22.0273 266.204 22.0273L266.292 22.0566C266.409 22.1152 266.477 22.1641 266.497 22.2031L266.292 22.0859L266.438 22.1445L266.233 22.1152L266.262 22.0859L266.438 22.1445C266.36 22.1445 266.292 22.1348 266.233 22.1152H266.204C265.891 22.1543 265.589 22.2324 265.296 22.3496C265.218 22.3496 265.1 22.3887 264.944 22.4668L265.208 22.3203L263.802 23.1699C263.762 23.209 263.723 23.2383 263.684 23.2578H263.655L263.772 23.1699L263.45 23.4629C263.235 23.6387 263.04 23.8145 262.864 23.9902C262.259 24.5957 261.78 25.123 261.429 25.5723C261.331 25.7285 261.262 25.8066 261.223 25.8066L261.37 25.6309C261.292 25.7285 261.243 25.7969 261.223 25.8359C261.223 25.8555 261.165 25.9238 261.048 26.041C260.188 27.3105 259.368 28.5801 258.587 29.8496L258.499 29.9668C257.21 32.0762 255.93 34.1953 254.661 36.3242C253.059 39.0195 251.429 41.6953 249.768 44.3516C249.319 45.0352 248.714 45.377 247.952 45.377Z" fill="#077DF9"/>
</svg>
