<svg width="30" height="23" viewBox="0 0 30 23" fill="none" xmlns="http://www.w3.org/2000/svg">
<rect x="0.640625" y="0.0700684" width="28.613" height="22.0729" rx="4.2096" fill="white"/>
<path d="M14.8129 9.0032C13.6512 9.0032 12.7095 9.94492 12.7095 11.1066C12.7095 12.2683 13.6512 13.21 14.8129 13.21C15.9746 13.21 16.9163 12.2683 16.9163 11.1066C16.9163 9.94492 15.9746 9.0032 14.8129 9.0032Z" fill="#001831"/>
<path fill-rule="evenodd" clip-rule="evenodd" d="M11.4277 5.33452C13.6593 5.08511 15.9664 5.08511 18.1981 5.33452C19.4267 5.47184 20.4177 6.43991 20.5619 7.67286C20.8287 9.95424 20.8287 12.2589 20.5619 14.5403C20.4177 15.7733 19.4267 16.7413 18.1981 16.8787C15.9664 17.1281 13.6594 17.1281 11.4277 16.8787C10.1991 16.7413 9.2081 15.7733 9.06389 14.5403C8.79706 12.2589 8.79706 9.95424 9.06389 7.67286C9.2081 6.43991 10.1991 5.47184 11.4277 5.33452ZM18.0489 7.2234C17.6914 7.2234 17.4017 7.51316 17.4017 7.8706C17.4017 8.22803 17.6914 8.5178 18.0489 8.5178C18.4063 8.5178 18.6961 8.22803 18.6961 7.8706C18.6961 7.51316 18.4063 7.2234 18.0489 7.2234ZM11.7387 11.1066C11.7387 9.40876 13.115 8.0324 14.8129 8.0324C16.5107 8.0324 17.8871 9.40876 17.8871 11.1066C17.8871 12.8044 16.5107 14.1808 14.8129 14.1808C13.115 14.1808 11.7387 12.8044 11.7387 11.1066Z" fill="#001831"/>
</svg>
