<svg width="34" height="24" viewBox="0 0 34 24" fill="none" xmlns="http://www.w3.org/2000/svg">
<rect x="1.23341" y="1.14772" width="31.5506" height="21.9898" rx="3.34627" fill="white" stroke="#D9D9D9" stroke-width="0.956078"/>
<path fill-rule="evenodd" clip-rule="evenodd" d="M24.4361 12.1082C24.4361 16.2981 21.0396 19.6947 16.8497 19.6947C12.6598 19.6947 9.26318 16.2981 9.26318 12.1082C9.26318 7.91831 12.6598 4.52173 16.8497 4.52173C21.0396 4.52173 24.4361 7.91831 24.4361 12.1082ZM18.6727 9.28947C19.728 9.65186 20.4999 10.1945 20.3485 11.2043C20.2385 11.9438 19.827 12.3015 19.2803 12.4267C20.0304 12.8157 20.286 13.5538 20.0485 14.4464C19.5975 15.7309 18.5255 15.8391 17.0997 15.5706L16.7535 16.9514L15.9177 16.7436L16.2592 15.3813C16.0425 15.3277 15.8211 15.2703 15.5929 15.2091L15.2501 16.5781L14.4153 16.3703L14.761 14.9867L13.0775 14.5636L13.4928 13.6102C13.4928 13.6102 14.109 13.7729 14.1005 13.761C14.3372 13.8193 14.4424 13.6657 14.4838 13.5637L15.422 9.81598C15.4325 9.63905 15.371 9.41611 15.0324 9.33168C15.0453 9.32267 14.4253 9.18132 14.4253 9.18132L14.6476 8.29194L16.3335 8.70793L16.6764 7.33996L17.5116 7.54772L17.1759 8.88866C17.4007 8.93941 17.6264 8.99111 17.846 9.04566L18.1793 7.71326L19.0151 7.92102L18.6727 9.28947ZM16.6731 11.5715C17.2425 11.7225 18.4813 12.0509 18.6972 11.1898C18.9175 10.3087 17.7139 10.0426 17.1246 9.9123L17.1246 9.9123L17.1246 9.91228C17.0578 9.89753 16.999 9.88451 16.9509 9.87254L16.5347 11.5355C16.5743 11.5453 16.6209 11.5577 16.6731 11.5715L16.6731 11.5715ZM16.0279 14.2488C16.7098 14.4284 18.2011 14.8213 18.4384 13.8724C18.6813 12.9021 17.2354 12.579 16.5298 12.4213C16.451 12.4036 16.3814 12.3881 16.3245 12.3739L15.8654 14.2068C15.9121 14.2183 15.9667 14.2327 16.0279 14.2488Z" fill="#F7931A"/>
</svg>
