<svg width="34" height="24" viewBox="0 0 34 24" fill="none" xmlns="http://www.w3.org/2000/svg">
<rect x="1.26124" y="1.14772" width="31.5506" height="21.9898" rx="3.34627" fill="white" stroke="#D9D9D9" stroke-width="0.956078"/>
<path fill-rule="evenodd" clip-rule="evenodd" d="M17.1106 16.788C15.9786 17.7421 14.5102 18.318 12.9057 18.318C9.32533 18.318 6.42285 15.4501 6.42285 11.9123C6.42285 8.37453 9.32533 5.50659 12.9057 5.50659C14.5102 5.50659 15.9786 6.08255 17.1106 7.03664C18.2426 6.08255 19.7109 5.5066 21.3154 5.5066C24.8958 5.5066 27.7983 8.37454 27.7983 11.9123C27.7983 15.4501 24.8958 18.318 21.3154 18.318C19.7109 18.318 18.2426 17.7421 17.1106 16.788Z" fill="#ED0006"/>
<path fill-rule="evenodd" clip-rule="evenodd" d="M17.1099 16.7876C18.5036 15.6127 19.3874 13.8645 19.3874 11.9123C19.3874 9.96015 18.5036 8.21195 17.1099 7.03703C18.2419 6.08271 19.7105 5.50659 21.3152 5.50659C24.8956 5.50659 27.7981 8.37453 27.7981 11.9123C27.7981 15.4501 24.8956 18.318 21.3152 18.318C19.7105 18.318 18.2419 17.7419 17.1099 16.7876Z" fill="#F9A000"/>
<path fill-rule="evenodd" clip-rule="evenodd" d="M17.11 16.7876C18.504 15.6127 19.3879 13.8643 19.3879 11.912C19.3879 9.95965 18.504 8.21131 17.11 7.03638C15.716 8.21131 14.832 9.95965 14.832 11.912C14.832 13.8643 15.716 15.6127 17.11 16.7876Z" fill="#FF5E00"/>
</svg>
