<svg width="34" height="24" viewBox="0 0 34 24" fill="none" xmlns="http://www.w3.org/2000/svg">
<rect x="0.990246" y="1.14772" width="31.5506" height="21.9898" rx="3.34627" fill="white" stroke="#D9D9D9" stroke-width="0.956078"/>
<path fill-rule="evenodd" clip-rule="evenodd" d="M14.3882 18.3353L14.5992 16.9499L14.1291 16.9385H11.8843L13.4443 6.71459C13.4492 6.68363 13.4649 6.65489 13.4879 6.63444C13.5109 6.614 13.5403 6.60278 13.571 6.60278H17.3561C18.6128 6.60278 19.48 6.87301 19.9327 7.40644C20.145 7.65668 20.2802 7.91826 20.3456 8.20601C20.4142 8.50801 20.4153 8.86877 20.3484 9.30886L20.3436 9.34087V9.62289L20.5558 9.7472C20.7345 9.84522 20.8766 9.95737 20.9856 10.0858C21.1671 10.2998 21.2846 10.5718 21.3342 10.8941C21.3855 11.2257 21.3685 11.6203 21.2846 12.067C21.1877 12.5809 21.0311 13.0284 20.8197 13.3946C20.6252 13.732 20.3775 14.0119 20.0833 14.2287C19.8024 14.4348 19.4687 14.5912 19.0914 14.6913C18.7257 14.7897 18.3089 14.8394 17.8517 14.8394H17.5571C17.3465 14.8394 17.1419 14.9178 16.9813 15.0583C16.8203 15.2018 16.7138 15.3978 16.6811 15.6122L16.6588 15.7369L16.286 18.179L16.2691 18.2686C16.2646 18.297 16.2569 18.3111 16.2456 18.3207C16.2355 18.3295 16.2211 18.3353 16.2069 18.3353H14.3882Z" fill="#28356A"/>
<path fill-rule="evenodd" clip-rule="evenodd" d="M20.757 9.37402C20.7458 9.44868 20.7328 9.52496 20.7183 9.60336C20.2192 12.2523 18.5114 13.1674 16.3303 13.1674H15.2198C14.953 13.1674 14.7282 13.3675 14.6867 13.6395L13.9571 18.423C13.9301 18.6016 14.0632 18.7625 14.2375 18.7625H16.2072C16.4404 18.7625 16.6386 18.5874 16.6753 18.3497L16.6946 18.2463L17.0655 15.8138L17.0893 15.6804C17.1256 15.4418 17.3242 15.2666 17.5574 15.2666H17.852C19.7603 15.2666 21.2542 14.4658 21.6908 12.1484C21.8732 11.1804 21.7788 10.3721 21.2961 9.8036C21.1501 9.63221 20.9689 9.48992 20.757 9.37402Z" fill="#298FC2"/>
<path fill-rule="evenodd" clip-rule="evenodd" d="M20.2347 9.15832C20.1584 9.1353 20.0797 9.11451 19.999 9.0957C19.9179 9.07735 19.8348 9.06112 19.7492 9.04686C19.4498 8.99686 19.1217 8.97314 18.7702 8.97314H15.8035C15.7304 8.97314 15.661 8.9902 15.5989 9.02104C15.462 9.08904 15.3604 9.22292 15.3358 9.38683L14.7046 13.5186L14.6865 13.639C14.728 13.367 14.9528 13.1669 15.2196 13.1669H16.3301C18.5112 13.1669 20.219 12.2513 20.7181 9.60284C20.733 9.52445 20.7456 9.44817 20.7568 9.37351C20.6305 9.30423 20.4938 9.245 20.3465 9.19453C20.3101 9.18203 20.2725 9.17 20.2347 9.15832Z" fill="#22284F"/>
<path fill-rule="evenodd" clip-rule="evenodd" d="M15.3361 9.3869C15.3607 9.22299 15.4624 9.08911 15.5992 9.02158C15.6617 8.99062 15.7307 8.97357 15.8038 8.97357H18.7706C19.122 8.97357 19.4501 8.9974 19.7495 9.0474C19.8351 9.06154 19.9182 9.07789 19.9993 9.09624C20.08 9.11493 20.1587 9.13584 20.235 9.15874C20.2729 9.17042 20.3104 9.18257 20.3471 9.19461C20.4944 9.24507 20.6313 9.30477 20.7575 9.37359C20.9061 8.39469 20.7563 7.72819 20.2443 7.12465C19.6797 6.46014 18.6608 6.17578 17.357 6.17578H13.5718C13.3055 6.17578 13.0783 6.37591 13.0371 6.64835L11.4606 16.9774C11.4295 17.1818 11.582 17.3661 11.7814 17.3661H14.1182L15.3361 9.3869Z" fill="#28356A"/>
</svg>
