<svg width="33" height="24" viewBox="0 0 33 24" fill="none" xmlns="http://www.w3.org/2000/svg">
<rect x="0.774914" y="1.14772" width="31.5506" height="21.9898" rx="3.34627" fill="white" stroke="#D9D9D9" stroke-width="0.956078"/>
<path fill-rule="evenodd" clip-rule="evenodd" d="M10.478 15.859H8.50869L7.03198 10.0595C6.96189 9.79276 6.81306 9.55692 6.59415 9.44576C6.04782 9.16642 5.44581 8.94411 4.78906 8.83198V8.60871H7.96141C8.39923 8.60871 8.72761 8.94411 8.78234 9.33364L9.54854 13.517L11.5168 8.60871H13.4314L10.478 15.859ZM14.5262 15.859H12.6664L14.1979 8.60871H16.0577L14.5262 15.859ZM18.4634 10.6174C18.5182 10.2269 18.8465 10.0036 19.2296 10.0036C19.8317 9.94757 20.4874 10.0597 21.0347 10.3381L21.3631 8.77705C20.8158 8.55377 20.2138 8.44165 19.6675 8.44165C17.8624 8.44165 16.5489 9.44592 16.5489 10.8397C16.5489 11.9001 17.4793 12.4568 18.136 12.7922C18.8465 13.1266 19.1202 13.3499 19.0655 13.6843C19.0655 14.186 18.5182 14.4093 17.9718 14.4093C17.3151 14.4093 16.6583 14.2421 16.0573 13.9627L15.7289 15.5247C16.3857 15.8031 17.0962 15.9152 17.7529 15.9152C19.7769 15.9703 21.0347 14.967 21.0347 13.4611C21.0347 11.5647 18.4634 11.4535 18.4634 10.6174ZM27.5433 15.859L26.0666 8.60871H24.4804C24.152 8.60871 23.8237 8.83198 23.7142 9.16642L20.9797 15.859H22.8942L23.2764 14.7996H25.6288L25.8477 15.859H27.5433ZM24.7543 10.5613L25.3006 13.2938H23.7692L24.7543 10.5613Z" fill="#172B85"/>
</svg>
