<svg width="auto" height="398" viewBox="0 0 495 398" fill="none" xmlns="http://www.w3.org/2000/svg">
<path opacity="0.4" d="M265.544 366.586C234.084 366.586 202.625 359.679 178.683 345.847C155.39 332.404 142.558 314.48 142.558 295.408C142.558 276.336 155.39 258.413 178.683 244.97C226.585 217.325 304.502 217.325 352.404 244.97C375.698 258.413 388.53 276.336 388.53 295.408C388.53 314.48 375.698 332.386 352.404 345.847C328.463 359.679 297.003 366.586 265.544 366.586ZM265.544 225.213C234.27 225.213 202.995 232.082 179.183 245.821C156.204 259.079 143.558 276.688 143.558 295.39C143.558 314.091 156.204 331.701 179.183 344.958C226.807 372.455 304.28 372.455 351.904 344.958C374.883 331.701 387.53 314.091 387.53 295.39C387.53 276.688 374.883 259.079 351.904 245.821C328.092 232.082 296.818 225.194 265.544 225.194V225.213Z" fill="#FFA232"/>
<path opacity="0.2" d="M265.542 385.639C225.62 385.639 185.718 376.862 155.314 359.327C125.78 342.273 109.504 319.572 109.504 295.408C109.504 271.244 125.761 248.543 155.295 231.489C216.066 196.401 314.962 196.401 375.733 231.489C405.267 248.543 421.543 271.244 421.543 295.408C421.543 319.572 405.285 342.273 375.752 359.327C345.366 376.862 305.445 385.639 265.542 385.639ZM265.542 206.14C225.806 206.14 186.069 214.88 155.832 232.341C126.613 249.21 110.541 271.596 110.541 295.39C110.541 319.183 126.632 341.588 155.851 358.438C216.344 393.36 314.777 393.36 375.289 358.438C404.508 341.57 420.58 319.183 420.58 295.39C420.58 271.596 404.489 249.191 375.27 232.341C345.014 214.88 305.278 206.14 265.56 206.14H265.542Z" fill="#FFA232"/>
<path d="M265.543 351.567C240.749 351.567 215.956 346.123 197.088 335.217C178.701 324.607 168.591 310.461 168.591 295.407C168.591 280.353 178.719 266.206 197.088 255.596C234.843 233.803 296.262 233.803 333.998 255.596C352.385 266.206 362.495 280.353 362.495 295.407C362.495 310.461 352.366 324.607 333.998 335.217C315.13 346.105 290.336 351.567 265.543 351.567ZM265.543 240.246C240.935 240.246 216.326 245.653 197.588 256.467C179.534 266.891 169.591 280.723 169.591 295.407C169.591 310.09 179.534 323.922 197.588 334.347C235.065 355.974 296.021 355.974 333.498 334.347C351.552 323.922 361.495 310.09 361.495 295.407C361.495 280.723 351.552 266.891 333.498 256.467C314.76 245.653 290.151 240.246 265.543 240.246Z" fill="#FFA232"/>
<path d="M373.604 160.066L373.104 160.932L376.312 162.783L376.812 161.917L373.604 160.066Z" fill="#FFA232"/>
<path d="M367.273 157.59L361.422 154.201L361.922 153.331L367.773 156.719L367.273 157.59ZM355.552 150.831L349.701 147.443L350.201 146.572L356.052 149.961L355.552 150.831ZM343.831 144.073L337.961 140.684L338.461 139.814L344.313 143.202L343.813 144.073H343.831ZM332.11 137.314L326.259 133.926L326.759 133.055L332.61 136.444L332.11 137.314ZM320.389 130.556L314.538 127.167L315.038 126.297L320.889 129.685L320.389 130.556Z" fill="#FFA232"/>
<path d="M305.98 121.052L305.479 121.918L308.686 123.77L309.186 122.904L305.98 121.052Z" fill="#FFA232"/>
<g opacity="0.3">
<path d="M494.999 252.505V239.543L491.407 237.544C490.389 243.673 483.186 247.691 477.168 248.542L436.154 272.521L418.249 278.983L361.125 249.505L362.44 248.746C357.552 246.469 354.922 241.247 352.293 236.488L348.442 238.784L346.164 239.432V252.727C346.164 255.264 347.831 257.801 351.182 259.745L408.416 292.778C415.119 296.648 426.025 296.648 432.728 292.778L489.963 259.745C493.259 257.838 494.925 255.357 494.981 252.857C494.981 252.746 494.981 252.635 494.981 252.523L494.999 252.505Z" fill="url(#paint0_linear_208_5289)"/>
<path opacity="0.3" d="M477.169 248.524L436.155 272.503L420.583 278.132V295.667C424.99 295.667 429.378 294.704 432.73 292.76L489.964 259.727C493.26 257.819 494.926 255.338 494.982 252.838C494.982 252.727 494.982 252.616 494.982 252.505V239.544L491.705 237.729H491.353C490.242 243.747 483.113 247.709 477.151 248.543L477.169 248.524Z" fill="#0F054C"/>
<path d="M408.435 279.595L351.201 246.543C344.498 242.673 344.498 236.377 351.201 232.508L408.435 199.474C415.138 195.604 426.044 195.604 432.747 199.474L489.982 232.508C496.685 236.377 496.685 242.673 489.982 246.543L432.747 279.576C426.044 283.446 415.138 283.446 408.435 279.576V279.595Z" fill="url(#paint1_linear_208_5289)"/>
<g opacity="0.3">
<path d="M408.432 279.595L351.198 246.543C344.495 242.673 344.495 236.377 351.198 232.508L408.432 199.474C415.135 195.604 426.042 195.604 432.744 199.474L489.979 232.508C496.682 236.377 496.682 242.673 489.979 246.543L432.744 279.576C426.042 283.446 415.135 283.446 408.432 279.576V279.595Z" fill="#0F054C"/>
</g>
</g>
<path d="M420.581 237.822C416.674 237.822 412.767 236.971 409.786 235.248L352.552 202.197C349.589 200.475 347.941 198.16 347.941 195.679C347.941 193.198 349.571 190.883 352.552 189.161L409.786 156.128C415.73 152.702 425.414 152.702 431.358 156.128L488.592 189.18C491.555 190.902 493.203 193.216 493.203 195.697C493.203 198.179 491.573 200.493 488.592 202.215L431.358 235.248C428.377 236.971 424.47 237.822 420.563 237.822H420.581ZM420.581 154.535C416.86 154.535 413.138 155.35 410.305 156.998L353.07 190.031C350.423 191.568 348.96 193.568 348.96 195.679C348.96 197.79 350.423 199.79 353.07 201.326L410.305 234.378C415.971 237.656 425.211 237.656 430.877 234.378L488.111 201.345C490.759 199.808 492.221 197.808 492.221 195.697C492.221 193.587 490.759 191.587 488.111 190.05L430.877 156.998C428.044 155.369 424.322 154.535 420.6 154.535H420.581Z" fill="#FFA232"/>
<path opacity="0.4" d="M494.998 183.012V163.421L491.406 161.422C490.388 167.551 483.185 171.569 477.167 172.42L436.153 196.399L418.248 202.861L361.124 173.383L362.439 172.624C357.551 170.347 354.921 165.125 352.292 160.366L348.441 162.662L346.163 163.31V183.234C346.163 185.771 347.83 188.308 351.181 190.252L408.415 223.285C415.118 227.155 426.024 227.155 432.727 223.285L489.962 190.252C493.258 188.345 494.924 185.863 494.98 183.364C494.98 183.253 494.98 183.141 494.98 183.03L494.998 183.012Z" fill="#FFA232"/>
<path d="M494.998 165.589V152.628L491.406 150.628C490.388 156.757 483.185 160.775 477.167 161.627L436.153 185.606L418.248 192.068L361.124 162.59L362.439 161.831C357.551 159.553 354.921 154.331 352.292 149.573L348.441 151.869L346.163 152.517V165.812C346.163 168.348 347.83 170.885 351.181 172.829L408.415 205.863C415.118 209.733 426.024 209.733 432.727 205.863L489.962 172.829C493.258 170.922 494.924 168.441 494.98 165.941C494.98 165.83 494.98 165.719 494.98 165.608L494.998 165.589Z" fill="url(#paint2_linear_208_5289)"/>
<path opacity="0.3" d="M477.167 161.627L436.153 185.605L420.581 191.234V208.769C424.988 208.769 429.376 207.807 432.728 205.862L489.962 172.829C493.258 170.922 494.925 168.441 494.98 165.941C494.98 165.83 494.98 165.719 494.98 165.608V152.646L491.703 150.832H491.351C490.24 156.849 483.111 160.812 477.149 161.645L477.167 161.627Z" fill="#0F054C"/>
<path d="M408.434 192.679L351.2 159.646C344.497 155.776 344.497 149.48 351.2 145.61L408.434 112.577C415.137 108.707 426.043 108.707 432.746 112.577L489.981 145.61C496.684 149.48 496.684 155.776 489.981 159.646L432.746 192.679C426.043 196.549 415.137 196.549 408.434 192.679Z" fill="url(#paint3_linear_208_5289)"/>
<path d="M489.962 159.645L432.728 192.679C426.025 196.549 415.118 196.549 408.415 192.679L351.181 159.645C348.181 157.923 346.534 155.701 346.219 153.442C345.83 156.238 347.478 159.127 351.181 161.275L408.415 194.327C415.118 198.197 426.025 198.197 432.728 194.327L489.962 161.293C493.665 159.145 495.313 156.275 494.924 153.461C494.609 155.72 492.962 157.942 489.962 159.664V159.645Z" fill="white"/>
<path d="M157.075 164.127L156.575 163.256L227.419 122.354L227.938 123.224L157.075 164.127Z" fill="#FFA232"/>
<g opacity="0.3">
<path d="M186.608 252.505V239.543L183.015 237.544C181.997 243.673 174.794 247.691 168.776 248.542L127.762 272.521L109.857 278.983L52.7337 249.505L54.0484 248.746C49.1601 246.469 46.5307 241.247 43.9014 236.488L40.05 238.784L37.7725 239.432V252.727C37.7725 255.264 39.4389 257.801 42.7904 259.745L100.025 292.778C106.728 296.648 117.634 296.648 124.337 292.778L181.571 259.745C184.867 257.838 186.533 255.357 186.589 252.857C186.589 252.746 186.589 252.635 186.589 252.523L186.608 252.505Z" fill="url(#paint4_linear_208_5289)"/>
<path opacity="0.3" d="M168.778 248.524L127.764 272.503L112.191 278.132V295.667C116.598 295.667 120.987 294.704 124.338 292.76L181.572 259.727C184.868 257.819 186.535 255.338 186.59 252.838C186.59 252.727 186.59 252.616 186.59 252.505V239.544L183.313 237.729H182.961C181.85 243.747 174.721 247.709 168.759 248.543L168.778 248.524Z" fill="#0F054C"/>
<path d="M100.044 279.595L42.8094 246.543C36.1065 242.673 36.1065 236.377 42.8094 232.508L100.044 199.474C106.747 195.604 117.653 195.604 124.356 199.474L181.59 232.508C188.293 236.377 188.293 242.673 181.59 246.543L124.356 279.576C117.653 283.446 106.747 283.446 100.044 279.576V279.595Z" fill="url(#paint5_linear_208_5289)"/>
<g opacity="0.3">
<path d="M100.044 279.596L42.8094 246.544C36.1065 242.674 36.1065 236.378 42.8094 232.509L100.044 199.475C106.747 195.605 117.653 195.605 124.356 199.475L181.59 232.509C188.293 236.378 188.293 242.674 181.59 246.544L124.356 279.577C117.653 283.447 106.747 283.447 100.044 279.577V279.596Z" fill="#0F054C"/>
</g>
</g>
<path d="M112.192 237.822C108.285 237.822 104.378 236.971 101.397 235.248L44.1623 202.197C41.1997 200.475 39.5518 198.16 39.5518 195.679C39.5518 193.198 41.1812 190.883 44.1623 189.161L101.397 156.128C107.34 152.702 117.025 152.702 122.968 156.128L180.203 189.18C183.165 190.902 184.813 193.216 184.813 195.697C184.813 198.179 183.184 200.493 180.203 202.215L122.968 235.248C119.987 236.971 116.08 237.822 112.173 237.822H112.192ZM101.915 234.378C107.581 237.656 116.821 237.656 122.487 234.378L179.721 201.345C182.369 199.808 183.832 197.808 183.832 195.697C183.832 193.587 182.369 191.587 179.721 190.05L122.487 156.998C116.821 153.721 107.581 153.721 101.915 156.998L44.6808 190.031C42.033 191.568 40.5702 193.568 40.5702 195.679C40.5702 197.79 42.033 199.79 44.6808 201.326L101.915 234.378Z" fill="#FFA232"/>
<path opacity="0.4" d="M186.608 183.012V163.421L183.015 161.422C181.997 167.551 174.794 171.569 168.776 172.42L127.762 196.399L109.857 202.861L52.7337 173.383L54.0484 172.624C49.1601 170.347 46.5307 165.125 43.9014 160.366L40.05 162.662L37.7725 163.31V183.234C37.7725 185.771 39.4389 188.308 42.7904 190.252L100.025 223.285C106.728 227.155 117.634 227.155 124.337 223.285L181.571 190.252C184.867 188.345 186.533 185.863 186.589 183.364C186.589 183.253 186.589 183.141 186.589 183.03L186.608 183.012Z" fill="#FFA232"/>
<path d="M186.608 165.589V152.628L183.015 150.628C181.997 156.757 174.794 160.775 168.776 161.627L127.762 185.606L109.857 192.068L52.7337 162.59L54.0484 161.831C49.1601 159.553 46.5307 154.331 43.9014 149.573L40.05 151.869L37.7725 152.517V165.812C37.7725 168.348 39.4389 170.885 42.7904 172.829L100.025 205.863C106.728 209.733 117.634 209.733 124.337 205.863L181.571 172.829C184.867 170.922 186.533 168.441 186.589 165.941C186.589 165.83 186.589 165.719 186.589 165.608L186.608 165.589Z" fill="url(#paint6_linear_208_5289)"/>
<path opacity="0.3" d="M168.776 161.627L127.762 185.605L112.189 191.234V208.769C116.596 208.769 120.985 207.807 124.336 205.862L181.571 172.829C184.866 170.922 186.533 168.441 186.588 165.941C186.588 165.83 186.588 165.719 186.588 165.608V152.646L183.311 150.832H182.959C181.848 156.849 174.719 160.812 168.757 161.645L168.776 161.627Z" fill="#0F054C"/>
<path d="M100.044 192.679L42.8094 159.646C36.1065 155.776 36.1065 149.48 42.8094 145.61L100.044 112.577C106.747 108.707 117.653 108.707 124.356 112.577L181.59 145.61C188.293 149.48 188.293 155.776 181.59 159.646L124.356 192.679C117.653 196.549 106.747 196.549 100.044 192.679Z" fill="url(#paint7_linear_208_5289)"/>
<path d="M100.044 192.679L42.8094 159.646C36.1065 155.776 36.1065 149.48 42.8094 145.61L100.044 112.577C106.747 108.707 117.653 108.707 124.356 112.577L181.59 145.61C188.293 149.48 188.293 155.776 181.59 159.646L124.356 192.679C117.653 196.549 106.747 196.549 100.044 192.679Z" fill="#24126A"/>
<g opacity="0.51">
<path d="M100.044 192.678L42.8094 159.645C36.1065 155.775 36.1065 149.48 42.8094 145.61L100.044 112.576C106.747 108.706 117.653 108.706 124.356 112.576L181.59 145.61C188.293 149.48 188.293 155.775 181.59 159.645L124.356 192.678C117.653 196.548 106.747 196.548 100.044 192.678Z" fill="#453C9E"/>
</g>
<path d="M181.571 159.645L124.337 192.679C117.634 196.549 106.728 196.549 100.025 192.679L42.7905 159.645C39.7909 157.923 38.1429 155.701 37.8281 153.442C37.4393 156.238 39.0872 159.127 42.7905 161.275L100.025 194.327C106.728 198.197 117.634 198.197 124.337 194.327L181.571 161.293C185.275 159.145 186.922 156.275 186.534 153.461C186.219 155.72 184.571 157.942 181.571 159.664V159.645Z" fill="white"/>
<path d="M312.149 260.598L311.649 259.746L314.853 257.895L315.353 258.746L312.149 260.598Z" fill="#FFA232"/>
<path d="M321.222 255.374L320.722 254.504L326.573 251.116L327.073 251.986L321.222 255.374ZM332.943 248.616L332.443 247.746L338.294 244.357L338.794 245.227L332.943 248.616ZM344.663 241.857L344.163 240.987L350.015 237.599L350.515 238.469L344.663 241.857ZM356.384 235.099L355.884 234.229L361.736 230.84L362.236 231.71L356.384 235.099ZM368.105 228.34L367.605 227.47L373.456 224.082L373.956 224.952L368.105 228.34Z" fill="#FFA232"/>
<path d="M379.81 221.546L379.31 220.675L382.513 218.824L383.013 219.694L379.81 221.546Z" fill="#FFA232"/>
<g opacity="0.3">
<path d="M339.942 353.939V340.977L336.349 338.977C335.331 345.106 328.128 349.124 322.11 349.976L281.096 373.955L263.191 380.417L206.068 350.939L207.382 350.18C202.494 347.902 199.865 342.681 197.235 337.922L193.384 340.218L191.106 340.866V354.161C191.106 356.698 192.773 359.234 196.124 361.179L253.359 394.23C260.062 398.1 270.968 398.1 277.671 394.23L334.905 361.197C338.201 359.29 339.867 356.809 339.923 354.309C339.923 354.198 339.923 354.087 339.923 353.976L339.942 353.939Z" fill="url(#paint8_linear_208_5289)"/>
<path opacity="0.3" d="M322.129 349.976L281.115 373.955L265.543 379.584V397.119C269.95 397.119 274.338 396.156 277.69 394.212L334.924 361.178C338.22 359.271 339.886 356.79 339.942 354.29C339.942 354.179 339.942 354.068 339.942 353.957V340.995L336.665 339.181H336.313C335.202 345.199 328.073 349.161 322.111 349.994L322.129 349.976Z" fill="#0F054C"/>
<path d="M253.378 381.028L196.143 347.994C189.44 344.124 189.44 337.829 196.143 333.959L253.378 300.925C260.081 297.055 270.987 297.055 277.69 300.925L334.924 333.977C341.627 337.847 341.627 344.143 334.924 348.013L277.69 381.046C270.987 384.916 260.081 384.916 253.378 381.046V381.028Z" fill="url(#paint9_linear_208_5289)"/>
<g opacity="0.3">
<path d="M253.377 381.029L196.142 347.995C189.439 344.125 189.439 337.83 196.142 333.96L253.377 300.926C260.08 297.056 270.986 297.056 277.689 300.926L334.923 333.978C341.626 337.848 341.626 344.144 334.923 348.014L277.689 381.047C270.986 384.917 260.08 384.917 253.377 381.047V381.029Z" fill="#0F054C"/>
</g>
</g>
<path d="M265.542 332.958C261.635 332.958 257.728 332.107 254.747 330.384L197.513 297.351C194.55 295.629 192.902 293.315 192.902 290.833C192.902 288.352 194.532 286.038 197.513 284.316L254.747 251.282C260.691 247.838 270.375 247.838 276.319 251.282L333.553 284.316C336.516 286.038 338.164 288.352 338.164 290.833C338.164 293.315 336.534 295.629 333.553 297.351L276.319 330.384C273.338 332.107 269.431 332.958 265.524 332.958H265.542ZM265.542 249.671C261.821 249.671 258.099 250.486 255.266 252.134L198.031 285.167C195.384 286.704 193.921 288.704 193.921 290.815C193.921 292.926 195.384 294.926 198.031 296.462L255.266 329.496C260.932 332.773 270.171 332.773 275.837 329.496L333.072 296.462C335.72 294.926 337.182 292.926 337.182 290.815C337.182 288.704 335.72 286.686 333.072 285.167L275.837 252.134C273.004 250.505 269.283 249.671 265.561 249.671H265.542Z" fill="#FFA232"/>
<path opacity="0.4" d="M339.942 278.151V258.561L336.349 256.561C335.331 262.69 328.128 266.708 322.11 267.56L281.096 291.538L263.191 298.001L206.068 268.522L207.382 267.763C202.494 265.486 199.865 260.264 197.235 255.505L193.384 257.801L191.106 258.45V278.373C191.106 280.91 192.773 283.447 196.124 285.391L253.359 318.443C260.062 322.313 270.968 322.313 277.671 318.443L334.905 285.409C338.201 283.502 339.867 281.021 339.923 278.521C339.923 278.41 339.923 278.299 339.923 278.188L339.942 278.151Z" fill="#FFA232"/>
<path d="M339.942 260.727V247.765L336.349 245.765C335.331 251.894 328.128 255.912 322.11 256.764L281.096 280.743L263.191 287.205L206.068 257.727L207.382 256.968C202.494 254.69 199.865 249.469 197.235 244.71L193.384 247.006L191.106 247.654V260.949C191.106 263.486 192.773 266.022 196.124 267.967L253.359 301C260.062 304.87 270.968 304.87 277.671 301L334.905 267.967C338.201 266.059 339.867 263.578 339.923 261.078C339.923 260.967 339.923 260.856 339.923 260.745L339.942 260.727Z" fill="url(#paint10_linear_208_5289)"/>
<path opacity="0.3" d="M322.129 256.746L281.115 280.725L265.543 286.354V303.889C269.95 303.889 274.338 302.926 277.69 300.982L334.924 267.948C338.22 266.041 339.886 263.56 339.942 261.06C339.942 260.949 339.942 260.838 339.942 260.727V247.765L336.665 245.951H336.313C335.202 251.969 328.073 255.931 322.111 256.764L322.129 256.746Z" fill="#0F054C"/>
<path d="M253.378 287.816L196.143 254.783C189.44 250.913 189.44 244.617 196.143 240.747L253.378 207.714C260.081 203.844 270.987 203.844 277.69 207.714L334.924 240.747C341.627 244.617 341.627 250.913 334.924 254.783L277.69 287.816C270.987 291.686 260.081 291.686 253.378 287.816Z" fill="url(#paint11_linear_208_5289)"/>
<path d="M265.543 281.817C262.006 281.817 258.488 281.039 255.803 279.484L211.086 253.672C208.401 252.117 206.92 250.024 206.901 247.765C206.901 245.506 208.383 243.396 211.086 241.84L255.803 216.028C261.173 212.936 269.913 212.918 275.301 216.028L320.018 241.84C322.722 243.396 324.203 245.488 324.203 247.747C324.203 250.006 322.722 252.117 320.037 253.672L275.32 279.484C272.635 281.039 269.098 281.817 265.58 281.817H265.543ZM256.303 278.614C261.395 281.558 269.691 281.558 274.783 278.614L319.5 252.802C321.87 251.432 323.185 249.636 323.185 247.747C323.185 245.858 321.87 244.062 319.5 242.692L274.783 216.88C269.691 213.936 261.395 213.936 256.303 216.88L211.586 242.692C209.216 244.062 207.901 245.858 207.901 247.747C207.901 249.636 209.216 251.432 211.586 252.802L256.303 278.614Z" fill="#5351AF"/>
<path d="M334.924 254.765L277.689 287.798C270.986 291.668 260.08 291.668 253.377 287.798L196.143 254.765C193.143 253.043 191.495 250.821 191.181 248.562C190.792 251.358 192.44 254.246 196.143 256.394L253.377 289.446C260.08 293.316 270.986 293.316 277.689 289.446L334.924 256.413C338.627 254.265 340.275 251.395 339.886 248.58C339.571 250.839 337.923 253.061 334.924 254.783V254.765Z" fill="white"/>
<g opacity="0.3">
<path d="M339.942 153.905V140.944L336.349 138.944C335.331 145.073 328.128 149.091 322.11 149.943L281.096 173.922L263.191 180.384L206.068 150.906L207.382 150.147C202.494 147.869 199.865 142.647 197.235 137.889L193.384 140.185L191.106 140.833V154.128C191.106 156.664 192.773 159.201 196.124 161.145L253.359 194.179C260.062 198.049 270.968 198.049 277.671 194.179L334.905 161.145C338.201 159.238 339.867 156.757 339.923 154.257C339.923 154.146 339.923 154.035 339.923 153.924L339.942 153.905Z" fill="url(#paint12_linear_208_5289)"/>
<path opacity="0.3" d="M322.129 149.924L281.115 173.903L265.543 179.532V197.067C269.95 197.067 274.338 196.104 277.69 194.16L334.924 161.127C338.22 159.22 339.886 156.739 339.942 154.239C339.942 154.128 339.942 154.017 339.942 153.906V140.944L336.665 139.129H336.313C335.202 145.147 328.073 149.11 322.111 149.943L322.129 149.924Z" fill="#0F054C"/>
<path d="M253.378 180.995L196.143 147.943C189.44 144.073 189.44 137.778 196.143 133.908L253.378 100.875C260.081 97.0047 270.987 97.0047 277.69 100.875L334.924 133.926C341.627 137.796 341.627 144.092 334.924 147.962L277.69 180.995C270.987 184.865 260.081 184.865 253.378 180.995Z" fill="url(#paint13_linear_208_5289)"/>
<g opacity="0.3">
<path d="M253.377 180.996L196.142 147.944C189.439 144.074 189.439 137.778 196.142 133.908L253.377 100.875C260.08 97.0052 270.986 97.0052 277.689 100.875L334.923 133.927C341.626 137.797 341.626 144.092 334.923 147.962L277.689 180.996C270.986 184.866 260.08 184.866 253.377 180.996Z" fill="#0F054C"/>
</g>
</g>
<path d="M265.542 141.406C261.635 141.406 257.728 140.554 254.747 138.832L197.513 105.78C194.55 104.058 192.902 101.744 192.902 99.2625C192.902 96.7813 194.532 94.4667 197.513 92.7447L254.747 59.7114C260.691 56.2858 270.375 56.2673 276.319 59.7114L333.553 92.7447C336.516 94.4667 338.164 96.7813 338.164 99.2625C338.164 101.744 336.534 104.058 333.553 105.78L276.319 138.814C273.338 140.536 269.431 141.387 265.524 141.387L265.542 141.406ZM265.542 58.1189C261.821 58.1189 258.099 58.9337 255.266 60.5816L198.031 93.6149C195.384 95.1518 193.921 97.1516 193.921 99.2625C193.921 101.373 195.384 103.392 198.031 104.91L255.266 137.962C260.932 141.239 270.171 141.239 275.837 137.962L333.072 104.928C335.72 103.392 337.182 101.392 337.182 99.281C337.182 97.1701 335.72 95.1518 333.072 93.6334L275.837 60.6001C273.004 58.9707 269.283 58.1374 265.561 58.1374L265.542 58.1189Z" fill="#FFA232"/>
<path opacity="0.4" d="M339.942 86.5797V66.9893L336.349 64.9895C335.331 71.1185 328.128 75.1365 322.11 75.9883L281.096 99.967L263.191 106.429L206.068 76.9511L207.382 76.192C202.494 73.9144 199.865 68.6928 197.235 63.9341L193.384 66.2301L191.106 66.8782V86.8019C191.106 89.3386 192.773 91.8754 196.124 93.8196L253.359 126.853C260.062 130.723 270.968 130.723 277.671 126.853L334.905 93.8196C338.201 91.9124 339.867 89.4312 339.923 86.9315C339.923 86.8204 339.923 86.7093 339.923 86.5982L339.942 86.5797Z" fill="#FFA232"/>
<path d="M339.942 69.1564V56.1949L336.349 54.1951C335.331 60.3055 328.128 64.3421 322.11 65.1939L281.096 89.1726L263.191 95.6349L206.068 66.1567L207.382 65.3975C202.494 63.12 199.865 57.8984 197.235 53.1396L193.384 55.4357L191.106 56.0838V69.3786C191.106 71.9153 192.773 74.4521 196.124 76.3963L253.359 109.448C260.062 113.318 270.968 113.318 277.671 109.448L334.905 76.4148C338.201 74.5076 339.867 72.0264 339.923 69.5267C339.923 69.4156 339.923 69.3045 339.923 69.1934L339.942 69.1564Z" fill="url(#paint14_linear_208_5289)"/>
<path opacity="0.3" d="M322.129 65.1925L281.115 89.1713L265.543 94.8003V112.335C269.95 112.335 274.338 111.373 277.69 109.428L334.924 76.395C338.22 74.4878 339.886 72.0066 339.942 69.5069C339.942 69.3958 339.942 69.2847 339.942 69.1736V56.2121L336.665 54.3975H336.313C335.202 60.4153 328.073 64.3778 322.111 65.2111L322.129 65.1925Z" fill="#0F054C"/>
<path d="M207.402 65.3967L261.636 34.0854C263.784 32.8448 267.265 32.8448 269.413 34.0854L322.704 64.8412L322.111 65.193C328.129 64.3598 335.332 60.3232 336.35 54.1943L276.542 20.9388L259.137 16.3467L244.972 24.6791L197.236 53.1388C199.884 57.8976 202.514 63.1192 207.383 65.3967H207.402Z" fill="url(#paint15_linear_208_5289)"/>
<path opacity="0.3" d="M265.543 18.0317L259.155 16.3467L244.99 24.6791L197.255 53.1388C199.903 57.8976 202.532 63.1192 207.402 65.3967L261.637 34.0854C262.71 33.4744 264.118 33.1596 265.525 33.1596V18.0317H265.543Z" fill="#0F054C"/>
<path d="M253.378 96.2452L196.143 63.1934C189.44 59.3235 189.44 53.0279 196.143 49.1579L253.378 16.1246C260.081 12.2547 270.987 12.2547 277.69 16.1246L334.924 49.1765C341.627 53.0464 341.627 59.342 334.924 63.2119L277.69 96.2452C270.987 100.115 260.081 100.115 253.378 96.2452ZM269.413 20.9018C267.265 19.6612 263.784 19.6612 261.636 20.9018L204.402 53.9352C202.254 55.1758 202.254 57.1941 204.402 58.4347L261.636 91.4865C263.784 92.7271 267.265 92.7271 269.413 91.4865L326.647 58.4532C328.795 57.2126 328.795 55.1943 326.647 53.9537L269.413 20.9018Z" fill="url(#paint16_linear_208_5289)"/>
<path d="M326.665 53.9525L269.43 20.9007C267.282 19.6601 263.801 19.6601 261.653 20.9007L204.419 53.934C202.993 54.7672 202.512 55.9338 202.993 56.9892C203.234 56.4707 203.697 55.9708 204.419 55.5449L261.653 22.5116C263.801 21.271 267.282 21.271 269.43 22.5116L326.665 55.5449C327.387 55.9523 327.85 56.4522 328.09 56.9892C328.572 55.9338 328.09 54.7672 326.665 53.934V53.9525Z" fill="white"/>
<path d="M334.924 63.2127L277.689 96.246C270.986 100.116 260.08 100.116 253.377 96.246L196.143 63.1942C193.143 61.4722 191.495 59.2502 191.181 56.9912C190.792 59.7872 192.44 62.6757 196.143 64.8237L253.377 97.8755C260.08 101.745 270.986 101.745 277.689 97.8755L334.924 64.8422C338.627 62.6943 340.275 59.8242 339.886 57.0097C339.571 59.2687 337.923 61.4907 334.924 63.2127Z" fill="white"/>
<path d="M255.007 95.3192L197.773 62.2674C191.959 58.9159 191.959 53.4536 197.773 50.1021L255.007 17.0688C260.821 13.7173 270.265 13.7173 276.079 17.0688L333.313 50.1206C339.127 53.4721 339.127 58.9345 333.313 62.2859L276.079 95.3192C270.265 98.6707 260.821 98.6707 255.007 95.3192ZM271.042 19.9759C268.006 18.2168 263.062 18.2168 260.025 19.9759L202.791 53.0092C199.754 54.7683 199.754 57.6198 202.791 59.3603L260.025 92.4122C263.062 94.1712 268.006 94.1712 271.042 92.4122L328.277 59.3789C331.313 57.6198 331.313 54.7683 328.277 53.0277L271.042 19.9759Z" fill="url(#paint17_linear_208_5289)"/>
<path opacity="0.4" d="M269.432 20.9007C267.284 19.6601 263.803 19.6601 261.655 20.9007L204.421 53.934C202.273 55.1746 202.273 57.1929 204.421 58.4335L261.655 91.4853C263.803 92.7259 267.284 92.7259 269.432 91.4853L326.666 58.452C328.814 57.2114 328.814 55.1931 326.666 53.9525L269.432 20.9007Z" fill="#FFA232"/>
<g opacity="0.2">
<mask id="mask0_208_5289" style="mask-type:luminance" maskUnits="userSpaceOnUse" x="37" y="109" width="150" height="87">
<path d="M100.044 192.678L42.8094 159.645C36.1065 155.775 36.1065 149.479 42.8094 145.609L100.044 112.576C106.747 108.706 117.653 108.706 124.356 112.576L181.59 145.609C188.293 149.479 188.293 155.775 181.59 159.645L124.356 192.678C117.653 196.548 106.747 196.548 100.044 192.678Z" fill="white"/>
</mask>
<g mask="url(#mask0_208_5289)">
<path d="M70.3066 154.571V222.952C70.3252 224.433 71.2325 225.841 73.0656 226.915L129.874 259.726C133.966 262.096 141.113 261.799 145.835 259.059C148.483 257.522 149.798 255.559 149.742 253.708V185.308L70.3066 154.571Z" fill="url(#paint18_linear_208_5289)"/>
<path opacity="0.3" d="M134.134 261.076C137.948 261.65 142.485 260.965 145.836 259.04C148.484 257.503 149.799 255.54 149.743 253.688V185.289L134.43 179.363H134.152V261.058L134.134 261.076Z" fill="#24126A"/>
<path d="M129.875 191.326L73.0663 158.515C68.9742 156.145 69.4927 152.034 74.2144 149.313C78.936 146.591 86.0834 146.294 90.1755 148.646L146.984 181.457C151.076 183.827 150.558 187.938 145.836 190.66C141.114 193.382 133.967 193.678 129.875 191.326Z" fill="url(#paint19_linear_208_5289)"/>
</g>
</g>
<path opacity="0.5" d="M129.874 173.718L73.0654 140.907C68.9732 138.537 69.4917 134.426 74.2134 131.704C78.9351 128.982 86.0824 128.686 90.1745 131.038L146.983 163.849C151.075 166.219 150.557 170.329 145.835 173.051C141.113 175.773 133.966 176.07 129.874 173.718Z" fill="#24126A"/>
<path d="M70.3057 50.917V119.298C70.3242 120.779 71.2315 122.187 73.0646 123.261L129.873 156.072C133.965 158.442 141.113 158.146 145.834 155.405C148.482 153.868 149.797 151.906 149.741 150.054V81.6543L70.3057 50.917Z" fill="url(#paint20_linear_208_5289)"/>
<path opacity="0.3" d="M134.133 157.423C137.947 157.997 142.484 157.312 145.835 155.386C148.483 153.849 149.798 151.887 149.742 150.035V81.6352L134.429 75.71H134.151V157.404L134.133 157.423Z" fill="#24126A"/>
<path d="M129.874 87.672L73.0654 54.8609C68.9732 52.4908 69.4917 48.3802 74.2134 45.6582C78.9351 42.9363 86.0824 42.6401 90.1745 44.9916L146.983 77.8028C151.075 80.1729 150.557 84.2835 145.835 87.0054C141.113 89.7274 133.966 90.0236 129.874 87.672Z" fill="url(#paint21_linear_208_5289)"/>
<path d="M135.54 83.2826C132.836 83.2826 130.633 81.0791 130.633 78.3757V47.9902C130.633 37.621 123.06 24.4929 114.079 19.3083L101.044 11.7721C97.5995 9.79083 94.4887 9.2909 92.5075 10.4389C90.5262 11.5869 89.3967 14.5125 89.3967 18.4936V48.879C89.3967 51.5824 87.1933 53.7859 84.4899 53.7859C81.7865 53.7859 79.583 51.5824 79.583 48.879V18.4936C79.583 10.8092 82.4345 4.92101 87.6006 1.93987C92.7667 -1.04128 99.2845 -0.578366 105.95 3.27305L118.986 10.8092C131.022 17.7529 140.447 34.0844 140.447 47.9902V78.3757C140.447 81.0791 138.243 83.2826 135.54 83.2826Z" fill="url(#paint22_linear_208_5289)"/>
<path d="M71.8458 217.585L0.969727 258.473L1.46938 259.339L72.3454 218.451L71.8458 217.585Z" fill="#FFA232"/>
<defs>
<linearGradient id="paint0_linear_208_5289" x1="360.977" y1="213.769" x2="479.057" y2="281.928" gradientUnits="userSpaceOnUse">
<stop stop-color="#BCBEFF"/>
<stop offset="0.23" stop-color="#AAADF7"/>
<stop offset="0.68" stop-color="#7B82E5"/>
<stop offset="1" stop-color="#5761D7"/>
</linearGradient>
<linearGradient id="paint1_linear_208_5289" x1="346.183" y1="239.525" x2="495" y2="239.525" gradientUnits="userSpaceOnUse">
<stop stop-color="#E9E9FD"/>
<stop offset="0.36" stop-color="#D2D2F9"/>
<stop offset="0.71" stop-color="#C4C3F6"/>
<stop offset="1" stop-color="#C0BFF6"/>
</linearGradient>
<linearGradient id="paint2_linear_208_5289" x1="360.976" y1="126.853" x2="479.056" y2="195.031" gradientUnits="userSpaceOnUse">
<stop stop-color="#BCBEFF"/>
<stop offset="0.23" stop-color="#AAADF7"/>
<stop offset="0.68" stop-color="#7B82E5"/>
<stop offset="1" stop-color="#5761D7"/>
</linearGradient>
<linearGradient id="paint3_linear_208_5289" x1="346.182" y1="152.628" x2="2.85045" y2="152.628" gradientUnits="userSpaceOnUse">
<stop stop-color="#E9E9FD"/>
<stop offset="0.36" stop-color="#D2D2F9"/>
<stop offset="0.71" stop-color="#C4C3F6"/>
<stop offset="1" stop-color="#C0BFF6"/>
</linearGradient>
<linearGradient id="paint4_linear_208_5289" x1="52.5856" y1="213.769" x2="170.665" y2="281.928" gradientUnits="userSpaceOnUse">
<stop stop-color="#BCBEFF"/>
<stop offset="0.23" stop-color="#AAADF7"/>
<stop offset="0.68" stop-color="#7B82E5"/>
<stop offset="1" stop-color="#5761D7"/>
</linearGradient>
<linearGradient id="paint5_linear_208_5289" x1="37.7915" y1="-147.968" x2="186.608" y2="-147.968" gradientUnits="userSpaceOnUse">
<stop stop-color="#E9E9FD"/>
<stop offset="0.36" stop-color="#D2D2F9"/>
<stop offset="0.71" stop-color="#C4C3F6"/>
<stop offset="1" stop-color="#C0BFF6"/>
</linearGradient>
<linearGradient id="paint6_linear_208_5289" x1="52.5856" y1="126.853" x2="170.665" y2="195.031" gradientUnits="userSpaceOnUse">
<stop stop-color="#BCBEFF"/>
<stop offset="0.23" stop-color="#AAADF7"/>
<stop offset="0.68" stop-color="#7B82E5"/>
<stop offset="1" stop-color="#5761D7"/>
</linearGradient>
<linearGradient id="paint7_linear_208_5289" x1="37.7915" y1="152.628" x2="186.608" y2="152.628" gradientUnits="userSpaceOnUse">
<stop stop-color="#E9E9FD"/>
<stop offset="0.36" stop-color="#D2D2F9"/>
<stop offset="0.71" stop-color="#C4C3F6"/>
<stop offset="1" stop-color="#C0BFF6"/>
</linearGradient>
<linearGradient id="paint8_linear_208_5289" x1="205.938" y1="315.202" x2="323.999" y2="383.38" gradientUnits="userSpaceOnUse">
<stop stop-color="#BCBEFF"/>
<stop offset="0.23" stop-color="#AAADF7"/>
<stop offset="0.68" stop-color="#7B82E5"/>
<stop offset="1" stop-color="#5761D7"/>
</linearGradient>
<linearGradient id="paint9_linear_208_5289" x1="191.125" y1="340.976" x2="339.942" y2="340.976" gradientUnits="userSpaceOnUse">
<stop stop-color="#E9E9FD"/>
<stop offset="0.36" stop-color="#D2D2F9"/>
<stop offset="0.71" stop-color="#C4C3F6"/>
<stop offset="1" stop-color="#C0BFF6"/>
</linearGradient>
<linearGradient id="paint10_linear_208_5289" x1="205.938" y1="221.99" x2="323.999" y2="290.149" gradientUnits="userSpaceOnUse">
<stop stop-color="#BCBEFF"/>
<stop offset="0.23" stop-color="#AAADF7"/>
<stop offset="0.68" stop-color="#7B82E5"/>
<stop offset="1" stop-color="#5761D7"/>
</linearGradient>
<linearGradient id="paint11_linear_208_5289" x1="191.125" y1="247.747" x2="339.942" y2="247.747" gradientUnits="userSpaceOnUse">
<stop stop-color="#E9E9FD"/>
<stop offset="0.36" stop-color="#D2D2F9"/>
<stop offset="0.71" stop-color="#C4C3F6"/>
<stop offset="1" stop-color="#C0BFF6"/>
</linearGradient>
<linearGradient id="paint12_linear_208_5289" x1="205.938" y1="115.169" x2="323.999" y2="183.328" gradientUnits="userSpaceOnUse">
<stop stop-color="#BCBEFF"/>
<stop offset="0.23" stop-color="#AAADF7"/>
<stop offset="0.68" stop-color="#7B82E5"/>
<stop offset="1" stop-color="#5761D7"/>
</linearGradient>
<linearGradient id="paint13_linear_208_5289" x1="191.125" y1="140.926" x2="339.942" y2="140.926" gradientUnits="userSpaceOnUse">
<stop stop-color="#E9E9FD"/>
<stop offset="0.36" stop-color="#D2D2F9"/>
<stop offset="0.71" stop-color="#C4C3F6"/>
<stop offset="1" stop-color="#C0BFF6"/>
</linearGradient>
<linearGradient id="paint14_linear_208_5289" x1="205.938" y1="30.42" x2="323.999" y2="98.5975" gradientUnits="userSpaceOnUse">
<stop stop-color="#BCBEFF"/>
<stop offset="0.23" stop-color="#AAADF7"/>
<stop offset="0.68" stop-color="#7B82E5"/>
<stop offset="1" stop-color="#5761D7"/>
</linearGradient>
<linearGradient id="paint15_linear_208_5289" x1="213.012" y1="25.8271" x2="318.315" y2="86.6351" gradientUnits="userSpaceOnUse">
<stop offset="0.24" stop-color="#5761D7"/>
<stop offset="0.39" stop-color="#7A81E5"/>
<stop offset="0.55" stop-color="#979BF0"/>
<stop offset="0.7" stop-color="#ABAEF8"/>
<stop offset="0.85" stop-color="#B7BAFD"/>
<stop offset="1" stop-color="#BCBEFF"/>
</linearGradient>
<linearGradient id="paint16_linear_208_5289" x1="191.125" y1="56.1942" x2="339.942" y2="56.1942" gradientUnits="userSpaceOnUse">
<stop stop-color="#E9E9FD"/>
<stop offset="0.36" stop-color="#D2D2F9"/>
<stop offset="0.71" stop-color="#C4C3F6"/>
<stop offset="1" stop-color="#C0BFF6"/>
</linearGradient>
<linearGradient id="paint17_linear_208_5289" x1="193.403" y1="56.194" x2="337.664" y2="56.194" gradientUnits="userSpaceOnUse">
<stop stop-color="#E9E9FD"/>
<stop offset="0.36" stop-color="#D2D2F9"/>
<stop offset="0.71" stop-color="#C4C3F6"/>
<stop offset="1" stop-color="#C0BFF6"/>
</linearGradient>
<linearGradient id="paint18_linear_208_5289" x1="80.25" y1="207.935" x2="159.685" y2="207.935" gradientUnits="userSpaceOnUse">
<stop stop-color="#BCBEFF"/>
<stop offset="0.14" stop-color="#B3B6FB"/>
<stop offset="0.37" stop-color="#9DA2F3"/>
<stop offset="0.65" stop-color="#7981E4"/>
<stop offset="0.87" stop-color="#5761D7"/>
</linearGradient>
<linearGradient id="paint19_linear_208_5289" x1="-3.46209" y1="169.977" x2="192.553" y2="169.977" gradientUnits="userSpaceOnUse">
<stop stop-color="#E9E9FD"/>
<stop offset="0.36" stop-color="#D2D2F9"/>
<stop offset="0.71" stop-color="#C4C3F6"/>
<stop offset="1" stop-color="#C0BFF6"/>
</linearGradient>
<linearGradient id="paint20_linear_208_5289" x1="0.998649" y1="104.281" x2="2.85029" y2="104.281" gradientUnits="userSpaceOnUse">
<stop stop-color="#BCBEFF"/>
<stop offset="0.14" stop-color="#B3B6FB"/>
<stop offset="0.37" stop-color="#9DA2F3"/>
<stop offset="0.65" stop-color="#7981E4"/>
<stop offset="0.87" stop-color="#5761D7"/>
</linearGradient>
<linearGradient id="paint21_linear_208_5289" x1="-3.46306" y1="66.3411" x2="192.552" y2="66.3411" gradientUnits="userSpaceOnUse">
<stop stop-color="#E9E9FD"/>
<stop offset="0.36" stop-color="#D2D2F9"/>
<stop offset="0.71" stop-color="#C4C3F6"/>
<stop offset="1" stop-color="#C0BFF6"/>
</linearGradient>
<linearGradient id="paint22_linear_208_5289" x1="50.6974" y1="30.4552" x2="192.663" y2="54.8413" gradientUnits="userSpaceOnUse">
<stop stop-color="#BCBEFF"/>
<stop offset="0.14" stop-color="#B3B6FB"/>
<stop offset="0.37" stop-color="#9DA2F3"/>
<stop offset="0.65" stop-color="#7981E4"/>
<stop offset="0.87" stop-color="#5761D7"/>
</linearGradient>
</defs>
</svg>
