<svg width="464" height="401" viewBox="0 0 464 401" fill="none" xmlns="http://www.w3.org/2000/svg">
<path d="M133.54 266.521L254.471 341.182L255.084 340.188L134.153 265.527L133.54 266.521Z" fill="#42FFFF"/>
<path opacity="0.5" d="M278.868 117.471L230.043 89.2756C228.98 88.6685 229.12 87.5944 230.335 86.8939L244.683 78.6162L297.35 109.018L283.001 117.296C281.775 117.997 279.931 118.078 278.868 117.471Z" fill="#242993"/>
<path d="M348.278 79.1064V69.381H332.434L297.28 49.0895C296.416 48.5875 294.91 48.6575 293.918 49.2296L258.916 69.4394H243.143V79.1998C243.154 79.5034 243.341 79.7952 243.715 80.0054L294.151 109.123C295.015 109.625 296.521 109.555 297.514 108.983L347.46 80.1455C347.974 79.8419 348.254 79.4683 348.278 79.1064Z" fill="url(#paint0_linear_0_1)"/>
<path d="M294.141 99.3987L243.704 70.2808C242.84 69.7787 242.945 68.9148 243.949 68.3427L293.907 39.505C294.9 38.9329 296.406 38.8629 297.27 39.3649L347.707 68.4828C348.571 68.9848 348.466 69.8488 347.461 70.4209L297.515 99.2586C296.523 99.8307 295.017 99.9007 294.153 99.3987H294.141Z" fill="url(#paint1_linear_0_1)"/>
<path d="M294.327 95.9884L249.623 70.1745C248.864 69.7309 248.957 68.9603 249.833 68.4466L294.105 42.8897C294.992 42.376 296.323 42.3293 297.094 42.7612L341.798 68.575C342.557 69.0187 342.463 69.7893 341.588 70.303L297.316 95.8599C296.428 96.3736 295.097 96.4203 294.327 95.9884Z" fill="#242993"/>
<path d="M294.433 93.8292L253.36 70.1169C252.659 69.7083 252.741 69.0078 253.558 68.5291L294.234 45.0503C295.04 44.5833 296.277 44.5366 296.978 44.9335L338.051 68.6458C338.752 69.0545 338.67 69.755 337.853 70.2337L297.176 93.7124C296.371 94.1794 295.133 94.2261 294.433 93.8292Z" fill="#4553C7"/>
<path d="M294.758 67.8404L289.96 65.0617L292.575 63.5439L297.385 66.3226L294.758 67.8404Z" fill="#42FFFF"/>
<path d="M303.69 67.4426L298.88 70.2213L296.265 68.7035L301.063 65.9248L303.69 67.4426Z" fill="#42FFFF"/>
<path d="M293.673 68.4699L291.046 69.976L288.431 68.4699L291.046 66.9521L293.673 68.4699Z" fill="#42FFFF"/>
<path d="M302.734 73.7005L300.107 75.2066L292.553 70.8401L295.168 69.334L302.734 73.7005Z" fill="#42FFFF"/>
<path opacity="0.5" d="M49.5411 386.957L0.715478 358.761C-0.346963 358.154 -0.206861 357.08 1.00736 356.379L15.3562 348.102L68.0229 378.504L53.6741 386.781C52.4482 387.482 50.6035 387.564 49.5411 386.957Z" fill="#242993"/>
<path d="M118.949 348.58V338.855H103.106L67.9522 318.563C67.0883 318.061 65.5822 318.131 64.5898 318.703L29.5876 338.913H13.8145V348.673C13.8261 348.977 14.0129 349.269 14.3865 349.479L64.8233 378.597C65.6873 379.099 67.1934 379.029 68.1857 378.457L118.132 349.619C118.646 349.316 118.926 348.942 118.949 348.58Z" fill="url(#paint2_linear_0_1)"/>
<path d="M64.8246 368.871L14.3878 339.753C13.5238 339.251 13.6289 338.387 14.633 337.815L64.5794 308.978C65.5718 308.406 67.0779 308.336 67.9418 308.838L118.379 337.955C119.243 338.458 119.137 339.321 118.133 339.894L68.187 368.731C67.1946 369.303 65.6885 369.373 64.8246 368.871Z" fill="url(#paint3_linear_0_1)"/>
<path d="M64.9996 365.462L20.2954 339.648C19.5365 339.205 19.6299 338.434 20.5055 337.92L64.7778 312.363C65.6651 311.85 66.9961 311.803 67.7666 312.235L112.471 338.049C113.23 338.492 113.136 339.263 112.261 339.777L67.9885 365.334C67.1012 365.847 65.7702 365.894 64.9996 365.462Z" fill="#242993"/>
<path d="M65.1154 363.303L24.0422 339.591C23.3416 339.182 23.4234 338.481 24.2406 338.003L64.917 314.524C65.7225 314.057 66.9601 314.01 67.6606 314.407L108.734 338.119C109.434 338.528 109.353 339.229 108.535 339.707L67.8591 363.186C67.0535 363.653 65.8159 363.7 65.1154 363.303Z" fill="#4553C7"/>
<path d="M65.442 337.313L60.6318 334.534L63.2588 333.028L68.0572 335.795L65.442 337.313Z" fill="#42FFFF"/>
<path d="M74.3619 336.916L69.5634 339.695L66.9365 338.177L71.7467 335.41L74.3619 336.916Z" fill="#42FFFF"/>
<path d="M64.3447 337.945L61.7294 339.462L59.1025 337.945L61.7294 336.427L64.3447 337.945Z" fill="#42FFFF"/>
<path d="M73.4171 343.174L70.7901 344.692L63.2246 340.325L65.8515 338.808L73.4171 343.174Z" fill="#42FFFF"/>
<path d="M444.271 181.022L373.753 140.31L336.276 118.91C332.259 116.621 327.298 116.656 323.328 119.015L242.501 167L241.905 165.996L322.733 118.011C327.064 115.442 332.481 115.396 336.859 117.894L374.337 139.295L444.855 180.006L444.271 181.022Z" fill="#42FFFF"/>
<g opacity="0.5">
<path d="M210.101 173.688L46.6835 268.036C45.2708 268.853 45.2708 270.896 46.6835 271.713L137.423 324.1C141.544 326.481 146.623 326.481 150.744 324.1L307.495 233.594C308.908 232.776 308.908 230.733 307.495 229.916L210.089 173.677L210.101 173.688Z" fill="#242993"/>
</g>
<path d="M205.012 132.255L183.18 2.69515L184.931 1.95961L182.292 0.441843C181.779 0.114938 181.055 0.13829 180.261 0.593621L5.72854 101.362C4.29249 102.191 3.2067 104.316 3.46355 105.799L25.4713 236.397C25.588 237.074 25.9266 237.53 26.3936 237.728L28.9738 239.223L29.4175 236.817L29.2657 236.864L202.747 136.703C204.183 135.874 205.269 133.749 205.012 132.266V132.255Z" fill="url(#paint4_linear_0_1)"/>
<path d="M6.69664 104.9L3.82453 103.627C3.49762 104.362 3.34587 105.133 3.45095 105.787L25.4587 236.385C25.5754 237.063 25.914 237.518 26.381 237.716L28.9612 239.211L29.4048 236.806L29.2531 236.852L38.0328 231.785L6.68496 104.911L6.69664 104.9Z" fill="url(#paint5_linear_0_1)"/>
<path d="M205.48 138.255L30.9473 239.023C29.6047 239.806 28.4488 239.35 28.2037 237.961L6.19598 107.362C5.93912 105.88 7.02488 103.755 8.46093 102.926L182.993 2.15738C184.336 1.37514 185.492 1.83048 185.737 3.21982L207.745 133.818C208.001 135.301 206.916 137.426 205.48 138.255Z" fill="#242993"/>
<g opacity="0.51">
<path d="M180.715 10.4951L12.4756 107.633L33.3392 230.619L201.462 133.551L180.715 10.4951Z" fill="#4553C7"/>
</g>
<path d="M315.192 200.087L305.665 205.06L210.162 149.918C208.563 148.996 205.772 149.113 203.928 150.175L39.2026 245.281C37.6265 244.394 30.4346 240.938 30.4346 240.938L33.9255 250.021H33.9371C34.0772 250.43 34.3925 250.804 34.9062 251.107L135.499 309.179C137.099 310.102 139.889 309.985 141.734 308.923L310.3 211.598C311.059 211.166 311.526 210.629 311.713 210.092H311.725L315.192 200.087Z" fill="url(#paint6_linear_0_1)"/>
<path d="M313.719 201.652L140.962 301.393C139.071 302.49 136.21 302.607 134.576 301.661L31.4838 242.141C29.8493 241.196 30.0478 239.549 31.9392 238.452L204.697 138.711C206.588 137.614 209.449 137.497 211.083 138.442L314.175 197.962C315.809 198.908 315.611 200.554 313.719 201.652Z" fill="url(#paint7_linear_0_1)"/>
<path d="M88.8555 279.815V277.924C88.8555 277.749 88.9605 277.667 89.1006 277.737L95.7788 281.59C95.9189 281.671 96.024 281.882 96.024 282.057V283.948C96.024 284.123 95.9189 284.205 95.7788 284.135L89.1006 280.282C88.9605 280.2 88.8555 279.99 88.8555 279.815Z" fill="#2859CB"/>
<path d="M98.8496 285.585V283.693C98.8496 283.518 98.9547 283.436 99.0948 283.506L105.773 287.359C105.913 287.441 106.018 287.651 106.018 287.826V289.718C106.018 289.893 105.913 289.975 105.773 289.904L99.0948 286.052C98.9547 285.97 98.8496 285.76 98.8496 285.585Z" fill="#2859CB"/>
<path d="M58.3612 236.559L201.919 153.677C202.877 153.128 204.056 153.128 205.013 153.677L256.139 183.25C256.874 183.671 256.874 184.733 256.139 185.153L112.639 268C111.682 268.549 110.503 268.549 109.545 268L58.3495 238.462C57.614 238.042 57.614 236.98 58.3495 236.548L58.3612 236.559Z" fill="#ADC8FF"/>
<path d="M58.3602 238.474L58.874 238.766L201.918 156.176C202.876 155.627 204.055 155.627 205.012 156.176L255.624 185.457L256.138 185.165C256.873 184.745 256.873 183.682 256.138 183.262L205.012 153.689C204.055 153.14 202.876 153.14 201.918 153.689L58.3602 236.571C57.6247 236.991 57.6247 238.054 58.3602 238.486V238.474Z" fill="#91AFFF"/>
<path d="M208.877 161.162L84.1746 233.163L78.6289 229.964L203.331 157.963L208.877 161.162Z" fill="#242993"/>
<path d="M222.467 169.018L105.505 236.548L99.959 233.349L216.921 165.808L222.467 169.018Z" fill="#242993"/>
<path d="M231.316 174.132L93.6072 253.64L88.0615 250.441L225.782 170.921L231.316 174.132Z" fill="#242993"/>
<path d="M240.178 179.235L102.458 258.755L96.9121 255.544L234.632 176.036L240.178 179.235Z" fill="#242993"/>
<path d="M249.026 184.347L111.306 263.855L105.771 260.656L243.48 181.148L249.026 184.347Z" fill="#242993"/>
<path d="M76.6324 237.517L71.0867 240.716L65.541 237.517L71.0867 234.318L76.6324 237.517Z" fill="#242993"/>
<path d="M96.1883 241.92L84.6883 248.563L79.1426 245.364L90.6426 238.721L96.1883 241.92Z" fill="#242993"/>
<path d="M207.453 256.618L246.168 234.271C247.685 233.396 247.685 231.983 246.168 231.108L219.7 215.825C218.182 214.949 215.73 214.949 214.224 215.825L175.509 238.171C173.992 239.047 173.992 240.459 175.509 241.335L201.977 256.618C203.495 257.493 205.947 257.493 207.453 256.618Z" fill="url(#paint8_linear_0_1)"/>
<path d="M175.498 239.467L214.213 217.121C215.73 216.245 218.182 216.245 219.688 217.121L246.156 232.403C246.623 232.672 246.926 232.999 247.102 233.337C247.498 232.579 247.195 231.715 246.156 231.108L219.688 215.825C218.17 214.949 215.719 214.949 214.213 215.825L175.498 238.171C174.447 238.778 174.143 239.63 174.552 240.401C174.727 240.062 175.031 239.735 175.498 239.467Z" fill="#91AFFF"/>
<g opacity="0.11">
<mask id="mask0_0_1" style="mask-type:luminance" maskUnits="userSpaceOnUse" x="12" y="10" width="190" height="221">
<path d="M180.712 10.4961L12.4727 107.634L33.3362 230.62L201.459 133.552L180.712 10.4961Z" fill="white"/>
</mask>
<g mask="url(#mask0_0_1)">
<path d="M204.868 138.503L32.1104 238.244C30.219 239.342 27.3586 239.459 25.724 238.513L-77.3677 178.993C-79.0023 178.047 -78.8038 176.401 -76.9124 175.304L95.8451 75.5625C97.7365 74.4651 100.597 74.3483 102.231 75.294L205.323 134.814C206.958 135.76 206.759 137.406 204.868 138.503Z" fill="url(#paint9_linear_0_1)"/>
<path d="M31.5962 156.389L70.3111 134.043C71.8289 133.167 71.8289 131.755 70.3111 130.879L43.8435 115.596C42.3258 114.721 39.874 114.721 38.3679 115.596L-0.347022 137.942C-1.86479 138.818 -1.86479 140.231 -0.347022 141.106L26.1206 156.389C27.6384 157.265 30.0901 157.265 31.5962 156.389Z" fill="url(#paint10_linear_0_1)"/>
<path d="M-0.358778 139.228L38.3561 116.881C39.8739 116.006 42.3257 116.006 43.8318 116.881L70.2994 132.164C70.7664 132.433 71.0699 132.76 71.2451 133.098C71.642 132.339 71.3385 131.475 70.2994 130.868L43.8318 115.585C42.314 114.71 39.8622 114.71 38.3561 115.585L-0.358778 137.932C-1.40954 138.539 -1.7131 139.391 -1.30446 140.162C-1.12934 139.823 -0.825785 139.496 -0.358778 139.228Z" fill="#91AFFF"/>
<path d="M-17.3693 191.31L126.189 108.428C127.146 107.879 128.325 107.879 129.283 108.428L180.408 138.001C181.144 138.422 181.144 139.484 180.408 139.904L36.9086 222.751C35.9513 223.3 34.772 223.3 33.8147 222.751L-17.381 193.213C-18.1165 192.793 -18.1165 191.731 -17.381 191.299L-17.3693 191.31Z" fill="#ADC8FF"/>
<path d="M-17.3692 193.224L-16.8556 193.516L126.189 110.926C127.146 110.377 128.325 110.377 129.283 110.926L179.895 140.207L180.408 139.915C181.144 139.495 181.144 138.432 180.408 138.012L129.283 108.439C128.325 107.89 127.146 107.89 126.189 108.439L-17.3692 191.321C-18.1048 191.741 -18.1048 192.804 -17.3692 193.236V193.224Z" fill="#91AFFF"/>
<path d="M167.028 135.98L41.9639 208.191L46.9141 211.052L171.979 138.841L167.028 135.98Z" fill="#242993"/>
<path d="M153.847 128.381L34.9707 197.008L39.9327 199.868L158.809 131.241L153.847 128.381Z" fill="#242993"/>
<path d="M26.0982 202.133L14.9951 208.542L19.9454 211.403L31.0485 204.993L26.0982 202.133Z" fill="#242993"/>
<path d="M35.9047 211.695L28.1758 216.155L33.126 219.016L40.855 214.556L35.9047 211.695Z" fill="#242993"/>
<path d="M145.593 123.605L6.74023 203.779L11.6905 206.639L150.543 126.466L145.593 123.605Z" fill="#242993"/>
<path d="M137.339 118.843L-1.51367 199.016L3.43659 201.877L142.289 121.703L137.339 118.843Z" fill="#242993"/>
<path d="M129.073 114.079L-9.78027 194.241L-4.81832 197.101L134.035 116.94L129.073 114.079Z" fill="#242993"/>
</g>
</g>
<path opacity="0.42" d="M124.885 229.181L87.665 206.275L171.341 157.963L210.826 184.512L124.885 229.181Z" fill="url(#paint11_radial_0_1)"/>
<path opacity="0.42" d="M87.6655 206.274L79.1426 152.429L157.67 107.386V165.75L87.6655 206.274Z" fill="url(#paint12_radial_0_1)"/>
<path opacity="0.5" d="M81.5477 85.8333L90.4442 80.778L90.1407 78.8516L81.2559 83.9069L81.5477 85.8333Z" fill="#42FFFF"/>
<path opacity="0.5" d="M76.994 88.4255L80.193 86.6041L79.8895 84.6777L76.6904 86.4991L76.994 88.4255Z" fill="#42FFFF"/>
<path opacity="0.5" d="M73.4569 90.4335L75.6285 89.196L75.3366 87.2812L73.1533 88.5188L73.4569 90.4335Z" fill="#42FFFF"/>
<path opacity="0.5" d="M86.2869 87.923L91.1322 85.1676L90.8286 83.2412L85.9834 86.0082L86.2869 87.923Z" fill="#42FFFF"/>
<path opacity="0.5" d="M78.9901 92.0798L84.9327 88.7057L84.6292 86.7793L78.6865 90.1534L78.9901 92.0798Z" fill="#42FFFF"/>
<path opacity="0.5" d="M75.452 94.0878L77.6353 92.8502L77.3318 90.9238L75.1602 92.1614L75.452 94.0878Z" fill="#42FFFF"/>
<path opacity="0.5" d="M72.0906 96.0019L74.2739 94.7643L73.9704 92.8379L71.7871 94.0755L72.0906 96.0019Z" fill="#42FFFF"/>
<path d="M88.3182 91.5654L91.8324 89.569L91.5289 87.6426L88.0146 89.639L88.3182 91.5654Z" fill="#42FFFF"/>
<path d="M85.7616 93.0137L86.9641 92.3366L86.6605 90.4102L85.458 91.0873L85.7616 93.0137Z" fill="#42FFFF"/>
<path opacity="0.5" d="M82.2235 95.0224L84.4068 93.7848L84.1032 91.8584L81.9316 93.096L82.2235 95.0224Z" fill="#42FFFF"/>
<path opacity="0.5" d="M79.574 101.327L92.5218 93.9596L92.2183 92.0332L79.2705 99.4002L79.574 101.327Z" fill="#42FFFF"/>
<path opacity="0.5" d="M75.0097 103.919L78.2203 102.097L77.9168 100.171L74.7178 101.992L75.0097 103.919Z" fill="#42FFFF"/>
<path opacity="0.5" d="M89.6962 100.346L93.2104 98.361L92.9068 96.4346L89.4043 98.431L89.6962 100.346Z" fill="#42FFFF"/>
<path opacity="0.5" d="M81.4774 105.027L88.3424 101.128L88.0388 99.2012L81.1738 103.101L81.4774 105.027Z" fill="#42FFFF"/>
<path opacity="0.5" d="M77.9403 107.035L80.1119 105.798L79.8083 103.883L77.6367 105.12L77.9403 107.035Z" fill="#42FFFF"/>
<path opacity="0.5" d="M86.7186 106.825L93.8989 102.751L93.5953 100.824L86.4268 104.911L86.7186 106.825Z" fill="#42FFFF"/>
<path d="M80.1815 110.549L85.3653 107.607L85.0617 105.681L79.8779 108.634L80.1815 110.549Z" fill="#42FFFF"/>
<path opacity="0.5" d="M75.3133 113.317L78.8159 111.333L78.5123 109.406L75.0098 111.403L75.3133 113.317Z" fill="#42FFFF"/>
<path opacity="0.5" d="M92.1698 108.519L94.5865 107.141L94.283 105.227L91.8662 106.604L92.1698 108.519Z" fill="#42FFFF"/>
<path opacity="0.5" d="M87.6063 111.123L90.8053 109.301L90.5018 107.375L87.3027 109.196L87.6063 111.123Z" fill="#42FFFF"/>
<path opacity="0.5" d="M81.0917 114.824L86.2404 111.893L85.9485 109.967L80.7881 112.897L81.0917 114.824Z" fill="#42FFFF"/>
<path opacity="0.5" d="M87.8505 115.756L95.2759 111.542L94.9723 109.615L87.5586 113.842L87.8505 115.756Z" fill="#42FFFF"/>
<path opacity="0.5" d="M79.5389 120.486L86.4974 116.54L86.1938 114.613L79.2471 118.571L79.5389 120.486Z" fill="#42FFFF"/>
<path d="M76.0126 122.506L78.1841 121.268L77.8806 119.342L75.709 120.579L76.0126 122.506Z" fill="#42FFFF"/>
<path opacity="0.5" d="M72.6151 124.431L74.7867 123.193L74.4948 121.267L72.3115 122.504L72.6151 124.431Z" fill="#42FFFF"/>
<path opacity="0.5" d="M91.5175 118.466L95.9657 115.932L95.6621 114.018L91.2256 116.539L91.5175 118.466Z" fill="#42FFFF"/>
<path d="M67.3958 93.8767L61.2313 97.3909L60.9277 95.4645L67.0922 91.9619L67.3958 93.8767Z" fill="#42FFFF"/>
<path opacity="0.5" d="M66.7669 99.027L61.9217 101.782L61.6182 99.8559L66.4634 97.1006L66.7669 99.027Z" fill="#42FFFF"/>
<path opacity="0.5" d="M66.1245 104.186L62.6102 106.183L62.3184 104.256L65.8209 102.26L66.1245 104.186Z" fill="#42FFFF"/>
<path opacity="0.5" d="M68.4008 107.678L63.3104 110.574L63.0068 108.647L68.1089 105.752L68.4008 107.678Z" fill="#42FFFF"/>
<path opacity="0.5" d="M67.5004 112.978L63.9979 114.975L63.6943 113.048L67.1969 111.052L67.5004 112.978Z" fill="#42FFFF"/>
<path opacity="0.5" d="M69.1365 116.832L64.6883 119.365L64.3848 117.439L68.833 114.917L69.1365 116.832Z" fill="#42FFFF"/>
<path opacity="0.5" d="M67.7935 122.377L65.3768 123.754L65.0732 121.84L67.5017 120.462L67.7935 122.377Z" fill="#42FFFF"/>
<path opacity="0.5" d="M70.7597 125.482L66.0663 128.156L65.7627 126.229L70.4561 123.556L70.7597 125.482Z" fill="#42FFFF"/>
<path opacity="0.5" d="M71.203 130.024L66.7547 132.546L66.4512 130.619L70.8994 128.098L71.203 130.024Z" fill="#42FFFF"/>
<path opacity="0.5" d="M88.2704 120.31L90.1617 119.236L89.8582 117.31L87.9668 118.384L88.2704 120.31Z" fill="#42FFFF"/>
<path opacity="0.5" d="M82.6571 123.509L86.9185 121.081L86.6149 119.166L82.3535 121.583L82.6571 123.509Z" fill="#42FFFF"/>
<path opacity="0.5" d="M47.0477 105.377L55.9442 100.31L55.6406 98.3955L46.7441 103.451L47.0477 105.377Z" fill="#42FFFF"/>
<path opacity="0.5" d="M42.493 107.969L45.692 106.148L45.3884 104.222L42.1895 106.043L42.493 107.969Z" fill="#42FFFF"/>
<path d="M38.9549 109.978L41.1265 108.741L40.8229 106.814L38.6514 108.052L38.9549 109.978Z" fill="#42FFFF"/>
<path opacity="0.5" d="M51.787 107.469L56.6322 104.714L56.3286 102.787L51.4834 105.542L51.787 107.469Z" fill="#42FFFF"/>
<path opacity="0.5" d="M44.4901 111.613L50.4328 108.239L50.1292 106.312L44.1865 109.698L44.4901 111.613Z" fill="#42FFFF"/>
<path d="M40.952 113.632L43.1353 112.394L42.8317 110.468L40.6484 111.705L40.952 113.632Z" fill="#42FFFF"/>
<path opacity="0.5" d="M37.5897 115.535L39.773 114.298L39.4694 112.383L37.2861 113.62L37.5897 115.535Z" fill="#42FFFF"/>
<path opacity="0.5" d="M53.8182 111.098L57.3207 109.101L57.0289 107.175L53.5146 109.171L53.8182 111.098Z" fill="#42FFFF"/>
<path opacity="0.5" d="M51.2615 112.559L52.4641 111.87L52.1605 109.943L50.958 110.632L51.2615 112.559Z" fill="#42FFFF"/>
<path opacity="0.5" d="M47.7235 114.566L49.9067 113.329L49.6032 111.402L47.4199 112.64L47.7235 114.566Z" fill="#42FFFF"/>
<path opacity="0.5" d="M45.0731 120.858L58.0209 113.503L57.7173 111.576L44.7695 118.932L45.0731 120.858Z" fill="#42FFFF"/>
<path opacity="0.5" d="M40.5086 123.451L43.7193 121.63L43.4158 119.703L40.2051 121.524L40.5086 123.451Z" fill="#42FFFF"/>
<path opacity="0.5" d="M55.1961 119.891L58.7103 117.894L58.4068 115.968L54.8926 117.964L55.1961 119.891Z" fill="#42FFFF"/>
<path opacity="0.5" d="M46.9774 124.571L53.8424 120.66L53.5388 118.733L46.6738 122.645L46.9774 124.571Z" fill="#42FFFF"/>
<path opacity="0.5" d="M43.4393 126.581L45.6109 125.343L45.3073 123.417L43.1357 124.655L43.4393 126.581Z" fill="#42FFFF"/>
<path d="M52.2196 126.369L59.3998 122.295L59.0963 120.368L51.916 124.443L52.2196 126.369Z" fill="#42FFFF"/>
<path opacity="0.5" d="M45.6815 130.094L50.8652 127.14L50.5617 125.214L45.3779 128.168L45.6815 130.094Z" fill="#42FFFF"/>
<path opacity="0.5" d="M40.8133 132.861L44.3159 130.865L44.0123 128.938L40.5098 130.935L40.8133 132.861Z" fill="#42FFFF"/>
<path opacity="0.5" d="M57.66 128.062L60.0885 126.684L59.7849 124.758L57.3682 126.135L57.66 128.062Z" fill="#42FFFF"/>
<path opacity="0.5" d="M53.1063 130.654L56.3053 128.833L56.0017 126.906L52.8027 128.728L53.1063 130.654Z" fill="#42FFFF"/>
<path d="M46.58 134.368L51.7404 131.425L51.4368 129.511L46.2881 132.441L46.58 134.368Z" fill="#42FFFF"/>
<path opacity="0.5" d="M53.3504 135.301L60.7759 131.075L60.4723 129.16L53.0469 133.375L53.3504 135.301Z" fill="#42FFFF"/>
<path opacity="0.5" d="M45.0399 140.029L51.9983 136.071L51.6947 134.145L44.7363 138.102L45.0399 140.029Z" fill="#42FFFF"/>
<path opacity="0.5" d="M41.5126 142.038L43.6841 140.8L43.3806 138.874L41.209 140.112L41.5126 142.038Z" fill="#42FFFF"/>
<path opacity="0.5" d="M38.1151 143.964L40.2867 142.726L39.9831 140.812L37.8115 142.049L38.1151 143.964Z" fill="#42FFFF"/>
<path opacity="0.5" d="M57.0184 137.998L61.4666 135.476L61.1631 133.55L56.7148 136.083L57.0184 137.998Z" fill="#42FFFF"/>
<path d="M32.8958 113.423L26.7313 116.926L26.4277 115.011L32.5922 111.497L32.8958 113.423Z" fill="#42FFFF"/>
<path opacity="0.5" d="M32.2669 118.57L27.4217 121.325L27.1182 119.399L31.9634 116.644L32.2669 118.57Z" fill="#42FFFF"/>
<path opacity="0.5" d="M31.6244 123.718L28.1102 125.715L27.8066 123.789L31.3209 121.804L31.6244 123.718Z" fill="#42FFFF"/>
<path opacity="0.5" d="M33.9008 127.211L28.7987 130.118L28.5068 128.191L33.5972 125.284L33.9008 127.211Z" fill="#42FFFF"/>
<path opacity="0.5" d="M33.0024 132.51L29.4999 134.507L29.1963 132.58L32.6988 130.584L33.0024 132.51Z" fill="#42FFFF"/>
<path opacity="0.5" d="M34.6366 136.375L30.1883 138.908L29.8848 136.982L34.333 134.448L34.6366 136.375Z" fill="#42FFFF"/>
<path opacity="0.5" d="M33.2926 141.922L30.8758 143.299L30.5723 141.373L32.989 139.995L33.2926 141.922Z" fill="#42FFFF"/>
<path opacity="0.5" d="M36.2587 145.026L31.5653 147.688L31.2617 145.773L35.9552 143.1L36.2587 145.026Z" fill="#42FFFF"/>
<path opacity="0.5" d="M36.702 149.556L32.2537 152.09L31.9502 150.163L36.3984 147.63L36.702 149.556Z" fill="#42FFFF"/>
<path d="M53.7713 139.855L55.6627 138.781L55.3591 136.854L53.4678 137.929L53.7713 139.855Z" fill="#42FFFF"/>
<path opacity="0.5" d="M48.1561 143.041L52.4175 140.625L52.114 138.698L47.8525 141.127L48.1561 143.041Z" fill="#42FFFF"/>
<path opacity="0.5" d="M87.7694 125.411L96.6659 120.356L96.3623 118.43L87.4658 123.485L87.7694 125.411Z" fill="#42FFFF"/>
<path opacity="0.5" d="M83.204 128.004L86.4146 126.182L86.1111 124.268L82.9004 126.089L83.204 128.004Z" fill="#42FFFF"/>
<path opacity="0.5" d="M79.6795 130.023L81.8511 128.786L81.5475 126.859L79.376 128.097L79.6795 130.023Z" fill="#42FFFF"/>
<path opacity="0.5" d="M92.5106 127.502L97.3558 124.747L97.0522 122.832L92.207 125.587L92.5106 127.502Z" fill="#42FFFF"/>
<path opacity="0.5" d="M85.2147 131.658L91.1457 128.284L90.8538 126.357L84.9111 129.732L85.2147 131.658Z" fill="#42FFFF"/>
<path opacity="0.5" d="M81.6756 133.668L83.8472 132.43L83.5553 130.504L81.3721 131.741L81.6756 133.668Z" fill="#42FFFF"/>
<path opacity="0.5" d="M78.3143 135.582L80.4859 134.344L80.1823 132.418L78.0107 133.656L78.3143 135.582Z" fill="#42FFFF"/>
<path opacity="0.5" d="M94.5409 131.146L98.0434 129.149L97.7399 127.223L94.2373 129.219L94.5409 131.146Z" fill="#42FFFF"/>
<path opacity="0.5" d="M91.9862 132.593L93.1771 131.916L92.8735 129.989L91.6826 130.666L91.9862 132.593Z" fill="#42FFFF"/>
<path opacity="0.5" d="M88.4471 134.601L90.6187 133.363L90.3152 131.448L88.1436 132.686L88.4471 134.601Z" fill="#42FFFF"/>
<path opacity="0.5" d="M85.7977 140.905L98.7338 133.538L98.4303 131.611L85.4941 138.978L85.7977 140.905Z" fill="#42FFFF"/>
<path opacity="0.5" d="M81.2323 143.498L84.4313 141.676L84.1277 139.75L80.9287 141.571L81.2323 143.498Z" fill="#42FFFF"/>
<path opacity="0.5" d="M95.9197 139.925L99.4223 137.94L99.1188 136.014L95.6162 138.01L95.9197 139.925Z" fill="#42FFFF"/>
<path opacity="0.5" d="M87.6883 144.606L94.565 140.707L94.2615 138.78L87.3848 142.691L87.6883 144.606Z" fill="#42FFFF"/>
<path opacity="0.5" d="M84.1503 146.626L86.3335 145.388L86.03 143.462L83.8584 144.699L84.1503 146.626Z" fill="#42FFFF"/>
<path opacity="0.5" d="M92.9413 146.416L100.11 142.33L99.8179 140.403L92.6377 144.49L92.9413 146.416Z" fill="#42FFFF"/>
<path opacity="0.5" d="M86.3934 150.141L91.5888 147.187L91.2853 145.261L86.0898 148.215L86.3934 150.141Z" fill="#42FFFF"/>
<path opacity="0.5" d="M81.536 152.895L85.0385 150.91L84.735 148.983L81.2324 150.98L81.536 152.895Z" fill="#42FFFF"/>
<path opacity="0.5" d="M98.3827 148.109L100.811 146.731L100.508 144.805L98.0791 146.182L98.3827 148.109Z" fill="#42FFFF"/>
<path opacity="0.5" d="M93.8163 150.701L97.027 148.88L96.7234 146.953L93.5244 148.774L93.8163 150.701Z" fill="#42FFFF"/>
<path opacity="0.5" d="M87.3016 154.402L92.462 151.471L92.1585 149.545L86.998 152.487L87.3016 154.402Z" fill="#42FFFF"/>
<path opacity="0.5" d="M94.0741 155.348L101.499 151.122L101.196 149.195L93.7705 153.422L94.0741 155.348Z" fill="#42FFFF"/>
<path opacity="0.5" d="M85.7616 160.076L92.72 156.118L92.4164 154.191L85.458 158.149L85.7616 160.076Z" fill="#42FFFF"/>
<path opacity="0.5" d="M82.2245 162.085L84.4077 160.847L84.1042 158.921L81.9209 160.158L82.2245 162.085Z" fill="#42FFFF"/>
<path opacity="0.5" d="M78.8377 164.012L81.0093 162.774L80.7057 160.848L78.5342 162.085L78.8377 164.012Z" fill="#42FFFF"/>
<path opacity="0.5" d="M97.741 158.045L102.189 155.511L101.886 153.597L97.4375 156.119L97.741 158.045Z" fill="#42FFFF"/>
<path opacity="0.5" d="M73.6184 133.468L67.4539 136.971L67.1504 135.045L73.3149 131.542L73.6184 133.468Z" fill="#42FFFF"/>
<path opacity="0.5" d="M72.9896 138.604L68.1444 141.359L67.8408 139.445L72.686 136.678L72.9896 138.604Z" fill="#42FFFF"/>
<path opacity="0.5" d="M72.3354 143.766L68.8329 145.763L68.5293 143.836L72.0318 141.84L72.3354 143.766Z" fill="#42FFFF"/>
<path opacity="0.5" d="M74.6244 147.256L69.5223 150.152L69.2188 148.226L74.3208 145.33L74.6244 147.256Z" fill="#42FFFF"/>
<path opacity="0.5" d="M73.725 152.557L70.2108 154.554L69.9072 152.627L73.4215 150.631L73.725 152.557Z" fill="#42FFFF"/>
<path opacity="0.5" d="M75.3475 156.411L70.8993 158.944L70.5957 157.018L75.0439 154.496L75.3475 156.411Z" fill="#42FFFF"/>
<path opacity="0.5" d="M74.0162 161.956L71.5995 163.345L71.2959 161.419L73.7127 160.041L74.0162 161.956Z" fill="#42FFFF"/>
<path opacity="0.5" d="M76.9823 165.061L72.2889 167.735L71.9854 165.808L76.6788 163.135L76.9823 165.061Z" fill="#42FFFF"/>
<path opacity="0.5" d="M77.4256 169.602L72.9774 172.124L72.6738 170.209L77.1221 167.676L77.4256 169.602Z" fill="#42FFFF"/>
<path opacity="0.5" d="M94.4949 159.889L96.3863 158.815L96.0828 156.889L94.1914 157.974L94.4949 159.889Z" fill="#42FFFF"/>
<path opacity="0.5" d="M88.8787 163.088L93.1285 160.672L92.8249 158.745L88.5752 161.162L88.8787 163.088Z" fill="#42FFFF"/>
<path opacity="0.5" d="M87.3622 177.868L94.5424 173.782L94.2388 171.855L87.0586 175.942L87.3622 177.868Z" fill="#42FFFF"/>
<path opacity="0.5" d="M82.4461 180.67L85.2715 179.059L84.968 177.133L82.1426 178.744L82.4461 180.67Z" fill="#42FFFF"/>
<path opacity="0.5" d="M53.2703 144.956L62.1668 139.889L61.8633 137.975L52.9668 143.03L53.2703 144.956Z" fill="#42FFFF"/>
<path opacity="0.5" d="M48.7039 147.548L51.9146 145.726L51.6111 143.8L48.4004 145.621L48.7039 147.548Z" fill="#42FFFF"/>
<path opacity="0.5" d="M45.1669 149.557L47.3502 148.319L47.0466 146.393L44.875 147.63L45.1669 149.557Z" fill="#42FFFF"/>
<path opacity="0.5" d="M58.0096 147.046L62.8548 144.291L62.5512 142.364L57.7061 145.12L58.0096 147.046Z" fill="#42FFFF"/>
<path opacity="0.5" d="M50.7127 151.191L56.6437 147.817L56.3402 145.891L50.4092 149.276L50.7127 151.191Z" fill="#42FFFF"/>
<path opacity="0.5" d="M47.1766 153.21L49.3482 151.972L49.0446 150.046L46.873 151.283L47.1766 153.21Z" fill="#42FFFF"/>
<path opacity="0.5" d="M43.8123 155.113L45.9839 153.876L45.6804 151.961L43.5088 153.199L43.8123 155.113Z" fill="#42FFFF"/>
<path opacity="0.5" d="M60.0409 150.678L63.5434 148.681L63.2399 146.767L59.7373 148.751L60.0409 150.678Z" fill="#42FFFF"/>
<path opacity="0.5" d="M57.4852 152.137L58.6761 151.448L58.3725 149.533L57.1816 150.21L57.4852 152.137Z" fill="#42FFFF"/>
<path opacity="0.5" d="M53.9471 154.144L56.1187 152.907L55.8152 150.98L53.6436 152.218L53.9471 154.144Z" fill="#42FFFF"/>
<path opacity="0.5" d="M51.2957 160.438L64.2318 153.083L63.9283 151.156L50.9922 158.512L51.2957 160.438Z" fill="#42FFFF"/>
<path opacity="0.5" d="M46.7303 163.029L49.9293 161.208L49.6257 159.293L46.4268 161.114L46.7303 163.029Z" fill="#42FFFF"/>
<path opacity="0.5" d="M61.4178 159.469L64.9204 157.472L64.6168 155.546L61.1143 157.542L61.4178 159.469Z" fill="#42FFFF"/>
<path opacity="0.5" d="M53.1883 164.15L60.065 160.239L59.7614 158.312L52.8848 162.224L53.1883 164.15Z" fill="#42FFFF"/>
<path opacity="0.5" d="M49.6502 166.158L51.8335 164.921L51.5299 162.994L49.3467 164.232L49.6502 166.158Z" fill="#42FFFF"/>
<path opacity="0.5" d="M58.4413 165.949L65.6098 161.875L65.3062 159.948L58.1377 164.023L58.4413 165.949Z" fill="#42FFFF"/>
<path opacity="0.5" d="M51.8915 169.673L57.0752 166.719L56.7834 164.805L51.5879 167.747L51.8915 169.673Z" fill="#42FFFF"/>
<path opacity="0.5" d="M47.0233 172.44L50.5376 170.444L50.234 168.518L46.7314 170.514L47.0233 172.44Z" fill="#42FFFF"/>
<path opacity="0.5" d="M63.8836 167.641L66.3121 166.263L66.0085 164.337L63.5801 165.715L63.8836 167.641Z" fill="#42FFFF"/>
<path opacity="0.5" d="M59.3172 170.232L62.5279 168.411L62.2243 166.496L59.0137 168.317L59.3172 170.232Z" fill="#42FFFF"/>
<path opacity="0.5" d="M52.8026 173.947L57.963 171.016L57.6595 169.09L52.499 172.02L52.8026 173.947Z" fill="#42FFFF"/>
<path opacity="0.5" d="M59.574 174.879L66.9995 170.665L66.6959 168.738L59.2705 172.953L59.574 174.879Z" fill="#42FFFF"/>
<path opacity="0.5" d="M51.2615 179.609L58.22 175.651L57.9164 173.725L50.958 177.682L51.2615 179.609Z" fill="#42FFFF"/>
<path opacity="0.5" d="M47.7235 181.616L49.8951 180.379L49.6032 178.452L47.4199 179.69L47.7235 181.616Z" fill="#42FFFF"/>
<path opacity="0.5" d="M44.3387 183.543L46.5103 182.305L46.2068 180.391L44.0352 181.628L44.3387 183.543Z" fill="#42FFFF"/>
<path opacity="0.5" d="M63.2401 177.59L67.6883 175.056L67.3848 173.13L62.9365 175.663L63.2401 177.59Z" fill="#42FFFF"/>
<path opacity="0.5" d="M39.1184 153.001L32.954 156.503L32.6504 154.588L38.8149 151.074L39.1184 153.001Z" fill="#42FFFF"/>
<path opacity="0.5" d="M38.4876 158.149L33.6424 160.904L33.3389 158.978L38.1841 156.223L38.4876 158.149Z" fill="#42FFFF"/>
<path opacity="0.5" d="M37.8354 163.309L34.3328 165.294L34.0293 163.379L37.5318 161.383L37.8354 163.309Z" fill="#42FFFF"/>
<path opacity="0.5" d="M40.1244 166.79L35.0223 169.697L34.7188 167.77L39.8208 164.875L40.1244 166.79Z" fill="#42FFFF"/>
<path opacity="0.5" d="M39.2143 172.09L35.7118 174.086L35.4082 172.16L38.9224 170.175L39.2143 172.09Z" fill="#42FFFF"/>
<path opacity="0.5" d="M40.8475 175.953L36.3993 178.486L36.0957 176.56L40.5439 174.026L40.8475 175.953Z" fill="#42FFFF"/>
<path opacity="0.5" d="M39.5162 181.5L37.0878 182.877L36.7959 180.951L39.2127 179.573L39.5162 181.5Z" fill="#42FFFF"/>
<path opacity="0.5" d="M42.4823 184.605L37.7889 187.267L37.4854 185.352L42.1788 182.679L42.4823 184.605Z" fill="#42FFFF"/>
<path opacity="0.5" d="M42.9256 189.135L38.4774 191.669L38.1738 189.743L42.6221 187.221L42.9256 189.135Z" fill="#42FFFF"/>
<path opacity="0.5" d="M59.995 179.433L61.8747 178.359L61.5828 176.433L59.6914 177.507L59.995 179.433Z" fill="#42FFFF"/>
<path opacity="0.5" d="M54.3797 182.621L58.6295 180.204L58.326 178.277L54.0762 180.706L54.3797 182.621Z" fill="#42FFFF"/>
<path opacity="0.5" d="M52.8602 197.412L60.0404 193.326L59.7369 191.399L52.5566 195.486L52.8602 197.412Z" fill="#42FFFF"/>
<path opacity="0.5" d="M47.9335 200.204L50.7705 198.604L50.467 196.678L47.6416 198.289L47.9335 200.204Z" fill="#42FFFF"/>
<path opacity="0.5" d="M164.464 38.2581L173.36 33.2028L173.057 31.2764L164.172 36.3434L164.464 38.2581Z" fill="#42FFFF"/>
<path opacity="0.5" d="M159.911 40.861L163.11 39.0397L162.806 37.1133L159.607 38.9346L159.911 40.861Z" fill="#42FFFF"/>
<path opacity="0.5" d="M156.374 42.8691L158.545 41.6315L158.254 39.7051L156.07 40.9426L156.374 42.8691Z" fill="#42FFFF"/>
<path opacity="0.5" d="M169.204 40.3585L174.049 37.6032L173.757 35.6768L168.9 38.4321L169.204 40.3585Z" fill="#42FFFF"/>
<path opacity="0.5" d="M161.908 44.5027L167.851 41.1286L167.547 39.2021L161.604 42.5763L161.908 44.5027Z" fill="#42FFFF"/>
<path opacity="0.5" d="M158.382 46.5117L160.553 45.2741L160.25 43.3594L158.078 44.5969L158.382 46.5117Z" fill="#42FFFF"/>
<path opacity="0.5" d="M155.008 48.4267L157.191 47.1891L156.887 45.2627L154.716 46.5003L155.008 48.4267Z" fill="#42FFFF"/>
<path d="M171.235 43.9902L174.749 41.9938L174.446 40.0674L170.932 42.0638L171.235 43.9902Z" fill="#42FFFF"/>
<path d="M168.679 45.4366L169.881 44.7594L169.578 42.833L168.375 43.5218L168.679 45.4366Z" fill="#42FFFF"/>
<path opacity="0.5" d="M165.142 47.4569L167.326 46.2194L167.022 44.293L164.851 45.5305L165.142 47.4569Z" fill="#42FFFF"/>
<path opacity="0.5" d="M162.491 53.7505L175.439 46.3951L175.135 44.4688L162.188 51.8241L162.491 53.7505Z" fill="#42FFFF"/>
<path opacity="0.5" d="M157.936 56.3425L161.135 54.5211L160.832 52.5947L157.633 54.4161L157.936 56.3425Z" fill="#42FFFF"/>
<path opacity="0.5" d="M172.624 52.7803L176.126 50.7838L175.823 48.8574L172.32 50.8539L172.624 52.7803Z" fill="#42FFFF"/>
<path opacity="0.5" d="M164.395 57.4636L171.26 53.5524L170.957 51.626L164.092 55.5372L164.395 57.4636Z" fill="#42FFFF"/>
<path opacity="0.5" d="M160.855 59.4716L163.027 58.234L162.723 56.3076L160.552 57.5452L160.855 59.4716Z" fill="#42FFFF"/>
<path opacity="0.5" d="M169.637 59.2608L176.817 55.1745L176.513 53.2598L169.345 57.3344L169.637 59.2608Z" fill="#42FFFF"/>
<path d="M163.098 62.9847L168.282 60.0309L167.979 58.1045L162.795 61.0583L163.098 62.9847Z" fill="#42FFFF"/>
<path opacity="0.5" d="M158.229 65.752L161.732 63.7555L161.428 61.8291L157.926 63.8256L158.229 65.752Z" fill="#42FFFF"/>
<path opacity="0.5" d="M175.089 60.9535L177.505 59.5758L177.202 57.6494L174.785 59.0271L175.089 60.9535Z" fill="#42FFFF"/>
<path opacity="0.5" d="M170.523 63.5456L173.722 61.7243L173.419 59.7979L170.22 61.6192L170.523 63.5456Z" fill="#42FFFF"/>
<path opacity="0.5" d="M164.01 67.2582L169.17 64.3161L168.866 62.3896L163.706 65.3318L164.01 67.2582Z" fill="#42FFFF"/>
<path opacity="0.5" d="M170.768 68.1909L178.194 63.9645L177.89 62.0498L170.477 66.2645L170.768 68.1909Z" fill="#42FFFF"/>
<path opacity="0.5" d="M162.457 72.9214L169.415 68.9635L169.112 67.0371L162.165 70.995L162.457 72.9214Z" fill="#42FFFF"/>
<path d="M158.93 74.9296L161.102 73.692L160.799 71.7656L158.627 73.0032L158.93 74.9296Z" fill="#42FFFF"/>
<path opacity="0.5" d="M155.533 76.8554L157.716 75.6178L157.413 73.6914L155.229 74.929L155.533 76.8554Z" fill="#42FFFF"/>
<path opacity="0.5" d="M174.435 70.8896L178.884 68.3678L178.58 66.4414L174.144 68.9749L174.435 70.8896Z" fill="#42FFFF"/>
<path d="M150.314 46.3131L144.149 49.8157L143.846 47.8893L150.022 44.3867L150.314 46.3131Z" fill="#42FFFF"/>
<path opacity="0.5" d="M149.684 51.4625L144.839 54.2179L144.535 52.2915L149.392 49.5361L149.684 51.4625Z" fill="#42FFFF"/>
<path opacity="0.5" d="M149.041 56.611L145.527 58.6074L145.235 56.681L148.738 54.6846L149.041 56.611Z" fill="#42FFFF"/>
<path opacity="0.5" d="M151.318 60.1012L146.227 62.9966L145.924 61.0819L151.026 58.1748L151.318 60.1012Z" fill="#42FFFF"/>
<path opacity="0.5" d="M150.419 65.402L146.917 67.3984L146.613 65.472L150.116 63.4756L150.419 65.402Z" fill="#42FFFF"/>
<path opacity="0.5" d="M152.054 69.2672L147.605 71.7891L147.302 69.8743L151.75 67.3408L152.054 69.2672Z" fill="#42FFFF"/>
<path opacity="0.5" d="M150.722 74.8121L148.294 76.1898L147.99 74.2634L150.419 72.8857L150.722 74.8121Z" fill="#42FFFF"/>
<path opacity="0.5" d="M153.675 77.9176L148.981 80.5795L148.678 78.6531L153.371 75.9912L153.675 77.9176Z" fill="#42FFFF"/>
<path opacity="0.5" d="M154.118 82.4479L149.67 84.9814L149.366 83.055L153.814 80.5215L154.118 82.4479Z" fill="#42FFFF"/>
<path opacity="0.5" d="M171.19 72.7466L173.082 71.6725L172.778 69.7461L170.887 70.8202L171.19 72.7466Z" fill="#42FFFF"/>
<path opacity="0.5" d="M165.573 75.933L169.834 73.5162L169.531 71.5898L165.27 74.0066L165.573 75.933Z" fill="#42FFFF"/>
<path opacity="0.5" d="M129.964 57.8011L138.86 52.7457L138.557 50.8193L129.66 55.8747L129.964 57.8011Z" fill="#42FFFF"/>
<path opacity="0.5" d="M125.411 60.3923L128.61 58.5709L128.306 56.6445L125.107 58.4659L125.411 60.3923Z" fill="#42FFFF"/>
<path d="M121.873 62.4023L124.044 61.1647L123.741 59.25L121.569 60.4876L121.873 62.4023Z" fill="#42FFFF"/>
<path opacity="0.5" d="M134.704 59.8917L139.549 57.1364L139.246 55.21L134.4 57.9653L134.704 59.8917Z" fill="#42FFFF"/>
<path opacity="0.5" d="M127.407 64.0476L133.35 60.6618L133.046 58.7471L127.104 62.1212L127.407 64.0476Z" fill="#42FFFF"/>
<path d="M123.868 66.0556L126.051 64.818L125.748 62.8916L123.576 64.1292L123.868 66.0556Z" fill="#42FFFF"/>
<path opacity="0.5" d="M120.507 67.9716L122.69 66.734L122.386 64.8076L120.203 66.0452L120.507 67.9716Z" fill="#42FFFF"/>
<path opacity="0.5" d="M136.735 63.5225L140.238 61.5377L139.946 59.6113L136.432 61.6078L136.735 63.5225Z" fill="#42FFFF"/>
<path opacity="0.5" d="M134.179 64.9815L135.381 64.3043L135.078 62.3779L133.875 63.0551L134.179 64.9815Z" fill="#42FFFF"/>
<path opacity="0.5" d="M130.641 66.9892L132.825 65.7516L132.521 63.8252L130.338 65.0628L130.641 66.9892Z" fill="#42FFFF"/>
<path opacity="0.5" d="M127.991 73.2827L140.939 65.9274L140.635 64.001L127.688 71.368L127.991 73.2827Z" fill="#42FFFF"/>
<path opacity="0.5" d="M123.427 75.8864L126.637 74.0651L126.334 72.1387L123.135 73.96L123.427 75.8864Z" fill="#42FFFF"/>
<path opacity="0.5" d="M138.112 72.3145L141.626 70.3297L141.323 68.4033L137.809 70.3998L138.112 72.3145Z" fill="#42FFFF"/>
<path opacity="0.5" d="M129.893 76.9958L136.758 73.0963L136.455 71.1699L129.59 75.0694L129.893 76.9958Z" fill="#42FFFF"/>
<path opacity="0.5" d="M126.356 79.0039L128.528 77.7663L128.224 75.8516L126.053 77.0891L126.356 79.0039Z" fill="#42FFFF"/>
<path d="M135.137 78.794L142.317 74.7194L142.013 72.793L134.833 76.8793L135.137 78.794Z" fill="#42FFFF"/>
<path opacity="0.5" d="M128.598 82.518L133.781 79.5758L133.478 77.6494L128.294 80.6032L128.598 82.518Z" fill="#42FFFF"/>
<path opacity="0.5" d="M123.728 85.2852L127.231 83.3004L126.927 81.374L123.425 83.3705L123.728 85.2852Z" fill="#42FFFF"/>
<path opacity="0.5" d="M140.577 80.4858L143.005 79.1081L142.702 77.1934L140.285 78.571L140.577 80.4858Z" fill="#42FFFF"/>
<path opacity="0.5" d="M136.024 83.0905L139.223 81.2692L138.92 79.3428L135.721 81.1641L136.024 83.0905Z" fill="#42FFFF"/>
<path d="M129.497 86.7914L134.657 83.861L134.366 81.9346L129.205 84.865L129.497 86.7914Z" fill="#42FFFF"/>
<path opacity="0.5" d="M136.269 87.7251L143.695 83.5104L143.391 81.584L135.966 85.8104L136.269 87.7251Z" fill="#42FFFF"/>
<path opacity="0.5" d="M127.956 92.4537L134.914 88.5075L134.611 86.5811L127.652 90.5389L127.956 92.4537Z" fill="#42FFFF"/>
<path opacity="0.5" d="M124.431 94.4735L126.603 93.236L126.3 91.3096L124.128 92.5471L124.431 94.4735Z" fill="#42FFFF"/>
<path opacity="0.5" d="M121.033 96.3993L123.205 95.1618L122.901 93.2354L120.729 94.4729L121.033 96.3993Z" fill="#42FFFF"/>
<path opacity="0.5" d="M139.934 90.4345L144.383 87.901L144.079 85.9746L139.631 88.5081L139.934 90.4345Z" fill="#42FFFF"/>
<path d="M115.815 65.8454L109.65 69.3596L109.347 67.4332L115.511 63.9307L115.815 65.8454Z" fill="#42FFFF"/>
<path opacity="0.5" d="M115.184 70.9948L110.339 73.7501L110.035 71.8237L114.88 69.0684L115.184 70.9948Z" fill="#42FFFF"/>
<path opacity="0.5" d="M114.54 76.1549L111.026 78.1514L110.723 76.225L114.237 74.2285L114.54 76.1549Z" fill="#42FFFF"/>
<path opacity="0.5" d="M116.818 79.6452L111.716 82.5406L111.424 80.6142L116.514 77.7188L116.818 79.6452Z" fill="#42FFFF"/>
<path opacity="0.5" d="M115.918 84.9459L112.416 86.9307L112.112 85.016L115.615 83.0195L115.918 84.9459Z" fill="#42FFFF"/>
<path opacity="0.5" d="M117.553 88.7995L113.104 91.333L112.801 89.4066L117.249 86.8848L117.553 88.7995Z" fill="#42FFFF"/>
<path opacity="0.5" d="M116.211 94.3444L113.794 95.7221L113.49 93.8074L115.919 92.4297L116.211 94.3444Z" fill="#42FFFF"/>
<path opacity="0.5" d="M119.176 97.4489L114.482 100.122L114.179 98.1961L118.872 95.5225L119.176 97.4489Z" fill="#42FFFF"/>
<path opacity="0.5" d="M119.619 101.993L115.171 104.515L114.867 102.588L119.315 100.066L119.619 101.993Z" fill="#42FFFF"/>
<path d="M136.689 92.2788L138.581 91.2047L138.277 89.2783L136.386 90.3524L136.689 92.2788Z" fill="#42FFFF"/>
<path opacity="0.5" d="M131.073 95.4779L135.335 93.0495L135.031 91.1348L130.77 93.5515L131.073 95.4779Z" fill="#42FFFF"/>
<path opacity="0.5" d="M170.686 77.848L179.583 72.7809L179.279 70.8662L170.383 75.9216L170.686 77.848Z" fill="#42FFFF"/>
<path opacity="0.5" d="M166.122 80.4391L169.333 78.6178L169.029 76.6914L165.83 78.5127L166.122 80.4391Z" fill="#42FFFF"/>
<path opacity="0.5" d="M162.597 82.4482L164.768 81.2106L164.465 79.2842L162.293 80.5217L162.597 82.4482Z" fill="#42FFFF"/>
<path opacity="0.5" d="M175.428 79.9376L180.273 77.1823L179.969 75.2559L175.124 78.0112L175.428 79.9376Z" fill="#42FFFF"/>
<path opacity="0.5" d="M168.13 84.0818L174.072 80.7076L173.769 78.7812L167.826 82.167L168.13 84.0818Z" fill="#42FFFF"/>
<path opacity="0.5" d="M164.593 86.1034L166.764 84.8659L166.472 82.9395L164.289 84.177L164.593 86.1034Z" fill="#42FFFF"/>
<path opacity="0.5" d="M161.229 88.0048L163.401 86.7673L163.097 84.8525L160.926 86.0901L161.229 88.0048Z" fill="#42FFFF"/>
<path opacity="0.5" d="M177.458 83.5684L180.96 81.5719L180.657 79.6455L177.154 81.642L177.458 83.5684Z" fill="#42FFFF"/>
<path opacity="0.5" d="M174.902 85.0273L176.093 84.3385L175.801 82.4121L174.599 83.1009L174.902 85.0273Z" fill="#42FFFF"/>
<path opacity="0.5" d="M171.364 87.037L173.536 85.7994L173.232 83.873L171.061 85.1106L171.364 87.037Z" fill="#42FFFF"/>
<path opacity="0.5" d="M168.715 93.3286L181.651 85.9733L181.347 84.0469L168.411 91.4022L168.715 93.3286Z" fill="#42FFFF"/>
<path opacity="0.5" d="M164.149 95.9206L167.348 94.0993L167.045 92.1729L163.846 93.9942L164.149 95.9206Z" fill="#42FFFF"/>
<path opacity="0.5" d="M178.836 92.3604L182.338 90.3639L182.046 88.4375L178.532 90.434L178.836 92.3604Z" fill="#42FFFF"/>
<path opacity="0.5" d="M170.605 97.0417L177.482 93.1305L177.178 91.2041L170.302 95.1153L170.605 97.0417Z" fill="#42FFFF"/>
<path opacity="0.5" d="M167.067 99.0497L169.251 97.8121L168.947 95.8857L166.775 97.1233L167.067 99.0497Z" fill="#42FFFF"/>
<path opacity="0.5" d="M175.858 98.8389L183.038 94.7643L182.735 92.8379L175.555 96.9125L175.858 98.8389Z" fill="#42FFFF"/>
<path opacity="0.5" d="M169.309 102.565L174.505 99.611L174.201 97.6846L169.006 100.638L169.309 102.565Z" fill="#42FFFF"/>
<path opacity="0.5" d="M164.451 105.331L167.954 103.335L167.65 101.408L164.147 103.405L164.451 105.331Z" fill="#42FFFF"/>
<path opacity="0.5" d="M181.3 100.534L183.728 99.1559L183.425 97.2295L180.996 98.6072L181.3 100.534Z" fill="#42FFFF"/>
<path opacity="0.5" d="M176.735 103.125L179.946 101.303L179.642 99.377L176.443 101.198L176.735 103.125Z" fill="#42FFFF"/>
<path opacity="0.5" d="M170.221 106.836L175.381 103.894L175.077 101.979L169.917 104.91L170.221 106.836Z" fill="#42FFFF"/>
<path opacity="0.5" d="M176.99 107.772L184.415 103.546L184.112 101.631L176.687 105.846L176.99 107.772Z" fill="#42FFFF"/>
<path opacity="0.5" d="M168.679 112.5L175.637 108.542L175.333 106.615L168.375 110.573L168.679 112.5Z" fill="#42FFFF"/>
<path opacity="0.5" d="M165.14 114.509L167.324 113.271L167.02 111.345L164.837 112.582L165.14 114.509Z" fill="#42FFFF"/>
<path opacity="0.5" d="M161.756 116.435L163.927 115.197L163.624 113.282L161.452 114.52L161.756 116.435Z" fill="#42FFFF"/>
<path opacity="0.5" d="M180.659 110.468L185.107 107.946L184.804 106.02L180.355 108.553L180.659 110.468Z" fill="#42FFFF"/>
<path opacity="0.5" d="M156.537 85.8932L150.373 89.3958L150.069 87.481L156.234 83.9668L156.537 85.8932Z" fill="#42FFFF"/>
<path opacity="0.5" d="M155.907 91.0407L151.061 93.796L150.758 91.8696L155.603 89.1143L155.907 91.0407Z" fill="#42FFFF"/>
<path opacity="0.5" d="M155.251 96.1901L151.749 98.1866L151.445 96.2602L154.948 94.2754L155.251 96.1901Z" fill="#42FFFF"/>
<path opacity="0.5" d="M157.54 99.6803L152.438 102.587L152.135 100.661L157.237 97.7539L157.54 99.6803Z" fill="#42FFFF"/>
<path opacity="0.5" d="M156.642 104.98L153.128 106.977L152.824 105.05L156.338 103.054L156.642 104.98Z" fill="#42FFFF"/>
<path opacity="0.5" d="M158.265 108.845L153.816 111.367L153.524 109.452L157.961 106.919L158.265 108.845Z" fill="#42FFFF"/>
<path opacity="0.5" d="M156.933 114.39L154.516 115.768L154.213 113.842L156.63 112.464L156.933 114.39Z" fill="#42FFFF"/>
<path opacity="0.5" d="M159.898 117.497L155.205 120.159L154.901 118.244L159.595 115.57L159.898 117.497Z" fill="#42FFFF"/>
<path opacity="0.5" d="M160.344 122.027L155.895 124.56L155.592 122.634L160.04 120.101L160.344 122.027Z" fill="#42FFFF"/>
<path opacity="0.5" d="M177.412 112.325L179.303 111.251L179 109.324L177.108 110.398L177.412 112.325Z" fill="#42FFFF"/>
<path opacity="0.5" d="M171.796 115.512L176.045 113.095L175.742 111.169L171.492 113.597L171.796 115.512Z" fill="#42FFFF"/>
<path opacity="0.5" d="M170.278 130.305L177.458 126.218L177.155 124.292L169.975 128.378L170.278 130.305Z" fill="#42FFFF"/>
<path opacity="0.5" d="M165.364 133.095L168.19 131.484L167.886 129.569L165.061 131.169L165.364 133.095Z" fill="#42FFFF"/>
<path opacity="0.5" d="M136.186 97.3792L145.083 92.3239L144.779 90.3975L135.883 95.4528L136.186 97.3792Z" fill="#42FFFF"/>
<path opacity="0.5" d="M131.623 99.9724L134.834 98.1511L134.53 96.2363L131.319 98.0577L131.623 99.9724Z" fill="#42FFFF"/>
<path opacity="0.5" d="M128.096 101.98L130.268 100.743L129.965 98.8281L127.793 100.066L128.096 101.98Z" fill="#42FFFF"/>
<path opacity="0.5" d="M140.927 99.4699L145.772 96.7145L145.468 94.7998L140.623 97.5551L140.927 99.4699Z" fill="#42FFFF"/>
<path opacity="0.5" d="M133.631 103.627L139.562 100.253L139.27 98.3262L133.327 101.7L133.631 103.627Z" fill="#42FFFF"/>
<path opacity="0.5" d="M130.092 105.635L132.263 104.397L131.96 102.471L129.788 103.708L130.092 105.635Z" fill="#42FFFF"/>
<path opacity="0.5" d="M126.73 107.55L128.902 106.312L128.598 104.386L126.427 105.623L126.73 107.55Z" fill="#42FFFF"/>
<path opacity="0.5" d="M142.959 103.113L146.461 101.117L146.158 99.1904L142.655 101.187L142.959 103.113Z" fill="#42FFFF"/>
<path opacity="0.5" d="M140.402 104.56L141.593 103.882L141.29 101.956L140.099 102.633L140.402 104.56Z" fill="#42FFFF"/>
<path opacity="0.5" d="M136.863 106.569L139.035 105.332L138.731 103.417L136.56 104.655L136.863 106.569Z" fill="#42FFFF"/>
<path opacity="0.5" d="M134.215 112.873L147.151 105.506L146.847 103.579L133.911 110.946L134.215 112.873Z" fill="#42FFFF"/>
<path opacity="0.5" d="M129.65 115.466L132.849 113.644L132.546 111.718L129.347 113.539L129.65 115.466Z" fill="#42FFFF"/>
<path opacity="0.5" d="M144.338 111.893L147.84 109.908L147.537 107.981L144.034 109.978L144.338 111.893Z" fill="#42FFFF"/>
<path opacity="0.5" d="M136.105 116.575L142.982 112.675L142.678 110.749L135.802 114.649L136.105 116.575Z" fill="#42FFFF"/>
<path opacity="0.5" d="M132.567 118.582L134.75 117.344L134.447 115.43L132.264 116.667L132.567 118.582Z" fill="#42FFFF"/>
<path opacity="0.5" d="M141.359 118.385L148.528 114.298L148.236 112.372L141.056 116.458L141.359 118.385Z" fill="#42FFFF"/>
<path opacity="0.5" d="M134.809 122.097L140.005 119.155L139.701 117.229L134.506 120.182L134.809 122.097Z" fill="#42FFFF"/>
<path opacity="0.5" d="M129.94 124.863L133.455 122.879L133.151 120.952L129.648 122.949L129.94 124.863Z" fill="#42FFFF"/>
<path opacity="0.5" d="M146.8 120.076L149.228 118.698L148.925 116.771L146.496 118.149L146.8 120.076Z" fill="#42FFFF"/>
<path opacity="0.5" d="M142.235 122.669L145.446 120.847L145.142 118.921L141.932 120.742L142.235 122.669Z" fill="#42FFFF"/>
<path opacity="0.5" d="M135.721 126.371L140.881 123.44L140.577 121.514L135.417 124.444L135.721 126.371Z" fill="#42FFFF"/>
<path opacity="0.5" d="M142.491 127.304L149.916 123.089L149.613 121.163L142.188 125.389L142.491 127.304Z" fill="#42FFFF"/>
<path opacity="0.5" d="M134.179 132.033L141.137 128.087L140.833 126.16L133.875 130.118L134.179 132.033Z" fill="#42FFFF"/>
<path opacity="0.5" d="M130.641 134.051L132.825 132.813L132.521 130.887L130.338 132.124L130.641 134.051Z" fill="#42FFFF"/>
<path opacity="0.5" d="M127.255 135.978L129.426 134.741L129.123 132.814L126.951 134.052L127.255 135.978Z" fill="#42FFFF"/>
<path opacity="0.5" d="M146.158 130.013L150.606 127.479L150.303 125.564L145.854 128.086L146.158 130.013Z" fill="#42FFFF"/>
<path opacity="0.5" d="M122.037 105.424L115.873 108.939L115.569 107.012L121.734 103.51L122.037 105.424Z" fill="#42FFFF"/>
<path opacity="0.5" d="M121.407 110.573L116.561 113.328L116.258 111.402L121.103 108.646L121.407 110.573Z" fill="#42FFFF"/>
<path opacity="0.5" d="M120.753 115.733L117.251 117.73L116.947 115.803L120.45 113.807L120.753 115.733Z" fill="#42FFFF"/>
<path opacity="0.5" d="M123.04 119.224L117.938 122.12L117.635 120.193L122.737 117.298L123.04 119.224Z" fill="#42FFFF"/>
<path opacity="0.5" d="M122.129 124.526L118.627 126.522L118.323 124.596L121.837 122.6L122.129 124.526Z" fill="#42FFFF"/>
<path opacity="0.5" d="M123.764 128.378L119.315 130.911L119.012 128.985L123.46 126.463L123.764 128.378Z" fill="#42FFFF"/>
<path opacity="0.5" d="M122.433 133.924L120.005 135.301L119.713 133.386L122.13 132.009L122.433 133.924Z" fill="#42FFFF"/>
<path opacity="0.5" d="M125.398 137.029L120.705 139.703L120.401 137.776L125.095 135.103L125.398 137.029Z" fill="#42FFFF"/>
<path opacity="0.5" d="M125.842 141.571L121.393 144.093L121.09 142.178L125.538 139.645L125.842 141.571Z" fill="#42FFFF"/>
<path opacity="0.5" d="M142.912 131.857L144.803 130.783L144.5 128.856L142.608 129.942L142.912 131.857Z" fill="#42FFFF"/>
<path opacity="0.5" d="M137.295 135.056L141.545 132.628L141.241 130.713L136.991 133.13L137.295 135.056Z" fill="#42FFFF"/>
<path opacity="0.5" d="M135.778 149.836L142.958 145.75L142.655 143.823L135.475 147.91L135.778 149.836Z" fill="#42FFFF"/>
<path opacity="0.5" d="M130.864 152.639L133.689 151.028L133.386 149.102L130.561 150.713L130.864 152.639Z" fill="#42FFFF"/>
<path d="M165.876 81.2215L157.564 76.4347C157.459 76.3646 157.307 76.3646 157.143 76.458L53.0475 136.562C52.7089 136.76 52.4287 137.286 52.4287 137.741V157.39C52.4287 157.612 52.4988 157.764 52.6039 157.857C52.6039 157.857 52.6155 157.857 52.6272 157.869L61.0217 162.703L61.0917 153.211L157.143 97.7536C157.482 97.5551 157.762 97.0297 157.762 96.5744V89.8261L165.865 81.2098L165.876 81.2215Z" fill="url(#paint13_linear_0_1)"/>
<path d="M165.515 102.552L61.4196 162.656C61.081 162.854 60.8008 162.644 60.8008 162.189V142.539C60.8008 142.084 61.081 141.559 61.4196 141.36L165.515 81.2565C165.854 81.058 166.134 81.2682 166.134 81.7235V101.373C166.134 101.828 165.854 102.354 165.515 102.552Z" fill="url(#paint14_linear_0_1)"/>
<path opacity="0.6" d="M151.155 98.583L70.1055 146.241C72.6156 148.401 74.9857 150.864 77.1573 153.573L158.802 106.429C156.455 103.498 153.875 100.848 151.155 98.5713V98.583Z" fill="#242993"/>
<path d="M162.538 96.6566L64.3852 153.328C64.1517 153.456 63.9648 153.328 63.9648 153.013V148.074C63.9648 147.759 64.1517 147.409 64.3852 147.268L162.538 90.5972C162.772 90.4687 162.959 90.5972 162.959 90.9124V95.851C162.959 96.1662 162.772 96.5165 162.538 96.6566Z" fill="#242993"/>
<path d="M162.538 90.5973L160.542 91.7531V94.4151C160.542 94.7303 160.355 95.0805 160.122 95.2206L63.9648 150.736V153.013C63.9648 153.328 64.1517 153.468 64.3852 153.328L162.538 96.6567C162.772 96.5283 162.959 96.1663 162.959 95.8511V90.9125C162.959 90.5973 162.772 90.4572 162.538 90.5973Z" fill="#4553C7"/>
<path opacity="0.96" d="M217.679 309.284L299.335 262.139C288.804 256.057 279.92 242.747 277.211 230.021C276.114 224.861 272.95 220.377 268.385 217.739L206.681 182.118C189.495 172.194 178.357 154.331 177.19 134.518C176.209 117.788 163.553 101.337 153.746 95.6748L72.0898 142.819C81.7569 148.4 92.4047 163.998 93.6189 180.448C95.0783 200.261 105.854 218.182 123.052 228.118L186.74 264.883C191.305 267.522 194.469 272.005 195.567 277.165C198.275 289.891 207.16 303.201 217.691 309.284H217.679Z" fill="url(#paint15_linear_0_1)"/>
<path opacity="0.8" d="M153.746 95.6748L72.0898 142.819C72.7437 143.193 73.3858 143.601 74.0396 144.033L155.684 96.889C155.042 96.4687 154.4 96.0601 153.746 95.6748Z" fill="#4553C7"/>
<g opacity="0.32">
<path d="M123.028 151.437L108.714 159.738L108.598 158.092L122.888 149.826L123.028 151.437Z" fill="#4553C7"/>
<path d="M130.255 147.255L125.188 150.185L125.048 148.574L130.103 145.655L130.255 147.255Z" fill="#4553C7"/>
<path d="M135.789 144.046L132.392 146.019L132.229 144.419L135.626 142.458L135.789 144.046Z" fill="#4553C7"/>
<path d="M116.853 158.943L108.984 163.531L108.867 161.874L116.725 157.297L116.853 158.943Z" fill="#4553C7"/>
<path d="M128.528 152.148L119.047 157.671L118.907 156.024L128.376 150.525L128.528 152.148Z" fill="#4553C7"/>
<path d="M134.109 148.892L130.676 150.888L130.524 149.277L133.945 147.292L134.109 148.892Z" fill="#4553C7"/>
<path d="M139.372 145.832L135.975 147.805L135.812 146.206L139.197 144.232L139.372 145.832Z" fill="#4553C7"/>
<path d="M114.984 164.009L109.252 167.36L109.135 165.679L114.856 162.34L114.984 164.009Z" fill="#4553C7"/>
<path d="M119.128 161.57L117.19 162.714L117.05 161.056L118.988 159.924L119.128 161.57Z" fill="#4553C7"/>
<path d="M124.815 158.242L121.312 160.285L121.184 158.639L124.663 156.596L124.815 158.242Z" fill="#4553C7"/>
<path d="M130.501 158.862L109.521 171.226L109.404 169.533L130.35 157.228L130.501 158.862Z" fill="#4553C7"/>
<path d="M137.727 154.611L132.66 157.588L132.496 155.954L137.563 152.977L137.727 154.611Z" fill="#4553C7"/>
<path d="M115.567 171.692L109.788 175.113L109.671 173.408L115.438 169.999L115.567 171.692Z" fill="#4553C7"/>
<path d="M128.924 163.789L117.797 170.374L117.657 168.692L128.772 162.131L128.924 163.789Z" fill="#4553C7"/>
<path d="M134.574 160.438L131.095 162.505L130.943 160.847L134.411 158.792L134.574 160.438Z" fill="#4553C7"/>
<path d="M121.883 172.007L110.068 179.036L109.951 177.32L121.731 170.314L121.883 172.007Z" fill="#4553C7"/>
<path d="M132.461 165.703L124.09 170.688L123.95 169.007L132.31 164.033L132.461 165.703Z" fill="#4553C7"/>
<path d="M140.226 161.092L134.645 164.408L134.481 162.75L140.051 159.446L140.226 161.092Z" fill="#4553C7"/>
<path d="M114.377 180.589L110.349 183.006L110.221 181.266L114.249 178.861L114.377 180.589Z" fill="#4553C7"/>
<path d="M121.896 176.094L116.63 179.246L116.49 177.519L121.756 174.378L121.896 176.094Z" fill="#4553C7"/>
<path d="M132.485 169.755L124.114 174.764L123.974 173.06L132.321 168.074L132.485 169.755Z" fill="#4553C7"/>
<path d="M122.947 179.583L110.629 186.997L110.501 185.246L122.795 177.867L122.947 179.583Z" fill="#4553C7"/>
<path d="M136.456 171.447L125.166 178.242L125.026 176.526L136.281 169.766L136.456 171.447Z" fill="#4553C7"/>
<path d="M142.118 168.049L138.639 170.139L138.464 168.458L141.931 166.368L142.118 168.049Z" fill="#4553C7"/>
<path d="M147.488 164.803L144.044 166.882L143.869 165.212L147.302 163.146L147.488 164.803Z" fill="#4553C7"/>
<path d="M118.346 186.519L110.909 191.026L110.78 189.263L118.206 184.779L118.346 186.519Z" fill="#4553C7"/>
<path d="M151.118 135.161L160.423 129.767L160.225 128.237L150.92 133.608L151.118 135.161Z" fill="#4553C7"/>
<path d="M153.558 137.554L160.89 133.281L160.691 131.74L153.359 136.002L153.558 137.554Z" fill="#4553C7"/>
<path d="M156.045 139.946L161.357 136.829L161.159 135.276L155.847 138.382L156.045 139.946Z" fill="#4553C7"/>
<path d="M154.06 144.991L161.835 140.414L161.625 138.838L153.861 143.403L154.06 144.991Z" fill="#4553C7"/>
<path d="M156.955 147.186L162.314 144.011L162.104 142.435L156.757 145.599L156.955 147.186Z" fill="#4553C7"/>
<path d="M155.964 151.716L162.794 147.653L162.584 146.054L155.766 150.105L155.964 151.716Z" fill="#4553C7"/>
<path d="M159.547 153.55L163.271 151.32L163.061 149.709L159.349 151.927L159.547 153.55Z" fill="#4553C7"/>
<path d="M156.501 159.387L163.763 155.02L163.553 153.397L156.303 157.752L156.501 159.387Z" fill="#4553C7"/>
<path d="M157.353 162.924L164.253 158.744L164.043 157.109L157.143 161.266L157.353 162.924Z" fill="#4553C7"/>
<path d="M123.729 183.274L120.6 185.165L120.46 183.414L123.577 181.534L123.729 183.274Z" fill="#4553C7"/>
<path d="M132.919 177.705L125.96 181.919L125.809 180.191L132.755 176L132.919 177.705Z" fill="#4553C7"/>
</g>
<g opacity="0.32">
<path d="M175.767 205.505L197.051 193.211L195.533 192.335L174.249 204.629L175.767 205.505Z" fill="#4553C7"/>
<path d="M163.378 212.65L171.072 208.214L169.543 207.338L161.86 211.774L163.378 212.65Z" fill="#4553C7"/>
<path d="M157.213 216.21L159.466 214.914L157.949 214.038L155.695 215.334L157.213 216.21Z" fill="#4553C7"/>
<path d="M145.62 222.913L153.303 218.476L151.785 217.601L144.103 222.037L145.62 222.913Z" fill="#4553C7"/>
<path d="M193.979 198.627L200.202 195.031L198.684 194.155L192.461 197.74L193.979 198.627Z" fill="#4553C7"/>
<path d="M166.53 214.47L189.285 201.336L187.768 200.46L165.013 213.595L166.53 214.47Z" fill="#4553C7"/>
<path d="M160.365 218.031L162.619 216.735L161.101 215.848L158.848 217.155L160.365 218.031Z" fill="#4553C7"/>
<path d="M148.773 224.722L156.455 220.286L154.925 219.41L147.243 223.847L148.773 224.722Z" fill="#4553C7"/>
<path d="M200.238 198.638L203.344 196.852L201.826 195.965L198.721 197.763L200.238 198.638Z" fill="#4553C7"/>
<path d="M191.854 203.485L195.543 201.36L194.014 200.473L190.336 202.609L191.854 203.485Z" fill="#4553C7"/>
<path d="M185.69 207.046L187.943 205.738L186.413 204.862L184.16 206.17L185.69 207.046Z" fill="#4553C7"/>
<path d="M174.084 213.735L181.778 209.298L180.249 208.423L172.566 212.859L174.084 213.735Z" fill="#4553C7"/>
<path d="M200.272 202.259L206.495 198.663L204.977 197.787L198.754 201.383L200.272 202.259Z" fill="#4553C7"/>
<path d="M187.896 209.404L195.578 204.967L194.06 204.092L186.366 208.528L187.896 209.404Z" fill="#4553C7"/>
<path d="M181.732 212.964L183.973 211.656L182.455 210.78L180.202 212.088L181.732 212.964Z" fill="#4553C7"/>
<path d="M170.126 219.655L177.808 215.218L176.291 214.343L168.608 218.779L170.126 219.655Z" fill="#4553C7"/>
<path d="M188.584 212.906L209.88 200.612L208.35 199.736L187.066 212.03L188.584 212.906Z" fill="#4553C7"/>
<path d="M176.21 220.052L183.892 215.616L182.363 214.74L174.681 219.177L176.21 220.052Z" fill="#4553C7"/>
<path d="M170.033 223.613L172.287 222.317L170.769 221.441L168.516 222.737L170.033 223.613Z" fill="#4553C7"/>
<path d="M158.44 230.314L166.122 225.878L164.604 225.002L156.922 229.439L158.44 230.314Z" fill="#4553C7"/>
<path d="M206.799 206.03L213.022 202.434L211.504 201.559L205.281 205.143L206.799 206.03Z" fill="#4553C7"/>
<path d="M179.349 221.873L202.104 208.739L200.586 207.863L177.831 220.998L179.349 221.873Z" fill="#4553C7"/>
<path d="M173.186 225.434L175.439 224.138L173.921 223.251L171.668 224.559L173.186 225.434Z" fill="#4553C7"/>
<path d="M161.592 232.124L169.274 227.687L167.756 226.812L160.062 231.248L161.592 232.124Z" fill="#4553C7"/>
<path d="M213.056 206.042L216.161 204.255L214.644 203.368L211.538 205.166L213.056 206.042Z" fill="#4553C7"/>
<path d="M204.674 210.886L208.363 208.761L206.846 207.874L203.156 210.011L204.674 210.886Z" fill="#4553C7"/>
<path d="M198.508 214.448L200.761 213.14L199.232 212.265L196.99 213.572L198.508 214.448Z" fill="#4553C7"/>
<path d="M186.916 221.138L194.598 216.702L193.069 215.826L185.387 220.263L186.916 221.138Z" fill="#4553C7"/>
<path d="M213.091 209.661L219.314 206.065L217.796 205.189L211.573 208.785L213.091 209.661Z" fill="#4553C7"/>
<path d="M200.715 216.806L208.397 212.37L206.88 211.494L199.197 215.931L200.715 216.806Z" fill="#4553C7"/>
<path d="M194.552 220.367L196.805 219.059L195.276 218.184L193.022 219.491L194.552 220.367Z" fill="#4553C7"/>
<path d="M182.945 227.057L190.639 222.621L189.11 221.745L181.428 226.182L182.945 227.057Z" fill="#4553C7"/>
<path d="M201.404 220.309L222.7 208.015L221.171 207.14L199.887 219.434L201.404 220.309Z" fill="#4553C7"/>
<path d="M189.029 227.454L196.712 223.017L195.194 222.142L187.5 226.578L189.029 227.454Z" fill="#4553C7"/>
<path d="M182.863 231.014L185.105 229.718L183.587 228.843L181.334 230.139L182.863 231.014Z" fill="#4553C7"/>
<path d="M171.259 237.716L178.941 233.279L177.423 232.403L169.741 236.84L171.259 237.716Z" fill="#4553C7"/>
<path d="M219.618 213.433L225.841 209.837L224.323 208.961L218.101 212.545L219.618 213.433Z" fill="#4553C7"/>
<path d="M192.168 229.276L214.923 216.141L213.405 215.266L190.65 228.4L192.168 229.276Z" fill="#4553C7"/>
<path d="M186.004 232.836L188.257 231.54L186.74 230.652L184.486 231.96L186.004 232.836Z" fill="#4553C7"/>
<path d="M174.41 239.526L182.093 235.09L180.575 234.214L172.893 238.65L174.41 239.526Z" fill="#4553C7"/>
<path d="M225.875 213.443L228.992 211.657L227.463 210.77L224.357 212.568L225.875 213.443Z" fill="#4553C7"/>
<path d="M217.491 218.29L221.181 216.165L219.663 215.277L215.974 217.414L217.491 218.29Z" fill="#4553C7"/>
<path d="M211.329 221.85L213.583 220.543L212.065 219.667L209.812 220.975L211.329 221.85Z" fill="#4553C7"/>
<path d="M199.734 228.539L207.416 224.102L205.898 223.227L198.204 227.663L199.734 228.539Z" fill="#4553C7"/>
<path d="M225.91 217.062L232.133 213.466L230.615 212.591L224.393 216.187L225.91 217.062Z" fill="#4553C7"/>
<path d="M213.534 224.208L221.217 219.771L219.699 218.896L212.017 223.332L213.534 224.208Z" fill="#4553C7"/>
<path d="M207.37 227.769L209.624 226.462L208.094 225.586L205.853 226.894L207.37 227.769Z" fill="#4553C7"/>
<path d="M195.776 234.459L203.458 230.022L201.928 229.146L194.246 233.583L195.776 234.459Z" fill="#4553C7"/>
</g>
<path opacity="0.5" d="M283.68 196.081C284.544 198.557 278.695 202.865 270.616 205.69C262.537 208.516 255.275 208.807 254.411 206.321C253.547 203.845 259.396 199.537 267.475 196.712C275.555 193.887 282.817 193.595 283.68 196.081Z" fill="#242993"/>
<path d="M263.226 187.069L263.319 184.512L263.914 183.018L264.288 184.255L263.226 187.069Z" fill="#DD821F"/>
<path d="M289.985 187.548L290.09 185.05C290.09 185.05 287.977 187.163 287.977 187.21C287.977 187.256 289.996 187.548 289.996 187.548H289.985Z" fill="#FFD85A"/>
<path d="M276.417 194.973C269.026 194.798 263.166 191.039 263.317 184.512C263.469 177.986 269.587 172.849 276.977 173.024C284.368 173.199 290.229 178.628 290.077 185.154C289.925 191.681 283.807 195.148 276.417 194.973Z" fill="#FFD85A"/>
<path d="M276.323 199.199C268.933 199.024 263.072 193.595 263.224 187.069C263.375 180.542 269.493 175.405 276.884 175.581C284.274 175.756 290.135 181.185 289.983 187.711C289.831 194.237 283.714 199.375 276.323 199.199Z" fill="#FFD85A"/>
<path d="M267.263 178.874C264.835 180.952 263.294 183.836 263.224 187.07C263.072 193.596 268.933 199.025 276.323 199.201C279.977 199.282 283.317 198.068 285.792 196.037L267.275 178.886L267.263 178.874Z" fill="#DD821F"/>
<path d="M276.335 198.674C269.272 198.511 263.668 193.315 263.819 187.081C263.971 180.846 269.809 175.931 276.872 176.106C283.936 176.27 289.54 181.465 289.388 187.7C289.236 193.934 283.399 198.849 276.335 198.674Z" fill="#F9BF30"/>
<path d="M276.384 196.444C270.722 196.304 266.215 192.147 266.343 187.139C266.46 182.13 271.154 178.184 276.828 178.324C282.49 178.464 286.997 182.62 286.868 187.629C286.752 192.638 282.058 196.584 276.384 196.444Z" fill="#F2B42A"/>
<path d="M286.866 187.63C286.866 187.419 286.866 187.221 286.866 187.011C286.399 191.716 281.857 195.335 276.428 195.207C271 195.078 266.645 191.237 266.4 186.521C266.376 186.719 266.364 186.929 266.353 187.139C266.236 192.148 270.731 196.304 276.393 196.444C282.056 196.585 286.749 192.638 286.878 187.63H286.866Z" fill="#FFD85A"/>
<path d="M278.576 188.155L276.475 186.205C274.443 186.66 270.672 187.524 267.648 188.237C268.396 190.49 270.229 192.358 272.622 193.35L278.576 188.167V188.155Z" fill="#FFD85A"/>
<path d="M275.262 194.028C275.6 194.063 275.939 194.098 276.277 194.098C278.753 194.157 281.018 193.351 282.71 191.973L279.278 188.786L275.262 194.017V194.028Z" fill="#FFD85A"/>
<path d="M274.211 184.104L270.241 180.427C268.91 181.594 267.719 182.879 267.393 184.595L274.211 184.104Z" fill="#FFD85A"/>
<path d="M276.278 179.41C281.94 179.55 286.447 183.707 286.318 188.715C286.295 189.731 286.085 190.7 285.711 191.599C286.412 190.408 286.82 189.066 286.855 187.63C286.972 182.621 282.477 178.465 276.815 178.324C272.296 178.219 268.397 180.706 266.949 184.255C268.689 181.29 272.238 179.317 276.278 179.41Z" fill="#DD821F"/>
<path d="M263.317 184.513C263.294 185.482 263.201 186.183 263.434 187.093C263.726 186.136 264.368 183.275 264.368 183.275L265.384 180.999L266.236 180.298L267.672 179.248L267.789 175.967C265.115 178.057 263.399 181.092 263.317 184.513Z" fill="#DD821F"/>
<path d="M289.227 184.185L289.285 183.508C289.285 183.415 289.367 183.333 289.448 183.333H289.495C289.588 183.333 289.659 183.415 289.659 183.508L289.6 184.185C289.6 184.279 289.518 184.36 289.437 184.36H289.39C289.297 184.36 289.227 184.279 289.227 184.185Z" fill="#DD821F"/>
<path d="M288.045 181.605L288.115 180.391C288.115 180.286 288.208 180.192 288.302 180.192H288.419C288.524 180.192 288.605 180.286 288.605 180.403L288.535 181.617C288.535 181.722 288.442 181.815 288.348 181.815H288.232C288.127 181.815 288.045 181.722 288.045 181.605Z" fill="#DD821F"/>
<path d="M286.412 179.363L286.482 178.195C286.482 178.067 286.587 177.974 286.704 177.974H286.914C287.031 177.974 287.124 178.079 287.124 178.207L287.054 179.375C287.054 179.503 286.949 179.596 286.832 179.596H286.622C286.506 179.596 286.412 179.491 286.412 179.363Z" fill="#DD821F"/>
<path d="M283.973 177.541L284.043 176.116C284.043 175.988 284.148 175.895 284.265 175.895H284.475C284.591 175.895 284.685 176 284.685 176.128L284.615 177.552C284.615 177.681 284.51 177.774 284.393 177.774H284.183C284.066 177.774 283.973 177.669 283.973 177.541Z" fill="#DD821F"/>
<path d="M281.52 176.351L281.601 174.717C281.601 174.589 281.706 174.495 281.823 174.495H282.033C282.15 174.495 282.243 174.6 282.243 174.729L282.162 176.363C282.162 176.492 282.057 176.585 281.94 176.585H281.73C281.613 176.585 281.52 176.48 281.52 176.351Z" fill="#DD821F"/>
<path d="M279.055 175.627L279.136 174.051C279.136 173.922 279.241 173.829 279.358 173.829H279.568C279.685 173.829 279.779 173.934 279.779 174.063L279.697 175.639C279.697 175.767 279.592 175.861 279.475 175.861H279.265C279.148 175.861 279.055 175.755 279.055 175.627Z" fill="#DD821F"/>
<path d="M276.581 175.383L276.663 173.783C276.663 173.655 276.768 173.562 276.885 173.562H277.095C277.212 173.562 277.305 173.667 277.305 173.795L277.223 175.395C277.223 175.523 277.118 175.616 277.001 175.616H276.791C276.674 175.616 276.581 175.511 276.581 175.383Z" fill="#DD821F"/>
<path d="M274.094 175.429L274.175 173.935C274.175 173.806 274.281 173.713 274.397 173.713H274.607C274.724 173.713 274.818 173.818 274.818 173.946L274.748 175.441C274.748 175.569 274.642 175.663 274.526 175.663H274.316C274.199 175.663 274.105 175.558 274.105 175.429H274.094Z" fill="#DD821F"/>
<path d="M271.596 175.977L271.666 174.529C271.666 174.401 271.771 174.308 271.888 174.308H272.098C272.215 174.308 272.308 174.413 272.308 174.541L272.238 175.989C272.238 176.117 272.133 176.211 272.016 176.211H271.806C271.689 176.211 271.596 176.106 271.596 175.977Z" fill="#DD821F"/>
<path d="M269.086 177.193L269.168 175.628C269.168 175.5 269.273 175.406 269.39 175.406H269.6C269.716 175.406 269.81 175.511 269.81 175.64L269.728 177.204C269.728 177.333 269.623 177.426 269.506 177.426H269.296C269.179 177.426 269.086 177.321 269.086 177.193Z" fill="#DD821F"/>
<path opacity="0.5" d="M143.938 264.324C144.802 266.799 138.953 271.107 130.874 273.933C122.795 276.758 115.533 277.038 114.669 274.563C113.805 272.088 119.654 267.78 127.733 264.954C135.812 262.129 143.074 261.849 143.938 264.324Z" fill="#242993"/>
<path d="M123.483 255.299L123.577 252.743L124.172 251.26L124.546 252.486L123.483 255.299Z" fill="#DD821F"/>
<path d="M150.244 255.79L150.35 253.291C150.35 253.291 148.236 255.404 148.236 255.451C148.236 255.498 150.256 255.79 150.256 255.79H150.244Z" fill="#FFD85A"/>
<path d="M136.677 263.204C129.286 263.029 123.425 259.269 123.577 252.743C123.729 246.216 129.847 241.079 137.237 241.254C144.627 241.429 150.488 246.858 150.337 253.385C150.185 259.911 144.067 263.379 136.677 263.204Z" fill="#FFD85A"/>
<path d="M136.573 267.43C129.183 267.255 123.322 261.826 123.474 255.299C123.625 248.773 129.743 243.636 137.134 243.811C144.524 243.986 150.385 249.415 150.233 255.942C150.081 262.468 143.964 267.605 136.573 267.43Z" fill="#FFD85A"/>
<path d="M127.524 247.103C125.095 249.181 123.554 252.064 123.484 255.299C123.333 261.825 129.193 267.254 136.584 267.429C140.238 267.511 143.577 266.297 146.052 264.265L127.536 247.114L127.524 247.103Z" fill="#DD821F"/>
<path d="M136.595 266.904C129.531 266.74 123.927 261.545 124.079 255.31C124.231 249.076 130.069 244.16 137.132 244.336C144.196 244.499 149.8 249.694 149.648 255.929C149.496 262.164 143.658 267.079 136.595 266.904Z" fill="#F9BF30"/>
<path d="M136.643 264.673C130.98 264.533 126.474 260.377 126.602 255.368C126.719 250.36 131.412 246.413 137.087 246.553C142.761 246.694 147.256 250.85 147.127 255.859C147.011 260.867 142.317 264.813 136.643 264.673Z" fill="#F2B42A"/>
<path d="M147.127 255.859C147.127 255.649 147.127 255.451 147.127 255.24C146.66 259.945 142.118 263.565 136.689 263.436C131.26 263.308 126.905 259.467 126.66 254.75C126.637 254.948 126.625 255.159 126.614 255.369C126.497 260.377 130.992 264.534 136.654 264.674C142.317 264.814 147.01 260.868 147.138 255.859H147.127Z" fill="#FFD85A"/>
<path d="M138.825 256.384L136.724 254.435C134.692 254.89 130.921 255.754 127.897 256.466C128.645 258.719 130.478 260.587 132.871 261.58L138.825 256.396V256.384Z" fill="#FFD85A"/>
<path d="M135.521 262.257C135.859 262.292 136.198 262.327 136.536 262.327C139.011 262.385 141.276 261.58 142.969 260.202L139.537 257.015L135.521 262.245V262.257Z" fill="#FFD85A"/>
<path d="M134.471 252.346L130.501 248.668C129.17 249.835 127.979 251.12 127.652 252.836L134.471 252.346Z" fill="#FFD85A"/>
<path d="M136.537 247.639C142.2 247.779 146.707 251.935 146.578 256.944C146.555 257.96 146.345 258.929 145.971 259.828C146.671 258.637 147.08 257.294 147.115 255.858C147.232 250.849 142.737 246.693 137.074 246.553C132.556 246.448 128.657 248.935 127.209 252.484C128.949 249.519 132.498 247.545 136.537 247.639Z" fill="#DD821F"/>
<path d="M123.577 252.742C123.554 253.711 123.46 254.411 123.694 255.322C123.986 254.364 124.628 251.504 124.628 251.504L125.644 249.227L126.496 248.527L127.932 247.476L128.049 244.195C125.375 246.285 123.659 249.321 123.577 252.742Z" fill="#DD821F"/>
<path d="M149.474 252.416L149.532 251.739C149.532 251.645 149.614 251.563 149.695 251.563H149.742C149.836 251.563 149.906 251.645 149.906 251.739L149.847 252.416C149.847 252.509 149.766 252.591 149.684 252.591H149.637C149.544 252.591 149.474 252.509 149.474 252.416Z" fill="#DD821F"/>
<path d="M148.306 249.836L148.376 248.621C148.376 248.516 148.469 248.423 148.563 248.423H148.679C148.784 248.423 148.866 248.516 148.866 248.633L148.796 249.847C148.796 249.952 148.703 250.046 148.609 250.046H148.492C148.387 250.046 148.306 249.952 148.306 249.836Z" fill="#DD821F"/>
<path d="M146.671 247.593L146.741 246.426C146.741 246.298 146.846 246.204 146.963 246.204H147.173C147.29 246.204 147.383 246.309 147.383 246.438L147.313 247.605C147.313 247.734 147.208 247.827 147.091 247.827H146.881C146.764 247.827 146.671 247.722 146.671 247.593Z" fill="#DD821F"/>
<path d="M144.231 245.772L144.301 244.348C144.301 244.219 144.407 244.126 144.523 244.126H144.733C144.85 244.126 144.944 244.231 144.944 244.359L144.874 245.784C144.874 245.912 144.769 246.006 144.652 246.006H144.442C144.325 246.006 144.231 245.901 144.231 245.772Z" fill="#DD821F"/>
<path d="M141.779 244.581L141.861 242.946C141.861 242.818 141.966 242.725 142.083 242.725H142.293C142.41 242.725 142.503 242.83 142.503 242.958L142.421 244.593C142.421 244.721 142.316 244.814 142.2 244.814H141.989C141.873 244.814 141.779 244.709 141.779 244.581Z" fill="#DD821F"/>
<path d="M139.316 243.858L139.398 242.281C139.398 242.153 139.503 242.06 139.62 242.06H139.83C139.947 242.06 140.04 242.165 140.04 242.293L139.959 243.869C139.959 243.998 139.853 244.091 139.737 244.091H139.527C139.41 244.091 139.316 243.986 139.316 243.858Z" fill="#DD821F"/>
<path d="M136.83 243.612L136.912 242.013C136.912 241.884 137.017 241.791 137.134 241.791H137.344C137.461 241.791 137.554 241.896 137.554 242.025L137.472 243.624C137.472 243.752 137.367 243.846 137.25 243.846H137.04C136.923 243.846 136.83 243.741 136.83 243.612Z" fill="#DD821F"/>
<path d="M134.354 243.659L134.436 242.164C134.436 242.036 134.541 241.942 134.658 241.942H134.868C134.985 241.942 135.078 242.047 135.078 242.176L134.997 243.67C134.997 243.799 134.892 243.892 134.775 243.892H134.565C134.448 243.892 134.354 243.787 134.354 243.659Z" fill="#DD821F"/>
<path d="M131.855 244.209L131.926 242.761C131.926 242.632 132.031 242.539 132.147 242.539H132.358C132.474 242.539 132.568 242.644 132.568 242.773L132.498 244.22C132.498 244.349 132.393 244.442 132.276 244.442H132.066C131.949 244.442 131.855 244.337 131.855 244.209Z" fill="#DD821F"/>
<path d="M129.347 245.421L129.428 243.857C129.428 243.728 129.533 243.635 129.65 243.635H129.86C129.977 243.635 130.071 243.74 130.071 243.868L129.989 245.433C129.989 245.561 129.884 245.655 129.767 245.655H129.557C129.44 245.655 129.347 245.549 129.347 245.421Z" fill="#DD821F"/>
<path opacity="0.5" d="M172.182 207.546C173.046 210.021 167.197 214.33 159.118 217.155C151.039 219.98 143.777 220.272 142.913 217.785C142.049 215.31 147.898 211.002 155.977 208.177C164.056 205.351 171.318 205.06 172.182 207.546Z" fill="#242993"/>
<path d="M151.716 198.522L151.821 195.977L152.416 194.482L152.79 195.72L151.716 198.522Z" fill="#DD821F"/>
<path d="M178.487 199.012L178.592 196.514C178.592 196.514 176.479 198.627 176.479 198.674C176.479 198.72 178.498 199.012 178.498 199.012H178.487Z" fill="#FFD85A"/>
<path d="M164.92 206.437C157.529 206.262 151.668 202.503 151.82 195.976C151.972 189.45 158.09 184.313 165.48 184.488C172.871 184.663 178.732 190.092 178.58 196.618C178.428 203.145 172.31 206.612 164.92 206.437Z" fill="#FFD85A"/>
<path d="M164.813 210.665C157.423 210.49 151.562 205.061 151.714 198.535C151.866 192.008 157.983 186.871 165.374 187.046C172.764 187.221 178.625 192.65 178.473 199.177C178.322 205.703 172.204 210.84 164.813 210.665Z" fill="#FFD85A"/>
<path d="M155.753 190.338C153.325 192.416 151.784 195.3 151.714 198.534C151.562 205.06 157.423 210.489 164.813 210.664C168.468 210.758 171.807 209.532 174.282 207.5L155.765 190.35L155.753 190.338Z" fill="#DD821F"/>
<path d="M164.825 210.139C157.762 209.976 152.158 204.78 152.31 198.546C152.461 192.311 158.299 187.396 165.362 187.571C172.426 187.746 178.03 192.93 177.878 199.164C177.727 205.399 171.889 210.314 164.825 210.139Z" fill="#F9BF30"/>
<path d="M164.884 207.91C159.222 207.77 154.715 203.613 154.843 198.604C154.96 193.596 159.654 189.65 165.328 189.79C170.99 189.93 175.497 194.086 175.368 199.095C175.252 204.104 170.558 208.05 164.884 207.91Z" fill="#F2B42A"/>
<path d="M175.356 199.095C175.356 198.884 175.356 198.686 175.356 198.476C174.889 203.181 170.348 206.8 164.919 206.672C159.49 206.543 155.135 202.702 154.89 197.985C154.866 198.184 154.855 198.394 154.843 198.604C154.726 203.613 159.221 207.769 164.884 207.909C170.546 208.049 175.24 204.103 175.368 199.095H175.356Z" fill="#FFD85A"/>
<path d="M167.068 199.609L164.966 197.659C162.935 198.115 159.164 198.978 156.14 199.691C156.887 201.944 158.72 203.812 161.113 204.804L167.068 199.621V199.609Z" fill="#FFD85A"/>
<path d="M163.752 205.493C164.091 205.528 164.429 205.563 164.768 205.563C167.243 205.622 169.508 204.804 171.201 203.438L167.768 200.251L163.752 205.481V205.493Z" fill="#FFD85A"/>
<path d="M162.7 195.568L158.731 191.891C157.4 193.058 156.209 194.342 155.882 196.059L162.7 195.568Z" fill="#FFD85A"/>
<path d="M164.78 190.875C170.442 191.015 174.949 195.172 174.82 200.18C174.797 201.196 174.587 202.165 174.213 203.064C174.914 201.873 175.322 200.531 175.357 199.094C175.474 194.086 170.979 189.929 165.317 189.789C160.798 189.684 156.899 192.171 155.451 195.72C157.191 192.755 160.74 190.782 164.78 190.875Z" fill="#DD821F"/>
<path d="M151.819 195.977C151.796 196.946 151.703 197.646 151.936 198.557C152.228 197.6 152.87 194.739 152.87 194.739L153.886 192.463L154.738 191.762L156.174 190.711L156.291 187.431C153.617 189.521 151.901 192.556 151.819 195.977Z" fill="#DD821F"/>
<path d="M177.716 195.639L177.774 194.962C177.774 194.869 177.856 194.787 177.938 194.787H177.984C178.078 194.787 178.148 194.869 178.148 194.962L178.089 195.639C178.089 195.733 178.008 195.815 177.926 195.815H177.879C177.786 195.815 177.716 195.733 177.716 195.639Z" fill="#DD821F"/>
<path d="M176.537 193.07L176.607 191.856C176.607 191.751 176.701 191.657 176.794 191.657H176.911C177.016 191.657 177.097 191.751 177.097 191.867L177.027 193.082C177.027 193.187 176.934 193.28 176.841 193.28H176.724C176.619 193.28 176.537 193.187 176.537 193.07Z" fill="#DD821F"/>
<path d="M174.914 190.817L174.984 189.65C174.984 189.521 175.089 189.428 175.206 189.428H175.416C175.533 189.428 175.626 189.533 175.626 189.661L175.556 190.829C175.556 190.957 175.451 191.051 175.334 191.051H175.124C175.007 191.051 174.914 190.945 174.914 190.817Z" fill="#DD821F"/>
<path d="M172.474 189.007L172.544 187.582C172.544 187.454 172.649 187.36 172.766 187.36H172.976C173.092 187.36 173.186 187.465 173.186 187.594L173.116 189.018C173.116 189.147 173.011 189.24 172.894 189.24H172.684C172.567 189.24 172.474 189.135 172.474 189.007Z" fill="#DD821F"/>
<path d="M170.011 187.816L170.092 186.182C170.092 186.053 170.198 185.96 170.314 185.96H170.524C170.641 185.96 170.735 186.065 170.735 186.193L170.653 187.828C170.653 187.956 170.548 188.05 170.431 188.05H170.221C170.104 188.05 170.011 187.945 170.011 187.816Z" fill="#DD821F"/>
<path d="M167.546 187.093L167.628 185.517C167.628 185.388 167.733 185.295 167.849 185.295H168.06C168.176 185.295 168.27 185.4 168.27 185.528L168.188 187.105C168.188 187.233 168.083 187.326 167.966 187.326H167.756C167.639 187.326 167.546 187.221 167.546 187.093Z" fill="#DD821F"/>
<path d="M165.07 186.836L165.152 185.236C165.152 185.108 165.257 185.015 165.374 185.015H165.584C165.701 185.015 165.794 185.12 165.794 185.248L165.712 186.848C165.712 186.976 165.607 187.069 165.491 187.069H165.28C165.164 187.069 165.07 186.964 165.07 186.836Z" fill="#DD821F"/>
<path d="M162.585 186.893L162.655 185.399C162.655 185.27 162.76 185.177 162.877 185.177H163.087C163.204 185.177 163.297 185.282 163.297 185.41L163.215 186.905C163.215 187.033 163.11 187.127 162.994 187.127H162.783C162.667 187.127 162.573 187.021 162.573 186.893H162.585Z" fill="#DD821F"/>
<path d="M160.086 187.43L160.156 185.983C160.156 185.854 160.261 185.761 160.378 185.761H160.588C160.705 185.761 160.798 185.866 160.798 185.994L160.728 187.442C160.728 187.57 160.623 187.664 160.506 187.664H160.296C160.179 187.664 160.086 187.559 160.086 187.43Z" fill="#DD821F"/>
<path d="M157.576 188.656L157.658 187.092C157.658 186.964 157.763 186.87 157.88 186.87H158.09C158.207 186.87 158.3 186.975 158.3 187.104L158.218 188.668C158.218 188.797 158.113 188.89 157.996 188.89H157.786C157.67 188.89 157.576 188.785 157.576 188.656Z" fill="#DD821F"/>
<path opacity="0.5" d="M393.952 216.608L345.127 188.412C344.064 187.805 344.204 186.731 345.418 186.031L359.767 177.753L412.434 208.155L398.085 216.433C396.859 217.133 395.015 217.215 393.952 216.608Z" fill="#242993"/>
<path d="M463.361 178.242V168.517H447.517L412.363 148.225C411.499 147.723 409.993 147.793 409.001 148.365L373.999 168.575H358.226V178.336C358.237 178.639 358.424 178.931 358.798 179.141L409.234 208.259C410.098 208.761 411.605 208.691 412.597 208.119L462.543 179.281C463.057 178.978 463.337 178.604 463.361 178.242Z" fill="url(#paint16_linear_0_1)"/>
<path d="M409.223 198.523L358.786 169.405C357.922 168.903 358.027 168.039 359.031 167.467L408.978 138.629C409.97 138.057 411.476 137.987 412.34 138.489L462.777 167.607C463.641 168.109 463.536 168.973 462.532 169.545L412.585 198.383C411.593 198.955 410.087 199.025 409.223 198.523Z" fill="url(#paint17_linear_0_1)"/>
<path d="M409.223 198.523L358.786 169.405C357.922 168.903 358.027 168.039 359.031 167.467L408.978 138.629C409.97 138.057 411.476 137.987 412.34 138.489L462.777 167.607C463.641 168.109 463.536 168.973 462.532 169.545L412.585 198.383C411.593 198.955 410.087 199.025 409.223 198.523Z" fill="url(#paint18_linear_0_1)"/>
<path d="M409.411 195.113L364.707 169.3C363.948 168.856 364.041 168.085 364.917 167.572L409.189 142.015C410.076 141.501 411.407 141.454 412.178 141.886L456.882 167.7C457.641 168.144 457.547 168.914 456.672 169.428L412.4 194.985C411.512 195.499 410.181 195.545 409.411 195.113Z" fill="#242993"/>
<path d="M409.515 192.953L368.442 169.241C367.741 168.832 367.823 168.132 368.64 167.653L409.316 144.174C410.122 143.707 411.36 143.661 412.06 144.058L453.133 167.77C453.834 168.178 453.752 168.879 452.935 169.358L412.259 192.836C411.453 193.303 410.215 193.35 409.515 192.953Z" fill="#4553C7"/>
<path d="M409.841 166.963L405.043 164.196L407.658 162.679L412.468 165.446L409.841 166.963Z" fill="#42FFFF"/>
<path d="M418.773 166.568L413.963 169.346L411.348 167.829L416.146 165.062L418.773 166.568Z" fill="#42FFFF"/>
<path d="M408.756 167.595L406.129 169.113L403.514 167.595L406.129 166.077L408.756 167.595Z" fill="#42FFFF"/>
<path d="M417.817 172.826L415.19 174.343L407.636 169.977L410.251 168.459L417.817 172.826Z" fill="#42FFFF"/>
<path opacity="0.4" d="M463.36 155.43L441.901 155.558L412.34 138.489C411.476 137.987 409.97 138.057 408.977 138.629L379.007 155.932L358.202 156.06V168.693H358.214C358.261 168.961 358.447 169.218 358.786 169.405L409.223 198.523C410.087 199.025 411.593 198.955 412.585 198.383L462.532 169.545C462.987 169.288 463.244 168.961 463.325 168.634L463.36 168.611V155.418V155.43Z" fill="#42FFFF"/>
<path d="M463.361 156.678V146.952H447.517L412.363 126.661C411.499 126.159 409.993 126.229 409.001 126.801L373.999 147.011H358.226V156.771C358.237 157.075 358.424 157.367 358.798 157.577L409.234 186.695C410.098 187.197 411.605 187.127 412.597 186.554L462.543 157.717C463.057 157.413 463.337 157.04 463.361 156.678Z" fill="url(#paint19_linear_0_1)"/>
<path d="M409.223 176.97L358.786 147.852C357.922 147.35 358.027 146.486 359.031 145.914L408.978 117.076C409.97 116.504 411.476 116.434 412.34 116.936L462.777 146.054C463.641 146.556 463.536 147.42 462.532 147.992L412.585 176.83C411.593 177.402 410.087 177.472 409.223 176.97Z" fill="url(#paint20_linear_0_1)"/>
<path d="M409.411 173.562L364.707 147.748C363.948 147.304 364.041 146.534 364.917 146.02L409.189 120.463C410.076 119.949 411.407 119.902 412.178 120.334L456.882 146.148C457.641 146.592 457.547 147.363 456.672 147.876L412.4 173.433C411.512 173.947 410.181 173.994 409.411 173.562Z" fill="#242993"/>
<path d="M409.515 171.401L368.442 147.689C367.741 147.281 367.823 146.58 368.64 146.101L409.316 122.623C410.122 122.156 411.36 122.109 412.06 122.506L453.133 146.218C453.834 146.627 453.752 147.327 452.935 147.806L412.259 171.285C411.453 171.752 410.215 171.798 409.515 171.401Z" fill="#4553C7"/>
<path d="M409.841 145.413L405.043 142.634L407.658 141.128L412.468 143.895L409.841 145.413Z" fill="#42FFFF"/>
<path d="M418.773 145.015L413.963 147.794L411.348 146.276L416.146 143.497L418.773 145.015Z" fill="#42FFFF"/>
<path d="M408.756 146.042L406.129 147.548L403.514 146.042L406.129 144.524L408.756 146.042Z" fill="#42FFFF"/>
<path d="M417.817 151.273L415.19 152.779L407.636 148.424L410.251 146.906L417.817 151.273Z" fill="#42FFFF"/>
<path opacity="0.5" d="M243.83 400.073L195.005 371.878C193.942 371.271 194.082 370.196 195.296 369.496L221.834 354.015L274.501 384.417L247.963 399.898C246.737 400.599 244.893 400.68 243.83 400.073Z" fill="#242993"/>
<path d="M325.428 354.504V344.778H309.585L274.431 324.487C273.567 323.985 272.061 324.055 271.068 324.627L236.066 344.837H220.293V354.597C220.305 354.901 220.491 355.193 220.865 355.403L271.302 384.521C272.166 385.023 273.672 384.953 274.664 384.381L324.611 355.543C325.124 355.239 325.405 354.866 325.428 354.504Z" fill="url(#paint21_linear_0_1)"/>
<path d="M271.303 374.795L220.866 345.677C220.002 345.175 220.107 344.311 221.111 343.739L271.058 314.902C272.05 314.329 273.556 314.259 274.42 314.761L324.857 343.879C325.721 344.381 325.616 345.245 324.612 345.817L274.666 374.655C273.673 375.227 272.167 375.297 271.303 374.795Z" fill="url(#paint22_linear_0_1)"/>
<path d="M271.303 374.795L220.866 345.677C220.002 345.175 220.107 344.311 221.111 343.739L271.058 314.902C272.05 314.329 273.556 314.259 274.42 314.761L324.857 343.879C325.721 344.381 325.616 345.245 324.612 345.817L274.666 374.655C273.673 375.227 272.167 375.297 271.303 374.795Z" fill="url(#paint23_linear_0_1)"/>
<path d="M271.478 371.387L226.774 345.573C226.015 345.129 226.108 344.359 226.984 343.845L271.256 318.288C272.144 317.774 273.475 317.728 274.245 318.16L318.949 343.973C319.708 344.417 319.615 345.188 318.739 345.701L274.467 371.258C273.58 371.772 272.249 371.819 271.478 371.387Z" fill="#242993"/>
<path d="M271.595 369.227L230.522 345.514C229.821 345.106 229.903 344.405 230.72 343.927L271.396 320.448C272.202 319.981 273.44 319.934 274.14 320.331L315.213 344.043C315.914 344.452 315.832 345.152 315.015 345.631L274.339 369.11C273.533 369.577 272.295 369.624 271.595 369.227Z" fill="#4553C7"/>
<path d="M271.923 343.238L267.124 340.459L269.739 338.941L274.549 341.72L271.923 343.238Z" fill="#42FFFF"/>
<path d="M280.841 342.841L276.043 345.62L273.416 344.102L278.226 341.323L280.841 342.841Z" fill="#42FFFF"/>
<path d="M270.837 343.868L268.21 345.374L265.583 343.868L268.21 342.351L270.837 343.868Z" fill="#42FFFF"/>
<path d="M279.896 349.099L277.269 350.605L269.703 346.239L272.33 344.732L279.896 349.099Z" fill="#42FFFF"/>
<path opacity="0.4" d="M325.441 331.702L303.982 331.831L274.42 314.761C273.556 314.259 272.05 314.329 271.058 314.902L241.087 332.204L220.282 332.333V344.965H220.294C220.341 345.234 220.527 345.49 220.866 345.677L271.303 374.795C272.167 375.297 273.673 375.227 274.665 374.655L324.612 345.817C325.067 345.561 325.324 345.234 325.406 344.907L325.441 344.883V331.69V331.702Z" fill="#42FFFF"/>
<path d="M325.428 332.952V323.227H309.585L274.431 302.935C273.567 302.433 272.061 302.503 271.068 303.075L236.066 323.285H220.293V333.045C220.305 333.349 220.491 333.641 220.865 333.851L271.302 362.969C272.166 363.471 273.672 363.401 274.664 362.829L324.611 333.991C325.124 333.688 325.405 333.314 325.428 332.952Z" fill="url(#paint24_linear_0_1)"/>
<path d="M271.303 353.243L220.866 324.126C220.002 323.623 220.107 322.76 221.111 322.187L271.058 293.35C272.05 292.778 273.556 292.708 274.42 293.21L324.857 322.328C325.721 322.83 325.616 323.694 324.612 324.266L274.666 353.103C273.673 353.675 272.167 353.745 271.303 353.243Z" fill="url(#paint25_linear_0_1)"/>
<path d="M271.478 349.835L226.774 324.021C226.015 323.578 226.108 322.807 226.984 322.293L271.256 296.736C272.144 296.223 273.475 296.176 274.245 296.608L318.949 322.422C319.708 322.865 319.615 323.636 318.739 324.15L274.467 349.707C273.58 350.22 272.249 350.267 271.478 349.835Z" fill="#242993"/>
<path d="M271.595 347.662L230.522 323.95C229.821 323.541 229.903 322.841 230.72 322.362L271.396 298.883C272.202 298.416 273.44 298.37 274.14 298.767L315.213 322.479C315.914 322.887 315.832 323.588 315.015 324.067L274.339 347.545C273.533 348.012 272.295 348.059 271.595 347.662Z" fill="#4553C7"/>
<path d="M271.923 321.674L267.124 318.907L269.739 317.39L274.549 320.168L271.923 321.674Z" fill="#42FFFF"/>
<path d="M280.841 321.289L276.043 324.056L273.416 322.55L278.226 319.771L280.841 321.289Z" fill="#42FFFF"/>
<path d="M270.837 322.305L268.21 323.823L265.583 322.305L268.21 320.799L270.837 322.305Z" fill="#42FFFF"/>
<path d="M279.896 327.534L277.269 329.052L269.703 324.686L272.33 323.168L279.896 327.534Z" fill="#42FFFF"/>
<defs>
<linearGradient id="paint0_linear_0_1" x1="325.814" y1="50.3504" x2="243.878" y2="116.047" gradientUnits="userSpaceOnUse">
<stop stop-color="#BCD5FF"/>
<stop offset="0.15" stop-color="#A2BDFF"/>
<stop offset="0.39" stop-color="#819FFF"/>
<stop offset="0.61" stop-color="#6A89FF"/>
<stop offset="0.82" stop-color="#5B7CFF"/>
<stop offset="1" stop-color="#5778FF"/>
</linearGradient>
<linearGradient id="paint1_linear_0_1" x1="504.561" y1="164.629" x2="410.198" y2="179.119" gradientUnits="userSpaceOnUse">
<stop stop-color="#C0D6FF"/>
<stop offset="0.3" stop-color="#C4DAFF"/>
<stop offset="0.65" stop-color="#D3E9FF"/>
<stop offset="1" stop-color="#E9FFFF"/>
</linearGradient>
<linearGradient id="paint2_linear_0_1" x1="96.4864" y1="319.824" x2="14.55" y2="385.532" gradientUnits="userSpaceOnUse">
<stop stop-color="#BCD5FF"/>
<stop offset="0.15" stop-color="#A2BDFF"/>
<stop offset="0.39" stop-color="#819FFF"/>
<stop offset="0.61" stop-color="#6A89FF"/>
<stop offset="0.82" stop-color="#5B7CFF"/>
<stop offset="1" stop-color="#5778FF"/>
</linearGradient>
<linearGradient id="paint3_linear_0_1" x1="537.943" y1="585.76" x2="443.586" y2="600.239" gradientUnits="userSpaceOnUse">
<stop stop-color="#C0D6FF"/>
<stop offset="0.3" stop-color="#C4DAFF"/>
<stop offset="0.65" stop-color="#D3E9FF"/>
<stop offset="1" stop-color="#E9FFFF"/>
</linearGradient>
<linearGradient id="paint4_linear_0_1" x1="3.42853" y1="119.715" x2="205.047" y2="119.715" gradientUnits="userSpaceOnUse">
<stop stop-color="#C0D6FF"/>
<stop offset="0.3" stop-color="#C4DAFF"/>
<stop offset="0.65" stop-color="#D3E9FF"/>
<stop offset="1" stop-color="#E9FFFF"/>
</linearGradient>
<linearGradient id="paint5_linear_0_1" x1="3.42759" y1="171.413" x2="38.0562" y2="171.413" gradientUnits="userSpaceOnUse">
<stop stop-color="#5778FF"/>
<stop offset="0.18" stop-color="#5B7CFF"/>
<stop offset="0.39" stop-color="#6A89FF"/>
<stop offset="0.61" stop-color="#819FFF"/>
<stop offset="0.85" stop-color="#A2BDFF"/>
<stop offset="1" stop-color="#BCD5FF"/>
</linearGradient>
<linearGradient id="paint6_linear_0_1" x1="30.4462" y1="229.543" x2="315.204" y2="229.543" gradientUnits="userSpaceOnUse">
<stop stop-color="#5778FF"/>
<stop offset="0.18" stop-color="#5B7CFF"/>
<stop offset="0.39" stop-color="#6A89FF"/>
<stop offset="0.61" stop-color="#819FFF"/>
<stop offset="0.85" stop-color="#A2BDFF"/>
<stop offset="1" stop-color="#BCD5FF"/>
</linearGradient>
<linearGradient id="paint7_linear_0_1" x1="126.123" y1="220.052" x2="411.032" y2="220.052" gradientUnits="userSpaceOnUse">
<stop stop-color="#C0D6FF"/>
<stop offset="0.3" stop-color="#C4DAFF"/>
<stop offset="0.65" stop-color="#D3E9FF"/>
<stop offset="1" stop-color="#E9FFFF"/>
</linearGradient>
<linearGradient id="paint8_linear_0_1" x1="174.365" y1="236.221" x2="247.3" y2="236.221" gradientUnits="userSpaceOnUse">
<stop stop-color="#C0D6FF"/>
<stop offset="0.3" stop-color="#C4DAFF"/>
<stop offset="0.65" stop-color="#D3E9FF"/>
<stop offset="1" stop-color="#E9FFFF"/>
</linearGradient>
<linearGradient id="paint9_linear_0_1" x1="17.2712" y1="156.903" x2="302.169" y2="156.903" gradientUnits="userSpaceOnUse">
<stop stop-color="#C0D6FF"/>
<stop offset="0.3" stop-color="#C4DAFF"/>
<stop offset="0.65" stop-color="#D3E9FF"/>
<stop offset="1" stop-color="#E9FFFF"/>
</linearGradient>
<linearGradient id="paint10_linear_0_1" x1="-1.49119" y1="135.981" x2="71.4436" y2="135.981" gradientUnits="userSpaceOnUse">
<stop stop-color="#C0D6FF"/>
<stop offset="0.3" stop-color="#C4DAFF"/>
<stop offset="0.65" stop-color="#D3E9FF"/>
<stop offset="1" stop-color="#E9FFFF"/>
</linearGradient>
<radialGradient id="paint11_radial_0_1" cx="0" cy="0" r="1" gradientUnits="userSpaceOnUse" gradientTransform="translate(113.432 193.572) scale(81.6795 81.6795)">
<stop stop-color="#2B3AA5"/>
<stop offset="1" stop-color="#182484"/>
</radialGradient>
<radialGradient id="paint12_radial_0_1" cx="0" cy="0" r="1" gradientUnits="userSpaceOnUse" gradientTransform="translate(95.5696 156.83) scale(62.5206 62.5206)">
<stop stop-color="#2B3AA5"/>
<stop offset="1" stop-color="#182484"/>
</radialGradient>
<linearGradient id="paint13_linear_0_1" x1="73.0588" y1="174.88" x2="128.131" y2="75.7108" gradientUnits="userSpaceOnUse">
<stop stop-color="#5778FF"/>
<stop offset="0.04" stop-color="#5B7CFF"/>
<stop offset="0.09" stop-color="#6A89FF"/>
<stop offset="0.14" stop-color="#819FFF"/>
<stop offset="0.19" stop-color="#A2BDFF"/>
<stop offset="0.22" stop-color="#BCD5FF"/>
</linearGradient>
<linearGradient id="paint14_linear_0_1" x1="140.717" y1="175.23" x2="104.057" y2="103.568" gradientUnits="userSpaceOnUse">
<stop stop-color="#C0D6FF"/>
<stop offset="0.3" stop-color="#C4DAFF"/>
<stop offset="0.65" stop-color="#D3E9FF"/>
<stop offset="1" stop-color="#E9FFFF"/>
</linearGradient>
<linearGradient id="paint15_linear_0_1" x1="239.792" y1="304.042" x2="123.285" y2="97.6129" gradientUnits="userSpaceOnUse">
<stop stop-color="#C0D6FF"/>
<stop offset="0.08" stop-color="#C2D8FF"/>
<stop offset="0.13" stop-color="#CCE2FF"/>
<stop offset="0.18" stop-color="#DBF1FF"/>
<stop offset="0.21" stop-color="#E9FFFF"/>
<stop offset="0.26" stop-color="#D8EEFF"/>
<stop offset="0.31" stop-color="#CAE0FF"/>
<stop offset="0.39" stop-color="#C2D8FF"/>
<stop offset="0.51" stop-color="#C0D6FF"/>
<stop offset="0.62" stop-color="#D0E6FF"/>
<stop offset="0.75" stop-color="#E9FFFF"/>
<stop offset="1" stop-color="#C0D6FF"/>
</linearGradient>
<linearGradient id="paint16_linear_0_1" x1="440.898" y1="149.475" x2="358.961" y2="215.182" gradientUnits="userSpaceOnUse">
<stop stop-color="#BCD5FF"/>
<stop offset="0.15" stop-color="#A2BDFF"/>
<stop offset="0.39" stop-color="#819FFF"/>
<stop offset="0.61" stop-color="#6A89FF"/>
<stop offset="0.82" stop-color="#5B7CFF"/>
<stop offset="1" stop-color="#5778FF"/>
</linearGradient>
<linearGradient id="paint17_linear_0_1" x1="695.669" y1="307.649" x2="601.312" y2="322.129" gradientUnits="userSpaceOnUse">
<stop stop-color="#C0D6FF"/>
<stop offset="0.3" stop-color="#C4DAFF"/>
<stop offset="0.65" stop-color="#D3E9FF"/>
<stop offset="1" stop-color="#E9FFFF"/>
</linearGradient>
<linearGradient id="paint18_linear_0_1" x1="695.669" y1="307.649" x2="601.312" y2="322.129" gradientUnits="userSpaceOnUse">
<stop stop-color="#C0D6FF"/>
<stop offset="0.3" stop-color="#C4DAFF"/>
<stop offset="0.65" stop-color="#D3E9FF"/>
<stop offset="1" stop-color="#E9FFFF"/>
</linearGradient>
<linearGradient id="paint19_linear_0_1" x1="440.898" y1="127.922" x2="358.961" y2="193.618" gradientUnits="userSpaceOnUse">
<stop stop-color="#BCD5FF"/>
<stop offset="0.15" stop-color="#A2BDFF"/>
<stop offset="0.39" stop-color="#819FFF"/>
<stop offset="0.61" stop-color="#6A89FF"/>
<stop offset="0.82" stop-color="#5B7CFF"/>
<stop offset="1" stop-color="#5778FF"/>
</linearGradient>
<linearGradient id="paint20_linear_0_1" x1="686.338" y1="280.705" x2="591.971" y2="295.179" gradientUnits="userSpaceOnUse">
<stop stop-color="#C0D6FF"/>
<stop offset="0.3" stop-color="#C4DAFF"/>
<stop offset="0.65" stop-color="#D3E9FF"/>
<stop offset="1" stop-color="#E9FFFF"/>
</linearGradient>
<linearGradient id="paint21_linear_0_1" x1="302.965" y1="325.748" x2="221.04" y2="391.444" gradientUnits="userSpaceOnUse">
<stop stop-color="#BCD5FF"/>
<stop offset="0.15" stop-color="#A2BDFF"/>
<stop offset="0.39" stop-color="#819FFF"/>
<stop offset="0.61" stop-color="#6A89FF"/>
<stop offset="0.82" stop-color="#5B7CFF"/>
<stop offset="1" stop-color="#5778FF"/>
</linearGradient>
<linearGradient id="paint22_linear_0_1" x1="744.139" y1="591.515" x2="649.782" y2="605.995" gradientUnits="userSpaceOnUse">
<stop stop-color="#C0D6FF"/>
<stop offset="0.3" stop-color="#C4DAFF"/>
<stop offset="0.65" stop-color="#D3E9FF"/>
<stop offset="1" stop-color="#E9FFFF"/>
</linearGradient>
<linearGradient id="paint23_linear_0_1" x1="744.139" y1="591.515" x2="649.782" y2="605.995" gradientUnits="userSpaceOnUse">
<stop stop-color="#C0D6FF"/>
<stop offset="0.3" stop-color="#C4DAFF"/>
<stop offset="0.65" stop-color="#D3E9FF"/>
<stop offset="1" stop-color="#E9FFFF"/>
</linearGradient>
<linearGradient id="paint24_linear_0_1" x1="302.965" y1="304.184" x2="221.04" y2="369.892" gradientUnits="userSpaceOnUse">
<stop stop-color="#BCD5FF"/>
<stop offset="0.15" stop-color="#A2BDFF"/>
<stop offset="0.39" stop-color="#819FFF"/>
<stop offset="0.61" stop-color="#6A89FF"/>
<stop offset="0.82" stop-color="#5B7CFF"/>
<stop offset="1" stop-color="#5778FF"/>
</linearGradient>
<linearGradient id="paint25_linear_0_1" x1="734.808" y1="564.572" x2="640.451" y2="579.052" gradientUnits="userSpaceOnUse">
<stop stop-color="#C0D6FF"/>
<stop offset="0.3" stop-color="#C4DAFF"/>
<stop offset="0.65" stop-color="#D3E9FF"/>
<stop offset="1" stop-color="#E9FFFF"/>
</linearGradient>
</defs>
</svg>
