<svg width="auto" height="454" viewBox="0 0 464 454" fill="none" xmlns="http://www.w3.org/2000/svg">
<path d="M232.003 453.093C229.769 453.093 227.537 452.519 225.545 451.369L150.761 408.193L151.229 407.382L226.013 450.558C229.71 452.691 234.298 452.691 237.994 450.558L312.8 407.368L313.268 408.179L238.462 451.368C236.47 452.519 234.236 453.093 232.003 453.093Z" fill="#8686F2"/>
<path d="M373.318 373.51L372.85 372.699L462.403 320.994C462.816 320.755 463.064 320.326 463.064 319.851C463.064 319.372 462.816 318.944 462.403 318.705L369.522 265.081L369.99 264.27L462.871 317.894C463.577 318.303 464 319.033 464 319.851C464 320.665 463.577 321.397 462.871 321.805L373.318 373.51Z" fill="#8686F2"/>
<path d="M87.7546 371.817L1.12847 321.803C0.420226 321.394 -0.000976562 320.663 -0.000976562 319.845C-0.000976562 319.029 0.421786 318.299 1.12847 317.89L94.029 264.254L94.497 265.065L1.59648 318.702C1.18308 318.94 0.935043 319.369 0.935043 319.845C0.935043 320.324 1.18152 320.753 1.59648 320.992L88.2211 371.006L87.7546 371.817Z" fill="#8686F2"/>
<path d="M122 280.348C121.146 280.348 120.327 280.172 119.703 279.81L68.0855 250.009C67.4193 249.624 67.0512 249.073 67.0527 248.455C67.0527 247.742 67.5551 247.043 68.4302 246.539L119.355 217.136C120.914 216.238 123.204 216.149 124.567 216.938L176.185 246.739C176.851 247.124 177.218 247.677 177.218 248.293C177.218 249.006 176.716 249.705 175.84 250.209L124.915 279.612C124.071 280.099 123.011 280.348 122 280.348ZM120.103 279.117C121.207 279.755 123.229 279.663 124.516 278.919L175.441 249.516C176.054 249.162 176.418 248.705 176.418 248.291C176.419 247.881 176.073 247.597 175.786 247.43L124.168 217.629C123.065 216.994 121.043 217.085 119.755 217.827L68.8296 247.231C68.2165 247.585 67.8515 248.042 67.8515 248.455C67.8499 248.865 68.1962 249.149 68.4833 249.316L120.103 279.117Z" fill="#8686F2"/>
<path d="M176.819 226.565V232.901L122.004 264.549L67.1846 232.899V226.564L176.819 226.565Z" fill="url(#paint0_linear_208_6973)"/>
<path d="M122.004 258.213L67.1846 226.564L122.002 194.916L176.819 226.565L122.004 258.213Z" fill="#BCBEFF"/>
<path d="M122.004 257.474L67.8258 226.194L67.1846 226.564L122.004 258.213L176.819 226.565L176.178 226.195L122.004 257.474Z" fill="white"/>
<path d="M122.002 250.913L79.8408 226.571L122.002 202.228L164.163 226.571L122.002 250.913Z" fill="#0F054C"/>
<path opacity="0.5" d="M122.002 250.913L79.8398 226.571L122.002 202.228L164.165 226.572L122.002 250.913Z" fill="url(#paint1_linear_208_6973)"/>
<path opacity="0.5" d="M122.003 196.091L164.165 220.433V226.57L122.003 202.228V196.091Z" fill="url(#paint2_linear_208_6973)"/>
<path opacity="0.5" d="M122.002 202.228L79.8398 226.57V220.432L122.002 196.091V202.228Z" fill="url(#paint3_linear_208_6973)"/>
<path opacity="0.5" d="M122.002 244.776L79.8398 220.432L122.002 196.091L164.165 220.433L122.002 244.776Z" fill="url(#paint4_linear_208_6973)"/>
<path opacity="0.5" d="M122.002 230.159L105.155 220.433L122.002 210.706L138.848 220.433L122.002 230.159Z" fill="#42E8E0"/>
<path opacity="0.5" d="M122.002 211.6L138.075 220.879L138.85 220.433L122.002 210.706L105.155 220.433L105.931 220.879L122.002 211.6Z" fill="#42E8E0"/>
<path opacity="0.5" d="M122.003 244.776V250.913L164.165 226.571V220.434L122.003 244.776Z" fill="url(#paint5_linear_208_6973)"/>
<path opacity="0.5" d="M79.8398 220.432V226.571L122.002 250.913V244.776L79.8398 220.432Z" fill="url(#paint6_linear_208_6973)"/>
<path opacity="0.8" d="M122.002 244.105L80.4202 220.098L79.8398 220.432L122.002 244.776L164.165 220.434L163.585 220.098L122.002 244.105Z" fill="#42E8E0"/>
<path d="M122 424.132C121.146 424.132 120.327 423.956 119.703 423.594L68.0855 393.793C67.4193 393.408 67.0512 392.857 67.0527 392.239C67.0527 391.526 67.5551 390.828 68.4302 390.324L119.355 360.921C120.914 360.02 123.204 359.933 124.567 360.722L176.185 390.523C176.851 390.909 177.218 391.459 177.218 392.077C177.218 392.79 176.716 393.489 175.84 393.993L124.915 423.396C124.071 423.883 123.011 424.132 122 424.132ZM120.103 422.902C121.207 423.54 123.229 423.448 124.516 422.703L175.441 393.3C176.054 392.946 176.418 392.489 176.418 392.076C176.419 391.665 176.073 391.381 175.786 391.214L124.168 361.413C123.065 360.779 121.043 360.869 119.755 361.612L68.8296 391.015C68.2165 391.369 67.8515 391.826 67.8515 392.239C67.8499 392.65 68.1962 392.934 68.4833 393.101L120.103 422.902Z" fill="#8686F2"/>
<path d="M176.819 370.35V376.683L122.004 408.331L67.1846 376.683V370.348L176.819 370.35Z" fill="url(#paint7_linear_208_6973)"/>
<path d="M122.004 401.998L67.1846 370.348L122.002 338.7L176.819 370.35L122.004 401.998Z" fill="#BCBEFF"/>
<path d="M122.004 401.257L67.8258 369.979L67.1846 370.348L122.004 401.998L176.819 370.35L176.178 369.98L122.004 401.257Z" fill="white"/>
<path d="M122.002 394.698L79.8408 370.356L122.002 346.013L164.163 370.356L122.002 394.698Z" fill="#0F054C"/>
<path opacity="0.5" d="M122.002 394.698L79.8398 370.356L122.002 346.013L164.165 370.356L122.002 394.698Z" fill="url(#paint8_linear_208_6973)"/>
<path opacity="0.5" d="M122.003 339.875L164.165 364.219V370.356L122.003 346.013V339.875Z" fill="url(#paint9_linear_208_6973)"/>
<path opacity="0.5" d="M122.002 346.013L79.8398 370.356V364.217L122.002 339.875V346.013Z" fill="url(#paint10_linear_208_6973)"/>
<path opacity="0.5" d="M122.002 388.559L79.8398 364.217L122.002 339.875L164.165 364.219L122.002 388.559Z" fill="url(#paint11_linear_208_6973)"/>
<path opacity="0.5" d="M122.002 373.944L105.155 364.217L122.002 354.49L138.848 364.217L122.002 373.944Z" fill="#42E8E0"/>
<path opacity="0.5" d="M122.002 355.386L138.075 364.665L138.85 364.217L122.002 354.49L105.155 364.217L105.931 364.665L122.002 355.386Z" fill="#42E8E0"/>
<path opacity="0.5" d="M122.003 388.559V394.698L164.165 370.356V364.219L122.003 388.559Z" fill="url(#paint12_linear_208_6973)"/>
<path opacity="0.5" d="M79.8398 364.217V370.356L122.002 394.698V388.56L79.8398 364.217Z" fill="url(#paint13_linear_208_6973)"/>
<path opacity="0.8" d="M122.002 387.89L80.4202 363.882L79.8398 364.217L122.002 388.559L164.165 364.219L163.585 363.883L122.002 387.89Z" fill="#42E8E0"/>
<path d="M341.725 280.348C340.872 280.348 340.053 280.172 339.429 279.81L287.811 250.009C287.145 249.624 286.778 249.073 286.778 248.455C286.778 247.742 287.281 247.043 288.156 246.539L339.081 217.136C340.639 216.238 342.93 216.149 344.293 216.938L395.911 246.739C396.577 247.124 396.945 247.677 396.944 248.293C396.944 249.006 396.441 249.705 395.566 250.209L344.641 279.612C343.797 280.099 342.736 280.348 341.725 280.348ZM339.828 279.117C340.933 279.755 342.953 279.663 344.242 278.919L395.167 249.516C395.78 249.162 396.143 248.705 396.143 248.291C396.145 247.881 395.799 247.597 395.511 247.43L343.894 217.629C342.791 216.994 340.769 217.085 339.48 217.827L288.555 247.231C287.944 247.585 287.579 248.042 287.579 248.455C287.577 248.865 287.923 249.149 288.21 249.316L339.828 279.117Z" fill="#8686F2"/>
<path d="M396.546 226.565V232.901L341.73 264.549L286.911 232.899V226.564L396.546 226.565Z" fill="url(#paint14_linear_208_6973)"/>
<path d="M341.73 258.213L286.911 226.564L341.729 194.916L396.546 226.565L341.73 258.213Z" fill="#BCBEFF"/>
<path d="M341.73 257.474L287.552 226.194L286.911 226.564L341.73 258.213L396.546 226.565L395.905 226.195L341.73 257.474Z" fill="white"/>
<path d="M341.729 250.915L299.566 226.572L341.727 202.229L383.89 226.572L341.729 250.915Z" fill="#0F054C"/>
<path opacity="0.5" d="M341.728 250.914L299.563 226.572L341.726 202.229L383.889 226.573L341.728 250.914Z" fill="url(#paint15_linear_208_6973)"/>
<path opacity="0.5" d="M341.727 196.091L383.889 220.434V226.571L341.727 202.228V196.091Z" fill="url(#paint16_linear_208_6973)"/>
<path opacity="0.5" d="M341.728 202.228L299.563 226.571V220.432L341.726 196.091L341.728 202.228Z" fill="url(#paint17_linear_208_6973)"/>
<path opacity="0.5" d="M341.728 244.776L299.563 220.432L341.726 196.091L383.889 220.434L341.728 244.776Z" fill="url(#paint18_linear_208_6973)"/>
<path opacity="0.5" d="M341.726 230.16L324.879 220.433L341.726 210.707L358.574 220.433L341.726 230.16Z" fill="#42E8E0"/>
<path opacity="0.5" d="M341.726 211.6L357.798 220.879L358.574 220.433L341.726 210.707L324.879 220.433L325.654 220.879L341.726 211.6Z" fill="#42E8E0"/>
<path opacity="0.5" d="M341.728 244.777V250.914L383.889 226.571V220.434L341.728 244.777Z" fill="url(#paint19_linear_208_6973)"/>
<path opacity="0.5" d="M299.563 220.432V226.571L341.728 250.914V244.776L299.563 220.432Z" fill="url(#paint20_linear_208_6973)"/>
<path opacity="0.8" d="M341.73 244.106L300.146 220.099L299.565 220.432L341.73 244.777L383.891 220.434L383.31 220.099L341.73 244.106Z" fill="#42E8E0"/>
<path d="M341.725 424.132C340.872 424.132 340.053 423.956 339.429 423.594L287.811 393.793C287.145 393.408 286.778 392.857 286.778 392.239C286.778 391.526 287.281 390.828 288.156 390.324L339.081 360.921C340.639 360.02 342.93 359.933 344.293 360.722L395.911 390.523C396.577 390.909 396.945 391.459 396.944 392.077C396.944 392.79 396.441 393.489 395.566 393.993L344.641 423.396C343.797 423.883 342.736 424.132 341.725 424.132ZM339.828 422.902C340.933 423.54 342.953 423.448 344.242 422.703L395.167 393.3C395.78 392.946 396.143 392.489 396.143 392.076C396.145 391.665 395.799 391.381 395.511 391.214L343.894 361.413C342.791 360.779 340.769 360.869 339.48 361.612L288.555 391.015C287.944 391.369 287.579 391.826 287.579 392.239C287.577 392.65 287.923 392.934 288.21 393.101L339.828 422.902Z" fill="#8686F2"/>
<path d="M396.546 370.349V376.683L341.73 408.331L286.911 376.683V370.347L396.546 370.349Z" fill="url(#paint21_linear_208_6973)"/>
<path d="M341.73 401.997L286.911 370.347L341.729 338.699L396.546 370.349L341.73 401.997Z" fill="#BCBEFF"/>
<path d="M341.73 401.256L287.552 369.978L286.911 370.348L341.73 401.997L396.546 370.349L395.905 369.979L341.73 401.256Z" fill="white"/>
<path d="M341.729 394.698L299.566 370.355L341.727 346.013L383.89 370.355L341.729 394.698Z" fill="#0F054C"/>
<path opacity="0.5" d="M341.728 394.697L299.563 370.355L341.726 346.012L383.889 370.355L341.728 394.697Z" fill="url(#paint22_linear_208_6973)"/>
<path opacity="0.5" d="M341.727 339.874L383.889 364.218V370.355L341.727 346.012V339.874Z" fill="url(#paint23_linear_208_6973)"/>
<path opacity="0.5" d="M341.728 346.012L299.563 370.355V364.216L341.726 339.874L341.728 346.012Z" fill="url(#paint24_linear_208_6973)"/>
<path opacity="0.5" d="M341.728 388.558L299.563 364.216L341.726 339.874L383.889 364.218L341.728 388.558Z" fill="url(#paint25_linear_208_6973)"/>
<path opacity="0.5" d="M341.726 373.943L324.879 364.216L341.726 354.489L358.574 364.216L341.726 373.943Z" fill="#42E8E0"/>
<path opacity="0.5" d="M341.726 355.385L357.798 364.664L358.574 364.216L341.726 354.489L324.879 364.216L325.654 364.664L341.726 355.385Z" fill="#42E8E0"/>
<path opacity="0.5" d="M341.728 388.558V394.697L383.889 370.355V364.218L341.728 388.558Z" fill="url(#paint26_linear_208_6973)"/>
<path opacity="0.5" d="M299.563 364.216V370.355L341.728 394.697V388.559L299.563 364.216Z" fill="url(#paint27_linear_208_6973)"/>
<path opacity="0.8" d="M341.73 387.89L300.146 363.881L299.565 364.216L341.73 388.559L383.891 364.218L383.31 363.882L341.73 387.89Z" fill="#42E8E0"/>
<path d="M232.002 154.729L134.576 98.4808L231.999 42.2344L329.424 98.4823L232.002 154.729Z" fill="#BCBEFF"/>
<path opacity="0.7" d="M232 149.663L143.351 98.4807L231.999 47.3013L320.648 98.4823L232 149.663Z" fill="#453C9E"/>
<path d="M232.001 388.011L231.767 387.875L104.487 314.39L231.998 240.773L232.232 240.909L359.513 314.393L232.001 388.011ZM106.359 314.389L232.001 386.928L357.641 314.392L231.998 241.853L106.359 314.389Z" fill="#8686F2"/>
<path d="M232.002 370.638L134.576 314.39L231.999 258.144L329.424 314.391L232.002 370.638Z" fill="white"/>
<path d="M329.422 98.4824V314.392L232.001 370.638V154.729L329.422 98.4824Z" fill="url(#paint28_linear_208_6973)"/>
<path d="M134.576 98.481V314.39L232.002 370.638V154.729L134.576 98.481Z" fill="#24126A"/>
<g opacity="0.51">
<path d="M141.175 112.807V306.873L225.4 355.5V161.434L141.175 112.807Z" fill="#453C9E"/>
</g>
<path d="M314.81 150.647V156.354L246.615 195.727V190.02L314.81 150.647Z" fill="#453C9E"/>
<path d="M314.81 174.778V180.484L246.615 219.856V214.15L314.81 174.778Z" fill="#453C9E"/>
<path d="M314.81 198.907V204.614L246.615 243.987V238.28L314.81 198.907Z" fill="#453C9E"/>
<path d="M314.81 223.037V228.744L246.615 268.117V262.409L314.81 223.037Z" fill="#453C9E"/>
<path d="M314.81 247.166V252.872L246.615 292.246V286.539L314.81 247.166Z" fill="#453C9E"/>
<path d="M314.81 271.296V277.003L246.615 316.376V310.668L314.81 271.296Z" fill="#453C9E"/>
<path d="M232.002 152.902L136.16 97.5669L134.576 98.4811L232.002 154.729L329.424 98.4826L327.84 97.57L232.002 152.902Z" fill="white"/>
<g opacity="0.51">
<path d="M134.574 280.269L231.999 221.447L232 154.728L134.574 98.4805V280.269Z" fill="#453C9E"/>
</g>
<path d="M151.265 181.534L163.389 188.535L163.391 186.431L151.266 179.43L151.265 181.534Z" fill="#42E8E0"/>
<path d="M165.336 189.652L171.943 193.466L171.944 191.364L165.337 187.549L165.336 189.652Z" fill="#42E8E0"/>
<path d="M182.22 199.394L187 202.154L187.001 200.05L182.221 197.29L182.22 199.394Z" fill="#42E8E0"/>
<path d="M178.735 197.381L180.369 198.325L180.372 196.22L178.738 195.278L178.735 197.381Z" fill="#42E8E0"/>
<path d="M173.916 194.6L176.883 196.312L176.885 194.208L173.919 192.495L173.916 194.6Z" fill="#42E8E0"/>
<path d="M162.472 197.624L167.252 200.384L167.253 198.281L162.473 195.52L162.472 197.624Z" fill="#42E8E0"/>
<path d="M151.253 191.147L160.618 196.554L160.621 194.451L151.255 189.042L151.253 191.147Z" fill="#42E8E0"/>
<path d="M168.714 225.24L178.079 230.649L178.082 228.544L168.715 223.137L168.714 225.24Z" fill="#42E8E0"/>
<path d="M163.895 222.459L166.862 224.172L166.863 222.068L163.898 220.355L163.895 222.459Z" fill="#42E8E0"/>
<path d="M168.665 215.616L178.03 221.024L178.031 218.92L168.667 213.513L168.665 215.616Z" fill="#42E8E0"/>
<path d="M163.847 212.835L166.814 214.548L166.815 212.443L163.848 210.732L163.847 212.835Z" fill="#42E8E0"/>
<path d="M168.771 266.778L151.129 256.593L151.126 258.696L168.77 268.883L168.771 266.778Z" fill="#42E8E0"/>
<path d="M174.988 270.369L170.623 267.848L170.621 269.953L174.986 272.472L174.988 270.369Z" fill="#42E8E0"/>
<path d="M203.562 272.408L185.919 262.221L185.918 264.326L203.56 274.513L203.562 272.408Z" fill="#42E8E0"/>
<path d="M209.781 275.998L205.415 273.479L205.413 275.582L209.778 278.103L209.781 275.998Z" fill="#42E8E0"/>
<path d="M155.913 254.546L151.133 251.787L151.132 253.891L155.912 256.651L155.913 254.546Z" fill="#42E8E0"/>
<path d="M183.377 260.776L178.597 258.016L178.596 260.119L183.376 262.878L183.377 260.776Z" fill="#42E8E0"/>
<path d="M167.131 261.023L157.766 255.616L157.765 257.719L167.129 263.128L167.131 261.023Z" fill="#42E8E0"/>
<path d="M171.949 263.806L168.984 262.093L168.98 264.196L171.948 265.909L171.949 263.806Z" fill="#42E8E0"/>
<path d="M183.252 270.321L173.887 264.914L173.884 267.017L183.249 272.426L183.252 270.321Z" fill="#42E8E0"/>
<path d="M188.07 273.102L185.104 271.391L185.103 273.494L188.068 275.207L188.07 273.102Z" fill="#42E8E0"/>
<path d="M183.373 265.583L178.593 262.823L178.59 264.928L183.37 267.688L183.373 265.583Z" fill="#42E8E0"/>
<path d="M194.59 272.06L185.225 266.653L185.224 268.756L194.588 274.165L194.59 272.06Z" fill="#42E8E0"/>
<path d="M199.408 274.843L196.441 273.13L196.439 275.233L199.405 276.946L199.408 274.843Z" fill="#42E8E0"/>
<path d="M160.919 252.627L151.139 246.98L151.138 249.085L160.917 254.732L160.919 252.627Z" fill="#42E8E0"/>
<path d="M169.842 257.78L162.769 253.697L162.768 255.8L169.839 259.884L169.842 257.78Z" fill="#42E8E0"/>
<path d="M176.475 261.61L171.695 258.85L171.693 260.955L176.473 263.714L176.475 261.61Z" fill="#42E8E0"/>
<path d="M208.81 219.543L218.589 225.19L218.591 223.085L208.811 217.438L208.81 219.543Z" fill="#42E8E0"/>
<path d="M199.886 214.39L206.957 218.473L206.96 216.37L199.887 212.286L199.886 214.39Z" fill="#42E8E0"/>
<path d="M193.253 210.56L198.033 213.32L198.034 211.215L193.255 208.456L193.253 210.56Z" fill="#42E8E0"/>
<path d="M204.753 212.374L214.533 218.02L214.536 215.917L204.756 210.27L204.753 212.374Z" fill="#42E8E0"/>
<path d="M195.828 207.22L202.901 211.304L202.903 209.199L195.831 205.117L195.828 207.22Z" fill="#42E8E0"/>
<path d="M189.196 203.392L193.976 206.152L193.978 204.047L189.198 201.288L189.196 203.392Z" fill="#42E8E0"/>
<path d="M170.117 221.268L173.42 223.174L173.423 221.071L170.119 219.163L170.117 221.268Z" fill="#42E8E0"/>
<path d="M163.897 217.677L168.264 220.198L168.266 218.093L163.901 215.574L163.897 217.677Z" fill="#42E8E0"/>
<path d="M160.983 247.851L151.205 242.203L151.202 244.306L160.982 249.954L160.983 247.851Z" fill="#42E8E0"/>
<path d="M169.907 253.003L162.836 248.919L162.834 251.023L169.906 255.108L169.907 253.003Z" fill="#42E8E0"/>
<path d="M176.541 256.833L171.761 254.071L171.76 256.176L176.538 258.935L176.541 256.833Z" fill="#42E8E0"/>
<path d="M154.513 239.305L151.209 237.397L151.207 239.501L154.51 241.408L154.513 239.305Z" fill="#42E8E0"/>
<path d="M160.73 242.894L156.365 240.375L156.363 242.478L160.728 244.999L160.73 242.894Z" fill="#42E8E0"/>
<path d="M169.615 248.025L162.583 243.964L162.581 246.067L169.614 250.13L169.615 248.025Z" fill="#42E8E0"/>
<path d="M172.187 208.016L175.489 209.924L175.491 207.819L172.188 205.911L172.187 208.016Z" fill="#42E8E0"/>
<path d="M165.968 204.426L170.333 206.945L170.334 204.842L165.969 202.321L165.968 204.426Z" fill="#42E8E0"/>
<path d="M157.083 199.295L164.117 203.356L164.119 201.251L157.085 197.19L157.083 199.295Z" fill="#42E8E0"/>
<path d="M177.966 215.817L185 219.878L185.002 217.775L177.967 213.712L177.966 215.817Z" fill="#42E8E0"/>
<path d="M166.52 209.552L176 215.026L176.001 212.922L166.521 207.448L166.52 209.552Z" fill="#42E8E0"/>
<path d="M161.703 206.771L164.67 208.482L164.672 206.379L161.706 204.667L161.703 206.771Z" fill="#42E8E0"/>
<path d="M157.078 204.1L160.044 205.812L160.047 203.708L157.08 201.995L157.078 204.1Z" fill="#42E8E0"/>
<path d="M161.814 231.255L171.179 236.664L171.182 234.56L161.816 229.153L161.814 231.255Z" fill="#42E8E0"/>
<path d="M156.995 228.474L159.962 230.187L159.964 228.082L156.998 226.369L156.995 228.474Z" fill="#42E8E0"/>
<path d="M163.268 236.907L166.572 238.814L166.573 236.711L163.271 234.803L163.268 236.907Z" fill="#42E8E0"/>
<path d="M173.31 233.055L176.612 234.962L176.614 232.858L173.311 230.952L173.31 233.055Z" fill="#42E8E0"/>
<path d="M178.017 235.77L185.941 240.344L185.945 238.239L178.018 233.665L178.017 235.77Z" fill="#42E8E0"/>
<path d="M187.349 241.152L192.063 243.873L192.066 241.77L187.352 239.048L187.349 241.152Z" fill="#42E8E0"/>
<path d="M157.051 233.317L161.416 235.837L161.417 233.733L157.052 231.214L157.051 233.317Z" fill="#42E8E0"/>
<path d="M157.433 238.256L160.735 240.162L160.737 238.059L157.434 236.151L157.433 238.256Z" fill="#42E8E0"/>
<path d="M151.214 234.664L155.579 237.185L155.582 235.081L151.215 232.562L151.214 234.664Z" fill="#42E8E0"/>
<path d="M168.516 230.29L171.481 232.003L171.483 229.9L168.517 228.187L168.516 230.29Z" fill="#42E8E0"/>
<path d="M163.891 227.621L166.858 229.333L166.859 227.229L163.894 225.516L163.891 227.621Z" fill="#42E8E0"/>
<path d="M180.963 203.464L191.081 209.306L191.083 207.202L180.964 201.361L180.963 203.464Z" fill="#42E8E0"/>
<path d="M169.63 196.921L179.11 202.393L179.113 200.291L169.633 194.816L169.63 196.921Z" fill="#42E8E0"/>
<path d="M164.814 194.138L167.78 195.851L167.782 193.746L164.816 192.033L164.814 194.138Z" fill="#42E8E0"/>
<path d="M160.187 191.467L163.154 193.18L163.155 191.077L160.19 189.364L160.187 191.467Z" fill="#42E8E0"/>
<path d="M157.66 190.008L151.259 186.312L151.26 184.208L157.661 187.903L157.66 190.008Z" fill="#42E8E0"/>
<path d="M232 112.706L134.574 56.4583L231.997 0.211914L329.422 56.4599L232 112.706Z" fill="#BCBEFF"/>
<path d="M231.998 97.3484L161.177 56.4588L231.997 15.5708L302.818 56.4588L231.998 97.3484Z" fill="#453C9E"/>
<path d="M231.997 18.3398L300.421 57.8441L302.818 56.4588L231.997 15.5708L161.177 56.4588L163.574 57.8426L231.997 18.3398Z" fill="white"/>
<path d="M329.421 56.46V88.342L232 144.588V112.706L329.421 56.46Z" fill="url(#paint29_linear_208_6973)"/>
<path d="M134.574 56.4585V88.3406L232 144.589V112.706L134.574 56.4585Z" fill="#24126A"/>
<g opacity="0.51">
<path d="M141.177 70.7827V80.823L225.402 129.45V119.41L141.177 70.7827Z" fill="#453C9E"/>
</g>
<path d="M232 110.879L136.158 55.5449L134.574 56.4591L232 112.707L329.422 56.4606L327.838 55.5465L232 110.879Z" fill="white"/>
<path d="M314.809 78.8013V84.5078L246.614 123.881V118.175L314.809 78.8013Z" fill="#453C9E"/>
<path opacity="0.51" d="M134.574 56.4585V88.3406L232 144.589V112.706L134.574 56.4585Z" fill="#453C9E"/>
<path d="M203.561 111.011L185.919 100.824L185.917 102.929L203.559 113.116L203.561 111.011Z" fill="#42E8E0"/>
<path d="M183.372 99.3788L178.592 96.6191L178.591 98.7221L183.371 101.482L183.372 99.3788Z" fill="#42E8E0"/>
<path d="M160.981 86.4518L151.203 80.8062L151.2 82.9091L160.98 88.5563L160.981 86.4518Z" fill="#42E8E0"/>
<path d="M169.906 91.6056L162.835 87.5215L162.833 89.6259L169.905 93.7085L169.906 91.6056Z" fill="#42E8E0"/>
<path d="M176.54 95.4354L171.76 92.6758L171.759 94.7802L176.537 97.5399L176.54 95.4354Z" fill="#42E8E0"/>
<path d="M232.097 29.6076L229.004 27.8214L232.097 26.0352L235.191 27.8214L232.097 29.6076Z" fill="#42E8E0"/>
<path opacity="0.1" d="M238.284 33.1803L235.19 31.3941L238.284 29.6079L241.377 31.3941L238.284 33.1803Z" fill="#42E8E0"/>
<path opacity="0.4" d="M244.471 36.7531L241.378 34.9669L244.471 33.1807L247.565 34.9669L244.471 36.7531Z" fill="#42E8E0"/>
<path d="M250.659 40.3249L247.565 38.5387L250.659 36.7524L253.752 38.5387L250.659 40.3249Z" fill="#42E8E0"/>
<path opacity="0.4" d="M256.846 43.8976L253.753 42.1114L256.846 40.3252L259.94 42.1114L256.846 43.8976Z" fill="#42E8E0"/>
<path d="M263.034 47.4688L259.94 45.6826L263.034 43.8979L266.127 45.6842L263.034 47.4688Z" fill="#42E8E0"/>
<path d="M269.219 51.0397L266.125 49.2535L269.219 47.4673L272.312 49.2535L269.219 51.0397Z" fill="#42E8E0"/>
<path d="M275.407 54.6125L272.313 52.8263L275.407 51.04L278.5 52.8263L275.407 54.6125Z" fill="#42E8E0"/>
<path opacity="0.1" d="M281.594 58.1852L278.501 56.399L281.594 54.6128L284.688 56.399L281.594 58.1852Z" fill="#42E8E0"/>
<path d="M225.886 33.1944L222.792 31.4082L225.886 29.6235L228.979 31.4082L225.886 33.1944Z" fill="#42E8E0"/>
<path d="M232.072 36.7668L228.979 34.9806L232.072 33.1943L235.166 34.9806L232.072 36.7668Z" fill="#42E8E0"/>
<path d="M238.26 40.3395L235.166 38.5533L238.26 36.7671L241.353 38.5533L238.26 40.3395Z" fill="#42E8E0"/>
<path d="M244.447 43.9123L241.354 42.1261L244.447 40.3398L247.541 42.1261L244.447 43.9123Z" fill="#42E8E0"/>
<path d="M250.635 47.485L247.541 45.6988L250.635 43.9126L253.728 45.6988L250.635 47.485Z" fill="#42E8E0"/>
<path d="M256.822 51.0573L253.729 49.2711L256.822 47.4849L259.916 49.2711L256.822 51.0573Z" fill="#42E8E0"/>
<path d="M263.007 54.627L259.913 52.8408L263.007 51.0562L266.1 52.8408L263.007 54.627Z" fill="#42E8E0"/>
<path d="M269.196 58.1994L266.101 56.4132L269.194 54.627L272.289 56.4132L269.196 58.1994Z" fill="#42E8E0"/>
<path d="M275.385 61.7721L272.291 59.9859L275.385 58.1997L278.478 59.9859L275.385 61.7721Z" fill="#42E8E0"/>
<path d="M219.673 36.7808L216.578 34.9962L219.672 33.21L222.767 34.9962L219.673 36.7808Z" fill="#42E8E0"/>
<path d="M225.86 40.3532L222.767 38.567L225.86 36.7808L228.954 38.567L225.86 40.3532Z" fill="#42E8E0"/>
<path d="M232.047 43.9259L228.953 42.1397L232.047 40.3535L235.14 42.1397L232.047 43.9259Z" fill="#42E8E0"/>
<path opacity="0.1" d="M238.234 47.4987L235.141 45.7125L238.234 43.9263L241.328 45.7125L238.234 47.4987Z" fill="#42E8E0"/>
<path opacity="0.4" d="M244.423 51.0715L241.329 49.2852L244.423 47.499L247.516 49.2852L244.423 51.0715Z" fill="#42E8E0"/>
<path opacity="0.4" d="M250.608 54.6432L247.515 52.857L250.608 51.0708L253.702 52.857L250.608 54.6432Z" fill="#42E8E0"/>
<path d="M256.795 58.2135L253.701 56.4288L256.795 54.6426L259.888 56.4288L256.795 58.2135Z" fill="#42E8E0"/>
<path d="M262.981 61.7858L259.888 59.9996L262.981 58.2134L266.075 60.0012L262.981 61.7858Z" fill="#42E8E0"/>
<path d="M269.169 65.3586L266.075 63.5723L269.169 61.7861L272.262 63.5723L269.169 65.3586Z" fill="#42E8E0"/>
<path opacity="0.4" d="M213.46 40.3683L210.366 38.5821L213.46 36.7959L216.553 38.5821L213.46 40.3683Z" fill="#42E8E0"/>
<path opacity="0.4" d="M219.646 43.9395L216.553 42.1533L219.646 40.3687L222.74 42.1533L219.646 43.9395Z" fill="#42E8E0"/>
<path opacity="0.1" d="M225.835 47.5114L222.741 45.7252L225.835 43.939L228.928 45.7252L225.835 47.5114Z" fill="#42E8E0"/>
<path d="M232.022 51.0842L228.929 49.2979L232.022 47.5117L235.116 49.2979L232.022 51.0842Z" fill="#42E8E0"/>
<path d="M238.211 54.6564L235.117 52.8702L238.211 51.084L241.304 52.8702L238.211 54.6564Z" fill="#42E8E0"/>
<path d="M244.397 58.2292L241.304 56.443L244.397 54.6567L247.491 56.443L244.397 58.2292Z" fill="#42E8E0"/>
<path opacity="0.4" d="M250.582 61.8009L247.488 60.0147L250.582 58.2285L253.675 60.0147L250.582 61.8009Z" fill="#42E8E0"/>
<path d="M256.769 65.3721L253.676 63.5859L256.769 61.8013L259.863 63.5875L256.769 65.3721Z" fill="#42E8E0"/>
<path d="M262.958 68.9444L259.864 67.1582L262.958 65.3735L266.051 67.1582L262.958 68.9444Z" fill="#42E8E0"/>
<path d="M207.249 43.9553L204.155 42.169L207.249 40.3828L210.342 42.169L207.249 43.9553Z" fill="#42E8E0"/>
<path d="M213.435 47.526L210.342 45.7413L213.435 43.9551L216.529 45.7413L213.435 47.526Z" fill="#42E8E0"/>
<path d="M219.622 51.0987L216.528 49.3125L219.622 47.5278L222.715 49.314L219.622 51.0987Z" fill="#42E8E0"/>
<path d="M225.81 54.6711L222.717 52.8849L225.81 51.0986L228.904 52.8849L225.81 54.6711Z" fill="#42E8E0"/>
<path d="M231.999 58.2428L228.904 56.4566L231.999 54.6704L235.093 56.4566L231.999 58.2428Z" fill="#42E8E0"/>
<path d="M238.186 61.8156L235.093 60.0294L238.186 58.2432L241.28 60.0294L238.186 61.8156Z" fill="#42E8E0"/>
<path d="M244.373 65.3879L241.279 63.6017L244.373 61.8154L247.466 63.6017L244.373 65.3879Z" fill="#42E8E0"/>
<path d="M250.558 68.9596L247.465 67.1734L250.558 65.3872L253.652 67.1734L250.558 68.9596Z" fill="#42E8E0"/>
<path d="M256.748 72.5308L253.654 70.7462L256.748 68.96L259.841 70.7462L256.748 72.5308Z" fill="#42E8E0"/>
<path d="M201.037 47.5422L197.943 45.756L201.037 43.9697L204.13 45.756L201.037 47.5422Z" fill="#42E8E0"/>
<path d="M207.223 51.1144L204.13 49.3282L207.223 47.542L210.317 49.3282L207.223 51.1144Z" fill="#42E8E0"/>
<path opacity="0.4" d="M213.411 54.6872L210.317 52.8994L213.411 51.1147L216.504 52.901L213.411 54.6872Z" fill="#42E8E0"/>
<path d="M219.598 58.2584L216.505 56.4722L219.598 54.6875L222.692 56.4722L219.598 58.2584Z" fill="#42E8E0"/>
<path opacity="0.1" d="M225.786 61.8298L222.692 60.0435L225.786 58.2573L228.879 60.0435L225.786 61.8298Z" fill="#42E8E0"/>
<path d="M231.974 65.4025L228.881 63.6163L231.974 61.8301L235.068 63.6163L231.974 65.4025Z" fill="#42E8E0"/>
<path d="M238.16 68.9748L235.066 67.1886L238.16 65.4023L241.253 67.1886L238.16 68.9748Z" fill="#42E8E0"/>
<path d="M244.346 72.5465L241.253 70.7603L244.346 68.9741L247.44 70.7603L244.346 72.5465Z" fill="#42E8E0"/>
<path d="M250.534 76.1193L247.44 74.3331L250.534 72.5469L253.627 74.3331L250.534 76.1193Z" fill="#42E8E0"/>
<path d="M194.825 51.1276L191.731 49.3414L194.825 47.5552L197.918 49.3414L194.825 51.1276Z" fill="#42E8E0"/>
<path d="M201.011 54.7004L197.918 52.9141L201.011 51.1279L204.105 52.9141L201.011 54.7004Z" fill="#42E8E0"/>
<path opacity="0.4" d="M207.199 58.2731L204.105 56.4869L207.199 54.7007L210.292 56.4869L207.199 58.2731Z" fill="#42E8E0"/>
<path d="M213.386 61.8443L210.293 60.0597L213.386 58.2734L216.48 60.0597L213.386 61.8443Z" fill="#42E8E0"/>
<path d="M219.574 65.4162L216.48 63.63L219.574 61.8438L222.667 63.63L219.574 65.4162Z" fill="#42E8E0"/>
<path opacity="0.1" d="M225.761 68.9889L222.667 67.2027L225.761 65.4165L228.854 67.2027L225.761 68.9889Z" fill="#42E8E0"/>
<path opacity="0.4" d="M231.947 72.5602L228.854 70.774L231.947 68.9878L235.041 70.774L231.947 72.5602Z" fill="#42E8E0"/>
<path d="M238.135 76.133L235.04 74.3468L238.134 72.5605L241.229 74.3468L238.135 76.133Z" fill="#42E8E0"/>
<path opacity="0.1" d="M244.323 79.7053L241.229 77.919L244.323 76.1328L247.417 77.919L244.323 79.7053Z" fill="#42E8E0"/>
<path d="M188.614 54.714L185.519 52.9278L188.612 51.1416L191.707 52.9278L188.614 54.714Z" fill="#42E8E0"/>
<path opacity="0.4" d="M194.802 58.2868L191.708 56.5006L194.802 54.7144L197.895 56.5006L194.802 58.2868Z" fill="#42E8E0"/>
<path d="M200.988 61.8586L197.895 60.0724L200.988 58.2861L204.082 60.0724L200.988 61.8586Z" fill="#42E8E0"/>
<path d="M207.176 65.4298L204.082 63.6451L207.176 61.8589L210.269 63.6451L207.176 65.4298Z" fill="#42E8E0"/>
<path d="M213.363 69.0025L210.27 67.2163L213.363 65.4316L216.457 67.2179L213.363 69.0025Z" fill="#42E8E0"/>
<path d="M219.55 72.5744L216.456 70.7882L219.55 69.002L222.643 70.7882L219.55 72.5744Z" fill="#42E8E0"/>
<path d="M225.735 76.1467L222.642 74.3604L225.735 72.5742L228.829 74.3604L225.735 76.1467Z" fill="#42E8E0"/>
<path opacity="0.4" d="M231.923 79.7194L228.829 77.9332L231.923 76.147L235.016 77.9332L231.923 79.7194Z" fill="#42E8E0"/>
<path d="M238.109 83.2922L235.016 81.506L238.109 79.7197L241.204 81.506L238.109 83.2922Z" fill="#42E8E0"/>
<path d="M182.4 58.3019L179.307 56.5157L182.4 54.7295L185.494 56.5157L182.4 58.3019Z" fill="#42E8E0"/>
<path opacity="0.1" d="M188.589 61.8747L185.495 60.0885L188.589 58.3022L191.682 60.0885L188.589 61.8747Z" fill="#42E8E0"/>
<path d="M194.775 65.447L191.682 63.6607L194.775 61.8745L197.869 63.6607L194.775 65.447Z" fill="#42E8E0"/>
<path d="M200.963 69.0197L197.869 67.2335L200.963 65.4473L204.056 67.2335L200.963 69.0197Z" fill="#42E8E0"/>
<path d="M207.151 72.592L204.058 70.8057L207.151 69.0195L210.245 70.8057L207.151 72.592Z" fill="#42E8E0"/>
<path d="M213.338 76.1632L210.244 74.377L213.338 72.5923L216.431 74.377L213.338 76.1632Z" fill="#42E8E0"/>
<path opacity="0.4" d="M219.523 79.7345L216.43 77.9483L219.523 76.1621L222.617 77.9483L219.523 79.7345Z" fill="#42E8E0"/>
<path d="M225.712 83.3068L222.618 81.5206L225.712 79.7344L228.805 81.5206L225.712 83.3068Z" fill="#42E8E0"/>
<path d="M231.897 86.8791L228.804 85.0929L231.897 83.3066L234.991 85.0929L231.897 86.8791Z" fill="#42E8E0"/>
<defs>
<linearGradient id="paint0_linear_208_6973" x1="40.0812" y1="245.556" x2="180.57" y2="245.556" gradientUnits="userSpaceOnUse">
<stop stop-color="#5761D7"/>
<stop offset="0.1645" stop-color="#5E67DA"/>
<stop offset="0.4051" stop-color="#727AE2"/>
<stop offset="0.6924" stop-color="#9297EE"/>
<stop offset="1" stop-color="#BCBEFF"/>
</linearGradient>
<linearGradient id="paint1_linear_208_6973" x1="79.8402" y1="226.571" x2="164.165" y2="226.571" gradientUnits="userSpaceOnUse">
<stop stop-color="#42E8E0"/>
<stop offset="0.1507" stop-color="#43E3E0"/>
<stop offset="0.3285" stop-color="#45D5DF"/>
<stop offset="0.5199" stop-color="#49BDDD"/>
<stop offset="0.7209" stop-color="#4E9CDB"/>
<stop offset="0.9274" stop-color="#5472D8"/>
<stop offset="1" stop-color="#5761D7"/>
</linearGradient>
<linearGradient id="paint2_linear_208_6973" x1="122.002" y1="211.331" x2="164.165" y2="211.331" gradientUnits="userSpaceOnUse">
<stop stop-color="#42E8E0"/>
<stop offset="0.1507" stop-color="#43E3E0"/>
<stop offset="0.3285" stop-color="#45D5DF"/>
<stop offset="0.5199" stop-color="#49BDDD"/>
<stop offset="0.7209" stop-color="#4E9CDB"/>
<stop offset="0.9274" stop-color="#5472D8"/>
<stop offset="1" stop-color="#5761D7"/>
</linearGradient>
<linearGradient id="paint3_linear_208_6973" x1="79.8402" y1="211.33" x2="122.003" y2="211.33" gradientUnits="userSpaceOnUse">
<stop stop-color="#42E8E0"/>
<stop offset="0.1507" stop-color="#43E3E0"/>
<stop offset="0.3285" stop-color="#45D5DF"/>
<stop offset="0.5199" stop-color="#49BDDD"/>
<stop offset="0.7209" stop-color="#4E9CDB"/>
<stop offset="0.9274" stop-color="#5472D8"/>
<stop offset="1" stop-color="#5761D7"/>
</linearGradient>
<linearGradient id="paint4_linear_208_6973" x1="79.8402" y1="220.433" x2="164.165" y2="220.433" gradientUnits="userSpaceOnUse">
<stop stop-color="#42E8E0"/>
<stop offset="0.1507" stop-color="#43E3E0"/>
<stop offset="0.3285" stop-color="#45D5DF"/>
<stop offset="0.5199" stop-color="#49BDDD"/>
<stop offset="0.7209" stop-color="#4E9CDB"/>
<stop offset="0.9274" stop-color="#5472D8"/>
<stop offset="1" stop-color="#5761D7"/>
</linearGradient>
<linearGradient id="paint5_linear_208_6973" x1="122.004" y1="235.673" x2="164.165" y2="235.673" gradientUnits="userSpaceOnUse">
<stop stop-color="#42E8E0"/>
<stop offset="0.1507" stop-color="#43E3E0"/>
<stop offset="0.3285" stop-color="#45D5DF"/>
<stop offset="0.5199" stop-color="#49BDDD"/>
<stop offset="0.7209" stop-color="#4E9CDB"/>
<stop offset="0.9274" stop-color="#5472D8"/>
<stop offset="1" stop-color="#5761D7"/>
</linearGradient>
<linearGradient id="paint6_linear_208_6973" x1="79.8402" y1="235.673" x2="122.003" y2="235.673" gradientUnits="userSpaceOnUse">
<stop stop-color="#42E8E0"/>
<stop offset="0.1507" stop-color="#43E3E0"/>
<stop offset="0.3285" stop-color="#45D5DF"/>
<stop offset="0.5199" stop-color="#49BDDD"/>
<stop offset="0.7209" stop-color="#4E9CDB"/>
<stop offset="0.9274" stop-color="#5472D8"/>
<stop offset="1" stop-color="#5761D7"/>
</linearGradient>
<linearGradient id="paint7_linear_208_6973" x1="40.0812" y1="389.34" x2="180.57" y2="389.34" gradientUnits="userSpaceOnUse">
<stop stop-color="#5761D7"/>
<stop offset="0.1645" stop-color="#5E67DA"/>
<stop offset="0.4051" stop-color="#727AE2"/>
<stop offset="0.6924" stop-color="#9297EE"/>
<stop offset="1" stop-color="#BCBEFF"/>
</linearGradient>
<linearGradient id="paint8_linear_208_6973" x1="79.8402" y1="370.356" x2="164.165" y2="370.356" gradientUnits="userSpaceOnUse">
<stop stop-color="#42E8E0"/>
<stop offset="0.1507" stop-color="#43E3E0"/>
<stop offset="0.3285" stop-color="#45D5DF"/>
<stop offset="0.5199" stop-color="#49BDDD"/>
<stop offset="0.7209" stop-color="#4E9CDB"/>
<stop offset="0.9274" stop-color="#5472D8"/>
<stop offset="1" stop-color="#5761D7"/>
</linearGradient>
<linearGradient id="paint9_linear_208_6973" x1="122.002" y1="355.116" x2="164.165" y2="355.116" gradientUnits="userSpaceOnUse">
<stop stop-color="#42E8E0"/>
<stop offset="0.1507" stop-color="#43E3E0"/>
<stop offset="0.3285" stop-color="#45D5DF"/>
<stop offset="0.5199" stop-color="#49BDDD"/>
<stop offset="0.7209" stop-color="#4E9CDB"/>
<stop offset="0.9274" stop-color="#5472D8"/>
<stop offset="1" stop-color="#5761D7"/>
</linearGradient>
<linearGradient id="paint10_linear_208_6973" x1="79.8402" y1="355.115" x2="122.003" y2="355.115" gradientUnits="userSpaceOnUse">
<stop stop-color="#42E8E0"/>
<stop offset="0.1507" stop-color="#43E3E0"/>
<stop offset="0.3285" stop-color="#45D5DF"/>
<stop offset="0.5199" stop-color="#49BDDD"/>
<stop offset="0.7209" stop-color="#4E9CDB"/>
<stop offset="0.9274" stop-color="#5472D8"/>
<stop offset="1" stop-color="#5761D7"/>
</linearGradient>
<linearGradient id="paint11_linear_208_6973" x1="79.8402" y1="364.217" x2="164.165" y2="364.217" gradientUnits="userSpaceOnUse">
<stop stop-color="#42E8E0"/>
<stop offset="0.1507" stop-color="#43E3E0"/>
<stop offset="0.3285" stop-color="#45D5DF"/>
<stop offset="0.5199" stop-color="#49BDDD"/>
<stop offset="0.7209" stop-color="#4E9CDB"/>
<stop offset="0.9274" stop-color="#5472D8"/>
<stop offset="1" stop-color="#5761D7"/>
</linearGradient>
<linearGradient id="paint12_linear_208_6973" x1="122.004" y1="379.458" x2="164.165" y2="379.458" gradientUnits="userSpaceOnUse">
<stop stop-color="#42E8E0"/>
<stop offset="0.1507" stop-color="#43E3E0"/>
<stop offset="0.3285" stop-color="#45D5DF"/>
<stop offset="0.5199" stop-color="#49BDDD"/>
<stop offset="0.7209" stop-color="#4E9CDB"/>
<stop offset="0.9274" stop-color="#5472D8"/>
<stop offset="1" stop-color="#5761D7"/>
</linearGradient>
<linearGradient id="paint13_linear_208_6973" x1="79.8402" y1="379.458" x2="122.003" y2="379.458" gradientUnits="userSpaceOnUse">
<stop stop-color="#42E8E0"/>
<stop offset="0.1507" stop-color="#43E3E0"/>
<stop offset="0.3285" stop-color="#45D5DF"/>
<stop offset="0.5199" stop-color="#49BDDD"/>
<stop offset="0.7209" stop-color="#4E9CDB"/>
<stop offset="0.9274" stop-color="#5472D8"/>
<stop offset="1" stop-color="#5761D7"/>
</linearGradient>
<linearGradient id="paint14_linear_208_6973" x1="259.808" y1="245.556" x2="400.296" y2="245.556" gradientUnits="userSpaceOnUse">
<stop stop-color="#5761D7"/>
<stop offset="0.1645" stop-color="#5E67DA"/>
<stop offset="0.4051" stop-color="#727AE2"/>
<stop offset="0.6924" stop-color="#9297EE"/>
<stop offset="1" stop-color="#BCBEFF"/>
</linearGradient>
<linearGradient id="paint15_linear_208_6973" x1="299.564" y1="226.572" x2="383.889" y2="226.572" gradientUnits="userSpaceOnUse">
<stop stop-color="#42E8E0"/>
<stop offset="0.1507" stop-color="#43E3E0"/>
<stop offset="0.3285" stop-color="#45D5DF"/>
<stop offset="0.5199" stop-color="#49BDDD"/>
<stop offset="0.7209" stop-color="#4E9CDB"/>
<stop offset="0.9274" stop-color="#5472D8"/>
<stop offset="1" stop-color="#5761D7"/>
</linearGradient>
<linearGradient id="paint16_linear_208_6973" x1="341.726" y1="211.331" x2="383.889" y2="211.331" gradientUnits="userSpaceOnUse">
<stop stop-color="#42E8E0"/>
<stop offset="0.1507" stop-color="#43E3E0"/>
<stop offset="0.3285" stop-color="#45D5DF"/>
<stop offset="0.5199" stop-color="#49BDDD"/>
<stop offset="0.7209" stop-color="#4E9CDB"/>
<stop offset="0.9274" stop-color="#5472D8"/>
<stop offset="1" stop-color="#5761D7"/>
</linearGradient>
<linearGradient id="paint17_linear_208_6973" x1="299.564" y1="211.331" x2="341.727" y2="211.331" gradientUnits="userSpaceOnUse">
<stop stop-color="#42E8E0"/>
<stop offset="0.1507" stop-color="#43E3E0"/>
<stop offset="0.3285" stop-color="#45D5DF"/>
<stop offset="0.5199" stop-color="#49BDDD"/>
<stop offset="0.7209" stop-color="#4E9CDB"/>
<stop offset="0.9274" stop-color="#5472D8"/>
<stop offset="1" stop-color="#5761D7"/>
</linearGradient>
<linearGradient id="paint18_linear_208_6973" x1="299.564" y1="220.433" x2="383.889" y2="220.433" gradientUnits="userSpaceOnUse">
<stop stop-color="#42E8E0"/>
<stop offset="0.1507" stop-color="#43E3E0"/>
<stop offset="0.3285" stop-color="#45D5DF"/>
<stop offset="0.5199" stop-color="#49BDDD"/>
<stop offset="0.7209" stop-color="#4E9CDB"/>
<stop offset="0.9274" stop-color="#5472D8"/>
<stop offset="1" stop-color="#5761D7"/>
</linearGradient>
<linearGradient id="paint19_linear_208_6973" x1="341.727" y1="235.674" x2="383.889" y2="235.674" gradientUnits="userSpaceOnUse">
<stop stop-color="#42E8E0"/>
<stop offset="0.1507" stop-color="#43E3E0"/>
<stop offset="0.3285" stop-color="#45D5DF"/>
<stop offset="0.5199" stop-color="#49BDDD"/>
<stop offset="0.7209" stop-color="#4E9CDB"/>
<stop offset="0.9274" stop-color="#5472D8"/>
<stop offset="1" stop-color="#5761D7"/>
</linearGradient>
<linearGradient id="paint20_linear_208_6973" x1="299.564" y1="235.673" x2="341.727" y2="235.673" gradientUnits="userSpaceOnUse">
<stop stop-color="#42E8E0"/>
<stop offset="0.1507" stop-color="#43E3E0"/>
<stop offset="0.3285" stop-color="#45D5DF"/>
<stop offset="0.5199" stop-color="#49BDDD"/>
<stop offset="0.7209" stop-color="#4E9CDB"/>
<stop offset="0.9274" stop-color="#5472D8"/>
<stop offset="1" stop-color="#5761D7"/>
</linearGradient>
<linearGradient id="paint21_linear_208_6973" x1="259.808" y1="389.34" x2="400.296" y2="389.34" gradientUnits="userSpaceOnUse">
<stop stop-color="#5761D7"/>
<stop offset="0.1645" stop-color="#5E67DA"/>
<stop offset="0.4051" stop-color="#727AE2"/>
<stop offset="0.6924" stop-color="#9297EE"/>
<stop offset="1" stop-color="#BCBEFF"/>
</linearGradient>
<linearGradient id="paint22_linear_208_6973" x1="299.564" y1="370.355" x2="383.889" y2="370.355" gradientUnits="userSpaceOnUse">
<stop stop-color="#42E8E0"/>
<stop offset="0.1507" stop-color="#43E3E0"/>
<stop offset="0.3285" stop-color="#45D5DF"/>
<stop offset="0.5199" stop-color="#49BDDD"/>
<stop offset="0.7209" stop-color="#4E9CDB"/>
<stop offset="0.9274" stop-color="#5472D8"/>
<stop offset="1" stop-color="#5761D7"/>
</linearGradient>
<linearGradient id="paint23_linear_208_6973" x1="341.726" y1="355.115" x2="383.889" y2="355.115" gradientUnits="userSpaceOnUse">
<stop stop-color="#42E8E0"/>
<stop offset="0.1507" stop-color="#43E3E0"/>
<stop offset="0.3285" stop-color="#45D5DF"/>
<stop offset="0.5199" stop-color="#49BDDD"/>
<stop offset="0.7209" stop-color="#4E9CDB"/>
<stop offset="0.9274" stop-color="#5472D8"/>
<stop offset="1" stop-color="#5761D7"/>
</linearGradient>
<linearGradient id="paint24_linear_208_6973" x1="299.564" y1="355.114" x2="341.727" y2="355.114" gradientUnits="userSpaceOnUse">
<stop stop-color="#42E8E0"/>
<stop offset="0.1507" stop-color="#43E3E0"/>
<stop offset="0.3285" stop-color="#45D5DF"/>
<stop offset="0.5199" stop-color="#49BDDD"/>
<stop offset="0.7209" stop-color="#4E9CDB"/>
<stop offset="0.9274" stop-color="#5472D8"/>
<stop offset="1" stop-color="#5761D7"/>
</linearGradient>
<linearGradient id="paint25_linear_208_6973" x1="299.564" y1="364.216" x2="383.889" y2="364.216" gradientUnits="userSpaceOnUse">
<stop stop-color="#42E8E0"/>
<stop offset="0.1507" stop-color="#43E3E0"/>
<stop offset="0.3285" stop-color="#45D5DF"/>
<stop offset="0.5199" stop-color="#49BDDD"/>
<stop offset="0.7209" stop-color="#4E9CDB"/>
<stop offset="0.9274" stop-color="#5472D8"/>
<stop offset="1" stop-color="#5761D7"/>
</linearGradient>
<linearGradient id="paint26_linear_208_6973" x1="341.727" y1="379.457" x2="383.889" y2="379.457" gradientUnits="userSpaceOnUse">
<stop stop-color="#42E8E0"/>
<stop offset="0.1507" stop-color="#43E3E0"/>
<stop offset="0.3285" stop-color="#45D5DF"/>
<stop offset="0.5199" stop-color="#49BDDD"/>
<stop offset="0.7209" stop-color="#4E9CDB"/>
<stop offset="0.9274" stop-color="#5472D8"/>
<stop offset="1" stop-color="#5761D7"/>
</linearGradient>
<linearGradient id="paint27_linear_208_6973" x1="299.564" y1="379.457" x2="341.727" y2="379.457" gradientUnits="userSpaceOnUse">
<stop stop-color="#42E8E0"/>
<stop offset="0.1507" stop-color="#43E3E0"/>
<stop offset="0.3285" stop-color="#45D5DF"/>
<stop offset="0.5199" stop-color="#49BDDD"/>
<stop offset="0.7209" stop-color="#4E9CDB"/>
<stop offset="0.9274" stop-color="#5472D8"/>
<stop offset="1" stop-color="#5761D7"/>
</linearGradient>
<linearGradient id="paint28_linear_208_6973" x1="280.711" y1="309.848" x2="280.711" y2="104.255" gradientUnits="userSpaceOnUse">
<stop stop-color="#C0BFF6"/>
<stop offset="0.2938" stop-color="#C5C4F7"/>
<stop offset="0.6399" stop-color="#D3D2F9"/>
<stop offset="1" stop-color="#E9E9FD"/>
</linearGradient>
<linearGradient id="paint29_linear_208_6973" x1="280.71" y1="124.904" x2="280.71" y2="58.3287" gradientUnits="userSpaceOnUse">
<stop stop-color="#C0BFF6"/>
<stop offset="0.2938" stop-color="#C5C4F7"/>
<stop offset="0.6399" stop-color="#D3D2F9"/>
<stop offset="1" stop-color="#E9E9FD"/>
</linearGradient>
</defs>
</svg>
