<svg width="40" height="40" viewBox="0 0 40 40" fill="none" xmlns="http://www.w3.org/2000/svg">
<g id="vuesax/bulk/driver">
<g id="driver">
<path id="Vector" opacity="0.4" d="M32.2 16.6668H7.81666C5.34999 16.6668 3.34998 14.6501 3.34998 12.2001V7.81676C3.34998 5.3501 5.36666 3.3501 7.81666 3.3501H32.2C34.6667 3.3501 36.6667 5.36676 36.6667 7.81676V12.2001C36.6667 14.6501 34.65 16.6668 32.2 16.6668Z" fill="#017EFF"/>
<path id="Vector_2" opacity="0.4" d="M32.2 36.6668H7.81666C5.34999 36.6668 3.34998 34.6501 3.34998 32.2001V27.8168C3.34998 25.3501 5.36666 23.3501 7.81666 23.3501H32.2C34.6667 23.3501 36.6667 25.3668 36.6667 27.8168V32.2001C36.6667 34.6501 34.65 36.6668 32.2 36.6668Z" fill="#017EFF"/>
<g id="Group">
<path id="Vector_3" d="M10 12.9168C9.31667 12.9168 8.75 12.3502 8.75 11.6668V8.3335C8.75 7.65016 9.31667 7.0835 10 7.0835C10.6833 7.0835 11.25 7.65016 11.25 8.3335V11.6668C11.25 12.3502 10.6833 12.9168 10 12.9168Z" fill="#017EFF"/>
</g>
<g id="Group_2">
<path id="Vector_4" d="M16.6667 12.9168C15.9833 12.9168 15.4167 12.3502 15.4167 11.6668V8.3335C15.4167 7.65016 15.9833 7.0835 16.6667 7.0835C17.35 7.0835 17.9167 7.65016 17.9167 8.3335V11.6668C17.9167 12.3502 17.35 12.9168 16.6667 12.9168Z" fill="#017EFF"/>
</g>
<g id="Group_3">
<path id="Vector_5" d="M10 32.9168C9.31667 32.9168 8.75 32.3502 8.75 31.6668V28.3335C8.75 27.6502 9.31667 27.0835 10 27.0835C10.6833 27.0835 11.25 27.6502 11.25 28.3335V31.6668C11.25 32.3502 10.6833 32.9168 10 32.9168Z" fill="#017EFF"/>
</g>
<g id="Group_4">
<path id="Vector_6" d="M16.6667 32.9168C15.9833 32.9168 15.4167 32.3502 15.4167 31.6668V28.3335C15.4167 27.6502 15.9833 27.0835 16.6667 27.0835C17.35 27.0835 17.9167 27.6502 17.9167 28.3335V31.6668C17.9167 32.3502 17.35 32.9168 16.6667 32.9168Z" fill="#017EFF"/>
</g>
<g id="Group_5">
<path id="Vector_7" d="M30 11.25H23.3333C22.65 11.25 22.0833 10.6833 22.0833 10C22.0833 9.31667 22.65 8.75 23.3333 8.75H30C30.6833 8.75 31.25 9.31667 31.25 10C31.25 10.6833 30.6833 11.25 30 11.25Z" fill="#017EFF"/>
</g>
<g id="Group_6">
<path id="Vector_8" d="M30 31.25H23.3333C22.65 31.25 22.0833 30.6833 22.0833 30C22.0833 29.3167 22.65 28.75 23.3333 28.75H30C30.6833 28.75 31.25 29.3167 31.25 30C31.25 30.6833 30.6833 31.25 30 31.25Z" fill="#017EFF"/>
</g>
</g>
</g>
</svg>
