<svg width="40" height="40" viewBox="0 0 40 40" fill="none" xmlns="http://www.w3.org/2000/svg">
<g id="vuesax/bulk/map">
<g id="map">
<path id="Vector" opacity="0.4" d="M33.1334 34.9001C31.55 36.0668 29.4667 36.6668 26.9834 36.6668H13.0167C12.6167 36.6668 12.2167 36.6501 11.8334 36.6001L23.3334 25.1001L33.1334 34.9001Z" fill="#FF5E00"/>
<path id="Vector_2" opacity="0.4" d="M36.6666 13.0168V26.9835C36.6666 29.4668 36.0667 31.5502 34.9 33.1335L25.1 23.3335L36.6 11.8335C36.65 12.2168 36.6666 12.6168 36.6666 13.0168Z" fill="#FF5E00"/>
<path id="Vector_3" opacity="0.4" d="M25.1 23.3335L34.9 33.1335C34.4166 33.8335 33.8333 34.4168 33.1333 34.9002L23.3333 25.1002L11.8333 36.6002C10.7667 36.5335 9.79999 36.3168 8.91666 35.9835C5.34999 34.6835 3.33331 31.5168 3.33331 26.9835V13.0168C3.33331 6.95016 6.94998 3.3335 13.0166 3.3335H26.9833C31.5166 3.3335 34.6833 5.35016 35.9833 8.91683C36.3166 9.80016 36.5333 10.7668 36.6 11.8335L25.1 23.3335Z" fill="#FF5E00"/>
<path id="Vector_4" d="M25.1 23.3332L34.9 33.1332C34.4167 33.8332 33.8334 34.4165 33.1334 34.8998L23.3333 25.0998L11.8334 36.5998C10.7667 36.5332 9.80002 36.3165 8.91669 35.9832L9.56666 35.3332L35.9833 8.9165C36.3167 9.79984 36.5333 10.7665 36.6 11.8332L25.1 23.3332Z" fill="#FF5E00"/>
<path id="Vector_5" d="M20.4 13.2168C19.7666 10.4668 17.3333 9.23346 15.2 9.2168C13.0667 9.2168 10.6333 10.4501 9.99999 13.2001C9.29999 16.2501 11.1666 18.8001 12.85 20.4001C13.5166 21.0335 14.35 21.3335 15.2 21.3335C16.05 21.3335 16.8833 21.0168 17.55 20.4001C19.2333 18.8001 21.1 16.2501 20.4 13.2168ZM15.25 15.8168C14.3333 15.8168 13.5833 15.0668 13.5833 14.1501C13.5833 13.2335 14.3166 12.4835 15.25 12.4835H15.2667C16.1833 12.4835 16.9333 13.2335 16.9333 14.1501C16.9333 15.0668 16.1666 15.8168 15.25 15.8168Z" fill="#FF5E00"/>
</g>
</g>
</svg>
