<svg width="98" height="27" viewBox="0 0 98 27" fill="none" xmlns="http://www.w3.org/2000/svg">
<g opacity="0.5">
<path fill-rule="evenodd" clip-rule="evenodd" d="M6.87092 3.79771C5.21751 5.51366 3.85277 6.94895 3.83802 6.98733C3.82336 7.02571 5.09482 8.07053 6.66356 9.30921C8.23229 10.5478 9.59686 11.5987 9.69592 11.6447C9.81062 11.6977 9.96317 11.6952 10.1157 11.6377C10.2475 11.5879 11.6236 10.5379 13.1737 9.3045C14.7238 8.07097 15.9921 7.02687 15.9921 6.98422C15.9921 6.94158 14.8798 5.75505 13.5202 4.34748C12.1606 2.93991 10.817 1.53847 10.5343 1.23302C10.2517 0.927655 9.98814 0.677734 9.94869 0.677734C9.90933 0.677734 8.52433 2.08166 6.87092 3.79771ZM0.141797 5.93434C0.0172367 6.11221 0 6.6069 0 10.0041V13.8712H0.425745C0.827502 13.8712 0.943889 13.9359 2.49139 15.018C3.39335 15.6488 4.30179 16.3017 4.51031 16.4689C4.71874 16.6361 4.94858 16.8876 5.02117 17.0279C5.13044 17.2393 5.15319 17.8267 5.15426 20.4635L5.15559 23.6442L6.88984 25.0657C7.84377 25.8475 8.7014 26.5227 8.79575 26.566C8.91462 26.6208 9.03634 26.5997 9.19244 26.4973L9.41757 26.3499V19.6133V12.8768L5.1069 9.33159C1.98542 6.76433 0.725508 5.77886 0.539911 5.75914C0.354314 5.73941 0.244502 5.78774 0.141797 5.93434ZM15.0031 9.12281C12.7374 10.9823 10.7735 12.6221 10.6392 12.7669L10.3949 13.03V19.6071V26.1843L10.6185 26.408C10.7782 26.5677 10.8953 26.6146 11.0288 26.5722C11.1316 26.5396 11.9886 25.8752 12.9334 25.0958L14.6512 23.6786L14.6776 20.463C14.7007 17.6255 14.7218 17.2146 14.8561 16.9692C14.9574 16.7841 15.6414 16.2461 16.8996 15.362C17.9397 14.6311 18.8861 13.9823 19.0028 13.9203C19.1213 13.8573 19.3467 13.8289 19.5137 13.856L19.8124 13.9044V9.96284C19.8124 6.49788 19.7956 6.00426 19.6729 5.88148C19.596 5.80472 19.4409 5.7419 19.328 5.7419C19.1893 5.7419 17.7864 6.8386 15.0031 9.12281Z" fill="#181818"/>
<path d="M30.1297 0.777344C31.6552 0.777344 32.7757 1.1298 33.4911 1.83471C34.2171 2.52911 34.5801 3.61278 34.5801 5.08573C34.5801 6.49556 34.1908 7.53714 33.4122 8.21049C32.6442 8.87332 31.4395 9.20474 29.7982 9.20474H28.2516V12.3295H24.7166V0.777344H30.1297ZM29.53 6.45873C30.056 6.45873 30.4453 6.34826 30.6978 6.12732C30.9503 5.90637 31.0766 5.55918 31.0766 5.08573C31.0766 4.58072 30.9503 4.20722 30.6978 3.96523C30.4453 3.72325 30.056 3.60226 29.53 3.60226H28.2516V6.45873H29.53Z" fill="#181818"/>
<path d="M44.6045 9.50459V12.3295H35.5616V0.777344H39.1125V9.50459H44.6045Z" fill="#181818"/>
<path d="M54.0906 12.3295L53.3489 10.6882H49.1194L48.3777 12.3295H44.5901L49.7033 0.793126H52.765L57.8782 12.3295H54.0906ZM51.2341 5.08573L50.1294 8.00533H52.3546L51.2341 5.08573Z" fill="#181818"/>
<path d="M61.8393 12.3295H58.32V0.777344H61.8393V12.3295Z" fill="#181818"/>
<path d="M71.6279 12.3295L67.3669 6.66389V12.3295H63.8476V0.777344H67.0986L71.3754 6.50608V0.777344H74.8947V12.3295H71.6279Z" fill="#181818"/>
<path d="M30.1297 14.7542C31.6552 14.7542 32.7757 15.1067 33.4911 15.8116C34.2171 16.506 34.5801 17.5897 34.5801 19.0626C34.5801 20.4725 34.1908 21.514 33.4122 22.1874C32.6442 22.8502 31.4395 23.1816 29.7982 23.1816H28.2516V26.3064H24.7166V14.7542H30.1297ZM29.53 20.4356C30.056 20.4356 30.4453 20.3252 30.6978 20.1042C30.9503 19.8833 31.0766 19.5361 31.0766 19.0626C31.0766 18.5576 30.9503 18.1841 30.6978 17.9421C30.4453 17.7001 30.056 17.5792 29.53 17.5792H28.2516V20.4356H29.53Z" fill="#181818"/>
<path d="M42.0952 26.3064L40.233 22.8187H39.1598V26.3064H35.6405V14.7542H41.1325C42.5634 14.7542 43.6471 15.112 44.3835 15.8274C45.12 16.5323 45.4883 17.5739 45.4883 18.9522C45.4883 20.7723 44.857 21.8823 43.5945 22.2821L45.9144 26.3064H42.0952ZM40.6749 20.0727C41.1062 20.0727 41.4324 19.9727 41.6533 19.7728C41.8848 19.5729 42.0005 19.2783 42.0005 18.889C42.0005 18.0158 41.5586 17.5792 40.6749 17.5792H39.1598V20.0727H40.6749Z" fill="#181818"/>
<path d="M52.7534 26.4958C50.7228 26.4958 49.1815 25.9908 48.1293 24.9807C47.0878 23.9707 46.567 22.4872 46.567 20.5303C46.567 18.5734 47.0878 17.0899 48.1293 16.0799C49.1815 15.0699 50.7228 14.5649 52.7534 14.5649C54.7839 14.5649 56.32 15.0699 57.3616 16.0799C58.4032 17.0899 58.924 18.5734 58.924 20.5303C58.924 22.4872 58.4032 23.9707 57.3616 24.9807C56.32 25.9908 54.7839 26.4958 52.7534 26.4958ZM52.7534 17.516C51.8801 17.516 51.2173 17.7738 50.7649 18.2893C50.323 18.7943 50.102 19.5413 50.102 20.5303C50.102 21.5193 50.323 22.2663 50.7649 22.7713C51.2173 23.2763 51.8801 23.5288 52.7534 23.5288C53.6161 23.5288 54.2684 23.2763 54.7103 22.7713C55.1627 22.2663 55.3889 21.5193 55.3889 20.5303C55.3889 19.5413 55.168 18.7943 54.7261 18.2893C54.2842 17.7738 53.6266 17.516 52.7534 17.516Z" fill="#181818"/>
<path d="M62.6901 20.5934L60.4176 17.6581L59.2339 16.1588C58.8973 15.738 58.5343 15.2698 58.145 14.7542H62.3903L64.7417 18.0999L65.5308 16.9479L66.1621 16.0326L67.0458 14.7542H71.2753L66.7618 20.5934L67.5193 21.5403L69.6498 24.239L71.2595 26.3064H66.9827L64.7259 23.1027L64.4577 23.4815L64.0473 24.0496L63.4161 24.9492L62.4534 26.3064H58.2397L62.6901 20.5934Z" fill="#181818"/>
<path d="M75.3979 26.3064H71.8786V14.7542H75.3979V26.3064Z" fill="#181818"/>
<path d="M81.1252 17.5792V19.11H86.1595V21.9349H81.1252V23.4815H86.8065V26.3064H77.6059V14.7542H86.8065V17.5792H81.1252Z" fill="#181818"/>
<path d="M89.2411 22.5346C89.7356 22.8292 90.3563 23.0764 91.1033 23.2763C91.8503 23.4657 92.5553 23.5604 93.2181 23.5604C93.681 23.5604 94.0019 23.5183 94.1808 23.4341C94.3701 23.3395 94.4648 23.1501 94.4648 22.866C94.4648 22.6345 94.3807 22.482 94.2123 22.4083C94.0545 22.3242 93.7494 22.2453 93.297 22.1716L92.7446 22.0769C91.6399 21.8665 90.7509 21.6087 90.0775 21.3036C89.4042 20.9985 88.9097 20.6198 88.5941 20.1673C88.2784 19.7044 88.1206 19.1468 88.1206 18.4945C88.1206 17.1478 88.4889 16.1641 89.2253 15.5433C89.9723 14.9121 91.1823 14.5964 92.8551 14.5964C93.7704 14.5964 94.6437 14.7174 95.4749 14.9594C96.306 15.2014 97.0425 15.5223 97.6843 15.9221L96.2955 18.3998C95.8326 18.1473 95.2697 17.9421 94.6069 17.7843C93.9546 17.6265 93.3443 17.5476 92.7762 17.5476C92.3764 17.5476 92.0871 17.5949 91.9082 17.6896C91.7399 17.7843 91.6557 17.9474 91.6557 18.1789C91.6557 18.3577 91.703 18.4945 91.7977 18.5892C91.8924 18.6839 92.0239 18.7523 92.1923 18.7943C92.3606 18.8364 92.6605 18.8943 93.0918 18.9679C94.2807 19.1468 95.2276 19.3835 95.9325 19.6781C96.648 19.9622 97.1688 20.3357 97.4949 20.7986C97.8316 21.251 97.9999 21.8244 97.9999 22.5188C97.9999 23.8971 97.6317 24.9071 96.8952 25.5489C96.1587 26.1801 94.9541 26.4958 93.2812 26.4958C92.2607 26.4958 91.2875 26.3748 90.3616 26.1328C89.4358 25.8803 88.6414 25.5121 87.9786 25.0281L89.2411 22.5346Z" fill="#181818"/>
</g>
</svg>
