 <svg xmlns="http://www.w3.org/2000/svg" width="606" height="353" viewBox="0 0 606 353" fill="none">
                            <path opacity="0.1" d="M479.437 188.209L429.127 159.164C428.265 158.663 428.37 157.802 429.371 157.231L479.192 128.466C480.182 127.895 481.684 127.825 482.546 128.326L532.856 157.371C533.718 157.872 533.613 158.733 532.612 159.304L482.791 188.069C481.801 188.64 480.298 188.71 479.437 188.209Z" fill="#242993"/>
                            <path d="M480.857 201.252C479.995 201.252 479.169 201.078 478.54 200.705L408.036 159.991C407.337 159.583 406.953 159.001 406.941 158.337C406.941 157.58 407.465 156.847 408.373 156.323L478.202 116.005C479.774 115.096 482.08 115.015 483.454 115.807L553.958 156.509C554.657 156.916 555.041 157.499 555.041 158.163C555.041 158.92 554.517 159.653 553.62 160.177L483.792 200.495C482.942 200.984 481.882 201.229 480.857 201.229V201.252ZM481.137 116.377C480.31 116.377 479.425 116.575 478.749 116.971L408.921 157.289C408.373 157.604 408.047 158 408.047 158.349C408.047 158.675 408.338 158.908 408.583 159.048L479.087 199.762C480.123 200.356 482.022 200.274 483.245 199.564L553.073 159.246C553.62 158.931 553.947 158.535 553.947 158.186C553.947 157.86 553.655 157.627 553.411 157.487L482.907 116.785C482.441 116.517 481.812 116.389 481.148 116.389L481.137 116.377Z" fill="#017EFF"/>
                            <path d="M533.427 138.993V129.292H517.623L482.558 109.052C481.696 108.551 480.194 108.621 479.204 109.191L444.289 129.35H428.556V139.086C428.568 139.389 428.754 139.68 429.127 139.89L479.437 168.935C480.298 169.435 481.801 169.365 482.791 168.795L532.612 140.03C533.124 139.727 533.404 139.354 533.427 138.993Z" fill="url(#paint0_linear_201_650)"/>
                            <path d="M479.437 159.234L429.127 130.19C428.265 129.689 428.37 128.827 429.371 128.256L479.192 99.4911C480.182 98.9205 481.684 98.8506 482.546 99.3514L532.856 128.396C533.718 128.897 533.613 129.759 532.612 130.329L482.791 159.095C481.801 159.665 480.298 159.735 479.437 159.234Z" fill="url(#paint1_linear_201_650)"/>
                            <path d="M479.437 159.234L429.127 130.19C428.265 129.689 428.37 128.827 429.371 128.256L479.192 99.4911C480.182 98.9205 481.684 98.8506 482.546 99.3514L532.856 128.396C533.718 128.897 533.613 129.759 532.612 130.329L482.791 159.095C481.801 159.665 480.298 159.735 479.437 159.234Z" fill="url(#paint2_linear_201_650)"/>
                            <path d="M479.611 155.833L435.02 130.084C434.251 129.642 434.356 128.873 435.229 128.361L479.39 102.868C480.275 102.356 481.603 102.309 482.372 102.74L526.964 128.489C527.721 128.932 527.627 129.7 526.754 130.213L482.593 155.705C481.708 156.218 480.38 156.264 479.611 155.833Z" fill="#242993"/>
                            <path d="M479.728 153.678L438.758 130.026C438.059 129.618 438.14 128.919 438.956 128.442L479.53 105.022C480.333 104.556 481.568 104.51 482.266 104.906L523.237 128.558C523.935 128.966 523.854 129.665 523.039 130.142L482.464 153.562C481.661 154.028 480.426 154.074 479.728 153.678Z" fill="#4553C7"/>
                            <path d="M480.054 127.755L475.256 124.984L477.876 123.481L482.663 126.242L480.054 127.755Z" fill="#017EFF"/>
                            <path d="M488.951 127.36L484.165 130.131L481.545 128.617L486.331 125.846L488.951 127.36Z" fill="#017EFF"/>
                            <path d="M478.959 128.384L476.351 129.886L473.73 128.384L476.351 126.87L478.959 128.384Z" fill="#017EFF"/>
                            <path d="M487.996 133.602L485.388 135.104L477.841 130.76L480.462 129.246L487.996 133.602Z" fill="#017EFF"/>
                            <path opacity="0.4" d="M533.438 116.25L512.033 116.378L482.546 99.3514C481.684 98.8506 480.182 98.9205 479.192 99.4911L449.297 116.75L428.544 116.878V129.479H428.556C428.602 129.747 428.789 130.003 429.126 130.19L479.437 159.234C480.298 159.735 481.801 159.665 482.791 159.095L532.612 130.329C533.066 130.073 533.322 129.747 533.403 129.421L533.438 129.398V116.238V116.25Z" fill="#017EFF"/>
                            <path d="M533.427 117.495V107.794H517.623L482.558 87.5535C481.696 87.0527 480.194 87.1226 479.204 87.6933L444.289 107.852H428.556V117.588C428.568 117.891 428.754 118.182 429.127 118.392L479.437 147.437C480.298 147.937 481.801 147.867 482.791 147.297L532.612 118.531C533.124 118.229 533.404 117.856 533.427 117.495Z" fill="url(#paint3_linear_201_650)"/>
                            <path d="M479.437 137.735L429.127 108.691C428.265 108.19 428.37 107.328 429.371 106.757L479.192 77.9921C480.182 77.4215 481.684 77.3516 482.546 77.8523L532.856 106.897C533.718 107.398 533.613 108.26 532.612 108.83L482.791 137.596C481.801 138.166 480.298 138.236 479.437 137.735Z" fill="url(#paint4_linear_201_650)"/>
                            <path d="M479.611 134.335L435.02 108.586C434.251 108.144 434.356 107.375 435.229 106.863L479.39 81.37C480.275 80.8576 481.603 80.811 482.372 81.2419L526.964 106.991C527.721 107.433 527.627 108.202 526.754 108.715L482.593 134.207C481.708 134.72 480.38 134.766 479.611 134.335Z" fill="#242993"/>
                            <path d="M479.728 132.169L438.758 108.516C438.059 108.108 438.14 107.41 438.956 106.932L479.53 83.5122C480.333 83.0464 481.568 82.9998 482.266 83.3958L523.237 107.049C523.935 107.456 523.854 108.155 523.039 108.632L482.464 132.052C481.661 132.518 480.426 132.565 479.728 132.169Z" fill="#017EFF"/>
                            <path d="M480.054 106.246L475.256 103.486L477.876 101.972L482.663 104.743L480.054 106.246Z" fill="white"/>
                            <path d="M488.951 105.861L484.165 108.621L481.545 107.118L486.331 104.347L488.951 105.861Z" fill="white"/>
                            <path d="M478.959 106.874L476.351 108.388L473.73 106.874L476.351 105.372L478.959 106.874Z" fill="white"/>
                            <path d="M487.996 112.092L485.388 113.606L477.841 109.25L480.462 107.736L487.996 112.092Z" fill="white"/>
                            <path opacity="0.1" d="M128.617 191.726L78.3068 162.681C77.4451 162.18 77.5499 161.318 78.5514 160.748L128.372 131.982C129.362 131.412 130.865 131.342 131.726 131.843L182.037 160.887C182.898 161.388 182.793 162.25 181.792 162.821L131.971 191.586C130.981 192.156 129.479 192.226 128.617 191.726Z" fill="#242993"/>
                            <path d="M130.049 204.769C129.187 204.769 128.361 204.594 127.72 204.222L57.216 163.508C56.5172 163.1 56.1329 162.518 56.1329 161.854C56.1329 161.097 56.657 160.363 57.5537 159.839L127.382 119.521C128.943 118.613 131.26 118.531 132.635 119.323L203.139 160.037C203.837 160.445 204.233 161.027 204.233 161.691C204.233 162.448 203.709 163.182 202.801 163.706L132.972 204.024C132.122 204.513 131.062 204.757 130.038 204.757L130.049 204.769ZM128.279 203.278C129.316 203.872 131.214 203.791 132.437 203.08L202.265 162.762C202.813 162.448 203.139 162.052 203.139 161.702C203.139 161.376 202.847 161.143 202.603 160.992L132.099 120.278C131.062 119.684 129.164 119.777 127.941 120.476L58.1127 160.794C57.5654 161.109 57.2393 161.504 57.2393 161.854C57.2393 162.18 57.5304 162.413 57.775 162.553L128.279 203.267V203.278Z" fill="#017EFF"/>
                            <path d="M182.607 142.511V132.81H166.804L131.738 112.569C130.876 112.068 129.374 112.138 128.384 112.709L93.4698 132.868H77.7362V142.604C77.7479 142.907 77.9342 143.198 78.3069 143.407L128.617 172.452C129.479 172.953 130.981 172.883 131.971 172.312L181.792 143.547C182.304 143.244 182.584 142.872 182.607 142.511Z" fill="url(#paint5_linear_201_650)"/>
                            <path d="M128.617 162.751L78.3068 133.706C77.4451 133.205 77.5499 132.344 78.5514 131.773L128.372 103.008C129.362 102.437 130.865 102.367 131.726 102.868L182.037 131.913C182.898 132.414 182.793 133.275 181.792 133.846L131.971 162.611C130.981 163.182 129.479 163.252 128.617 162.751Z" fill="url(#paint6_linear_201_650)"/>
                            <path d="M128.617 162.751L78.3068 133.706C77.4451 133.205 77.5499 132.344 78.5514 131.773L128.372 103.008C129.362 102.437 130.865 102.367 131.726 102.868L182.037 131.913C182.898 132.414 182.793 133.275 181.792 133.846L131.971 162.611C130.981 163.182 129.479 163.252 128.617 162.751Z" fill="url(#paint7_linear_201_650)"/>
                            <path d="M128.791 159.35L84.1995 133.601C83.4425 133.159 83.5357 132.39 84.4091 131.877L128.57 106.385C129.455 105.872 130.783 105.826 131.552 106.257L176.144 132.006C176.901 132.448 176.807 133.217 175.934 133.729L131.773 159.222C130.888 159.734 129.56 159.781 128.791 159.35Z" fill="#242993"/>
                            <path d="M128.908 157.196L87.9379 133.543C87.2392 133.136 87.3207 132.437 88.1359 131.959L128.71 108.54C129.514 108.074 130.748 108.027 131.447 108.423L172.417 132.076C173.116 132.483 173.034 133.182 172.219 133.66L131.645 157.08C130.841 157.545 129.607 157.592 128.908 157.196Z" fill="#4553C7"/>
                            <path d="M129.234 131.272L124.448 128.5L127.056 126.998L131.854 129.758L129.234 131.272Z" fill="#017EFF"/>
                            <path d="M138.143 130.876L133.345 133.648L130.736 132.134L135.523 129.374L138.143 130.876Z" fill="#017EFF"/>
                            <path d="M128.151 131.901L125.531 133.403L122.911 131.901L125.531 130.387L128.151 131.901Z" fill="#017EFF"/>
                            <path d="M137.188 137.118L134.568 138.632L127.033 134.277L129.642 132.763L137.188 137.118Z" fill="#017EFF"/>
                            <path opacity="0.4" d="M182.619 119.766L161.214 119.894L131.726 102.868C130.865 102.367 129.362 102.437 128.372 103.008L98.4774 120.267L77.7245 120.395V132.996H77.7361C77.7827 133.264 77.9691 133.52 78.3068 133.706L128.617 162.751C129.479 163.252 130.981 163.182 131.971 162.611L181.792 133.846C182.246 133.59 182.502 133.264 182.584 132.938L182.619 132.914V119.754V119.766Z" fill="#017EFF"/>
                            <path d="M182.607 121.013V111.312H166.804L131.738 91.0711C130.876 90.5703 129.374 90.6402 128.384 91.2108L93.4698 111.37H77.7362V121.106C77.7479 121.409 77.9342 121.7 78.3069 121.909L128.617 150.954C129.479 151.455 130.981 151.385 131.971 150.814L181.792 122.049C182.304 121.746 182.584 121.374 182.607 121.013Z" fill="url(#paint8_linear_201_650)"/>
                            <path d="M128.617 141.253L78.3068 112.208C77.4451 111.707 77.5499 110.846 78.5514 110.275L128.372 81.5097C129.362 80.939 130.865 80.8692 131.726 81.3699L182.037 110.415C182.898 110.915 182.793 111.777 181.792 112.348L131.971 141.113C130.981 141.684 129.479 141.754 128.617 141.253Z" fill="url(#paint9_linear_201_650)"/>
                            <path d="M128.791 137.852L84.1995 112.103C83.4425 111.66 83.5357 110.892 84.4091 110.379L128.57 84.8866C129.455 84.3742 130.783 84.3276 131.552 84.7585L176.144 110.508C176.901 110.95 176.807 111.719 175.934 112.231L131.773 137.724C130.888 138.236 129.56 138.283 128.791 137.852Z" fill="#242993"/>
                            <path d="M128.908 135.698L87.9379 112.045C87.2392 111.638 87.3207 110.939 88.1359 110.461L128.71 87.0415C129.514 86.5757 130.748 86.5291 131.447 86.9251L172.417 110.578C173.116 110.985 173.034 111.684 172.219 112.162L131.645 135.581C130.841 136.047 129.607 136.094 128.908 135.698Z" fill="#017EFF"/>
                            <path d="M129.234 109.774L124.448 107.002L127.056 105.488L131.854 108.26L129.234 109.774Z" fill="white"/>
                            <path d="M138.143 109.378L133.345 112.138L130.736 110.636L135.523 107.864L138.143 109.378Z" fill="white"/>
                            <path d="M128.151 110.391L125.531 111.905L122.911 110.391L125.531 108.889L128.151 110.391Z" fill="white"/>
                            <path d="M137.188 115.62L134.568 117.123L127.033 112.767L129.642 111.265L137.188 115.62Z" fill="white"/>
                            <path d="M417.644 341.073C416.852 341.073 416.048 340.863 415.338 340.455L374.042 316.616L374.589 315.661L415.885 339.5C416.968 340.129 418.319 340.129 419.402 339.5L604.175 232.824C604.455 232.661 604.49 232.393 604.49 232.289C604.49 232.184 604.455 231.916 604.175 231.753L516.657 181.222L517.204 180.267L604.723 230.798C605.258 231.112 605.584 231.66 605.584 232.289C605.584 232.918 605.258 233.465 604.723 233.779L419.949 340.455C419.239 340.863 418.436 341.073 417.644 341.073Z" fill="#017EFF"/>
                            <path d="M201.159 352.498L200.879 352.334L0 236.645L0.826856 236.167L92.4448 183.283L92.9922 184.227L2.18942 236.645L201.159 351.228L257.909 318.608L258.457 319.551L201.159 352.498Z" fill="#017EFF"/>
                            <path opacity="0.1" d="M310.787 332.105C310.789 332.105 310.79 332.103 310.788 332.102L218.907 279.058C217.335 278.15 217.533 276.566 219.35 275.518L310.351 222.984C312.167 221.936 314.916 221.819 316.476 222.727L408.362 275.774C409.934 276.683 409.736 278.267 407.92 279.315L316.919 331.849C315.104 332.896 312.36 333.014 310.787 332.108C310.785 332.107 310.786 332.105 310.787 332.105Z" fill="#242993"/>
                            <path d="M313.413 350.342C312.004 350.342 310.653 350.051 309.628 349.457L189.455 280.071C188.372 279.442 187.778 278.557 187.778 277.556C187.778 276.403 188.605 275.262 190.037 274.435L309.058 205.712C311.632 204.222 315.405 204.082 317.664 205.375L437.838 274.761C438.921 275.39 439.515 276.275 439.515 277.276C439.515 278.429 438.688 279.571 437.255 280.397L318.235 349.12C316.837 349.923 315.09 350.342 313.413 350.342ZM313.879 205.654C312.412 205.654 310.851 206.015 309.628 206.714L190.608 275.436C189.548 276.053 188.931 276.822 188.931 277.556C188.931 278.289 189.525 278.779 190.025 279.058L310.199 348.444C312.062 349.516 315.463 349.364 317.641 348.106L436.661 279.384C437.721 278.767 438.338 277.998 438.338 277.265C438.338 276.531 437.745 276.042 437.244 275.762L317.07 206.376C316.22 205.887 315.079 205.643 313.879 205.643V205.654Z" fill="#017EFF"/>
                            <path d="M409.41 248.849V231.124L380.54 231.147L316.488 194.16C314.916 193.252 312.167 193.368 310.35 194.416L246.578 231.24L217.847 231.264V249.035H217.871C217.894 249.583 218.232 250.107 218.907 250.503L310.793 303.55C312.365 304.458 315.114 304.342 316.93 303.293L407.931 250.759C408.874 250.212 409.375 249.524 409.422 248.861L409.41 248.849Z" fill="url(#paint10_linear_201_650)"/>
                            <path d="M310.793 285.812L218.907 232.766C217.335 231.857 217.533 230.273 219.35 229.225L310.351 176.691C312.167 175.643 314.916 175.526 316.476 176.434L408.362 229.481C409.934 230.39 409.736 231.974 407.92 233.022L316.919 285.556C315.102 286.604 312.354 286.721 310.782 285.812H310.793Z" fill="url(#paint11_linear_201_650)"/>
                            <path d="M311.119 279.594L229.668 232.568C228.27 231.764 228.445 230.355 230.064 229.435L310.723 182.863C312.33 181.932 314.764 181.839 316.162 182.642L397.613 229.668C399.01 230.472 398.836 231.881 397.217 232.801L316.558 279.373C314.95 280.304 312.516 280.397 311.119 279.594Z" fill="#242993"/>
                            <path d="M311.317 275.658L236.492 232.451C235.211 231.718 235.374 230.425 236.853 229.563L310.956 186.776C312.435 185.926 314.671 185.833 315.952 186.567L390.777 229.773C392.058 230.507 391.895 231.799 390.416 232.661L316.313 275.448C314.834 276.298 312.598 276.391 311.317 275.658Z" fill="#4553C7"/>
                            <path opacity="0.5" d="M311.923 263.965L256.733 232.102C255.79 231.554 255.906 230.599 257.001 229.971L311.655 198.41C312.75 197.781 314.392 197.712 315.335 198.259L370.525 230.122C371.468 230.669 371.352 231.624 370.257 232.253L315.603 263.813C314.508 264.442 312.866 264.512 311.923 263.965Z" fill="#242993"/>
                            <path d="M311.911 228.306L303.165 223.251L307.94 220.491L316.698 225.546L311.911 228.306Z" fill="#017EFF"/>
                            <path d="M328.18 227.595L319.422 232.649L314.647 229.889L323.405 224.835L328.18 227.595Z" fill="#017EFF"/>
                            <path d="M309.931 229.458L305.156 232.207L300.37 229.458L305.156 226.698L309.931 229.458Z" fill="#017EFF"/>
                            <path d="M326.445 238.985L321.659 241.745L307.882 233.791L312.668 231.031L326.445 238.985Z" fill="#017EFF"/>
                            <path d="M313.635 86.3657L238.833 43.1828L313.623 0L388.425 43.1828L313.635 86.3657Z" fill="#BCD5FF"/>
                            <path d="M313.635 252.122L238.833 208.939L313.623 165.756L388.425 208.95L313.635 252.122Z" fill="white"/>
                            <path d="M388.424 43.1826V208.95L313.635 252.121V86.3655L388.424 43.1826Z" fill="url(#paint12_linear_201_650)"/>
                            <path d="M238.833 43.1826V208.938L313.635 252.121V86.3655L238.833 43.1826Z" fill="#242993"/>
                            <g opacity="0.51">
                            <path d="M243.899 54.1768V203.174L308.568 240.51V91.5134L243.899 54.1768Z" fill="#4553C7"/>
                            </g>
                            <path d="M377.209 83.2324V87.6113L324.85 117.844V113.465L377.209 83.2324Z" fill="#4553C7"/>
                            <path d="M377.209 101.762V106.141L324.85 136.362V131.983L377.209 101.762Z" fill="#4553C7"/>
                            <path d="M377.209 120.278V124.669L324.85 154.89V150.511L377.209 120.278Z" fill="#4553C7"/>
                            <path d="M377.209 138.807V143.185L324.85 173.418V169.039L377.209 138.807Z" fill="#4553C7"/>
                            <path d="M377.209 157.336V161.715L324.85 191.947V187.557L377.209 157.336Z" fill="#4553C7"/>
                            <path d="M377.209 175.864V180.243L324.85 210.464V206.085L377.209 175.864Z" fill="#4553C7"/>
                            <path d="M313.635 84.8867L240.115 42.4492L238.833 43.1829L313.635 86.3658L388.425 43.1829L387.143 42.4492L313.635 84.8867Z" fill="white"/>
                            <path opacity="0.25" d="M313.635 75.0223H293.977L238.833 43.1826L298.833 8.53613H313.623L313.635 75.0223Z" fill="url(#paint13_linear_201_650)"/>
                            <path d="M313.634 71.2025L259.353 39.8751L313.623 8.53613L367.904 39.8751L313.634 71.2025Z" fill="url(#paint14_linear_201_650)"/>
                            <path d="M367.904 39.875V43.6832L313.635 75.0222V71.2024L367.904 39.875Z" fill="url(#paint15_linear_201_650)"/>
                            <path d="M259.353 39.875V43.6832L313.634 75.0222V71.2024L259.353 39.875Z" fill="url(#paint16_linear_201_650)"/>
                            <path d="M292.579 40.3767L290.18 38.9908L290.378 37.8612L312.668 24.8877L315.766 26.3667L315.195 27.3217L292.579 40.3767Z" fill="#3F38FC"/>
                            <path d="M312.785 25.9351L315.195 27.321L316.744 26.4243L312.785 24.1533L288.631 38.0934L290.18 38.9901L312.785 25.9351Z" fill="url(#paint17_linear_201_650)"/>
                            <path d="M299.881 44.5808L297.47 43.1833L297.668 42.0653L319.97 29.0918L323.068 30.5592L322.486 31.5258L299.881 44.5808Z" fill="#3F38FC"/>
                            <path d="M320.087 30.1392L322.486 31.525L324.035 30.6283L320.087 28.3457L295.933 42.2974L297.482 43.1942L320.087 30.1392Z" fill="url(#paint18_linear_201_650)"/>
                            <path d="M307.171 48.7732L304.772 47.3873L304.97 46.2577L327.26 33.2842L330.358 34.7632L329.776 35.7182L307.171 48.7732Z" fill="#3F38FC"/>
                            <path d="M327.377 34.3326L329.776 35.7185L331.325 34.8334L327.377 32.5508L303.223 46.4909L304.772 47.3876L327.377 34.3326Z" fill="url(#paint19_linear_201_650)"/>
                            <path d="M314.473 52.9773L312.062 51.5798L312.26 50.4618L334.562 37.4883L337.648 38.9557L337.078 39.9223L314.473 52.9773Z" fill="#3F38FC"/>
                            <path d="M334.679 38.5366L337.078 39.9225L338.627 39.0258L334.679 36.7432L310.514 50.6949L312.063 51.5916L334.679 38.5366Z" fill="url(#paint20_linear_201_650)"/>
                            <g opacity="0.51">
                            <path d="M238.833 182.747L313.635 137.584V86.3655L238.833 43.1826V182.747Z" fill="#4553C7"/>
                            </g>
                            <path d="M310.665 93.8194C310.665 91.9211 309.337 89.6152 307.684 88.6603C306.857 88.1828 306.111 88.1362 305.576 88.4623L303.468 89.6967L304.772 89.7433C304.737 89.9413 304.714 90.1509 304.714 90.3838C304.714 92.2821 306.042 94.588 307.695 95.543C307.916 95.6711 308.126 95.7642 308.336 95.8341L307.73 96.9638L309.792 95.7526C310.339 95.4382 310.677 94.7743 310.677 93.8194H310.665Z" fill="url(#paint21_linear_201_650)"/>
                            <path d="M308.545 95.065C308.545 96.9633 307.218 97.7319 305.564 96.7886C303.922 95.8453 302.583 93.5278 302.583 91.6295C302.583 89.7312 303.91 88.9626 305.564 89.9059C307.218 90.8492 308.545 93.1667 308.545 95.065Z" fill="url(#paint22_linear_201_650)"/>
                            <path d="M307.276 94.3313C307.276 95.426 306.507 95.8686 305.564 95.3212C304.621 94.7739 303.852 93.4463 303.852 92.3515C303.852 91.2568 304.621 90.8143 305.564 91.3616C306.507 91.909 307.276 93.2366 307.276 94.3313Z" fill="#3F38FC"/>
                            <path d="M247.94 55.2832C247.94 53.385 246.613 51.0791 244.959 50.1241C244.132 49.6466 243.387 49.6001 242.851 49.9261L240.743 51.1606L242.047 51.2072C242.013 51.4052 241.989 51.6148 241.989 51.8477C241.989 53.746 243.317 56.0519 244.971 57.0068C245.192 57.1349 245.401 57.2281 245.611 57.298L245.006 58.4276L247.067 57.2165C247.614 56.902 247.952 56.2382 247.952 55.2832H247.94Z" fill="url(#paint23_linear_201_650)"/>
                            <path d="M245.821 56.5172C245.821 58.4154 244.493 59.1841 242.839 58.2407C241.186 57.2974 239.858 54.9799 239.858 53.0816C239.858 51.1834 241.186 50.4147 242.839 51.358C244.482 52.3014 245.821 54.6189 245.821 56.5172Z" fill="url(#paint24_linear_201_650)"/>
                            <path d="M244.551 55.7835C244.551 56.8782 243.783 57.3207 242.839 56.7734C241.896 56.226 241.127 54.8984 241.127 53.8037C241.127 52.709 241.896 52.2664 242.839 52.8138C243.783 53.3611 244.551 54.6888 244.551 55.7835Z" fill="#3F38FC"/>
                            <path d="M310.665 242.269C310.665 240.37 309.337 238.064 307.684 237.109C306.857 236.632 306.111 236.585 305.576 236.911L303.468 238.146L304.772 238.193C304.737 238.391 304.714 238.6 304.714 238.833C304.714 240.731 306.042 243.037 307.695 243.992C307.916 244.12 308.126 244.213 308.336 244.283L307.73 245.413L309.792 244.202C310.339 243.887 310.677 243.224 310.677 242.269H310.665Z" fill="url(#paint25_linear_201_650)"/>
                            <path d="M308.545 243.515C308.545 245.413 307.218 246.182 305.564 245.239C303.91 244.295 302.583 241.978 302.583 240.08C302.583 238.181 303.91 237.413 305.564 238.356C307.206 239.299 308.545 241.617 308.545 243.515Z" fill="url(#paint26_linear_201_650)"/>
                            <path d="M307.276 242.782C307.276 243.876 306.507 244.319 305.564 243.771C304.621 243.224 303.852 241.896 303.852 240.802C303.852 239.707 304.621 239.264 305.564 239.812C306.507 240.359 307.276 241.687 307.276 242.782Z" fill="#3F38FC"/>
                            <path d="M247.94 203.732C247.94 201.834 246.613 199.528 244.959 198.573C244.132 198.096 243.387 198.049 242.851 198.375L240.743 199.61L242.047 199.656C242.013 199.854 241.989 200.064 241.989 200.297C241.989 202.195 243.317 204.501 244.971 205.456C245.192 205.584 245.401 205.677 245.611 205.747L245.006 206.877L247.067 205.666C247.614 205.351 247.952 204.687 247.952 203.732H247.94Z" fill="url(#paint27_linear_201_650)"/>
                            <path d="M245.821 204.967C245.821 206.866 244.493 207.634 242.839 206.691C241.197 205.748 239.858 203.43 239.858 201.532C239.858 199.634 241.186 198.865 242.839 199.808C244.493 200.752 245.821 203.069 245.821 204.967Z" fill="url(#paint28_linear_201_650)"/>
                            <path d="M244.551 204.245C244.551 205.34 243.783 205.783 242.839 205.235C241.896 204.688 241.127 203.36 241.127 202.266C241.127 201.171 241.896 200.728 242.839 201.276C243.783 201.823 244.551 203.151 244.551 204.245Z" fill="#3F38FC"/>
                            <path d="M117.751 281.062L80.7523 259.703L117.751 238.345L154.75 259.703L117.751 281.062ZM82.7671 259.703L117.751 279.897L152.735 259.703L117.751 239.509L82.7671 259.703Z" fill="#017EFF"/>
                            <path d="M446.363 259.61L409.364 238.251L446.363 216.893L483.362 238.251L446.363 259.61ZM411.378 238.251L446.363 258.445L481.347 238.251L446.363 218.057L411.378 238.251Z" fill="#017EFF"/>
                            <path d="M511.817 346.688L474.818 325.329L511.817 303.971L548.815 325.329L511.817 346.688ZM476.832 325.329L511.817 345.523L546.801 325.329L511.817 305.135L476.832 325.329Z" fill="#017EFF"/>
                            <defs>
                            <linearGradient id="paint0_linear_201_650" x1="511.02" y1="110.309" x2="429.29" y2="175.841" gradientUnits="userSpaceOnUse">
                            <stop stop-color="#BCD5FF"/>
                            <stop offset="0.15" stop-color="#A2BDFF"/>
                            <stop offset="0.39" stop-color="#819FFF"/>
                            <stop offset="0.61" stop-color="#6A89FF"/>
                            <stop offset="0.82" stop-color="#5B7CFF"/>
                            <stop offset="1" stop-color="#5778FF"/>
                            </linearGradient>
                            <linearGradient id="paint1_linear_201_650" x1="771.653" y1="271.832" x2="677.517" y2="286.28" gradientUnits="userSpaceOnUse">
                            <stop stop-color="#C0D6FF"/>
                            <stop offset="0.3" stop-color="#C4DAFF"/>
                            <stop offset="0.65" stop-color="#D3E9FF"/>
                            <stop offset="1" stop-color="#E9FFFF"/>
                            </linearGradient>
                            <linearGradient id="paint2_linear_201_650" x1="771.653" y1="271.832" x2="677.517" y2="286.28" gradientUnits="userSpaceOnUse">
                            <stop stop-color="#C0D6FF"/>
                            <stop offset="0.3" stop-color="#C4DAFF"/>
                            <stop offset="0.65" stop-color="#D3E9FF"/>
                            <stop offset="1" stop-color="#E9FFFF"/>
                            </linearGradient>
                            <linearGradient id="paint3_linear_201_650" x1="511.02" y1="88.7996" x2="429.29" y2="154.343" gradientUnits="userSpaceOnUse">
                            <stop stop-color="#BCD5FF"/>
                            <stop offset="0.15" stop-color="#A2BDFF"/>
                            <stop offset="0.39" stop-color="#819FFF"/>
                            <stop offset="0.61" stop-color="#6A89FF"/>
                            <stop offset="0.82" stop-color="#5B7CFF"/>
                            <stop offset="1" stop-color="#5778FF"/>
                            </linearGradient>
                            <linearGradient id="paint4_linear_201_650" x1="762.336" y1="244.95" x2="668.21" y2="259.403" gradientUnits="userSpaceOnUse">
                            <stop stop-color="#C0D6FF"/>
                            <stop offset="0.3" stop-color="#C4DAFF"/>
                            <stop offset="0.65" stop-color="#D3E9FF"/>
                            <stop offset="1" stop-color="#E9FFFF"/>
                            </linearGradient>
                            <linearGradient id="paint5_linear_201_650" x1="160.212" y1="113.827" x2="78.4815" y2="179.358" gradientUnits="userSpaceOnUse">
                            <stop stop-color="#BCD5FF"/>
                            <stop offset="0.15" stop-color="#A2BDFF"/>
                            <stop offset="0.39" stop-color="#819FFF"/>
                            <stop offset="0.61" stop-color="#6A89FF"/>
                            <stop offset="0.82" stop-color="#5B7CFF"/>
                            <stop offset="1" stop-color="#5778FF"/>
                            </linearGradient>
                            <linearGradient id="paint6_linear_201_650" x1="510.055" y1="326.854" x2="415.929" y2="341.308" gradientUnits="userSpaceOnUse">
                            <stop stop-color="#C0D6FF"/>
                            <stop offset="0.3" stop-color="#C4DAFF"/>
                            <stop offset="0.65" stop-color="#D3E9FF"/>
                            <stop offset="1" stop-color="#E9FFFF"/>
                            </linearGradient>
                            <linearGradient id="paint7_linear_201_650" x1="510.055" y1="326.854" x2="415.929" y2="341.308" gradientUnits="userSpaceOnUse">
                            <stop stop-color="#C0D6FF"/>
                            <stop offset="0.3" stop-color="#C4DAFF"/>
                            <stop offset="0.65" stop-color="#D3E9FF"/>
                            <stop offset="1" stop-color="#E9FFFF"/>
                            </linearGradient>
                            <linearGradient id="paint8_linear_201_650" x1="160.212" y1="92.3288" x2="78.4815" y2="157.86" gradientUnits="userSpaceOnUse">
                            <stop stop-color="#BCD5FF"/>
                            <stop offset="0.15" stop-color="#A2BDFF"/>
                            <stop offset="0.39" stop-color="#819FFF"/>
                            <stop offset="0.61" stop-color="#6A89FF"/>
                            <stop offset="0.82" stop-color="#5B7CFF"/>
                            <stop offset="1" stop-color="#5778FF"/>
                            </linearGradient>
                            <linearGradient id="paint9_linear_201_650" x1="500.748" y1="299.978" x2="406.612" y2="314.426" gradientUnits="userSpaceOnUse">
                            <stop stop-color="#C0D6FF"/>
                            <stop offset="0.3" stop-color="#C4DAFF"/>
                            <stop offset="0.65" stop-color="#D3E9FF"/>
                            <stop offset="1" stop-color="#E9FFFF"/>
                            </linearGradient>
                            <linearGradient id="paint10_linear_201_650" x1="368.487" y1="196.443" x2="219.21" y2="316.15" gradientUnits="userSpaceOnUse">
                            <stop stop-color="#BCD5FF"/>
                            <stop offset="0.15" stop-color="#A2BDFF"/>
                            <stop offset="0.39" stop-color="#819FFF"/>
                            <stop offset="0.61" stop-color="#6A89FF"/>
                            <stop offset="0.82" stop-color="#5B7CFF"/>
                            <stop offset="1" stop-color="#5778FF"/>
                            </linearGradient>
                            <linearGradient id="paint11_linear_201_650" x1="718.775" y1="418.876" x2="546.848" y2="445.268" gradientUnits="userSpaceOnUse">
                            <stop stop-color="#C0D6FF"/>
                            <stop offset="0.3" stop-color="#C4DAFF"/>
                            <stop offset="0.65" stop-color="#D3E9FF"/>
                            <stop offset="1" stop-color="#E9FFFF"/>
                            </linearGradient>
                            <linearGradient id="paint12_linear_201_650" x1="351.03" y1="205.456" x2="351.03" y2="47.6197" gradientUnits="userSpaceOnUse">
                            <stop stop-color="#C0D6FF"/>
                            <stop offset="0.3" stop-color="#C4DAFF"/>
                            <stop offset="0.65" stop-color="#D3E9FF"/>
                            <stop offset="1" stop-color="#E9FFFF"/>
                            </linearGradient>
                            <linearGradient id="paint13_linear_201_650" x1="238.833" y1="41.7851" x2="313.635" y2="41.7851" gradientUnits="userSpaceOnUse">
                            <stop stop-color="#E9FFFF"/>
                            <stop offset="0.04" stop-color="#D3EAFF"/>
                            <stop offset="0.11" stop-color="#B2CCFF"/>
                            <stop offset="0.18" stop-color="#95B1FF"/>
                            <stop offset="0.27" stop-color="#7E9CFF"/>
                            <stop offset="0.36" stop-color="#6C8CFF"/>
                            <stop offset="0.48" stop-color="#6080FF"/>
                            <stop offset="0.64" stop-color="#5979FF"/>
                            <stop offset="1" stop-color="#5778FF"/>
                            </linearGradient>
                            <linearGradient id="paint14_linear_201_650" x1="259.353" y1="39.8751" x2="367.904" y2="39.8751" gradientUnits="userSpaceOnUse">
                            <stop stop-color="#C0D6FF"/>
                            <stop offset="0.3" stop-color="#C4DAFF"/>
                            <stop offset="0.65" stop-color="#D3E9FF"/>
                            <stop offset="1" stop-color="#E9FFFF"/>
                            </linearGradient>
                            <linearGradient id="paint15_linear_201_650" x1="347.769" y1="69.6767" x2="334.574" y2="46.6412" gradientUnits="userSpaceOnUse">
                            <stop stop-color="#C0D6FF"/>
                            <stop offset="0.3" stop-color="#C4DAFF"/>
                            <stop offset="0.65" stop-color="#D3E9FF"/>
                            <stop offset="1" stop-color="#E9FFFF"/>
                            </linearGradient>
                            <linearGradient id="paint16_linear_201_650" x1="286.5" y1="58.7413" x2="286.5" y2="23.6057" gradientUnits="userSpaceOnUse">
                            <stop stop-color="#5778FF"/>
                            <stop offset="0.18" stop-color="#5B7CFF"/>
                            <stop offset="0.39" stop-color="#6A89FF"/>
                            <stop offset="0.61" stop-color="#819FFF"/>
                            <stop offset="0.85" stop-color="#A2BDFF"/>
                            <stop offset="1" stop-color="#BCD5FF"/>
                            </linearGradient>
                            <linearGradient id="paint17_linear_201_650" x1="288.631" y1="31.5717" x2="316.744" y2="31.5717" gradientUnits="userSpaceOnUse">
                            <stop stop-color="#5778FF"/>
                            <stop offset="0.18" stop-color="#5B7CFF"/>
                            <stop offset="0.39" stop-color="#6A89FF"/>
                            <stop offset="0.61" stop-color="#819FFF"/>
                            <stop offset="0.85" stop-color="#A2BDFF"/>
                            <stop offset="1" stop-color="#BCD5FF"/>
                            </linearGradient>
                            <linearGradient id="paint18_linear_201_650" x1="295.933" y1="35.7641" x2="324.035" y2="35.7641" gradientUnits="userSpaceOnUse">
                            <stop stop-color="#5778FF"/>
                            <stop offset="0.18" stop-color="#5B7CFF"/>
                            <stop offset="0.39" stop-color="#6A89FF"/>
                            <stop offset="0.61" stop-color="#819FFF"/>
                            <stop offset="0.85" stop-color="#A2BDFF"/>
                            <stop offset="1" stop-color="#BCD5FF"/>
                            </linearGradient>
                            <linearGradient id="paint19_linear_201_650" x1="303.223" y1="39.9692" x2="331.325" y2="39.9692" gradientUnits="userSpaceOnUse">
                            <stop stop-color="#5778FF"/>
                            <stop offset="0.18" stop-color="#5B7CFF"/>
                            <stop offset="0.39" stop-color="#6A89FF"/>
                            <stop offset="0.61" stop-color="#819FFF"/>
                            <stop offset="0.85" stop-color="#A2BDFF"/>
                            <stop offset="1" stop-color="#BCD5FF"/>
                            </linearGradient>
                            <linearGradient id="paint20_linear_201_650" x1="310.514" y1="44.1616" x2="338.627" y2="44.1616" gradientUnits="userSpaceOnUse">
                            <stop stop-color="#5778FF"/>
                            <stop offset="0.18" stop-color="#5B7CFF"/>
                            <stop offset="0.39" stop-color="#6A89FF"/>
                            <stop offset="0.61" stop-color="#819FFF"/>
                            <stop offset="0.85" stop-color="#A2BDFF"/>
                            <stop offset="1" stop-color="#BCD5FF"/>
                            </linearGradient>
                            <linearGradient id="paint21_linear_201_650" x1="303.468" y1="92.6082" x2="310.665" y2="92.6082" gradientUnits="userSpaceOnUse">
                            <stop stop-color="#C0D6FF"/>
                            <stop offset="0.3" stop-color="#C4DAFF"/>
                            <stop offset="0.65" stop-color="#D3E9FF"/>
                            <stop offset="1" stop-color="#E9FFFF"/>
                            </linearGradient>
                            <linearGradient id="paint22_linear_201_650" x1="302.594" y1="93.3414" x2="308.545" y2="93.3414" gradientUnits="userSpaceOnUse">
                            <stop stop-color="#5778FF"/>
                            <stop offset="0.18" stop-color="#5B7CFF"/>
                            <stop offset="0.39" stop-color="#6A89FF"/>
                            <stop offset="0.61" stop-color="#819FFF"/>
                            <stop offset="0.85" stop-color="#A2BDFF"/>
                            <stop offset="1" stop-color="#BCD5FF"/>
                            </linearGradient>
                            <linearGradient id="paint23_linear_201_650" x1="240.743" y1="54.0721" x2="247.94" y2="54.0721" gradientUnits="userSpaceOnUse">
                            <stop stop-color="#C0D6FF"/>
                            <stop offset="0.3" stop-color="#C4DAFF"/>
                            <stop offset="0.65" stop-color="#D3E9FF"/>
                            <stop offset="1" stop-color="#E9FFFF"/>
                            </linearGradient>
                            <linearGradient id="paint24_linear_201_650" x1="239.858" y1="54.8052" x2="245.821" y2="54.8052" gradientUnits="userSpaceOnUse">
                            <stop stop-color="#5778FF"/>
                            <stop offset="0.18" stop-color="#5B7CFF"/>
                            <stop offset="0.39" stop-color="#6A89FF"/>
                            <stop offset="0.61" stop-color="#819FFF"/>
                            <stop offset="0.85" stop-color="#A2BDFF"/>
                            <stop offset="1" stop-color="#BCD5FF"/>
                            </linearGradient>
                            <linearGradient id="paint25_linear_201_650" x1="303.468" y1="241.057" x2="310.665" y2="241.057" gradientUnits="userSpaceOnUse">
                            <stop stop-color="#C0D6FF"/>
                            <stop offset="0.3" stop-color="#C4DAFF"/>
                            <stop offset="0.65" stop-color="#D3E9FF"/>
                            <stop offset="1" stop-color="#E9FFFF"/>
                            </linearGradient>
                            <linearGradient id="paint26_linear_201_650" x1="302.594" y1="241.792" x2="308.545" y2="241.792" gradientUnits="userSpaceOnUse">
                            <stop stop-color="#5778FF"/>
                            <stop offset="0.18" stop-color="#5B7CFF"/>
                            <stop offset="0.39" stop-color="#6A89FF"/>
                            <stop offset="0.61" stop-color="#819FFF"/>
                            <stop offset="0.85" stop-color="#A2BDFF"/>
                            <stop offset="1" stop-color="#BCD5FF"/>
                            </linearGradient>
                            <linearGradient id="paint27_linear_201_650" x1="240.743" y1="202.521" x2="247.94" y2="202.521" gradientUnits="userSpaceOnUse">
                            <stop stop-color="#C0D6FF"/>
                            <stop offset="0.3" stop-color="#C4DAFF"/>
                            <stop offset="0.65" stop-color="#D3E9FF"/>
                            <stop offset="1" stop-color="#E9FFFF"/>
                            </linearGradient>
                            <linearGradient id="paint28_linear_201_650" x1="239.858" y1="203.255" x2="245.821" y2="203.255" gradientUnits="userSpaceOnUse">
                            <stop stop-color="#5778FF"/>
                            <stop offset="0.18" stop-color="#5B7CFF"/>
                            <stop offset="0.39" stop-color="#6A89FF"/>
                            <stop offset="0.61" stop-color="#819FFF"/>
                            <stop offset="0.85" stop-color="#A2BDFF"/>
                            <stop offset="1" stop-color="#BCD5FF"/>
                            </linearGradient>
                            </defs>
                        </svg>
